<?xml version="1.0" encoding="UTF-8"?>
<svg width="512px" height="512px" viewBox="0 0 512 512" version="1.1" xmlns="http://www.w3.org/2000/svg" xmlns:xlink="http://www.w3.org/1999/xlink">
    <title>attach</title>
    <g id="Page-1" stroke="none" stroke-width="1" fill="none" fill-rule="evenodd">
        <g id="add" fill="#000000" transform="translate(45.152000, 54.745600)">
            <path d="M130.389333,396.672 C95.552,396.672 62.784,383.104 38.144,358.464 C-12.7146667,307.605333 -12.7146667,224.832 38.144,173.973333 L212.117333,-7.10542736e-15 L239.274667,27.1786667 L65.3013333,201.130667 C29.4186667,237.034667 29.4186667,295.424 65.3013333,331.306667 C82.688,348.693333 105.813333,358.272 130.389333,358.272 C154.965333,358.272 178.090667,348.693333 195.477333,331.306667 L367.594667,159.189333 C388.992,137.792 388.992,102.997333 367.594667,81.6 C346.858667,60.8426667 310.698667,60.9066667 290.005333,81.5786667 L121.450667,250.005333 C117.909333,253.546667 115.968,258.261333 115.968,263.274667 C115.968,268.288 117.909333,273.002667 121.472,276.544 C128.554667,283.690667 140.949333,283.648 148.032,276.544 L289.536,135.061333 L316.693333,162.24 L175.210667,303.722667 C152.874667,326.016 116.608,325.973333 94.3146667,303.722667 C72.0213333,281.429333 72.0213333,245.12 94.3146667,222.848 L262.869333,54.4426667 C280.448,36.8426667 303.893333,27.136 328.810667,27.136 C353.706667,27.136 377.130667,36.8213333 394.773333,54.4426667 C431.125333,90.816 431.125333,149.994667 394.773333,186.368 L222.634667,358.464 C197.994667,383.104 165.248,396.672 130.389333,396.672" id="attach"></path>
        </g>
    </g>
</svg>