<?xml version="1.0" encoding="UTF-8"?>
<svg width="512px" height="512px" viewBox="0 0 512 512" version="1.1" xmlns="http://www.w3.org/2000/svg" xmlns:xlink="http://www.w3.org/1999/xlink">
    <title>audio-description2</title>
    <g id="Page-1" stroke="none" stroke-width="1" fill="none" fill-rule="evenodd">
        <g id="audio-description1" fill="#000000" transform="translate(108.373333, 50.206299)">
            <path d="M245.973333,37.4737009 C277.946982,66.7049848 296.402056,107.862117 296.96,151.180368 C297.909951,195.216177 278.653958,237.264978 244.693333,265.313701 C226.004211,282.594089 213.679571,305.665214 209.706667,330.807034 C206.329518,353.742715 194.069818,374.430959 175.573333,388.407034 C157.66921,401.29244 136.409155,408.688071 114.386553,409.702731 L113.493333,409.740368 L104.96,409.740368 C80.3276219,407.522404 57.543602,395.780617 41.4457618,377.03069 L40.96,376.460368 L73.1733333,349.153701 C82.3277234,360.305185 95.684528,367.176605 110.08,368.140368 C123.827266,368.962113 137.33652,364.279929 147.626667,355.127034 C158.31779,346.967604 165.855509,335.359516 168.96,322.273701 C174.575554,288.287435 191.576543,257.219258 217.173333,234.167034 C242.646229,214.269794 257.203459,183.493912 256.426667,151.180368 C256.10565,120.082806 243.713655,90.3267194 221.866667,68.1937009 C198.168929,46.8403358 166.158236,37.2136483 134.613333,41.9537009 C86.9520408,49.0263675 49.3040095,85.9298209 41.1966163,133.31461 L40.96,134.753701 L2.84217094e-14,128.993701 C10.1305983,62.949981 61.9562801,11.1242992 128,0.993700904 C170.696138,-3.88489958 213.48351,9.34591518 245.973333,37.4737009 Z M107.52,134.327034 C149.73389,189.637483 150.156029,266.136955 108.786417,321.871184 L107.52,323.553701 L74.88,298.380368 C106.119334,257.873377 106.431727,201.55586 75.81718,160.732659 L74.88,159.500368 L107.52,134.327034 Z M45.44,181.900368 C65.8956326,209.924646 65.8956326,247.956089 45.44,275.980368 L45.44,275.980368 L13.0133333,251.020368 C22.138402,237.714547 22.138402,220.166188 13.0133333,206.860368 L13.0133333,206.860368 Z" id="Combined-Shape"></path>
        </g>
    </g>
</svg>