<?xml version="1.0" encoding="UTF-8"?>
<svg width="512px" height="512px" viewBox="0 0 512 512" version="1.1" xmlns="http://www.w3.org/2000/svg" xmlns:xlink="http://www.w3.org/1999/xlink">
    <title>barchart</title>
    <g id="Page-1" stroke="none" stroke-width="1" fill="none" fill-rule="evenodd">
        <g id="add" fill="#000000" transform="translate(42.666667, 85.333333)">
            <path d="M21.3333333,1.42108547e-14 L85.3333333,1.42108547e-14 L85.3333333,277.333333 L21.3333333,277.333333 L21.3333333,1.42108547e-14 Z M128,128 L192,128 L192,277.333333 L128,277.333333 L128,128 Z M341.333333,85.3333333 L405.333333,85.3333333 L405.333333,277.333333 L341.333333,277.333333 L341.333333,85.3333333 Z M234.666667,42.6666667 L298.666667,42.6666667 L298.666667,277.333333 L234.666667,277.333333 L234.666667,42.6666667 Z M3.55271368e-14,298.666667 L426.666667,298.666667 L426.666667,341.333333 L3.55271368e-14,341.333333 L3.55271368e-14,298.666667 Z" id="Combined-Shape"></path>
        </g>
    </g>
</svg>