<?xml version="1.0" encoding="UTF-8"?>
<svg width="512px" height="512px" viewBox="0 0 512 512" version="1.1" xmlns="http://www.w3.org/2000/svg" xmlns:xlink="http://www.w3.org/1999/xlink">
    <title>calendar-settings</title>
    <g id="Page-1" stroke="none" stroke-width="1" fill="none" fill-rule="evenodd">
        <g id="add" fill="#000000" transform="translate(64.000000, 64.000000)">
            <path d="M328.180488,192 L328.181163,214.835964 C338.584391,218.513072 348.098741,224.071849 356.315274,231.103357 L376.112086,219.673321 L405.741716,270.993345 L385.957797,282.416658 C386.931071,287.685135 387.439747,293.116497 387.439747,298.666667 C387.439747,304.216944 386.931052,309.648409 385.957741,314.916982 L405.741716,326.339988 L376.112086,377.660012 L356.315274,366.229977 C348.098741,373.261484 338.584391,378.820261 328.181163,382.49737 L328.180488,405.333333 L268.921228,405.333333 L268.920553,382.49737 C258.51771,378.820398 249.00368,373.261896 240.787356,366.230759 L220.98963,377.660012 L191.36,326.339988 L211.143975,314.916982 C210.170664,309.648409 209.661969,304.216944 209.661969,298.666667 C209.661969,293.116146 210.170709,287.684447 211.144103,282.415657 L191.36,270.993345 L220.98963,219.673321 L240.786362,231.103425 C249.002913,224.071886 258.517291,218.513084 268.920553,214.835964 L268.921228,192 L328.180488,192 Z M384,1.42108547e-14 L384.00279,203.261953 C371.691051,192.242003 357.233555,183.570174 341.334283,177.950446 L341.333333,128 L42.6666667,128 L42.6666667,341.333333 L177.950446,341.334283 C183.570022,357.233124 192.241533,371.690267 203.261056,384.001788 L1.42108547e-14,384 L1.42108547e-14,1.42108547e-14 L384,1.42108547e-14 Z M298.550858,263.111111 C278.914067,263.111111 262.995302,279.029876 262.995302,298.666667 C262.995302,318.303458 278.914067,334.222222 298.550858,334.222222 C318.187649,334.222222 334.106413,318.303458 334.106413,298.666667 C334.106413,279.029876 318.187649,263.111111 298.550858,263.111111 Z M128,256 L128,298.666667 L85.3333333,298.666667 L85.3333333,256 L128,256 Z M128,170.666667 L128,213.333333 L85.3333333,213.333333 L85.3333333,170.666667 L128,170.666667 Z M213.333333,170.666667 L213.33092,203.261616 C209.791581,206.429571 206.429571,209.791581 203.261616,213.33092 L170.666667,213.333333 L170.666667,170.666667 L213.333333,170.666667 Z M341.333333,42.6666667 L42.6666667,42.6666667 L42.6666667,85.3333333 L341.333333,85.3333333 L341.333333,42.6666667 Z" id="Combined-Shape"></path>
        </g>
    </g>
</svg>