<?xml version="1.0" encoding="UTF-8"?>
<svg width="512px" height="512px" viewBox="0 0 512 512" version="1.1" xmlns="http://www.w3.org/2000/svg" xmlns:xlink="http://www.w3.org/1999/xlink">
    <title>circle-dot-filled</title>
    <g id="Page-1" stroke="none" stroke-width="1" fill="none" fill-rule="evenodd">
        <g id="drop" fill="#000000" transform="translate(42.666667, 42.666667)">
            <path d="M213.333333,3.55271368e-14 C331.15408,3.55271368e-14 426.666667,95.5125867 426.666667,213.333333 C426.666667,331.15408 331.15408,426.666667 213.333333,426.666667 C95.5125867,426.666667 3.55271368e-14,331.15408 3.55271368e-14,213.333333 C3.55271368e-14,95.5125867 95.5125867,3.55271368e-14 213.333333,3.55271368e-14 Z M213.333333,106.666667 C154.42296,106.666667 106.666667,154.42296 106.666667,213.333333 C106.666667,272.243707 154.42296,320 213.333333,320 C272.243707,320 320,272.243707 320,213.333333 C320,154.42296 272.243707,106.666667 213.333333,106.666667 Z" id="Combined-Shape"></path>
        </g>
    </g>
</svg>