<?xml version="1.0" encoding="UTF-8"?>
<svg width="512px" height="512px" viewBox="0 0 512 512" version="1.1" xmlns="http://www.w3.org/2000/svg" xmlns:xlink="http://www.w3.org/1999/xlink">
    <title>connector-rhomb</title>
    <g id="Page-1" stroke="none" stroke-width="1" fill="none" fill-rule="evenodd">
        <g id="add" fill="#000000" transform="translate(42.666667, 42.666667)">
            <path d="M149.333333,7.10542736e-15 L298.666667,149.333333 L170.666,277.333 L170.666667,298.666667 C170.666667,309.607165 178.902191,318.624153 189.512083,319.856475 L192,320 L216.021716,319.999961 C225.399914,283.563182 258.238964,256.544864 297.475733,256.008141 L298.666667,256 L362.666667,256 L362.666,288 L426.666667,288 L426.666667,320 L362.666,320 L362.666,362.666 L426.666667,362.666667 L426.666667,394.666667 L362.666,394.666 L362.666667,426.666667 L298.666667,426.666667 C258.905133,426.666667 225.495248,399.472025 216.021974,362.667705 L192,362.666667 C157.916141,362.666667 130.055235,336.023041 128.108644,302.427153 L128,298.666667 L128,277.333 L3.55271368e-14,149.333333 L149.333333,7.10542736e-15 Z M320,298.666667 L298.666667,298.666667 L295.482403,298.783696 C273.626163,300.39619 256.348575,318.473406 256.005209,340.659774 L256,341.333333 L256.117029,344.517597 C257.729523,366.373837 275.806739,383.651425 297.993107,383.994791 L298.666667,384 L320,384 L320,298.666667 Z M149.333333,60.352 L60.352,149.333333 L149.333333,238.314667 L238.314667,149.333333 L149.333333,60.352 Z" id="Combined-Shape"></path>
        </g>
    </g>
</svg>