<?xml version="1.0" encoding="UTF-8"?>
<svg width="512px" height="512px" viewBox="0 0 512 512" version="1.1" xmlns="http://www.w3.org/2000/svg" xmlns:xlink="http://www.w3.org/1999/xlink">
    <title>connector-rect</title>
    <g id="Page-1" stroke="none" stroke-width="1" fill="none" fill-rule="evenodd">
        <g id="add" fill="#000000" transform="translate(64.000000, 64.000000)">
            <path d="M213.333333,1.42108547e-14 L213.333333,213.333333 L128,213.333 L128,277.333333 C128,288.273831 136.235524,297.290819 146.845416,298.523142 L149.333333,298.666667 L194.68864,298.665629 C204.067181,262.229351 236.905995,235.21152 276.14241,234.674807 L277.333333,234.666667 L341.333333,234.666667 L341.333,266.666 L389.333333,266.666667 C398.064692,266.666667 405.162538,273.660568 405.330297,282.351796 L405.333333,282.666667 C405.333333,291.503223 398.169889,298.666667 389.333333,298.666667 L389.333333,298.666667 L341.333,298.666 L341.333,341.333 L389.333333,341.333333 C398.064692,341.333333 405.162538,348.327234 405.330297,357.018463 L405.333333,357.333333 C405.333333,366.169889 398.169889,373.333333 389.333333,373.333333 L389.333333,373.333333 L341.333,373.333 L341.333333,405.333333 L277.333333,405.333333 C237.571799,405.333333 204.161914,378.138692 194.68864,341.334371 L149.333333,341.333333 C115.249474,341.333333 87.3885679,314.689707 85.4419775,281.093819 L85.3333333,277.333333 L85.333,213.333 L1.42108547e-14,213.333333 L1.42108547e-14,1.42108547e-14 L213.333333,1.42108547e-14 Z M298.666667,277.333333 L277.333333,277.333333 L274.14907,277.450362 C252.29283,279.062856 235.015242,297.140072 234.671876,319.326441 L234.666667,320 L234.783696,323.184263 C236.39619,345.040504 254.473406,362.318092 276.659774,362.661458 L277.333333,362.666667 L298.666667,362.666667 L298.666667,277.333333 Z M170.666667,42.6666667 L42.6666667,42.6666667 L42.6666667,170.666667 L170.666667,170.666667 L170.666667,42.6666667 Z" id="Combined-Shape"></path>
        </g>
    </g>
</svg>