<?xml version="1.0" encoding="UTF-8"?>
<svg width="512px" height="512px" viewBox="0 0 512 512" version="1.1" xmlns="http://www.w3.org/2000/svg" xmlns:xlink="http://www.w3.org/1999/xlink">
    <title>contact-details-filled</title>
    <g id="Page-1" stroke="none" stroke-width="1" fill="none" fill-rule="evenodd">
        <g id="icon" fill="#000000" transform="translate(42.666667, 85.333333)">
            <path d="M426.666667,1.42108547e-14 L426.666667,341.333333 L3.55271368e-14,341.333333 L3.55271368e-14,1.42108547e-14 L426.666667,1.42108547e-14 Z M362.666667,213.333333 L234.666667,213.333333 L234.666667,245.333333 L362.666667,245.333333 L362.666667,213.333333 Z M125.333333,155.733333 L109.333333,155.733333 C78.4053873,155.733333 53.3333333,181.333333 53.3333333,213.333333 L53.3333333,213.333333 L181.333333,213.333333 C181.333333,181.333333 156.16,155.733333 125.333333,155.733333 L125.333333,155.733333 Z M362.666667,149.333333 L234.666667,149.333333 L234.666667,181.333333 L362.666667,181.333333 L362.666667,149.333333 Z M117.333333,78.62624 C101.86936,78.62624 89.3333333,91.162267 89.3333333,106.62624 C89.3333333,122.090213 101.86936,134.62624 117.333333,134.62624 C132.797306,134.62624 145.333333,122.090213 145.333333,106.62624 C145.333333,91.162267 132.797306,78.62624 117.333333,78.62624 Z M362.666667,85.3333333 L234.666667,85.3333333 L234.666667,117.333333 L362.666667,117.333333 L362.666667,85.3333333 Z" id="Combined-Shape"></path>
        </g>
    </g>
</svg>