<?xml version="1.0" encoding="UTF-8"?>
<svg width="512px" height="512px" viewBox="0 0 512 512" version="1.1" xmlns="http://www.w3.org/2000/svg" xmlns:xlink="http://www.w3.org/1999/xlink">
    <title>diamond</title>
    <g id="Page-1" stroke="none" stroke-width="1" fill="none" fill-rule="evenodd">
        <g id="Combined-Shape" fill="#000000" transform="translate(42.666667, 85.333333)">
            <path d="M341.333333,1.42108547e-14 L426.666667,106.666667 L213.333333,394.666667 L7.10542736e-15,106.666667 L85.3333333,1.42108547e-14 L341.333333,1.42108547e-14 Z M262.563,122.666 L164.103,122.666 L213.333333,314.666667 L262.563,122.666 Z M127.703,122.666 L64.539,122.666 L184.306,302.462 L127.703,122.666 Z M362.105,122.666 L298.962,122.666 L242.395,302.349 L362.105,122.666 Z M168.889,42.666 L105.813333,42.6666667 L67.404,90.666 L134.222,90.666 L168.889,42.666 Z M224,42.666 L202.666,42.666 L170.667,90.666 L255.999,90.666 L224,42.666 Z M320.832,42.6666667 L257.777,42.666 L292.443,90.666 L359.241,90.666 L320.832,42.6666667 Z"></path>
        </g>
    </g>
</svg>