<?xml version="1.0" encoding="UTF-8"?>
<svg width="512px" height="512px" viewBox="0 0 512 512" version="1.1" xmlns="http://www.w3.org/2000/svg" xmlns:xlink="http://www.w3.org/1999/xlink">
    <title>document-management</title>
    <g id="Page-1" stroke="none" stroke-width="1" fill="none" fill-rule="evenodd">
        <g id="icon" fill="#000000" transform="translate(64.000000, 42.666667)">
            <path d="M222.169889,-2.13162821e-14 L341.333333,119.163444 L341.33483,176.97033 C328.256357,173.604093 313.822592,171.549882 298.666435,170.895226 L298.666667,136.853333 L204.48,42.6666667 L42.6666667,42.6666667 L42.6666667,384 L170.666,383.999 L170.666,426.666 L1.42108547e-14,426.666667 L1.42108547e-14,-2.13162821e-14 L222.169889,-2.13162821e-14 Z M383.580992,358.666259 C383.810933,359.752636 383.946668,360.85172 383.987139,361.961095 L384,362.666667 L384,384 C384,407.564149 341.019336,426.666667 288,426.666667 C235.510857,426.666667 192.860617,407.944289 192.012861,384.705571 L192,384 L192,362.666667 L192.012861,361.961095 C192.053238,360.854279 192.188442,359.757708 192.415018,358.672917 C198.29503,363.09162 205.45277,367.167081 213.74666,370.656167 C233.105443,378.800048 259.209222,384 288,384 C317.932371,384 344.956571,378.371188 364.546538,369.664536 C371.868861,366.41017 378.242988,362.682541 383.580992,358.666259 Z M383.580992,294.666259 C383.810933,295.752636 383.946668,296.85172 383.987139,297.961095 L384,298.666667 L384,320 C384,343.564149 341.019336,362.666667 288,362.666667 C235.510857,362.666667 192.860617,343.944289 192.012861,320.705571 L192,320 L192,298.666667 L192.012861,297.961095 C192.053238,296.854279 192.188442,295.757708 192.415018,294.672917 C198.29503,299.09162 205.45277,303.167081 213.74666,306.656167 C233.105443,314.800048 259.209222,320 288,320 C317.932371,320 344.956571,314.371188 364.546538,305.664536 C371.868861,302.41017 378.242988,298.682541 383.580992,294.666259 Z M288,192 C340.489143,192 383.139383,210.722377 383.987139,233.961095 L384,234.666667 L384,256 C384,279.564149 341.019336,298.666667 288,298.666667 C235.510857,298.666667 192.860617,279.944289 192.012861,256.705571 L192,256 L192,234.666667 L192.142049,232.325666 C194.876532,209.850241 236.747975,192 288,192 Z" id="Combined-Shape"></path>
        </g>
    </g>
</svg>