<?xml version="1.0" encoding="UTF-8"?>
<svg width="512px" height="512px" viewBox="0 0 512 512" version="1.1" xmlns="http://www.w3.org/2000/svg" xmlns:xlink="http://www.w3.org/1999/xlink">
    <title>eye-cancelled</title>
    <g id="Page-1" stroke="none" stroke-width="1" fill="none" fill-rule="evenodd">
        <g id="Combined-Shape" fill="#000000" transform="translate(42.666667, 59.581722)">
            <path d="M47.0849493,-2.84217094e-14 L186.073,138.989 L186.746936,138.673449 C194.87283,134.916153 203.818061,132.658065 213.342507,132.658065 C248.631467,132.658065 277.342507,161.369105 277.342507,196.658065 C277.342507,206.446294 274.957395,215.622782 271.011508,223.926896 L409.751616,362.666662 L379.581717,392.836561 L320.132,333.387 L319.261025,333.977581 C290.377575,353.44258 255.345237,367.084945 213.333333,367.084945 C64,367.084945 -2.13162821e-14,196.418278 -2.13162821e-14,196.418278 C-2.13162821e-14,196.418278 23.1156387,135.686074 73.4389942,86.6927506 L16.9150553,30.169894 L47.0849493,-2.84217094e-14 Z M103.688,116.943 C74.91136,144.728038 55.9374933,177.632998 46.7121067,196.410385 C64.7850667,233.195665 119.114667,324.418278 213.333333,324.418278 C242.43665,324.418278 267.476216,315.434512 289.051445,302.306212 L240.909,254.164 L240.230039,254.487036 C232.028188,258.331905 222.98485,260.657851 213.342507,260.657851 C178.053547,260.657851 149.342507,231.946811 149.342507,196.657851 C149.342507,186.74845 151.799077,177.471909 155.836267,169.090778 L103.688,116.943 Z M213.333333,25.7516113 C362.666667,25.7516113 426.666667,196.418278 426.666667,196.418278 C426.666667,196.418278 412.390613,233.939131 382.0768,273.777638 L351.597653,243.298491 C364.785067,225.281638 374.22272,208.090171 379.953067,196.424891 C361.8816,159.640891 307.552,68.418278 213.333333,68.418278 C201.81504,68.418278 190.912853,69.819238 180.579413,72.2802513 L146.700587,38.4014247 C166.740907,30.685158 188.770773,25.7516113 213.333333,25.7516113 Z"></path>
        </g>
    </g>
</svg>