<?xml version="1.0" encoding="UTF-8"?>
<svg width="512px" height="512px" viewBox="0 0 512 512" version="1.1" xmlns="http://www.w3.org/2000/svg" xmlns:xlink="http://www.w3.org/1999/xlink">
    <title>function-block-library</title>
    <g id="Page-1" stroke="none" stroke-width="1" fill="none" fill-rule="evenodd">
        <g id="Combined-Shape" fill="#000000" transform="translate(64.000000, 64.000000)">
            <path d="M362.666667,213.333333 L362.666,298.666333 L405.333333,298.666667 L405.333333,320 L362.666,319.999333 L362.666667,405.333333 L234.666667,405.333333 L234.666,362.666 L192,362.666667 L192,341.333333 L234.666,341.333 L234.666,277.333 L192,277.333333 L192,256 L234.666,255.999 L234.666667,213.333333 L362.666667,213.333333 Z M330.666667,245.333333 L266.666667,245.333333 L266.666667,373.333333 L330.666667,373.333333 L330.666667,245.333333 Z M170.666,234.666 L170.666,277.333 L1.42108547e-14,277.333333 L1.42108547e-14,234.666667 L170.666,234.666 Z M64,1.42108547e-14 L64,213.333333 L21.3333333,213.333333 L21.3333333,1.42108547e-14 L64,1.42108547e-14 Z M128,21.3333333 L128,213.333333 L85.3333333,213.333333 L85.3333333,21.3333333 L128,21.3333333 Z M192,21.3333333 L192,213.333333 L149.333333,213.333333 L149.333333,21.3333333 L192,21.3333333 Z M260.235865,25.8387255 L294.229,191.999 L239.083,191.999 L209.813708,36.9522088 L260.235865,25.8387255 Z"></path>
        </g>
    </g>
</svg>