<?xml version="1.0" encoding="UTF-8"?>
<svg width="512px" height="512px" viewBox="0 0 512 512" version="1.1" xmlns="http://www.w3.org/2000/svg" xmlns:xlink="http://www.w3.org/1999/xlink">
    <title>globe</title>
    <g id="Page-1" stroke="none" stroke-width="1" fill="none" fill-rule="evenodd">
        <g id="icon" fill="#000000" transform="translate(42.666667, 42.666667)">
            <path d="M213.333333,3.55271368e-14 C331.15408,3.55271368e-14 426.666667,95.5125867 426.666667,213.333333 C426.666667,331.15408 331.15408,426.666667 213.333333,426.666667 C95.5125867,426.666667 3.55271368e-14,331.15408 3.55271368e-14,213.333333 C3.55271368e-14,95.5125867 95.5125867,3.55271368e-14 213.333333,3.55271368e-14 Z M266.172298,234.667478 L160.494368,234.667478 C160.751768,240.206011 161.106447,245.657866 161.550763,251.010752 L161.550763,251.010752 L162.704606,262.937617 C162.921272,264.895577 163.149845,266.838175 163.389916,268.764752 L163.389916,268.764752 L164.965056,280.126708 C168.947083,306.164829 175.022606,328.805283 182.070301,346.244557 L182.070301,346.244557 L185.146993,353.394833 C194.014405,372.721908 204.079077,384 213.333333,384 C222.587589,384 232.652262,372.721908 241.519674,353.394833 L241.519674,353.394833 L244.596366,346.244557 C251.644061,328.805283 257.719584,306.164829 261.70161,280.126708 L261.70161,280.126708 L263.276751,268.764752 C263.516822,266.838175 263.745395,264.895577 263.962061,262.937617 L263.962061,262.937617 L265.115904,251.010752 C265.56022,245.657866 265.914899,240.206011 266.172298,234.667478 Z M117.754967,234.66677 L43.9872251,234.667936 C51.6157469,295.840065 91.6183169,346.958142 146.308509,370.33574 C138.57713,353.987478 132.247881,334.685279 127.499175,313.242562 L127.499175,313.242562 L125.162369,301.846285 C122.240964,286.402937 120.101888,269.989331 118.804978,252.881408 L118.804978,252.881408 L117.991138,239.924593 C117.903797,238.178165 117.825053,236.425465 117.754967,234.66677 Z M382.679442,234.667936 L308.91169,234.667013 C308.841606,236.425627 308.762866,238.178245 308.675529,239.924593 L308.675529,239.924593 L307.861688,252.881408 C306.564779,269.989331 304.425703,286.402937 301.504298,301.846285 L301.504298,301.846285 L299.167492,313.242562 C294.418786,334.685279 288.089536,353.987478 280.356624,370.333484 C335.048468,346.95799 375.050931,295.839974 382.679442,234.667936 Z M146.309622,56.3340705 L144.461776,57.1333159 C90.7190775,80.8641078 51.5294756,131.517428 43.9871834,191.999065 L117.754927,192.000892 C117.825024,190.241863 117.90378,188.488831 117.991138,186.742074 L117.991138,186.742074 L118.804978,173.785259 C120.101888,156.677336 122.240964,140.26373 125.162369,124.820381 L125.162369,124.820381 L127.499175,113.424105 C132.247795,91.9817764 138.576901,72.6798877 146.309622,56.3340705 Z M213.333333,42.6666667 L213.055465,42.6700469 C203.877904,42.8930334 193.925731,54.138029 185.146993,73.2718336 L185.146993,73.2718336 L182.070301,80.4221102 C175.022606,97.8613834 168.947083,120.501838 164.965056,146.539958 L164.965056,146.539958 L163.389916,157.901915 C163.149845,159.828492 162.921272,161.771089 162.704606,163.72905 L162.704606,163.72905 L161.550763,175.655914 C161.106447,181.008801 160.751768,186.460656 160.494368,191.999189 L266.172298,191.999189 C265.914899,186.460656 265.56022,181.008801 265.115904,175.655914 L265.115904,175.655914 L263.962061,163.72905 C263.745395,161.771089 263.516822,159.828492 263.276751,157.901915 L263.276751,157.901915 L261.70161,146.539958 C257.719584,120.501838 251.644061,97.8613834 244.596366,80.4221102 L244.596366,80.4221102 L241.519674,73.2718336 C232.652262,53.9447582 222.587589,42.6666667 213.333333,42.6666667 L213.333333,42.6666667 Z M280.358401,56.3310303 L281.002522,57.7124012 C288.442537,73.7611795 294.551675,92.5814462 299.167492,113.424105 L299.167492,113.424105 L301.504298,124.820381 C304.425703,140.26373 306.564779,156.677336 307.861688,173.785259 L307.861688,173.785259 L308.675529,186.742074 C308.762886,188.488831 308.841643,190.241863 308.911739,192.000892 L382.679483,191.999065 C375.051077,130.826878 335.048568,79.7087191 280.358401,56.3310303 Z" id="Combined-Shape"></path>
        </g>
    </g>
</svg>