<?xml version="1.0" encoding="UTF-8"?>
<svg width="512px" height="512px" viewBox="0 0 512 512" version="1.1" xmlns="http://www.w3.org/2000/svg" xmlns:xlink="http://www.w3.org/1999/xlink">
    <title>leaf</title>
    <g id="Page-1" stroke="none" stroke-width="1" fill="none" fill-rule="evenodd">
        <g id="Combined-Shape" fill="#000000" transform="translate(64.000000, 54.248389)">
            <path d="M363.581722,1.42108547e-14 L393.751611,30.1698893 L312.643994,111.281159 C352.32983,164.885322 347.6706,238.081012 298.666667,287.084945 C256,329.751611 156.444444,365.307167 7.10542736e-14,393.751611 C28.4444444,237.307167 64,137.751611 106.666667,95.0849447 C155.670851,46.0807605 228.867189,41.4217334 282.471451,81.1083588 L363.581722,1.42108547e-14 Z M288.915055,90.6666667 L241.652861,137.750667 L138.666667,137.751611 L138.666667,159.084945 L220.238861,159.084667 L155.996861,223.084667 L96,223.084945 L96,244.418278 L134.582861,244.417667 L45.790861,332.875806 L60.8758057,347.96075 L149.332861,259.835667 L149.333333,297.751611 L170.666667,297.751611 L170.665861,238.582667 L234.665861,174.823667 L234.666667,255.084945 L256,255.084945 L255.999861,153.569667 L304,105.751611 L288.915055,90.6666667 Z"></path>
        </g>
    </g>
</svg>