<?xml version="1.0" encoding="UTF-8"?>
<svg width="512px" height="512px" viewBox="0 0 512 512" version="1.1" xmlns="http://www.w3.org/2000/svg" xmlns:xlink="http://www.w3.org/1999/xlink">
    <title>legal</title>
    <g id="Page-1" stroke="none" stroke-width="1" fill="none" fill-rule="evenodd">
        <g id="terms-and-conditions" fill="#000000" transform="translate(156.212018, 42.729167)">
            <path d="M199.433814,233.916666 C199.092669,228.533854 198.147357,223.357421 196.668677,218.358153 C195.189998,213.358884 193.177955,208.536783 190.703346,203.862628 C188.228737,199.188474 185.291562,194.66227 181.962623,190.254799 C178.633684,185.847328 174.91298,181.558592 170.871314,177.359373 C166.829648,173.160154 162.467018,169.050453 157.854224,165.001056 C153.24143,160.951659 148.378476,156.962562 143.336157,153.004555 C138.293838,149.046547 133.072159,145.119627 127.741919,141.194577 C122.411679,137.269527 116.972878,133.346353 111.496315,129.395834 C110.660376,128.791667 109.822486,128.186197 108.982072,127.578735 C108.141659,126.971273 107.298723,126.361815 106.452694,125.749675 C105.606666,125.137534 104.757546,124.522705 103.90476,123.904501 C103.051975,123.286298 102.195532,122.664715 101.334855,122.039063 C100.474179,121.413412 99.6092703,120.783693 98.7395594,120.149212 C97.8698485,119.514731 96.9953375,118.87549 96.1154549,118.230795 C95.2355722,117.586099 94.3503178,116.935955 93.4591242,116.279663 C92.5679306,115.623371 91.6707935,114.960937 90.7671477,114.291667 C87.5952735,112.046876 84.7075765,109.756836 82.0906741,107.443117 C79.4737717,105.129397 77.1276618,102.791994 75.0389578,100.452476 C72.9502538,98.1129579 71.1189535,95.7713237 69.5316746,93.4491392 C67.9443957,91.1269547 66.6011317,88.8242197 65.4885023,86.5625024 C64.375873,84.3007851 63.4938741,82.0800811 62.8291189,79.9219584 C62.1643637,77.7638357 61.7168565,75.6682944 61.4732042,73.6569003 C61.2295519,71.6455061 61.1897567,69.7182613 61.3404319,67.8967275 C61.4911071,66.0751936 61.8322527,64.3593749 62.3504821,62.7708331 C62.8765237,61.1562496 63.5763935,59.630208 64.4439071,58.1959232 C65.3114207,56.7616384 66.3465759,55.4191083 67.5431903,54.1715499 C68.7398047,52.9239915 70.0978783,51.7714027 71.6112245,50.7170005 C73.1245706,49.6625984 74.7931914,48.7063808 76.6108981,47.8515627 C78.4286047,46.9967445 80.3954037,46.243328 82.5051039,45.5945237 C84.6148042,44.9457195 86.8674079,44.4015296 89.2567306,43.9651691 C91.6460533,43.5288085 94.1720949,43.2002773 96.8286709,42.9827883 C99.4852469,42.7652992 102.272355,42.6588544 105.183813,42.6666667 C110.181208,42.8307285 114.561091,43.5016277 118.399756,44.5507413 C122.23842,45.5998549 125.535864,47.0271808 128.368383,48.7041024 C131.200901,50.381024 133.568496,52.3075371 135.547459,54.3550229 C137.526422,56.4025088 139.116754,58.5709653 140.394749,60.7317717 C141.672743,62.8925781 142.638401,65.0457365 143.368016,67.062624 C144.097631,69.0795115 144.591201,70.9601259 144.925023,72.5758485 C145.258845,74.1915712 145.432916,75.5424021 145.523534,76.4997184 C145.614151,77.4570347 145.621313,78.0208363 145.621313,78.0625024 L188.28798,78.0625024 C188.28798,74.4192725 187.9413,70.4977237 187.217627,66.420576 C186.493953,62.3434283 185.393285,58.1106795 183.885311,53.845056 C182.377336,49.5794325 180.462053,45.280928 178.109147,41.0722688 C175.75624,36.8636096 172.965714,32.7447957 169.70725,28.8385451 C166.448786,24.9322944 162.722386,21.2386112 158.497738,17.8802112 C154.273089,14.5218112 149.550188,11.4987008 144.298723,8.93359573 C139.047259,6.36849067 133.267229,4.2613952 126.928321,2.7350272 C120.589413,1.2086592 113.691628,0.263022933 106.204647,0.0208341333 C106.113501,0.0208341333 106.022356,0.0205077333 105.93125,0.0199381333 C105.840144,0.0193685333 105.74908,0.0185557333 105.658098,0.0175786667 C105.567116,0.0166016 105.476214,0.0154624 105.385435,0.0142421333 C105.294655,0.0130218667 105.203997,0.0117184 105.113503,0.0104170667 C105.023009,0.00911573333 104.932675,0.00781226667 104.842548,0.006592 C104.752421,0.00537173333 104.662495,-2.13162821e-14 104.572814,-2.13162821e-14 C104.483133,-2.13162821e-14 104.393697,-2.13162821e-14 104.304545,-2.13162821e-14 C104.215393,-2.13162821e-14 104.126525,-2.13162821e-14 104.037985,-2.13162821e-14 C98.8609013,-2.13162821e-14 93.8517877,0.287761067 89.0296842,0.852132267 C84.2075807,1.41650347 79.5724895,2.25748693 75.1434527,3.36393173 C70.7144159,4.47037653 66.4914335,5.8422848 62.4935498,7.4685056 C58.4956661,9.0947264 54.7228767,10.9752597 51.1942325,13.0989589 C47.6655882,15.2226581 44.3810805,17.5895189 41.3597599,20.1883968 C38.3384394,22.7872747 35.5802997,25.6181632 33.1043871,28.6699221 C30.6284746,31.7216811 28.4347914,34.994304 26.5423754,38.4766443 C24.6499594,41.9589845 23.0588149,45.6510421 21.7879818,49.5416661 C20.8861258,52.3072917 20.1789322,55.1086421 19.6610293,57.9359744 C19.1431455,60.763296 18.8145525,63.6165973 18.6698997,66.4861248 C18.5252469,69.3556523 18.5645322,72.2414037 18.7824074,75.1336256 C19.0002613,78.0258581 19.396705,80.9245589 19.9663669,83.8199872 C20.5360287,86.7154155 21.2789066,89.6075648 22.189633,92.4866944 C23.1003786,95.3658133 24.1789727,98.2319125 25.4200607,101.075236 C26.6611487,103.91856 28.0647349,106.739104 29.6254645,109.527119 C31.1861749,112.315145 32.9040287,115.070637 34.7736586,117.783853 C31.6776309,121.00944 28.7899551,124.21578 26.1099829,127.405069 C23.4300319,130.594359 20.957761,133.766579 18.6925642,136.923949 C16.4273674,140.081318 14.3692298,143.223836 12.5175157,146.353658 C10.6657887,149.483501 9.02048528,152.600668 7.58095034,155.707356 C6.14141541,158.814044 4.90765114,161.910257 3.87900474,164.998189 C2.85036901,168.086099 2.02685328,171.165751 1.40781328,174.239298 C0.788773277,177.312845 0.374213277,180.38029 0.16348901,183.443846 C-0.047245923,186.507405 -0.0541429897,189.567057 0.142147144,192.624998 C0.483292744,198.00781 1.42860474,203.184243 2.90728421,208.183511 C4.38596368,213.18278 6.39800634,218.004881 8.87261541,222.679036 C11.3472245,227.35319 14.2843999,231.879394 17.6133386,236.286865 C20.9422773,240.694336 24.6629813,244.983072 28.7046474,249.182291 C32.7463135,253.38151 37.1089439,257.491211 41.7217375,261.540608 C46.3345311,265.590005 51.1974858,269.579102 56.2398047,273.537109 C61.2821237,277.495117 66.5038026,281.422037 71.8340426,285.347087 C77.1642826,289.272137 82.6030858,293.195313 88.079649,297.145835 C88.9155871,297.750001 89.7534773,298.355471 90.5938911,298.962933 C91.434305,299.570396 92.2772405,300.179853 93.1232693,300.791994 C93.9692981,301.404134 94.8184181,302.018963 95.6712031,302.637167 C96.5239882,303.255371 97.3804319,303.876954 98.2411082,304.502605 C99.1017845,305.128256 99.9666933,305.757975 100.836404,306.392457 C101.706115,307.026938 102.580626,307.666178 103.460509,308.310874 C104.340391,308.955569 105.225646,309.605713 106.116839,310.262005 C107.008033,310.918298 107.90517,311.580732 108.808816,312.250001 C111.98069,314.494793 114.868387,316.784832 117.48529,319.098551 C120.102192,321.412271 122.448302,323.749675 124.537006,326.089193 C126.62571,328.42871 128.45701,330.770345 130.044289,333.092529 C131.631568,335.414714 132.974832,337.717449 134.087461,339.979166 C135.200091,342.240883 136.08209,344.461587 136.746845,346.61971 C137.4116,348.777833 137.859109,350.873372 138.102762,352.884766 C138.346414,354.89616 138.386209,356.823405 138.235534,358.644939 C138.084859,360.466473 137.743713,362.182291 137.225484,363.770833 C136.699442,365.385417 135.997944,366.914063 135.127788,368.35258 C134.257631,369.791098 133.218811,371.139486 132.018128,372.393555 C130.817445,373.647625 129.454896,374.807373 127.937277,375.868612 C126.419658,376.929852 124.746968,377.892578 122.926006,378.752604 C121.105044,379.612629 119.135805,380.369954 117.025087,381.020386 C114.914369,381.670818 112.662173,382.214355 110.275291,382.64681 C107.888408,383.079264 105.366843,383.400634 102.717388,383.606731 C100.067933,383.812828 97.2905887,383.903646 94.3921525,383.874999 C89.3973599,383.710938 85.0197557,383.040038 81.1830858,381.990925 C77.3464159,380.941811 74.0506805,379.514485 71.2196255,377.837564 C68.3885706,376.160642 66.0221962,374.234129 64.0442506,372.186643 C62.066305,370.139157 60.4767861,367.970701 59.1994421,365.809894 C57.9220981,363.649088 56.956929,361.49593 56.227681,359.479042 C55.498433,357.462155 55.0051061,355.58154 54.6714463,353.965818 C54.3377866,352.350095 54.1637962,350.999264 54.0732213,350.041948 C53.9826463,349.084631 53.9754826,348.52083 53.9754826,348.479164 L11.3088159,348.479164 C11.3088159,352.122394 11.6554954,356.043942 12.3791285,360.12109 C13.1027615,364.198238 14.2033482,368.430987 15.7111605,372.69661 C17.2189727,376.962234 19.1340127,381.260738 21.4865503,385.469397 C23.8390879,389.678057 26.6291274,393.79687 29.8869407,397.703121 C33.1447541,401.609372 36.8703391,405.303055 41.0939722,408.661455 C45.3176053,412.019855 50.0392842,415.042965 55.2892853,417.60807 C60.5392863,420.173175 66.3176053,422.280271 72.6545205,423.806639 C78.9914357,425.333007 85.8869429,426.278643 93.3713183,426.520832 C93.462465,426.520832 93.5536095,426.521158 93.6447157,426.521728 C93.7358218,426.522298 93.8268853,426.52311 93.9178677,426.524087 C94.0088501,426.525065 94.0997514,426.526204 94.1905311,426.527424 C94.2813109,426.528644 94.371969,426.529948 94.4624629,426.531249 C94.5529567,426.53255 94.6432906,426.533854 94.7334175,426.535074 C94.8235445,426.536294 94.9134709,426.541666 95.0031519,426.541666 C95.092833,426.541666 95.1822687,426.541666 95.2714207,426.541666 C95.3605727,426.541666 95.449441,426.541666 95.5379807,426.541666 C100.715064,426.541666 105.724178,426.253905 110.546282,425.689534 C115.368385,425.125163 120.003476,424.284179 124.432513,423.177734 C128.86155,422.07129 133.084532,420.699381 137.082416,419.073161 C141.0803,417.44694 144.853087,415.566406 148.381733,413.442707 C151.91038,411.319008 155.194885,408.952147 158.216206,406.353269 C161.237526,403.754391 163.995666,400.923501 166.471576,397.871742 C168.947487,394.819983 171.141172,391.54736 173.033588,388.06502 C174.926004,384.582679 176.517149,380.890622 177.787982,377 C178.689838,374.234372 179.397031,371.433022 179.914934,368.605711 C180.432818,365.778359 180.761411,362.925047 180.906064,360.055539 C181.050717,357.186031 181.011431,354.30025 180.793556,351.408038 C180.575702,348.515787 180.179259,345.617105 179.609597,342.721677 C179.039935,339.826249 178.297057,336.93408 177.386331,334.05497 C176.475585,331.175859 175.396991,328.30973 174.155903,325.466428 C172.914815,322.623125 171.511229,319.802569 169.950499,317.014524 C168.389789,314.226519 166.671935,311.471025 164.802305,308.757809 C167.898333,305.532224 170.786008,302.325884 173.465981,299.136593 C176.145932,295.947302 178.618203,292.775083 180.883399,289.617713 C183.148596,286.460343 185.206723,283.317826 187.058448,280.188004 C188.910173,277.058163 190.555478,273.940994 191.995011,270.834306 C193.434544,267.727618 194.66831,264.631405 195.696957,261.543473 C196.725603,258.455563 197.54913,255.37591 198.168148,252.302364 C198.787167,249.228817 199.201759,246.161372 199.412492,243.097815 C199.623186,240.034261 199.630104,236.974609 199.433814,233.916666 Z M113.037983,262.541666 C104.183815,256.15625 95.4533471,249.858071 87.3150005,243.644205 C79.1766538,237.430338 71.6304309,231.300781 65.1447541,225.252604 C58.6590773,219.204427 53.2339466,213.23763 49.3377887,207.349284 C45.4416309,201.460939 43.0744415,195.651042 42.7046517,189.916668 C42.5220341,187.017579 42.8727839,183.962891 43.7390965,180.761312 C44.605409,177.559733 45.9872863,174.211264 47.8669237,170.72461 C49.746561,167.237956 52.1239605,163.613118 54.9813215,159.858805 C57.8386826,156.104493 61.1760031,152.220704 64.9754826,148.216145 C65.043841,148.264973 65.1089461,148.315755 65.1724639,148.367511 C65.2359818,148.419268 65.2979125,148.472004 65.3599242,148.524738 C65.4219359,148.577472 65.4840287,148.630206 65.5478709,148.681965 C65.611713,148.733724 65.6773066,148.784503 65.7463157,148.833331 C67.4858997,150.130206 69.226785,151.416666 70.9666933,152.694334 C72.7066015,153.972002 74.4455349,155.240883 76.1812106,156.502603 C77.9168863,157.764322 79.6493087,159.018878 81.3761973,160.267902 C83.1030858,161.516926 84.8244405,162.760414 86.5379807,163.999998 C95.3921482,170.385414 104.122616,176.683593 112.260963,182.897459 C120.39931,189.111326 127.945533,195.240883 134.43121,201.28906 C140.916886,207.337237 146.342017,213.304034 150.238175,219.19238 C154.134333,225.080725 156.501522,230.890622 156.871312,236.624996 C157.05393,239.524085 156.70318,242.578773 155.836867,245.780352 C154.970555,248.981931 153.588677,252.3304 151.70904,255.817054 C149.829403,259.303708 147.452001,262.928544 144.59464,266.682859 C141.737279,270.437173 138.399958,274.32096 134.600479,278.325519 C134.53212,278.276691 134.467015,278.225909 134.403498,278.174153 C134.33998,278.122396 134.278049,278.06966 134.216037,278.016926 C134.154026,277.964192 134.091933,277.911458 134.028091,277.859699 C133.964248,277.80794 133.898655,277.757161 133.829646,277.708333 C132.090062,276.411458 130.349176,275.124998 128.609268,273.84733 C126.86936,272.569662 125.130427,271.300781 123.394751,270.039061 C121.659075,268.777342 119.926653,267.522786 118.199764,266.273762 C116.472876,265.024738 114.751523,263.78125 113.037983,262.541666 Z"></path>
        </g>
    </g>
</svg>