<?xml version="1.0" encoding="UTF-8"?>
<svg width="512px" height="512px" viewBox="0 0 512 512" version="1.1" xmlns="http://www.w3.org/2000/svg" xmlns:xlink="http://www.w3.org/1999/xlink">
    <title>namur-check-function</title>
    <g id="Page-1" stroke="none" stroke-width="1" fill="none" fill-rule="evenodd">
        <g id="add" fill="#000000" transform="translate(0.000000, 64.008296)">
            <path d="M512,1.42108547e-14 L255.876864,447.991704 L0,1.42108547e-14 L512,1.42108547e-14 Z M475.221333,21.3250378 L36.736,21.3250378 L255.872,404.983704 L475.221333,21.3250378 Z M287.36,51.6183711 C313.046501,62.5655988 329.800957,87.6972829 330.026667,115.618371 C329.574425,143.262472 312.838996,168.030906 287.36,178.765038 L287.36,178.765038 L287.36,292.045038 C287.36,309.71815 273.033112,324.045038 255.36,324.045038 C237.686888,324.045038 223.36,309.71815 223.36,292.045038 L223.36,292.045038 L223.36,180.258371 C197.598859,169.401243 180.807167,144.213704 180.693333,116.258371 C180.919043,88.3372829 197.673499,63.2055988 223.36,52.2583711 L223.36,52.2583711 L223.36,101.111704 C223.36,111.47993 231.765108,119.885038 242.133333,119.885038 L242.133333,119.885038 L268.586667,119.885038 C278.954892,119.885038 287.36,111.47993 287.36,101.111704 L287.36,101.111704 Z" id="Combined-Shape"></path>
        </g>
    </g>
</svg>