<?xml version="1.0" encoding="UTF-8"?>
<svg width="512px" height="512px" viewBox="0 0 512 512" version="1.1" xmlns="http://www.w3.org/2000/svg" xmlns:xlink="http://www.w3.org/1999/xlink">
    <title>open-file</title>
    <g id="Page-1" stroke="none" stroke-width="1" fill="none" fill-rule="evenodd">
        <g id="audio-description1" fill="#000000" transform="translate(42.666667, 42.666667)">
            <path d="M178.0832,42.6666667 L221.594,77.0716667 L191.217,107.448667 L163.24992,85.3333333 L42.6666667,85.3333333 L42.6666667,296.106667 L82.0209067,170.666667 L341.333333,170.666667 L341.333,170.665667 L384,170.665667 L384,170.666667 L426.354347,170.666667 L361.604267,384 L7.10542736e-15,384 L7.10542736e-15,42.6666667 L178.0832,42.6666667 Z M368.812373,213.333333 L113.354027,213.333333 L73.1874133,341.333333 L329.979093,341.333333 L368.812373,213.333333 Z M319.999,127.999667 L316.328,127.999667 L319.999697,124.326961 L319.999,127.999667 Z" id="Combined-Shape"></path>
            <path d="M384,7.10542736e-15 L384,149.333333 L341.333333,149.333333 L341.332777,72.836 L264.836777,149.332777 L204.496777,149.333333 L311.162777,42.666 L234.666667,42.6666667 L234.666667,7.10542736e-15 L384,7.10542736e-15 Z" id="Combined-Shape" fill-rule="nonzero"></path>
        </g>
    </g>
</svg>