<?xml version="1.0" encoding="UTF-8"?>
<svg width="512px" height="512px" viewBox="0 0 512 512" version="1.1" xmlns="http://www.w3.org/2000/svg" xmlns:xlink="http://www.w3.org/1999/xlink">
    <title>p-and-i-symbols</title>
    <g id="Page-1" stroke="none" stroke-width="1" fill="none" fill-rule="evenodd">
        <g id="drop" fill="#000000" transform="translate(42.666667, 42.666667)">
            <path d="M405.333333,213.333333 L405.333333,426.666667 L266.653138,343.617093 L128,426.666667 L128,213.333333 L266.653138,296.362652 L405.333333,213.333333 Z M362.666667,288.576 L310.208,319.978667 L362.666667,351.381333 L362.666667,288.576 Z M170.666667,288.597333 L170.666667,351.36 L223.061333,319.978667 L170.666667,288.597333 Z M149.333333,7.10542736e-15 C231.807856,7.10542736e-15 298.666667,66.8588107 298.666667,149.333333 C298.666667,193.631241 279.378744,233.424212 248.742993,260.772156 L209.617026,237.343581 C235.245256,219.755509 252.804938,191.26397 255.606633,158.558404 L189.113,225.064 L151.355,202.453 L204.48,149.333333 L106.676503,51.5379683 C68.998614,67.995597 42.6666667,105.589387 42.6666667,149.333333 C42.6666667,193.073398 68.9939412,230.664398 106.666473,247.124317 L106.666623,292.482575 C44.9815479,274.124178 7.10542736e-15,216.981758 7.10542736e-15,149.333333 C7.10542736e-15,66.8588107 66.8588107,7.10542736e-15 149.333333,7.10542736e-15 Z M158.579865,43.061874 L255.604793,140.086802 C251.179787,88.5531886 210.113478,47.4868795 158.579865,43.061874 Z" id="Shape"></path>
        </g>
    </g>
</svg>