<?xml version="1.0" encoding="UTF-8"?>
<svg width="512px" height="512px" viewBox="0 0 512 512" version="1.1" xmlns="http://www.w3.org/2000/svg" xmlns:xlink="http://www.w3.org/1999/xlink">
    <title>paste</title>
    <g id="Page-1" stroke="none" stroke-width="1" fill="none" fill-rule="evenodd">
        <g id="paste" fill="#000000" transform="translate(64.000000, 42.666667)">
            <path d="M256,7.10542736e-15 L256,42.6666667 L320,42.6666667 L320,193.831 L384,257.830111 L384,426.666667 L192,426.666667 L191.999,384 L1.42108547e-14,384 L1.42108547e-14,42.6666667 L64,42.6666667 L64,7.10542736e-15 L256,7.10542736e-15 Z M300.48,234.666667 L234.666667,234.666667 L234.666667,384 L341.333333,384 L341.333333,275.52 L300.48,234.666667 Z M213.333333,85.3333333 L213.333333,42.6666667 L106.666667,42.6666667 L106.666667,85.3333333 L42.6666667,85.3333333 L42.6666667,341.333333 L191.999,341.333 L192,192 L277.333,192 L277.333333,85.3333333 L213.333333,85.3333333 Z"></path>
        </g>
    </g>
</svg>