<?xml version="1.0" encoding="UTF-8"?>
<svg width="512px" height="512px" viewBox="0 0 512 512" version="1.1" xmlns="http://www.w3.org/2000/svg" xmlns:xlink="http://www.w3.org/1999/xlink">
    <title>plant-handbook-filled</title>
    <g id="Page-1" stroke="none" stroke-width="1" fill="none" fill-rule="evenodd">
        <g id="plant-handbook-filled" fill="#000000" fill-rule="nonzero">
            <g id="drop" transform="translate(64.000000, 64.000000)">
                <path d="M341.333333,192 L341.333333,362.666667 L224,362.666667 C218.108963,362.666667 213.333333,367.442296 213.333333,373.333333 C213.333333,379.224371 218.108963,384 224,384 L362.666667,384 L362.666667,234.666667 L384,234.666667 L384,405.333333 L212.20202,405.333333 C201.044753,405.333333 192,396.149431 192,384.820513 L192,212.512821 C192,201.183903 201.044753,192 212.20202,192 L341.333333,192 Z M282.666667,277.333333 L250.666667,277.333333 L250.713331,341.479436 L282.666667,341.333333 L282.666667,277.333333 Z M320,1.42108547e-14 L320,170.666 L213.333333,170.666667 C190.004826,170.666667 171.049163,189.389044 170.672383,212.627762 L170.666667,213.333333 L170.666,341.333 L7.10542736e-14,341.333333 L7.10542736e-14,96 L128,170.666667 L128,96 L256,170.666667 L256,1.42108547e-14 L320,1.42108547e-14 Z M266.666667,215.466667 C256.062799,215.466667 247.466667,224.062799 247.466667,234.666667 C247.466667,245.270534 256.062799,253.866667 266.666667,253.866667 C277.270534,253.866667 285.866667,245.270534 285.866667,234.666667 C285.866667,224.062799 277.270534,215.466667 266.666667,215.466667 Z" id="Combined-Shape"></path>
            </g>
        </g>
    </g>
</svg>