<?xml version="1.0" encoding="UTF-8"?>
<svg width="512px" height="512px" viewBox="0 0 512 512" version="1.1" xmlns="http://www.w3.org/2000/svg" xmlns:xlink="http://www.w3.org/1999/xlink">
    <title>plant-security</title>
    <g id="Page-1" stroke="none" stroke-width="1" fill="none" fill-rule="evenodd">
        <g id="icon" fill="#000000" transform="translate(64.000000, 64.000000)">
            <path d="M320,192 L404.885333,212.586667 L404.775297,221.215954 L404.799933,267.857943 L404.859259,280.568346 C405.139394,335.384021 375.457851,368.982168 351.126071,387.297864 L345.622083,391.255979 L337.933178,396.211284 L333.325926,398.88388 L329.246131,401.070635 L323.054651,404.051454 L320,405.333333 L316.80699,403.991971 L313.952063,402.670267 L310.350133,400.874922 L304.954214,397.939319 L298.753334,394.205112 L293.348292,390.620898 C269.238113,373.912758 237.147019,341.753187 234.802973,288.044967 L234.666667,281.751888 L234.666667,212.711974 L320,192 Z M320,235.882667 L277.333333,246.250667 L277.323328,280.827954 L277.429062,286.184591 C278.680622,314.861116 292.089861,336.372024 312.933976,352.167105 L316.928222,355.062055 L319.957333,357.098667 L320.036667,357.047 L320.036667,235.891 L320,235.882667 Z M42.6666667,1.42108547e-14 L42.6666667,128 L149.333333,74.6666667 L149.333333,128 L256,74.6666667 L256,186.2 L213.333333,196.556634 L213.333,256 L1.42108547e-14,256 L1.42108547e-14,1.42108547e-14 L42.6666667,1.42108547e-14 Z" id="Combined-Shape"></path>
        </g>
    </g>
</svg>