<?xml version="1.0" encoding="UTF-8"?>
<svg width="512px" height="512px" viewBox="0 0 512 512" version="1.1" xmlns="http://www.w3.org/2000/svg" xmlns:xlink="http://www.w3.org/1999/xlink">
    <title>product-catalog</title>
    <g id="Page-1" stroke="none" stroke-width="1" fill="none" fill-rule="evenodd">
        <g id="icon" fill="#000000" transform="translate(42.666667, 41.600000)">
            <path d="M85.334,107.733 L85.335,150.399 L42.6666667,150.4 L42.6666667,342.4 L175.702784,342.4 L192,350.539 L192,250.91 L202.665434,256.831437 L213.331989,262.740708 L223.998544,256.831437 L234.666,250.909 L234.666,350.539 L250.963883,342.4 L384,342.4 L384,150.4 L341.332,150.399 L341.331,107.733 L426.666667,107.733333 L426.666667,385.066667 L261.013333,385.066667 L213.333333,408.918058 L165.632,385.066667 L3.55271368e-14,385.066667 L3.55271368e-14,107.733333 L85.334,107.733 Z M362.666667,278.4 L362.666667,310.4 L256,310.4 L256,278.4 L362.666667,278.4 Z M170.666667,278.4 L170.666667,310.4 L64,310.4 L64,278.4 L170.666667,278.4 Z M362.666667,214.4 L362.666667,246.4 L256,246.4 L256,239.065 L300.43,214.399 L362.666667,214.4 Z M126.237,214.399 L170.666,239.065 L170.666667,246.4 L64,246.4 L64,214.4 L126.237,214.399 Z M213.333333,7.10542736e-15 L320,59.2604278 L320,177.780929 L213.333333,237.041357 L106.666667,177.780929 L106.666667,59.2604278 L213.333333,7.10542736e-15 Z M170.666667,107.370667 L170.666667,188.928 L192,200.789333 L192,119.232 L170.666667,107.370667 Z M128,83.6693333 L128,165.226723 L149.333333,177.088 L149.333333,95.5306667 L128,83.6693333 Z M256.768,48.5333333 L182.037333,89.28 L202.346667,100.565333 L276.373333,59.4133333 L256.768,48.5333333 Z M213.333333,24.4053901 L139.306667,65.536 L159.957333,77.0133333 L234.688,36.2666667 L213.333333,24.4053901 Z" id="Path-2"></path>
        </g>
    </g>
</svg>