<?xml version="1.0" encoding="UTF-8"?>
<svg width="512px" height="512px" viewBox="0 0 512 512" version="1.1" xmlns="http://www.w3.org/2000/svg" xmlns:xlink="http://www.w3.org/1999/xlink">
    <title>radio-waves-off</title>
    <g id="Page-1" stroke="none" stroke-width="1" fill="none" fill-rule="evenodd">
        <g id="drop" fill="#000000" transform="translate(42.666667, 59.581722)">
            <path d="M47.0849493,-1.42108547e-14 L409.751616,362.666662 L379.581717,392.836561 L224.385032,237.639687 C220.860185,238.582362 217.155464,239.084945 213.333333,239.084945 C189.768533,239.084945 170.666667,219.980945 170.666667,196.418278 C170.666667,192.596131 171.169289,188.891304 172.112051,185.366306 L139.826431,153.082007 C132.313635,165.779668 128,180.591824 128,196.418278 C128,225.705382 142.771649,251.517443 165.252619,266.884869 L165.936213,267.347345 L142.22272,302.835345 C107.92576,279.872145 85.3333333,240.793745 85.3333333,196.418278 C85.3333333,168.771392 94.1027249,143.181092 109.008491,122.262804 L78.5260125,91.7807903 C56.0534502,120.674052 42.6666667,156.978203 42.6666667,196.418278 C42.6666667,254.990374 72.1909377,306.645839 117.152291,337.383388 L118.519467,338.308411 L94.8164267,373.777211 C37.65632,335.507345 7.10542736e-15,270.376678 7.10542736e-15,196.418278 C7.10542736e-15,145.187604 18.0687461,98.1928701 48.1726947,61.4272737 L16.9150553,30.169894 L47.0849493,-1.42108547e-14 Z M331.850667,19.0593447 C389.0112,57.330278 426.666667,122.463078 426.666667,196.418278 C426.666667,232.022459 417.938869,265.581649 402.50917,295.083044 L370.487171,263.062096 C379.186559,242.589607 384,220.067743 384,196.418278 C384,137.846393 354.474684,86.1907213 309.514345,55.4556523 L308.1472,54.5307047 L331.850667,19.0593447 Z M284.443733,90.0020647 C318.741333,112.965478 341.333333,152.042811 341.333333,196.418278 C341.333333,207.884983 339.824831,218.997995 336.995658,229.570658 L298.502013,191.07712 C296.828044,164.007976 282.517524,140.376058 261.413207,125.948946 L260.7296,125.486438 L284.443733,90.0020647 Z" id="Combined-Shape"></path>
        </g>
    </g>
</svg>