<?xml version="1.0" encoding="UTF-8"?>
<svg width="512px" height="512px" viewBox="0 0 512 512" version="1.1" xmlns="http://www.w3.org/2000/svg" xmlns:xlink="http://www.w3.org/1999/xlink">
    <title>report-linechart</title>
    <g id="Page-1" stroke="none" stroke-width="1" fill="none" fill-rule="evenodd">
        <g id="add" fill="#000000" transform="translate(42.666667, 85.333333)">
            <path d="M341.333333,1.42108547e-14 L426.666667,85.3333333 L426.666667,341.333333 L3.55271368e-14,341.333333 L3.55271368e-14,1.42108547e-14 L341.333333,1.42108547e-14 Z M330.666667,42.6666667 L42.6666667,42.6666667 L42.6666667,298.666667 L384,298.666667 L384,96 L330.666667,42.6666667 Z M106.666667,85.3333333 L106.666333,217.591333 L167.724208,141.269742 L232.938667,173.866667 L280.864376,130.738196 L295.135624,146.595138 L236.398693,199.458376 L173.589333,168.064 L120.324333,234.666333 L341.333333,234.666667 L341.333333,256 L85.3333333,256 L85.3333333,85.3333333 L106.666667,85.3333333 Z" id="Combined-Shape"></path>
        </g>
    </g>
</svg>