<?xml version="1.0" encoding="UTF-8"?>
<svg width="512px" height="512px" viewBox="0 0 512 512" version="1.1" xmlns="http://www.w3.org/2000/svg" xmlns:xlink="http://www.w3.org/1999/xlink">
    <title>shout</title>
    <g id="Page-1" stroke="none" stroke-width="1" fill="none" fill-rule="evenodd">
        <g id="drop" fill="#000000" transform="translate(42.666667, 128.000000)">
            <path d="M320,0 C334.222222,42.6666667 341.333333,85.3333333 341.333333,128 C341.333333,170.666667 334.222222,213.333333 320,256 L202.143432,226.536015 C198.2986,255.215667 173.732229,277.333333 144,277.333333 C112.799321,277.333333 87.2873754,252.976969 85.4404009,222.240476 L85.3333333,218.666667 L85.333,200.533 L3.55271368e-14,192 L3.55271368e-14,64 L106.666667,53.3333333 L320,0 Z M128,208 L128,218.666667 C128,227.503223 135.163444,234.666667 144,234.666667 C152.100176,234.666667 158.794474,228.647384 159.853939,220.837772 L160,218.666667 L160,216 L128,208 Z M290.048,51.456 L128,91.979 L128,164.019 L290.048,204.522667 L290.926769,200.740217 C295.355847,179.899745 297.878675,159.118474 298.509094,138.371024 L298.666667,128 C298.666667,103.806971 296.094027,79.5736667 290.926769,55.259783 L290.048,51.456 Z M85.333,98.346 L42.6666667,102.613333 L42.6666667,153.365333 L85.333,157.644 L85.333,98.346 Z M362.666667,106.666667 L426.666667,106.666667 L426.666667,149.333333 L362.666667,149.333333 L362.666667,106.666667 Z M359.264043,179.197776 L421.623727,193.594643 L412.025816,235.167766 L349.666132,220.770899 L359.264043,179.197776 Z M349.666132,35.2291012 L412.025816,20.8322337 L421.623727,62.4053565 L359.264043,76.802224 L349.666132,35.2291012 Z" id="Combined-Shape"></path>
        </g>
    </g>
</svg>