<?xml version="1.0" encoding="UTF-8"?>
<svg width="512px" height="512px" viewBox="0 0 512 512" version="1.1" xmlns="http://www.w3.org/2000/svg" xmlns:xlink="http://www.w3.org/1999/xlink">
    <title>table-columns</title>
    <g id="Page-1" stroke="none" stroke-width="1" fill="none" fill-rule="evenodd">
        <g id="icon" fill="#000000" transform="translate(64.000000, 106.666667)">
            <path d="M-4.26325641e-14,106.666667 L64,106.666667 L64,298.666667 L-4.26325641e-14,298.666667 L-4.26325641e-14,106.666667 Z M-4.26325641e-14,0 L64,0 L64,64 L-4.26325641e-14,64 L-4.26325641e-14,0 Z M213.333333,106.666667 L277.333333,106.666667 L277.333333,298.666667 L213.333333,298.666667 L213.333333,106.666667 Z M213.333333,0 L277.333333,0 L277.333333,64 L213.333333,64 L213.333333,0 Z M106.666667,106.666667 L170.666667,106.666667 L170.666667,298.666667 L106.666667,298.666667 L106.666667,106.666667 Z M106.666667,0 L170.666667,0 L170.666667,64 L106.666667,64 L106.666667,0 Z M320,106.666667 L384,106.666667 L384,298.666667 L320,298.666667 L320,106.666667 Z M320,0 L384,0 L384,64 L320,64 L320,0 Z" id="Combined-Shape"></path>
        </g>
    </g>
</svg>