<?xml version="1.0" encoding="UTF-8"?>
<svg width="512px" height="512px" viewBox="0 0 512 512" version="1.1" xmlns="http://www.w3.org/2000/svg" xmlns:xlink="http://www.w3.org/1999/xlink">
    <title>tasks-open</title>
    <g id="Page-1" stroke="none" stroke-width="1" fill="none" fill-rule="evenodd">
        <g id="Combined-Shape" fill="#000000" transform="translate(85.333333, 42.666667)">
            <path d="M1.42108547e-14,7.10542736e-15 L106.666667,7.10542736e-15 L106.666667,106.666667 L1.42108547e-14,106.666667 L1.42108547e-14,7.10542736e-15 Z M32,32 L32,74.6666667 L74.6666667,74.6666667 L74.6666667,32 L32,32 Z M170.666667,42.6666667 L341.333333,42.6666667 L341.333333,85.3333333 L170.666667,85.3333333 L170.666667,42.6666667 Z M1.42108547e-14,149.333333 L106.666667,149.333333 L106.666667,256 L1.42108547e-14,256 L1.42108547e-14,149.333333 Z M32,181.333333 L32,224 L74.6666667,224 L74.6666667,181.333333 L32,181.333333 Z M170.666667,192 L341.333333,192 L341.333333,234.666667 L170.666667,234.666667 L170.666667,192 Z M1.42108547e-14,298.666667 L106.666667,298.666667 L106.666667,405.333333 L1.42108547e-14,405.333333 L1.42108547e-14,298.666667 Z M32,330.666667 L32,373.333333 L74.6666667,373.333333 L74.6666667,330.666667 L32,330.666667 Z M170.666667,341.333333 L341.333333,341.333333 L341.333333,384 L170.666667,384 L170.666667,341.333333 Z"></path>
        </g>
    </g>
</svg>