<?xml version="1.0" encoding="UTF-8"?>
<svg width="512px" height="512px" viewBox="0 0 512 512" version="1.1" xmlns="http://www.w3.org/2000/svg" xmlns:xlink="http://www.w3.org/1999/xlink">
    <title>touch</title>
    <g id="Page-1" stroke="none" stroke-width="1" fill="none" fill-rule="evenodd">
        <g id="add" fill="#000000" transform="translate(85.333333, 42.666667)">
            <path d="M206.413257,215.447893 L206.413257,130.666667 C206.413257,99.7915733 181.28835,74.6666667 150.413257,74.6666667 C119.538163,74.6666667 94.4132566,99.7915733 94.4132566,130.666667 L94.4132566,250.096427 C84.0473899,241.401173 71.1085099,236.468907 57.5200299,236.468907 C41.3429632,236.468907 25.8116566,243.323093 14.9470166,255.281493 C-6.06205009,278.304853 -4.69501009,313.828267 17.6045099,335.429973 C17.6330966,335.45856 17.6435499,335.48992 17.6721366,335.518507 L112,426.666667 L320,426.666667 L320,250.666667 L206.413257,215.447893 Z M277.333333,384 C277.333333,384 128.393387,384 128,384 C128,384 53.2621099,313.552 45.9912832,306.927147 C37.7177899,299.39072 37.1202432,286.573013 44.6579499,278.29696 C52.1969366,270.023467 65.0146432,269.4272 73.2894166,276.963627 C78.8286166,282.010453 115.241417,312 115.241417,312 L131.74659,303.46624 L131.74659,130.666667 C131.74659,120.356693 140.104563,112 150.413257,112 C160.72323,112 169.079923,120.356693 169.079923,130.666667 L169.079923,248.541653 L277.333333,282.666667 L277.333333,384 Z M24.1438166,163.708373 C21.3728299,153.1328 19.7465899,142.098987 19.7465899,130.666667 C19.7465899,58.6250667 78.3612032,7.10542736e-15 150.413257,7.10542736e-15 C222.46531,7.10542736e-15 281.079923,58.6250667 281.079923,130.666667 C281.079923,142.098987 279.453683,153.1328 276.682697,163.708373 L236.211443,149.69792 C237.574643,143.552 238.413257,137.218773 238.413257,130.666667 C238.413257,82.1431467 198.936777,42.6666667 150.413257,42.6666667 C101.889737,42.6666667 62.4132566,82.1431467 62.4132566,130.666667 C62.4132566,137.218773 63.2518699,143.552 64.6150699,149.69792 L24.1438166,163.708373 Z" id="Shape"></path>
        </g>
    </g>
</svg>