<?xml version="1.0" encoding="UTF-8"?>
<svg width="512px" height="512px" viewBox="0 0 512 512" version="1.1" xmlns="http://www.w3.org/2000/svg" xmlns:xlink="http://www.w3.org/1999/xlink">
    <title>webcam-filled</title>
    <g id="Page-1" stroke="none" stroke-width="1" fill="none" fill-rule="evenodd">
        <g id="drop" fill="#000000" transform="translate(42.666667, 106.666667)">
            <path d="M298.666667,2.84217094e-14 C369.359115,2.84217094e-14 426.666667,57.307552 426.666667,128 C426.666667,198.692448 369.359115,256 298.666667,256 L128,256 C57.307552,256 7.10542736e-15,198.692448 7.10542736e-15,128 C7.10542736e-15,57.307552 57.307552,2.84217094e-14 128,2.84217094e-14 L298.666667,2.84217094e-14 Z M213.333333,64 C177.987109,64 149.333333,92.653776 149.333333,128 C149.333333,163.346224 177.987109,192 213.333333,192 C248.679557,192 277.333333,163.346224 277.333333,128 C277.333333,92.653776 248.679557,64 213.333333,64 Z M213.333333,106.666667 C225.115408,106.666667 234.666667,116.217925 234.666667,128 C234.666667,139.782075 225.115408,149.333333 213.333333,149.333333 C201.551259,149.333333 192,139.782075 192,128 C192,116.217925 201.551259,106.666667 213.333333,106.666667 Z M341.333333,277.333333 L341.333333,320 L85.3333333,320 L85.3333333,277.333333 L341.333333,277.333333 Z" id="Combined-Shape"></path>
        </g>
    </g>
</svg>