<?xml version="1.0" encoding="UTF-8"?>
<svg width="512px" height="512px" viewBox="0 0 512 512" version="1.1" xmlns="http://www.w3.org/2000/svg" xmlns:xlink="http://www.w3.org/1999/xlink">
    <title>wlan-strength-3</title>
    <g id="Page-1" stroke="none" stroke-width="1" fill="none" fill-rule="evenodd">
        <g id="drop" fill="#000000" transform="translate(52.437333, 106.666667)">
            <path d="M235.562667,288 C235.562667,305.672533 221.226667,320 203.562667,320 C185.898667,320 171.562667,305.672533 171.562667,288 C171.562667,270.327467 185.898667,256 203.562667,256 C221.226667,256 235.562667,270.327467 235.562667,288 Z M120.64,205.073067 L150.784,235.229867 C164.309333,221.7088 182.976,213.333333 203.562667,213.333333 C224.149333,213.333333 242.816,221.7088 256.341333,235.229867 L286.485333,205.0752 C265.237333,183.8272 235.904,170.666667 203.562667,170.666667 C171.221333,170.666667 141.888,183.8272 120.64,205.073067 L120.64,205.073067 Z M60.3306667,144.759467 L90.4746667,174.914133 C119.445333,145.943467 159.445333,128 203.562667,128 C247.68,128 287.68,145.943467 316.650667,174.914133 L346.794667,144.759467 C310.101333,108.061867 259.434667,85.3333333 203.562667,85.3333333 C147.690667,85.3333333 97.024,108.061867 60.3306667,144.759467 L60.3306667,144.759467 Z M203.562667,-1.42108547e-14 C124.16,-1.42108547e-14 52.16,32.29696 0,84.448 L30.1653333,114.6048 C74.5813333,70.1821867 135.914667,42.6666667 203.562667,42.6666667 C271.189333,42.6666667 332.522667,70.1821867 376.96,114.606933 L407.125333,84.4452267 C354.965333,32.2967467 282.965333,-1.42108547e-14 203.562667,-1.42108547e-14 L203.562667,-1.42108547e-14 Z" id="Shape"></path>
        </g>
    </g>
</svg>