<?xml version="1.0" encoding="UTF-8"?>
<svg width="512px" height="512px" viewBox="0 0 512 512" version="1.1" xmlns="http://www.w3.org/2000/svg" xmlns:xlink="http://www.w3.org/1999/xlink">
    <title>wlan-strength-1</title>
    <g id="Page-1" stroke="none" stroke-width="1" fill="none" fill-rule="evenodd">
        <g id="drop" fill="#000000" transform="translate(173.077333, 277.333333)">
            <path d="M114.922667,117.333333 C114.922667,135.005867 100.586667,149.333333 82.9226667,149.333333 C65.2586667,149.333333 50.9226667,135.005867 50.9226667,117.333333 C50.9226667,99.6608 65.2586667,85.3333333 82.9226667,85.3333333 C100.586667,85.3333333 114.922667,99.6608 114.922667,117.333333 Z M0,34.4064 L30.144,64.5632 C43.6693333,51.0421333 62.336,42.6666667 82.9226667,42.6666667 C103.509333,42.6666667 122.176,51.0421333 135.701333,64.5632 L165.845333,34.4085333 C144.597333,13.1605333 115.264,0 82.9226667,0 C50.5813333,0 21.248,13.1605333 0,34.4064 L0,34.4064 Z" id="Shape"></path>
        </g>
    </g>
</svg>