<!--
SPDX-FileCopyrightText: 2024 Siemens AG

SPDX-License-Identifier: MIT

This source code is licensed under the MIT license found in the
LICENSE file in the root directory of this source tree.
-->
<svg xmlns="http://www.w3.org/2000/svg" width="21" height="13" viewBox="0 0 21 13" fill="none">
  <path d="M1.39942 8.61147C1.79517 8.61147 2.12215 8.74058 2.38036 8.99878C2.63856 9.25699 2.76767 9.58638 2.76767 9.98696C2.76767 10.3779 2.63856 10.7037 2.38036 10.9643C2.12215 11.2249 1.79517 11.3552 1.39942 11.3552C0.994008 11.3552 0.663408 11.2249 0.407615 10.9643C0.151822 10.7037 0.0239258 10.3707 0.0239258 9.96525C0.0239258 9.57914 0.154235 9.25699 0.414855 8.99878C0.675474 8.74058 1.00366 8.61147 1.39942 8.61147ZM1.39942 3.39909C1.79517 3.39909 2.12215 3.52819 2.38036 3.7864C2.63856 4.04461 2.76767 4.374 2.76767 4.77458C2.76767 5.16551 2.63856 5.49128 2.38036 5.7519C2.12215 6.01252 1.79517 6.14283 1.39942 6.14283C0.994008 6.14283 0.663408 6.01252 0.407615 5.7519C0.151822 5.49128 0.0239258 5.15827 0.0239258 4.75286C0.0239258 4.36676 0.154235 4.04461 0.414855 3.7864C0.675474 3.52819 1.00366 3.39909 1.39942 3.39909ZM5.17839 8.68387H7.6398L5.98197 12.9841H3.88978L5.17839 8.68387ZM10.6297 8.61147C11.0254 8.61147 11.3524 8.74058 11.6106 8.99878C11.8688 9.25699 11.9979 9.58638 11.9979 9.98696C11.9979 10.3779 11.8688 10.7037 11.6106 10.9643C11.3524 11.2249 11.0254 11.3552 10.6297 11.3552C10.2243 11.3552 9.89367 11.2249 9.63787 10.9643C9.38208 10.7037 9.25419 10.3707 9.25419 9.96525C9.25419 9.57914 9.3845 9.25699 9.64511 8.99878C9.90573 8.74058 10.2339 8.61147 10.6297 8.61147ZM17.2972 7.76446H15.1616V7.12739C15.1616 6.51446 15.2243 6.08733 15.3498 5.84602C15.4222 5.70605 15.5187 5.58178 15.6394 5.47319C15.76 5.36459 16.0086 5.17758 16.385 4.91213C16.9159 4.54533 17.2598 4.27024 17.4166 4.08684C17.5735 3.90344 17.6519 3.68867 17.6519 3.44253C17.6519 3.13365 17.5421 2.88871 17.3225 2.70773C17.1029 2.52674 16.8049 2.43625 16.4285 2.43625C15.8107 2.43625 15.065 2.6848 14.1915 3.18191L13.5472 1.57476C14.6186 1.01491 15.6924 0.734985 16.7687 0.734985C17.8691 0.734985 18.7065 0.995605 19.2808 1.51684C19.7875 1.98499 20.0409 2.5931 20.0409 3.34118C20.0409 3.84794 19.9179 4.28109 19.6717 4.64065C19.4256 5.00021 18.9864 5.38993 18.3541 5.80982C17.8715 6.13318 17.5747 6.38053 17.4637 6.55186C17.3527 6.72319 17.2972 7.02845 17.2972 7.46765V7.76446ZM16.233 8.61147C16.6287 8.61147 16.9557 8.74178 17.2139 9.0024C17.4721 9.26302 17.6012 9.59121 17.6012 9.98696C17.6012 10.3779 17.4721 10.7037 17.2139 10.9643C16.9557 11.2249 16.6287 11.3552 16.233 11.3552C15.8276 11.3552 15.497 11.2249 15.2412 10.9643C14.9854 10.7037 14.8575 10.3707 14.8575 9.96525C14.8575 9.57914 14.9878 9.25699 15.2484 8.99878C15.509 8.74058 15.8372 8.61147 16.233 8.61147Z" />
</svg>
