<svg width="244" height="244" viewBox="0 0 244 244" fill="none" xmlns="http://www.w3.org/2000/svg">
<rect width="244" height="244" rx="24" fill="#00C1B6"/>
<path d="M86.2217 191.399L135.375 120.93L88.655 53.478H116.784L150.559 102.534L185.209 53.478H212.56L164.477 121.027L213.533 191.399H184.528L149.78 140.591L114.448 191.399H86.2217Z" fill="#000028"/>
<path d="M66.693 57.6673C64.0326 54.942 60.5935 53.5793 56.3757 53.5793C52.2228 53.5793 48.7838 54.942 46.0584 57.6673C43.3331 60.3926 41.9705 63.8317 41.9705 67.9846C41.9705 72.3321 43.3007 75.901 45.9611 78.6912C48.6864 81.4165 52.1904 82.7792 56.473 82.7792C60.6259 82.7792 64.0326 81.4165 66.693 78.6912C69.4183 75.901 70.781 72.397 70.781 68.1793C70.781 63.8966 69.4183 60.3926 66.693 57.6673Z" fill="#000028"/>
<path d="M44.7075 191.399V98.1763H67.9701V191.399H44.7075Z" fill="#000028"/>
</svg>
