<?xml version="1.0" encoding="UTF-8"?>
<svg width="512px" height="512px" viewBox="0 0 512 512" version="1.1" xmlns="http://www.w3.org/2000/svg" xmlns:xlink="http://www.w3.org/1999/xlink">
    <title>add-document-note</title>
    <g id="Page-1" stroke="none" stroke-width="1" fill="none" fill-rule="evenodd">
        <g id="icon" fill="#000000" transform="translate(85.333333, 42.666667)">
            <path d="M341.333333,277.333333 L341.332667,341.332333 L405.333333,341.333333 L405.333333,384 L341.332667,383.999333 L341.333333,448 L298.666667,448 L298.666667,383.999333 L234.666667,384 L234.666667,341.333333 L298.666667,341.332333 L298.666667,277.333333 L341.333333,277.333333 Z M234.666667,3.55271368e-14 L341.333333,106.666667 L341.333,256 L298.666,256 L298.666667,124.339779 L216.993555,42.6666667 L42.6666667,42.6666667 L42.6666667,384 L213.333,383.999 L213.333333,405.333333 L277.333333,405.333333 L277.333,426.666 L1.42108547e-14,426.666667 L1.42108547e-14,3.55271368e-14 L234.666667,3.55271368e-14 Z M213.333333,298.666667 L213.333333,341.333333 L64,341.333333 L64,298.666667 L213.333333,298.666667 Z M196,85.3333333 L256,145.333333 L124,277.333333 L64,277.333333 L64,217.333333 L196,85.3333333 Z M157.304,169.265333 L96,230.570667 L96,245.333333 L110.72,245.333333 L172.046,184.007333 L157.304,169.265333 Z M195.989333,130.581333 L179.932,146.637333 L194.674,161.379333 L210.730667,145.322667 L195.989333,130.581333 Z" id="Combined-Shape"></path>
        </g>
    </g>
</svg>