<?xml version="1.0" encoding="UTF-8"?>
<svg width="512px" height="512px" viewBox="0 0 512 512" version="1.1" xmlns="http://www.w3.org/2000/svg" xmlns:xlink="http://www.w3.org/1999/xlink">
    <title>add-task-list</title>
    <g id="Page-1" stroke="none" stroke-width="1" fill="none" fill-rule="evenodd">
        <g id="icon" fill="#000000" transform="translate(70.530593, 46.125620)">
            <path d="M185.469407,39.207713 L356.136074,39.207713 L356.136074,81.8743797 L185.469407,81.8743797 L185.469407,39.207713 Z M185.469407,188.541046 L356.136074,188.541046 L356.136074,231.207713 L185.469407,231.207713 L185.469407,188.541046 Z M119.285384,7.10542736e-15 L144.649352,19.5107443 L68.6167605,118.353113 L-4.26325641e-14,58.3134476 L21.0721475,34.2309934 L64.0400737,71.8050464 L119.285384,7.10542736e-15 Z M119.285384,149.333333 L144.649352,168.844078 L68.6167605,267.686446 L-4.26325641e-14,207.646781 L21.0721475,183.564327 L64.0400737,221.13838 L119.285384,149.333333 Z M356.136074,273.87438 L356.135407,337.87338 L420.136074,337.87438 L420.136074,380.541046 L356.135407,380.54038 L356.136074,444.541046 L313.469407,444.541046 L313.469407,380.54038 L249.469407,380.541046 L249.469407,337.87438 L313.469407,337.87338 L313.469407,273.87438 L356.136074,273.87438 Z" id="Combined-Shape"></path>
        </g>
    </g>
</svg>