<?xml version="1.0" encoding="UTF-8"?>
<svg width="512px" height="512px" viewBox="0 0 512 512" version="1.1" xmlns="http://www.w3.org/2000/svg" xmlns:xlink="http://www.w3.org/1999/xlink">
    <title>alarm-clock</title>
    <g id="Page-1" stroke="none" stroke-width="1" fill="none" fill-rule="evenodd">
        <g id="icon" fill="#000000" transform="translate(42.986146, 42.979833)">
            <path d="M213.013854,21.020167 C319.052526,21.020167 405.013854,106.981495 405.013854,213.020167 C405.013854,265.317935 384.104488,312.732059 350.189566,347.358729 L383.321027,404.745351 L346.37061,426.078684 L316.681804,374.65549 C286.780409,393.873084 251.198902,405.020167 213.013854,405.020167 C174.771065,405.020167 139.139696,393.839346 109.210297,374.568255 L79.3135646,426.351941 L42.3631474,405.018608 L75.7203109,347.23832 C41.874796,312.622182 21.0138542,265.257342 21.0138542,213.020167 C21.0138542,106.981495 106.975182,21.020167 213.013854,21.020167 Z M213.013854,63.6868337 C130.539332,63.6868337 63.6805208,130.545644 63.6805208,213.020167 C63.6805208,295.49469 130.539332,362.3535 213.013854,362.3535 C295.488377,362.3535 362.347187,295.49469 362.347187,213.020167 C362.347187,130.545644 295.488377,63.6868337 213.013854,63.6868337 Z M234.347187,106.3535 L234.347187,225.500167 L292.098799,283.268556 L261.928909,313.438445 L191.680521,243.190056 L191.680521,106.3535 L234.347187,106.3535 Z M355.032367,7.10542736e-15 C383.117284,18.7598588 407.283905,42.9259293 426.044403,71.0103829 L390.537168,94.6761076 C374.907194,71.2792434 354.774678,51.1459711 331.378448,35.5151218 L355.032367,7.10542736e-15 Z M70.9851521,0.01209835 L94.6571811,35.5151218 C71.2632279,51.1444505 51.1323522,71.2753263 35.5030235,94.6692795 L-2.84217094e-14,70.9972504 C18.7552254,42.9244324 42.912334,18.7673237 70.9851521,0.01209835 Z" id="Combined-Shape"></path>
        </g>
    </g>
</svg>