<?xml version="1.0" encoding="UTF-8"?>
<svg width="512px" height="512px" viewBox="0 0 512 512" version="1.1" xmlns="http://www.w3.org/2000/svg" xmlns:xlink="http://www.w3.org/1999/xlink">
    <title>alarm-bell-cancelled-filled</title>
    <g id="Page-1" stroke="none" stroke-width="1" fill="none" fill-rule="evenodd">
        <g id="drop" fill="#000000" transform="translate(59.581722, 42.666667)">
            <path d="M265.91044,362.667219 C260.734419,398.851421 229.615509,426.666667 192,426.666667 C154.384491,426.666667 123.265581,398.851421 118.08956,362.667219 Z M392.836561,379.581717 L362.666662,409.751616 L294.248,341.333 L4.418278,341.333333 L47.0849447,219.52 L47.0849447,170.666667 C47.0849447,147.564033 51.09328,125.537119 58.3600598,105.445633 L-2.84217094e-14,47.0849493 L30.169894,16.9150553 L78.758055,65.5041451 C78.7582845,65.5038101 78.7585139,65.5034752 78.7587433,65.5031403 L392.836561,379.581717 Z M196.418278,3.55271368e-14 C207.650729,0.712633806 218.754642,2.79014004 229.484945,6.18666667 C298.604945,21.9733333 345.751611,96 345.751611,176.853333 L345.751611,176.853333 L345.751611,219.52 L374.127,300.532 L107.279647,33.6843069 C131.533562,13.0442498 161.469156,0.623757746 193.946265,0.0228535467 Z" id="Combined-Shape"></path>
        </g>
    </g>
</svg>