<?xml version="1.0" encoding="UTF-8"?>
<svg width="512px" height="512px" viewBox="0 0 512 512" version="1.1" xmlns="http://www.w3.org/2000/svg" xmlns:xlink="http://www.w3.org/1999/xlink">
    <title>anomaly-found</title>
    <g id="Page-1" stroke="none" stroke-width="1" fill="none" fill-rule="evenodd">
        <g id="Shape" fill="#000000" transform="translate(42.666667, 42.666667)">
            <path d="M170.666667,-7.10542736e-15 C264.770773,-7.10542736e-15 341.333333,76.56256 341.333333,170.666667 C341.333333,210.04032 327.799467,246.239573 305.3152,275.148373 L426.630187,396.463573 L396.463573,426.630187 L275.148373,305.314987 C246.239573,327.799467 210.04032,341.333333 170.666667,341.333333 C76.56256,341.333333 7.10542736e-15,264.770773 7.10542736e-15,170.666667 C7.10542736e-15,76.56256 76.56256,-7.10542736e-15 170.666667,-7.10542736e-15 Z M170.666667,42.6666667 C100.083413,42.6666667 42.6666667,100.083413 42.6666667,170.666667 C42.6666667,241.24992 100.083413,298.666667 170.666667,298.666667 C241.24992,298.666667 298.666667,241.24992 298.666667,170.666667 C298.666667,100.083413 241.24992,42.6666667 170.666667,42.6666667 Z M170.666667,202.666667 C188.339779,202.666667 202.666667,216.993555 202.666667,234.666667 C202.666667,252.339779 188.339779,266.666667 170.666667,266.666667 C152.993555,266.666667 138.666667,252.339779 138.666667,234.666667 C138.666667,216.993555 152.993555,202.666667 170.666667,202.666667 Z M192,64 L192,170.666667 L149.333333,170.666667 L149.333333,64 L192,64 Z"></path>
        </g>
    </g>
</svg>