<?xml version="1.0" encoding="UTF-8"?>
<svg width="512px" height="512px" viewBox="0 0 512 512" version="1.1" xmlns="http://www.w3.org/2000/svg" xmlns:xlink="http://www.w3.org/1999/xlink">
    <title>audio-description1</title>
    <g id="Page-1" stroke="none" stroke-width="1" fill="none" fill-rule="evenodd">
        <g id="Combined-Shape" fill="#000000" transform="translate(42.666667, 129.706667)">
            <path d="M49.28,62.2933333 L7.10542736e-15,190.293333 L29.2266667,190.293333 L40.1066667,159.786667 L88.5333333,159.786667 L99.6266667,190.293333 L130.133333,190.293333 L79.5733333,62.2933333 L49.28,62.2933333 Z M47.7866667,138.24 L57.8133333,110.293333 C60.2866806,103.794547 62.4228571,97.1724002 64.2133333,90.4533333 C67.4133333,100.48 68.0533333,102.613333 70.8266667,110.293333 L80.8533333,138.24 L47.7866667,138.24 Z M181.973333,62.2933333 L146.346667,62.2933333 L146.346667,190.293333 L179.84,190.293333 C197.196792,192.014378 214.681021,188.680521 230.186667,180.693333 C247.33529,168.130416 256.580695,147.449907 254.506667,126.293333 C255.778311,108.237677 249.34498,90.4878841 236.8,77.44 C221.303774,65.2259229 201.541969,59.7664358 181.973333,62.2933333 Z M210.133333,161.28 C201.259196,166.325471 191.088465,168.626878 180.906667,167.893333 L175.36,167.893333 L175.36,84.6933333 L180.906667,84.6933333 C198.826667,84.6933333 205.866667,86.6133333 212.906667,93.0133333 C221.295411,101.980302 225.550031,114.04795 224.64,126.293333 C225.810527,139.625159 220.394216,152.688027 210.133333,161.28 L210.133333,161.28 Z M381.866667,-2.84217094e-14 L349.866667,24.7466667 C395.673409,84.6958238 395.673409,167.890843 349.866667,227.84 L381.866667,252.586667 C439.062321,178.104637 439.062321,74.4820294 381.866667,-2.84217094e-14 L381.866667,-2.84217094e-14 Z M281.386667,77.0133333 C302.277327,106.545697 302.277327,146.040969 281.386667,175.573333 L313.6,200.106667 C345.457259,155.975231 345.457259,96.3981025 313.6,52.2666667 L281.386667,77.0133333 Z"></path>
        </g>
    </g>
</svg>