<?xml version="1.0" encoding="UTF-8"?>
<svg width="512px" height="512px" viewBox="0 0 512 512" version="1.1" xmlns="http://www.w3.org/2000/svg" xmlns:xlink="http://www.w3.org/1999/xlink">
    <title>bar-code</title>
    <g id="Page-1" stroke="none" stroke-width="1" fill="none" fill-rule="evenodd">
        <g id="drop" fill="#000000" transform="translate(42.666667, 85.333333)">
            <path d="M42.6666667,1.42108547e-14 L42.6666667,341.333333 L7.10542736e-15,341.333333 L7.10542736e-15,1.42108547e-14 L42.6666667,1.42108547e-14 Z M128,1.42108547e-14 L128,341.333333 L85.3333333,341.333333 L85.3333333,1.42108547e-14 L128,1.42108547e-14 Z M213.333333,1.42108547e-14 L213.333333,341.333333 L170.666667,341.333333 L170.666667,1.42108547e-14 L213.333333,1.42108547e-14 Z M426.666667,1.42108547e-14 L426.666667,341.333333 L384,341.333333 L384,1.42108547e-14 L426.666667,1.42108547e-14 Z M277.333333,1.42108547e-14 L277.333333,341.333333 L256,341.333333 L256,1.42108547e-14 L277.333333,1.42108547e-14 Z M341.333333,1.42108547e-14 L341.333333,341.333333 L320,341.333333 L320,1.42108547e-14 L341.333333,1.42108547e-14 Z" id="Combined-Shape"></path>
        </g>
    </g>
</svg>