<?xml version="1.0" encoding="UTF-8"?>
<svg width="512px" height="512px" viewBox="0 0 512 512" version="1.1" xmlns="http://www.w3.org/2000/svg" xmlns:xlink="http://www.w3.org/1999/xlink">
    <title>binoculars</title>
    <g id="Page-1" stroke="none" stroke-width="1" fill="none" fill-rule="evenodd">
        <g id="icon" fill="#000000" transform="translate(64.000000, 64.000000)">
            <path d="M277.333333,1.42108547e-14 C300.897483,9.88219071e-15 320,19.1025173 320,42.6666667 L320.001038,66.6886402 C356.805359,76.1619142 384,109.571799 384,149.333333 L384,298.666667 C384,345.794965 345.794965,384 298.666667,384 C255.735278,384 220.208634,352.296519 214.221599,311.024421 C208.466672,316.581772 200.632521,320 192,320 C183.367479,320 175.533328,316.581772 169.77723,311.024998 C163.791366,352.296519 128.264722,384 85.3333333,384 C38.2050347,384 -4.26325641e-14,345.794965 -4.26325641e-14,298.666667 L-4.26325641e-14,149.333333 C-4.26325641e-14,109.57144 27.1951335,76.1613096 63.9999609,66.6883831 L64,42.6666667 C64,19.1025173 83.1025173,1.85395187e-14 106.666667,1.42108547e-14 C130.230816,9.88219071e-15 149.333333,19.1025173 149.333333,42.6666667 L149.333785,69.7083018 C158.827313,75.2001664 166.008405,84.2449078 169.058923,95.0243894 C174.872894,89.046446 183.002825,85.3333333 192,85.3333333 C200.997175,85.3333333 209.127106,89.046446 214.940994,95.0238729 C217.991694,84.2447833 225.172752,75.2001286 234.666215,69.7083018 L234.666667,42.6666667 C234.666667,19.1025173 253.769184,1.85395187e-14 277.333333,1.42108547e-14 Z M85.3333333,256 C61.769184,256 42.6666667,275.102517 42.6666667,298.666667 C42.6666667,322.230816 61.769184,341.333333 85.3333333,341.333333 C108.897483,341.333333 128,322.230816 128,298.666667 C128,275.102517 108.897483,256 85.3333333,256 Z M298.666667,256 C275.102517,256 256,275.102517 256,298.666667 C256,322.230816 275.102517,341.333333 298.666667,341.333333 C322.230816,341.333333 341.333333,322.230816 341.333333,298.666667 C341.333333,275.102517 322.230816,256 298.666667,256 Z M192,128 C183.80382,128 176.32734,131.081405 170.665838,136.148939 L170.665657,264.149101 C176.32718,259.081471 183.803732,256 192,256 C200.196268,256 207.67282,259.081471 213.334343,264.149101 L213.334162,136.148939 C207.67266,131.081405 200.19618,128 192,128 Z M128,106.666667 L85.3333333,106.666667 C62.8402817,106.666667 44.4124774,124.07206 42.7836957,146.14907 L42.6666667,149.333333 L42.6667391,224.749372 C55.2181197,217.488807 69.7904451,213.333333 85.3333333,213.333333 C100.876632,213.333333 115.449317,217.489027 128.000923,224.749948 L128,106.666667 Z M298.666667,106.666667 L256,106.666667 L256.000072,224.749372 C268.551453,217.488807 283.123778,213.333333 298.666667,213.333333 C314.209966,213.333333 328.782651,217.489027 341.334256,224.749948 L341.333333,149.333333 C341.333333,126.840282 323.92794,108.412477 301.85093,106.783696 L298.666667,106.666667 Z" id="Combined-Shape"></path>
        </g>
    </g>
</svg>