<?xml version="1.0" encoding="UTF-8"?>
<svg width="512px" height="512px" viewBox="0 0 512 512" version="1.1" xmlns="http://www.w3.org/2000/svg" xmlns:xlink="http://www.w3.org/1999/xlink">
    <title>book</title>
    <g id="Page-1" stroke="none" stroke-width="1" fill="none" fill-rule="evenodd">
        <g id="icon" fill="#000000" transform="translate(42.666667, 106.666667)">
            <path d="M175.702784,2.84217094e-14 L213.333333,18.7946667 L250.963883,2.84217094e-14 L426.666667,2.84217094e-14 L426.666667,320 L261.013333,320 L213.333333,343.851392 L165.632,320 L3.55271368e-14,320 L3.55271368e-14,2.84217094e-14 L175.702784,2.84217094e-14 Z M165.632,42.6666667 L42.6666667,42.6666667 L42.6666667,277.333333 L175.702784,277.333333 L192,285.473 L192,55.851 L165.632,42.6666667 Z M384,42.6666667 L261.013333,42.6666667 L234.666,55.846 L234.666,285.473 L250.963883,277.333333 L384,277.333333 L384,42.6666667 Z M362.666667,170.666667 L362.666667,202.666667 L256,202.666667 L256,170.666667 L362.666667,170.666667 Z M170.666667,170.666667 L170.666667,202.666667 L64,202.666667 L64,170.666667 L170.666667,170.666667 Z M362.666667,85.3333333 L362.666667,117.333333 L256,117.333333 L256,85.3333333 L362.666667,85.3333333 Z M170.666667,85.3333333 L170.666667,117.333333 L64,117.333333 L64,85.3333333 L170.666667,85.3333333 Z" id="Path-2"></path>
        </g>
    </g>
</svg>