<?xml version="1.0" encoding="UTF-8"?>
<svg width="512px" height="512px" viewBox="0 0 512 512" version="1.1" xmlns="http://www.w3.org/2000/svg" xmlns:xlink="http://www.w3.org/1999/xlink">
    <title>capture</title>
    <g id="Page-1" stroke="none" stroke-width="1" fill="none" fill-rule="evenodd">
        <g id="capture" fill="#000000" fill-rule="nonzero">
            <g id="drop" transform="translate(64.000000, 64.000000)">
                <path d="M42.6666667,277.333333 L42.6666667,341.333333 L106.666667,341.333333 L106.666667,384 L0,384 L0,277.333333 L42.6666667,277.333333 Z M384,277.333333 L384,384 L277.333333,384 L277.333333,341.333333 L341.333333,341.333333 L341.333333,277.333333 L384,277.333333 Z M192,85.3333333 C250.910373,85.3333333 298.666667,133.089627 298.666667,192 C298.666667,250.910373 250.910373,298.666667 192,298.666667 C133.089627,298.666667 85.3333333,250.910373 85.3333333,192 C85.3333333,133.089627 133.089627,85.3333333 192,85.3333333 Z M384,0 L384,106.666667 L341.333333,106.666667 L341.333333,42.6666667 L277.333333,42.6666667 L277.333333,0 L384,0 Z M106.666667,0 L106.666667,42.6666667 L42.6666667,42.6666667 L42.6666667,106.666667 L0,106.666667 L0,0 L106.666667,0 Z" id="Combined-Shape"></path>
            </g>
        </g>
    </g>
</svg>