<?xml version="1.0" encoding="UTF-8"?>
<svg width="512px" height="512px" viewBox="0 0 512 512" version="1.1" xmlns="http://www.w3.org/2000/svg" xmlns:xlink="http://www.w3.org/1999/xlink">
    <title>card-layout</title>
    <g id="Page-1" stroke="none" stroke-width="1" fill="none" fill-rule="evenodd">
        <g id="icon" fill="#000000" transform="translate(42.666667, 85.333333)">
            <path d="M128,1.42108547e-14 L128,149.333333 L3.55271368e-14,149.333333 L3.55271368e-14,1.42108547e-14 L128,1.42108547e-14 Z M85.3333333,42.6666667 L42.6666667,42.6666667 L42.6666667,106.666667 L85.3333333,106.666667 L85.3333333,42.6666667 Z M426.666667,192 L426.666667,341.333333 L298.666667,341.333333 L298.666667,192 L426.666667,192 Z M384,234.666667 L341.333333,234.666667 L341.333333,298.666667 L384,298.666667 L384,234.666667 Z M426.666667,1.42108547e-14 L426.666667,149.333333 L170.666667,149.333333 L170.666667,1.42108547e-14 L426.666667,1.42108547e-14 Z M384,42.6666667 L213.333333,42.6666667 L213.333333,106.666667 L384,106.666667 L384,42.6666667 Z M256,192 L256,341.333333 L3.55271368e-14,341.333333 L3.55271368e-14,192 L256,192 Z M213.333333,234.666667 L42.6666667,234.666667 L42.6666667,298.666667 L213.333333,298.666667 L213.333333,234.666667 Z" id="Combined-Shape"></path>
        </g>
    </g>
</svg>