<?xml version="1.0" encoding="UTF-8"?>
<svg width="512px" height="512px" viewBox="0 0 512 512" version="1.1" xmlns="http://www.w3.org/2000/svg" xmlns:xlink="http://www.w3.org/1999/xlink">
    <title>clear</title>
    <g id="Page-1" stroke="none" stroke-width="1" fill="none" fill-rule="evenodd">
        <g id="Combined-Shape" fill="#000000" transform="translate(85.333333, 85.333333)">
            <path d="M170.666667,1.42108547e-14 C215.930281,1.42108547e-14 259.340015,17.9809008 291.346224,49.9871093 C323.352433,81.9933179 341.333333,125.403052 341.333333,170.666667 C341.333333,264.923264 264.923264,341.333333 170.666667,341.333333 C76.4100694,341.333333 1.42108547e-14,264.923264 1.42108547e-14,170.666667 C1.42108547e-14,76.4100694 76.4100694,1.42108547e-14 170.666667,1.42108547e-14 Z M170.666667,21.3333333 C88.192144,21.3333333 21.3333333,88.192144 21.3333333,170.666667 C21.3333333,253.141189 88.192144,320 170.666667,320 C253.141189,320 320,253.141189 320,170.666667 C320,88.192144 253.141189,21.3333333 170.666667,21.3333333 Z M240.342508,85.3333333 L256,100.990826 L186.323,170.666 L256,240.342508 L240.342508,256 L170.666,186.324 L100.990826,256 L85.3333333,240.342508 L155.009,170.666 L85.3333333,100.990826 L100.990826,85.3333333 L170.666,155.009 L240.342508,85.3333333 Z"></path>
        </g>
    </g>
</svg>