<?xml version="1.0" encoding="UTF-8"?>
<svg width="512px" height="512px" viewBox="0 0 512 512" version="1.1" xmlns="http://www.w3.org/2000/svg" xmlns:xlink="http://www.w3.org/1999/xlink">
    <title>cloud-upload-filled</title>
    <g id="Page-1" stroke="none" stroke-width="1" fill="none" fill-rule="evenodd">
        <g id="add" fill="#000000" transform="translate(42.666667, 64.000000)">
            <path d="M213.333333,225.830111 L307.503223,320 L277.333333,350.169889 L234.666444,307.515665 L234.666667,405.353665 L192,405.353665 L191.999444,307.514665 L149.333333,350.169889 L119.163444,320 L213.333333,225.830111 Z M256,1.42108547e-14 C314.910373,1.42108547e-14 362.666667,47.7562934 362.666667,106.666667 L362.633568,109.350223 C399.447831,118.798865 426.666667,152.220782 426.666667,192 C426.666667,237.700168 390.742006,275.009683 345.592327,277.2289 L341.333333,277.333333 L307.503,277.333 L213.333333,183.163444 L119.163,277.333 L106.666667,277.333333 L106.675057,276.855764 C46.8683831,271.470602 7.10542736e-15,221.20865 7.10542736e-15,160 C7.10542736e-15,95.1985894 52.5319227,42.6666667 117.333333,42.6666667 C133.98644,42.6666667 149.829242,46.1359909 164.178407,52.3913064 C182.728434,21.0287122 216.908457,1.42108547e-14 256,1.42108547e-14 Z" id="Combined-Shape"></path>
        </g>
    </g>
</svg>