<?xml version="1.0" encoding="UTF-8"?>
<svg width="512px" height="512px" viewBox="0 0 512 512" version="1.1" xmlns="http://www.w3.org/2000/svg" xmlns:xlink="http://www.w3.org/1999/xlink">
    <title>cloud-download-list-filled</title>
    <g id="Page-1" stroke="none" stroke-width="1" fill="none" fill-rule="evenodd">
        <g id="icon" fill="#000000" transform="translate(42.666667, 42.666667)">
            <path d="M448,405.333333 L448,448 L341.333333,448 L341.333333,405.333333 L448,405.333333 Z M320,405.333333 L320,448 L277.333333,448 L277.333333,405.333333 L320,405.333333 Z M217.6,7.10542736e-15 C267.673817,7.10542736e-15 308.266667,40.4091713 308.266667,90.2564103 L308.238533,92.5271116 C339.530656,100.522116 362.666667,128.802201 362.666667,162.461538 C362.666667,201.130912 332.130705,232.700501 293.753478,234.5783 L290.133333,234.666667 L170.666,234.666 L170.666,311.152 L213.333333,268.496777 L243.503223,298.666667 L149.333333,392.836556 L55.163444,298.666667 L85.3333333,268.496777 L128,311.152 L128,234.666 L90.6666667,234.666667 L90.6737982,234.262569 C39.8381256,229.705894 7.10542736e-15,187.17655 7.10542736e-15,135.384615 C7.10542736e-15,80.5526525 44.6521343,36.1025641 99.7333333,36.1025641 C113.888474,36.1025641 127.354856,39.0381462 139.551646,44.3311054 C155.319169,17.7935257 184.372189,7.10542736e-15 217.6,7.10542736e-15 Z M448,341.333333 L448,384 L341.333333,384 L341.333333,341.333333 L448,341.333333 Z M320,341.333333 L320,384 L277.333333,384 L277.333333,341.333333 L320,341.333333 Z M448,277.333333 L448,320 L341.333333,320 L341.333333,277.333333 L448,277.333333 Z M320,277.333333 L320,320 L277.333333,320 L277.333333,277.333333 L320,277.333333 Z" id="Combined-Shape"></path>
        </g>
    </g>
</svg>