<?xml version="1.0" encoding="UTF-8"?>
<svg width="512px" height="512px" viewBox="0 0 512 512" version="1.1" xmlns="http://www.w3.org/2000/svg" xmlns:xlink="http://www.w3.org/1999/xlink">
    <title>cloud-download-filled</title>
    <g id="Page-1" stroke="none" stroke-width="1" fill="none" fill-rule="evenodd">
        <g id="add" fill="#000000" transform="translate(42.666667, 42.666667)">
            <path d="M256,7.10542736e-15 C314.910373,7.10542736e-15 362.666667,47.7562934 362.666667,106.666667 C362.666667,107.563566 362.655597,108.45788 362.633587,109.34948 C399.454306,118.806817 426.666667,152.225515 426.666667,192 C426.666667,238.657016 389.221912,276.56834 342.744476,277.321901 L341.333333,277.333333 L234.666,277.333 L234.666,353.819 L277.333333,311.163444 L307.503223,341.333333 L213.333333,435.503223 L119.163444,341.333333 L149.333333,311.163444 L191.999,353.818 L191.999,277.333 L106.666667,277.333333 L106.66516,276.854872 C46.863213,271.465057 7.10542736e-15,221.205273 7.10542736e-15,160 C7.10542736e-15,95.1985894 52.5319227,42.6666667 117.333333,42.6666667 C133.980113,42.6666667 149.817204,46.1333553 164.162052,52.384178 C182.732693,21.026092 216.910893,7.10542736e-15 256,7.10542736e-15 Z" id="Combined-Shape"></path>
        </g>
    </g>
</svg>