<?xml version="1.0" encoding="UTF-8"?>
<svg width="512px" height="512px" viewBox="0 0 512 512" version="1.1" xmlns="http://www.w3.org/2000/svg" xmlns:xlink="http://www.w3.org/1999/xlink">
    <title>cogwheel</title>
    <g id="Page-1" stroke="none" stroke-width="1" fill="none" fill-rule="evenodd">
        <g id="settings" fill="#000000" transform="translate(32.844800, 42.666667)">
            <path d="M299.946667,7.10542736e-15 L299.946667,51.5413333 C308.650667,55.6586667 316.992,60.4586667 324.906667,65.92 L324.906667,65.92 L332.544,61.4826667 L369.514667,40.1706667 L390.848,77.0986667 L424.96,136.234667 L446.293333,173.184 L409.365333,194.517333 L401.728,198.890667 C402.154667,203.733333 402.368,208.533333 402.368,213.333333 C402.368,218.133333 402.154667,222.933333 401.728,227.776 L401.728,227.776 L409.365333,232.149333 L446.293333,253.482667 L424.96,290.432 L390.848,349.568 L369.514667,386.496 L332.544,365.184 L324.906667,360.746667 C316.992,366.208 308.650667,371.008 299.946667,375.125333 L299.946667,375.125333 L299.946667,426.666667 L146.368,426.666667 L146.368,375.125333 C137.664,371.008 129.322667,366.208 121.408,360.746667 L121.408,360.746667 L113.749333,365.184 L76.8,386.496 L55.4666667,349.568 L21.3333333,290.432 L7.10542736e-15,253.482667 L36.9493333,232.149333 L44.5653333,227.776 C44.16,222.933333 43.9466667,218.133333 43.9466667,213.333333 C43.9466667,208.533333 44.16,203.733333 44.5653333,198.890667 L44.5653333,198.890667 L36.9493333,194.517333 L7.10542736e-15,173.184 L21.3333333,136.234667 L55.4666667,77.0986667 L76.8,40.1706667 L113.749333,61.4826667 L121.408,65.92 C129.322667,60.4586667 137.664,55.6586667 146.368,51.5413333 L146.368,51.5413333 L146.368,7.10542736e-15 L299.946667,7.10542736e-15 Z M257.28,42.6666667 L189.034667,42.6666667 L189.034667,81.28 C164.650667,87.552 142.890667,100.288 125.781333,117.717333 L125.781333,117.717333 L92.416,98.432 L58.2826667,157.568 L91.6906667,176.853333 C88.4906667,188.48 86.6133333,200.682667 86.6133333,213.333333 C86.6133333,225.984 88.4906667,238.186667 91.6906667,249.813333 L91.6906667,249.813333 L58.2826667,269.098667 L92.416,328.234667 L125.781333,308.949333 C142.890667,326.378667 164.650667,339.114667 189.034667,345.386667 L189.034667,345.386667 L189.034667,384 L257.28,384 L257.28,345.386667 C281.664,339.114667 303.424,326.378667 320.533333,308.949333 L320.533333,308.949333 L353.877333,328.234667 L388.032,269.098667 L354.624,249.813333 C357.824,238.186667 359.701333,225.984 359.701333,213.333333 C359.701333,200.682667 357.824,188.48 354.624,176.853333 L354.624,176.853333 L388.032,157.568 L353.877333,98.432 L320.533333,117.717333 C303.424,100.288 281.664,87.552 257.28,81.28 L257.28,81.28 L257.28,42.6666667 Z M223.1552,128 C270.286608,128 308.488533,166.201925 308.488533,213.333333 C308.488533,260.464741 270.286608,298.666667 223.1552,298.666667 C176.023792,298.666667 137.821867,260.464741 137.821867,213.333333 C137.821867,166.201925 176.023792,128 223.1552,128 Z M223.1552,170.666667 C199.587941,170.666667 180.488533,189.766075 180.488533,213.333333 C180.488533,236.900592 199.587941,256 223.1552,256 C246.722459,256 265.821867,236.900592 265.821867,213.333333 C265.821867,189.766075 246.722459,170.666667 223.1552,170.666667 Z"></path>
        </g>
    </g>
</svg>