<?xml version="1.0" encoding="UTF-8"?>
<svg width="512px" height="512px" viewBox="0 0 512 512" version="1.1" xmlns="http://www.w3.org/2000/svg" xmlns:xlink="http://www.w3.org/1999/xlink">
    <title>cogwheel-filled</title>
    <g id="Page-1" stroke="none" stroke-width="1" fill="none" fill-rule="evenodd">
        <g id="audio-description1" fill="#000000" transform="translate(39.247914, 42.666667)">
            <path d="M280.752086,-2.13162821e-14 L280.754595,49.3324032 C297.479619,55.8643136 312.960461,64.8808251 326.743357,75.9281755 L369.504172,51.2410408 L433.504172,162.092293 L390.760871,186.771587 C392.072214,195.434442 392.752086,204.304491 392.752086,213.333333 C392.752086,222.362175 392.072214,231.232225 390.760871,239.89508 L433.504172,264.574374 L369.504172,375.425626 L326.743357,350.738491 C312.960461,361.785842 297.479619,370.802353 280.754595,377.334263 L280.752086,426.666667 L152.752086,426.666667 L152.750579,377.334655 C136.025574,370.80287 120.544732,361.786496 106.761811,350.739289 L64,375.425626 L7.10542736e-15,264.574374 L42.7434523,239.896081 C41.4320106,231.232908 40.7520861,222.362523 40.7520861,213.333333 C40.7520861,204.304144 41.4320106,195.433759 42.7434523,186.770586 L8.8817842e-13,162.092293 L64,51.2410408 L106.760815,75.9281755 C120.543987,64.8806045 136.025171,55.8639535 152.750579,49.3320119 L152.752086,-2.13162821e-14 L280.752086,-2.13162821e-14 Z M216.752086,149.333333 C181.405862,149.333333 152.752086,177.987109 152.752086,213.333333 C152.752086,248.679557 181.405862,277.333333 216.752086,277.333333 C252.09831,277.333333 280.752086,248.679557 280.752086,213.333333 C280.752086,177.987109 252.09831,149.333333 216.752086,149.333333 Z" id="Combined-Shape"></path>
        </g>
    </g>
</svg>