<?xml version="1.0" encoding="UTF-8"?>
<svg width="512px" height="512px" viewBox="0 0 512 512" version="1.1" xmlns="http://www.w3.org/2000/svg" xmlns:xlink="http://www.w3.org/1999/xlink">
    <title>configuration</title>
    <g id="Page-1" stroke="none" stroke-width="1" fill="none" fill-rule="evenodd">
        <g id="add" fill="#000000" transform="translate(85.331200, 85.329067)">
            <path d="M149.339733,1.42108547e-14 L149.335467,213.3376 L128.002133,213.3376 L128.002133,256.004267 L149.335467,256.004267 L149.339733,341.333333 L192.0064,341.333333 L192.002133,256.004267 L213.335467,256.004267 L213.335467,213.3376 L192.002133,213.3376 L192.0064,1.42108547e-14 L149.339733,1.42108547e-14 Z M21.3333333,1.42108547e-14 L21.3333333,85.3546667 L4.26325641e-14,85.3546667 L4.26325641e-14,128 L21.3333333,128 L21.3333333,341.333333 L64,341.333333 L64,128 L85.3333333,128 L85.3333333,85.3546667 L64,85.3546667 L64,1.42108547e-14 L21.3333333,1.42108547e-14 Z M277.314133,0.00426666667 L277.314133,128.004267 L255.9808,128.004267 L255.9936,170.666667 L277.326933,170.666667 L277.326933,341.333333 L320.014933,341.333333 L320.014933,170.666667 L341.348267,170.666667 L341.335467,128.004267 L320.002133,128.004267 L320.014933,1.42108547e-14 L277.314133,0.00426666667 Z" id="configuration"></path>
        </g>
    </g>
</svg>