<?xml version="1.0" encoding="UTF-8"?>
<svg width="512px" height="512px" viewBox="0 0 512 512" version="1.1" xmlns="http://www.w3.org/2000/svg" xmlns:xlink="http://www.w3.org/1999/xlink">
    <title>connector-chart</title>
    <g id="Page-1" stroke="none" stroke-width="1" fill="none" fill-rule="evenodd">
        <g id="drop" fill="#000000" transform="translate(42.666667, 64.000000)">
            <path d="M277.333333,170.666667 L277.333333,213.333333 L160,213.333333 L160,277.333333 C160,288.273831 168.235527,297.290819 178.845419,298.523142 L181.333333,298.666667 L216.021974,298.665629 C225.400515,262.229351 258.239329,235.21152 297.475744,234.674807 L298.666667,234.666667 L362.666667,234.666667 L362.666,266.666 L426.666667,266.666667 L426.666667,298.666667 L362.666,298.666 L362.666,341.333 L426.666667,341.333333 L426.666667,373.333333 L362.666,373.333 L362.666667,405.333333 L298.666667,405.333333 C258.905133,405.333333 225.495248,378.138692 216.021974,341.334371 L181.333333,341.333333 C147.249474,341.333333 119.388574,314.689707 117.441984,281.093819 L117.333333,277.333333 L117.333333,213.333333 L3.55271368e-14,213.333333 L3.55271368e-14,170.666667 L277.333333,170.666667 Z M320,277.333333 L298.666667,277.333333 L295.482403,277.450362 C273.626163,279.062856 256.348575,297.140072 256.005209,319.326441 L256,320 L256.117029,323.184263 C257.729523,345.040504 275.806739,362.318092 297.993107,362.661458 L298.666667,362.666667 L320,362.666667 L320,277.333333 Z M192,21.3333333 L192,149.333333 L149.333333,149.333333 L149.333333,21.3333333 L192,21.3333333 Z M256,42.6666667 L256,149.333333 L213.333333,149.333333 L213.333333,42.6666667 L256,42.6666667 Z M128,64 L128,149.333333 L85.3333333,149.333333 L85.3333333,64 L128,64 Z M64,0 L64,149.333333 L21.3333333,149.333333 L21.3333333,0 L64,0 Z" id="Combined-Shape"></path>
        </g>
    </g>
</svg>