<?xml version="1.0" encoding="UTF-8"?>
<svg width="512px" height="512px" viewBox="0 0 512 512" version="1.1" xmlns="http://www.w3.org/2000/svg" xmlns:xlink="http://www.w3.org/1999/xlink">
    <title>controlled-device</title>
    <g id="Page-1" stroke="none" stroke-width="1" fill="none" fill-rule="evenodd">
        <g id="drop" fill="#000000" transform="translate(85.333333, 42.666667)">
            <path d="M42.6666667,7.10542736e-15 L42.6666667,192 L106.666,192 L106.666667,64 L277.333333,64 L277.333333,362.666667 L106.666667,362.666667 L106.666,234.666 L42.6666667,234.666667 L42.6666667,426.666667 L-1.42108547e-14,426.666667 L-1.42108547e-14,7.10542736e-15 L42.6666667,7.10542736e-15 Z M234.666667,106.666667 L149.333333,106.666667 L149.333333,320 L234.666667,320 L234.666667,106.666667 Z M213.333333,256 L213.333333,298.666667 L170.666667,298.666667 L170.666667,256 L213.333333,256 Z M213.333333,192 L213.333333,234.666667 L170.666667,234.666667 L170.666667,192 L213.333333,192 Z" id="Combined-Shape" transform="translate(138.666667, 213.333333) scale(1, -1) translate(-138.666667, -213.333333) "></path>
        </g>
    </g>
</svg>