<?xml version="1.0" encoding="UTF-8"?>
<svg width="512px" height="512px" viewBox="0 0 512 512" version="1.1" xmlns="http://www.w3.org/2000/svg" xmlns:xlink="http://www.w3.org/1999/xlink">
    <title>couch</title>
    <g id="Page-1" stroke="none" stroke-width="1" fill="none" fill-rule="evenodd">
        <g id="Combined-Shape" fill="#000000" transform="translate(42.666667, 128.000000)">
            <path d="M320,0 C354.083859,0 381.944765,26.6436259 383.891356,60.2395139 L384,64 L384,85.3333333 L387.184263,85.4503624 C408.157423,86.997705 424.914448,103.706165 426.537718,124.658123 L426.666667,128 L426.666667,213.333333 C426.666667,235.826385 409.261274,254.254189 387.184263,255.882971 L384,256 L384,298.666667 L298.666667,298.666667 L298.666,256 L128,256 L128,298.666667 L42.6666667,298.666667 L42.6666667,256 C20.173615,256 1.74581073,238.594607 0.117029044,216.517597 L3.55271368e-14,213.333333 L3.55271368e-14,128 C3.55271368e-14,105.506948 17.4053929,87.0791441 39.4824033,85.4503624 L42.6666667,85.3333333 L42.6666667,64 C42.6666667,29.9161412 69.3102926,2.05523457 102.906181,0.108644126 L106.666667,0 L320,0 Z M42.6666667,213.333333 L384,213.333333 L384,128.021333 L383.426,128 L362.666667,128 L362.666667,192 L64,192 L64,128 L42.6666667,128 L42.6666667,213.333333 Z M320,42.6666667 L106.666667,42.6666667 C95.7261688,42.6666667 86.7091806,50.9021907 85.4768583,61.5120827 L85.3333333,64 L85.3343173,91.0419429 C97.2219399,97.9189844 105.483637,110.36684 106.549638,124.815737 L106.666667,128 L106.666667,149.333333 L320,149.333333 L320,128 C320,112.207488 328.580043,98.4189533 341.332901,91.041624 L341.333333,64 C341.333333,53.0595021 333.097809,44.0425139 322.487917,42.8101916 L320,42.6666667 Z"></path>
        </g>
    </g>
</svg>