<?xml version="1.0" encoding="UTF-8"?>
<svg width="512px" height="512px" viewBox="0 0 512 512" version="1.1" xmlns="http://www.w3.org/2000/svg" xmlns:xlink="http://www.w3.org/1999/xlink">
    <title>couch-filled</title>
    <g id="Page-1" stroke="none" stroke-width="1" fill="none" fill-rule="evenodd">
        <g id="couch" fill="#000000" transform="translate(42.661176, 106.666667)">
            <path d="M392.96549,85.3332488 C410.934541,85.3102857 425.762346,99.3873155 426.672157,117.333333 L426.672157,217.386667 C426.843333,227.458235 423.005843,237.185153 416.00418,244.426873 C409.002517,251.668593 399.41044,255.831685 389.338824,255.999944 L384.005,255.999 L384.00549,298.666667 L298.672157,298.666667 L298.672,255.999 L128.005,255.999 L128.00549,298.666667 L42.672157,298.666667 L42.672,255.999 L37.3388237,255.999944 C27.267207,255.831685 17.6751305,251.668593 10.6734675,244.426873 C3.67180454,237.185153 -0.165686013,227.458235 0.00549037303,217.386667 L0.00549037303,117.333333 C0.915301692,99.3873155 15.7431063,85.3102857 33.712157,85.3332488 C50.4367959,86.8302783 63.4265222,100.55182 64.0054904,117.333333 L64.0054904,192 L362.672157,192 L362.672157,117.333333 C363.156289,100.512302 376.1962,86.7377482 392.96549,85.3332488 Z M320.00549,0 C355.351714,0 384.00549,28.653776 384.00549,64 C360.441341,64 341.338824,83.1025173 341.338824,106.666667 L341.338824,170.666667 L85.3388237,170.666667 L85.3388237,106.666667 C85.3388237,83.1025173 66.2363064,64 42.672157,64 C42.672157,28.653776 71.3259331,0 106.672157,0 L320.00549,0 Z" id="Combined-Shape"></path>
        </g>
    </g>
</svg>