<?xml version="1.0" encoding="UTF-8"?>
<svg width="512px" height="512px" viewBox="0 0 512 512" version="1.1" xmlns="http://www.w3.org/2000/svg" xmlns:xlink="http://www.w3.org/1999/xlink">
    <title>cut</title>
    <g id="Page-1" stroke="none" stroke-width="1" fill="none" fill-rule="evenodd">
        <g id="Combined-Shape" fill="#000000" transform="translate(42.666667, 42.666667)">
            <path d="M75.8186667,0.1344 L293.482667,271.323733 C307.392,261.9584 323.541333,257.0304 340.266667,257.0304 C386.730667,257.0304 424.533333,294.811733 424.533333,341.297067 C424.533333,387.7824 386.730667,425.563733 340.266667,425.563733 C293.802667,425.563733 256,387.7824 256,341.297067 C256,327.857067 259.413333,314.651733 266.154667,302.0224 L266.154667,302.0224 L212.288,234.673067 L158.4,302.065067 C165.141333,314.6944 168.533333,327.8784 168.533333,341.297067 C168.533333,387.7824 130.730667,425.563733 84.2666667,425.563733 C37.8026667,425.563733 7.10542736e-15,387.7824 7.10542736e-15,341.297067 C7.10542736e-15,294.811733 37.8026667,257.0304 84.2666667,257.0304 C100.992,257.0304 117.162667,261.9584 131.093333,271.345067 L131.093333,271.345067 L186.432,202.353067 L61.1626667,45.9157333 L75.8186667,0.1344 Z M340.266667,297.563733 C316.16,297.563733 296.533333,317.1904 296.533333,341.297067 C296.533333,365.403733 316.16,385.0304 340.266667,385.0304 C364.373333,385.0304 384,365.403733 384,341.297067 C384,317.1904 364.373333,297.563733 340.266667,297.563733 Z M84.2666667,297.563733 C60.16,297.563733 40.5333333,317.1904 40.5333333,341.297067 C40.5333333,365.403733 60.16,385.0304 84.2666667,385.0304 C108.373333,385.0304 128,365.403733 128,341.297067 C128,317.1904 108.373333,297.563733 84.2666667,297.563733 Z M348.9024,7.10542736e-15 L363.537067,45.7813333 L267.345067,165.866667 L241.531733,133.696 L242.065067,133.034667 L348.9024,7.10542736e-15 Z"></path>
        </g>
    </g>
</svg>