<?xml version="1.0" encoding="UTF-8"?>
<svg width="512px" height="512px" viewBox="0 0 512 512" version="1.1" xmlns="http://www.w3.org/2000/svg" xmlns:xlink="http://www.w3.org/1999/xlink">
    <title>database-filled</title>
    <g id="Page-1" stroke="none" stroke-width="1" fill="none" fill-rule="evenodd">
        <g id="icon" fill="#000000" transform="translate(85.333333, 64.000000)">
            <path d="M341.333333,234.666667 L341.333333,298.666667 C341.333333,345.794965 264.923264,384 170.666667,384 C78.5046604,384 3.40481618,347.4741 0.11255743,301.795012 L1.42108547e-14,298.666667 L1.42108547e-14,234.666667 L0.11255743,237.795012 C3.40481618,283.4741 78.5046604,320 170.666667,320 C264.923264,320 341.333333,281.794965 341.333333,234.666667 L341.333333,234.666667 Z M0.11255743,131.128346 C3.40481618,176.807434 78.5046604,213.333333 170.666667,213.333333 C264.923264,213.333333 341.333333,175.128299 341.333333,128 L341.333333,128 L341.333333,192 L341.310469,193.411143 C339.803347,239.888579 263.980698,277.333333 170.666667,277.333333 C78.5046604,277.333333 3.40481618,240.807434 0.11255743,195.128346 L0.11255743,195.128346 L1.42108547e-14,192 L1.42108547e-14,128 Z M170.666667,1.42108547e-14 C262.828673,1.42108547e-14 337.928517,36.5258998 341.220776,82.2049877 L341.333333,85.3333333 L341.310469,86.744476 C339.803347,133.221912 263.980698,170.666667 170.666667,170.666667 C78.5046604,170.666667 3.40481618,134.140767 0.11255743,88.4616789 L0.11255743,88.4616789 L1.42108547e-14,85.3333333 C1.42108547e-14,38.2050347 76.4100694,1.42108547e-14 170.666667,1.42108547e-14 Z" id="Combined-Shape"></path>
        </g>
    </g>
</svg>