<?xml version="1.0" encoding="UTF-8"?>
<svg width="512px" height="512px" viewBox="0 0 512 512" version="1.1" xmlns="http://www.w3.org/2000/svg" xmlns:xlink="http://www.w3.org/1999/xlink">
    <title>details</title>
    <g id="Page-1" stroke="none" stroke-width="1" fill="none" fill-rule="evenodd">
        <g id="Combined-Shape" fill="#000000" transform="translate(64.000000, 64.000000)">
            <path d="M384,64 L384,384 L64,384 L64,64 L384,64 Z M341.333333,106.666667 L106.666667,106.666667 L106.666667,341.333333 L341.333333,341.333333 L341.333333,106.666667 Z M320,1.42108547e-14 L320,42.6666667 L42.666,42.666 L42.6666667,320 L1.42108547e-14,320 L1.42108547e-14,1.42108547e-14 L320,1.42108547e-14 Z M298.666667,234.666667 L298.666667,277.333333 L149.333333,277.333333 L149.333333,234.666667 L298.666667,234.666667 Z M298.666667,149.333333 L298.666667,192 L149.333333,192 L149.333333,149.333333 L298.666667,149.333333 Z"></path>
        </g>
    </g>
</svg>