<?xml version="1.0" encoding="UTF-8"?>
<svg width="512px" height="512px" viewBox="0 0 512 512" version="1.1" xmlns="http://www.w3.org/2000/svg" xmlns:xlink="http://www.w3.org/1999/xlink">
    <title>diagram-module-new</title>
    <g id="Page-1" stroke="none" stroke-width="1" fill="none" fill-rule="evenodd">
        <g id="diagram-module" fill="#000000">
            <path d="M426.666667,320 L426.666,383.999 L490.666667,384 L490.666667,426.666667 L426.666,426.666 L426.666667,490.666667 L384,490.666667 L383.999,426.666 L320,426.666667 L320,384 L383.999,383.999 L384,320 L426.666667,320 Z M341.333333,42.6666667 L405.333333,106.666667 L405.332667,298.666667 L362.666667,298.666667 L362.666667,362.666667 L298.666667,362.666667 L298.665667,426.666667 L106.666667,426.666667 L42.6666667,362.666667 L42.6666667,42.6666667 L341.333333,42.6666667 Z M320,85.3333333 L85.3333333,85.3333333 L85.3333333,341.333333 L320,341.333333 L320,85.3333333 Z M170.666667,128 L170.666667,149.333 L213.333333,149.333333 L213.332667,256 L234.666667,256 L234.666667,234.666667 L298.666667,234.666667 L298.666667,298.666667 L234.666667,298.666667 L234.666667,277.332667 L170.666667,277.333 L170.666667,298.666667 L106.666667,298.666667 L106.666667,234.666667 L170.666667,234.666667 L170.666667,256 L191.999667,256 L191.999667,170.666 L170.666667,170.666 L170.666667,192 L106.666667,192 L106.666667,128 L170.666667,128 Z" id="Combined-Shape"></path>
        </g>
    </g>
</svg>