<?xml version="1.0" encoding="UTF-8"?>
<svg width="512px" height="512px" viewBox="0 0 512 512" version="1.1" xmlns="http://www.w3.org/2000/svg" xmlns:xlink="http://www.w3.org/1999/xlink">
    <title>diagram-module</title>
    <g id="Page-1" stroke="none" stroke-width="1" fill="none" fill-rule="evenodd">
        <g id="Combined-Shape" fill="#000000">
            <path d="M64,64 L362.666667,64 L426.666667,128 L426.666667,448 L128,448 L64,384 L64,64 Z M341.333333,106.666667 L106.666667,106.666667 L106.666667,362.666667 L341.333333,362.666667 L341.333333,106.666667 Z M192,149.333333 L192,170.666667 L234.666667,170.666667 L234.666,277.333333 L256,277.333333 L256,256 L320,256 L320,320 L256,320 L256,298.666667 L192,298.666333 L192,320 L128,320 L128,256 L192,256 L192,277.333333 L213.333,277.333333 L213.333,191.999333 L192,192 L192,213.333333 L128,213.333333 L128,149.333333 L192,149.333333 Z"></path>
        </g>
    </g>
</svg>