<?xml version="1.0" encoding="UTF-8"?>
<svg width="512px" height="512px" viewBox="0 0 512 512" version="1.1" xmlns="http://www.w3.org/2000/svg" xmlns:xlink="http://www.w3.org/1999/xlink">
    <title>document-settings</title>
    <g id="Page-1" stroke="none" stroke-width="1" fill="none" fill-rule="evenodd">
        <g id="icon" fill="#000000" transform="translate(85.333333, 42.666667)">
            <path d="M222.169889,-2.13162821e-14 L341.333333,119.163444 L341.333732,209.124352 C328.37638,201.628866 313.98315,196.339524 298.667665,193.769948 L298.666667,136.853333 L204.48,42.6666667 L42.6666667,42.6666667 L42.6666667,384 L166.457109,383.999404 C176.363874,401.125458 190.124655,415.743148 206.553524,426.666547 L1.42108547e-14,426.666667 L1.42108547e-14,-2.13162821e-14 L222.169889,-2.13162821e-14 Z M306.847154,213.333333 L306.84783,236.169297 C317.251058,239.846405 326.765408,245.405183 334.98194,252.43669 L354.778753,241.006655 L384.408382,292.326679 L364.624464,303.749991 C365.597738,309.018468 366.106413,314.44983 366.106413,320 C366.106413,325.550277 365.597718,330.981742 364.624408,336.250315 L384.408382,347.673321 L354.778753,398.993345 L334.98194,387.56331 C326.765408,394.594817 317.251058,400.153595 306.84783,403.830703 L306.847154,426.666667 L247.587895,426.666667 L247.587219,403.830703 C237.184377,400.153731 227.670347,394.595229 219.454023,387.564092 L199.656296,398.993345 L170.026667,347.673321 L189.810642,336.250315 C188.837331,330.981742 188.328636,325.550277 188.328636,320 C188.328636,314.449479 188.837376,309.017781 189.81077,303.74899 L170.026667,292.326679 L199.656296,241.006655 L219.453029,252.436758 C227.66958,245.405219 237.183957,239.846417 247.587219,236.169297 L247.587895,213.333333 L306.847154,213.333333 Z M277.217525,284.444444 C257.580733,284.444444 241.661969,300.363209 241.661969,320 C241.661969,339.636791 257.580733,355.555556 277.217525,355.555556 C296.854316,355.555556 312.77308,339.636791 312.77308,320 C312.77308,300.363209 296.854316,284.444444 277.217525,284.444444 Z" id="Combined-Shape"></path>
        </g>
    </g>
</svg>