<?xml version="1.0" encoding="UTF-8"?>
<svg width="512px" height="512px" viewBox="0 0 512 512" version="1.1" xmlns="http://www.w3.org/2000/svg" xmlns:xlink="http://www.w3.org/1999/xlink">
    <title>document-reference</title>
    <g id="Page-1" stroke="none" stroke-width="1" fill="none" fill-rule="evenodd">
        <g id="icon" fill="#000000" transform="translate(85.333333, 42.666667)">
            <path d="M222.169889,3.55271368e-14 L341.333333,119.163444 L341.333333,426.666667 L1.42108547e-14,426.666667 L1.42108547e-14,3.55271368e-14 L222.169889,3.55271368e-14 Z M204.48,42.6666667 L42.6666667,42.6666667 L42.6666667,384 L298.666667,384 L298.666667,136.853333 L204.48,42.6666667 Z M106.666667,170.666667 L106.666667,192 C106.666667,226.083859 133.310293,253.944765 166.906181,255.891356 L170.666667,256 L204.486,256 L166.248389,217.751611 L196.418278,187.581722 L286.169889,277.333333 L196.418278,367.084945 L166.248389,336.915055 L204.486,298.666 L170.666667,298.666667 C113.306566,298.666667 66.5212136,253.39079 64.0985496,196.626979 L64,192 L64,170.666667 L106.666667,170.666667 Z" id="document-success"></path>
        </g>
    </g>
</svg>