<?xml version="1.0" encoding="UTF-8"?>
<svg width="512px" height="512px" viewBox="0 0 512 512" version="1.1" xmlns="http://www.w3.org/2000/svg" xmlns:xlink="http://www.w3.org/1999/xlink">
    <title>document-link</title>
    <g id="Page-1" stroke="none" stroke-width="1" fill="none" fill-rule="evenodd">
        <g id="icon" fill="#000000" transform="translate(85.333333, 42.666667)">
            <path d="M222.169889,3.55271368e-14 L341.333333,119.163444 L341.333333,426.666667 L1.42108547e-14,426.666667 L1.42108547e-14,3.55271368e-14 L222.169889,3.55271368e-14 Z M204.48,42.6666667 L42.6666667,42.6666667 L42.6666667,384 L298.666667,384 L298.666667,136.853333 L204.48,42.6666667 Z M154.666,170.666667 L154.666,202.666667 L128,202.666667 C110.326888,202.666667 96,216.993555 96,234.666667 C96,251.300184 108.690946,264.969572 124.918186,266.52018 L128,266.666667 L154.666,266.666667 L154.666,298.666667 L128,298.666667 C92.653776,298.666667 64,270.012891 64,234.666667 C64,199.320443 92.653776,170.666667 128,170.666667 L154.666,170.666667 Z M213.333333,170.666667 C248.679557,170.666667 277.333333,199.320443 277.333333,234.666667 C277.333333,270.012891 248.679557,298.666667 213.333333,298.666667 L186.666,298.666667 L186.666,266.666667 L213.333333,266.666667 C231.006445,266.666667 245.333333,252.339779 245.333333,234.666667 C245.333333,218.033149 232.642388,204.363762 216.415147,202.813154 L213.333333,202.666667 L186.666,202.666667 L186.666,170.666667 L213.333333,170.666667 Z M208,218.666667 L208,250.666667 L133.333333,250.666667 L133.333333,218.666667 L208,218.666667 Z" id="document-success"></path>
        </g>
    </g>
</svg>