<?xml version="1.0" encoding="UTF-8"?>
<svg width="512px" height="512px" viewBox="0 0 512 512" version="1.1" xmlns="http://www.w3.org/2000/svg" xmlns:xlink="http://www.w3.org/1999/xlink">
    <title>document-info</title>
    <g id="Page-1" stroke="none" stroke-width="1" fill="none" fill-rule="evenodd">
        <g id="icon" fill="#000000" transform="translate(64.000000, 42.666667)">
            <path d="M264.836556,3.55271368e-14 L384,119.163444 L384,426.666667 L42.6666667,426.666667 L42.6641124,357.231514 C55.5502415,366.220278 69.9203436,373.228786 85.3332897,377.815909 L85.3333333,384 L341.333333,384 L341.333333,136.853333 L247.146667,42.6666667 L85.3333333,42.6666667 L85.3332897,91.5174248 C69.9203436,96.104547 55.5502415,103.113055 42.6641124,112.10182 L42.6666667,3.55271368e-14 L264.836556,3.55271368e-14 Z M128,106.666667 C198.575823,106.666667 256,164.090843 256,234.666667 C256,305.242489 198.575823,362.666667 128,362.666667 C57.4241762,362.666667 0,305.242489 0,234.666667 C0,164.090843 57.4241762,106.666667 128,106.666667 Z M149.333333,224 L106.666667,224 L106.666667,309.333333 L149.333333,309.333333 L149.333333,224 Z M128,149.333333 C116.217925,149.333333 106.666667,158.884592 106.666667,170.666667 C106.666667,182.448741 116.217925,192 128,192 C139.782075,192 149.333333,182.448741 149.333333,170.666667 C149.333333,158.884592 139.782075,149.333333 128,149.333333 Z" id="Combined-Shape"></path>
        </g>
    </g>
</svg>