<?xml version="1.0" encoding="UTF-8"?>
<svg width="512px" height="512px" viewBox="0 0 512 512" version="1.1" xmlns="http://www.w3.org/2000/svg" xmlns:xlink="http://www.w3.org/1999/xlink">
    <title>doublet</title>
    <g id="Page-1" stroke="none" stroke-width="1" fill="none" fill-rule="evenodd">
        <g id="icon" fill="#000000" transform="translate(64.000000, 42.666667)">
            <path d="M320,128 L384,192 L384,426.666667 L128,426.666667 L128,128 L320,128 Z M302.314667,170.666667 L170.666667,170.666667 L170.666667,384 L341.333333,384 L341.333333,209.685333 L302.314667,170.666667 Z M256,317.281548 C269.283434,317.281548 280.051785,328.049899 280.051785,341.333333 C280.051785,354.616768 269.283434,365.385119 256,365.385119 C242.716566,365.385119 231.948215,354.616768 231.948215,341.333333 C231.948215,328.049899 242.716566,317.281548 256,317.281548 Z M277.333333,192 L277.333333,298.666667 L234.666667,298.666667 L234.666667,192 L277.333333,192 Z M192,-2.13162821e-14 L256,64 L256,106.666 L213.333,106.666 L213.333333,81.6853333 L174.314667,42.6666667 L42.6666667,42.6666667 L42.6666667,256 L106.666,256 L106.666,298.666 L1.42108547e-14,298.666667 L1.42108547e-14,-2.13162821e-14 L192,-2.13162821e-14 Z" id="Rectangle"></path>
        </g>
    </g>
</svg>