<?xml version="1.0" encoding="UTF-8"?>
<svg width="512px" height="512px" viewBox="0 0 512 512" version="1.1" xmlns="http://www.w3.org/2000/svg" xmlns:xlink="http://www.w3.org/1999/xlink">
    <title>doublet-filled</title>
    <g id="Page-1" stroke="none" stroke-width="1" fill="none" fill-rule="evenodd">
        <g id="icon" fill="#000000" transform="translate(64.000000, 42.666667)">
            <path d="M320,128 L384,192 L384,426.666667 L128,426.666667 L128,128 L320,128 Z M256,327.893333 C242.716566,327.893333 231.948215,338.661684 231.948215,351.945119 C231.948215,365.228553 242.716566,375.996904 256,375.996904 C269.283434,375.996904 280.051785,365.228553 280.051785,351.945119 C280.051785,338.661684 269.283434,327.893333 256,327.893333 Z M277.333333,192 L234.666667,192 L234.666667,298.666667 L277.333333,298.666667 L277.333333,192 Z M192,-2.13162821e-14 L256,64 L256,106.666 L213.333,106.666 L213.333333,81.6853333 L174.314667,42.6666667 L42.6666667,42.6666667 L42.6666667,256 L106.666,256 L106.666,298.666 L1.42108547e-14,298.666667 L1.42108547e-14,-2.13162821e-14 L192,-2.13162821e-14 Z" id="Rectangle"></path>
        </g>
    </g>
</svg>