<?xml version="1.0" encoding="UTF-8"?>
<svg width="512px" height="512px" viewBox="0 0 512 512" version="1.1" xmlns="http://www.w3.org/2000/svg" xmlns:xlink="http://www.w3.org/1999/xlink">
    <title>e-mail-filled</title>
    <g id="Page-1" stroke="none" stroke-width="1" fill="none" fill-rule="evenodd">
        <g id="e-mail-filled" fill="#000000" fill-rule="nonzero">
            <g id="drop" transform="translate(63.999840, 63.999599)">
                <path d="M292.300335,170.667068 C324.449259,170.667068 351.018194,179.328722 372.007141,196.65203 C382.450422,205.313684 390.590038,215.953617 396.425989,228.57183 C402.364325,241.617778 405.333494,256.000401 405.333494,271.719699 C405.333494,296.635322 398.422499,316.525046 384.600509,331.388872 C372.211911,344.648689 358.236344,351.278597 342.673808,351.278597 C326.08742,351.278597 316.975146,343.739749 315.336984,328.662055 C305.098473,343.739749 291.276484,351.278597 273.871015,351.278597 C259.844256,351.278597 248.735471,347.215105 240.544663,339.08812 C231.637158,330.319532 227.183406,318.289457 227.183406,302.997895 C227.183406,292.839165 229.205512,282.867569 233.249724,273.083108 C237.293936,263.298647 242.89952,254.824127 250.066478,247.659549 C263.683697,234.078931 281.191551,227.288622 302.590038,227.288622 C318.766885,227.288622 333.868688,229.908505 347.895448,235.148271 L337.605745,301.875088 C336.581894,308.398062 336.069968,313.156625 336.069968,316.150777 C336.069968,323.529223 339.192714,327.218446 345.438206,327.218446 C353.629014,327.218446 360.949549,322.246015 367.399811,312.301153 C375.283464,300.217611 379.225291,285.888455 379.225291,269.313684 C379.225291,246.536742 371.546408,228.785698 356.188642,216.060551 C339.192714,202.052197 318.101382,195.04802 292.914645,195.04802 C273.461475,195.04802 255.748851,199.86005 239.776775,209.48411 C224.726164,218.573501 213.412609,230.870911 205.836111,246.376341 C199.79539,258.994553 196.775029,273.002907 196.775029,288.401404 C196.775029,317.594386 206.911155,340.745597 227.183406,357.855038 C244.998415,372.932732 267.625524,380.471579 295.064733,380.471579 C310.729654,380.471579 327.316042,377.477427 344.823895,371.489123 L349.277647,396.190877 C330.745943,402.286115 311.85589,405.333734 292.60749,405.333734 C257.182243,405.333734 228.360835,395.014603 206.143267,374.376341 C182.492307,352.561805 170.666827,323.689624 170.666827,287.7598 C170.666827,253.861721 181.877996,226.005414 204.300335,204.190877 C227.439369,181.841671 256.772702,170.667068 292.300335,170.667068 Z M303.050771,249.584361 C297.21482,249.584361 291.430061,251.108171 285.696495,254.15579 C279.962929,257.203409 275.048444,261.400568 270.95304,266.747268 C262.557461,277.547602 258.359672,289.631145 258.359672,302.997895 C258.359672,310.483275 260.202604,316.391379 263.888467,320.722206 C267.574331,325.053033 272.591202,327.218446 278.939078,327.218446 C288.153738,327.218446 295.781428,323.261888 301.82215,315.348772 C304.996088,311.28528 307.504523,303.425631 309.347455,291.769825 L315.797717,251.829975 C310.576076,250.332899 306.327094,249.584361 303.050771,249.584361 Z M-1.42108547e-14,28.153 L189.001797,190.903646 C164.464704,215.918263 149.333494,250.19229 149.333494,288.000401 C149.333494,291.589806 149.469873,295.147358 149.737733,298.668158 L0.00016022101,298.667068 L-1.42108547e-14,28.153 Z M384,28.152 L384.00288,187.940551 C359.087539,164.029291 325.260015,149.333734 288.00016,149.333734 C266.011909,149.333734 245.218989,154.451555 226.747605,163.560992 L384,28.152 Z M351.306,4.26325641e-14 L192.00016,137.173734 L32.693,4.26325641e-14 L351.306,4.26325641e-14 Z" id="Combined-Shape"></path>
            </g>
        </g>
    </g>
</svg>