<?xml version="1.0" encoding="UTF-8"?>
<svg width="512px" height="512px" viewBox="0 0 512 512" version="1.1" xmlns="http://www.w3.org/2000/svg" xmlns:xlink="http://www.w3.org/1999/xlink">
    <title>full-screeen-exit</title>
    <g id="Page-1" stroke="none" stroke-width="1" fill="none" fill-rule="evenodd">
        <g id="drop" fill="#000000" transform="translate(64.000000, 64.000000)">
            <path d="M128,-1.42108547e-14 L127.999,85.333 L128,85.3333333 L128,128 L127.999,127.999 L128,128 L85.3333333,128 L85.333,127.999 L2.7000624e-13,128 L2.7000624e-13,85.3333333 L85.333,85.333 L85.3333333,-1.42108547e-14 L128,-1.42108547e-14 Z M128,256 L128,298.666667 L127.999,298.666 L128,384 L85.3333333,384 L85.333,298.666 L2.7000624e-13,298.666667 L2.7000624e-13,256 L128,256 Z M298.666667,-1.42108547e-14 L298.666,85.333 L384,85.3333333 L384,128 L298.666,127.999 L298.666667,128 L256,128 L256,-1.42108547e-14 L298.666667,-1.42108547e-14 Z M384,256 L384,298.666667 L298.666,298.666 L298.666667,384 L256,384 L256,256 L384,256 Z" id="Combined-Shape"></path>
        </g>
    </g>
</svg>