<?xml version="1.0" encoding="UTF-8"?>
<svg width="512px" height="512px" viewBox="0 0 512 512" version="1.1" xmlns="http://www.w3.org/2000/svg" xmlns:xlink="http://www.w3.org/1999/xlink">
    <title>function-block-new</title>
    <g id="Page-1" stroke="none" stroke-width="1" fill="none" fill-rule="evenodd">
        <g id="Combined-Shape" fill="#000000">
            <path d="M426.666667,320 L426.666,383.999333 L490.666667,384 L490.666667,426.666667 L426.666,426.666333 L426.666667,490.666667 L384,490.666667 L384,426.666333 L320,426.666667 L320,384 L384,383.999333 L384,320 L426.666667,320 Z M341.333333,85.3333333 L341.332,234.666333 L405.333333,234.666667 L405.333333,277.333333 L341.332,277.333333 L341.333,362.666333 L298.666667,362.666667 L298.666667,128 L170.666667,128 L170.666667,384 L298.666667,384 L298.666,426.666333 L128,426.666667 L128,341.333333 L64,341.333333 L64,298.666667 L128,298.666333 L128,213.332333 L64,213.333333 L64,170.666667 L128,170.666333 L128,85.3333333 L341.333333,85.3333333 Z"></path>
        </g>
    </g>
</svg>