<?xml version="1.0" encoding="UTF-8"?>
<svg width="512px" height="512px" viewBox="0 0 512 512" version="1.1" xmlns="http://www.w3.org/2000/svg" xmlns:xlink="http://www.w3.org/1999/xlink">
    <title>gauge-filled</title>
    <g id="Page-1" stroke="none" stroke-width="1" fill="none" fill-rule="evenodd">
        <g id="icon" fill="#000000" transform="translate(42.666667, 64.000000)">
            <path d="M213.333333,-1.42108547e-14 C331.15408,-1.42108547e-14 426.666667,95.5125867 426.666667,213.333333 C426.666667,283.121534 393.156154,345.082935 341.348241,384.004426 L85.3184259,384.004426 C33.5105123,345.082935 7.10542736e-15,283.121534 7.10542736e-15,213.333333 C7.10542736e-15,95.5125867 95.5125867,-1.42108547e-14 213.333333,-1.42108547e-14 Z M91.815415,258.858125 L54.8649978,280.191458 L76.1983311,317.141875 L113.148748,295.808542 L91.815415,258.858125 Z M334.851252,258.858125 L313.517918,295.808542 L350.468336,317.141875 L371.801669,280.191458 L334.851252,258.858125 Z M258.858125,91.815415 L213.333333,170.666667 L212.627762,170.672383 C189.389044,171.049163 170.666667,190.004826 170.666667,213.333333 C170.666667,236.897483 189.769184,256 213.333333,256 C236.897483,256 256,236.897483 256,213.333333 C256,205.559217 253.920834,198.270715 250.288235,191.993562 L250.288235,191.993562 L295.808542,113.148748 L258.858125,91.815415 Z M350.468336,109.524791 L313.517918,130.858125 L334.851252,167.808542 L371.801669,146.475209 L350.468336,109.524791 Z M76.1983311,109.524791 L54.8649978,146.475209 L91.815415,167.808542 L113.148748,130.858125 L76.1983311,109.524791 Z M234.666667,42.6666667 L192,42.6666667 L192,85.3333333 L234.666667,85.3333333 L234.666667,42.6666667 Z" id="Combined-Shape"></path>
        </g>
    </g>
</svg>