<?xml version="1.0" encoding="UTF-8"?>
<svg width="512px" height="512px" viewBox="0 0 512 512" version="1.1" xmlns="http://www.w3.org/2000/svg" xmlns:xlink="http://www.w3.org/1999/xlink">
    <title>gauge</title>
    <g id="Page-1" stroke="none" stroke-width="1" fill="none" fill-rule="evenodd">
        <g id="icon" fill="#000000" transform="translate(42.666667, 64.000000)">
            <path d="M213.333333,-1.42108547e-14 C331.15408,-1.42108547e-14 426.666667,95.5125867 426.666667,213.333333 C426.666667,283.126906 393.150995,345.092474 341.336277,384.013413 L341.333333,384 L341.332,383.999 L85.334,383.999 C85.3333333,384.003016 85.3333336,384.006032 85.3333343,384.009048 C33.5156713,345.092474 3.55271368e-14,283.126906 3.55271368e-14,213.333333 C3.55271368e-14,95.5125867 95.5125867,-1.42108547e-14 213.333333,-1.42108547e-14 Z M234.667936,43.9872251 L234.666667,85.3333333 L192,85.3333333 L191.998065,43.9873081 C145.29984,49.8110356 104.460817,74.5012373 77.3493162,110.189594 L113.148748,130.858125 L91.815415,167.808542 L55.9855465,147.122362 C47.4080353,167.481796 42.6666667,189.853862 42.6666667,213.333333 C42.6666667,236.812805 47.4080353,259.184871 55.9855465,279.544304 L91.815415,258.858125 L113.148748,295.808542 L77.3499902,316.47796 C84.2117164,325.510305 91.9527535,333.83816 100.445543,341.333966 L326.221124,341.333966 C334.713913,333.83816 342.45495,325.510305 349.316677,316.47796 L313.517918,295.808542 L334.851252,258.858125 L370.6807,279.545301 C379.258477,259.185601 384,236.813188 384,213.333333 C384,189.853479 379.258477,167.481066 370.6807,147.121366 L334.851252,167.808542 L313.517918,130.858125 L349.31735,110.189594 C322.205721,74.5010678 281.366439,49.8108012 234.667936,43.9872251 Z M258.858125,91.815415 L295.808542,113.148748 L250.287659,191.992568 C253.920614,198.269946 256,205.558806 256,213.333333 C256,236.897483 236.897483,256 213.333333,256 C189.769184,256 170.666667,236.897483 170.666667,213.333333 C170.666667,189.769184 189.769184,170.666667 213.333333,170.666667 L213.333333,170.666667 L258.858125,91.815415 Z" id="Combined-Shape"></path>
        </g>
    </g>
</svg>