<?xml version="1.0" encoding="UTF-8"?>
<svg width="512px" height="512px" viewBox="0 0 512 512" version="1.1" xmlns="http://www.w3.org/2000/svg" xmlns:xlink="http://www.w3.org/1999/xlink">
    <title>gaugechart</title>
    <g id="Page-1" stroke="none" stroke-width="1" fill="none" fill-rule="evenodd">
        <g id="add" fill="#000000" transform="translate(42.666667, 64.000000)">
            <path d="M277.333333,234.666667 L277.333333,256 L149.333333,256 L149.333333,234.666667 L277.333333,234.666667 Z M213.333333,1.42108547e-14 C331.15408,1.42108547e-14 426.666667,95.5125867 426.666667,213.333333 C426.666667,220.541345 426.30919,227.665864 425.610998,234.690127 L339.560664,234.68388 C340.72649,227.740674 341.333333,220.607872 341.333333,213.333333 C341.333333,142.640885 284.025781,85.3333333 213.333333,85.3333333 C142.640885,85.3333333 85.3333333,142.640885 85.3333333,213.333333 C85.3333333,220.607872 85.9401768,227.740674 87.1060024,234.68388 L1.05566913,234.690127 C0.357476948,227.665864 3.55271368e-14,220.541345 3.55271368e-14,213.333333 C3.55271368e-14,95.5125867 95.5125867,1.42108547e-14 213.333333,1.42108547e-14 Z M298.666667,192 L298.666667,213.333333 L128,213.333333 L128,192 L298.666667,192 Z M330.857723,75.2352148 L317.023255,91.4751796 C347.809931,117.697233 368.535544,155.379993 372.600898,197.924266 L372.970667,202.666667 L394.3476,202.688 L394.3476,202.48635 C391.343794,151.571272 367.332085,106.305809 330.857723,75.2352148 Z M256,149.333333 L256,170.666667 L170.666667,170.666667 L170.666667,149.333333 L256,149.333333 Z M21.3333333,320 L405.333333,320 L405.333333,362.666667 L21.3333333,362.666667 L21.3333333,320 Z" id="Combined-Shape"></path>
        </g>
    </g>
</svg>