<?xml version="1.0" encoding="UTF-8"?>
<svg width="512px" height="512px" viewBox="0 0 512 512" version="1.1" xmlns="http://www.w3.org/2000/svg" xmlns:xlink="http://www.w3.org/1999/xlink">
    <title>health</title>
    <g id="Page-1" stroke="none" stroke-width="1" fill="none" fill-rule="evenodd">
        <g id="add" fill="#000000" transform="translate(42.666667, 64.000000)">
            <path d="M365.491733,234.665926 C339.947827,276.368766 302.121072,321.347032 252.011468,369.600724 L237.061717,383.7547 C234.512147,386.129148 231.933605,388.511322 229.32609,390.901222 L213.333333,405.333333 C205.163121,398.070922 197.253659,390.878044 189.604949,383.7547 L174.655198,369.600724 C124.545595,321.347032 86.7188401,276.368766 61.174934,234.665926 L112.222458,234.666026 C134.857516,266.728129 165.548935,301.609704 204.481843,339.08546 L213.333333,347.498667 L214.816772,346.115558 C257.264819,305.964102 290.400085,268.724113 314.444476,234.665648 L365.491733,234.665926 Z M149.333333,58.9638831 L213.333333,186.944 L245.333333,122.963883 L269.184,170.666667 L426.666667,170.666667 L426.666667,213.333333 L247.850667,213.333333 L213.333333,282.36945 L149.333333,154.368 L119.851392,213.333333 L3.55271368e-14,213.333333 L3.55271368e-14,170.666667 L93.4613333,170.666667 L149.333333,58.9638831 Z M290.133333,0 C353.756537,0 405.333333,51.5775732 405.333333,115.2 C405.333333,126.248908 404.101625,137.626272 401.63821,149.33209 L357.793994,149.332408 C360.62486,138.880112 362.217829,128.905378 362.584434,119.422244 L362.666667,115.2 C362.666667,75.1414099 330.192075,42.6666667 290.133333,42.6666667 C273.651922,42.6666667 258.124715,48.1376509 245.521279,58.0219169 L241.829932,61.1185374 L213.366947,86.6338354 L184.888885,61.1353673 C171.661383,49.2918281 154.669113,42.6666667 136.533333,42.6666667 C96.4742795,42.6666667 64,75.1409461 64,115.2 C64,125.932203 65.6184007,137.316846 68.8727259,149.332605 L25.028457,149.33209 C22.5650412,137.626272 21.3333333,126.248908 21.3333333,115.2 C21.3333333,51.5767968 72.9101302,0 136.533333,0 C166.046194,0 192.966972,11.098031 213.350016,29.348444 C233.716605,11.091061 260.629741,0 290.133333,0 Z" id="Combined-Shape"></path>
        </g>
    </g>
</svg>