<?xml version="1.0" encoding="UTF-8"?>
<svg width="512px" height="512px" viewBox="0 0 512 512" version="1.1" xmlns="http://www.w3.org/2000/svg" xmlns:xlink="http://www.w3.org/1999/xlink">
    <title>heart</title>
    <g id="Page-1" stroke="none" stroke-width="1" fill="none" fill-rule="evenodd">
        <g id="add" fill="#000000" transform="translate(64.000000, 64.000000)">
            <path d="M277.333333,1.42108547e-14 C336.243707,1.42108547e-14 384,47.7562934 384,106.666667 C384,128.680222 377.331511,149.136268 365.904398,166.124941 L362.666667,170.666667 L192,405.333333 L21.3333333,170.666667 L20.0724678,168.963675 C7.4412507,151.436859 1.42108547e-14,129.920761 1.42108547e-14,106.666667 C1.42108547e-14,47.7562934 47.7562934,1.42108547e-14 106.666667,1.42108547e-14 C141.562252,1.42108547e-14 172.544105,16.7566826 192.004698,42.6625209 C211.455895,16.7566826 242.437748,1.42108547e-14 277.333333,1.42108547e-14 Z M277.333333,42.6666667 C258.370842,42.6666667 240.852311,50.9243575 228.805341,64.9443675 L226.124233,68.2809084 L192.012936,113.711621 L157.891104,68.2888197 C145.838668,52.2446795 127.088613,42.6666667 106.666667,42.6666667 C71.3204427,42.6666667 42.6666667,71.3204427 42.6666667,106.666667 C42.6666667,118.799065 46.0123617,130.338865 51.9969212,140.030114 L54.3634473,143.575229 L192,332.778667 L328.96,144.448 L331.171707,141.295798 C336.94216,132.360117 340.394315,122.13723 341.167191,111.331382 L341.333333,106.666667 C341.333333,71.3204427 312.679557,42.6666667 277.333333,42.6666667 Z" id="Combined-Shape"></path>
        </g>
    </g>
</svg>