<?xml version="1.0" encoding="UTF-8"?>
<svg width="512px" height="512px" viewBox="0 0 512 512" version="1.1" xmlns="http://www.w3.org/2000/svg" xmlns:xlink="http://www.w3.org/1999/xlink">
    <title>history</title>
    <g id="Page-1" stroke="none" stroke-width="1" fill="none" fill-rule="evenodd">
        <g id="icon" fill="#000000" transform="translate(12.496777, 64.000000)">
            <path d="M264.836556,1.42108547e-14 C370.875228,1.42108547e-14 456.836556,85.961328 456.836556,192 C456.836556,298.038672 370.875228,384 264.836556,384 C212.762984,384 165.531274,363.269523 130.944023,329.611165 L160.69855,299.03152 C187.599689,325.209881 224.335206,341.333333 264.836556,341.333333 C347.311079,341.333333 414.169889,274.474523 414.169889,192 C414.169889,109.525477 347.311079,42.6666667 264.836556,42.6666667 C182.362033,42.6666667 115.503223,109.525477 115.503223,192 C115.503223,196.042236 115.663829,200.046961 115.979008,204.008141 L158.169889,161.830111 L188.339779,192 L94.1698893,286.169889 L1.77635684e-14,192 L30.1698893,161.830111 L73.2641059,204.915722 C72.9805787,200.647132 72.836556,196.340385 72.836556,192 C72.836556,85.961328 158.797884,1.42108547e-14 264.836556,1.42108547e-14 Z M286.169889,106.666667 L286.169889,201.813333 L340.569889,238.293333 L317.103223,273.706667 L243.503223,224.853333 L243.503223,106.666667 L286.169889,106.666667 Z" id="Combined-Shape"></path>
        </g>
    </g>
</svg>