<?xml version="1.0" encoding="UTF-8"?>
<svg width="512px" height="512px" viewBox="0 0 512 512" version="1.1" xmlns="http://www.w3.org/2000/svg" xmlns:xlink="http://www.w3.org/1999/xlink">
    <title>item-details</title>
    <g id="Page-1" stroke="none" stroke-width="1" fill="none" fill-rule="evenodd">
        <g id="icon" fill="#000000" transform="translate(42.666667, 85.333333)">
            <path d="M426.666667,1.42108547e-14 L426.666667,341.333333 L3.55271368e-14,341.333333 L3.55271368e-14,1.42108547e-14 L426.666667,1.42108547e-14 Z M384,42.6666667 L42.6666667,42.6666667 L42.6666667,298.666667 L384,298.666667 L384,42.6666667 Z M341.333333,213.333333 L341.333333,245.333333 L234.666667,245.333333 L234.666667,213.333333 L341.333333,213.333333 Z M341.333333,149.333333 L341.333333,181.333333 L234.666667,181.333333 L234.666667,149.333333 L341.333333,149.333333 Z M192,85.3333333 L192,170.666667 L85.3333333,170.666667 L85.3333333,85.3333333 L192,85.3333333 Z M341.333333,85.3333333 L341.333333,117.333333 L234.666667,117.333333 L234.666667,85.3333333 L341.333333,85.3333333 Z" id="Combined-Shape"></path>
        </g>
    </g>
</svg>