<?xml version="1.0" encoding="UTF-8"?>
<svg width="512px" height="512px" viewBox="0 0 512 512" version="1.1" xmlns="http://www.w3.org/2000/svg" xmlns:xlink="http://www.w3.org/1999/xlink">
    <title>label-filled</title>
    <g id="Page-1" stroke="none" stroke-width="1" fill="none" fill-rule="evenodd">
        <g id="icon" fill="#000000" transform="translate(21.333333, 106.666667)">
            <path d="M448,2.84217094e-14 L448,298.666667 L106.666667,298.666667 L3.55271368e-15,149.333333 L106.666667,2.84217094e-14 L448,2.84217094e-14 Z M362.666667,170.666667 L213.333333,170.666667 L213.333333,213.333333 L362.666667,213.333333 L362.666667,170.666667 Z M117.333333,117.333333 C99.6602213,117.333333 85.3333333,131.660221 85.3333333,149.333333 C85.3333333,167.006445 99.6602213,181.333333 117.333333,181.333333 C135.006445,181.333333 149.333333,167.006445 149.333333,149.333333 C149.333333,131.660221 135.006445,117.333333 117.333333,117.333333 Z M362.666667,85.3333333 L213.333333,85.3333333 L213.333333,128 L362.666667,128 L362.666667,85.3333333 Z" id="Combined-Shape"></path>
        </g>
    </g>
</svg>