<?xml version="1.0" encoding="UTF-8"?>
<svg width="512px" height="512px" viewBox="0 0 512 512" version="1.1" xmlns="http://www.w3.org/2000/svg" xmlns:xlink="http://www.w3.org/1999/xlink">
    <title>library-new</title>
    <g id="Page-1" stroke="none" stroke-width="1" fill="none" fill-rule="evenodd">
        <g id="Combined-Shape" fill="#000000" transform="translate(42.666667, 85.333333)">
            <path d="M384,234.666667 L383.999,298.666 L448,298.666667 L448,341.333333 L383.999,341.333 L384,405.333333 L341.333333,405.333333 L341.333,341.333 L277.333333,341.333333 L277.333333,298.666667 L341.333,298.666 L341.333333,234.666667 L384,234.666667 Z M256,298.666667 L256,341.333333 L3.55271368e-14,341.333333 L3.55271368e-14,298.666667 L256,298.666667 Z M277.333333,21.3333333 L277.333333,277.333333 L213.333333,277.333333 L213.333333,21.3333333 L277.333333,21.3333333 Z M106.666667,1.42108547e-14 L106.666667,277.333333 L42.6666667,277.333333 L42.6666667,1.42108547e-14 L106.666667,1.42108547e-14 Z M192,21.3333333 L192,277.333333 L128,277.333333 L128,21.3333333 L192,21.3333333 Z M351.027696,21.9175969 L387.522,213.332597 L319.236,213.332597 L288,33.0310803 L351.027696,21.9175969 Z"></path>
        </g>
    </g>
</svg>