<?xml version="1.0" encoding="UTF-8"?>
<svg width="512px" height="512px" viewBox="0 0 512 512" version="1.1" xmlns="http://www.w3.org/2000/svg" xmlns:xlink="http://www.w3.org/1999/xlink">
    <title>license</title>
    <g id="Page-1" stroke="none" stroke-width="1" fill="none" fill-rule="evenodd" opacity="0.85">
        <g id="license-white" fill="#000000" transform="translate(64.000000, 64.000000)">
            <path d="M204.077924,323.727666 L204.470794,324.027506 C204.509151,324.056605 204.547533,324.085673 204.58594,324.114709 L204.077924,323.727666 C204.559548,324.097446 205.045229,324.462204 205.534891,324.821861 C205.590891,324.862993 205.647167,324.904223 205.703497,324.945385 C206.013828,325.172158 206.32554,325.396738 206.63882,325.619257 C206.678965,325.647772 206.719866,325.67677 206.760794,325.705733 C207.037739,325.901714 207.315302,326.095669 207.594065,326.288009 C207.66629,326.337842 207.738753,326.387675 207.811296,326.437399 C208.116038,326.646277 208.421926,326.853044 208.729218,327.05787 C208.804244,327.107879 208.87988,327.158121 208.9556,327.208246 C209.242488,327.398155 209.530319,327.586201 209.819348,327.772549 C209.928285,327.842786 210.037843,327.913069 210.147573,327.983108 C210.404345,328.147002 210.661768,328.309383 210.920115,328.47042 C210.977975,328.506486 211.036098,328.54262 211.094268,328.578685 C211.411477,328.775355 211.729786,328.969831 212.04946,329.162271 C212.12932,329.210346 212.209338,329.258338 212.289442,329.306202 C212.618395,329.502761 212.948858,329.697211 213.280736,329.88949 C213.314282,329.908926 213.347876,329.928359 213.381484,329.947769 C213.697225,330.130123 214.014195,330.310485 214.332424,330.488867 C214.392996,330.52282 214.453745,330.556775 214.514539,330.590657 C214.844557,330.774585 215.17579,330.956315 215.508351,331.1359 C215.580262,331.174733 215.652244,331.213471 215.724288,331.252107 C216.041055,331.421987 216.359065,331.589949 216.678256,331.755953 C216.781919,331.809866 216.88582,331.86363 216.989845,331.917187 C217.266439,332.05959 217.543724,332.200431 217.821877,332.339796 C217.889079,332.373466 217.955851,332.406812 218.022673,332.440072 C218.354667,332.605322 218.688648,332.768839 219.023847,332.930229 C219.106251,332.969904 219.188257,333.009225 219.270336,333.04842 C219.595247,333.203572 219.921598,333.356871 220.249071,333.508155 C220.348269,333.553981 220.447131,333.599422 220.546096,333.644679 C220.863426,333.7898 221.182258,333.933235 221.502123,334.074761 L221.560125,334.100398 L221.560125,334.100398 L221.704641,334.164051 C222.032104,334.307918 222.360643,334.449788 222.690243,334.589645 C222.753871,334.616644 222.81786,334.643704 222.881889,334.670688 C223.609543,334.977341 224.342098,335.274097 225.079628,335.560894 C225.163378,335.59346 225.246821,335.625756 225.330327,335.657923 C225.679551,335.792451 226.030315,335.924908 226.382174,336.055111 C226.464692,336.085647 226.547344,336.116086 226.630057,336.1464 C226.975149,336.272876 227.320965,336.397074 227.667807,336.519094 C227.767069,336.554016 227.86697,336.588952 227.966956,336.623707 C228.263322,336.726724 228.56025,336.828092 228.857911,336.927863 C228.933887,336.953329 229.00966,336.978608 229.08548,337.003783 C229.462648,337.129017 229.841199,337.251759 230.220899,337.371917 C230.276722,337.389582 230.33204,337.407025 230.387382,337.424412 C231.154052,337.665294 231.925726,337.895741 232.701899,338.11548 C232.79306,338.141288 232.884126,338.166904 232.975254,338.192373 C233.321881,338.289251 233.669502,338.384023 234.017999,338.476644 C234.108389,338.500668 234.199102,338.524616 234.289873,338.548418 C234.65671,338.644609 235.024132,338.738325 235.392499,338.829648 C235.49237,338.854408 235.592291,338.878986 235.692281,338.903389 C235.993108,338.976806 236.294783,339.048681 236.597074,339.118949 C236.697737,339.142348 236.798469,339.165569 236.899268,339.188612 C237.294797,339.279028 237.691117,339.366641 238.088462,339.451487 C238.119292,339.458071 238.150617,339.464742 238.181949,339.471395 C238.587059,339.55742 238.992713,339.640469 239.399405,339.720628 C239.466669,339.733886 239.534306,339.747131 239.601971,339.760298 C239.954308,339.828852 240.307072,339.895176 240.660596,339.959322 C240.730841,339.972068 240.801258,339.984753 240.871705,339.997352 C241.251446,340.065265 241.631952,340.130648 242.01331,340.193503 C242.106754,340.208905 242.200089,340.224128 242.293474,340.2392 C242.645705,340.296048 242.998733,340.350752 243.35247,340.403285 L217.290412,401.798731 L178.015539,385.127536 L204.077924,323.727666 Z M307.92405,323.724247 L333.986619,385.126461 L294.711745,401.797656 L268.651131,340.401647 C269.021157,340.346655 269.390406,340.289287 269.758864,340.229561 C269.820837,340.219515 269.882506,340.209449 269.944153,340.199316 C270.332598,340.135473 270.720617,340.068925 271.10773,339.999768 C271.193478,339.98445 271.279572,339.968932 271.36562,339.953286 C271.711925,339.890316 272.057132,339.825328 272.401597,339.758269 C272.463474,339.746222 272.524771,339.734218 272.586045,339.722149 C272.976512,339.645241 273.366771,339.565511 273.756051,339.483128 C273.832667,339.466914 273.90969,339.450502 273.986675,339.433987 C274.366297,339.352543 274.744609,339.26866 275.121966,339.182276 C275.188572,339.167029 275.254973,339.151744 275.321345,339.136381 C275.68024,339.053313 276.038575,338.967907 276.396024,338.880248 C276.451508,338.866642 276.506793,338.853025 276.562057,338.839354 C276.93725,338.746542 277.311546,338.651227 277.684843,338.553447 C277.771879,338.530649 277.858536,338.507803 277.945139,338.484824 C278.298845,338.390976 278.651999,338.294816 279.004234,338.196453 C279.109044,338.167183 279.213131,338.1379 279.317138,338.108425 C279.655201,338.012622 279.993024,337.914605 280.329975,337.814564 C280.369446,337.802845 280.408745,337.791146 280.448032,337.77942 C280.833428,337.664385 281.217751,337.54668 281.600908,337.426345 C281.657756,337.408491 281.714407,337.390634 281.771032,337.372719 C282.153049,337.251859 282.534088,337.128322 282.913941,337.002188 C282.980555,336.980068 283.046949,336.95793 283.113308,336.935712 C283.41801,336.833694 283.722247,336.729898 284.025704,336.624439 C284.134966,336.586467 284.24385,336.548377 284.352633,336.510072 C284.688502,336.391808 285.023652,336.271413 285.357822,336.148988 C285.444965,336.117062 285.531961,336.085029 285.618891,336.052857 C285.982979,335.918113 286.34575,335.781012 286.707332,335.641521 C286.748363,335.625692 286.789075,335.609949 286.829772,335.594177 C287.594706,335.297721 288.354586,334.990437 289.108938,334.672621 C289.175919,334.644402 289.24325,334.615933 289.310538,334.587379 C289.662281,334.438115 290.012534,334.286683 290.361563,334.13298 C290.43655,334.099958 290.511325,334.0669 290.586043,334.033737 C290.911832,333.889143 291.236575,333.742555 291.560227,333.594002 C291.600081,333.57571 291.640019,333.557341 291.67994,333.538943 C292.043374,333.371447 292.405345,333.201512 292.765915,333.02912 C292.821483,333.002553 292.877476,332.975707 292.933435,332.948803 C293.295429,332.774753 293.655404,332.598524 294.013943,332.419847 C294.037891,332.407913 294.062605,332.395582 294.087312,332.38324 C294.427523,332.213283 294.765784,332.041459 295.102737,331.867456 C295.156643,331.839618 295.210243,331.811866 295.26381,331.78406 C295.61949,331.599425 295.973957,331.412226 296.326934,331.222616 C296.366456,331.201386 296.406129,331.180034 296.445783,331.158652 C296.802228,330.966448 297.156896,330.771924 297.510019,330.574965 C297.542819,330.55667 297.575872,330.538206 297.608911,330.51972 C298.313716,330.125374 299.012103,329.721466 299.704143,329.308039 C299.777928,329.263959 299.851555,329.219823 299.92511,329.175579 C300.237575,328.987628 300.548767,328.797714 300.858639,328.605872 C300.939945,328.555536 301.021023,328.505151 301.102011,328.454635 C301.374336,328.284771 301.645744,328.113345 301.916112,327.940437 L302.063439,327.846004 L302.063439,327.846004 L302.135847,327.799436 C302.442862,327.601766 302.748526,327.40218 303.052824,327.200696 C303.119072,327.156831 303.184706,327.113241 303.250276,327.069563 C303.573022,326.854577 303.894667,326.637145 304.214739,326.417587 C304.259459,326.38691 304.304197,326.356159 304.348905,326.325366 C304.639295,326.125353 304.928224,325.923702 305.215839,325.720316 C305.266883,325.684221 305.318077,325.647935 305.369229,325.611595 C305.691146,325.382889 306.01133,325.152063 306.329838,324.919083 C306.37004,324.889676 306.410356,324.860132 306.450645,324.830553 C306.754345,324.607587 307.056287,324.38283 307.356682,324.156134 C307.430983,324.100062 307.505056,324.043972 307.579034,323.987765 L307.92405,323.724247 L307.92405,323.724247 Z M255.996445,192 C291.350045,192 320,220.652493 320,255.998794 C320,291.348311 291.349029,320 255.996445,320 C220.649955,320 192,291.348311 192,255.998794 C192,220.652493 220.648939,192 255.996445,192 Z M384,-2.84217094e-14 L384,298.666667 L329.918518,298.666352 C330.118232,298.321076 330.315597,297.974271 330.510589,297.625958 C330.538069,297.576869 330.565268,297.528173 330.592419,297.479447 C330.780396,297.142116 330.96646,296.802802 331.150276,296.462095 C331.181878,296.403518 331.213066,296.345547 331.24419,296.287536 C331.430968,295.939406 331.615659,295.589329 331.797978,295.237823 C331.820792,295.193837 331.843324,295.150304 331.865818,295.10675 C332.238104,294.385942 332.600571,293.658828 332.952876,292.925904 C332.980453,292.868535 333.008087,292.81088 333.035658,292.75319 C333.384164,292.023957 333.722508,291.289253 334.050632,290.549009 C334.074555,290.495037 334.098316,290.441281 334.122023,290.387496 C334.27858,290.032314 334.432855,289.675698 334.584757,289.317831 C334.613052,289.25117 334.641114,289.184825 334.669093,289.118436 C334.815718,288.77054 334.960208,288.421206 335.102436,288.070712 C335.131599,287.998846 335.160541,287.927243 335.189388,287.855591 C335.475885,287.144002 335.753193,286.427326 336.021029,285.706046 C336.065992,285.584961 336.110752,285.463574 336.155243,285.342057 C336.279257,285.003339 336.401158,284.663697 336.520958,284.323066 C336.547783,284.246791 336.574375,284.170836 336.600861,284.094833 C337.014922,282.906708 337.403549,281.706303 337.76598,280.494582 C337.783524,280.435927 337.800994,280.377289 337.818402,280.318624 C337.931132,279.938733 338.041265,279.557817 338.148805,279.175815 C338.167832,279.108229 338.186866,279.040292 338.205818,278.972321 C338.300483,278.632805 338.393017,278.292753 338.483494,277.951864 C338.500695,277.887053 338.5178,277.822297 338.534831,277.75751 C338.633713,277.381357 338.730127,277.004047 338.824018,276.625739 C338.842602,276.550858 338.861108,276.475855 338.879515,276.400814 C338.975295,276.010323 339.068322,275.61906 339.158646,275.226764 C339.171437,275.171207 339.184182,275.115599 339.196872,275.059969 C339.380348,274.255661 339.55244,273.447137 339.712996,272.634464 C339.724153,272.577994 339.735359,272.520967 339.746508,272.463921 C339.824317,272.065785 339.899262,271.667189 339.971425,271.267626 C339.983218,271.202327 339.994877,271.13734 340.006462,271.072328 C340.153334,270.248134 340.288427,269.419492 340.411499,268.586932 C340.419317,268.534049 340.427102,268.481036 340.434839,268.428006 C340.49366,268.02484 340.549651,267.620844 340.602804,267.215954 C340.611544,267.149376 340.620215,267.082721 340.628808,267.016042 C340.732891,266.208413 340.825673,265.397379 340.907006,264.582971 L340.927081,264.379505 L340.927081,264.379505 L340.941844,264.226599 C340.977076,263.858262 341.009967,263.489241 341.040501,263.119551 C341.046309,263.049237 341.05206,262.97855 341.057724,262.90784 C341.163916,261.582167 341.239812,260.248131 341.284733,258.906239 C341.286707,258.84726 341.2886,258.788927 341.290435,258.730579 C341.318956,257.823768 341.333333,256.91276 341.333333,255.998392 L341.333333,42.6666667 L42.6666667,42.6666667 L42.6666667,256 L170.666,256 L170.678097,257.409664 C170.685015,257.836427 170.695065,258.262427 170.708224,258.687643 C170.710536,258.762327 170.712942,258.83697 170.715445,258.911589 C170.759616,260.228812 170.833652,261.538718 170.936889,262.840395 C170.943782,262.927296 170.950759,263.013597 170.957863,263.099862 C170.988489,263.471749 171.021565,263.843653 171.057019,264.214862 C171.068106,264.330951 171.079426,264.446978 171.090979,264.562936 C171.129055,264.945118 171.16964,265.326449 171.212727,265.70702 C171.218017,265.753747 171.223343,265.800448 171.228707,265.847137 C171.325668,266.691103 171.434942,267.531344 171.556342,268.367654 C171.56827,268.449823 171.580244,268.531473 171.592334,268.613087 C171.780314,269.882104 171.996274,271.142262 172.23953,272.39266 C172.256084,272.47775 172.272688,272.562408 172.289417,272.647021 C172.365389,273.031288 172.444029,273.41504 172.525234,273.797844 C172.537146,273.853997 172.549235,273.910702 172.56138,273.967386 C172.834361,275.241354 173.135639,276.504264 173.464629,277.755932 C173.477852,277.806243 173.491231,277.856952 173.504655,277.907642 C173.704262,278.661369 173.913825,279.410673 174.13328,280.155736 C174.174338,280.295127 174.215633,280.434006 174.257272,280.572737 C174.349975,280.881609 174.444452,281.189971 174.540623,281.497585 C174.579556,281.622114 174.618735,281.746425 174.658192,281.870612 C174.894032,282.612911 175.139701,283.350663 175.395089,284.083859 C175.422255,284.161852 175.449531,284.239791 175.476917,284.317679 C175.600503,284.669168 175.726264,285.019437 175.854242,285.368636 C175.890332,285.46711 175.92647,285.565152 175.962782,285.663108 C176.088301,286.001713 176.216041,286.339653 176.345856,286.676561 C176.376952,286.757263 176.408079,286.837681 176.439324,286.918039 C176.545903,287.192145 176.653964,287.465829 176.763394,287.738816 L176.862971,287.986095 L176.862971,287.986095 L176.911009,288.104591 C177.036816,288.414254 177.16439,288.723011 177.293716,289.030849 C177.337511,289.135096 177.381569,289.239382 177.425828,289.343562 C177.740428,290.084092 178.065125,290.819118 178.399804,291.54861 C178.420751,291.594268 178.44157,291.639539 178.462427,291.684789 C178.630527,292.049499 178.801307,292.4132 178.974568,292.775488 C178.995914,292.820122 179.017,292.864114 179.038122,292.908086 C179.210513,293.266965 179.385656,293.625088 179.563221,293.981791 C179.586251,294.028053 179.609214,294.074078 179.632218,294.12008 C179.993327,294.842205 180.364472,295.558671 180.745383,296.269117 C180.7805,296.334615 180.815973,296.400568 180.85153,296.466469 C181.034638,296.805836 181.21976,297.14343 181.407089,297.479626 C181.435633,297.530854 181.464329,297.582228 181.493076,297.63357 C181.686733,297.979435 181.882632,298.323647 182.080846,298.666352 L0,298.666667 L0,-2.84217094e-14 L384,-2.84217094e-14 Z M255.998815,234.666667 C244.216313,234.666667 234.666667,244.217498 234.666667,255.999598 C234.666667,267.78277 244.216652,277.333333 255.998815,277.333333 C267.78301,277.333333 277.333333,267.78277 277.333333,255.999598 C277.333333,244.217498 267.783348,234.666667 255.998815,234.666667 Z M85.3333333,85.3333333 L298.666667,85.3333333 L298.666667,128 L85.3333333,128 L85.3333333,85.3333333 Z M85.3333333,170.666667 L170.666667,170.666667 L170.666667,213.333333 L85.3333333,213.333333 L85.3333333,170.666667 Z" id="Combined-Shape"></path>
        </g>
    </g>
</svg>