<?xml version="1.0" encoding="UTF-8"?>
<svg width="512px" height="512px" viewBox="0 0 512 512" version="1.1" xmlns="http://www.w3.org/2000/svg" xmlns:xlink="http://www.w3.org/1999/xlink">
    <title>link</title>
    <g id="Page-1" stroke="none" stroke-width="1" fill="none" fill-rule="evenodd">
        <g id="icon" fill="#000000" transform="translate(42.666667, 128.000000)">
            <path d="M298.666667,106.666667 L298.666667,149.333333 L128,149.333333 L128,106.666667 L298.666667,106.666667 L298.666667,106.666667 Z M192,213.333333 L128,213.333333 C80.94656,213.333333 42.6666667,175.05344 42.6666667,128 C42.6666667,80.94656 80.94656,42.6666667 128,42.6666667 L192,42.6666667 L192,-2.84217094e-14 L128,-2.84217094e-14 C57.3073067,-2.84217094e-14 3.55271368e-14,57.3073067 3.55271368e-14,128 C3.55271368e-14,198.692693 57.3073067,256 128,256 L192,256 L192,213.333333 Z M298.666667,-2.84217094e-14 L234.666667,-2.84217094e-14 L234.666667,42.6666667 L298.666667,42.6666667 C345.720107,42.6666667 384,80.94656 384,128 C384,175.05344 345.720107,213.333333 298.666667,213.333333 L234.666667,213.333333 L234.666667,256 L298.666667,256 C369.35936,256 426.666667,198.692693 426.666667,128 C426.666667,57.3073067 369.35936,-2.84217094e-14 298.666667,-2.84217094e-14 Z" id="Shape"></path>
        </g>
    </g>
</svg>