<?xml version="1.0" encoding="UTF-8"?>
<svg width="512px" height="512px" viewBox="0 0 512 512" version="1.1" xmlns="http://www.w3.org/2000/svg" xmlns:xlink="http://www.w3.org/1999/xlink">
    <title>live-schedule</title>
    <g id="Page-1" stroke="none" stroke-width="1" fill="none" fill-rule="evenodd">
        <g id="Combined-Shape" fill="#000000" transform="translate(21.333333, 21.333333)">
            <path d="M469.333333,234.666667 L469.333333,469.333333 L256,469.333333 L256,234.666667 L469.333333,234.666667 Z M426.666667,405.333333 L298.666667,405.333333 L298.666667,426.666667 L426.666667,426.666667 L426.666667,405.333333 Z M192,1.77635684e-14 C298.038672,1.77635684e-14 384,85.961328 384,192 C383.863865,199.139121 383.293926,206.263368 382.293333,213.333333 L382.293333,213.333333 L339.626667,213.333333 C340.733507,206.275529 341.304029,199.144008 341.333333,192 C341.333333,109.525477 274.474523,42.6666667 192,42.6666667 C109.525477,42.6666667 42.6666667,109.525477 42.6666667,192 C42.6666667,274.474523 109.525477,341.333333 192,341.333333 C206.448559,341.373227 220.82449,339.288717 234.666667,335.146667 L234.666667,335.146667 L234.666667,379.093333 C220.680266,382.363126 206.363525,384.009551 192,384.000041 C85.961328,384.000041 1.77635684e-14,298.038672 1.77635684e-14,192 C1.77635684e-14,85.961328 85.961328,1.77635684e-14 192,1.77635684e-14 Z M426.666667,341.333333 L298.666667,341.333333 L298.666667,362.666667 L426.666667,362.666667 L426.666667,341.333333 Z M426.666667,277.333333 L298.666667,277.333333 L298.666667,298.666667 L426.666667,298.666667 L426.666667,277.333333 Z M124.21431,93.9689852 L191.954,161.709 L251.416234,102.248258 L281.586124,132.418147 L222.124,191.879 L222.266451,192.021125 L192.096561,222.191015 L191.954,222.049 L191.830703,222.173568 L161.660814,192.003679 L161.784,191.879 L94.0444211,124.138875 L124.21431,93.9689852 Z"></path>
        </g>
    </g>
</svg>