<?xml version="1.0" encoding="UTF-8"?>
<svg width="512px" height="512px" viewBox="0 0 512 512" version="1.1" xmlns="http://www.w3.org/2000/svg" xmlns:xlink="http://www.w3.org/1999/xlink">
    <title>lock-key-filled</title>
    <g id="Page-1" stroke="none" stroke-width="1" fill="none" fill-rule="evenodd">
        <g id="icon" fill="#000000" transform="translate(85.333333, 42.666667)">
            <path d="M170.666667,-2.13162821e-14 C241.156267,-2.13162821e-14 298.666667,57.6949333 298.666667,128 L298.666667,213.333333 L298.992313,215.938579 C276.724217,221.575884 257.94419,235.967806 246.529179,255.237398 L246.082705,256.000072 L85.3333333,256 L85.3333333,341.333333 L106.666667,341.333333 L106.666667,384 L213.333333,384 L213.333333,341.333333 L246.083281,341.334256 C260.690401,366.584882 287.864742,383.655964 319.053661,383.994861 L320,384 L341.334,383.999 L341.333333,426.666667 L1.42108547e-14,426.666667 L1.42108547e-14,213.333333 L42.6666667,213.333333 L42.6666667,128 C42.6666667,57.6949333 100.176853,-2.13162821e-14 170.666667,-2.13162821e-14 Z M320,234.666667 C355.346224,234.666667 384,263.320443 384,298.666667 C384,334.012891 355.346224,362.666667 320,362.666667 C292.134206,362.666667 268.427919,344.857703 259.641919,320.000557 L191.999667,319.999667 L192,362.666667 L128,362.666667 L127.999667,319.999667 L106.666667,320 L106.666667,277.333333 L259.641919,277.332776 C268.427919,252.47563 292.134206,234.666667 320,234.666667 Z M320,277.333333 C308.217925,277.333333 298.666667,286.884592 298.666667,298.666667 C298.666667,310.448741 308.217925,320 320,320 C331.782075,320 341.333333,310.448741 341.333333,298.666667 C341.333333,286.884592 331.782075,277.333333 320,277.333333 Z M170.666667,42.6666667 C123.80899,42.6666667 86.0943131,80.8864895 85.3447054,126.612109 L85.3333333,128 L85.3333333,213.333333 L256,213.333333 L256,128 C256,81.6625067 217.9968,42.6666667 170.666667,42.6666667 Z" id="Combined-Shape"></path>
        </g>
    </g>
</svg>