<?xml version="1.0" encoding="UTF-8"?>
<svg width="512px" height="512px" viewBox="0 0 512 512" version="1.1" xmlns="http://www.w3.org/2000/svg" xmlns:xlink="http://www.w3.org/1999/xlink">
    <title>maintenance-warning-filled</title>
    <g id="Page-1" stroke="none" stroke-width="1" fill="none" fill-rule="evenodd">
        <g id="maintenance-warning/maintenance-warning" fill="#000000" transform="translate(42.666667, 42.666667)">
            <path d="M213.333333,7.10542736e-15 C330.959705,7.10542736e-15 426.666667,95.7069604 426.666667,213.333333 C426.666667,330.959705 330.959705,426.666667 213.333333,426.666667 C95.7069604,426.666667 7.10542736e-15,330.959705 7.10542736e-15,213.333333 C7.10542736e-15,95.7069604 95.7069604,7.10542736e-15 213.333333,7.10542736e-15 Z M214.247352,115.448129 C194.012816,100.058863 167.562553,94.7513198 148.606327,99.0378728 L148.606327,99.0378728 L181.426839,131.858386 L165.016583,164.678898 L132.19607,181.089155 L99.3755574,148.268642 C95.0886432,167.225458 100.396892,193.674631 115.785814,213.909668 C136.767529,230.046951 162.579882,235.491139 181.426839,230.319924 L181.426839,230.319924 L256.295918,301.394157 C270.493513,313.921446 284.691108,313.086294 298.888703,298.888699 C313.973648,283.803754 313.973648,268.71881 298.888703,253.633865 C252.755616,208.371626 230.011918,184.190056 230.657609,181.089155 C235.828347,162.243841 230.38415,136.430834 214.247352,115.448129 Z" id="Combined-Shape"></path>
        </g>
    </g>
</svg>