<?xml version="1.0" encoding="UTF-8"?>
<svg width="512px" height="512px" viewBox="0 0 512 512" version="1.1" xmlns="http://www.w3.org/2000/svg" xmlns:xlink="http://www.w3.org/1999/xlink">
    <title>monitor</title>
    <g id="Page-1" stroke="none" stroke-width="1" fill="none" fill-rule="evenodd">
        <g id="icon" fill="#000000" transform="translate(42.666667, 64.000000)">
            <path d="M384.52736,269.682347 C399.834667,248.18496 408.197973,222.60416 408.197973,195.687467 C408.197973,168.474027 399.636693,142.625067 384,120.992213 L384,0 L-2.13162821e-14,0 L-2.13162821e-14,298.666667 L170.666667,298.666667 L170.666667,362.666667 L85.3333333,362.666667 L85.3333333,405.333333 L298.666667,405.333333 L298.666667,362.666667 L213.333333,362.666667 L213.333333,304.463573 C233.799467,317.031253 256.936107,323.62496 280.197973,323.62496 C306.231893,323.62496 332.084693,315.416533 354.194133,299.684907 L405.520853,350.583253 L435.562453,320.291627 L384.52736,269.682347 Z M167.23968,256 L42.6666667,256 L42.6666667,42.6666667 L341.333333,42.6666667 L341.333333,83.2162133 C322.785067,73.0990933 301.916587,67.6874667 280.208427,67.6874667 C246.010453,67.6874667 213.874987,80.9998933 189.69792,105.187413 C165.520853,129.354027 152.208427,161.499947 152.208427,195.687467 C152.208427,217.072853 157.419307,237.66144 167.23968,256 Z M340.541653,256.0416 C307.291733,289.312427 253.156267,289.312427 219.864533,256.0416 C203.749973,239.916587 194.87488,218.479147 194.87488,195.687467 C194.87488,172.895787 203.749973,151.47904 219.864533,135.35424 C235.989547,119.229227 257.416533,110.354133 280.208213,110.354133 C302.98944,110.354133 324.41664,119.229227 340.54144,135.35424 C356.656,151.479253 365.531093,172.896 365.531093,195.687467 C365.531093,218.478933 356.656213,239.916587 340.541653,256.0416 Z" id="Shape"></path>
        </g>
    </g>
</svg>