<?xml version="1.0" encoding="UTF-8"?>
<svg width="512px" height="512px" viewBox="0 0 512 512" version="1.1" xmlns="http://www.w3.org/2000/svg" xmlns:xlink="http://www.w3.org/1999/xlink">
    <title>monitor-filled</title>
    <g id="Page-1" stroke="none" stroke-width="1" fill="none" fill-rule="evenodd">
        <g id="icon" fill="#000000" transform="translate(42.666667, 64.000000)">
            <path d="M384,1.42108547e-14 L384.004048,87.4924994 C356.899398,59.8303427 319.120761,42.6666667 277.333333,42.6666667 C194.858811,42.6666667 128,109.525477 128,192 C128,251.570562 162.880478,302.994352 213.331932,326.96187 L213.333333,362.666667 L298.666667,362.666667 L298.666667,405.333333 L85.3333333,405.333333 L85.3333333,362.666667 L170.666667,362.666667 L170.666667,298.666667 L7.10542736e-15,298.666667 L7.10542736e-15,1.42108547e-14 L384,1.42108547e-14 Z M277.333333,64 C348.025781,64 405.333333,121.307552 405.333333,192 C405.333333,219.65101 396.56559,245.254205 381.658571,266.181116 L435.437083,319.960078 L405.267193,350.129968 L351.484313,296.346697 C330.56296,311.240671 304.971072,320 277.333333,320 C206.640885,320 149.333333,262.692448 149.333333,192 C149.333333,121.307552 206.640885,64 277.333333,64 Z M277.333333,106.666667 C230.205035,106.666667 192,144.871701 192,192 C192,239.128299 230.205035,277.333333 277.333333,277.333333 C324.461632,277.333333 362.666667,239.128299 362.666667,192 C362.666667,144.871701 324.461632,106.666667 277.333333,106.666667 Z" id="Combined-Shape"></path>
        </g>
    </g>
</svg>