<?xml version="1.0" encoding="UTF-8"?>
<svg width="512px" height="512px" viewBox="0 0 512 512" version="1.1" xmlns="http://www.w3.org/2000/svg" xmlns:xlink="http://www.w3.org/1999/xlink">
    <title>more-menu</title>
    <g id="Page-1" stroke="none" stroke-width="1" fill="none" fill-rule="evenodd">
        <g id="icon" fill="#000000" transform="translate(53.333333, 224.000000)">
            <path d="M64,32 C64,14.326888 49.673112,2.91322522e-11 32,2.91322522e-11 C14.326888,2.91322522e-11 -1.47219675e-14,14.326888 -1.58041335e-14,32 C-1.68862995e-14,49.673112 14.326888,64 32,64 C49.673112,64 64,49.673112 64,32 Z M405.333333,32 C405.333333,14.326888 391.006445,-2.84217094e-14 373.333333,-2.84217094e-14 C355.660221,-2.84217094e-14 341.333333,14.326888 341.333333,32 C341.333333,49.673112 355.660221,64 373.333333,64 C391.006445,64 405.333333,49.673112 405.333333,32 Z M234.666667,32 C234.666667,14.326888 220.339779,2.84217094e-14 202.666667,2.84217094e-14 C184.993555,2.84217094e-14 170.666667,14.326888 170.666667,32 C170.666667,49.673112 184.993555,64 202.666667,64 C220.339779,64 234.666667,49.673112 234.666667,32 Z" id="options-horizontal"></path>
        </g>
    </g>
</svg>