<?xml version="1.0" encoding="UTF-8"?>
<svg width="512px" height="512px" viewBox="0 0 512 512" version="1.1" xmlns="http://www.w3.org/2000/svg" xmlns:xlink="http://www.w3.org/1999/xlink">
    <title>mp4-document</title>
    <g id="Page-1" stroke="none" stroke-width="1" fill="none" fill-rule="evenodd">
        <g id="drop" fill="#000000" transform="translate(64.000000, 42.666667)">
            <path d="M256,7.10542736e-15 L21.3333333,7.10542736e-15 L21.3333333,234.666667 L64,234.666667 L64,192 L64,169.6 L64,42.6666667 L238.293333,42.6666667 L320,124.373333 L320,169.6 L320,192 L320,234.666667 L362.666667,234.666667 L362.666667,106.666667 L256,7.10542736e-15 L256,7.10542736e-15 Z M79.8293333,346.606933 C77.6533333,353.284267 75.1573333,361.924267 72.32,372.462933 C69.504,361.796267 67.008,353.1776 64.9173333,346.606933 L42.7733333,277.3376 L-1.42108547e-14,277.3376 L-1.42108547e-14,405.4656 L26.6666667,405.4656 L26.6666667,301.742933 C29.6106667,312.7936 32.192,321.646933 34.3466667,328.3456 L59.3066667,405.4656 L84.0746667,405.4656 L109.76,326.1696 C112.405333,318.084267 114.773333,309.956267 116.8,301.742933 L116.8,405.4656 L144.576,405.4656 L144.576,277.3376 L102.272,277.3376 L79.8293333,346.606933 Z M211.598933,277.3376 C223.886933,277.3376 233.252267,278.148267 239.716267,279.7696 C248.6336,282.0736 255.438933,287.108267 260.132267,294.8736 C263.950933,301.0816 265.8496,308.356267 265.8496,316.676267 C265.8496,330.222933 261.326933,340.6336 252.2816,347.8656 C248.356267,351.0016 243.620267,353.262933 238.030933,354.606933 C232.462933,355.950933 225.2736,356.6336 216.462933,356.6336 L216.462933,356.6336 L204.366933,356.6336 L204.366933,405.4656 L175.502933,405.4656 L175.502933,277.3376 Z M211.940267,299.054933 L203.6416,299.054933 L203.6416,334.9376 L211.940267,334.9376 C219.9616,334.9376 225.7216,334.084267 229.220267,332.398933 C234.404267,329.8816 236.9856,324.9536 236.9856,317.678933 C236.9856,310.510933 234.4896,305.390933 229.4976,302.382933 C225.828267,300.142933 219.9616,299.054933 211.940267,299.054933 L211.940267,299.054933 Z M339.515733,355.648 L303.995733,355.648 L339.515733,304.298667 L339.515733,355.648 Z M366.737067,355.648 L366.737067,277.333333 L332.8384,277.333333 L277.329067,353.749333 L277.329067,376.362667 L338.811733,376.362667 L338.811733,405.461333 L366.737067,405.461333 L366.737067,376.362667 L384.017067,376.362667 L384.017067,355.648 L366.737067,355.648 Z" id="Combined-Shape"></path>
        </g>
    </g>
</svg>