<?xml version="1.0" encoding="UTF-8"?>
<svg width="512px" height="512px" viewBox="0 0 512 512" version="1.1" xmlns="http://www.w3.org/2000/svg" xmlns:xlink="http://www.w3.org/1999/xlink">
    <title>namur-failure-filled</title>
    <g id="Page-1" stroke="none" stroke-width="1" fill="none" fill-rule="evenodd">
        <g id="add" fill="#000000" transform="translate(64.000000, 64.000000)">
            <path d="M192,1.42108547e-14 C298.038672,1.42108547e-14 384,85.961328 384,192 C384,298.038672 298.038672,384 192,384 C85.961328,384 1.42108547e-14,298.038672 1.42108547e-14,192 C1.42108547e-14,85.961328 85.961328,1.42108547e-14 192,1.42108547e-14 Z M273.018158,80.8239578 L192.012,161.83 L111.156702,80.9748073 L80.9868126,111.144697 L161.842,192 L80.9868126,272.855303 L111.156702,303.025193 L192.012,222.17 L273.018158,303.176042 L303.188047,273.006153 L222.182,192 L303.188047,110.993847 L273.018158,80.8239578 Z" id="Combined-Shape"></path>
        </g>
    </g>
</svg>