<?xml version="1.0" encoding="UTF-8"?>
<svg width="512px" height="512px" viewBox="0 0 512 512" version="1.1" xmlns="http://www.w3.org/2000/svg" xmlns:xlink="http://www.w3.org/1999/xlink">
    <title>namur-maintenance-required-filled</title>
    <g id="Page-1" stroke="none" stroke-width="1" fill="none" fill-rule="evenodd">
        <g id="add" fill="#000000" transform="translate(32.000000, 32.000000)">
            <path d="M224,1.96820338e-12 L448,224 L224,448 L-2.20268248e-13,224 L224,1.96820338e-12 Z M202.666667,160 C171.306667,160 170.679467,180.488533 170.666923,181.308075 L170.666667,181.333333 L192,181.333333 L191.999,202.666 L96,202.666667 L96,266.666667 L128,266.666667 L128,245.333333 L117.333333,245.333333 L117.333333,224 L138.666,223.999 L138.666667,288 L266.666667,288 L266.666667,256 L352,192 L266.666667,213.333333 L266.666667,202.666667 L213.333,202.666 L213.333333,181.333333 L234.666667,181.333333 L234.666667,181.333333 L234.666411,181.308075 C234.653867,180.488533 234.026667,160 202.666667,160 Z M352,213.333333 C344.130559,224.125166 338.14384,236.170733 334.293333,248.96 C334.293333,258.739122 342.220878,266.666667 352,266.666667 C361.779122,266.666667 369.706667,258.739122 369.706667,248.96 C365.85616,236.170733 359.869441,224.125166 352,213.333333 Z" id="Combined-Shape"></path>
        </g>
    </g>
</svg>