<?xml version="1.0" encoding="UTF-8"?>
<svg width="512px" height="512px" viewBox="0 0 512 512" version="1.1" xmlns="http://www.w3.org/2000/svg" xmlns:xlink="http://www.w3.org/1999/xlink">
    <title>namur-maintenance-required</title>
    <g id="Page-1" stroke="none" stroke-width="1" fill="none" fill-rule="evenodd">
        <g id="add" fill="#000000" transform="translate(1.830111, 1.830111)">
            <path d="M254.169889,4.4408921e-16 L508.339779,254.169889 L254.169889,508.339779 L4.4408921e-16,254.169889 L254.169889,4.4408921e-16 Z M254.169889,30.1698893 L30.1698893,254.169889 L254.169889,478.169889 L478.169889,254.169889 L254.169889,30.1698893 Z M232.836556,190.169889 C264.196556,190.169889 264.823756,210.658423 264.8363,211.477964 L264.836556,211.503223 L264.836556,211.503223 L243.503223,211.503223 L243.503,232.836 L296.836556,232.836556 L296.836556,243.503223 L382.169889,222.169889 L296.836556,286.169889 L296.836556,318.169889 L168.836556,318.169889 L168.836,254.169 L147.503223,254.169889 L147.503223,275.503223 L158.169889,275.503223 L158.169889,296.836556 L126.169889,296.836556 L126.169889,232.836556 L222.169,232.836 L222.169889,211.503223 L200.836556,211.503223 L200.836812,211.477964 C200.849356,210.658423 201.476556,190.169889 232.836556,190.169889 Z M382.169889,243.503223 C390.03933,254.295055 396.026049,266.340622 399.876556,279.129889 C399.876556,288.909011 391.949011,296.836556 382.169889,296.836556 C372.390767,296.836556 364.463223,288.909011 364.463223,279.129889 C368.31373,266.340622 374.300448,254.295055 382.169889,243.503223 Z" id="Combined-Shape"></path>
        </g>
    </g>
</svg>