<?xml version="1.0" encoding="UTF-8"?>
<svg width="512px" height="512px" viewBox="0 0 512 512" version="1.1" xmlns="http://www.w3.org/2000/svg" xmlns:xlink="http://www.w3.org/1999/xlink">
    <title>navigation-filled</title>
    <g id="Page-1" stroke="none" stroke-width="1" fill="none" fill-rule="evenodd">
        <g id="icon" fill="#000000" transform="translate(42.666667, 42.666667)">
            <path d="M213.333333,3.55271368e-14 C331.15408,3.55271368e-14 426.666667,95.5125867 426.666667,213.333333 C426.666667,331.15408 331.15408,426.666667 213.333333,426.666667 C95.5125867,426.666667 3.55271368e-14,331.15408 3.55271368e-14,213.333333 C3.55271368e-14,95.5125867 95.5125867,3.55271368e-14 213.333333,3.55271368e-14 Z M234.666667,341.333333 L192,341.333333 L192,384 L234.666667,384 L234.666667,341.333333 Z M320,106.666667 L181.333333,181.333333 L106.666667,320 L245.333333,245.333333 L320,106.666667 Z M213.333333,192 C225.115408,192 234.666667,201.551259 234.666667,213.333333 C234.666667,225.115408 225.115408,234.666667 213.333333,234.666667 C201.551259,234.666667 192,225.115408 192,213.333333 C192,201.551259 201.551259,192 213.333333,192 Z M384,192 L341.333333,192 L341.333333,234.666667 L384,234.666667 L384,192 Z M85.3333333,192 L42.6666667,192 L42.6666667,234.666667 L85.3333333,234.666667 L85.3333333,192 Z M234.666667,42.6666667 L192,42.6666667 L192,85.3333333 L234.666667,85.3333333 L234.666667,42.6666667 Z" id="Combined-Shape"></path>
        </g>
    </g>
</svg>