<?xml version="1.0" encoding="UTF-8"?>
<svg width="512px" height="512px" viewBox="0 0 512 512" version="1.1" xmlns="http://www.w3.org/2000/svg" xmlns:xlink="http://www.w3.org/1999/xlink">
    <title>new-indicator</title>
    <g id="Page-1" stroke="none" stroke-width="1" fill="none" fill-rule="evenodd">
        <g id="scheduler" fill="#000000" transform="translate(85.333333, 85.333333)">
            <path d="M170.666667,1.42108547e-14 C264.923264,-3.10380131e-15 341.333333,76.4100694 341.333333,170.666667 C341.333333,264.923264 264.923264,341.333333 170.666667,341.333333 C76.4100694,341.333333 2.57539587e-14,264.923264 1.42108547e-14,170.666667 C2.6677507e-15,76.4100694 76.4100694,3.15255107e-14 170.666667,1.42108547e-14 Z M170.666667,42.6666667 C99.9742187,42.6666667 42.6666667,99.9742187 42.6666667,170.666667 C42.6666667,241.359115 99.9742187,298.666667 170.666667,298.666667 C241.359115,298.666667 298.666667,241.359115 298.666667,170.666667 C298.666667,99.9742187 241.359115,42.6666667 170.666667,42.6666667 Z M192,85.3333333 L191.999333,149.333333 L256,149.333333 L256,192 L191.999333,191.999333 L192,256 L149.333333,256 L149.333333,191.999333 L85.3333333,192 L85.3333333,149.333333 L149.333333,149.333333 L149.333333,85.3333333 L192,85.3333333 Z" id="Combined-Shape"></path>
        </g>
    </g>
</svg>