<?xml version="1.0" encoding="UTF-8"?>
<svg width="512px" height="512px" viewBox="0 0 512 512" version="1.1" xmlns="http://www.w3.org/2000/svg" xmlns:xlink="http://www.w3.org/1999/xlink">
    <title>ontology</title>
    <g id="Page-1" stroke="none" stroke-width="1" fill="none" fill-rule="evenodd">
        <g id="add" fill="#000000" transform="translate(64.000000, 64.000000)">
            <path d="M192,85.3333333 L149.333333,85.3333333 L149.333333,128 L85.3333333,128 L85.3333333,256 L149.333333,256 L149.333333,298.666667 L192,298.666667 L192,85.3333333 Z M106.666667,298.666667 L42.6666667,298.666667 L42.6666667,341.333333 L106.666667,341.333333 L106.666667,298.666667 Z M106.666667,42.6666667 L42.6666667,42.6666667 L42.6666667,85.3333333 L106.666667,85.3333333 L106.666667,42.6666667 Z M277.333333,213.333333 L234.666667,213.333333 L234.666667,341.333333 L149.333333,341.333333 L149.333333,384 L1.42108547e-14,384 L1.42108547e-14,256 L42.6666667,256 L42.6666667,128 L1.42108547e-14,128 L1.42108547e-14,1.42108547e-14 L149.333333,1.42108547e-14 L149.333333,42.6666667 L234.666667,42.6666667 L234.666667,170.666667 L277.333333,170.666667 L277.333333,213.333333 Z M405.333333,128 L405.333333,256 L277.333333,256 L277.333333,128 L405.333333,128 Z M362.666667,170.666667 L320,170.666667 L320,213.333333 L362.666667,213.333333 L362.666667,170.666667 Z" id="Combined-Shape"></path>
        </g>
    </g>
</svg>