<?xml version="1.0" encoding="UTF-8"?>
<svg width="512px" height="512px" viewBox="0 0 512 512" version="1.1" xmlns="http://www.w3.org/2000/svg" xmlns:xlink="http://www.w3.org/1999/xlink">
    <title>operate-plant</title>
    <g id="Page-1" stroke="none" stroke-width="1" fill="none" fill-rule="evenodd">
        <g id="operate-plant" fill="#000000" fill-rule="nonzero">
            <g id="drop" transform="translate(64.000000, 64.000000)">
                <path d="M328.180488,192 L328.181163,214.835964 C338.584391,218.513072 348.098741,224.071849 356.315274,231.103357 L376.112086,219.673321 L405.741716,270.993345 L385.957797,282.416658 C386.931071,287.685135 387.439747,293.116497 387.439747,298.666667 C387.439747,304.216944 386.931052,309.648409 385.957741,314.916982 L405.741716,326.339988 L376.112086,377.660012 L356.315274,366.229977 C348.098741,373.261484 338.584391,378.820261 328.181163,382.49737 L328.180488,405.333333 L268.921228,405.333333 L268.920553,382.49737 C258.51771,378.820398 249.00368,373.261896 240.787356,366.230759 L220.98963,377.660012 L191.36,326.339988 L211.143975,314.916982 C210.170664,309.648409 209.661969,304.216944 209.661969,298.666667 C209.661969,293.116146 210.170709,287.684447 211.144103,282.415657 L191.36,270.993345 L220.98963,219.673321 L240.786362,231.103425 C249.002913,224.071886 258.517291,218.513084 268.920553,214.835964 L268.921228,192 L328.180488,192 Z M320,1.42108547e-14 L320.001999,172.436782 C313.063589,171.272624 305.935892,170.666667 298.666667,170.666667 C260.758506,170.666667 226.699225,187.145681 203.261616,213.33092 L42.6666667,213.333333 L42.6666667,298.666667 L170.666667,298.666667 L170.666667,298.666667 C170.666667,313.627466 173.233369,327.988781 177.950446,341.334283 L7.10542736e-14,341.333333 L7.10542736e-14,96 L128,170.666667 L128,96 L256,170.666667 L256,1.42108547e-14 L320,1.42108547e-14 Z M298.550858,263.111111 C278.914067,263.111111 262.995302,279.029876 262.995302,298.666667 C262.995302,318.303458 278.914067,334.222222 298.550858,334.222222 C318.187649,334.222222 334.106413,318.303458 334.106413,298.666667 C334.106413,279.029876 318.187649,263.111111 298.550858,263.111111 Z" id="plant"></path>
            </g>
        </g>
    </g>
</svg>