<?xml version="1.0" encoding="UTF-8"?>
<svg width="512px" height="512px" viewBox="0 0 512 512" version="1.1" xmlns="http://www.w3.org/2000/svg" xmlns:xlink="http://www.w3.org/1999/xlink">
    <title>p-i-diagram</title>
    <g id="Page-1" stroke="none" stroke-width="1" fill="none" fill-rule="evenodd">
        <g id="drop" fill="#000000" transform="translate(42.666667, 85.333333)">
            <path d="M426.666667,1.42108547e-14 L426.666667,341.333333 L3.55271368e-14,341.333333 L3.55271368e-14,1.42108547e-14 L426.666667,1.42108547e-14 Z M42.6666667,298.666667 L384,298.666667 L384,42.6666667 L42.6666667,42.6666667 L42.6666667,213.333333 L128,213.333333 L128,170.666667 L191.999667,207.237333 L192,170.666667 L170.666667,170.666667 L170.666667,149.333333 L234.666667,149.333333 L234.666667,170.666667 L213.333333,170.666667 L213.332667,207.237333 L277.333333,170.666667 L277.333333,213.333333 L320,213.333333 L319.99998,137.322475 C305.007185,133.463589 293.203688,121.660339 289.344449,106.667685 L170.666667,106.666667 L170.666667,128 L64,128 L64,64 L170.666667,64 L170.666667,85.3333333 L289.344192,85.3333138 C294.080655,66.9309001 310.78572,53.3333333 330.666667,53.3333333 C354.230816,53.3333333 373.333333,72.4358507 373.333333,96 C373.333333,115.880947 359.735767,132.586012 341.333353,137.322475 L341.333333,234.666667 L277.333333,234.666667 L277.333333,277.333333 L202.666667,234.666667 L128,277.333333 L128,234.666667 L42.6666667,234.666667 L42.6666667,298.666667 Z M149.333333,207.424 L149.333333,240.554667 L178.304,224 L149.333333,207.424 Z M256,207.424 L227.008,224 L256,240.554667 L256,207.424 Z M330.666667,74.6666667 C318.884592,74.6666667 309.333333,84.2179253 309.333333,96 C309.333333,107.782075 318.884592,117.333333 330.666667,117.333333 C342.448741,117.333333 352,107.782075 352,96 C352,84.2179253 342.448741,74.6666667 330.666667,74.6666667 Z M149.333333,85.3333333 L85.3333333,85.3333333 L85.3333333,106.666667 L149.333333,106.666667 L149.333333,85.3333333 Z" id="Combined-Shape"></path>
        </g>
    </g>
</svg>