<?xml version="1.0" encoding="UTF-8"?>
<svg width="512px" height="512px" viewBox="0 0 512 512" version="1.1" xmlns="http://www.w3.org/2000/svg" xmlns:xlink="http://www.w3.org/1999/xlink">
    <title>phone-filled</title>
    <g id="Page-1" stroke="none" stroke-width="1" fill="none" fill-rule="evenodd">
        <g id="icon" fill="#000000" transform="translate(68.987729, 65.618246)">
            <path d="M73.7589592,1.42108547e-14 L96.4346286,22.5154092 L145.720154,72.441004 L159.715738,86.5974599 L153.848581,104.675256 L135.565829,159.764067 C150.995628,177.267065 166.366664,192.806294 181.678938,206.381754 C196.991212,219.957214 212.244723,231.568904 227.439471,241.216826 L282.519599,222.69625 L301.451439,216.439119 L314.887962,229.875407 L364.28681,279.915791 L386.746287,301.268111 L364.195653,323.660154 C339.019797,348.975522 309.597333,364.993076 279.167151,371.518735 C248.294407,378.139301 216.420875,374.970245 187.08553,361.971237 C153.611366,347.061799 112.502437,315.44861 86.5351365,289.433707 C60.1986349,263.599337 28.1615132,233.149921 12.8976472,199.774248 C0.215406097,170.668279 -2.94155534,139.166068 2.6672259,109.31063 C8.27600715,79.455192 22.650516,51.2465268 45.0080686,28.7508929 L73.7589592,1.42108547e-14 Z" id="phone"></path>
        </g>
    </g>
</svg>