<?xml version="1.0" encoding="UTF-8"?>
<svg width="512px" height="512px" viewBox="0 0 512 512" version="1.1" xmlns="http://www.w3.org/2000/svg" xmlns:xlink="http://www.w3.org/1999/xlink">
    <title>phone</title>
    <g id="Page-1" stroke="none" stroke-width="1" fill="none" fill-rule="evenodd">
        <g id="icon" fill="#000000" transform="translate(68.987419, 50.560000)">
            <path d="M361.092581,276.693333 L311.812581,226.773333 L293.679247,208.64 L268.505914,216.96 L219.652581,233.386667 L158.425914,171.946667 L174.639247,123.093333 L182.532581,98.7733333 L163.972581,80 L114.692581,30.08 L84.3992472,1.42108547e-14 L54.3192472,30.08 L48.1325806,36.2666667 C0.288387345,84.4061945 -13.3254336,156.87231 13.7859139,219.093333 C29.670806,253.831239 51.7974766,285.358129 79.0659139,312.106667 C105.878457,338.969231 137.408723,360.664368 172.079247,376.106667 C234.250086,403.655705 306.971997,389.993829 354.905914,341.76 L361.092581,335.573333 L391.385914,305.493333 L361.092581,276.693333 Z M324.825914,312.106667 C301.92979,335.055476 270.843198,347.950655 238.425914,347.946854 C221.583325,347.976622 204.928164,344.412854 189.572581,337.493333 C159.468995,323.929808 132.185659,304.824236 109.145914,281.173333 C85.6191273,258.109876 66.5290202,230.920935 52.8259139,200.96 C32.5273827,154.854985 42.702524,101.011529 78.4259139,65.4933333 L84.3992472,59.52 L133.892581,109.653333 L115.972581,162.773333 C111.821249,175.26837 115.036455,189.036047 124.292581,198.4 L192.559247,266.453333 C199.071163,272.961675 207.886017,276.640918 217.092581,276.693333 C220.853501,276.664737 224.590313,276.089843 228.185914,274.986667 L281.732581,257.066667 L331.012581,306.346667 L324.825914,312.106667 Z" id="phone"></path>
        </g>
    </g>
</svg>