<?xml version="1.0" encoding="UTF-8"?>
<svg width="512px" height="512px" viewBox="0 0 512 512" version="1.1" xmlns="http://www.w3.org/2000/svg" xmlns:xlink="http://www.w3.org/1999/xlink">
    <title>photo-camera-filled</title>
    <g id="Page-1" stroke="none" stroke-width="1" fill="none" fill-rule="evenodd">
        <g id="icon" fill="#000000" transform="translate(42.666667, 64.000000)">
            <path d="M277.333333,1.42108547e-14 C277.333333,1.42108547e-14 277.681778,0.557511111 278.378667,1.67253333 L278.698667,2.18453333 C279.438222,3.36782222 280.478222,5.03182222 281.818667,7.17653333 L282.458667,8.20053333 C283.891556,10.4931556 285.624889,13.2664889 287.658667,16.5205333 L288.618667,18.0565333 C290.744889,21.4584889 293.171556,25.3411556 295.898667,29.7045333 L297.178667,31.7525333 C299.998222,36.2638222 303.118222,41.2558222 306.538667,46.7285333 L308.138667,49.2885333 C311.003462,53.8722052 314.068069,58.775577 317.332489,63.9986486 L426.666667,64 L426.666667,362.666667 L7.10542736e-15,362.666667 L7.10542736e-15,64 L109.333,64 L149.333333,1.42108547e-14 L277.333333,1.42108547e-14 L277.333333,1.42108547e-14 Z M213.333333,85.3333333 C148.531923,85.3333333 96,137.865256 96,202.666667 C96,267.468077 148.531923,320 213.333333,320 C278.134744,320 330.666667,267.468077 330.666667,202.666667 C330.666667,137.865256 278.134744,85.3333333 213.333333,85.3333333 Z M213.333333,128 C254.570595,128 288,161.429405 288,202.666667 C288,243.903928 254.570595,277.333333 213.333333,277.333333 C172.096072,277.333333 138.666667,243.903928 138.666667,202.666667 C138.666667,161.429405 172.096072,128 213.333333,128 Z M384,106.666667 C372.217925,106.666667 362.666667,116.217925 362.666667,128 C362.666667,139.782075 372.217925,149.333333 384,149.333333 C395.782075,149.333333 405.333333,139.782075 405.333333,128 C405.333333,116.217925 395.782075,106.666667 384,106.666667 Z" id="Combined-Shape"></path>
        </g>
    </g>
</svg>