<?xml version="1.0" encoding="UTF-8"?>
<svg width="512px" height="512px" viewBox="0 0 512 512" version="1.1" xmlns="http://www.w3.org/2000/svg" xmlns:xlink="http://www.w3.org/1999/xlink">
    <title>plants</title>
    <g id="Page-1" stroke="none" stroke-width="1" fill="none" fill-rule="evenodd">
        <g id="icon" fill="#000000" transform="translate(42.666667, 42.666667)">
            <path d="M42.6666667,128 L42.6666667,256 L149.333333,202.666667 L149.333333,256 L256,202.666667 L256,384 L3.55271368e-14,384 L3.55271368e-14,128 L42.6666667,128 Z M213.333333,277.333333 L42.6666667,277.333333 L42.6666667,341.333333 L213.333333,341.333333 L213.333333,277.333333 Z M213.333333,7.10542736e-15 L213.333333,128 L320,74.6666667 L320,128 L426.666667,74.6666667 L426.666667,256 L277.332667,256 L277.332667,213.333 L384,213.333333 L384,149.333333 L213.333333,149.333333 L213.332667,200.136 L170.666667,221.461333 L170.666667,7.10542736e-15 L213.333333,7.10542736e-15 Z" id="Combined-Shape"></path>
        </g>
    </g>
</svg>