<?xml version="1.0" encoding="UTF-8"?>
<svg width="512px" height="512px" viewBox="0 0 512 512" version="1.1" xmlns="http://www.w3.org/2000/svg" xmlns:xlink="http://www.w3.org/1999/xlink">
    <title>plant-user</title>
    <g id="Page-1" stroke="none" stroke-width="1" fill="none" fill-rule="evenodd">
        <g id="icon" fill="#000000" transform="translate(42.666667, 85.333333)">
            <path d="M338.666667,192 C385.794965,192 424.270402,229.720894 426.55897,277.128056 L426.666667,281.6 L426.666667,341.333333 L192,341.333333 L192,281.6 C192,233.614823 229.047306,194.439833 275.607912,192.109655 L280,192 L338.666667,192 Z M338.666667,234.666667 L280,234.666667 C256.21789,234.666667 236.45499,253.736088 234.781433,278.227882 L234.666667,281.6 L234.666667,298.666667 L384,298.666667 L384,281.6 C384,256.643459 365.271104,236.488971 341.883448,234.783584 L338.666667,234.666667 Z M42.6666667,1.42108547e-14 L42.6666667,106.666667 L128,64 L128,106.666667 L213.333333,64 L213.333333,213.333333 L3.55271368e-14,213.333333 L3.55271368e-14,1.42108547e-14 L42.6666667,1.42108547e-14 Z M170.666667,128 L42.6666667,128 L42.6666667,170.666667 L170.666667,170.666667 L170.666667,128 Z M309.333333,64 C338.78852,64 362.666667,87.8781467 362.666667,117.333333 C362.666667,146.78852 338.78852,170.666667 309.333333,170.666667 C279.878147,170.666667 256,146.78852 256,117.333333 C256,87.8781467 279.878147,64 309.333333,64 Z" id="Combined-Shape"></path>
        </g>
    </g>
</svg>