<?xml version="1.0" encoding="UTF-8"?>
<svg width="512px" height="512px" viewBox="0 0 512 512" version="1.1" xmlns="http://www.w3.org/2000/svg" xmlns:xlink="http://www.w3.org/1999/xlink">
    <title>point-up</title>
    <g id="Page-1" stroke="none" stroke-width="1" fill="none" fill-rule="evenodd">
        <g id="icon" fill="#000000" transform="translate(61.188180, 64.000000)">
            <path d="M173.478487,0 L169.718001,0.108644126 C136.122113,2.05523457 109.478487,29.9161412 109.478487,64 L109.478487,207.765333 L106.669191,205.625362 C80.606333,187.021638 44.5570423,188.793421 20.3963617,210.940712 C-4.18599092,233.474535 -6.76351976,271.043287 13.8367812,296.667829 L17.7130241,301.058653 L121.975264,405.333333 L365.478487,405.333333 L365.478487,208.623803 L237.478487,165.952 L237.478487,64 C237.478487,28.653776 208.824711,0 173.478487,0 Z M173.478487,42.6666667 C185.260562,42.6666667 194.81182,52.2179253 194.81182,64 L194.81182,196.70953 L322.81182,239.36 L322.81182,362.666667 L139.665154,362.666667 L47.9845315,270.975818 C40.434675,262.739611 40.9910721,249.942478 49.2272792,242.392622 C59.1765152,233.272489 74.4471257,233.272489 84.3963617,242.392622 L152.145154,304.495681 L152.145154,64 C152.145154,52.2179253 161.696412,42.6666667 173.478487,42.6666667 Z" id="Path-68"></path>
        </g>
    </g>
</svg>