<?xml version="1.0" encoding="UTF-8"?>
<svg width="512px" height="512px" viewBox="0 0 512 512" version="1.1" xmlns="http://www.w3.org/2000/svg" xmlns:xlink="http://www.w3.org/1999/xlink">
    <title>polar-plot</title>
    <g id="Page-1" stroke="none" stroke-width="1" fill="none" fill-rule="evenodd">
        <g id="add" fill="#000000" transform="translate(21.333333, 21.333333)">
            <path d="M240,1.77635684e-14 L240.002295,21.3987545 C294.400044,22.7340945 343.747025,44.4318136 380.710057,79.1587315 L396.829822,63.0389608 L404.372294,70.5814332 L388.300091,86.6532201 C422.965999,122.627017 445.115338,170.745603 447.737913,223.998783 L469.333333,224 L469.333333,245.333333 L447.737961,245.333585 C445.163185,297.620932 423.763524,344.958298 390.174602,380.710057 L404.372294,394.907743 L396.829822,402.450216 L382.679118,388.301051 C345.508514,424.119791 295.371823,446.575384 240.002295,447.934579 L240,469.333333 L229.333333,469.333333 L229.332039,447.934603 C173.96162,446.575642 123.824148,424.119606 86.6532201,388.300091 L72.5035115,402.450216 L64.9610392,394.907743 L79.1587315,380.710057 C44.4318136,343.747025 22.7340945,294.400044 21.3987545,240.002295 L1.77635684e-14,240 L1.77635684e-14,229.333333 L21.39873,229.332039 C22.7576912,173.96162 45.2137274,123.824148 81.0332419,86.6532201 L64.9610392,70.5814332 L72.5035115,63.0389608 L88.623319,79.1586912 C125.586573,44.431584 174.933915,22.733828 229.332039,21.39873 L229.333333,1.77635684e-14 L240,1.77635684e-14 Z M162.104101,312.849465 L116.829842,358.123916 C146.267905,386.229951 185.743019,403.913349 229.332642,405.251563 L229.333691,341.202338 C203.413036,339.926048 179.925301,329.397219 162.104101,312.849465 Z M240.000608,341.20229 L240.000798,405.25156 C283.59014,403.913327 323.065021,386.230122 352.503008,358.124377 L307.228806,312.849861 C289.407879,329.397181 265.920674,339.925797 240.000608,341.20229 Z M128.131043,240.000608 L64.0817733,240.000798 C65.390213,282.619707 82.3239474,321.305316 109.347358,350.522008 L154.657229,305.21129 C139.163637,287.652459 129.359926,264.953916 128.131043,240.000608 Z M405.005366,245.33419 L340.806639,245.333581 C338.537929,268.183283 329.058521,288.911749 314.676104,305.21129 L359.986901,350.521007 C385.878073,322.528003 402.507124,285.842835 405.005366,245.33419 Z M229.333,245.62 L177.20211,297.751534 C191.139125,310.45419 209.301217,318.600719 229.333305,319.836041 L229.333,245.62 Z M240,245.621 L240.000828,319.835992 C260.032584,318.600503 278.194365,310.454034 292.131189,297.751564 L240,245.621 Z M219.868,240 L149.497342,240.000828 C150.673352,259.068231 158.110954,276.44137 169.779171,290.08927 L219.868,240 Z M319.339721,245.333968 L254.798,245.333 L299.554162,290.08927 C310.124999,277.724936 317.223568,262.303119 319.339721,245.333968 Z M64.08177,229.332642 L128.130996,229.333691 C129.407285,203.413036 139.936115,179.925301 156.483868,162.104101 L111.209418,116.829842 C83.103382,146.267905 65.4199847,185.743019 64.08177,229.332642 Z M149.497292,229.333305 L223.713,229.333 L171.5818,177.20211 C158.879144,191.139125 150.732614,209.301217 149.497292,229.333305 Z M358.123916,116.829842 L312.849465,162.104101 C328.254307,178.694436 338.442936,200.19559 340.80654,223.99875 L405.005317,223.998344 C402.447484,182.526587 385.078919,145.062321 358.123916,116.829842 Z M297.751534,177.20211 L250.954,223.999 L319.339638,223.9987 C317.105237,206.082471 309.316739,189.891145 297.751534,177.20211 Z M179.243952,169.779267 L229.333,219.868 L229.333305,149.497292 C210.265537,150.673148 192.892059,158.110832 179.243952,169.779267 Z M240.000828,149.497342 L240,219.867 L290.08927,169.779171 C276.44137,158.110954 259.068231,150.673352 240.000828,149.497342 Z M118.811771,109.346945 L164.121956,154.657307 C181.681025,139.16347 204.379962,129.359675 229.333691,128.130996 L229.332642,64.08177 C186.713908,65.3901782 148.028435,82.3237525 118.811771,109.346945 Z M240.000798,64.0817733 L240.000608,128.131043 C264.953916,129.359926 287.652459,139.163637 305.21129,154.657229 L350.521007,109.346432 C321.304433,82.3235606 282.61922,65.3901981 240.000798,64.0817733 Z" id="Combined-Shape"></path>
        </g>
    </g>
</svg>