<?xml version="1.0" encoding="UTF-8"?>
<svg width="512px" height="512px" viewBox="0 0 512 512" version="1.1" xmlns="http://www.w3.org/2000/svg" xmlns:xlink="http://www.w3.org/1999/xlink">
    <title>print</title>
    <g id="Page-1" stroke="none" stroke-width="1" fill="none" fill-rule="evenodd">
        <g id="Shape" fill="#000000" transform="translate(64.000000, 85.333333)">
            <path d="M384,106.666667 L298.666667,106.666667 L298.666667,1.42108547e-14 L85.3333333,1.42108547e-14 L85.3333333,106.666667 L1.42108547e-14,106.666667 L1.42108547e-14,298.666667 L85.3333333,298.666667 L85.3333333,341.333333 L298.666667,341.333333 L298.666667,298.666667 L384,298.666667 L384,106.666667 Z M128,42.6666667 L256,42.6666667 L256,106.666667 L128,106.666667 L128,42.6666667 Z M128,298.666667 L128,256 L256,256 L256,298.666667 L128,298.666667 Z M341.333333,256 L298.666667,256 L298.666667,213.333333 L85.3333333,213.333333 L85.3333333,256 L42.6666667,256 L42.6666667,149.333333 L341.333333,149.333333 L341.333333,256 Z"></path>
        </g>
    </g>
</svg>