<?xml version="1.0" encoding="UTF-8"?>
<svg width="512px" height="512px" viewBox="0 0 512 512" version="1.1" xmlns="http://www.w3.org/2000/svg" xmlns:xlink="http://www.w3.org/1999/xlink">
    <title>project-configuration</title>
    <g id="Page-1" stroke="none" stroke-width="1" fill="none" fill-rule="evenodd">
        <g id="icon" fill="#000000" transform="translate(42.666667, 42.666667)">
            <path d="M277.333333,234.666667 L277.333,255.999667 L298.666667,256 L298.666667,298.666667 L277.333,298.666667 L277.333333,426.666667 L256,426.666667 L256,298.666667 L234.666667,298.666667 L234.666667,256 L256,255.999667 L256,234.666667 L277.333333,234.666667 Z M341.333333,234.666667 L341.333,341.332667 L362.666667,341.333333 L362.666667,384 L341.333,383.999667 L341.333333,426.666667 L320,426.666667 L320,383.999667 L298.666667,384 L298.666667,341.333333 L320,341.332667 L320,234.666667 L341.333333,234.666667 Z M405.333333,234.666667 L405.333,277.332667 L426.666667,277.333333 L426.666667,320 L405.333,319.999667 L405.333333,426.666667 L384,426.666667 L384,319.999667 L362.666667,320 L362.666667,277.333333 L384,277.332667 L384,234.666667 L405.333333,234.666667 Z M170.666667,7.10542736e-15 L341.333333,96 L341.333,213.333 L298.666,213.333 L298.666,138.747 L192,200.331 L192,323.018 L213.333,311.018 L213.333333,320 L234.666667,320 L234.666,348 L170.666667,384 L3.55271368e-14,288 L3.55271368e-14,96 L170.666667,7.10542736e-15 Z M42.666,139.913 L42.6666667,263.04 L149.333,323.022 L149.333,201.497 L42.666,139.913 Z M170.666667,48.96 L69.246,105.991 L169.656,163.963 L271.048,105.424 L170.666667,48.96 Z" id="Combined-Shape"></path>
        </g>
    </g>
</svg>