<?xml version="1.0" encoding="UTF-8"?>
<svg width="512px" height="512px" viewBox="0 0 512 512" version="1.1" xmlns="http://www.w3.org/2000/svg" xmlns:xlink="http://www.w3.org/1999/xlink">
    <title>qr-code</title>
    <g id="Page-1" stroke="none" stroke-width="1" fill="none" fill-rule="evenodd">
        <g id="qr-code" fill="#000000" transform="translate(64.000000, 63.978667)">
            <path d="M384,149.354667 L384,384.021333 L149.333333,384.021333 L149.348268,298.688 L191.997479,298.688 L191.982544,341.354667 L341.350789,341.354667 L341.350789,192.021333 L320,192.021 L320,192 L298.678,192 L298.678304,149.354667 L384,149.354667 Z M42.6666667,298.688 L42.6666667,341.370882 L106.666667,341.370882 L106.666667,384.021333 L-4.26325641e-14,384.021333 L-4.26325641e-14,298.688 L42.6666667,298.688 Z M298.666667,234.688 L298.666667,298.688 L234.666667,298.688 L234.666667,234.688 L298.666667,234.688 Z M256,0.0213333333 L256,192 L213.333,192 L213.333333,42.688 L42.6666667,42.688 L42.6666667,213.354667 L192,213.354333 L192,256.021333 L-4.26325641e-14,256.021333 L-4.26325641e-14,0.0213333333 L256,0.0213333333 Z M170.666667,85.3546667 L170.666667,170.688 L85.3333333,170.688 L85.3333333,85.3546667 L170.666667,85.3546667 Z M298.666667,1.42108547e-14 L384,0.0213333333 L384,85.3333333 L341.346136,85.312 L341.346136,42.6666667 L298.666667,42.6666667 L298.666667,1.42108547e-14 Z"></path>
        </g>
    </g>
</svg>