<?xml version="1.0" encoding="UTF-8"?>
<svg width="512px" height="512px" viewBox="0 0 512 512" version="1.1" xmlns="http://www.w3.org/2000/svg" xmlns:xlink="http://www.w3.org/1999/xlink">
    <title>radarchart</title>
    <g id="Page-1" stroke="none" stroke-width="1" fill="none" fill-rule="evenodd">
        <g id="add" fill="#000000" transform="translate(42.666667, 42.928706)">
            <path d="M202.666415,-1.8749553e-11 L202.66581,42.7325949 C113.378431,48.2391111 42.6666667,122.397394 42.6666667,213.071294 C42.6666667,307.327892 119.076736,383.737961 213.333333,383.737961 C253.397662,383.737961 290.237612,369.932757 319.355742,346.819793 L347.942964,378.583354 C311.226965,408.480469 264.373355,426.404628 213.333333,426.404628 C95.5125867,426.404628 3.55271368e-14,330.892041 3.55271368e-14,213.071294 C3.55271368e-14,98.82743 89.8013437,5.55779332 202.666415,-1.8749553e-11 Z M390.772033,94.596846 C413.445026,128.486724 426.666667,169.23497 426.666667,213.071294 C426.666667,272.178035 402.629067,325.670494 363.796232,364.306307 L335.208894,332.542951 C365.38989,301.758506 384,259.588212 384,213.071294 C384,179.543299 374.331875,148.273416 357.63144,121.897459 L390.772033,94.596846 Z M202.66607,64.1170967 L202.666419,106.931321 C148.764429,112.283164 106.666667,157.760999 106.666667,213.071294 C106.666667,271.981668 154.42296,319.737961 213.333333,319.737961 C236.932399,319.737961 258.741519,312.074293 276.407724,299.099927 L305.057931,330.934298 C246.468768,376.648408 161.631758,372.558944 107.738721,318.665907 C49.4204265,260.347613 49.4204265,165.794976 107.738721,107.476682 C134.183059,81.0323428 168.07774,66.5791479 202.66607,64.1170967 Z M341.026132,135.577055 C375.494263,192.270569 368.787855,266.95881 320.906909,316.649915 L292.261657,284.822651 C309.495184,265.876467 320,240.700646 320,213.071294 C320,195.019962 315.516,178.015925 307.601077,163.112257 L341.026132,135.577055 Z M202.666032,128.39824 L202.665648,171.749076 C184.263741,176.485887 170.666667,193.190707 170.666667,213.071294 C170.666667,236.635444 189.769184,255.737961 213.333333,255.737961 C220.444945,255.737961 227.150183,253.998065 233.046592,250.920728 L262.046982,283.143003 C248.234151,292.763653 231.442502,298.404628 213.333333,298.404628 C166.205035,298.404628 128,260.199593 128,213.071294 C128,169.555591 160.572349,133.647568 202.666032,128.39824 Z M290.704881,177.031065 C295.813544,187.979705 298.666667,200.192308 298.666667,213.071294 C298.666667,234.402573 290.839747,253.905778 277.901113,268.865701 L248.902144,236.644555 C253.387174,229.890809 256,221.786181 256,213.071294 C256,210.68691 255.804413,208.348207 255.428408,206.070355 C257.273205,204.573114 258.784996,203.326063 259.858225,202.441954 L290.704881,177.031065 Z M224.0013,128.398323 C232.986291,129.518876 241.537465,132.036296 249.430643,135.726406 L224.014629,166.596427 L224,166.613 L224.0013,128.398323 Z M224.000941,64.1171212 C247.291333,65.7750214 270.267205,72.869869 290.865667,85.4016639 L263.342299,118.830083 C251.398353,112.478845 238.103822,108.331777 224.00125,106.931421 L224.000941,64.1171212 Z M224.001217,4.75599099e-05 C263.784234,1.95925376 300.701685,14.816154 331.830853,35.648032 L304.540144,68.7940713 C280.975505,53.8661302 253.502508,44.5521535 224.001656,42.7326442 L224.001217,4.75599099e-05 Z M361.880065,59.9535458 L361.879868,59.9533554 L361.961942,60.0330361 C362.722129,60.7714538 363.476833,61.5154862 364.225986,62.2650663 C364.35202,62.3911713 364.478674,62.518214 364.605168,62.6454149 C364.839857,62.8814153 365.07379,63.1177518 365.307173,63.3546314 C365.353983,63.4021424 365.40109,63.4500007 365.448176,63.497881 L365.754439,63.8099504 C366.017557,64.0786036 366.279971,64.3479495 366.541677,64.6179852 L366.604,64.683 L366.618988,64.6977974 L366.618988,64.6977974 L366.674,64.755 L366.722516,64.8048063 C366.932056,65.0215399 367.141141,65.2387162 367.349769,65.4563339 L367.509078,65.6226863 L367.509078,65.6226863 L367.731,65.856 L367.564687,65.6808388 C367.850727,65.9800694 368.135903,66.280131 368.420214,66.5810197 L368.519,66.686 L368.449429,66.611944 C368.509737,66.6757938 368.570006,66.7396807 368.630236,66.8036049 L368.79,66.974 L368.929182,67.1215338 C369.115063,67.3196214 369.30057,67.518064 369.485702,67.7168606 L369.745183,67.9959907 L369.745183,67.9959907 L369.914,68.179 L369.504302,67.7368363 C369.908397,68.1708676 370.310703,68.6065855 370.711211,69.0439783 L370.728,69.064 L371.040158,69.4040414 L371.167877,69.5442851 C371.321219,69.7128145 371.474295,69.8815904 371.627104,70.0506122 L371.040158,69.4040414 C371.963284,70.4167999 372.876656,71.4383314 373.780213,72.4685833 C373.884761,72.58779 373.989321,72.7072788 374.09375,72.8268853 L373.780213,72.4685833 C373.966359,72.6808312 374.15209,72.8934492 374.337403,73.1064368 L374.567843,73.3717292 C374.770734,73.6056927 374.973124,73.8401022 375.175012,74.0749561 L375.254849,74.1678839 L375.395,74.331 L375.351,74.281 L376.129766,75.1933428 C376.160478,75.2295699 376.191179,75.2658075 376.221868,75.3020554 L376.307472,75.4032294 L376.307472,75.4032294 L376.359,75.465 L376.253116,75.338972 C376.329959,75.4297757 376.406727,75.5206445 376.483421,75.6115784 L376.359,75.465 L376.484061,75.612338 L376.484061,75.612338 L376.947723,76.1639736 C377.029505,76.2616046 377.1112,76.35931 377.19281,76.4570895 L377.278,76.56 L377.199476,76.4650765 C377.208364,76.4757261 377.21725,76.4863765 377.226136,76.4970279 L377.278,76.56 L377.541058,76.8754149 L378.023862,77.4589656 L345.091159,104.587985 L345.08,104.573 L328.616574,118.132613 C328.621269,118.1383 328.625964,118.143987 328.630658,118.149675 L295.692448,145.281935 L295.675,145.26 L279.207028,158.82331 C279.21366,158.831354 279.22029,158.839399 279.226919,158.847445 L246.293963,185.976174 L246.250627,185.923602 C246.032045,185.658869 245.810331,185.396816 245.585543,185.137502 C244.945093,184.398709 244.280114,183.682576 243.591513,182.989953 L244.046555,183.45464 C243.755428,183.152799 243.45977,182.855119 243.159784,182.561808 C242.496521,181.913311 241.812416,181.286454 241.108382,180.682155 C240.992248,180.582471 240.875323,180.483192 240.757861,180.384537 L241.108382,180.682155 C240.89337,180.497601 240.676498,180.315152 240.4578,180.134839 L348.955353,48.3887557 C349.388467,48.7458505 349.820148,49.1046208 350.250386,49.4650567 L348.966601,48.39803 C349.546446,48.8761682 350.123722,49.3573097 350.698405,49.8414306 C350.971616,50.0715887 351.243843,50.3020809 351.515483,50.5332421 C351.692296,50.6837055 351.869244,50.8347818 352.045941,50.986142 C352.348524,51.2453364 352.650149,51.5051702 352.951037,51.7658318 C353.059586,51.8598681 353.168101,51.9540663 353.27652,52.0483723 C353.701537,52.4180644 354.125046,52.789385 354.547067,53.1623504 L354.587663,53.1982369 L354.587663,53.1982369 L354.72924,53.3235312 L354.984,53.551 L354.728924,53.3232515 L355.645297,54.1396417 C356.053632,54.5055251 356.46055,54.8729591 356.86604,55.2419345 L356.899,55.273 L357.085,55.442 L357.241394,55.5843008 C357.519901,55.8389356 357.79773,56.0942994 358.074878,56.3503891 L358.200247,56.4663245 L358.200247,56.4663245 L358.311,56.569 L358.149969,56.4198077 C358.482576,56.7274363 358.814201,57.0361108 359.14484,57.3458263 L359.380305,57.5667237 L359.380305,57.5667237 L359.281125,57.4735985 C359.313847,57.5043031 359.346559,57.5350179 359.379261,57.5657428 L359.582691,57.7571217 L359.582691,57.7571217 L359.662,57.833 L359.969848,58.1227255 C360.088217,58.2347837 360.206458,58.346976 360.324571,58.4593022 L360.591666,58.7137493 L360.591666,58.7137493 L360.697,58.815 L360.735461,58.8510986 L360.735461,58.8510986 L360.835254,58.9465685 C360.901442,59.0099295 360.967589,59.0733326 361.033695,59.1367779 L361.458,59.547 L361.63947,59.7204533 L361.63947,59.7204533 L361.794035,59.8701153 L361.794035,59.8701153 L361.880065,59.9535458 L361.880065,59.9535458 Z" id="Combined-Shape"></path>
        </g>
    </g>
</svg>