<?xml version="1.0" encoding="UTF-8"?>
<svg width="512px" height="512px" viewBox="0 0 512 512" version="1.1" xmlns="http://www.w3.org/2000/svg" xmlns:xlink="http://www.w3.org/1999/xlink">
    <title>radio-waves</title>
    <g id="Page-1" stroke="none" stroke-width="1" fill="none" fill-rule="evenodd">
        <g id="drop" fill="#000000" transform="translate(42.666667, 78.641067)">
            <path d="M256,177.358933 C256,200.9216 236.898133,220.0256 213.333333,220.0256 C189.768533,220.0256 170.666667,200.9216 170.666667,177.358933 C170.666667,153.796267 189.768533,134.692267 213.333333,134.692267 C236.898133,134.692267 256,153.796267 256,177.358933 Z M128,177.358933 C128,147.776 143.071573,121.73696 165.936213,106.427093 L142.22272,70.94272 C107.92576,93.9063467 85.3333333,132.983467 85.3333333,177.358933 C85.3333333,221.7344 107.92576,260.8128 142.22272,283.776 L165.936213,248.288 C143.071573,232.9792 128,206.941867 128,177.358933 Z M298.666667,177.358933 C298.666667,206.941867 283.594667,232.9792 260.7296,248.288 L284.443733,283.776 C318.741333,260.8128 341.333333,221.7344 341.333333,177.358933 C341.333333,132.983467 318.741333,93.9061333 284.443733,70.94272 L260.7296,106.427093 C283.594667,121.73696 298.666667,147.776 298.666667,177.358933 Z M331.850667,1.42108547e-14 L308.1472,35.47136 C353.8752,66.0885333 384,118.195413 384,177.358933 C384,236.522667 353.8752,288.629333 308.1472,319.246933 L331.850667,354.717867 C389.009067,316.448 426.666667,251.3152 426.666667,177.358933 C426.666667,103.403733 389.0112,38.2709333 331.850667,1.42108547e-14 Z M94.8164267,354.717867 L118.519467,319.249067 C72.7904,288.629333 42.6666667,236.522667 42.6666667,177.358933 C42.6666667,118.195413 72.7904,66.0885333 118.519467,35.4688 L94.8164267,1.42108547e-14 C37.65632,38.2709333 7.10542736e-15,103.40096 7.10542736e-15,177.358933 C7.10542736e-15,251.317333 37.65632,316.448 94.8164267,354.717867 Z" id="Shape"></path>
        </g>
    </g>
</svg>