<?xml version="1.0" encoding="UTF-8"?>
<svg width="512px" height="512px" viewBox="0 0 512 512" version="1.1" xmlns="http://www.w3.org/2000/svg" xmlns:xlink="http://www.w3.org/1999/xlink">
    <title>random</title>
    <g id="Page-1" stroke="none" stroke-width="1" fill="none" fill-rule="evenodd">
        <g id="icon" fill="#000000" transform="translate(46.976875, 46.976875)">
            <path d="M379.689791,38.3564581 L379.689791,379.689791 L38.3564581,379.689791 L38.3564581,38.3564581 L379.689791,38.3564581 Z M337.023125,81.0231247 L81.0231247,81.0231247 L81.0231247,337.023125 L337.023125,337.023125 L337.023125,81.0231247 Z M283.689791,251.689791 C301.362903,251.689791 315.689791,266.016679 315.689791,283.689791 C315.689791,301.362903 301.362903,315.689791 283.689791,315.689791 C266.016679,315.689791 251.689791,301.362903 251.689791,283.689791 C251.689791,266.016679 266.016679,251.689791 283.689791,251.689791 Z M209.023125,177.023125 C226.696237,177.023125 241.023125,191.350013 241.023125,209.023125 C241.023125,226.696237 226.696237,241.023125 209.023125,241.023125 C191.350013,241.023125 177.023125,226.696237 177.023125,209.023125 C177.023125,191.350013 191.350013,177.023125 209.023125,177.023125 Z M134.356458,102.356458 C152.02957,102.356458 166.356458,116.683346 166.356458,134.356458 C166.356458,152.02957 152.02957,166.356458 134.356458,166.356458 C116.683346,166.356458 102.356458,152.02957 102.356458,134.356458 C102.356458,116.683346 116.683346,102.356458 134.356458,102.356458 Z" id="Combined-Shape" transform="translate(209.023125, 209.023125) rotate(-345.000000) translate(-209.023125, -209.023125) "></path>
        </g>
    </g>
</svg>