<?xml version="1.0" encoding="UTF-8"?>
<svg width="512px" height="512px" viewBox="0 0 512 512" version="1.1" xmlns="http://www.w3.org/2000/svg" xmlns:xlink="http://www.w3.org/1999/xlink">
    <title>refresh-cancelled</title>
    <g id="Page-1" stroke="none" stroke-width="1" fill="none" fill-rule="evenodd">
        <g id="drop" fill="#000000" transform="translate(59.581722, 59.581722)">
            <path d="M30.169894,7.10542736e-15 L392.836561,362.666662 L362.666662,392.836561 L316.261926,346.432384 C283.415664,372.706958 241.751759,388.418278 196.418278,388.418278 C136.102107,388.418278 82.2819234,360.605646 47.0829119,317.105565 L47.0849447,388.418278 L4.418278,388.418278 L4.418278,239.084945 L153.751611,239.084945 L153.751611,281.751611 L73.8645944,281.770167 C100.851504,320.447366 145.679829,345.751611 196.418278,345.751611 C229.961199,345.751611 260.921123,334.692486 285.850753,316.021531 L76.8155261,106.985133 C61.6359616,127.252792 51.4875384,151.506291 48.2227105,177.893176 L5.88107057,172.600687 C10.3428524,136.539202 24.8042137,103.576806 46.4047717,76.5738802 L3.55271368e-14,30.169894 L30.169894,7.10542736e-15 Z M344.613797,214.943774 L386.955437,220.236263 C384.372313,241.113504 378.437677,260.952033 369.706555,279.196825 L337.111038,246.599414 C340.71191,236.504505 343.257133,225.908321 344.613797,214.943774 Z M388.418278,4.418278 L388.418278,153.751611 L239.084945,153.751611 L239.084945,111.084945 L318.982796,111.081919 C291.997051,72.395964 247.163517,47.0849447 196.418278,47.0849447 C178.813096,47.0849447 161.919461,50.1314367 146.235794,55.7259985 L113.638781,23.1304558 C138.703668,11.1353783 166.776542,4.418278 196.418278,4.418278 C256.734449,4.418278 310.554633,32.2309101 345.753644,75.7309908 L345.751611,4.418278 L388.418278,4.418278 Z" id="Combined-Shape"></path>
        </g>
    </g>
</svg>