<?xml version="1.0" encoding="UTF-8"?>
<svg width="512px" height="512px" viewBox="0 0 512 512" version="1.1" xmlns="http://www.w3.org/2000/svg" xmlns:xlink="http://www.w3.org/1999/xlink">
    <title>remove-eye-filled</title>
    <g id="Page-1" stroke="none" stroke-width="1" fill="none" fill-rule="evenodd">
        <g id="icon" fill="#000000" transform="translate(42.666667, 85.333333)">
            <path d="M213.333333,1.42108547e-14 C362.666667,1.42108547e-14 426.666667,170.666667 426.666667,170.666667 C426.666667,170.666667 404.828978,228.900502 356.901548,277.335312 L256,277.333333 L256.001906,336.459743 C242.635306,339.59149 228.419781,341.333333 213.333333,341.333333 C64,341.333333 3.55271368e-14,170.666667 3.55271368e-14,170.666667 C3.55271368e-14,170.666667 64,1.42108547e-14 213.333333,1.42108547e-14 Z M448,298.666667 L448,341.333333 L277.333333,341.333333 L277.333333,298.666667 L448,298.666667 Z M213.333333,96 C172.096072,96 138.666667,129.429405 138.666667,170.666667 C138.666667,211.903928 172.096072,245.333333 213.333333,245.333333 C254.570595,245.333333 288,211.903928 288,170.666667 C288,129.429405 254.570595,96 213.333333,96 Z M213.333333,138.666667 C231.006445,138.666667 245.333333,152.993555 245.333333,170.666667 C245.333333,188.339779 231.006445,202.666667 213.333333,202.666667 C195.660221,202.666667 181.333333,188.339779 181.333333,170.666667 C181.333333,152.993555 195.660221,138.666667 213.333333,138.666667 Z" id="Combined-Shape"></path>
        </g>
    </g>
</svg>