<?xml version="1.0" encoding="UTF-8"?>
<svg width="512px" height="512px" viewBox="0 0 512 512" version="1.1" xmlns="http://www.w3.org/2000/svg" xmlns:xlink="http://www.w3.org/1999/xlink">
    <title>report-text</title>
    <g id="Page-1" stroke="none" stroke-width="1" fill="none" fill-rule="evenodd">
        <g id="add" fill="#000000" transform="translate(42.666667, 85.333333)">
            <path d="M341.333333,1.42108547e-14 L426.666667,85.3333333 L426.666667,341.333333 L3.55271368e-14,341.333333 L3.55271368e-14,1.42108547e-14 L341.333333,1.42108547e-14 Z M330.666667,42.6666667 L42.6666667,42.6666667 L42.6666667,298.666667 L384,298.666667 L384,96 L330.666667,42.6666667 Z M149.333333,234.666667 L149.333333,266.666667 L85.3333333,266.666667 L85.3333333,234.666667 L149.333333,234.666667 Z M341.333333,234.666667 L341.333333,266.666667 L192,266.666667 L192,234.666667 L341.333333,234.666667 Z M149.333333,170.666667 L149.333333,202.666667 L85.3333333,202.666667 L85.3333333,170.666667 L149.333333,170.666667 Z M341.333333,170.666667 L341.333333,202.666667 L192,202.666667 L192,170.666667 L341.333333,170.666667 Z M149.333333,106.666667 L149.333333,138.666667 L85.3333333,138.666667 L85.3333333,106.666667 L149.333333,106.666667 Z M341.333333,106.666667 L341.333333,138.666667 L192,138.666667 L192,106.666667 L341.333333,106.666667 Z" id="Combined-Shape"></path>
        </g>
    </g>
</svg>