<?xml version="1.0" encoding="UTF-8"?>
<svg width="512px" height="512px" viewBox="0 0 512 512" version="1.1" xmlns="http://www.w3.org/2000/svg" xmlns:xlink="http://www.w3.org/1999/xlink">
    <title>scatterplot</title>
    <g id="Page-1" stroke="none" stroke-width="1" fill="none" fill-rule="evenodd">
        <g id="drop" fill="#000000" transform="translate(64.000000, 64.000000)">
            <path d="M1.42108547e-14,320 L384,320 L384,362.666667 L1.42108547e-14,362.666667 L1.42108547e-14,320 Z M32,277.333333 C49.673112,277.333333 64,263.006445 64,245.333333 C64,227.660221 49.673112,213.333333 32,213.333333 C14.326888,213.333333 1.42108547e-14,227.660221 1.42108547e-14,245.333333 C1.42108547e-14,263.006445 14.326888,277.333333 32,277.333333 Z M138.666667,192 C156.339779,192 170.666667,177.673112 170.666667,160 C170.666667,142.326888 156.339779,128 138.666667,128 C120.993555,128 106.666667,142.326888 106.666667,160 C106.666667,177.673112 120.993555,192 138.666667,192 Z M245.333333,192 C263.006445,192 277.333333,177.673112 277.333333,160 C277.333333,142.326888 263.006445,128 245.333333,128 C227.660221,128 213.333333,142.326888 213.333333,160 C213.333333,177.673112 227.660221,192 245.333333,192 Z M181.333333,277.333333 C199.006445,277.333333 213.333333,263.006445 213.333333,245.333333 C213.333333,227.660221 199.006445,213.333333 181.333333,213.333333 C163.660221,213.333333 149.333333,227.660221 149.333333,245.333333 C149.333333,263.006445 163.660221,277.333333 181.333333,277.333333 Z M352,128 C369.673112,128 384,113.673112 384,96 C384,78.326888 369.673112,64 352,64 C334.326888,64 320,78.326888 320,96 C320,113.673112 334.326888,128 352,128 Z M266.666667,64 C284.339779,64 298.666667,49.673112 298.666667,32 C298.666667,14.326888 284.339779,1.42108547e-14 266.666667,1.42108547e-14 C248.993555,1.42108547e-14 234.666667,14.326888 234.666667,32 C234.666667,49.673112 248.993555,64 266.666667,64 Z" id="Combined-Shape"></path>
        </g>
    </g>
</svg>