<?xml version="1.0" encoding="UTF-8"?>
<svg width="512px" height="512px" viewBox="0 0 512 512" version="1.1" xmlns="http://www.w3.org/2000/svg" xmlns:xlink="http://www.w3.org/1999/xlink">
    <title>screenshot-filled</title>
    <g id="Page-1" stroke="none" stroke-width="1" fill="none" fill-rule="evenodd">
        <g id="drop" fill="#000000" transform="translate(42.666667, 42.666667)">
            <path d="M106.666667,7.10542736e-15 L106.666667,64 L362.666667,64 L362.666667,320 L426.666667,320 L426.666667,362.666667 L362.666667,362.666667 L362.666667,426.666667 L320,426.666667 L320,362.666667 L64,362.666667 L64,106.666 L7.10542736e-15,106.666667 L7.10542736e-15,64 L64,64 L64,7.10542736e-15 L106.666667,7.10542736e-15 Z M165.332883,171.293333 L106.666667,233.982333 L106.666667,296.423333 L166.336,232.64 L235.659405,301.959634 L274.432,263.168 L319.999667,308.724333 L319.999667,248.384333 L274.447284,202.831976 L235.648,241.621333 L165.332883,171.293333 Z M245.333333,117.333333 C227.660221,117.333333 213.333333,131.660221 213.333333,149.333333 C213.333333,167.006445 227.660221,181.333333 245.333333,181.333333 C263.006445,181.333333 277.333333,167.006445 277.333333,149.333333 C277.333333,131.660221 263.006445,117.333333 245.333333,117.333333 Z" id="Combined-Shape"></path>
        </g>
    </g>
</svg>