<?xml version="1.0" encoding="UTF-8"?>
<svg width="512px" height="512px" viewBox="0 0 512 512" version="1.1" xmlns="http://www.w3.org/2000/svg" xmlns:xlink="http://www.w3.org/1999/xlink">
    <title>search</title>
    <g id="Page-1" stroke="none" stroke-width="1" fill="none" fill-rule="evenodd">
        <g id="Shape" fill="#000000" transform="translate(42.666667, 42.666667)">
            <path d="M426.630187,396.463573 L305.314987,275.148373 C327.799467,246.239573 341.333333,210.04032 341.333333,170.666667 C341.333333,76.56256 264.770773,-7.10542736e-15 170.666667,-7.10542736e-15 C76.56256,-7.10542736e-15 7.10542736e-15,76.56256 7.10542736e-15,170.666667 C7.10542736e-15,264.770773 76.56256,341.333333 170.666667,341.333333 C210.04032,341.333333 246.239573,327.799467 275.148373,305.3152 L396.463573,426.6304 L426.630187,396.463573 Z M170.666667,298.666667 C100.083413,298.666667 42.6666667,241.24992 42.6666667,170.666667 C42.6666667,100.083413 100.083413,42.6666667 170.666667,42.6666667 C241.24992,42.6666667 298.666667,100.083413 298.666667,170.666667 C298.666667,241.24992 241.24992,298.666667 170.666667,298.666667 Z"></path>
        </g>
    </g>
</svg>