<?xml version="1.0" encoding="UTF-8"?>
<svg width="512px" height="512px" viewBox="0 0 512 512" version="1.1" xmlns="http://www.w3.org/2000/svg" xmlns:xlink="http://www.w3.org/1999/xlink">
    <title>star-list-filled</title>
    <g id="Page-1" stroke="none" stroke-width="1" fill="none" fill-rule="evenodd">
        <g id="icon" fill="#000000" transform="translate(30.293333, 18.560000)">
            <path d="M460.373333,365.44 L460.373333,408.106667 L353.706667,408.106667 L353.706667,365.44 L460.373333,365.44 Z M332.373333,365.44 L332.373333,408.106667 L289.706667,408.106667 L289.706667,365.44 L332.373333,365.44 Z M204.409376,3.55271368e-15 L261.25875,136.682287 L408.818752,148.512105 L296.393595,244.816222 L304.811,280.106 L268.373333,280.106667 L268.409374,322.693262 L268.409,350.737 L204.409376,311.646669 L78.077434,388.809738 L112.425157,244.816222 L7.10542736e-15,148.512105 L147.560002,136.682287 L204.409376,3.55271368e-15 Z M460.373333,301.44 L460.373333,344.106667 L353.706667,344.106667 L353.706667,301.44 L460.373333,301.44 Z M332.373333,301.44 L332.373333,344.106667 L289.706667,344.106667 L289.706667,301.44 L332.373333,301.44 Z M460.373333,429.44 L460.373333,472.106667 L353.706667,472.106667 L353.706667,429.44 L460.373333,429.44 Z M332.373333,429.44 L332.373333,472.106667 L289.706667,472.106667 L289.706667,429.44 L332.373333,429.44 Z" id="Combined-Shape"></path>
        </g>
    </g>
</svg>