<?xml version="1.0" encoding="UTF-8"?>
<svg width="512px" height="512px" viewBox="0 0 512 512" version="1.1" xmlns="http://www.w3.org/2000/svg" xmlns:xlink="http://www.w3.org/1999/xlink">
    <title>star-cancelled</title>
    <g id="Page-1" stroke="none" stroke-width="1" fill="none" fill-rule="evenodd">
        <g id="add" fill="#000000" transform="translate(30.293333, 18.560000)">
            <path d="M48.8276647,51.60832 L411.494331,414.274982 L381.324433,444.444881 L364.943,428.063 L365.259373,429.388145 L225.742707,344.171897 L86.2260415,429.388145 L124.158489,270.366642 L7.10542736e-15,164.011677 L93.402,156.523 L18.6577707,81.778214 L48.8276647,51.60832 Z M133.027,196.148 L105.657374,198.341262 L171.707523,254.917025 L151.524041,339.503929 L225.742707,294.175885 L239.396,302.516 L133.027,196.148 Z M225.742707,3.55271368e-15 L288.525207,150.947232 L451.485414,164.011677 L327.649,270.09 L297.387,239.828 L345.806707,198.341262 L259.138288,191.394856 L225.742707,111.087929 L208.973,151.414 L176.339,118.78 L225.742707,3.55271368e-15 Z" id="Combined-Shape"></path>
        </g>
    </g>
</svg>