<?xml version="1.0" encoding="UTF-8"?>
<svg width="512px" height="512px" viewBox="0 0 512 512" version="1.1" xmlns="http://www.w3.org/2000/svg" xmlns:xlink="http://www.w3.org/1999/xlink">
    <title>table-settings</title>
    <g id="Page-1" stroke="none" stroke-width="1" fill="none" fill-rule="evenodd">
        <g id="icon" fill="#000000" transform="translate(42.666667, 85.333333)">
            <path d="M349.513821,170.666667 L349.514497,193.50263 C359.917725,197.179739 369.432074,202.738516 377.648607,209.770023 L397.445419,198.339988 L427.075049,249.660012 L407.291131,261.083324 C408.264405,266.351802 408.77308,271.783164 408.77308,277.333333 C408.77308,282.88361 408.264385,288.315075 407.291074,293.583649 L427.075049,305.006655 L397.445419,356.326679 L377.648607,344.896643 C369.432074,351.928151 359.917725,357.486928 349.514497,361.164036 L349.513821,384 L290.254562,384 L290.253886,361.164036 C279.851044,357.487064 270.337014,351.928563 262.120689,344.897425 L242.322963,356.326679 L212.693333,305.006655 L232.477308,293.583649 C231.503998,288.315075 230.995302,282.88361 230.995302,277.333333 C230.995302,271.782812 231.504042,266.351114 232.477437,261.082323 L212.693333,249.660012 L242.322963,198.339988 L262.119696,209.770092 C270.336246,202.738552 279.850624,197.179751 290.253886,193.50263 L290.254562,170.666667 L349.513821,170.666667 Z M362.666667,1.42108547e-14 L362.667617,156.617113 C349.322114,151.900035 334.9608,149.333333 320,149.333333 C275.478035,149.333333 236.265129,172.06412 213.333453,206.553524 L213.333,170.666 L149.333,170.666 L149.333,213.333 L209.12434,213.332954 C201.62886,226.290301 196.339523,240.683524 193.769948,255.999002 L149.333,256 L149.333,298.666 L193.769948,298.667665 C196.339524,313.98315 201.628866,328.37638 209.124352,341.333732 L-2.13162821e-14,341.333333 L-2.13162821e-14,1.42108547e-14 L362.666667,1.42108547e-14 Z M319.884191,241.777778 C300.2474,241.777778 284.328636,257.696542 284.328636,277.333333 C284.328636,296.970124 300.2474,312.888889 319.884191,312.888889 C339.520982,312.888889 355.439747,296.970124 355.439747,277.333333 C355.439747,257.696542 339.520982,241.777778 319.884191,241.777778 Z M106.666,256 L42.666,256 L42.6666667,298.666667 L106.666,298.666 L106.666,256 Z M106.666,170.666 L42.666,170.666 L42.666,213.333 L106.666,213.333 L106.666,170.666 Z M106.666,85.333 L42.6666667,85.3333333 L42.666,128 L106.666,128 L106.666,85.333 Z M213.333,85.333 L149.333,85.333 L149.333,128 L213.333,128 L213.333,85.333 Z M320,85.3333333 L255.999,85.333 L255.999,128 L320,128 L320,85.3333333 Z" id="Rectangle"></path>
        </g>
    </g>
</svg>