<?xml version="1.0" encoding="UTF-8"?>
<svg width="512px" height="512px" viewBox="0 0 512 512" version="1.1" xmlns="http://www.w3.org/2000/svg" xmlns:xlink="http://www.w3.org/1999/xlink">
    <title>threshold-on</title>
    <g id="Page-1" stroke="none" stroke-width="1" fill="none" fill-rule="evenodd">
        <g id="icon" fill="#000000" transform="translate(64.000000, 64.000000)">
            <path d="M42.6666667,1.42108547e-14 L42.666,341.333 L384,341.333333 L384,384 L1.42108547e-14,384 L1.42108547e-14,1.42108547e-14 L42.6666667,1.42108547e-14 Z M290.80086,91.7065484 L382.469976,176.324193 L353.530024,207.675807 L306.517333,164.288 L263.90925,265.523605 L197.653333,204.8 L140.664173,309.333333 L64,309.333333 L64,266.666667 L115.328,266.666667 L186.323324,136.522922 L248.085333,193.130667 L290.80086,91.7065484 Z M128,42.6666667 L128,85.3333333 L85.3333333,85.3333333 L85.3333333,42.6666667 L128,42.6666667 Z M213.333333,42.6666667 L213.333333,85.3333333 L170.666667,85.3333333 L170.666667,42.6666667 L213.333333,42.6666667 Z M298.666667,42.6666667 L298.666667,85.3333333 L256,85.3333333 L256,42.6666667 L298.666667,42.6666667 Z M384,42.6666667 L384,85.3333333 L341.333333,85.3333333 L341.333333,42.6666667 L384,42.6666667 Z" id="Combined-Shape"></path>
        </g>
    </g>
</svg>