<?xml version="1.0" encoding="UTF-8"?>
<svg width="512px" height="512px" viewBox="0 0 512 512" version="1.1" xmlns="http://www.w3.org/2000/svg" xmlns:xlink="http://www.w3.org/1999/xlink">
    <title>threshold-cancelled</title>
    <g id="Page-1" stroke="none" stroke-width="1" fill="none" fill-rule="evenodd">
        <g id="icon" fill="#000000" transform="translate(49.830101, 48.000000)">
            <path d="M30.1698987,1.42108547e-14 L414.169899,384 L384,414.169899 L369.83,399.999 L14.1698987,400 L14.169,44.338 L-7.10542736e-15,30.1698987 L14.169,16 L14.1698987,16 L14.17,15.999 L30.1698987,1.42108547e-14 Z M56.836,87.005 L56.8358987,357.333 L327.164,357.333 L204.346,234.515 L154.834071,325.333333 L78.1698987,325.333333 L78.1698987,282.666667 L129.497899,282.666667 L172.912,203.081 L56.836,87.005 Z M304.970759,107.706548 L396.639874,192.324193 L367.699923,223.675807 L320.687232,180.288 L305.395,216.621 L272.815,184.055 L304.970759,107.706548 Z M312.836565,58.6666667 L312.836565,101.333333 L270.169899,101.333333 L270.169899,58.6666667 L312.836565,58.6666667 Z M398.169899,58.6666667 L398.169899,101.333333 L355.503232,101.333333 L355.503232,58.6666667 L398.169899,58.6666667 Z M227.503232,58.6666667 L227.503232,101.333333 L190.06,101.333 L184.836,96.111 L184.836565,58.6666667 L227.503232,58.6666667 Z" id="Combined-Shape"></path>
        </g>
    </g>
</svg>