<?xml version="1.0" encoding="UTF-8"?>
<svg width="512px" height="512px" viewBox="0 0 512 512" version="1.1" xmlns="http://www.w3.org/2000/svg" xmlns:xlink="http://www.w3.org/1999/xlink">
    <title>to-be-published</title>
    <g id="Page-1" stroke="none" stroke-width="1" fill="none" fill-rule="evenodd">
        <g id="icon" fill="#000000" transform="translate(42.666667, 33.830111)">
            <path d="M213.333333,8.836556 C227.766286,8.836556 241.864482,10.2698242 255.493353,13.0017939 L216.953821,51.5408633 C215.750015,51.5158108 214.543144,51.5032227 213.333333,51.5032227 C119.076736,51.5032227 42.6666667,127.913292 42.6666667,222.169889 C42.6666667,316.426487 119.076736,392.836556 213.333333,392.836556 C307.531589,392.695856 383.8593,316.368145 384,222.169889 C384,193.800589 377.078116,167.047981 364.831101,143.508819 L396.162832,112.178528 C415.526764,144.296536 426.666667,181.932281 426.666667,222.169889 C426.490792,339.917709 331.081153,435.327348 213.333333,435.503223 C95.5125867,435.503223 3.55271368e-14,339.990636 3.55271368e-14,222.169889 C3.55271368e-14,104.349143 95.5125867,8.836556 213.333333,8.836556 Z M298.666667,7.10542736e-15 L388.418278,89.7516113 L358.248389,119.921501 L319.999,81.683 L320,222.169889 C320,267.870058 284.075339,305.179572 238.925661,307.398789 L149.333333,307.503223 L149.333333,264.836556 L234.666667,264.836556 C257.159718,264.836556 275.587523,247.431163 277.216304,225.354153 L277.333333,222.169889 L277.333,81.683 L239.084945,119.921501 L208.915055,89.7516113 L298.666667,7.10542736e-15 Z" id="Combined-Shape"></path>
        </g>
    </g>
</svg>