<?xml version="1.0" encoding="UTF-8"?>
<svg width="512px" height="512px" viewBox="0 0 512 512" version="1.1" xmlns="http://www.w3.org/2000/svg" xmlns:xlink="http://www.w3.org/1999/xlink">
    <title>to-search</title>
    <g id="Page-1" stroke="none" stroke-width="1" fill="none" fill-rule="evenodd">
        <g id="icon" fill="#000000" transform="translate(42.666667, 85.333333)">
            <path d="M224,1.42108547e-14 C300.583485,1.42108547e-14 362.666667,62.0831814 362.666667,138.666667 C362.666667,169.260685 352.758877,197.540615 335.976875,220.472881 L429.476859,313.973637 L399.306965,344.143531 L305.80721,250.642814 C282.874767,267.425258 254.594461,277.333333 224,277.333333 C182.528564,277.333333 145.309244,259.127865 119.898048,230.272939 L150.156212,200.014605 C167.76564,221.187509 194.308707,234.666667 224,234.666667 C277.019336,234.666667 320,191.686003 320,138.666667 C320,85.6473307 277.019336,42.6666667 224,42.6666667 C199.739363,42.6666667 177.580626,51.6659715 160.67991,66.5084604 L130.465152,36.2951919 C155.124422,13.7519355 187.956242,1.42108547e-14 224,1.42108547e-14 Z M102.248384,38.2483876 L192,128 L102.248384,217.751611 L72.0784993,187.581721 L110.315,149.333 L7.10542736e-15,149.333333 L7.10542736e-15,106.666667 L110.316,106.666 L72.0784993,68.418278 L102.248384,38.2483876 Z" id="Combined-Shape"></path>
        </g>
    </g>
</svg>