<?xml version="1.0" encoding="UTF-8"?>
<svg width="512px" height="512px" viewBox="0 0 512 512" version="1.1" xmlns="http://www.w3.org/2000/svg" xmlns:xlink="http://www.w3.org/1999/xlink">
    <title>topic</title>
    <g id="Page-1" stroke="none" stroke-width="1" fill="none" fill-rule="evenodd">
        <g id="icon" fill="#000000" transform="translate(21.333333, 85.333333)">
            <path d="M448,1.42108547e-14 L448,341.333333 L106.666667,341.333333 L3.55271368e-15,170.666667 L106.666667,1.42108547e-14 L448,1.42108547e-14 Z M405.333333,42.6666667 L130.282667,42.6666667 L50.2826667,170.666667 L130.282667,298.666667 L405.333333,298.666667 L405.333333,42.6666667 Z M254.919831,64 L245.779942,124.371677 L279.680623,124.371677 L288.820513,64 L321.391756,64 L312.251866,124.371677 L341.333333,124.371677 L341.333333,151.32063 L308.097371,151.32063 L302.114898,190.91602 L330.864005,190.91602 L330.864005,217.864973 L297.960402,217.864973 L288.986693,277.333333 L256.41545,277.333333 L265.389159,217.864973 L231.488478,217.864973 L222.514768,277.333333 L189.943525,277.333333 L198.917235,217.864973 L170.666667,217.864973 L170.666667,190.91602 L203.07173,190.91602 L209.054203,151.32063 L181.135995,151.32063 L181.135995,124.371677 L213.208698,124.371677 L222.348588,64 L254.919831,64 Z M277.333333,149.333333 L241.066667,149.333333 L234.666667,192 L270.933333,192 L277.333333,149.333333 Z" id="Combined-Shape"></path>
        </g>
    </g>
</svg>