<?xml version="1.0" encoding="UTF-8"?>
<svg width="512px" height="512px" viewBox="0 0 512 512" version="1.1" xmlns="http://www.w3.org/2000/svg" xmlns:xlink="http://www.w3.org/1999/xlink">
    <title>touch-filled</title>
    <g id="Page-1" stroke="none" stroke-width="1" fill="none" fill-rule="evenodd">
        <g id="drop" fill="#000000" transform="translate(96.006955, 42.666667)">
            <path d="M170.509413,98.5911137 C178.562129,107.63217 183.162401,120.168833 183.162401,133.333333 L183.162401,226.466325 L300.495734,263.799659 L300.495734,426.666667 L112.637926,426.666667 L16.1533679,338.423808 C6.5147731,329.026977 0.452664617,316.337143 0.0233866718,303.697707 C-0.343473807,292.896058 3.58809691,282.194075 13.0688688,274.031701 C17.8167462,269.944065 26.6929549,266.666667 39.1624005,266.666667 C54.5440082,266.666667 66.3929571,278.467888 74.9923491,286.173013 C78.4295433,289.252767 86.0419036,296.882214 97.82943,309.061355 L97.82943,133.524352 C97.7798703,120.479496 102.810081,108.078235 111.164771,99.0704709 C118.88249,90.7494676 129.499303,85.3333333 141.575657,85.3333333 C153.350042,85.3333333 163.331833,90.5326024 170.509413,98.5911137 Z M15.3062171,163.708373 C12.5352304,153.1328 10.9089904,142.098987 10.9089904,130.666667 C10.9089904,58.6250667 69.5236038,7.10542736e-15 141.575657,7.10542736e-15 C213.62771,7.10542736e-15 272.242324,58.6250667 272.242324,130.666667 C272.242324,142.098987 270.616084,153.1328 267.845097,163.708373 L227.373844,149.69792 C228.737044,143.552 229.575657,137.218773 229.575657,130.666667 C229.575657,82.1431467 190.099177,42.6666667 141.575657,42.6666667 C93.0521371,42.6666667 53.5756571,82.1431467 53.5756571,130.666667 C53.5756571,137.218773 54.4142704,143.552 55.7774704,149.69792 L15.3062171,163.708373 Z" id="Shape"></path>
        </g>
    </g>
</svg>