<?xml version="1.0" encoding="UTF-8"?>
<svg width="512px" height="512px" viewBox="0 0 512 512" version="1.1" xmlns="http://www.w3.org/2000/svg" xmlns:xlink="http://www.w3.org/1999/xlink">
    <title>tree</title>
    <g id="Page-1" stroke="none" stroke-width="1" fill="none" fill-rule="evenodd">
        <g id="icon" fill="#000000" transform="translate(85.333333, 64.000000)">
            <path d="M1.42108547e-14,-4.26325641e-14 L128,-4.26325641e-14 L128,64 L1.42108547e-14,64 L1.42108547e-14,-4.26325641e-14 Z M106.666667,106.666667 L234.666667,106.666667 L234.666667,170.666667 L106.666667,170.666667 L106.666667,106.666667 Z M106.666667,213.333333 L234.666667,213.333333 L234.666667,277.333333 L106.666667,277.333333 L106.666667,213.333333 Z M213.333333,320 L341.333333,320 L341.333333,384 L213.333333,384 L213.333333,320 Z M74.6666667,85.3333333 L74.6666667,117.333333 L85.3333333,117.333333 L85.3333333,149.333333 L42.6666667,149.333333 L42.6666667,85.3333333 L74.6666667,85.3333333 Z M181.333333,298.666667 L181.333333,330.666667 L192,330.666667 L192,362.666667 L149.333333,362.666667 L149.333333,298.666667 L181.333333,298.666667 Z M74.6666667,170.666667 L74.6666667,224 L85.3333333,224 L85.3333333,256 L42.6666667,256 L42.6666667,170.666667 L74.6666667,170.666667 Z" id="Combined-Shape"></path>
        </g>
    </g>
</svg>