<?xml version="1.0" encoding="UTF-8"?>
<svg width="512px" height="512px" viewBox="0 0 512 512" version="1.1" xmlns="http://www.w3.org/2000/svg" xmlns:xlink="http://www.w3.org/1999/xlink">
    <title>tulip-filled</title>
    <g id="Page-1" stroke="none" stroke-width="1" fill="none" fill-rule="evenodd">
        <g id="drop" fill="#000000" transform="translate(64.000000, 37.333333)">
            <path d="M192,-7.10542736e-15 L234.666667,74.6666667 L298.666667,21.3333333 L308.666907,133.836035 C314.064272,194.556391 272.111544,248.565765 213.334617,259.381992 L213.331969,333.707083 C239.462818,290.338763 287.010785,261.333333 341.333333,261.333333 L341.333333,261.333333 L384,261.333333 C384,343.807856 317.141189,410.666667 234.666667,410.666667 L234.666667,410.666667 L213.333,410.666 L213.333333,432 L170.666667,432 L170.666,410.666 L149.333333,410.666667 C66.8588107,410.666667 1.0100216e-14,343.807856 0,261.333333 L42.6666667,261.333333 C96.9892151,261.333333 144.537182,290.338763 170.668031,333.707083 L170.665229,259.394892 C116.16475,249.364808 74.8730937,201.607709 74.8730937,144.206427 C74.8730937,140.74453 75.0265776,137.284336 75.3330932,133.836035 L85.3333333,21.3333333 L149.333333,74.6666667 L192,-7.10542736e-15 Z" id="Combined-Shape"></path>
        </g>
    </g>
</svg>