<?xml version="1.0" encoding="UTF-8"?>
<svg width="512px" height="512px" viewBox="0 0 512 512" version="1.1" xmlns="http://www.w3.org/2000/svg" xmlns:xlink="http://www.w3.org/1999/xlink">
    <title>tulip</title>
    <g id="Page-1" stroke="none" stroke-width="1" fill="none" fill-rule="evenodd">
        <g id="Combined-Shape" fill="#000000" transform="translate(64.000000, 37.333333)">
            <path d="M192,-7.10542736e-15 L234.666667,64 L298.666667,21.3333333 L308.666907,133.836035 C314.063775,194.550803 272.119266,248.555824 213.350844,259.379005 L213.319972,306.168671 C240.425281,278.500941 278.207786,261.333333 320,261.333333 L384,261.333333 C384,343.807856 317.141189,410.666667 234.666667,410.666667 L213.333333,410.666667 L213.333333,432 L170.666667,432 L170.666667,410.666667 L149.333333,410.666667 C66.8588107,410.666667 0,343.807856 0,261.333333 L64,261.333333 C105.802886,261.333333 143.594015,278.50971 170.700791,306.189869 L170.674023,259.39651 C116.169192,249.369946 74.8730937,201.610797 74.8730937,144.206427 C74.8730937,140.74453 75.0265776,137.284336 75.3330932,133.836035 L85.3333333,21.3333333 L149.333333,64 L192,-7.10542736e-15 Z M51.5413333,304 L51.9212871,304.857146 C68.5740011,342.071375 105.92569,368 149.333333,368 L170.602667,368 L170.602667,367.082667 L140.216822,336.042375 C121.499158,316.928781 96.4699254,305.490932 69.4329004,304.135863 L64,304 L51.5413333,304 Z M332.437333,304 L320,304 C290.902754,304 263.762437,315.648554 243.798046,336.027196 L213.397333,367.061333 L213.397333,368 L234.666667,368 C278.07431,368 315.425999,342.071375 332.078713,304.857146 L332.437333,304 Z M222.833062,123.168021 L192,76.928 L161.166938,123.168021 L121.472,96.704 L117.704294,139.259172 L117.53976,144.206427 C117.53976,180.271292 143.388755,210.994598 178.393345,217.43395 L191.936,219.925333 L205.623029,217.418007 C241.8257,210.750684 267.675566,178.390126 266.419741,141.706407 L266.167808,137.613733 L262.506667,96.704 L222.833062,123.168021 Z"></path>
        </g>
    </g>
</svg>