<?xml version="1.0" encoding="UTF-8"?>
<svg width="512px" height="512px" viewBox="0 0 512 512" version="1.1" xmlns="http://www.w3.org/2000/svg" xmlns:xlink="http://www.w3.org/1999/xlink">
    <title>ungroup</title>
    <g id="Page-1" stroke="none" stroke-width="1" fill="none" fill-rule="evenodd">
        <g id="icon" fill="#000000" transform="translate(64.000000, 61.349281)">
            <path d="M30.1699038,1.42108547e-14 L395.710312,365.540408 L365.540422,395.710297 L356.48,386.65 L277.333333,386.650719 L277.333333,343.984053 L313.814,343.984 L271.147,301.317 L85.3333333,301.317386 L85.3333333,258.650719 L228.48,258.65 L185.814,215.984 L85.3333333,215.984053 L85.3333333,173.317386 L143.148,173.317 L42.666,72.835 L42.6666667,343.984053 L106.666667,343.984053 L106.666667,386.650719 L4.26325641e-14,386.650719 L1.42108547e-14,30.07 L0.05,30.12 L30.1699038,1.42108547e-14 Z M384,2.65071918 L383.999,293.39 L341.333,250.724 L341.333333,45.3173858 L277.333333,45.3173858 L277.333333,2.65071918 L384,2.65071918 Z M298.666667,173.317386 L298.666,208.058 L263.925,173.317 L298.666667,173.317386 Z M298.666667,87.9840525 L298.666667,130.650719 L221.258,130.65 L178.592,87.984 L298.666667,87.9840525 Z" id="Combined-Shape"></path>
        </g>
    </g>
</svg>