<?xml version="1.0" encoding="UTF-8"?>
<svg width="512px" height="512px" viewBox="0 0 512 512" version="1.1" xmlns="http://www.w3.org/2000/svg" xmlns:xlink="http://www.w3.org/1999/xlink">
    <title>unlock</title>
    <g id="Page-1" stroke="none" stroke-width="1" fill="none" fill-rule="evenodd">
        <g id="icon" fill="#000000" transform="translate(85.333333, 42.666667)">
            <path d="M170.666667,3.55271368e-14 C241.156267,3.55271368e-14 298.666667,56.6282667 298.666667,126.933333 L298.666667,126.933333 L256,126.933333 C256,80.59584 217.9968,42.6666667 170.666667,42.6666667 C123.33568,42.6666667 85.3333333,80.59584 85.3333333,126.933333 L85.3333333,126.933333 L85.3333333,213.333333 L341.333333,213.333333 L341.333333,426.666667 L1.42108547e-14,426.666667 L1.42108547e-14,213.333333 L42.6666667,213.333333 L42.6666667,126.933333 C42.6666667,56.6282667 100.176853,3.55271368e-14 170.666667,3.55271368e-14 Z M298.666667,256 L42.6666667,256 L42.6666667,384 L298.666667,384 L298.666667,256 Z" id="unlocked"></path>
        </g>
    </g>
</svg>