<?xml version="1.0" encoding="UTF-8"?>
<svg width="512px" height="512px" viewBox="0 0 512 512" version="1.1" xmlns="http://www.w3.org/2000/svg" xmlns:xlink="http://www.w3.org/1999/xlink">
    <title>unlock-plant</title>
    <g id="Page-1" stroke="none" stroke-width="1" fill="none" fill-rule="evenodd">
        <g id="unlock-plant" fill="#000000" fill-rule="nonzero">
            <g id="drop" transform="translate(64.000000, 85.333333)">
                <path d="M341.333333,234.666667 C376.679557,234.666667 405.333333,263.320443 405.333333,298.666667 C405.333333,334.012891 376.679557,362.666667 341.333333,362.666667 C313.46754,362.666667 289.761253,344.857703 280.975252,320.000557 L213.333,319.999667 L213.333333,362.666667 L149.333333,362.666667 L149.333,319.999667 L128,320 L128,277.333333 L280.975252,277.332776 C289.761253,252.47563 313.46754,234.666667 341.333333,234.666667 Z M320,1.42108547e-14 L320.00014,216.023385 C309.852717,218.636453 300.43592,223.069143 292.117029,228.94988 C282.057887,236.060825 273.610149,245.296884 267.420039,256.001729 L267.420039,256.001729 L256,256.001 L256,213.333333 L42.6666667,213.333333 L42.6666667,298.666667 L106.666,298.666 L106.666667,341.333333 L7.10542736e-14,341.333333 L7.10542736e-14,96 L128,170.666667 L128,96 L256,170.666667 L256,1.42108547e-14 L320,1.42108547e-14 Z M341.333333,277.333333 C329.551259,277.333333 320,286.884592 320,298.666667 C320,310.448741 329.551259,320 341.333333,320 C353.115408,320 362.666667,310.448741 362.666667,298.666667 C362.666667,286.884592 353.115408,277.333333 341.333333,277.333333 Z" id="Combined-Shape"></path>
            </g>
        </g>
    </g>
</svg>