<?xml version="1.0" encoding="UTF-8"?>
<svg width="512px" height="512px" viewBox="0 0 512 512" version="1.1" xmlns="http://www.w3.org/2000/svg" xmlns:xlink="http://www.w3.org/1999/xlink">
    <title>upload-document-note</title>
    <g id="Page-1" stroke="none" stroke-width="1" fill="none" fill-rule="evenodd">
        <g id="icon" fill="#000000" transform="translate(64.000000, 42.666667)">
            <path d="M298.642975,268.433404 L392.812864,362.603293 L362.642975,392.773183 L319.976085,350.117404 L319.976308,447.956959 L277.309641,447.956959 L277.309085,350.116404 L234.642975,392.773183 L204.473085,362.603293 L298.642975,268.433404 Z M234.666667,7.10542736e-15 L341.333333,106.666667 L341.333,280.469 L298.779055,237.915875 L298.666,238.028 L298.666667,124.339779 L216.993555,42.6666667 L42.6666667,42.6666667 L42.6666667,384 L196.184,384 L234.773299,422.589676 L256.093414,401.26939 L256.101,426.666 L1.42108547e-14,426.666667 L1.42108547e-14,7.10542736e-15 L234.666667,7.10542736e-15 Z M213.333333,298.666667 L213.333,323.361 L195.361,341.333 L64,341.333333 L64,298.666667 L213.333333,298.666667 Z M196,85.3333333 L256,145.333333 L124,277.333333 L64,277.333333 L64,217.333333 L196,85.3333333 Z M195.989333,130.581333 L96,230.570667 L96,245.333333 L110.72,245.333333 L210.730667,145.322667 L195.989333,130.581333 Z" id="Combined-Shape"></path>
        </g>
    </g>
</svg>