<?xml version="1.0" encoding="UTF-8"?>
<svg width="512px" height="512px" viewBox="0 0 512 512" version="1.1" xmlns="http://www.w3.org/2000/svg" xmlns:xlink="http://www.w3.org/1999/xlink">
    <title>user-management</title>
    <g id="Page-1" stroke="none" stroke-width="1" fill="none" fill-rule="evenodd">
        <g id="Mask" fill="#000000" transform="translate(64.000000, 64.000000)">
            <path d="M298.666667,170.666667 C345.813333,170.666667 384,208.853333 384,256 L384,256 L384,384 L1.42108547e-14,384 L1.42108547e-14,298.666667 C1.42108547e-14,251.52 38.1866667,213.333333 85.3333333,213.333333 L85.3333333,213.333333 L160.853333,213.333333 C175.573333,187.733333 203.093333,170.666667 234.666667,170.666667 L234.666667,170.666667 Z M298.666667,213.333333 L234.666667,213.333333 C211.2,213.333333 192,232.533333 192,256 L192,256 L192,341.333333 L341.333333,341.333333 L341.333333,256 C341.333333,232.533333 322.133333,213.333333 298.666667,213.333333 L298.666667,213.333333 Z M149.333333,256 L85.3333333,256 C61.8666667,256 42.6666667,275.2 42.6666667,298.666667 L42.6666667,298.666667 L42.6666667,341.333333 L149.333333,341.333333 L149.333333,256 Z M106.666667,64 C141.952,64 170.666667,92.7146667 170.666667,128 C170.666667,163.285333 141.952,192 106.666667,192 C71.3813333,192 42.6666667,163.285333 42.6666667,128 C42.6666667,92.7146667 71.3813333,64 106.666667,64 Z M106.666667,104 C93.44,104 82.6666667,114.752 82.6666667,128 C82.6666667,141.248 93.44,152 106.666667,152 C119.893333,152 130.666667,141.248 130.666667,128 C130.666667,114.752 119.893333,104 106.666667,104 Z M266.666667,1.42108547e-14 C307.84,1.42108547e-14 341.333333,33.4933333 341.333333,74.6666667 C341.333333,115.84 307.84,149.333333 266.666667,149.333333 C225.493333,149.333333 192,115.84 192,74.6666667 C192,33.4933333 225.493333,1.42108547e-14 266.666667,1.42108547e-14 Z M266.666667,42.6666667 C249.024,42.6666667 234.666667,57.024 234.666667,74.6666667 C234.666667,92.3093333 249.024,106.666667 266.666667,106.666667 C284.309333,106.666667 298.666667,92.3093333 298.666667,74.6666667 C298.666667,57.024 284.309333,42.6666667 266.666667,42.6666667 Z"></path>
        </g>
    </g>
</svg>