<?xml version="1.0" encoding="UTF-8"?>
<svg width="512px" height="512px" viewBox="0 0 512 512" version="1.1" xmlns="http://www.w3.org/2000/svg" xmlns:xlink="http://www.w3.org/1999/xlink">
    <title>user-check-filled</title>
    <g id="Page-1" stroke="none" stroke-width="1" fill="none" fill-rule="evenodd">
        <g id="icon" fill="#000000" transform="translate(42.666667, 42.666667)">
            <path d="M377.757355,253.659504 L411.575978,279.67383 L291.053891,436.352543 L188.618568,346.721636 L216.714765,314.611697 L284.928,374.314667 L377.757355,253.659504 Z M186.666667,192 C246.976161,192 296.152141,241.030192 298.573247,302.451464 L298.666667,307.2 L298.666,321.456 L281.877333,343.274667 L214.709805,284.506445 L158.515501,348.728507 L198.825,383.999 L7.10542736e-15,384 L7.10542736e-15,307.2 C7.10542736e-15,245.167377 47.6682427,194.586369 107.383368,192.096089 L112,192 L186.666667,192 Z M149.333333,7.10542736e-15 C190.570595,7.10542736e-15 224,33.4294053 224,74.6666667 C224,114.529353 192.762078,147.096031 153.430084,149.222851 L149.333333,149.333333 C108.096072,149.333333 74.6666667,115.903928 74.6666667,74.6666667 C74.6666667,34.8039807 105.904589,2.23730242 145.236582,0.110482405 L149.333333,7.10542736e-15 Z" id="Combined-Shape"></path>
        </g>
    </g>
</svg>