<?xml version="1.0" encoding="UTF-8"?>
<svg width="512px" height="512px" viewBox="0 0 512 512" version="1.1" xmlns="http://www.w3.org/2000/svg" xmlns:xlink="http://www.w3.org/1999/xlink">
    <title>water-sunbathing</title>
    <g id="Page-1" stroke="none" stroke-width="1" fill="none" fill-rule="evenodd">
        <g id="drop" fill="#000000" transform="translate(42.666667, 42.666667)">
            <path d="M426.666667,341.333333 L426.666667,384 C426.158675,384 425.456014,384.210531 424.513041,384.680714 L422.293153,385.981839 C421.865261,386.261245 421.407286,386.57314 420.917538,386.919343 L417.584252,389.422815 C416.96065,389.913529 416.301894,390.442189 415.606294,391.010615 L410.977033,394.912921 L397.365293,406.965492 L392.813332,410.747973 C380.031861,421.014713 368.801445,426.666667 355.555556,426.666667 C341.294727,426.666667 332.05509,422.234798 317.114667,409.793622 L309.775255,403.469806 L300.134078,394.912921 L295.504817,391.010615 L291.759826,388.062697 L288.817958,385.981839 L286.59807,384.680714 C285.655097,384.210531 284.952436,384 284.444444,384 C283.936453,384 283.233792,384.210531 282.290819,384.680714 L280.070931,385.981839 C279.643038,386.261245 279.185064,386.57314 278.695316,386.919343 L275.36203,389.422815 C274.738428,389.913529 274.079672,390.442189 273.384072,391.010615 L268.754811,394.912921 L255.32809,406.778776 C238.22557,421.526748 228.691149,426.666667 213.333333,426.666667 C197.975518,426.666667 188.441097,421.526748 171.338577,406.778776 L157.911856,394.912921 L153.282595,391.010615 L149.537603,388.062697 C148.427635,387.229419 147.451521,386.540651 146.595736,385.981839 L144.375848,384.680714 C143.432874,384.210531 142.730214,384 142.222222,384 C141.714231,384 141.01157,384.210531 140.068597,384.680714 L137.848708,385.981839 L134.906841,388.062697 L131.16185,391.010615 L126.532589,394.912921 L116.891412,403.469806 L109.552,409.793622 C94.6115766,422.234798 85.3719398,426.666667 71.1111111,426.666667 C55.7532956,426.666667 46.2188743,421.526748 29.1163545,406.778776 L15.6896333,394.912921 L11.0603727,391.010615 L7.31538116,388.062697 C6.20541272,387.229419 5.22929831,386.540651 4.37351377,385.981839 L2.15362563,384.680714 C1.52497669,384.367259 1.00313347,384.169204 0.574571818,384.071996 L5.00932629e-12,384 L5.00932629e-12,341.333333 C15.3578155,341.333333 24.8922368,346.473252 41.9947566,361.221224 L55.4214778,373.087079 L60.0507384,376.989385 L63.79573,379.937303 C64.9056984,380.770581 65.8818128,381.459349 66.7375973,382.018161 L68.9574855,383.319286 C69.9004589,383.789469 70.6031194,384 71.1111111,384 C71.6191028,384 72.3217633,383.789469 73.2647367,383.319286 L75.4846249,382.018161 L78.4264923,379.937303 L82.1714838,376.989385 L86.8007444,373.087079 L96.4419214,364.530194 L103.781333,358.206378 C118.721757,345.765202 127.961394,341.333333 142.222222,341.333333 C157.580038,341.333333 167.114459,346.473252 184.216979,361.221224 L197.6437,373.087079 L202.272961,376.989385 L206.017952,379.937303 C207.127921,380.770581 208.104035,381.459349 208.95982,382.018161 L211.179708,383.319286 C212.122681,383.789469 212.825342,384 213.333333,384 C213.841325,384 214.543986,383.789469 215.486959,383.319286 L217.706847,382.018161 C218.134739,381.738755 218.592714,381.42686 219.082462,381.080657 L222.415748,378.577185 C223.03935,378.086471 223.698106,377.557811 224.393706,376.989385 L229.022967,373.087079 L242.449688,361.221224 C259.552208,346.473252 269.086629,341.333333 284.444444,341.333333 C298.705273,341.333333 307.94491,345.765202 322.885333,358.206378 L330.224745,364.530194 L339.865922,373.087079 L344.495183,376.989385 L348.240174,379.937303 L351.182042,382.018161 L353.40193,383.319286 C354.344903,383.789469 355.047564,384 355.555556,384 C356.363464,384 358.596773,382.977688 362.130796,380.484217 L366.093772,377.483735 L369.766678,374.422828 L384.67191,361.221224 C400.552821,347.526679 409.908178,342.116628 423.45996,341.413634 L426.666667,341.333333 Z M192,3.55271368e-14 C245.030095,3.55271368e-14 293.038816,21.4990546 327.785652,56.2566513 L207.106,176.936 L307.503,277.333 L426.666667,277.333333 L426.666667,320 L170.666667,320 L170.666667,277.333333 L247.163,277.333 L176.936,207.106 L56.2566513,327.785652 C21.4990546,293.038816 7.10542736e-15,245.030095 7.10542736e-15,192 C7.10542736e-15,146.666633 15.7112416,105.002823 41.9856962,72.1565992 L27.581722,57.7516113 C19.2505371,49.4204264 19.2505371,35.9129069 27.581722,27.581722 C35.2720465,19.8913975 47.3729757,19.2998341 55.7418548,25.8070317 L57.7516113,27.581722 L72.1565992,41.9856962 C105.002823,15.7112416 146.666633,3.55271368e-14 192,3.55271368e-14 Z M52.9074527,137.549438 L52.6536851,138.194268 C46.2034978,154.887791 42.6666667,173.03086 42.6666667,192 C42.6666667,216.561052 48.6019506,240.142048 59.5771342,261.125225 L60.6293333,263.04 L102.988792,220.67869 C79.8364593,192.333508 62.7162959,163.515159 52.9074527,137.549438 Z M91.0508992,86.0833035 L86.4426667,86.4426667 L86.2440632,88.2787626 L86.071171,91.4477644 C85.876446,99.3111424 88.1528784,110.341904 93.1560792,123.350226 C100.222236,141.722233 111.836741,161.927995 127.014709,182.170033 L133.333333,190.314667 L190.314667,133.333333 L185.216063,129.326394 C165.454277,114.163121 145.663883,102.365089 127.551459,94.8369165 L121.578473,92.4869093 C110.638167,88.4313941 101.19702,86.3613697 93.9971654,86.0900186 L91.0508992,86.0833035 Z M192,42.6666667 C172.785223,42.6666667 154.41805,46.2956895 137.546492,52.9057249 C163.514409,62.7157985 192.333552,79.836377 220.679473,102.989431 L263.04,60.6293333 L261.125225,59.5771342 C242.049609,49.5996946 220.827036,43.7874613 198.672954,42.8131498 L192,42.6666667 Z" id="Combined-Shape"></path>
        </g>
    </g>
</svg>