<?xml version="1.0" encoding="UTF-8"?>
<svg width="512px" height="512px" viewBox="0 0 512 512" version="1.1" xmlns="http://www.w3.org/2000/svg" xmlns:xlink="http://www.w3.org/1999/xlink">
    <title>water-bathing</title>
    <g id="Page-1" stroke="none" stroke-width="1" fill="none" fill-rule="evenodd">
        <g id="drop" fill="#000000" transform="translate(42.666667, 42.660270)">
            <path d="M149.330933,191.95714 L149.330933,234.526363 L191.997067,234.526363 L191.997067,149.248824 L234.6632,149.248824 L234.6632,234.526363 L277.329333,234.526363 L277.329333,191.95714 L330.666667,245.33973 L360.831623,215.190175 L265.937476,120.271989 C258.065574,111.956341 247.036379,106.604475 234.6632,106.604475 L191.997067,106.604475 C179.687887,106.604475 168.680025,111.892375 160.893455,120.250667 L65.8350437,215.190175 L96,245.33973 L149.330933,191.95714 Z M426.666667,341.33973 L426.666667,384.006397 C426.158675,384.006397 425.456014,384.216928 424.513041,384.687111 L422.293153,385.988235 C421.865261,386.267642 421.407286,386.579537 420.917538,386.92574 L417.584252,389.429212 C416.96065,389.919925 416.301894,390.448586 415.606294,391.017012 L410.977033,394.919318 L397.365293,406.971888 L392.813332,410.75437 C380.031861,421.02111 368.801445,426.673063 355.555556,426.673063 C341.294727,426.673063 332.05509,422.241195 317.114667,409.800019 L309.775255,403.476203 L300.134078,394.919318 L295.504817,391.017012 L291.759826,388.069093 L288.817958,385.988235 L286.59807,384.687111 C285.655097,384.216928 284.952436,384.006397 284.444444,384.006397 C283.936453,384.006397 283.233792,384.216928 282.290819,384.687111 L280.070931,385.988235 C279.643038,386.267642 279.185064,386.579537 278.695316,386.92574 L275.36203,389.429212 C274.738428,389.919925 274.079672,390.448586 273.384072,391.017012 L268.754811,394.919318 L255.32809,406.785173 C238.22557,421.533145 228.691149,426.673063 213.333333,426.673063 C197.975518,426.673063 188.441097,421.533145 171.338577,406.785173 L157.911856,394.919318 L153.282595,391.017012 L149.537603,388.069093 C148.427635,387.235815 147.451521,386.547048 146.595736,385.988235 L144.375848,384.687111 C143.432874,384.216928 142.730214,384.006397 142.222222,384.006397 C141.714231,384.006397 141.01157,384.216928 140.068597,384.687111 L137.848708,385.988235 L134.906841,388.069093 L131.16185,391.017012 L126.532589,394.919318 L116.891412,403.476203 L109.552,409.800019 C94.6115766,422.241195 85.3719398,426.673063 71.1111111,426.673063 C55.7532956,426.673063 46.2188743,421.533145 29.1163545,406.785173 L15.6896333,394.919318 L11.0603727,391.017012 L7.31538116,388.069093 C6.20541272,387.235815 5.22929831,386.547048 4.37351377,385.988235 L2.15362563,384.687111 C1.52497669,384.373655 1.00313347,384.175601 0.574571818,384.078393 L-2.13162821e-14,384.006397 L-2.13162821e-14,341.33973 C15.3578155,341.33973 24.8922368,346.479649 41.9947566,361.227621 L55.4214778,373.093475 L60.0507384,376.995781 L63.79573,379.9437 C64.9056984,380.776978 65.8818128,381.465746 66.7375973,382.024558 L68.9574855,383.325682 C69.9004589,383.795866 70.6031194,384.006397 71.1111111,384.006397 C71.6191028,384.006397 72.3217633,383.795866 73.2647367,383.325682 L75.4846249,382.024558 L78.4264923,379.9437 L82.1714838,376.995781 L86.8007444,373.093475 L96.4419214,364.536591 L103.781333,358.212775 C118.721757,345.771599 127.961394,341.33973 142.222222,341.33973 C157.580038,341.33973 167.114459,346.479649 184.216979,361.227621 L197.6437,373.093475 L202.272961,376.995781 L206.017952,379.9437 C207.127921,380.776978 208.104035,381.465746 208.95982,382.024558 L211.179708,383.325682 C212.122681,383.795866 212.825342,384.006397 213.333333,384.006397 C213.841325,384.006397 214.543986,383.795866 215.486959,383.325682 L217.706847,382.024558 C218.134739,381.745152 218.592714,381.433257 219.082462,381.087054 L222.415748,378.583581 C223.03935,378.092868 223.698106,377.564208 224.393706,376.995781 L229.022967,373.093475 L242.449688,361.227621 C259.552208,346.479649 269.086629,341.33973 284.444444,341.33973 C298.705273,341.33973 307.94491,345.771599 322.885333,358.212775 L330.224745,364.536591 L339.865922,373.093475 L344.495183,376.995781 L348.240174,379.9437 L351.182042,382.024558 L353.40193,383.325682 C354.344903,383.795866 355.047564,384.006397 355.555556,384.006397 C356.363464,384.006397 358.596773,382.984085 362.130796,380.490613 L366.093772,377.490131 L369.766678,374.429224 L384.67191,361.227621 C400.552821,347.533075 409.908178,342.123025 423.45996,341.420031 L426.666667,341.33973 Z M426.666667,256.006397 L426.666667,298.673063 C426.158675,298.673063 425.456014,298.883594 424.513041,299.353778 L422.293153,300.654902 C421.865261,300.934308 421.407286,301.246203 420.917538,301.592406 L417.584252,304.095879 C416.96065,304.586592 416.301894,305.115252 415.606294,305.683678 L410.977033,309.585984 L397.365293,321.638555 L392.813332,325.421037 C380.031861,335.687777 368.801445,341.33973 355.555556,341.33973 C341.294727,341.33973 332.05509,336.907861 317.114667,324.466685 L309.775255,318.142869 L300.134078,309.585984 L295.504817,305.683678 L291.759826,302.73576 L288.817958,300.654902 L286.59807,299.353778 C285.655097,298.883594 284.952436,298.673063 284.444444,298.673063 C283.936453,298.673063 283.233792,298.883594 282.290819,299.353778 L280.070931,300.654902 C279.643038,300.934308 279.185064,301.246203 278.695316,301.592406 L275.36203,304.095879 C274.738428,304.586592 274.079672,305.115252 273.384072,305.683678 L268.754811,309.585984 L255.32809,321.451839 C238.22557,336.199811 228.691149,341.33973 213.333333,341.33973 C197.975518,341.33973 188.441097,336.199811 171.338577,321.451839 L157.911856,309.585984 L153.282595,305.683678 L149.537603,302.73576 C148.427635,301.902482 147.451521,301.213714 146.595736,300.654902 L144.375848,299.353778 C143.432874,298.883594 142.730214,298.673063 142.222222,298.673063 C141.714231,298.673063 141.01157,298.883594 140.068597,299.353778 L137.848708,300.654902 L134.906841,302.73576 L131.16185,305.683678 L126.532589,309.585984 L116.891412,318.142869 L109.552,324.466685 C94.6115766,336.907861 85.3719398,341.33973 71.1111111,341.33973 C55.7532956,341.33973 46.2188743,336.199811 29.1163545,321.451839 L15.6896333,309.585984 L11.0603727,305.683678 L7.31538116,302.73576 C6.20541272,301.902482 5.22929831,301.213714 4.37351377,300.654902 L2.15362563,299.353778 C1.52497669,299.040322 1.00313347,298.842268 0.574571818,298.74506 L-2.13162821e-14,298.673063 L-2.13162821e-14,256.006397 C15.3578155,256.006397 24.8922368,261.146315 41.9947566,275.894287 L55.4214778,287.760142 L60.0507384,291.662448 L63.79573,294.610367 C64.9056984,295.443645 65.8818128,296.132412 66.7375973,296.691225 L68.9574855,297.992349 C69.9004589,298.462532 70.6031194,298.673063 71.1111111,298.673063 C71.6191028,298.673063 72.3217633,298.462532 73.2647367,297.992349 L75.4846249,296.691225 L78.4264923,294.610367 L82.1714838,291.662448 L86.8007444,287.760142 L96.4419214,279.203257 L103.781333,272.879441 C118.721757,260.438265 127.961394,256.006397 142.222222,256.006397 C157.580038,256.006397 167.114459,261.146315 184.216979,275.894287 L197.6437,287.760142 L202.272961,291.662448 L206.017952,294.610367 C207.127921,295.443645 208.104035,296.132412 208.95982,296.691225 L211.179708,297.992349 C212.122681,298.462532 212.825342,298.673063 213.333333,298.673063 C213.841325,298.673063 214.543986,298.462532 215.486959,297.992349 L217.706847,296.691225 C218.134739,296.411818 218.592714,296.099923 219.082462,295.75372 L222.415748,293.250248 C223.03935,292.759535 223.698106,292.230874 224.393706,291.662448 L229.022967,287.760142 L242.449688,275.894287 C259.552208,261.146315 269.086629,256.006397 284.444444,256.006397 C298.705273,256.006397 307.94491,260.438265 322.885333,272.879441 L330.224745,279.203257 L339.865922,287.760142 L344.495183,291.662448 L348.240174,294.610367 L351.182042,296.691225 L353.40193,297.992349 C354.344903,298.462532 355.047564,298.673063 355.555556,298.673063 C356.363464,298.673063 358.596773,297.650751 362.130796,295.15728 L366.093772,292.156798 L369.766678,289.095891 L384.67191,275.894287 C400.552821,262.199742 409.908178,256.789691 423.45996,256.086697 L426.666667,256.006397 Z M213.330133,85.2886977 C236.903172,85.2886977 255.996267,66.2053516 255.996267,42.6443489 C255.996267,19.0833461 236.903172,7.10542736e-15 213.330133,7.10542736e-15 C189.757095,7.10542736e-15 170.664,19.0833461 170.664,42.6443489 C170.664,66.2053516 189.757095,85.2886977 213.330133,85.2886977" id="Combined-Shape"></path>
        </g>
    </g>
</svg>