<?xml version="1.0" encoding="UTF-8"?>
<svg width="512px" height="512px" viewBox="0 0 512 512" version="1.1" xmlns="http://www.w3.org/2000/svg" xmlns:xlink="http://www.w3.org/1999/xlink">
    <title>wlan-strength-0</title>
    <g id="Page-1" stroke="none" stroke-width="1" fill="none" fill-rule="evenodd">
        <g id="drop" fill="#000000" transform="translate(107.690667, 128.000000)">
            <path d="M180.309333,266.666667 C180.309333,284.3392 165.973333,298.666667 148.309333,298.666667 C130.645333,298.666667 116.309333,284.3392 116.309333,266.666667 C116.309333,248.994133 130.645333,234.666667 148.309333,234.666667 C165.973333,234.666667 180.309333,248.994133 180.309333,266.666667 Z M190.976,157.582933 L190.976,206.135467 C196.48,210.088533 201.621333,214.496 205.909333,219.739733 L236.309333,189.329067 C224.064,175.396267 208.512,164.5056 190.976,157.582933 L190.976,157.582933 Z M60.3093333,189.329067 L90.7093333,219.739733 C94.9973333,214.496 100.138667,210.088533 105.642667,206.135467 L105.642667,157.582933 C88.1066667,164.503467 72.5546667,175.396267 60.3093333,189.329067 L60.3093333,189.329067 Z M30.144,159.165867 C50.176,137.1776 76.2453333,120.922027 105.642667,112.70848 L105.642667,68.5469867 C64.3626667,77.4845867 27.776,99.1016533 -2.84217094e-14,129.015467 L30.144,159.165867 Z M190.976,68.5469867 L190.976,112.70848 C220.373333,120.922027 246.442667,137.1776 266.474667,159.165867 L296.618667,129.015467 C268.842667,99.1016533 232.256,77.4843733 190.976,68.5469867 Z M169.642667,2.84217094e-14 L126.976,2.84217094e-14 L126.976,208 L169.642667,208 L169.642667,2.84217094e-14 L169.642667,2.84217094e-14 Z" id="Shape"></path>
        </g>
    </g>
</svg>