<?xml version="1.0" encoding="UTF-8"?>
<svg width="512px" height="512px" viewBox="0 0 512 512" version="1.1" xmlns="http://www.w3.org/2000/svg" xmlns:xlink="http://www.w3.org/1999/xlink">
    <title>wlan-strength-2</title>
    <g id="Page-1" stroke="none" stroke-width="1" fill="none" fill-rule="evenodd">
        <g id="drop" fill="#000000" transform="translate(112.768000, 192.000000)">
            <path d="M175.232,202.666667 C175.232,220.3392 160.896,234.666667 143.232,234.666667 C125.568,234.666667 111.232,220.3392 111.232,202.666667 C111.232,184.994133 125.568,170.666667 143.232,170.666667 C160.896,170.666667 175.232,184.994133 175.232,202.666667 Z M60.3093333,119.739733 L90.4533333,149.896533 C103.978667,136.375467 122.645333,128 143.232,128 C163.818667,128 182.485333,136.375467 196.010667,149.896533 L226.154667,119.741867 C204.906667,98.4938667 175.573333,85.3333333 143.232,85.3333333 C110.890667,85.3333333 81.5573333,98.4938667 60.3093333,119.739733 L60.3093333,119.739733 Z M2.84217094e-14,59.4261333 L30.144,89.5808 C59.1146667,60.6101333 99.1146667,42.6666667 143.232,42.6666667 C187.349333,42.6666667 227.349333,60.6101333 256.32,89.5808 L286.464,59.4261333 C249.770667,22.7285333 199.104,5.68434189e-14 143.232,5.68434189e-14 C87.36,5.68434189e-14 36.6933333,22.7285333 2.84217094e-14,59.4261333 L2.84217094e-14,59.4261333 Z" id="Shape"></path>
        </g>
    </g>
</svg>