<?xml version="1.0" encoding="UTF-8"?>
<svg width="512px" height="512px" viewBox="0 0 512 512" version="1.1" xmlns="http://www.w3.org/2000/svg" xmlns:xlink="http://www.w3.org/1999/xlink">
    <title>xml-document</title>
    <g id="Page-1" stroke="none" stroke-width="1" fill="none" fill-rule="evenodd">
        <g id="icon" fill="#000000" transform="translate(62.077867, 42.666667)">
            <path d="M257.922133,7.10542736e-15 L23.2554667,7.10542736e-15 L23.2554667,234.666667 L65.9221333,234.666667 L65.9221333,192 L65.9221333,169.6 L65.9221333,42.6666667 L240.215467,42.6666667 L321.922133,124.373333 L321.922133,169.6 L321.922133,192 L321.922133,234.666667 L364.5888,234.666667 L364.5888,106.666667 L257.922133,7.10542736e-15 L257.922133,7.10542736e-15 Z M95.936,277.568 L65.728,319.338667 L35.904,277.568 L2.34666667,277.568 L47.3813333,339.946667 L-2.13162821e-14,405.696 L34.0693333,405.696 L64.2986667,362.922667 L94.6773333,405.696 L129.472,405.696 L82.3893333,340.672 L128.938667,277.568 L95.936,277.568 Z M231.0848,346.606933 C228.9088,353.284267 226.4128,361.924267 223.575467,372.462933 C220.759467,361.796267 218.263467,353.1776 216.1728,346.606933 L194.0288,277.3376 L151.255467,277.3376 L151.255467,405.4656 L177.922133,405.4656 L177.922133,301.742933 C180.866133,312.7936 183.447467,321.646933 185.602133,328.3456 L210.562133,405.4656 L235.330133,405.4656 L261.015467,326.1696 C263.6608,318.084267 266.0288,309.956267 268.055467,301.742933 L268.055467,405.4656 L295.831467,405.4656 L295.831467,277.3376 L253.527467,277.3376 L231.0848,346.606933 Z M324.951467,277.568 L324.951467,405.696 L408.855467,405.696 L408.855467,383.082667 L353.815467,383.082667 L353.815467,277.568 L324.951467,277.568 Z" id="XLS"></path>
        </g>
    </g>
</svg>