<?xml version="1.0" encoding="UTF-8"?>
<svg width="512px" height="512px" viewBox="0 0 512 512" version="1.1" xmlns="http://www.w3.org/2000/svg" xmlns:xlink="http://www.w3.org/1999/xlink">
    <title>zoom-in</title>
    <g id="Page-1" stroke="none" stroke-width="1" fill="none" fill-rule="evenodd">
        <g id="zoom-in" fill="#000000" transform="translate(42.666667, 42.666667)">
            <path d="M170.666667,7.10542736e-15 C264.768,7.10542736e-15 341.333333,76.5653333 341.333333,170.666667 C341.333333,210.048 327.786667,246.250667 305.322667,275.136 L305.322667,275.136 L426.624,396.458667 L396.458667,426.624 L275.136,305.322667 C246.250667,327.786667 210.048,341.333333 170.666667,341.333333 C76.5653333,341.333333 7.10542736e-15,264.768 7.10542736e-15,170.666667 C7.10542736e-15,76.5653333 76.5653333,7.10542736e-15 170.666667,7.10542736e-15 Z M170.666667,42.6666667 C100.074667,42.6666667 42.6666667,100.074667 42.6666667,170.666667 C42.6666667,241.258667 100.074667,298.666667 170.666667,298.666667 C241.258667,298.666667 298.666667,241.258667 298.666667,170.666667 C298.666667,100.074667 241.258667,42.6666667 170.666667,42.6666667 Z M192,85.3333333 L192,149.333333 L256,149.333333 L256,192 L192,192 L192,256 L149.333333,256 L149.333333,192 L85.3333333,192 L85.3333333,149.333333 L149.333333,149.333333 L149.333333,85.3333333 L192,85.3333333 Z"></path>
        </g>
    </g>
</svg>