<?xml version="1.0" encoding="UTF-8"?>
<svg width="512px" height="512px" viewBox="0 0 512 512" version="1.1" xmlns="http://www.w3.org/2000/svg" xmlns:xlink="http://www.w3.org/1999/xlink">
    <title>zoom-selection</title>
    <g id="Page-1" stroke="none" stroke-width="1" fill="none" fill-rule="evenodd">
        <g id="zoom-out" fill="#000000" transform="translate(64.000000, 64.000000)">
            <path d="M202.666667,106.666667 C267.468077,106.666667 320,159.198589 320,224 C320,248.693232 312.372008,271.60485 299.343845,290.507034 L380.561809,371.725253 L350.391919,401.895142 L269.173594,320.677252 C250.271431,333.70537 227.359852,341.333333 202.666667,341.333333 C137.865256,341.333333 85.3333333,288.801411 85.3333333,224 C85.3333333,159.198589 137.865256,106.666667 202.666667,106.666667 Z M202.666667,149.333333 C161.429405,149.333333 128,182.762739 128,224 C128,265.237261 161.429405,298.666667 202.666667,298.666667 C243.903928,298.666667 277.333333,265.237261 277.333333,224 C277.333333,182.762739 243.903928,149.333333 202.666667,149.333333 Z M384,213.333333 L384,277.333333 L341.333333,277.333333 L341.333333,213.333333 L384,213.333333 Z M42.6666667,213.333333 L42.6666667,234.666667 L64,234.666667 L64,277.333333 L-1.42108547e-14,277.333333 L-1.42108547e-14,213.333333 L42.6666667,213.333333 Z M42.6666667,106.666667 L42.6666667,170.666667 L-1.42108547e-14,170.666667 L-1.42108547e-14,106.666667 L42.6666667,106.666667 Z M384,106.666667 L384,170.666667 L341.333333,170.666667 L341.333333,106.666667 L384,106.666667 Z M384,2.91239196e-11 L384,64 L341.333333,64 L341.333333,42.6666667 L320,42.6666667 L320,2.9112163e-11 L384,2.91239196e-11 Z M64,1.42108547e-14 L64,42.6666667 L42.6666667,42.6666667 L42.6666667,64 L-1.42108547e-14,64 L-1.42108547e-14,1.42108547e-14 L64,1.42108547e-14 Z M277.333333,9.71189208e-12 L277.333333,42.6666667 L213.333333,42.6666667 L213.333333,9.70013547e-12 L277.333333,9.71189208e-12 Z M170.666667,8.73257022e-11 L170.666667,42.6666667 L106.666667,42.6666667 L106.666667,8.73257022e-11 L170.666667,8.73257022e-11 Z" id="Combined-Shape"></path>
        </g>
    </g>
</svg>