<?xml version="1.0" encoding="UTF-8"?>
<svg width="512px" height="512px" viewBox="0 0 512 512" version="1.1" xmlns="http://www.w3.org/2000/svg" xmlns:xlink="http://www.w3.org/1999/xlink">
    <title>add-eye</title>
    <g id="Page-1" stroke="none" stroke-width="1" fill="none" fill-rule="evenodd">
        <g id="icon" fill="#000000" transform="translate(42.666667, 85.333333)">
            <path d="M384,234.666667 L383.999333,298.666667 L448,298.666667 L448,341.333333 L383.999333,341.332667 L384,405.333333 L341.333333,405.333333 L341.332333,341.332667 L277.333333,341.333333 L277.333333,298.666667 L341.332333,298.666667 L341.333333,234.666667 L384,234.666667 Z M213.333333,1.42108547e-14 C362.666667,1.42108547e-14 426.666667,170.666667 426.666667,170.666667 C426.666667,170.666667 419.806465,188.960536 405.337387,213.569457 L405.333333,213.333333 L354.651041,213.332518 C366.256821,196.877829 374.660833,181.433195 379.954347,170.658773 C361.9296,133.970133 307.595093,42.6666667 213.333333,42.6666667 C119.114667,42.6666667 64.7850667,133.88928 46.7136,170.67328 C64.7370667,207.3632 119.071573,298.666667 213.333333,298.666667 C228.597918,298.666667 242.815495,296.272256 256.00151,292.102854 L256.001906,336.459743 C242.635306,339.59149 228.419781,341.333333 213.333333,341.333333 C64,341.333333 3.55271368e-14,170.666667 3.55271368e-14,170.666667 C3.55271368e-14,170.666667 64,1.42108547e-14 213.333333,1.42108547e-14 Z M213.333333,96 C254.57024,96 288,129.42976 288,170.666667 C288,211.903573 254.57024,245.333333 213.333333,245.333333 C172.096427,245.333333 138.666667,211.903573 138.666667,170.666667 C138.666667,129.42976 172.096427,96 213.333333,96 Z M213.333333,138.666667 C195.688747,138.666667 181.333333,153.02208 181.333333,170.666667 C181.333333,188.311253 195.688747,202.666667 213.333333,202.666667 C230.97792,202.666667 245.333333,188.311253 245.333333,170.666667 C245.333333,153.02208 230.97792,138.666667 213.333333,138.666667 Z" id="Combined-Shape"></path>
        </g>
    </g>
</svg>