<?xml version="1.0" encoding="UTF-8"?>
<svg width="512px" height="512px" viewBox="0 0 512 512" version="1.1" xmlns="http://www.w3.org/2000/svg" xmlns:xlink="http://www.w3.org/1999/xlink">
    <title>alarm-bell-cancelled</title>
    <g id="Page-1" stroke="none" stroke-width="1" fill="none" fill-rule="evenodd">
        <g id="drop" fill="#000000" transform="translate(59.581722, 42.666667)">
            <path d="M392.836561,379.581717 L362.666662,409.751616 L294.248,341.333 L281.751611,341.333333 C281.751611,387.990349 244.306857,425.901674 197.829421,426.655234 L196.418278,426.666667 C149.761262,426.666667 111.849938,389.221912 111.096377,342.744476 L111.084945,341.333333 L4.418278,341.333333 L47.0849447,219.52 L47.0849447,170.666667 C47.0849447,147.563444 51.0934845,125.535996 58.3606158,105.444095 L-2.84217094e-14,47.0849493 L30.169894,16.9150553 L78.7580596,65.5041384 C78.7582875,65.5038057 78.7585154,65.503473 78.7587433,65.5031403 L95.111,81.857 L311.921278,298.666 L392.836561,379.581717 Z M239.084945,341.333333 L153.751611,341.333333 C153.751611,364.897483 172.854129,384 196.418278,384 C219.982427,384 239.084945,364.897483 239.084945,341.333333 Z M196.418278,3.55271368e-14 C207.650729,0.712633806 218.754642,2.79014004 229.484945,6.18666667 C297.913745,21.8154667 344.806481,94.5252907 345.737493,174.429833 L345.751611,176.853333 L345.751611,219.52 L374.127278,300.532 L304.508278,230.913 L303.084945,226.773333 L303.084945,175.786667 C303.084945,113.28 267.031611,57.1733333 219.244945,45.44 C211.778078,43.5856735 204.111943,42.6542739 196.418278,42.6665446 C174.660472,42.6665446 154.41747,50.502763 137.540796,63.9469012 L107.279156,33.6847249 C132.147318,12.5217631 162.988649,3.55271368e-14 196.418278,3.55271368e-14 Z M251.581,298.666 L92.852412,139.937162 C90.8888107,149.480538 89.8186593,159.443335 89.7546608,169.689914 L89.7516113,170.666667 L89.7516113,226.773333 L87.4049447,234.666667 L64.578278,298.666667 L251.581,298.666 Z" id="Combined-Shape"></path>
        </g>
    </g>
</svg>