<?xml version="1.0" encoding="UTF-8"?>
<svg width="512px" height="512px" viewBox="0 0 512 512" version="1.1" xmlns="http://www.w3.org/2000/svg" xmlns:xlink="http://www.w3.org/1999/xlink">
    <title>cloud-download-add</title>
    <g id="Page-1" stroke="none" stroke-width="1" fill="none" fill-rule="evenodd">
        <g id="icon" fill="#000000" transform="translate(42.666667, 42.666667)">
            <path d="M384,277.333333 L383.999333,341.333333 L448,341.333333 L448,384 L383.999333,383.999333 L384,448 L341.333333,448 L341.333333,383.999333 L277.333333,384 L277.333333,341.333333 L341.333333,341.333333 L341.333333,277.333333 L384,277.333333 Z M217.6,7.10542736e-15 C267.673817,7.10542736e-15 308.266667,40.4091713 308.266667,90.2564103 L308.238533,92.5271116 C339.530656,100.522116 362.666667,128.802201 362.666667,162.461538 C362.666667,201.130912 332.130705,232.700501 293.753478,234.5783 L290.133333,234.666667 L170.666,234.666 L170.666,311.152 L213.333333,268.496777 L243.503223,298.666667 L149.333333,392.836556 L55.163444,298.666667 L85.3333333,268.496777 L127.999,311.151 L127.999,234.666 L90.6666667,234.666667 L90.6737982,234.262569 C39.8381256,229.705894 -4.97379915e-14,187.17655 -4.97379915e-14,135.384615 C-4.97379915e-14,80.5526525 44.6521343,36.1025641 99.7333333,36.1025641 C113.888474,36.1025641 127.354856,39.0381462 139.551646,44.3311054 C155.319169,17.7935257 184.372189,7.10542736e-15 217.6,7.10542736e-15 Z M216,42.6666667 C198.555555,42.6666667 182.649081,50.9304373 173.064324,64.3673461 L171.233079,67.1227873 L155.632566,92.3697704 L127.541636,80.6480364 C119.98966,77.4967613 111.813832,75.849636 103.333333,75.849636 C69.8280585,75.849636 42.6666667,101.848548 42.6666667,133.919832 C42.6666667,162.983078 65.0845658,187.340766 94.5942049,191.396203 L97.7823906,191.752317 L100.646667,191.990029 L284.48354,192 L287.091869,191.94882 C305.464412,191.084414 320,176.51219 320,158.807059 C320,144.470813 310.408689,131.949588 296.649098,127.422971 L294.021652,126.669425 L267.302724,120.105321 L268,92.4411207 C268,64.9514488 244.718807,42.6666667 216,42.6666667 Z" id="Combined-Shape"></path>
        </g>
    </g>
</svg>