<?xml version="1.0" encoding="UTF-8"?>
<svg width="512px" height="512px" viewBox="0 0 512 512" version="1.1" xmlns="http://www.w3.org/2000/svg" xmlns:xlink="http://www.w3.org/1999/xlink">
    <title>cloud-new-filled</title>
    <g id="Page-1" stroke="none" stroke-width="1" fill="none" fill-rule="evenodd">
        <g id="cloud-new-filled" transform="translate(0.000000, 0.000000)" fill="#000000">
            <g id="icon" transform="translate(42.666667, 64.000000)">
                <path d="M213.333333,170.666667 C272.243707,170.666667 320,218.42296 320,277.333333 C320,336.243707 272.243707,384 213.333333,384 C154.42296,384 106.666667,336.243707 106.666667,277.333333 C106.666667,218.42296 154.42296,170.666667 213.333333,170.666667 Z M234.666667,213.333333 L192,213.333333 L191.999333,255.999333 L149.333333,256 L149.333333,298.666667 L191.999333,298.666333 L192,341.333333 L234.666667,341.333333 L234.666333,298.666333 L277.333333,298.666667 L277.333333,256 L234.666333,255.999333 L234.666667,213.333333 Z M256,7.10542736e-15 C314.910373,7.10542736e-15 362.666667,47.7562934 362.666667,106.666667 L362.633568,109.350223 C399.447831,118.798865 426.666667,152.220782 426.666667,192 C426.666667,237.700168 390.742006,275.009683 345.592327,277.2289 L341.333333,277.333333 C341.333333,206.640885 284.025781,149.333333 213.333333,149.333333 C144.112971,149.333333 87.7258605,204.279013 85.4074877,272.934884 C36.1214754,259.032956 3.55271368e-14,213.73479 3.55271368e-14,160 C3.55271368e-14,95.1985894 52.5319227,42.6666667 117.333333,42.6666667 C133.98644,42.6666667 149.829242,46.1359909 164.178407,52.3913064 C182.728434,21.0287122 216.908457,7.10542736e-15 256,7.10542736e-15 Z" id="Combined-Shape"></path>
            </g>
        </g>
    </g>
</svg>