<?xml version="1.0" encoding="UTF-8"?>
<svg width="512px" height="512px" viewBox="0 0 512 512" version="1.1" xmlns="http://www.w3.org/2000/svg" xmlns:xlink="http://www.w3.org/1999/xlink">
    <title>cloud-new</title>
    <g id="Page-1" stroke="none" stroke-width="1" fill="none" fill-rule="evenodd">
        <g id="icon" fill="#000000" transform="translate(42.666667, 64.000000)">
            <path d="M213.333333,160 C278.134744,160 330.666667,212.531923 330.666667,277.333333 C330.666667,342.134744 278.134744,394.666667 213.333333,394.666667 C148.531923,394.666667 96,342.134744 96,277.333333 C96,212.531923 148.531923,160 213.333333,160 Z M213.333333,192 C166.205035,192 128,230.205035 128,277.333333 C128,324.461632 166.205035,362.666667 213.333333,362.666667 C260.461632,362.666667 298.666667,324.461632 298.666667,277.333333 C298.666667,230.205035 260.461632,192 213.333333,192 Z M234.666667,213.333333 L234.666,256 L277.333333,256 L277.333333,298.666667 L234.666,298.666 L234.666667,341.333333 L192,341.333333 L192,298.666 L149.333333,298.666667 L149.333333,256 L192,256 L192,213.333333 L234.666667,213.333333 Z M256,-1.42108547e-14 C314.910373,-1.42108547e-14 362.666667,47.7562934 362.666667,106.666667 L362.633568,109.350223 C399.447831,118.798865 426.666667,152.220782 426.666667,192 C426.666667,235.082192 394.740067,270.707528 353.25581,276.507065 L351.997,276.673 L351.99509,276.154048 C351.874051,261.62385 349.51821,247.626517 345.25447,234.488952 C367.027918,232.525519 384,214.173566 384,192 C384,173.566453 372.19531,157.466659 355.260429,151.646334 L352.026648,150.677426 L319.141815,142.2373 L320,106.666667 C320,71.3204427 291.346224,42.6666667 256,42.6666667 C234.529914,42.6666667 214.952715,53.2922241 203.156091,70.5694033 L200.902251,74.11235 L181.701619,106.574924 L147.128167,91.5031172 C137.833428,87.4512072 127.770871,85.3333333 117.333333,85.3333333 C76.096072,85.3333333 42.6666667,118.762739 42.6666667,160 C42.6666667,189.167484 59.4753743,214.649036 84.1235808,226.909009 C78.9281143,240.202325 75.7285351,254.495019 74.8887698,269.418379 C31.0680334,252.412577 3.55271368e-14,209.834453 3.55271368e-14,160 C3.55271368e-14,95.1985894 52.5319227,42.6666667 117.333333,42.6666667 C133.98644,42.6666667 149.829242,46.1359909 164.178407,52.3913064 C182.728434,21.0287122 216.908457,-1.42108547e-14 256,-1.42108547e-14 Z" id="Combined-Shape"></path>
        </g>
    </g>
</svg>