<?xml version="1.0" encoding="UTF-8"?>
<svg width="512px" height="512px" viewBox="0 0 512 512" version="1.1" xmlns="http://www.w3.org/2000/svg" xmlns:xlink="http://www.w3.org/1999/xlink">
    <title>combine</title>
    <g id="Page-1" stroke="none" stroke-width="1" fill="none" fill-rule="evenodd">
        <g id="Combined-Shape" fill="#000000" transform="translate(42.666667, 85.333333)">
            <path d="M149.333333,1.42108547e-14 L149.333,85.333 L106.666,85.333 L106.666667,42.6666667 L42.6666667,42.6666667 L42.6666667,298.666667 L106.666667,298.666667 L106.666,256 L149.333,256 L149.333333,341.333333 L3.55271368e-14,341.333333 L3.55271368e-14,1.42108547e-14 L149.333333,1.42108547e-14 Z M426.666667,1.42108547e-14 L426.666667,341.333333 L277.333333,341.333333 L277.333333,256 L319.999333,256 L320,298.666667 L384,298.666667 L384,42.6666667 L320,42.6666667 L319.999333,85.333 L277.333333,85.333 L277.333333,1.42108547e-14 L426.666667,1.42108547e-14 Z M234.666667,64 L234.666,149.333 L320,149.333333 L320,192 L234.666,192 L234.666667,277.333333 L192,277.333333 L192,192 L106.666667,192 L106.666667,149.333333 L192,149.333 L192,64 L234.666667,64 Z"></path>
        </g>
    </g>
</svg>