<?xml version="1.0" encoding="UTF-8"?>
<svg width="512px" height="512px" viewBox="0 0 512 512" version="1.1" xmlns="http://www.w3.org/2000/svg" xmlns:xlink="http://www.w3.org/1999/xlink">
    <title>connector-chart-filled</title>
    <g id="Page-1" stroke="none" stroke-width="1" fill="none" fill-rule="evenodd">
        <g id="drop" fill="#000000" transform="translate(64.000000, 64.000000)">
            <path d="M277.333333,1.42108547e-14 L277.333333,213.333333 L138.666667,213.333333 L138.666667,277.333333 C138.666667,288.273831 146.902193,297.290819 157.512085,298.523142 L160,298.666667 L194.68864,298.665629 C204.067181,262.229351 236.905995,235.21152 276.14241,234.674807 L277.333333,234.666667 L341.333333,234.666667 L341.333,266.666 L405.333333,266.666667 L405.333333,298.666667 L341.333,298.666 L341.333,341.333 L405.333333,341.333333 L405.333333,373.333333 L341.333,373.333 L341.333333,405.333333 L277.333333,405.333333 C237.571799,405.333333 204.161914,378.138692 194.68864,341.334371 L160,341.333333 C125.916141,341.333333 98.0552411,314.689707 96.1086507,281.093819 L96,277.333333 L96,213.333333 L-1.42108547e-14,213.333333 L-1.42108547e-14,1.42108547e-14 L277.333333,1.42108547e-14 Z M181.333333,42.6666667 L149.333333,42.6666667 L149.333333,170.666667 L181.333333,170.666667 L181.333333,42.6666667 Z M245.333333,64 L213.333333,64 L213.333333,170.666667 L245.333333,170.666667 L245.333333,64 Z M117.333333,85.3333333 L85.3333333,85.3333333 L85.3333333,170.666667 L117.333333,170.666667 L117.333333,85.3333333 Z M53.3333333,21.3333333 L21.3333333,21.3333333 L21.3333333,170.666667 L53.3333333,170.666667 L53.3333333,21.3333333 Z" id="Combined-Shape"></path>
        </g>
    </g>
</svg>