<?xml version="1.0" encoding="UTF-8"?>
<svg width="512px" height="512px" viewBox="0 0 512 512" version="1.1" xmlns="http://www.w3.org/2000/svg" xmlns:xlink="http://www.w3.org/1999/xlink">
    <title>data-ingress</title>
    <g id="Page-1" stroke="none" stroke-width="1" fill="none" fill-rule="evenodd">
        <g id="add" fill="#000000" transform="translate(64.000000, 85.333333)">
            <path d="M256,1.42108547e-14 L405.333333,85.3333333 L405.333333,256 L256,341.333333 L106.666667,256 L106.666667,213.333 L149.757667,213.333 L149.758313,231.338667 L256,292.053333 L362.220133,231.338667 L362.220133,109.973333 L256,49.2586667 L149.758313,109.973333 L149.757667,128 L106.666667,128 L106.666667,85.3333333 L256,1.42108547e-14 Z M228.418278,91.581722 L307.503223,170.666667 L228.418278,249.751611 L198.248389,219.581722 L225.819,192 L0,192 L0,149.333333 L225.82,149.333 L198.248389,121.751611 L228.418278,91.581722 Z" id="Combined-Shape"></path>
        </g>
    </g>
</svg>