<?xml version="1.0" encoding="UTF-8"?>
<svg width="512px" height="512px" viewBox="0 0 512 512" version="1.1" xmlns="http://www.w3.org/2000/svg" xmlns:xlink="http://www.w3.org/1999/xlink">
    <title>disk-pen</title>
    <g id="Page-1" stroke="none" stroke-width="1" fill="none" fill-rule="evenodd">
        <g id="icon" fill="#000000" transform="translate(64.000000, 85.333333)">
            <path d="M243.498667,5.33333333 L265.998,27.833 L213.333,80.497 L213.333333,48 L128,48 L128,112.021333 L181.808,112.021 L149.333333,144.496777 L149.333,154.666 L85.3333333,154.666667 L85.3333333,48 L42.6666667,48 L42.6666667,304 L85.3333333,304 L85.3333333,197.333333 L149.333,197.333 L149.333333,240 L128,240 L128,304.021333 L213.333333,304.021333 L213.333333,240 L244.836556,240 L256,228.835 L256,304 L298.666667,304 L298.666,186.169 L341.333,143.503 L341.333333,346.666667 L-1.42108547e-14,346.666667 L-1.42108547e-14,5.33333333 L243.498667,5.33333333 Z M324,1.42108547e-14 L389.333333,65.3333333 L236,218.666667 L170.666667,218.666667 L170.666667,153.333333 L324,1.42108547e-14 Z M282.637667,86.598 L202.666667,166.570667 L202.666667,186.666667 L222.72,186.666667 L302.712667,106.673 L282.637667,86.598 Z M323.989333,45.248 L305.265667,63.971 L325.339667,84.046 L344.064,65.3226667 L323.989333,45.248 Z" id="Combined-Shape"></path>
        </g>
    </g>
</svg>