<?xml version="1.0" encoding="UTF-8"?>
<svg width="512px" height="512px" viewBox="0 0 512 512" version="1.1" xmlns="http://www.w3.org/2000/svg" xmlns:xlink="http://www.w3.org/1999/xlink">
    <title>drop</title>
    <g id="Page-1" stroke="none" stroke-width="1" fill="none" fill-rule="evenodd">
        <g id="Combined-Shape" fill="#000000" transform="translate(85.881723, 40.292433)">
            <path d="M170.119434,7.10542736e-15 L204.773382,37.9140093 L232.862996,69.0528903 L247.665579,85.7024895 L265.015621,105.5376 L272.669784,114.444537 L285.940901,130.243125 L294.115233,140.333376 L298.719332,146.224969 C332.953167,190.823735 348.741952,247.415646 335.715414,299.662237 C316.639677,376.17084 247.895879,429.140402 169.758386,429.074978 L169.758386,429.074978 L163.950478,428.968915 C88.5349332,426.271414 23.075063,373.974216 4.5470056,299.662237 C-8.48369509,247.398951 7.30173587,190.790811 41.5491001,146.217139 L41.5491001,146.217139 L48.7161669,137.126874 L57.4043039,126.532512 L71.3602238,110.05957 L83.6101872,95.9389492 L97.3920742,80.2999168 L112.709141,63.1381777 L135.525581,37.8797806 L170.119434,7.10542736e-15 Z M170.118277,63.2382337 L144.749864,91.3175391 L125.013984,113.466883 L104.184497,137.326074 L90.6023423,153.339316 L79.7673683,166.60924 L75.3824188,172.21235 C48.5282246,207.163654 36.3479426,250.843368 45.9462899,289.340236 C59.8428233,345.076187 108.948411,384.307622 165.085876,386.319141 L165.085876,386.319141 L170.148532,386.411136 C228.439195,386.457923 280.00945,346.721192 294.316129,289.340236 C303.91031,250.86008 291.725454,207.185768 264.873988,172.20452 L264.873988,172.20452 L260.468445,166.570993 L252.555653,156.818327 L243.080232,145.506431 L228.020917,128.005478 L214.911368,113.071224 L195.017757,90.755249 L170.118277,63.2382337 Z M255.45161,258.374234 C255.45161,305.5209 217.264943,343.707567 170.118277,343.707567 L170.118277,343.707567 L170.118277,301.0409 C193.584943,301.0409 212.784943,281.8409 212.784943,258.374234 L212.784943,258.374234 Z"></path>
        </g>
    </g>
</svg>