<?xml version="1.0" encoding="UTF-8"?>
<svg width="512px" height="512px" viewBox="0 0 512 512" version="1.1" xmlns="http://www.w3.org/2000/svg" xmlns:xlink="http://www.w3.org/1999/xlink">
    <title>inquiry-filled</title>
    <g id="Page-1" stroke="none" stroke-width="1" fill="none" fill-rule="evenodd">
        <g id="inquiry-" fill="#000000" transform="translate(64.000000, 85.333333)">
            <path d="M384,1.42108547e-14 L384,298.666667 L277.333333,298.666667 L277.333333,384 L147.2,298.666667 L1.42108547e-14,298.666667 L1.42108547e-14,1.42108547e-14 L384,1.42108547e-14 Z M192.935,201.066667 C186.101632,201.066667 180.435023,203.295811 175.935,207.754167 C171.434978,212.212522 169.185,217.774967 169.185,224.441667 C169.185,231.441702 171.393311,237.191644 175.81,241.691667 C180.226689,246.191689 185.934965,248.441667 192.935,248.441667 C199.768368,248.441667 205.414144,246.191689 209.8725,241.691667 C214.330856,237.191644 216.56,231.5667 216.56,224.816667 C216.56,217.983299 214.330856,212.316689 209.8725,207.816667 C205.414144,203.316644 199.768368,201.066667 192.935,201.066667 Z M202.185,65.0666667 C183.601574,65.0666667 165.060093,69.8999517 146.56,79.5666667 L146.56,79.5666667 L157.685,107.316667 C172.768409,98.7332904 185.64328,94.4416667 196.31,94.4416667 C202.810033,94.4416667 207.955814,96.004151 211.7475,99.1291667 C215.539186,102.254182 217.435,106.483307 217.435,111.816667 C217.435,116.066688 216.080847,119.774984 213.3725,122.941667 C211.34124,125.316679 207.493614,128.58228 201.829549,132.738531 L201.829549,132.738531 L188.419684,142.338357 C187.103359,143.316246 185.967309,144.18359 185.011529,144.940391 L185.011529,144.940391 L182.685,146.879167 C180.601656,148.754176 178.935006,150.899988 177.685,153.316667 C175.518323,157.483354 174.435,164.85828 174.435,175.441667 L174.435,175.441667 L174.435,186.441667 L211.31,186.441667 L211.31,181.316667 C211.31,173.733295 212.268324,168.462515 214.185,165.504167 C216.101676,162.545819 221.226667,158.275028 229.56,152.691667 L229.56,152.691667 L233.497515,149.997322 C242.320454,143.767492 248.591231,137.936485 252.31,132.504167 C256.560021,126.295802 258.685,118.81671 258.685,110.066667 C258.685,97.1499354 254.310044,86.6500404 245.56,78.5666667 C235.643284,69.5666217 221.185095,65.0666667 202.185,65.0666667 Z" id="Combined-Shape"></path>
        </g>
    </g>
</svg>