<?xml version="1.0" encoding="UTF-8"?>
<svg width="512px" height="512px" viewBox="0 0 512 512" version="1.1" xmlns="http://www.w3.org/2000/svg" xmlns:xlink="http://www.w3.org/1999/xlink">
    <title>inquiry-mail</title>
    <g id="Page-1" stroke="none" stroke-width="1" fill="none" fill-rule="evenodd">
        <g id="Combined-Shape" fill="#000000" transform="translate(64.000000, 42.622744)">
            <path d="M165.038,106.71 L156.772032,113.05581 L156.191363,113.585364 C151.004556,118.377839 146.876423,123.885164 143.786922,130.092721 C141.51654,134.630213 139.592628,141.02803 138.309261,149.377248 L80,149.377256 L150.11448,209.47533 C141.366891,219.139172 136.843212,230.90732 136.843212,244.908876 C136.843212,247.503027 136.988305,250.014916 137.275115,252.446011 L42.6666667,170.710589 L42.6666667,362.710589 L341.333333,362.710589 L341.333333,170.710589 L242.592094,256.016904 C243.201772,252.637604 243.509878,249.104725 243.509878,245.415472 C243.509878,231.969501 239.477066,220.644723 231.777234,211.283609 L304,149.377256 L263.368151,149.37771 C277.809561,138.431104 287.979291,127.989133 294.288724,118.41053 C296.719678,114.720001 298.832043,110.821517 300.611881,106.710516 L384,106.710589 L384,405.377256 L1.42108547e-14,405.377256 L1.42108547e-14,106.710589 L165.038,106.71 Z M193.310118,298.593378 L192,299.723922 L190.772231,298.662413 C191.626926,298.655851 192.472874,298.632807 193.310118,298.593378 Z M192.087825,213.333333 C201.319182,213.333333 208.946194,216.372881 214.969092,222.452067 C220.991989,228.531253 224.003392,236.186409 224.003392,245.417766 C224.003392,254.536545 220.991989,262.135414 214.969092,268.2146 C208.946194,274.293786 201.319182,277.333333 192.087825,277.333333 C182.631313,277.333333 174.919869,274.293786 168.953261,268.2146 C162.986652,262.135414 160.003392,254.367681 160.003392,244.91117 C160.003392,235.904968 163.04294,228.390531 169.122126,222.367634 C175.201312,216.344737 182.856469,213.333333 192.087825,213.333333 Z M202.004136,7.10542736e-15 C230.924384,7.10542736e-15 252.931349,7.11836342 268.025689,21.3553038 C281.344225,34.1421855 288.003392,50.7517001 288.003392,71.184346 C288.003392,85.0258159 284.768939,96.8567995 278.299936,106.677652 C272.639559,115.270898 263.094741,124.494818 249.665251,134.349625 L243.671917,138.61174 C230.987661,147.443916 223.186858,154.199771 220.269465,158.879506 C217.352071,163.559241 215.893396,171.896953 215.893396,183.892894 L215.893396,192 L159.765563,192 L159.765563,174.599382 C159.765563,157.857795 161.414499,146.191588 164.712423,139.600412 C166.61507,135.77753 169.151896,132.383125 172.322976,129.417096 L175.864212,126.350196 C177.319014,125.153033 179.048209,123.781003 181.0518,122.234105 L201.463099,107.048386 C210.084435,100.47372 215.940947,95.3079488 219.03275,91.5509784 C223.155153,86.5416845 225.216324,80.6756258 225.216324,73.9526262 C225.216324,65.5159207 222.330685,58.8259773 216.55932,53.8825953 C210.787954,48.9392132 202.955504,46.4675592 193.061735,46.4675592 C176.825806,46.4675592 157.228826,53.2563688 134.270208,66.8341916 L117.336726,22.9371782 C145.495915,7.6456496 173.718103,7.10542736e-15 202.004136,7.10542736e-15 Z"></path>
        </g>
    </g>
</svg>