<?xml version="1.0" encoding="UTF-8"?>
<svg width="512px" height="512px" viewBox="0 0 512 512" version="1.1" xmlns="http://www.w3.org/2000/svg" xmlns:xlink="http://www.w3.org/1999/xlink">
    <title>location</title>
    <g id="Page-1" stroke="none" stroke-width="1" fill="none" fill-rule="evenodd">
        <g id="Combined-Shape" fill="#000000" transform="translate(106.666667, 42.666667)">
            <path d="M149.333333,7.10542736e-15 C231.807856,7.10542736e-15 298.666667,66.8588107 298.666667,149.333333 C298.666667,174.270044 292.571852,197.766489 281.750846,218.441128 L149.333333,448 L19.9831547,224.008666 C7.25333333,202.026667 2.84217094e-14,176.537017 2.84217094e-14,149.333333 C2.84217094e-14,66.8588107 66.8588107,7.10542736e-15 149.333333,7.10542736e-15 Z M149.333333,42.6666667 C90.42296,42.6666667 42.6666667,90.42296 42.6666667,149.333333 C42.6666667,166.273109 46.5745408,182.526914 53.969702,197.200195 L57.5535689,203.746216 L149.333333,362.666667 L241.761134,202.626841 C251.054097,186.579648 256,168.390581 256,149.333333 C256,90.42296 208.243707,42.6666667 149.333333,42.6666667 Z M149.333333,85.3333333 C184.679557,85.3333333 213.333333,113.987109 213.333333,149.333333 C213.333333,184.679557 184.679557,213.333333 149.333333,213.333333 C113.987109,213.333333 85.3333333,184.679557 85.3333333,149.333333 C85.3333333,113.987109 113.987109,85.3333333 149.333333,85.3333333 Z M149.333333,128 C137.551259,128 128,137.551259 128,149.333333 C128,161.115408 137.551259,170.666667 149.333333,170.666667 C161.115408,170.666667 170.666667,161.115408 170.666667,149.333333 C170.666667,137.551259 161.115408,128 149.333333,128 Z"></path>
        </g>
    </g>
</svg>