<?xml version="1.0" encoding="UTF-8"?>
<svg width="512px" height="512px" viewBox="0 0 512 512" version="1.1" xmlns="http://www.w3.org/2000/svg" xmlns:xlink="http://www.w3.org/1999/xlink">
    <title>maintenance-info</title>
    <g id="Page-1" stroke="none" stroke-width="1" fill="none" fill-rule="evenodd">
        <g id="Combined-Shape" fill="#000000" transform="translate(42.666667, 58.666667)">
            <path d="M117.333333,48 C182.134744,48 234.666667,100.531923 234.666667,165.333333 C234.666667,177.516512 232.809822,189.266001 229.363697,200.314237 L346.710217,317.661885 C367.98629,338.937958 367.98629,373.433288 346.710217,394.709361 C325.434144,415.985434 290.938814,415.985434 269.662741,394.709361 L152.315234,277.363386 C141.266709,280.80971 129.516879,282.666667 117.333333,282.666667 C52.5319227,282.666667 7.10542736e-15,230.134744 7.10542736e-15,165.333333 C7.10542736e-15,152.827953 1.95635722,140.779505 5.57971243,129.477348 L61.0818825,184.888889 L111.319797,168.156815 C112.394454,166.856793 113.540203,165.595781 114.757044,164.37894 L116.379797,162.756188 C117.593198,161.542787 118.85052,160.400077 120.146646,159.328057 L136.888889,109.149054 L81.3212183,53.6298873 C92.6685218,49.9744211 104.770352,48 117.333333,48 Z M384,90.6666667 L384,218.666667 L341.333333,218.666667 L341.333333,90.6666667 L384,90.6666667 Z M362.666667,1.42108547e-14 C377.39426,1.42108547e-14 389.333333,11.9390733 389.333333,26.6666667 C389.333333,41.39426 377.39426,53.3333333 362.666667,53.3333333 C347.939073,53.3333333 336,41.39426 336,26.6666667 C336,11.9390733 347.939073,1.42108547e-14 362.666667,1.42108547e-14 Z"></path>
        </g>
    </g>
</svg>