<?xml version="1.0" encoding="UTF-8"?>
<svg width="512px" height="512px" viewBox="0 0 512 512" version="1.1" xmlns="http://www.w3.org/2000/svg" xmlns:xlink="http://www.w3.org/1999/xlink">
    <title>microphone</title>
    <g id="Page-1" stroke="none" stroke-width="1" fill="none" fill-rule="evenodd">
        <g id="icon" fill="#000000" transform="translate(85.333333, 42.666667)">
            <path d="M42.6666667,170.666667 C42.6666667,183.68 47.1466667,298.666667 170.666667,298.666667 C294.186667,298.666667 298.666667,183.68 298.666667,170.666667 L298.666667,170.666667 L341.333333,170.666667 C341.333333,226.346667 309.333333,328.96 192,341.333333 L192,341.333333 L192,426.666667 L149.333333,426.666667 L149.333333,341.333333 C32,328.96 1.42108547e-14,226.346667 1.42108547e-14,170.666667 L1.42108547e-14,170.666667 Z M170.666667,7.10542736e-15 C211.903928,7.10542736e-15 245.333333,33.4294053 245.333333,74.6666667 L245.333333,74.6666667 L245.333333,181.333333 C245.333333,222.570595 211.903928,256 170.666667,256 C150.863835,256 131.872077,248.133356 117.86936,234.13064 C103.866644,220.127923 96,201.136165 96,181.333333 L96,181.333333 L96,74.6666667 C96,33.4294053 129.429405,7.10542736e-15 170.666667,7.10542736e-15 Z M170.666667,42.6666667 C152.993555,42.6666667 138.666667,56.9935547 138.666667,74.6666667 L138.666667,74.6666667 L138.666667,181.333333 C138.666667,199.006445 152.993555,213.333333 170.666667,213.333333 C188.339779,213.333333 202.666667,199.006445 202.666667,181.333333 L202.666667,181.333333 L202.666667,74.6666667 C202.666667,56.9935547 188.339779,42.6666667 170.666667,42.6666667 Z" id="voice"></path>
        </g>
    </g>
</svg>