<?xml version="1.0" encoding="UTF-8"?>
<svg width="512px" height="512px" viewBox="0 0 512 512" version="1.1" xmlns="http://www.w3.org/2000/svg" xmlns:xlink="http://www.w3.org/1999/xlink">
    <title>navigation-left</title>
    <g id="Page-1" stroke="none" stroke-width="1" fill="none" fill-rule="evenodd">
        <g id="drop" fill="#000000" transform="translate(64.000000, 64.000000)">
            <path d="M384,1.42108547e-14 L384,384 L1.42108547e-14,384 L1.42108547e-14,1.42108547e-14 L384,1.42108547e-14 Z M85.333,298.666 L42.666,298.666 L42.6666667,341.333333 L85.333,341.333 L85.333,298.666 Z M341.333333,42.6666667 L127.999,42.666 L127.999,341.333 L341.333333,341.333333 L341.333333,42.6666667 Z M85.333,256 L85.333,213.333 L42.666,213.333 L42.666,256 L85.333,256 Z M85.333,170.666 L85.333,128 L42.666,128 L42.666,170.666 L85.333,170.666 Z M85.333,85.333 L85.333,42.666 L42.6666667,42.6666667 L42.666,85.333 L85.333,85.333 Z" id="Combined-Shape"></path>
        </g>
    </g>
</svg>