<?xml version="1.0" encoding="UTF-8"?>
<svg width="512px" height="512px" viewBox="0 0 512 512" version="1.1" xmlns="http://www.w3.org/2000/svg" xmlns:xlink="http://www.w3.org/1999/xlink">
    <title>share</title>
    <g id="Page-1" stroke="none" stroke-width="1" fill="none" fill-rule="evenodd">
        <g id="icon" fill="#000000" transform="translate(42.666667, 42.666667)">
            <path d="M352,277.333333 C330.312533,277.333333 310.953173,286.729173 297.312427,301.494827 L148.109227,236.136747 C148.763093,232.164053 149.333333,228.157653 149.333333,224 C149.333333,216.23168 147.8112,208.889387 145.610667,201.8464 L297.605547,125.527467 C311.231787,140.096427 330.477867,149.333333 352,149.333333 C393.236907,149.333333 426.666667,115.903573 426.666667,74.6666667 C426.666667,33.42976 393.236907,3.55271368e-14 352,3.55271368e-14 C310.763093,3.55271368e-14 277.333333,33.42976 277.333333,74.6666667 C277.333333,79.0065067 277.899733,83.2004267 278.610773,87.3371733 L121.455787,166.246187 C108.619733,155.832107 92.4829867,149.333333 74.6666667,149.333333 C33.42976,149.333333 3.55271368e-14,182.763093 3.55271368e-14,224 C3.55271368e-14,265.236907 33.42976,298.666667 74.6666667,298.666667 C96.3541333,298.666667 115.713493,289.270827 129.35424,274.505173 L278.55744,339.863253 C277.903573,343.835947 277.333333,347.842347 277.333333,352 C277.333333,393.236907 310.763093,426.666667 352,426.666667 C393.236907,426.666667 426.666667,393.236907 426.666667,352 C426.666667,310.763093 393.236907,277.333333 352,277.333333 Z M352,42.6666667 C369.644587,42.6666667 384,57.02208 384,74.6666667 C384,92.3112533 369.644587,106.666667 352,106.666667 C334.355413,106.666667 320,92.3112533 320,74.6666667 C320,57.02208 334.355413,42.6666667 352,42.6666667 Z M74.6666667,256 C57.02208,256 42.6666667,241.644587 42.6666667,224 C42.6666667,206.355413 57.02208,192 74.6666667,192 C92.3112533,192 106.666667,206.355413 106.666667,224 C106.666667,241.644587 92.3112533,256 74.6666667,256 Z M352,384 C334.355413,384 320,369.644587 320,352 C320,334.355413 334.355413,320 352,320 C369.644587,320 384,334.355413 384,352 C384,369.644587 369.644587,384 352,384 Z" id="Shape"></path>
        </g>
    </g>
</svg>