<?xml version="1.0" encoding="UTF-8"?>
<svg width="512px" height="512px" viewBox="0 0 512 512" version="1.1" xmlns="http://www.w3.org/2000/svg" xmlns:xlink="http://www.w3.org/1999/xlink">
    <title>sign-language</title>
    <g id="Page-1" stroke="none" stroke-width="1" fill="none" fill-rule="evenodd">
        <g id="drop" fill="#000000" transform="translate(42.607947, 42.705442)">
            <path d="M418.405386,319.961225 C415.800907,315.158746 412.493256,310.772513 408.592053,306.947892 L408.592053,306.947892 L408.592053,306.947892 C422.012971,294.391539 428.463033,276.076551 425.872053,257.881225 C425.364131,251.398193 423.549969,245.08491 420.538719,239.321225 C410.305633,219.758401 389.689468,207.870854 367.632053,208.814558 L365.925386,208.814558 L379.365386,183.854558 C381.77114,179.851415 383.636238,175.547343 384.912053,171.054558 C391.564892,146.298896 380.927348,120.141002 358.885386,107.054558 C354.410951,104.481336 349.600445,102.542774 344.592053,101.294558 L343.525386,101.294558 L351.632053,85.2945585 C353.844986,81.1481386 355.631898,76.7880734 356.965386,72.2812252 C364.232397,46.7448101 352.821672,19.5831939 329.497669,6.89820971 C306.173666,-5.78677444 277.17203,-0.603810715 259.685386,19.3745585 L259.685386,19.3745585 L259.685386,19.3745585 C256.206116,15.4498433 252.096349,12.1331898 247.525386,9.56122515 C234.635023,2.04375763 219.281025,-0.0290320119 204.858719,3.80122515 C189.380084,7.01754963 175.934434,16.5222327 167.738719,30.0412252 L111.418719,127.961225 L111.418719,126.041225 C106.279556,115.30603 97.9297053,106.434313 87.5253859,100.654558 C66.9250238,88.8461522 41.2283345,90.6728578 22.5055406,105.276637 C3.78274666,119.880416 -4.2454082,144.359089 2.19205261,167.214558 L52.7520526,311.214558 L80.6987193,262.361225 L77.7120526,253.614558 C68.3253859,226.307892 46.3520526,162.947892 44.2187193,155.694558 C42.4163679,151.46987 42.4163679,146.692581 44.2187193,142.467892 C46.3371915,138.227089 50.1240743,135.058472 54.6720526,133.721225 C59.1116788,132.24232 63.9612826,132.627209 68.1120526,134.787892 C72.3056376,136.965648 75.454789,140.729268 76.8587193,145.241225 C78.5653859,150.787892 88.8053859,178.521225 94.7787193,194.521225 L94.7787193,196.867892 L116.112053,196.867892 L201.445386,49.4545585 C205.944544,42.2356635 215.257634,39.7211292 222.778719,43.6945585 C230.089398,48.1251353 232.625977,57.5198723 228.538719,65.0278918 L187.365386,141.614558 L222.778719,162.947892 L288.485386,49.4545585 C290.473083,45.2818183 294.234116,42.2259786 298.725386,41.1345585 C302.91497,40.0751727 307.352361,40.6872266 311.098719,42.8412252 C314.866741,44.9053381 317.580909,48.4725307 318.565386,52.6545585 C319.612759,56.7748837 318.999867,61.141745 316.858719,64.8145585 L251.365386,178.094558 L286.565386,199.427892 L304.058719,169.134558 L317.072053,147.801225 C319.164516,144.145761 322.613996,141.462832 326.672053,140.334558 C330.955116,139.256432 335.49189,139.948482 339.258719,142.254558 C342.914184,144.347022 345.597113,147.796502 346.725386,151.854558 C347.80874,155.998303 347.112758,160.406191 344.805386,164.014558 L306.618719,234.841225 L306.618719,234.841225 L253.285386,261.934558 L253.285386,260.014558 C254.777864,248.570574 252.691252,236.945165 247.312053,226.734558 C239.807061,212.163568 226.470012,201.462913 210.618719,197.294558 C195.293329,193.30398 179.008476,195.60844 165.392053,203.694558 C152.860914,210.140165 143.361554,221.248287 138.938719,234.627892 L105.018719,383.961225 L155.792053,357.507892 L155.792053,356.441225 C155.792053,356.441225 177.125386,257.881225 180.325386,248.494558 C181.4758,243.935369 184.392401,240.020983 188.432053,237.614558 C192.530244,235.351818 197.338385,234.741261 201.872053,235.907892 C206.516696,237.137509 210.451141,240.223349 212.752053,244.441225 C215.115357,248.427915 215.732644,253.211882 214.458719,257.667892 C212.965386,263.001225 206.992053,290.947892 204.645386,302.254558 L220.645386,323.587892 L362.725386,250.201225 C366.55762,248.262183 370.991173,247.87998 375.098719,249.134558 C379.24659,250.457782 382.699487,253.373562 384.698719,257.241225 C386.397183,261.116632 386.397183,265.525818 384.698719,269.401225 C383.462258,273.478047 380.609639,276.87035 376.805386,278.787892 L268.858719,334.041225 L294.032053,366.894558 L360.165386,333.187892 C363.921524,331.274059 368.253077,330.818106 372.325386,331.907892 C376.484948,333.209899 379.945112,336.131816 381.925386,340.014558 C383.879148,343.720181 384.279962,348.050407 383.039565,352.051687 C381.799168,356.052967 379.01928,359.397176 375.312053,361.347892 L315.365386,394.627892 L341.392053,426.627892 L395.792053,396.974558 C399.940471,394.739588 403.807743,392.018174 407.312053,388.867892 C426.296724,371.119438 430.860527,342.771197 418.405386,319.961225 Z" id="sign-language"></path>
        </g>
    </g>
</svg>