<?xml version="1.0" encoding="UTF-8"?>
<svg width="512px" height="512px" viewBox="0 0 512 512" version="1.1" xmlns="http://www.w3.org/2000/svg" xmlns:xlink="http://www.w3.org/1999/xlink">
    <title>table-rows</title>
    <g id="Page-1" stroke="none" stroke-width="1" fill="none" fill-rule="evenodd">
        <g id="icon" fill="#000000" transform="translate(42.666667, 106.666667)">
            <path d="M3.55271368e-14,85.3333333 L106.666667,85.3333333 L106.666667,128 L3.55271368e-14,128 L3.55271368e-14,85.3333333 Z M3.55271368e-14,4.26325641e-14 L106.666667,4.26325641e-14 L106.666667,42.6666667 L3.55271368e-14,42.6666667 L3.55271368e-14,4.26325641e-14 Z M3.55271368e-14,170.666667 L106.666667,170.666667 L106.666667,213.333333 L3.55271368e-14,213.333333 L3.55271368e-14,170.666667 Z M3.55271368e-14,256 L106.666667,256 L106.666667,298.666667 L3.55271368e-14,298.666667 L3.55271368e-14,256 Z M149.333333,85.3333333 L426.666667,85.3333333 L426.666667,128 L149.333333,128 L149.333333,85.3333333 Z M149.333333,4.26325641e-14 L426.666667,4.26325641e-14 L426.666667,42.6666667 L149.333333,42.6666667 L149.333333,4.26325641e-14 Z M149.333333,170.666667 L426.666667,170.666667 L426.666667,213.333333 L149.333333,213.333333 L149.333333,170.666667 Z M149.333333,256 L426.666667,256 L426.666667,298.666667 L149.333333,298.666667 L149.333333,256 Z" id="Combined-Shape"></path>
        </g>
    </g>
</svg>