<?xml version="1.0" encoding="UTF-8"?>
<svg width="512px" height="512px" viewBox="0 0 512 512" version="1.1" xmlns="http://www.w3.org/2000/svg" xmlns:xlink="http://www.w3.org/1999/xlink">
    <title>youtube-filled</title>
    <g id="Page-1" stroke="none" stroke-width="1" fill="none" fill-rule="evenodd">
        <g id="icon" fill="#000000" transform="translate(42.666738, 106.667236)">
            <path d="M214.304705,0.000543068834 C226.424729,0.0216871426 348.414862,0.444568619 380.010595,8.90219814 C398.378595,13.7775234 412.821262,28.1915286 417.749262,46.6329765 C426.309902,78.5811951 426.652328,143.739282 426.666025,148.900811 L426.666025,149.553735 C426.652328,154.730893 426.309902,220.084332 417.749262,252.032551 C412.821262,270.473998 398.378595,284.888004 380.010595,289.763329 C347.417102,298.488042 218.629945,298.662536 213.491496,298.666026 L213.175003,298.666026 C208.035726,298.662536 79.2276622,298.488042 46.6132622,289.763329 C28.2665955,284.888004 13.8025955,270.473998 8.89592883,252.032551 C0.355768832,220.084332 0.014162432,154.730893 0.000498176,149.553735 L0.000498176,148.900811 C0.014162432,143.739282 0.355768832,78.5811951 8.89592883,46.6329765 C13.8025955,28.1915286 28.2665955,13.7775234 46.6132622,8.90219814 C78.2292622,0.444568619 200.239662,0.0216871426 212.361662,0.000543068834 Z M169.685262,86.2714908 L169.685262,212.394036 L281.215929,149.226778 L169.685262,86.2714908 Z" id="Shape"></path>
        </g>
    </g>
</svg>