<svg xmlns="http://www.w3.org/2000/svg" width="512" height="512" viewBox="0 0 512 512"><path fill-rule="evenodd" d="M158.23,111.146 L328.898,281.813 L409.751616,362.666662 L379.581717,392.836561 L311.224,324.479 L3.55271368e-14,324.48 L3.55271368e-14,68.48 L55.225,68.479 L16.9150553,30.169894 L47.0849493,-7.10542736e-15 L158.23,111.146 Z M268.558,281.813 L97.892,111.146 L42.6666667,111.146667 L42.6666667,281.813333 L268.558,281.813 Z M384,68.48 L384,143.146 L426.666667,143.146667 L426.666667,249.813333 L384,249.813 L384,276.575 L341.333,233.909 L341.333333,111.146667 L218.57,111.146 L175.903,68.479 L384,68.48 Z" transform="translate(42.667 59.52)"/></svg>