<svg xmlns="http://www.w3.org/2000/svg" width="512" height="512" viewBox="0 0 512 512"><path d="M213.333333,3.55271368e-14 C331.15408,3.55271368e-14 426.666667,95.5125867 426.666667,213.333333 C426.666667,331.15408 331.15408,426.666667 213.333333,426.666667 C95.5125867,426.666667 -1.42108547e-14,331.15408 -1.42108547e-14,213.333333 C-1.42108547e-14,95.5125867 95.5125867,3.55271368e-14 213.333333,3.55271368e-14 Z M158.444719,246.264695 L66.9658639,301.153908 C86.9701692,334.422807 117.996253,360.311478 154.992184,373.767989 L191.454649,273.496055 C177.581005,268.449604 165.94617,258.740958 158.444719,246.264695 Z M149.333,213.332 L42.6666667,213.333333 C42.6666667,230.384242 45.1671394,246.851133 49.8214002,262.387324 L152.016164,231.727931 C150.270941,225.90205 149.333333,219.727187 149.333333,213.333333 L149.333,213.332 Z M213.333333,192 C201.551259,192 192,201.551259 192,213.333333 C192,225.115408 201.551259,234.666667 213.333333,234.666667 C225.115408,234.666667 234.666667,225.115408 234.666667,213.333333 C234.666667,201.551259 225.115408,192 213.333333,192 Z M376.84554,164.280256 L274.650175,194.937643 C276.395517,200.763541 277.333235,206.938436 277.333333,213.332332 L384,213.333333 C384,196.282759 381.499625,179.816178 376.84554,164.280256 Z M271.673745,52.8984095 L235.210022,153.169886 C249.083829,158.215871 260.718935,167.924107 268.220786,180.400038 L359.700803,125.512759 C339.696364,92.243638 308.670001,66.354844 271.673745,52.8984095 Z" transform="translate(42.667 42.667)"/></svg>