<?xml version="1.0" encoding="UTF-8"?>
<svg width="512px" height="512px" viewBox="0 0 512 512" version="1.1" xmlns="http://www.w3.org/2000/svg" xmlns:xlink="http://www.w3.org/1999/xlink">
    <title>document-bulk</title>
    <g id="Page-1" stroke="none" stroke-width="1" fill="none" fill-rule="evenodd">
        <g id="icon" fill="#000000" transform="translate(85.333333, 42.666667)">
            <path d="M149.333333,128 L234.666667,213.333333 L234.666667,426.666667 L4.26325641e-14,426.666667 L4.26325641e-14,128 L149.333333,128 Z M131.648,170.666667 L42.6666667,170.666667 L42.6666667,384 L192,384 L192,231.018667 L131.648,170.666667 Z M213.333333,64 L298.666667,149.333333 L298.666667,362.666667 L256,362.666 L256,167.018667 L195.648,106.666667 L64,106.666 L64,64 L213.333333,64 Z M277.333333,-2.13162821e-14 L362.666667,85.3333333 L362.666667,298.666667 L320,298.666 L320,103.018667 L259.648,42.6666667 L128,42.666 L128,-2.13162821e-14 L277.333333,-2.13162821e-14 Z" id="Combined-Shape"></path>
        </g>
    </g>
</svg>