<svg xmlns="http://www.w3.org/2000/svg" width="512" height="512" viewBox="0 0 512 512"><path fill-rule="evenodd" d="M292.300175,170.666667 C324.449098,170.666667 351.018034,179.328321 372.006981,196.651629 C382.450262,205.313283 390.589878,215.953216 396.425829,228.571429 C402.364165,241.617377 405.333333,256 405.333333,271.719298 C405.333333,296.634921 398.422339,316.524645 384.600349,331.388471 C372.211751,344.648287 358.236184,351.278195 342.673647,351.278195 C326.08726,351.278195 316.974985,343.739348 315.336824,328.661654 C305.098313,343.739348 291.276323,351.278195 273.870855,351.278195 C259.844095,351.278195 248.735311,347.214703 240.544503,339.087719 C231.636998,330.319131 227.183246,318.289056 227.183246,302.997494 C227.183246,292.838764 229.205352,282.867168 233.249564,273.082707 C237.293775,263.298246 242.89936,254.823726 250.066318,247.659148 C263.683537,234.07853 281.19139,227.288221 302.589878,227.288221 C318.766725,227.288221 333.868528,229.908104 347.895288,235.14787 L337.605585,301.874687 C336.581734,308.397661 336.069808,313.156224 336.069808,316.150376 C336.069808,323.528822 339.192554,327.218045 345.438045,327.218045 C353.628854,327.218045 360.949389,322.245614 367.399651,312.300752 C375.283304,300.21721 379.225131,285.888053 379.225131,269.313283 C379.225131,246.536341 371.546248,228.785297 356.188482,216.06015 C339.192554,202.051796 318.101222,195.047619 292.914485,195.047619 C273.461315,195.047619 255.748691,199.859649 239.776614,209.483709 C224.726003,218.573099 213.412449,230.87051 205.835951,246.37594 C199.79523,258.994152 196.774869,273.002506 196.774869,288.401003 C196.774869,317.593985 206.910995,340.745196 227.183246,357.854637 C244.998255,372.932331 267.625364,380.471178 295.064572,380.471178 C310.729494,380.471178 327.315881,377.477026 344.823735,371.488722 L349.277487,396.190476 C330.745782,402.285714 311.85573,405.333333 292.60733,405.333333 C257.182083,405.333333 228.360675,395.014202 206.143106,374.37594 C182.492147,352.561404 170.666667,323.689223 170.666667,287.759398 C170.666667,253.86132 181.877836,226.005013 204.300175,204.190476 C227.439209,181.84127 256.772542,170.666667 292.300175,170.666667 Z M303.050611,249.58396 C297.21466,249.58396 291.429901,251.107769 285.696335,254.155388 C279.962769,257.203008 275.048284,261.400167 270.95288,266.746867 C262.557301,277.547201 258.359511,289.630744 258.359511,302.997494 C258.359511,310.482874 260.202443,316.390977 263.888307,320.721805 C267.574171,325.052632 272.591041,327.218045 278.938918,327.218045 C288.153578,327.218045 295.781268,323.261487 301.82199,315.348371 C304.995928,311.284879 307.504363,303.42523 309.347295,291.769424 L315.797557,251.829574 C310.575916,250.332498 306.326934,249.58396 303.050611,249.58396 Z M384,0 L384.00272,187.94015 C371.725588,176.157783 357.284521,166.613048 341.335149,159.961575 L341.333333,64 L225.171368,164.350399 C211.80403,171.156117 199.687345,180.06574 189.257531,190.643053 L42.6666667,64 L42.6666667,256 L153.044148,255.998864 C150.617453,266.271623 149.333333,276.98585 149.333333,288 C149.333333,291.589405 149.469713,295.146957 149.737572,298.667757 L0,298.666667 L0,0 L384,0 Z M304,42.6666667 L80,42.6666667 L192,138.666667 L304,42.6666667 Z" transform="translate(64 64)"/></svg>