<?xml version="1.0" encoding="UTF-8"?>
<svg width="512px" height="512px" viewBox="0 0 512 512" version="1.1" xmlns="http://www.w3.org/2000/svg" xmlns:xlink="http://www.w3.org/1999/xlink">
    <title>group</title>
    <g id="Page-1" stroke="none" stroke-width="1" fill="none" fill-rule="evenodd">
        <g id="icon" fill="#000000" transform="translate(64.000000, 64.000000)">
            <path d="M106.666667,1.42108547e-14 L106.666667,42.6666667 L42.6666667,42.6666667 L42.6666667,341.333333 L106.666667,341.333333 L106.666667,384 L1.42108547e-14,384 L1.42108547e-14,1.42108547e-14 L106.666667,1.42108547e-14 Z M384,1.42108547e-14 L384,384 L277.333333,384 L277.333333,341.333333 L341.333333,341.333333 L341.333333,42.6666667 L277.333333,42.6666667 L277.333333,1.42108547e-14 L384,1.42108547e-14 Z M298.666667,256 L298.666667,298.666667 L85.3333333,298.666667 L85.3333333,256 L298.666667,256 Z M298.666667,170.666667 L298.666667,213.333333 L85.3333333,213.333333 L85.3333333,170.666667 L298.666667,170.666667 Z M298.666667,85.3333333 L298.666667,128 L85.3333333,128 L85.3333333,85.3333333 L298.666667,85.3333333 Z" id="Combined-Shape"></path>
        </g>
    </g>
</svg>