<?xml version="1.0" encoding="UTF-8"?>
<svg width="512px" height="512px" viewBox="0 0 512 512" version="1.1" xmlns="http://www.w3.org/2000/svg" xmlns:xlink="http://www.w3.org/1999/xlink">
    <title>highlight-filled</title>
    <g id="Page-1" stroke="none" stroke-width="1" fill="none" fill-rule="evenodd">
        <g id="drop" fill="#000000" transform="translate(64.000000, 44.956885)">
            <path d="M405.333333,381.709781 L362.666667,424.376448 L85.3333333,424.376448 L128,381.709781 L405.333333,381.709781 Z M41.168,299.372 L103.67,361.874 L42.6666667,392.376448 L1.42108547e-14,403.043115 L10.6666667,360.376448 L41.168,299.372 Z M61.1,191.304 L212.137,342.341 L206.971557,347.655494 L201.097332,347.365048 L194.94444,347.269241 C184.457401,347.271762 172.809254,348.085275 160,349.709781 L151.970104,350.837434 L144.123951,352.129117 L136.61735,353.518237 L127.387,355.421 L48.9491375,276.983016 C50.507182,270.709588 52.0860762,262.939495 53.3333333,253.709781 C55.8645145,234.979019 56.7941068,216.011107 56.1221103,196.806047 L59.4284876,193.08414 L61.1,191.304 Z M282.327442,7.10542736e-15 L403.006999,120.679557 L384.970948,143.928809 L352.415716,185.42913 L333.317316,209.393653 L316.302987,230.396289 L304.909911,244.204529 L291.542704,260.023864 L282.884971,269.944627 L275.399527,278.199329 L269.086373,284.787971 L254.094195,299.615469 L227.035,327.069 L75.976,176.01 L78.5389897,173.389008 L116.39305,135.764502 L128.060065,124.568671 L141.033549,112.687653 L152.352994,102.689504 L164.50858,92.2528346 L177.500305,81.3776459 L191.328171,70.0639374 L205.992177,58.3117091 L229.55595,39.8611422 L246.310307,27.0126145 L263.900804,13.7255671 L282.327442,7.10542736e-15 Z" id="Combined-Shape"></path>
        </g>
    </g>
</svg>