<?xml version="1.0" encoding="UTF-8"?>
<svg width="512px" height="512px" viewBox="0 0 512 512" version="1.1" xmlns="http://www.w3.org/2000/svg" xmlns:xlink="http://www.w3.org/1999/xlink">
    <title>sort-ascending</title>
    <g id="Page-1" stroke="none" stroke-width="1" fill="none" fill-rule="evenodd">
        <g id="add" fill="#000000" transform="translate(64.000000, 106.666667)">
            <path d="M399.082027,100.52224 L368.915413,130.688853 L320,81.77344 L320,320 L277.333333,320 L277.333333,81.77088 L228.41536,130.688853 L198.248747,100.52224 L298.666667,-2.84217094e-14 L399.082027,100.52224 Z M106.666667,64 L-1.42108547e-14,64 L-1.42108547e-14,106.666667 L106.666667,106.666667 L106.666667,64 Z M149.333333,170.666667 L-1.42108547e-14,170.666667 L-1.42108547e-14,213.333333 L149.333333,213.333333 L149.333333,170.666667 Z M-1.42108547e-14,320 L192,320 L192,277.333333 L-1.42108547e-14,277.333333 L-1.42108547e-14,320 Z" id="Shape"></path>
        </g>
    </g>
</svg>