<?xml version="1.0" encoding="UTF-8"?>
<svg width="512px" height="512px" viewBox="0 0 512 512" version="1.1" xmlns="http://www.w3.org/2000/svg" xmlns:xlink="http://www.w3.org/1999/xlink">
    <title>y-axis-settings</title>
    <g id="Page-1" stroke="none" stroke-width="1" fill="none" fill-rule="evenodd">
        <g id="Combined-Shape" fill="#000000" transform="translate(27.581722, 33.830111)">
            <path d="M100.418278,7.10542736e-15 L200.836556,100.418278 L170.666667,130.588167 L121.751,81.684 L121.751278,371.503223 L420.418278,371.503223 L420.418278,392.836556 L121.751278,392.836223 L121.751611,435.503223 L79.0849447,435.503223 L79.084278,392.836223 L36.418278,392.836556 L36.418278,371.503223 L79.084278,371.503223 L79.084,81.685 L30.1698893,130.588167 L7.10542736e-15,100.418278 L100.418278,7.10542736e-15 Z M364.598766,30.1698893 L364.599441,53.0058528 C375.002669,56.6829614 384.517019,62.2417388 392.733552,69.2732459 L412.530364,57.8432107 L442.159994,109.163235 L422.376075,120.586547 C423.349349,125.855024 423.858025,131.286386 423.858025,136.836556 C423.858025,142.386833 423.34933,147.818298 422.376019,153.086871 L442.159994,164.509877 L412.530364,215.829901 L392.733552,204.399866 C384.517019,211.431373 375.002669,216.990151 364.599441,220.667259 L364.598766,243.503223 L305.339506,243.503223 L305.338831,220.667259 C294.935988,216.990287 285.421958,211.431785 277.205634,204.400648 L257.407908,215.829901 L227.778278,164.509877 L247.562253,153.086871 C246.588942,147.818298 246.080247,142.386833 246.080247,136.836556 C246.080247,131.286035 246.588987,125.854336 247.562381,120.585546 L227.778278,109.163235 L257.407908,57.8432107 L277.20464,69.2733144 C285.421191,62.2417749 294.935569,56.6829733 305.338831,53.0058528 L305.339506,30.1698893 L364.598766,30.1698893 Z M334.969136,101.281 C315.332345,101.281 299.41358,117.199765 299.41358,136.836556 C299.41358,156.473347 315.332345,172.392112 334.969136,172.392112 C354.605927,172.392112 370.524691,156.473347 370.524691,136.836556 C370.524691,117.199765 354.605927,101.281 334.969136,101.281 Z"></path>
        </g>
    </g>
</svg>