<?xml version="1.0" encoding="UTF-8"?>
<svg width="512px" height="512px" viewBox="0 0 512 512" version="1.1" xmlns="http://www.w3.org/2000/svg" xmlns:xlink="http://www.w3.org/1999/xlink">
    <title>add-circle-filled</title>
    <g id="Page-1" stroke="none" stroke-width="1" fill="none" fill-rule="evenodd">
        <g id="drop" fill="#000000" transform="translate(42.666667, 42.666667)">
            <path d="M213.333333,3.55271368e-14 C269.912851,3.55271368e-14 324.175019,22.4761259 364.18278,62.4838867 C404.190541,102.491647 426.666667,156.753816 426.666667,213.333333 C426.666667,331.15408 331.15408,426.666667 213.333333,426.666667 C95.5125867,426.666667 3.55271368e-14,331.15408 3.55271368e-14,213.333333 C3.55271368e-14,95.5125867 95.5125867,3.55271368e-14 213.333333,3.55271368e-14 Z M234.666667,106.666667 L192,106.666667 L192,192 L106.666667,192 L106.666667,234.666667 L192,234.666 L192,320 L234.666667,320 L234.666,234.666 L320,234.666667 L320,192 L234.666,192 L234.666667,106.666667 Z" id="add-workorder"></path>
        </g>
    </g>
</svg>