<?xml version="1.0" encoding="UTF-8"?>
<svg width="512px" height="512px" viewBox="0 0 512 512" version="1.1" xmlns="http://www.w3.org/2000/svg" xmlns:xlink="http://www.w3.org/1999/xlink">
    <title>add-task</title>
    <g id="Page-1" stroke="none" stroke-width="1" fill="none" fill-rule="evenodd">
        <g id="icon" fill="#000000" transform="translate(42.666667, 128.000000)">
            <path d="M384,192 L383.999,256 L448,256 L448,298.666667 L383.999,298.666 L384,362.666667 L341.333333,362.666667 L341.333,298.666 L277.333333,298.666667 L277.333333,256 L341.333,256 L341.333333,192 L384,192 Z M149.333333,0 L149.333333,149.333333 L3.55271368e-14,149.333333 L3.55271368e-14,0 L149.333333,0 Z M106.666667,42.6666667 L42.6666667,42.6666667 L42.6666667,106.666667 L106.666667,106.666667 L106.666667,42.6666667 Z M213.333333,64 L426.666667,64 L426.666667,106.666667 L213.333333,106.666667 L213.333333,64 Z" id="Combined-Shape"></path>
        </g>
    </g>
</svg>