<?xml version="1.0" encoding="UTF-8"?>
<svg width="512px" height="512px" viewBox="0 0 512 512" version="1.1" xmlns="http://www.w3.org/2000/svg" xmlns:xlink="http://www.w3.org/1999/xlink">
    <title>binoculars-filled</title>
    <g id="Page-1" stroke="none" stroke-width="1" fill="none" fill-rule="evenodd">
        <g id="icon" fill="#000000" transform="translate(64.000000, 64.000000)">
            <path d="M277.333333,-4.26325641e-14 C300.897483,-4.69612282e-14 320,19.1025173 320,42.6666667 L320.001038,66.6886402 C356.805359,76.1619142 384,109.571799 384,149.333333 L384,298.666667 C384,345.794965 345.794965,384 298.666667,384 C251.538368,384 213.333333,345.794965 213.333333,298.666667 L213.334343,290.517566 C207.67282,295.585196 200.196268,298.666667 192,298.666667 C183.803732,298.666667 176.32718,295.585196 170.665657,290.517566 L170.666667,298.666667 C170.666667,345.794965 132.461632,384 85.3333333,384 C38.2050347,384 -4.26325641e-14,345.794965 -4.26325641e-14,298.666667 L-4.26325641e-14,149.333333 C-4.75019917e-14,109.57144 27.1951335,76.1613096 63.9999609,66.6883831 L64,42.6666667 C64,19.1025173 83.1025173,-3.83039001e-14 106.666667,-4.26325641e-14 C130.230816,-4.69612282e-14 149.333333,19.1025173 149.333333,42.6666667 L149.333764,69.7082895 C158.827303,75.200153 166.008403,84.2448998 169.058923,95.0243894 C174.872894,89.046446 183.002825,85.3333333 192,85.3333333 C200.997175,85.3333333 209.127106,89.046446 214.940994,95.0238729 C217.991694,84.2447833 225.172752,75.2001286 234.666215,69.7083018 L234.666667,42.6666667 C234.666667,19.1025173 253.769184,-3.83039001e-14 277.333333,-4.26325641e-14 Z M85.3333333,256 C61.769184,256 42.6666667,275.102517 42.6666667,298.666667 C42.6666667,322.230816 61.769184,341.333333 85.3333333,341.333333 C108.897483,341.333333 128,322.230816 128,298.666667 C128,275.102517 108.897483,256 85.3333333,256 Z M298.666667,256 C275.102517,256 256,275.102517 256,298.666667 C256,322.230816 275.102517,341.333333 298.666667,341.333333 C322.230816,341.333333 341.333333,322.230816 341.333333,298.666667 C341.333333,275.102517 322.230816,256 298.666667,256 Z" id="Combined-Shape"></path>
        </g>
    </g>
</svg>