<?xml version="1.0" encoding="UTF-8"?>
<svg width="512px" height="512px" viewBox="0 0 512 512" version="1.1" xmlns="http://www.w3.org/2000/svg" xmlns:xlink="http://www.w3.org/1999/xlink">
    <title>clock</title>
    <g id="Page-1" stroke="none" stroke-width="1" fill="none" fill-rule="evenodd">
        <g id="work-case" fill="#000000" transform="translate(42.666667, 42.666667)">
            <path d="M213.333333,3.55271368e-14 C331.136,3.55271368e-14 426.666667,95.5306667 426.666667,213.333333 C426.666667,331.136 331.136,426.666667 213.333333,426.666667 C95.5306667,426.666667 3.55271368e-14,331.136 3.55271368e-14,213.333333 C3.55271368e-14,95.5306667 95.5306667,3.55271368e-14 213.333333,3.55271368e-14 Z M213.333333,42.6666667 C119.232,42.6666667 42.6666667,119.232 42.6666667,213.333333 C42.6666667,307.434667 119.232,384 213.333333,384 C307.434667,384 384,307.434667 384,213.333333 C384,119.232 307.434667,42.6666667 213.333333,42.6666667 Z M234.666667,106.666667 L234.666667,225.813333 L292.418278,283.581722 L262.248389,313.751611 L192,243.503223 L192,106.666667 L234.666667,106.666667 Z" id="reading-time"></path>
        </g>
    </g>
</svg>