<?xml version="1.0" encoding="UTF-8"?>
<svg width="512px" height="512px" viewBox="0 0 512 512" version="1.1" xmlns="http://www.w3.org/2000/svg" xmlns:xlink="http://www.w3.org/1999/xlink">
    <title>cloud-success</title>
    <g id="Page-1" stroke="none" stroke-width="1" fill="none" fill-rule="evenodd">
        <g id="icon" fill="#000000" transform="translate(42.666667, 106.666667)">
            <path d="M283.581722,134.248389 L313.751611,164.418278 L192,286.169889 L112.915055,207.084945 L143.084945,176.915055 L192,225.813333 L283.581722,134.248389 Z M256,0 C314.910373,0 362.666667,47.7562934 362.666667,106.666667 L362.633568,109.350223 C399.447831,118.798865 426.666667,152.220782 426.666667,192 C426.666667,237.700168 390.742006,275.009683 345.592327,277.2289 L341.333333,277.333333 L231.005,277.333 L273.663,234.675 L340.287434,234.679488 L343.497685,234.613681 C366.110046,233.502228 384,214.765259 384,192 C384,173.566453 372.19531,157.466659 355.260429,151.646334 L352.026648,150.677426 L322.637,143.134 L319.202,139.699 L320,106.666667 C320,71.3204427 291.346224,42.6666667 256,42.6666667 C234.529914,42.6666667 214.952715,53.2922241 203.156091,70.5694033 L200.902251,74.11235 L181.701619,106.574924 L147.128167,91.5031172 C137.833428,87.4512072 127.770871,85.3333333 117.333333,85.3333333 C76.096072,85.3333333 42.6666667,118.762739 42.6666667,160 C42.6666667,197.369525 70.2579271,228.688643 106.577483,233.903126 L106.642,233.911 L151.607,277.333 L106.666667,277.333333 L106.675057,276.855764 C46.8683831,271.470602 3.55271368e-14,221.20865 3.55271368e-14,160 C3.55271368e-14,95.1985894 52.5319227,42.6666667 117.333333,42.6666667 C133.98644,42.6666667 149.829242,46.1359909 164.178407,52.3913064 C182.728434,21.0287122 216.908457,0 256,0 Z" id="Combined-Shape"></path>
        </g>
    </g>
</svg>