<?xml version="1.0" encoding="UTF-8"?>
<svg width="512px" height="512px" viewBox="0 0 512 512" version="1.1" xmlns="http://www.w3.org/2000/svg" xmlns:xlink="http://www.w3.org/1999/xlink">
    <title>compound-block</title>
    <g id="Page-1" stroke="none" stroke-width="1" fill="none" fill-rule="evenodd">
        <g id="add" fill="#000000">
            <path d="M405.333333,85.3333333 L405.332667,234.666333 L469.333333,234.666667 L469.333333,277.333333 L405.332667,277.333333 L405.333333,426.666667 L106.666667,426.666667 L106.666667,362.666333 L42.6666667,362.666667 L42.6666667,320 L106.666667,319.999333 L106.666667,191.999333 L42.6666667,192 L42.6666667,149.333333 L106.666667,149.333333 L106.666667,85.3333333 L405.333333,85.3333333 Z M362.666667,128 L149.333333,128 L149.333333,384 L362.666667,384 L362.666667,128 Z M265.135378,170.666667 C274.59747,170.666667 283.206423,171.539196 290.962236,173.284254 C298.718049,175.029312 307.520897,178.112247 317.370779,182.533061 L317.370779,182.533061 L304.922699,210.453988 L304.152307,210.038376 C291.322862,203.180103 279.015242,199.750966 267.229448,199.750966 C252.726077,199.750966 241.635265,204.714686 233.95701,214.642127 C225.890964,225.034916 221.857941,238.762705 221.857941,255.825494 C221.857941,273.508748 226.08486,287.333485 234.538696,297.299705 C242.992532,307.265924 254.665031,312.249034 269.556192,312.249034 C276.303749,312.249034 282.5084,311.337726 288.170143,309.51511 C293.831887,307.692494 300.695781,304.376884 308.761827,299.56828 L308.761827,299.56828 L319.581186,329.234265 L318.696212,329.66014 C309.292947,334.1578 301.056544,337.215114 293.987003,338.832084 C286.696539,340.499583 277.699796,341.333333 266.996773,341.333333 C250.864682,341.333333 237.524684,339.006589 226.976778,334.353102 C212.240733,327.838219 201.111141,317.561766 193.588003,303.523745 C186.840445,290.959327 183.466667,275.602818 183.466667,257.454215 C183.466667,226.818753 192.812421,203.628872 211.503931,187.884572 C225.076604,176.405968 242.953753,170.666667 265.135378,170.666667 Z" id="Combined-Shape"></path>
        </g>
    </g>
</svg>