<?xml version="1.0" encoding="UTF-8"?>
<svg width="512px" height="512px" viewBox="0 0 512 512" version="1.1" xmlns="http://www.w3.org/2000/svg" xmlns:xlink="http://www.w3.org/1999/xlink">
    <title>connector-hex-filled</title>
    <g id="Page-1" stroke="none" stroke-width="1" fill="none" fill-rule="evenodd">
        <g id="add" fill="#000000" transform="translate(42.666667, 42.666667)">
            <path d="M128,7.10542736e-15 L256,73.9008345 L256,221.702503 L149.333,283.286 L149.333333,298.666667 C149.333333,309.607165 157.568857,318.624153 168.178749,319.856475 L170.666667,320 L216.021716,319.999961 C225.399914,283.563182 258.238964,256.544864 297.475733,256.008141 L298.666667,256 L362.666667,256 L362.666,288 L426.666667,288 L426.666667,320 L362.666,320 L362.666,362.666 L426.666667,362.666667 L426.666667,394.666667 L362.666,394.666 L362.666667,426.666667 L298.666667,426.666667 C258.905133,426.666667 225.495248,399.472025 216.021974,362.667705 L170.666667,362.666667 C136.582808,362.666667 108.721901,336.023041 106.775311,302.427153 L106.666667,298.666667 L106.666,283.286 L7.10542736e-15,221.702503 L7.10542736e-15,73.9008345 L128,7.10542736e-15 Z" id="Combined-Shape"></path>
        </g>
    </g>
</svg>