<?xml version="1.0" encoding="UTF-8"?>
<svg width="512px" height="512px" viewBox="0 0 512 512" version="1.1" xmlns="http://www.w3.org/2000/svg" xmlns:xlink="http://www.w3.org/1999/xlink">
    <title>context-menu</title>
    <g id="Page-1" stroke="none" stroke-width="1" fill="none" fill-rule="evenodd">
        <g id="Combined-Shape" fill="#000000" transform="translate(224.000000, 53.333333)">
            <path d="M32,64 C49.673112,64 64,49.673112 64,32 C64,14.326888 49.673112,1.42108547e-14 32,1.42108547e-14 C14.326888,1.42108547e-14 0,14.326888 0,32 C0,49.673112 14.326888,64 32,64 Z M32,405.333333 C49.673112,405.333333 64,391.006445 64,373.333333 C64,355.660221 49.673112,341.333333 32,341.333333 C14.326888,341.333333 0,355.660221 0,373.333333 C0,391.006445 14.326888,405.333333 32,405.333333 Z M32,234.666667 C49.673112,234.666667 64,220.339779 64,202.666667 C64,184.993555 49.673112,170.666667 32,170.666667 C14.326888,170.666667 0,184.993555 0,202.666667 C0,220.339779 14.326888,234.666667 32,234.666667 Z"></path>
        </g>
    </g>
</svg>