<?xml version="1.0" encoding="UTF-8"?>
<svg width="512px" height="512px" viewBox="0 0 512 512" version="1.1" xmlns="http://www.w3.org/2000/svg" xmlns:xlink="http://www.w3.org/1999/xlink">
    <title>cycle</title>
    <g id="Page-1" stroke="none" stroke-width="1" fill="none" fill-rule="evenodd">
        <g id="icon" fill="#000000" transform="translate(64.000000, 58.823665)">
            <path d="M384,175.843 L384,197.176335 C384,267.868783 326.692448,325.176335 256,325.176335 L256,325.176335 L97.849,325.176 L136.836556,364.18278 L106.666667,394.352669 L16.1569987,303.843001 L106.666667,213.333333 L136.836556,243.503223 L97.849,282.509 L256,282.509668 C302.657016,282.509668 340.56834,245.064914 341.321901,198.587477 L341.333333,197.176335 L341.333,175.843 L384,175.843 Z M277.333333,1.42108547e-14 L367.843001,90.509668 L277.333333,181.019336 L247.163444,150.849447 L286.15,111.843 L128,111.843001 C81.3429843,111.843001 43.4316597,149.287756 42.6780989,195.765192 L42.6666667,197.176335 L42.666,218.509 L1.42108547e-14,218.509 L1.42108547e-14,197.176335 C-8.42864619e-15,127.190811 56.1671317,70.3238242 125.883286,69.193483 L128,69.1763347 L286.151,69.176 L247.163444,30.1698893 L277.333333,1.42108547e-14 Z" id="Rectangle"></path>
        </g>
    </g>
</svg>