<?xml version="1.0" encoding="UTF-8"?>
<svg width="512px" height="512px" viewBox="0 0 512 512" version="1.1" xmlns="http://www.w3.org/2000/svg" xmlns:xlink="http://www.w3.org/1999/xlink">
    <title>diagram-module-library</title>
    <g id="Page-1" stroke="none" stroke-width="1" fill="none" fill-rule="evenodd">
        <g id="Combined-Shape" fill="#000000" transform="translate(64.000000, 64.000000)">
            <path d="M341.333333,234.666667 L362.666667,256 L362.666667,405.333333 L213.333333,405.333333 L192,384 L192,234.666667 L341.333333,234.666667 Z M320,256 L213.333333,256 L213.333333,362.666667 L320,362.666667 L320,256 Z M256,277.333333 L256,285.866667 L268.8,285.866667 L268.8,328.532667 L277.333333,328.533333 L277.333333,320 L298.666667,320 L298.666667,341.333333 L277.333333,341.333333 L277.333333,332.8 L256,332.8 L256,341.333333 L234.666667,341.333333 L234.666667,320 L256,320 L256,328.533333 L264.533,328.532667 L264.533,290.132667 L256,290.133333 L256,298.666667 L234.666667,298.666667 L234.666667,277.333333 L256,277.333333 Z M170.666,234.666 L170.666,277.333 L0,277.333333 L0,234.666667 L170.666,234.666 Z M260.235865,25.8387255 L298.594622,213.333333 L243.11,213.333 L209.813708,36.9522088 L260.235865,25.8387255 Z M64,0 L64,213.333333 L21.3333333,213.333333 L21.3333333,0 L64,0 Z M128,21.3333333 L128,213.333333 L85.3333333,213.333333 L85.3333333,21.3333333 L128,21.3333333 Z M192,21.3333333 L192,213.333333 L149.333333,213.333333 L149.333333,21.3333333 L192,21.3333333 Z"></path>
        </g>
    </g>
</svg>