<?xml version="1.0" encoding="UTF-8"?>
<svg width="512px" height="512px" viewBox="0 0 512 512" version="1.1" xmlns="http://www.w3.org/2000/svg" xmlns:xlink="http://www.w3.org/1999/xlink">
    <title>download-list</title>
    <g id="Page-1" stroke="none" stroke-width="1" fill="none" fill-rule="evenodd">
        <g id="icon" fill="#000000" transform="translate(64.000000, 42.666667)">
            <path d="M426.666667,405.333333 L426.666667,448 L320,448 L320,405.333333 L426.666667,405.333333 Z M298.666667,405.333333 L298.666667,448 L256,448 L256,405.333333 L298.666667,405.333333 Z M426.666667,341.333333 L426.666667,384 L320,384 L320,341.333333 L426.666667,341.333333 Z M298.666667,341.333333 L298.666667,384 L256,384 L256,341.333333 L298.666667,341.333333 Z M234.666667,341.333333 L234.666667,384 L1.42108547e-14,384 L1.42108547e-14,341.333333 L234.666667,341.333333 Z M426.666667,277.333333 L426.666667,320 L320,320 L320,277.333333 L426.666667,277.333333 Z M298.666667,277.333333 L298.666667,320 L256,320 L256,277.333333 L298.666667,277.333333 Z M192,7.10542736e-15 L192,210.56 L285.013333,132.906667 L312.32,165.76 L170.666667,283.733333 L29.0133333,165.76 L56.32,132.906667 L149.333333,210.56 L149.333333,7.10542736e-15 L192,7.10542736e-15 Z" id="Combined-Shape"></path>
        </g>
    </g>
</svg>