<?xml version="1.0" encoding="UTF-8"?>
<svg width="512px" height="512px" viewBox="0 0 512 512" version="1.1" xmlns="http://www.w3.org/2000/svg" xmlns:xlink="http://www.w3.org/1999/xlink">
    <title>eye-cancelled-filled</title>
    <defs>
        <path d="M47.0849493,-2.84217094e-14 L409.751616,362.666662 L379.581717,392.836561 L320.374327,333.629228 C291.24622,353.329649 255.728601,367.084945 213.333333,367.084945 C64,367.084945 7.10542736e-15,196.418278 7.10542736e-15,196.418278 C7.10542736e-15,196.418278 22.8622608,135.452249 73.1415637,86.3966908 L16.9150553,30.169894 L47.0849493,-2.84217094e-14 Z M213.333333,25.7516113 C362.666667,25.7516113 426.666667,196.418278 426.666667,196.418278 C426.666667,196.418278 412.428268,234.387342 381.712849,274.507541 L285.871605,178.644581 C279.289844,151.690235 258.075932,130.47205 231.123994,123.884151 L145.661388,38.4004656 C165.912858,30.4951037 188.437222,25.7516113 213.333333,25.7516113 Z M138.666667,196.418278 C138.666667,237.655539 172.096072,271.084945 213.333333,271.084945 C226.192,271.084945 238.291488,267.834514 248.854971,262.110479 L215.114787,228.369528 C214.525081,228.401886 213.931121,228.418278 213.333333,228.418278 C195.660221,228.418278 181.333333,214.09139 181.333333,196.418278 C181.333333,195.82056 181.349721,195.226669 181.382072,194.63703 L147.641614,160.895752 C141.917279,171.459445 138.666667,183.559251 138.666667,196.418278 Z" id="path-1"></path>
    </defs>
    <g id="Page-1" stroke="none" stroke-width="1" fill="none" fill-rule="evenodd">
        <g id="eye-cancelled" transform="translate(42.666667, 59.581722)">
            <mask id="mask-2" fill="white">
                <use xlink:href="#path-1"></use>
            </mask>
            <use id="Combined-Shape" fill="#000000" xlink:href="#path-1"></use>
        </g>
    </g>
</svg>