<?xml version="1.0" encoding="UTF-8"?>
<svg width="512px" height="512px" viewBox="0 0 512 512" version="1.1" xmlns="http://www.w3.org/2000/svg" xmlns:xlink="http://www.w3.org/1999/xlink">
    <title>global-plant-filled</title>
    <g id="Page-1" stroke="none" stroke-width="1" fill="none" fill-rule="evenodd">
        <g id="global-plant-filled" fill="#000000" fill-rule="nonzero">
            <g id="drop" transform="translate(64.000000, 64.000000)">
                <path d="M298.666667,192 C357.57704,192 405.333333,239.756293 405.333333,298.666667 C405.333333,357.57704 357.57704,405.333333 298.666667,405.333333 C239.756293,405.333333 192,357.57704 192,298.666667 C192,239.756293 239.756293,192 298.666667,192 Z M314.043933,314.666636 L283.2894,314.666636 C284.710804,332.721125 288.49458,348.932054 293.907029,360.95972 C295.288437,364.029516 296.700392,366.647229 298.060018,368.772913 L298.666667,369.664 L299.273315,368.772913 C300.179733,367.355791 301.109407,365.719988 302.037783,363.877342 L303.426304,360.95972 C308.838754,348.932054 312.622529,332.721125 314.043933,314.666636 Z M371.614958,314.667056 L346.13021,314.667476 C344.921671,332.520457 341.722009,348.924404 337.049792,362.726946 C354.398689,352.307816 367.166433,335.04228 371.614958,314.667056 Z M251.203123,314.667476 L225.718376,314.667056 C230.166986,335.042673 242.935138,352.308483 260.284283,362.725939 C255.611478,348.925194 252.411691,332.520887 251.203123,314.667476 Z M320,0 L320.001999,172.436782 C313.063589,171.272624 305.935892,170.666667 298.666667,170.666667 C227.974219,170.666667 170.666667,227.974219 170.666667,298.666667 C170.666667,313.627466 173.233369,327.988781 177.950446,341.334283 L1.13686838e-13,341.333333 L1.13686838e-13,96 L128,170.666667 L128,96 L256,170.666667 L256,0 L320,0 Z M260.283541,234.606388 L259.335453,235.186783 C242.470318,245.658365 230.085773,262.663538 225.718525,282.665595 L251.203123,282.665857 C252.411662,264.812876 255.611324,248.408929 260.283541,234.606388 Z M298.666667,227.648 L298.060018,228.56042 C296.700392,230.686104 295.288437,233.303817 293.907029,236.373613 C288.49468,248.401057 284.710944,264.611609 283.289479,282.665696 L314.043855,282.665696 C312.622389,264.611609 308.838654,248.401057 303.426304,236.373613 C302.044896,233.303817 300.632942,230.686104 299.273315,228.56042 L298.666667,227.648 Z M337.050055,234.607997 L337.405451,235.670719 C341.884407,249.249132 344.952586,265.269571 346.13021,282.665857 L371.614809,282.665595 C367.166148,262.290668 354.398495,245.025401 337.050055,234.607997 Z" id="Combined-Shape"></path>
            </g>
        </g>
    </g>
</svg>