<?xml version="1.0" encoding="UTF-8"?>
<svg width="512px" height="512px" viewBox="0 0 512 512" version="1.1" xmlns="http://www.w3.org/2000/svg" xmlns:xlink="http://www.w3.org/1999/xlink">
    <title>globe-filled</title>
    <g id="Page-1" stroke="none" stroke-width="1" fill="none" fill-rule="evenodd">
        <g id="icon" fill="#000000" transform="translate(43.968809, 42.666667)">
            <path d="M280.817212,292.276831 L278.815577,304.261201 C265.679659,376.949213 238.166345,426.666667 212.031191,426.666667 C185.896037,426.666667 158.382722,376.949213 145.246804,304.261201 L143.245169,292.276831 C140.576627,274.905407 138.723057,256.382098 137.879506,237.03802 L286.182875,237.03802 C285.339324,256.382098 283.485754,274.905407 280.817212,292.276831 Z M287.515277,412.927661 C311.254894,370.512542 326.175398,307.735502 328.909215,237.038046 L424.062371,237.038284 C415.124465,317.887486 361.006391,385.119653 287.515277,412.927661 Z M136.548244,412.925386 C63.0556581,385.118866 8.93784957,317.887051 1.44891608e-06,237.038187 L95.1531675,237.038043 C97.8869941,307.73548 112.8076,370.512315 136.548244,412.925386 Z M136.546104,13.7393841 C112.807124,56.155084 97.8868084,118.932241 95.153124,189.6297 L5.70918454e-14,189.628479 C8.93783307,108.779601 63.0554702,41.547634 136.546104,13.7393841 Z M212.031191,7.10542736e-15 C238.166345,3.55271368e-14 265.679659,49.717454 278.815577,122.405466 L280.817212,134.389836 C283.485783,151.761444 285.339364,170.284961 286.182902,189.629262 L137.879479,189.629262 C138.723017,170.284961 140.576598,151.761444 143.245169,134.389836 L145.246804,122.405466 C158.251363,50.4443341 185.347208,0.996646136 211.246738,0.0148884893 L212.031191,7.10542736e-15 Z M287.516277,13.7393841 C361.006911,41.547634 415.124548,108.779601 424.062381,189.628479 L328.909259,189.629787 C326.186652,119.218958 311.375886,56.6645523 287.802912,14.2589684 L287.516277,13.7393841 Z" id="Combined-Shape"></path>
        </g>
    </g>
</svg>