<?xml version="1.0" encoding="UTF-8"?>
<svg width="512px" height="512px" viewBox="0 0 512 512" version="1.1" xmlns="http://www.w3.org/2000/svg" xmlns:xlink="http://www.w3.org/1999/xlink">
    <title>hardware-cabinet</title>
    <g id="Page-1" stroke="none" stroke-width="1" fill="none" fill-rule="evenodd">
        <g id="drop" fill="#000000" transform="translate(106.666667, 42.666667)">
            <path d="M298.666667,7.10542736e-15 L298.666667,426.666667 L4.26325641e-14,426.666667 L4.26325641e-14,7.10542736e-15 L298.666667,7.10542736e-15 Z M256,85.3333333 L42.6666667,85.3333333 L42.6666667,384 L256,384 L256,85.3333333 Z M106.666667,277.333333 L106.666667,362.666667 L64,362.666667 L64,277.333333 L106.666667,277.333333 Z M234.666667,298.666667 L234.666667,341.333333 L128,341.333333 L128,298.666667 L234.666667,298.666667 Z M170.666667,192 L170.666667,256 L128,256 L128,192 L170.666667,192 Z M234.666667,192 L234.666667,256 L192,256 L192,192 L234.666667,192 Z M106.666667,192 L106.666667,256 L64,256 L64,192 L106.666667,192 Z M234.666667,106.666667 L234.666667,170.666667 L64,170.666667 L64,106.666667 L234.666667,106.666667 Z" id="Combined-Shape" transform="translate(149.333333, 213.333333) scale(1, -1) translate(-149.333333, -213.333333) "></path>
        </g>
    </g>
</svg>