<?xml version="1.0" encoding="UTF-8"?>
<svg width="512px" height="512px" viewBox="0 0 512 512" version="1.1" xmlns="http://www.w3.org/2000/svg" xmlns:xlink="http://www.w3.org/1999/xlink">
    <title>image</title>
    <g id="Page-1" stroke="none" stroke-width="1" fill="none" fill-rule="evenodd">
        <g id="icon" fill="#000000" transform="translate(64.000000, 64.000000)">
            <path d="M1.42108547e-14,384 L1.42108547e-14,1.45661261e-11 L384,1.45661261e-11 L384,384 L1.42108547e-14,384 Z M109.226667,185.6 L42.666,292.548 L42.666,341.333 L341.333,341.333 L341.333,307.413 L277.333333,243.413333 L211.84,308.906667 L109.226667,185.6 Z M341.333,42.666 L42.666,42.666 L42.666,211.877 L104.106667,113.066667 L214.826667,245.76 L277.333333,183.253333 L341.333,247.253 L341.333,42.666 Z M245.333333,85.3333333 C263.006445,85.3333333 277.333333,99.6602213 277.333333,117.333333 C277.333333,135.006445 263.006445,149.333333 245.333333,149.333333 C227.660221,149.333333 213.333333,135.006445 213.333333,117.333333 C213.333333,99.6602213 227.660221,85.3333333 245.333333,85.3333333 Z" id="Combined-Shape"></path>
        </g>
    </g>
</svg>