<?xml version="1.0" encoding="UTF-8"?>
<svg width="512px" height="512px" viewBox="0 0 512 512" version="1.1" xmlns="http://www.w3.org/2000/svg" xmlns:xlink="http://www.w3.org/1999/xlink">
    <title>ingestion-report</title>
    <g id="Page-1" stroke="none" stroke-width="1" fill="none" fill-rule="evenodd">
        <g id="add" fill="#000000" transform="translate(42.668667, 64.002000)">
            <g id="Group" transform="translate(0.000000, 0.000000)">
                <path d="M341.333611,21.3336113 L426.666945,106.666945 L426.666945,362.666945 L0.000277998647,362.666945 L0.000277998647,234.666945 L42.666278,234.666611 L42.6669447,320.000278 L384.000278,320.000278 L384.000278,117.333611 L330.666945,64.000278 L234.666278,63.9996113 L234.666278,21.3336113 L341.333611,21.3336113 Z M341.333611,256.000278 L341.333611,277.333611 L85.3336113,277.333611 L85.3336113,256.000278 L341.333611,256.000278 Z M213.333611,0.000277998653 L213.333611,213.333611 L0.000277998647,213.333611 L-4.26325641e-14,30.169 L97.83,128 L42.6669447,128.000278 L42.6669447,170.666945 L170.666945,170.666945 L170.666945,42.6669447 L128.000278,42.6669447 L128,97.83 L30.169,0 L213.333611,0.000277998653 Z M234.666278,191.999611 L341.333611,192.000278 L341.333611,213.333611 L234.666278,213.332611 L234.666278,191.999611 Z M234.666278,127.999611 L341.333611,128.000278 L341.333611,149.333611 L234.666278,149.333611 L234.666278,127.999611 Z" id="Combined-Shape"></path>
            </g>
        </g>
    </g>
</svg>