<?xml version="1.0" encoding="UTF-8"?>
<svg width="512px" height="512px" viewBox="0 0 512 512" version="1.1" xmlns="http://www.w3.org/2000/svg" xmlns:xlink="http://www.w3.org/1999/xlink">
    <title>mix</title>
    <g id="Page-1" stroke="none" stroke-width="1" fill="none" fill-rule="evenodd">
        <g id="drop" fill="#000000" transform="translate(42.666667, 70.248389)">
            <path d="M226.597,200.834611 L296.853333,271.084945 L353.819,271.084 L326.248389,243.503223 L356.418278,213.333333 L435.503223,292.418278 L356.418278,371.503223 L326.248389,341.333333 L353.82,313.751 L279.163435,313.751611 L196.418,231.011611 L226.597,200.834611 Z M356.418278,1.42108547e-14 L435.503223,79.0849447 L356.418278,158.169889 L326.248389,128 L353.82,100.418 L296.853333,100.418278 L83.503232,313.751611 L-1.0658141e-13,313.751611 L-1.03968831e-13,271.084945 L65.8133333,271.084945 L279.163435,57.7516113 L353.82,57.751 L326.248389,30.1698893 L356.418278,1.42108547e-14 Z M83.503232,57.7516113 L166.248,140.490611 L136.069,170.667611 L65.8133333,100.418278 L-1.0658141e-13,100.418278 L-1.0658141e-13,57.7516113 L83.503232,57.7516113 Z" id="Combined-Shape"></path>
        </g>
    </g>
</svg>