<?xml version="1.0" encoding="UTF-8"?>
<svg width="512px" height="512px" viewBox="0 0 512 512" version="1.1" xmlns="http://www.w3.org/2000/svg" xmlns:xlink="http://www.w3.org/1999/xlink">
    <title>mouse-click</title>
    <g id="Page-1" stroke="none" stroke-width="1" fill="none" fill-rule="evenodd">
        <g id="icon" fill="#000000" transform="translate(42.688000, 42.666667)">
            <path d="M170.616335,85.3333333 L213.270419,85.3333333 L213.270419,-2.13162821e-14 L170.616335,-2.13162821e-14 L170.616335,85.3333333 Z M-2.13162821e-14,213.333333 L85.3081674,213.333333 L85.3081674,170.666667 L-2.13162821e-14,170.666667 L-2.13162821e-14,213.333333 Z M101.465534,131.658667 L41.15266,71.3066667 L71.3090971,41.1413333 L131.621972,101.493333 L101.465534,131.658667 Z M71.3069644,342.845867 L41.1505273,312.680533 L101.463402,252.328533 L131.619839,282.493867 L71.3069644,342.845867 Z M282.431883,131.658667 L252.275445,101.493333 L312.58832,41.1413333 L342.744757,71.3066667 L282.431883,131.658667 Z M285.588285,309.700267 L345.17604,369.3056 L369.318251,345.156267 L309.709169,285.550933 L352.640504,242.628267 L202.028935,201.9456 L242.699604,352.6016 L285.588285,309.700267 Z M222.929436,426.670933 L147.538343,147.460267 L426.666667,222.852267 L364.007818,285.550933 L423.6169,345.156267 L345.17604,423.598933 L285.588285,363.9936 L222.929436,426.670933 Z" id="interaction-click"></path>
        </g>
    </g>
</svg>