<?xml version="1.0" encoding="UTF-8"?>
<svg width="512px" height="512px" viewBox="0 0 512 512" version="1.1" xmlns="http://www.w3.org/2000/svg" xmlns:xlink="http://www.w3.org/1999/xlink">
    <title>namur-out-of-spec</title>
    <g id="Page-1" stroke="none" stroke-width="1" fill="none" fill-rule="evenodd">
        <g id="add" fill="#000000" transform="translate(0.000000, -0.007099)">
            <path d="M256,-1.73472348e-18 L512,448.007099 L0,448.007099 L256,-1.73472348e-18 Z M256,42.9937655 L36.7573333,426.673766 L475.221333,426.673766 L256,42.9937655 Z M269.120743,340.318977 C274.32741,345.566006 277.143518,352.725627 276.906667,360.113766 C276.906334,371.350194 270.126009,381.476008 259.736558,385.755801 C249.347107,390.035594 237.401955,387.623484 229.487336,379.647512 C221.572717,371.671539 219.252919,359.708117 223.61281,349.352024 C227.972701,338.995931 238.150571,332.293998 249.386667,332.380432 C256.776414,332.200638 263.914076,335.071948 269.120743,340.318977 Z M258.986667,173.660432 C301.653333,173.660432 324.906667,193.287099 324.906667,226.140432 C324.906667,247.473766 316.373333,259.207099 290.986667,275.847099 C271.345067,289.152699 269.685035,292.003899 269.653798,308.826359 L269.653333,315.313766 L227.626667,315.313766 L227.626667,302.513766 C227.626667,277.127099 229.546667,273.073766 251.946667,257.927099 C274.346667,242.780432 277.76,238.087099 277.76,228.273766 C277.76,218.460432 268.16,208.007099 253.013333,208.007099 C236.950458,209.246691 221.42949,214.371538 207.786667,222.940432 L194.986667,190.300432 C214.63419,179.593276 236.612114,173.879016 258.986667,173.660432 Z" id="Combined-Shape"></path>
        </g>
    </g>
</svg>