<?xml version="1.0" encoding="UTF-8"?>
<svg width="512px" height="512px" viewBox="0 0 512 512" version="1.1" xmlns="http://www.w3.org/2000/svg" xmlns:xlink="http://www.w3.org/1999/xlink">
    <title>namur-check-function-filled</title>
    <g id="Page-1" stroke="none" stroke-width="1" fill="none" fill-rule="evenodd">
        <g id="add" fill="#000000" transform="translate(36.736000, 85.333333)">
            <path d="M438.485333,1.42108547e-14 L219.136,383.658667 L7.10542736e-15,1.42108547e-14 L438.485333,1.42108547e-14 Z M250.624,30.2933333 L250.624,79.7866667 C250.624,90.1548924 242.218892,98.56 231.850667,98.56 L205.397333,98.56 C195.029108,98.56 186.624,90.1548924 186.624,79.7866667 L186.624,30.9333333 C160.937499,41.880561 144.183043,67.0122451 143.957333,94.9333333 C144.071167,122.888666 160.862859,148.076205 186.624,158.933333 L186.624,270.72 C186.624,288.393112 200.950888,302.72 218.624,302.72 C236.297112,302.72 250.624,288.393112 250.624,270.72 L250.624,157.44 C276.102996,146.705869 292.838425,121.937434 293.290667,94.2933333 C293.064957,66.3722451 276.310501,41.240561 250.624,30.2933333 Z" id="Combined-Shape"></path>
        </g>
    </g>
</svg>