<?xml version="1.0" encoding="UTF-8"?>
<svg width="512px" height="512px" viewBox="0 0 512 512" version="1.1" xmlns="http://www.w3.org/2000/svg" xmlns:xlink="http://www.w3.org/1999/xlink">
    <title>namur-out-of-spec-filled</title>
    <g id="Page-1" stroke="none" stroke-width="1" fill="none" fill-rule="evenodd">
        <g id="add" fill="#000000" transform="translate(36.757333, 42.986667)">
            <path d="M219.242667,7.10542736e-15 L438.464,383.68 L-7.10542736e-15,383.68 L219.242667,7.10542736e-15 Z M213.100658,289.379328 L212.629331,289.386667 C201.393235,289.300233 191.215365,296.002165 186.855474,306.358258 C182.495583,316.714352 184.815382,328.677774 192.73,336.653746 C200.644619,344.629718 212.589771,347.041828 222.979222,342.762036 C233.368673,338.482243 240.148998,328.356428 240.149331,317.12 C240.386182,309.731861 237.570074,302.57224 232.363407,297.325211 C227.15674,292.078182 220.019078,289.206873 212.629331,289.386667 Z M222.229333,130.666667 C199.854781,130.885251 177.876857,136.599511 158.229333,147.306667 L158.229333,147.306667 L171.029333,179.946667 C184.672157,171.377773 200.193124,166.252925 216.256,165.013333 C231.402667,165.013333 241.002667,175.466667 241.002667,185.28 C241.002667,195.093333 237.589333,199.786667 215.189333,214.933333 L214.523459,215.384438 C192.751125,230.1632 190.869333,234.3872 190.869333,259.52 L190.869333,272.32 L232.896,272.32 L232.896,266.346667 C232.896,249.066667 234.389333,246.293333 254.229333,232.853333 C279.616,216.213333 288.149333,204.48 288.149333,183.146667 C288.149333,150.293333 264.896,130.666667 222.229333,130.666667 Z" id="Combined-Shape"></path>
        </g>
    </g>
</svg>