<?xml version="1.0" encoding="UTF-8"?>
<svg width="512px" height="512px" viewBox="0 0 512 512" version="1.1" xmlns="http://www.w3.org/2000/svg" xmlns:xlink="http://www.w3.org/1999/xlink">
    <title>photo-camera</title>
    <g id="Page-1" stroke="none" stroke-width="1" fill="none" fill-rule="evenodd">
        <g id="icon" fill="#000000" transform="translate(42.666667, 64.000000)">
            <path d="M277.333333,0 L315.727742,63.9906813 L426.666667,64 L426.666667,362.666667 L3.55271368e-14,362.666667 L3.55271368e-14,64 L110.933333,64 L149.333333,0 L277.333333,0 Z M253.162667,42.6666667 L173.461333,42.6666667 L135.09079,106.666667 L42.6666667,106.666667 L42.6666667,320 L384,320 L384,106.645333 L291.569068,106.655319 L253.162667,42.6666667 Z M213.333333,106.666667 C266.352669,106.666667 309.333333,149.647331 309.333333,202.666667 C309.333333,255.686003 266.352669,298.666667 213.333333,298.666667 C160.313997,298.666667 117.333333,255.686003 117.333333,202.666667 C117.333333,149.647331 160.313997,106.666667 213.333333,106.666667 Z M213.333333,149.333333 C183.878147,149.333333 160,173.21148 160,202.666667 C160,232.121853 183.878147,256 213.333333,256 C242.78852,256 266.666667,232.121853 266.666667,202.666667 C266.666667,173.21148 242.78852,149.333333 213.333333,149.333333 Z M341.333333,128 C353.115408,128 362.666667,137.551259 362.666667,149.333333 C362.666667,161.115408 353.115408,170.666667 341.333333,170.666667 C329.551259,170.666667 320,161.115408 320,149.333333 C320,137.551259 329.551259,128 341.333333,128 Z" id="Combined-Shape"></path>
        </g>
    </g>
</svg>