<?xml version="1.0" encoding="UTF-8"?>
<svg width="512px" height="512px" viewBox="0 0 512 512" version="1.1" xmlns="http://www.w3.org/2000/svg" xmlns:xlink="http://www.w3.org/1999/xlink">
    <title>snowflake</title>
    <g id="Page-1" stroke="none" stroke-width="1" fill="none" fill-rule="evenodd">
        <g id="Combined-Shape" fill="#000000" transform="translate(50.615481, 42.666667)">
            <path d="M226.717853,7.10542736e-15 L225.488252,49.174 L270.166041,14.0855732 L289.936331,39.2477601 L224.450252,90.701 L222.108,184.365 L302.054968,135.504795 L313.871142,53.06653 L345.54738,57.6070097 L337.477754,113.85486 L379.469939,88.191458 L400.803272,125.141875 L357.602539,148.66401 L410.328902,169.811897 L398.422954,199.514563 L321.120102,168.528575 L238.832,213.333 L317.049229,255.921717 L400.473073,227.573111 L410.769039,257.871512 L355.263968,276.729847 L400.803272,301.524791 L379.469939,338.475209 L335.227334,311.436315 L346.647973,368.932455 L315.260805,375.165088 L298.099229,288.74408 L222.108,242.3 L224.334252,331.332 L290.596787,389.404865 L269.505585,413.470634 L225.421252,374.831 L226.717853,426.666667 L184.051186,426.666667 L185.346252,374.832 L141.263454,413.470634 L120.172252,389.404865 L186.434252,331.332 L188.66,242.3 L112.669543,288.743616 L95.5082335,375.165088 L64.1210658,368.932455 L75.5418036,311.434486 L31.2990999,338.475209 L9.96576653,301.524791 L55.5034376,276.729018 L-4.26325641e-14,257.871512 L10.295966,227.573111 L93.7195426,255.921254 L171.935,213.333 L89.6478036,168.528539 L12.3460847,199.514563 L0.440136544,169.811897 L53.1870173,148.676473 L9.96576653,125.141875 L31.2990999,88.1914581 L73.2702326,113.843324 L65.2216584,57.6070097 L96.8978962,53.06653 L108.71467,135.505758 L188.66,184.365 L186.318252,90.7 L120.832708,39.2477601 L140.602998,14.0855732 L185.280252,49.198 L184.051186,7.10542736e-15 L226.717853,7.10542736e-15 Z"></path>
        </g>
    </g>
</svg>