<?xml version="1.0" encoding="UTF-8"?>
<svg width="512px" height="512px" viewBox="0 0 512 512" version="1.1" xmlns="http://www.w3.org/2000/svg" xmlns:xlink="http://www.w3.org/1999/xlink">
    <title>sort-descending</title>
    <g id="Page-1" stroke="none" stroke-width="1" fill="none" fill-rule="evenodd">
        <g id="add" fill="#000000" transform="translate(64.000000, 106.666667)">
            <path d="M-4.26325641e-14,213.333333 L106.666667,213.333333 L106.666667,256 L-4.26325641e-14,256 L-4.26325641e-14,213.333333 Z M-4.26325641e-14,149.333333 L149.333333,149.333333 L149.333333,106.666667 L-4.26325641e-14,106.666667 L-4.26325641e-14,149.333333 Z M-4.26325641e-14,42.6666667 L192,42.6666667 L192,-2.84217094e-14 L-4.26325641e-14,-2.84217094e-14 L-4.26325641e-14,42.6666667 Z M368.916693,189.31904 L320,238.235733 L320,-2.84217094e-14 L277.333333,-2.84217094e-14 L277.333333,238.235733 L228.41664,189.31904 L198.250027,219.485653 L298.666667,320 L399.083307,219.485653 L368.916693,189.31904 Z" id="Shape"></path>
        </g>
    </g>
</svg>