<?xml version="1.0" encoding="UTF-8"?>
<svg width="512px" height="512px" viewBox="0 0 512 512" version="1.1" xmlns="http://www.w3.org/2000/svg" xmlns:xlink="http://www.w3.org/1999/xlink">
    <title>star-add</title>
    <g id="Page-1" stroke="none" stroke-width="1" fill="none" fill-rule="evenodd">
        <g id="icon" fill="#000000" transform="translate(30.257293, 18.640071)">
            <path d="M396.409374,301.359929 L396.408707,365.359929 L460.409374,365.359929 L460.409374,408.026596 L396.408707,408.025929 L396.409374,472.026596 L353.742707,472.026596 L353.742707,408.025929 L289.742707,408.026596 L289.742707,365.359929 L353.742707,365.359929 L353.742707,301.359929 L396.409374,301.359929 Z M204.409376,3.55271368e-15 L261.25875,136.682287 L408.818752,148.512105 L296.393595,244.816222 L320.058,344.026 L268.409374,344.026596 L268.409,350.737 L204.409376,311.646669 L78.077434,388.809738 L112.425157,244.816222 L3.55271368e-14,148.512105 L147.560002,136.682287 L204.409376,3.55271368e-15 Z M204.409374,111.066596 L176.946921,177.129911 L105.657374,182.831929 L159.97419,229.366604 L143.374707,298.927929 L204.409376,261.650656 L265.422707,298.927929 L248.844562,229.366604 L303.140041,182.831929 L231.871831,177.129911 L204.409374,111.066596 Z" id="Combined-Shape"></path>
        </g>
    </g>
</svg>