<?xml version="1.0" encoding="UTF-8"?>
<svg width="512px" height="512px" viewBox="0 0 512 512" version="1.1" xmlns="http://www.w3.org/2000/svg" xmlns:xlink="http://www.w3.org/1999/xlink">
    <title>topic-filled</title>
    <g id="Page-1" stroke="none" stroke-width="1" fill="none" fill-rule="evenodd">
        <g id="icon" fill="#000000" transform="translate(21.333333, 85.333333)">
            <path d="M448,1.42108547e-14 L448,341.333333 L106.666667,341.333333 L3.55271368e-15,170.666667 L106.666667,1.42108547e-14 L448,1.42108547e-14 Z M254.919831,64 L222.348588,64 L213.208698,124.371677 L181.135995,124.371677 L181.135995,151.32063 L209.054203,151.32063 L203.07173,190.91602 L170.666667,190.91602 L170.666667,217.864973 L198.917235,217.864973 L189.943525,277.333333 L222.514768,277.333333 L231.488478,217.864973 L265.389159,217.864973 L256.41545,277.333333 L288.986693,277.333333 L297.960402,217.864973 L330.864005,217.864973 L330.864005,190.91602 L302.114898,190.91602 L308.097371,151.32063 L341.333333,151.32063 L341.333333,124.371677 L312.251866,124.371677 L321.391756,64 L288.820513,64 L279.680623,124.371677 L245.779942,124.371677 L254.919831,64 Z M277.333333,149.333333 L270.933333,192 L234.666667,192 L241.066667,149.333333 L277.333333,149.333333 Z" id="Combined-Shape"></path>
        </g>
    </g>
</svg>