<?xml version="1.0" encoding="UTF-8"?>
<svg width="512px" height="512px" viewBox="0 0 512 512" version="1.1" xmlns="http://www.w3.org/2000/svg" xmlns:xlink="http://www.w3.org/1999/xlink">
    <title>user-management-filled</title>
    <g id="Page-1" stroke="none" stroke-width="1" fill="none" fill-rule="evenodd">
        <g id="audio-description1" fill="#000000" transform="translate(64.000000, 64.000000)">
            <path d="M136.875994,213.332429 C131.288494,226.120529 128.135918,240.215954 128.004295,255.032675 L128,256 L128,383.999429 L-4.26325641e-14,384 L-4.26325641e-14,298.666667 C-4.26325641e-14,251.991467 37.426752,214.097963 83.9216506,213.34476 L85.3333333,213.333333 L136.875994,213.332429 Z M298.666667,170.666667 C345.794965,170.666667 384,208.871701 384,256 L384,384 L149.333333,384 L149.333333,256 C149.333333,208.871701 187.538368,170.666667 234.666667,170.666667 L298.666667,170.666667 Z M106.666667,64 C141.952,64 170.666667,92.7146667 170.666667,128 C170.666667,163.285333 141.952,192 106.666667,192 C71.3813333,192 42.6666667,163.285333 42.6666667,128 C42.6666667,92.7146667 71.3813333,64 106.666667,64 Z M266.666667,1.42108547e-14 C307.84,1.42108547e-14 341.333333,33.4933333 341.333333,74.6666667 C341.333333,115.84 307.84,149.333333 266.666667,149.333333 C225.493333,149.333333 192,115.84 192,74.6666667 C192,33.4933333 225.493333,1.42108547e-14 266.666667,1.42108547e-14 Z" id="Mask"></path>
        </g>
    </g>
</svg>