<?xml version="1.0" encoding="UTF-8"?>
<svg width="512px" height="512px" viewBox="0 0 512 512" version="1.1" xmlns="http://www.w3.org/2000/svg" xmlns:xlink="http://www.w3.org/1999/xlink">
    <title>water-fish</title>
    <g id="Page-1" stroke="none" stroke-width="1" fill="none" fill-rule="evenodd">
        <g id="drop" fill="#000000" transform="translate(42.666667, 64.000000)">
            <path d="M426.666667,234.666667 L426.666667,277.333333 C426.158675,277.333333 425.456014,277.543864 424.513041,278.014048 L422.293153,279.315172 C421.865261,279.594578 421.407286,279.906473 420.917538,280.252676 L417.584252,282.756149 C416.96065,283.246862 416.301894,283.775522 415.606294,284.343948 L410.977033,288.246255 L397.365293,300.298825 L392.813332,304.081307 C380.031861,314.348047 368.801445,320 355.555556,320 C341.294727,320 332.05509,315.568131 317.114667,303.126955 L309.775255,296.803139 L300.134078,288.246255 L295.504817,284.343948 L291.759826,281.39603 L288.817958,279.315172 L286.59807,278.014048 C285.655097,277.543864 284.952436,277.333333 284.444444,277.333333 C283.936453,277.333333 283.233792,277.543864 282.290819,278.014048 L280.070931,279.315172 C279.643038,279.594578 279.185064,279.906473 278.695316,280.252676 L275.36203,282.756149 C274.738428,283.246862 274.079672,283.775522 273.384072,284.343948 L268.754811,288.246255 L255.32809,300.112109 C238.22557,314.860081 228.691149,320 213.333333,320 C197.975518,320 188.441097,314.860081 171.338577,300.112109 L157.911856,288.246255 L153.282595,284.343948 L149.537603,281.39603 C148.427635,280.562752 147.451521,279.873984 146.595736,279.315172 L144.375848,278.014048 C143.432874,277.543864 142.730214,277.333333 142.222222,277.333333 C141.714231,277.333333 141.01157,277.543864 140.068597,278.014048 L137.848708,279.315172 L134.906841,281.39603 L131.16185,284.343948 L126.532589,288.246255 L116.891412,296.803139 L109.552,303.126955 C94.6115766,315.568131 85.3719398,320 71.1111111,320 C55.7532956,320 46.2188743,314.860081 29.1163545,300.112109 L15.6896333,288.246255 L11.0603727,284.343948 L7.31538116,281.39603 C6.20541272,280.562752 5.22929831,279.873984 4.37351377,279.315172 L2.15362563,278.014048 C1.52497669,277.700592 1.00313347,277.502538 0.574571818,277.40533 L-2.13162821e-14,277.333333 L-2.13162821e-14,234.666667 C15.3578155,234.666667 24.8922368,239.806585 41.9947566,254.554557 L55.4214778,266.420412 L60.0507384,270.322718 L63.79573,273.270637 C64.9056984,274.103915 65.8818128,274.792682 66.7375973,275.351495 L68.9574855,276.652619 C69.9004589,277.122802 70.6031194,277.333333 71.1111111,277.333333 C71.6191028,277.333333 72.3217633,277.122802 73.2647367,276.652619 L75.4846249,275.351495 L78.4264923,273.270637 L82.1714838,270.322718 L86.8007444,266.420412 L96.4419214,257.863527 L103.781333,251.539711 C118.721757,239.098535 127.961394,234.666667 142.222222,234.666667 C157.580038,234.666667 167.114459,239.806585 184.216979,254.554557 L197.6437,266.420412 L202.272961,270.322718 L206.017952,273.270637 C207.127921,274.103915 208.104035,274.792682 208.95982,275.351495 L211.179708,276.652619 C212.122681,277.122802 212.825342,277.333333 213.333333,277.333333 C213.841325,277.333333 214.543986,277.122802 215.486959,276.652619 L217.706847,275.351495 C218.134739,275.072088 218.592714,274.760193 219.082462,274.41399 L222.415748,271.910518 C223.03935,271.419805 223.698106,270.891144 224.393706,270.322718 L229.022967,266.420412 L242.449688,254.554557 C259.552208,239.806585 269.086629,234.666667 284.444444,234.666667 C298.705273,234.666667 307.94491,239.098535 322.885333,251.539711 L330.224745,257.863527 L339.865922,266.420412 L344.495183,270.322718 L348.240174,273.270637 L351.182042,275.351495 L353.40193,276.652619 C354.344903,277.122802 355.047564,277.333333 355.555556,277.333333 C356.363464,277.333333 358.596773,276.311021 362.130796,273.81755 L366.093772,270.817068 L369.766678,267.756161 L384.67191,254.554557 C400.552821,240.860012 409.908178,235.449961 423.45996,234.746967 L426.666667,234.666667 Z M426.666667,320 L426.666667,362.666667 C426.158675,362.666667 425.456014,362.877198 424.513041,363.347381 L422.293153,364.648505 C421.865261,364.927912 421.407286,365.239807 420.917538,365.58601 L417.584252,368.089482 C416.96065,368.580195 416.301894,369.108856 415.606294,369.677282 L410.977033,373.579588 L397.365293,385.632158 L392.813332,389.41464 C380.031861,399.68138 368.801445,405.333333 355.555556,405.333333 C341.294727,405.333333 332.05509,400.901465 317.114667,388.460289 L309.775255,382.136473 L300.134078,373.579588 L295.504817,369.677282 L291.759826,366.729363 L288.817958,364.648505 L286.59807,363.347381 C285.655097,362.877198 284.952436,362.666667 284.444444,362.666667 C283.936453,362.666667 283.233792,362.877198 282.290819,363.347381 L280.070931,364.648505 C279.643038,364.927912 279.185064,365.239807 278.695316,365.58601 L275.36203,368.089482 C274.738428,368.580195 274.079672,369.108856 273.384072,369.677282 L268.754811,373.579588 L255.32809,385.445443 C238.22557,400.193415 228.691149,405.333333 213.333333,405.333333 C197.975518,405.333333 188.441097,400.193415 171.338577,385.445443 L157.911856,373.579588 L153.282595,369.677282 L149.537603,366.729363 C148.427635,365.896085 147.451521,365.207318 146.595736,364.648505 L144.375848,363.347381 C143.432874,362.877198 142.730214,362.666667 142.222222,362.666667 C141.714231,362.666667 141.01157,362.877198 140.068597,363.347381 L137.848708,364.648505 L134.906841,366.729363 L131.16185,369.677282 L126.532589,373.579588 L116.891412,382.136473 L109.552,388.460289 C94.6115766,400.901465 85.3719398,405.333333 71.1111111,405.333333 C55.7532956,405.333333 46.2188743,400.193415 29.1163545,385.445443 L15.6896333,373.579588 L11.0603727,369.677282 L7.31538116,366.729363 C6.20541272,365.896085 5.22929831,365.207318 4.37351377,364.648505 L2.15362563,363.347381 C1.52497669,363.033925 1.00313347,362.835871 0.574571818,362.738663 L-2.13162821e-14,362.666667 L-2.13162821e-14,320 C15.3578155,320 24.8922368,325.139919 41.9947566,339.887891 L55.4214778,351.753745 L60.0507384,355.656052 L63.79573,358.60397 C64.9056984,359.437248 65.8818128,360.126016 66.7375973,360.684828 L68.9574855,361.985952 C69.9004589,362.456136 70.6031194,362.666667 71.1111111,362.666667 C71.6191028,362.666667 72.3217633,362.456136 73.2647367,361.985952 L75.4846249,360.684828 L78.4264923,358.60397 L82.1714838,355.656052 L86.8007444,351.753745 L96.4419214,343.196861 L103.781333,336.873045 C118.721757,324.431869 127.961394,320 142.222222,320 C157.580038,320 167.114459,325.139919 184.216979,339.887891 L197.6437,351.753745 L202.272961,355.656052 L206.017952,358.60397 C207.127921,359.437248 208.104035,360.126016 208.95982,360.684828 L211.179708,361.985952 C212.122681,362.456136 212.825342,362.666667 213.333333,362.666667 C213.841325,362.666667 214.543986,362.456136 215.486959,361.985952 L217.706847,360.684828 C218.134739,360.405422 218.592714,360.093527 219.082462,359.747324 L222.415748,357.243851 C223.03935,356.753138 223.698106,356.224478 224.393706,355.656052 L229.022967,351.753745 L242.449688,339.887891 C259.552208,325.139919 269.086629,320 284.444444,320 C298.705273,320 307.94491,324.431869 322.885333,336.873045 L330.224745,343.196861 L339.865922,351.753745 L344.495183,355.656052 L348.240174,358.60397 L351.182042,360.684828 L353.40193,361.985952 C354.344903,362.456136 355.047564,362.666667 355.555556,362.666667 C356.363464,362.666667 358.596773,361.644355 362.130796,359.150883 L366.093772,356.150401 L369.766678,353.089494 L384.67191,339.887891 C400.552821,326.193345 409.908178,320.783295 423.45996,320.080301 L426.666667,320 Z M170.666667,1.42108547e-14 C206.17851,1.42108547e-14 237.637166,17.3537562 257.024901,44.043534 L259.812408,43.6458465 C264.35222,42.9973019 268.757787,41.6211063 272.859544,39.5702282 L300.324454,25.8377732 C306.248952,22.8755239 312.781776,21.3333333 319.405567,21.3333333 L405.333333,21.3333333 L405.333333,38.4 C405.333333,64 397.333333,76.8 389.333333,85.3333333 L385.928086,88.7541302 L379.677357,94.6254616 C375.945578,98.307483 373.333333,101.790476 373.333333,106.666667 C373.333333,111.585333 376.055556,115.812554 379.912037,120.391889 L387.337963,128.781818 C395.944444,138.666462 405.333333,151.822222 405.333333,174.933333 L405.333333,192 L319.405567,192 C312.781776,192 306.248952,190.457809 300.324454,187.49556 L272.859544,173.763105 C268.757787,171.712227 264.35222,170.336031 259.812408,169.687487 L257.024901,169.289799 C237.637166,195.979577 206.17851,213.333333 170.666667,213.333333 L128,213.333333 C69.0896267,213.333333 21.3333333,165.57704 21.3333333,106.666667 C21.3333333,47.7562934 69.0896267,1.42108547e-14 128,1.42108547e-14 L170.666667,1.42108547e-14 Z M170.666667,42.6666667 L128,42.6666667 C92.653776,42.6666667 64,71.3204427 64,106.666667 C64,140.750526 90.6436259,168.611432 124.239514,170.558023 L128,170.666667 L170.666667,170.666667 C190.065524,170.666667 207.952565,162.019237 220.011416,147.430138 L222.504676,144.213945 L237.60885,123.421053 L265.846386,127.449642 C273.110085,128.487313 280.201951,130.456378 286.948348,133.302596 L291.940657,135.600878 L319.405567,149.333333 L348.629333,149.333333 L346.30367,146.511388 L342.967463,142.285497 C342.4704,141.630441 342.01112,141.00886 341.602068,140.434019 L340.723154,139.150934 C334.450609,129.537067 330.666667,118.912542 330.666667,106.666667 C330.666667,91.7784354 335.935382,79.9878852 344.530145,69.8212565 L347.961314,66.0342713 L349.994667,64 L319.405567,64 L291.940657,77.732455 C285.377847,81.0138599 278.426159,83.4316713 271.255216,84.9322221 L265.838549,85.8848103 L237.60885,89.9122801 L222.504676,69.1193884 C211.300445,53.6952849 193.959713,44.0195814 174.798852,42.7980392 L170.666667,42.6666667 Z M128,85.3333333 C139.782075,85.3333333 149.333333,94.884592 149.333333,106.666667 C149.333333,118.448741 139.782075,128 128,128 C116.217925,128 106.666667,118.448741 106.666667,106.666667 C106.666667,94.884592 116.217925,85.3333333 128,85.3333333 Z" id="Combined-Shape"></path>
        </g>
    </g>
</svg>