<?xml version="1.0" encoding="UTF-8"?>
<svg width="512px" height="512px" viewBox="0 0 512 512" version="1.1" xmlns="http://www.w3.org/2000/svg" xmlns:xlink="http://www.w3.org/1999/xlink">
    <title>x-axis-settings</title>
    <g id="Page-1" stroke="none" stroke-width="1" fill="none" fill-rule="evenodd">
        <g id="Combined-Shape" fill="#000000" transform="translate(42.666667, 64.000000)">
            <path d="M64,1.94546601e-11 L64,298.666 L353.818,298.666 L304.915055,249.751611 L335.084945,219.581722 L435.503223,320 L335.084945,420.418278 L304.915055,390.248389 L353.817,341.333 L64,341.333 L64,362.666667 L42.6666667,362.666667 L42.666,341.333 L6.39488462e-14,341.333333 L6.39488462e-14,298.666667 L42.666,298.666 L42.6666667,1.94546601e-11 L64,1.94546601e-11 Z M349.513821,2.91180413e-11 L349.514497,22.8359635 C359.917725,26.5130721 369.432074,32.0718495 377.648607,39.1033566 L397.445419,27.6733214 L427.075049,78.9933453 L407.291131,90.4166575 C408.264405,95.6851349 408.77308,101.116497 408.77308,106.666667 C408.77308,112.216944 408.264385,117.648409 407.291074,122.916982 L427.075049,134.339988 L397.445419,185.660012 L377.648607,174.229977 C369.432074,181.261484 359.917725,186.820261 349.514497,190.49737 L349.513821,213.333333 L290.254562,213.333333 L290.253886,190.49737 C279.851044,186.820398 270.337014,181.261896 262.120689,174.230759 L242.322963,185.660012 L212.693333,134.339988 L232.477308,122.916982 C231.503998,117.648409 230.995302,112.216944 230.995302,106.666667 C230.995302,101.116146 231.504042,95.6844472 232.477437,90.4156568 L212.693333,78.9933453 L242.322963,27.6733214 L262.119696,39.1034251 C270.336246,32.0718856 279.850624,26.513084 290.253886,22.8359635 L290.254562,2.91180413e-11 L349.513821,2.91180413e-11 Z M319.884191,71.1111111 C300.2474,71.1111111 284.328636,87.0298756 284.328636,106.666667 C284.328636,126.303458 300.2474,142.222222 319.884191,142.222222 C339.520982,142.222222 355.439747,126.303458 355.439747,106.666667 C355.439747,87.0298756 339.520982,71.1111111 319.884191,71.1111111 Z"></path>
        </g>
    </g>
</svg>