<?xml version="1.0" encoding="UTF-8"?>
<svg width="512px" height="512px" viewBox="0 0 512 512" version="1.1" xmlns="http://www.w3.org/2000/svg" xmlns:xlink="http://www.w3.org/1999/xlink">
    <title>youtube</title>
    <g id="Page-1" stroke="none" stroke-width="1" fill="none" fill-rule="evenodd">
        <g id="icon" fill="#000000" transform="translate(42.687753, 106.720314)">
            <path d="M196.390255,0.0414579151 L225.158849,5.68434189e-14 L256.425765,0.400046625 L276.402552,0.842264534 L297.703552,1.50583657 L312.057915,2.09337432 L326.12785,2.81256448 L339.564171,3.6767162 C356.901662,4.93147469 371.618351,6.60828831 379.98958,8.84912105 C398.35758,13.7244463 412.800247,28.1384515 417.728247,46.5798994 C419.568331,53.447076 421.028716,61.8486233 422.187751,70.8589046 L423.438961,81.9041937 C423.811157,85.6438603 424.140153,89.4216836 424.430961,93.1784229 L425.498761,109.741495 L425.97437,120.033005 L426.555872,140.543114 L426.624442,152.631053 L426.296074,169.094762 L425.757684,183.449876 L424.839161,199.69055 C424.458348,205.284539 423.997256,210.992047 423.438961,216.612329 L422.187751,227.677116 C421.028716,236.701724 419.568331,245.112297 417.728247,251.979474 C412.800247,270.420921 398.35758,284.834927 379.98958,289.710252 C371.618351,291.951085 356.901662,293.627898 339.564171,294.882657 L326.12785,295.746808 L312.057915,296.465999 L290.528831,297.302095 L276.402552,297.717108 L238.951696,298.425108 L208.032903,298.597999 L179.710235,298.317369 L153.988826,297.812971 L137.0471,297.333505 L113.968497,296.439492 L96.1200722,295.488723 L84.8506143,294.721424 L74.3361528,293.83778 C72.6586304,293.680355 71.021545,293.517739 69.4293857,293.349763 L60.4514593,292.276205 C54.873471,291.515788 50.1579608,290.66412 46.5922465,289.710252 C28.2455799,284.834927 13.7815799,270.420921 8.87491319,251.979474 C6.30495763,242.365426 4.47743368,229.726322 3.17786109,216.612329 L2.18823349,205.314944 L1.42717958,194.141835 L0.86468464,183.449876 L0.327583076,169.094762 L1.42108547e-14,152.631053 L1.42108547e-14,145.72665 L0.327583076,129.309399 L0.86468464,114.991924 L1.42717958,104.326148 L2.18823349,93.1784229 L3.17786109,81.9041937 C4.47743368,68.8153604 6.30495763,56.1939466 8.87491319,46.5798994 C13.7815799,28.1384515 28.2455799,13.7244463 46.5922465,8.84912105 C50.1579608,7.89525306 54.873471,7.04358521 60.4514593,6.28316748 L69.4293857,5.20960974 C71.021545,5.04163347 72.6586304,4.87901814 74.3361528,4.72159266 L84.8506143,3.83794924 L96.1200722,3.07064974 L113.968497,2.11988045 L126.182684,1.60751099 L153.988826,0.746402373 L184.273073,0.177547076 L196.390255,0.0414579151 Z M218.590719,42.6276211 L208.222052,42.6276211 L186.212746,42.8169156 L162.6855,43.2195437 L138.544964,43.8662341 L121.687389,44.4891668 L99.2256529,45.6366534 L84.8274491,46.6399426 L76.5676822,47.3611769 L69.4869588,48.1146258 C68.410226,48.242424 67.3864704,48.3712186 66.4176176,48.5008366 L61.278734,49.2870422 C59.7956514,49.5514821 58.5475816,49.8178322 57.5499266,50.0847087 C53.9614505,51.0382873 51.0713222,53.9263913 50.0943016,57.5983595 C47.8764484,65.8952133 46.1808701,78.3481977 44.9705115,92.6745642 L44.0510263,105.359852 L43.3640141,118.643264 C43.2685968,120.889262 43.1826497,123.146872 43.106065,125.409437 L42.7580394,138.991062 L42.6647443,145.72665 L42.6647443,152.226041 L42.7491663,158.629877 L43.063124,171.516498 L43.5742466,184.292534 L44.2869502,196.698961 L45.2056506,208.476757 C46.39935,221.750087 48.0226423,233.211125 50.1070832,241.00894 C51.0713222,244.632982 53.9614505,247.521086 57.6183424,248.492905 L59.2893076,248.889618 L63.7151993,249.677547 L69.5077617,250.451043 L76.5726612,251.201581 L84.8155645,251.920635 L94.1421382,252.599679 L109.957526,253.524576 L127.680547,254.311495 L138.423165,254.689034 L162.647063,255.338604 L186.189451,255.742236 L213.410223,255.946418 L230.558384,255.850049 L256.257368,255.496615 C265.037068,255.333197 273.96716,255.121922 282.858704,254.856035 L302.142934,254.184357 L319.054834,253.396595 L334.119861,252.485354 L347.058723,251.474383 L357.592131,250.387432 L363.140118,249.632315 C363.96075,249.504918 364.728216,249.376848 365.440793,249.24825 L369.043788,248.471507 C372.63883,247.517293 375.528514,244.629633 376.515457,240.936358 C378.895617,232.053627 380.675823,218.372968 381.901287,202.680797 L382.717077,190.578048 C382.835942,188.512576 382.946315,186.426559 383.048286,184.325438 L383.559981,171.581014 L383.874243,158.735339 L383.978958,149.235739 L383.875132,139.751162 L383.560597,126.905788 L383.048607,114.168891 L382.334793,101.79871 C381.110521,83.647592 379.190354,67.6056854 376.507949,57.5949579 C375.528514,53.9297398 372.63883,51.0420799 368.956884,50.0647015 C367.994295,49.807033 366.797282,49.5500155 365.379758,49.2948535 L360.47956,48.5361386 L354.339758,47.7957843 L347.043822,47.0810182 L338.675218,46.3990677 L324.293647,45.4534816 L313.608548,44.8851906 L296.143491,44.1439727 C287.33773,43.821784 278.398952,43.5575854 269.523101,43.3446373 L243.280283,42.8528056 L218.590719,42.6276211 Z" id="Shape"></path>
            <polygon id="Path" points="169.664247 212.340959 169.664247 86.2184137 281.194913 149.173701"></polygon>
        </g>
    </g>
</svg>