<?xml version="1.0" encoding="UTF-8"?>
<svg width="512px" height="512px" viewBox="0 0 512 512" version="1.1" xmlns="http://www.w3.org/2000/svg" xmlns:xlink="http://www.w3.org/1999/xlink">
    <title>alarm-filled</title>
    <g id="Page-1" stroke="none" stroke-width="1" fill="none" fill-rule="evenodd">
        <g id="add" fill="#000000" transform="translate(42.666667, 42.666667)">
            <path d="M213.333333,3.55271368e-14 C330.943502,3.55271368e-14 426.666667,95.7231591 426.666667,213.333333 C426.666667,330.943502 330.943502,426.666667 213.333333,426.666667 C95.7231591,426.666667 3.55271368e-14,330.943502 3.55271368e-14,213.333333 C3.55271368e-14,95.7231591 95.7231591,3.55271368e-14 213.333333,3.55271368e-14 Z M213.333333,272.042667 C198.095238,272.042667 186.666667,283.306667 186.666667,298.325333 C186.666667,314.026667 197.748918,325.290667 213.333333,325.290667 C228.571429,325.290667 240,314.026667 240,298.666667 C240,283.306667 228.571429,272.042667 213.333333,272.042667 Z M234.666667,85.3333333 L192,85.3333333 L192,234.666667 L234.666667,234.666667 L234.666667,85.3333333 Z" id="Combined-Shape"></path>
        </g>
    </g>
</svg>