<svg xmlns="http://www.w3.org/2000/svg" width="512" height="512" viewBox="0 0 512 512"><path fill-rule="evenodd" d="M384,-2.84217094e-14 L384,74.666 L426.666667,74.6666667 L426.666667,181.333333 L384,181.333 L384,256 L-2.13162821e-14,256 L-2.13162821e-14,-2.84217094e-14 L384,-2.84217094e-14 Z M341.333333,42.6666667 L42.6666667,42.6666667 L42.6666667,213.333333 L341.333333,213.333333 L341.333333,42.6666667 Z M230.250667,59.584 L260.416,89.7493333 L222.165333,128 L260.416,166.250667 L230.250667,196.416 L192,158.165333 L153.749333,198.549333 L123.584,168.384 L161.834667,128 L123.584,89.7493333 L153.749333,59.584 L192,97.8346667 L230.250667,59.584 Z" transform="translate(42.667 128)"/></svg>