<svg xmlns="http://www.w3.org/2000/svg" width="512" height="512" viewBox="0 0 512 512"><path fill-rule="evenodd" d="M192,234.666667 C209.664,234.666667 224,248.994133 224,266.666667 C224,284.3392 209.664,298.666667 192,298.666667 C174.336,298.666667 160,284.3392 160,266.666667 C160,248.994133 174.336,234.666667 192,234.666667 Z M128,21.333 L128,64 L42.6666667,64 L42.6666667,234.666667 L128,234.666 L128,277.333 L3.55271368e-14,277.333333 L3.55271368e-14,21.3333333 L128,21.333 Z M384,21.3333333 L384,96 L426.666667,96 L426.666667,202.666667 L384,202.666 L384,277.333333 L256,277.333 L256,234.666 L341.333333,234.666667 L341.333333,64 L256,64 L256,21.333 L384,21.3333333 Z M213.333333,4.26325641e-14 L213.333333,208 L170.666667,208 L170.666667,4.26325641e-14 L213.333333,4.26325641e-14 Z" transform="translate(42.667 106.667)"/></svg>