<svg xmlns="http://www.w3.org/2000/svg" width="512" height="512" viewBox="0 0 512 512"><path fill-rule="evenodd" d="M192.210027,261.333333 C206.93792,261.333333 218.876693,273.272107 218.876693,288 C218.876693,302.727893 206.93792,314.666667 192.210027,314.666667 C177.482133,314.666667 165.54336,302.727893 165.54336,288 C165.54336,273.272107 177.482133,261.333333 192.210027,261.333333 Z M384,0 L384,74.666 L426.666667,74.6666667 L426.666667,181.333333 L384,181.333 L384,256 L244.258,256 L244.254187,245.333333 L244.25484,244.730163 C244.263986,241.835448 244.401173,237.880339 246.458984,235.320964 C247.92885,233.492839 249.108929,232.221101 249.999223,231.505752 C258.430929,225.260371 265.628126,219.258097 271.716363,213.332754 L341.333333,213.333333 L341.333333,42.6666667 L42.6666667,42.6666667 L42.6666667,213.333333 L140.122771,213.332987 C138.373133,222.549451 137.5888,233.171447 137.5888,245.333333 L137.573,256 L3.55271368e-14,256 L3.55271368e-14,0 L384,0 Z M188.651413,72.00128 C206.811627,72.00128 222.743787,75.5351467 236.4496,82.5898667 C259.253013,94.2929067 270.645013,114.161493 270.645013,142.170667 C270.645013,155.686187 267.210133,167.488427 260.357227,177.567787 C254.70624,186.03776 245.23616,195.216213 231.92096,205.101653 C224.25696,210.349013 219.20992,215.285333 216.79456,219.92448 C213.755413,225.572907 212.254187,234.03776 212.254187,245.333333 L169.5888,245.333333 C169.5888,228.196693 171.413013,215.69408 175.043307,207.829333 C179.272427,198.34624 188.4496,188.76544 202.56416,179.087147 C209.228267,174.0416 214.066667,168.903467 217.0928,163.66144 C220.71776,157.80992 222.541973,151.158827 222.541973,143.69536 C222.541973,131.796907 219.002987,122.929707 211.948267,117.071573 C206.311573,112.843733 199.445653,110.726613 191.379307,110.726613 C178.271253,110.726613 168.78944,115.065173 162.94304,123.73568 C158.707307,130.18496 156.583573,138.4544 156.583573,148.535253 L156.583573,148.839893 L111.221653,148.839893 C111.221653,122.41792 119.58112,102.457173 136.312853,88.94144 C150.432747,77.65888 167.88576,72.00128 188.651413,72.00128 Z" transform="translate(42.667 128)"/></svg>