<?xml version="1.0" encoding="UTF-8"?>
<svg width="512px" height="512px" viewBox="0 0 512 512" version="1.1" xmlns="http://www.w3.org/2000/svg" xmlns:xlink="http://www.w3.org/1999/xlink">
    <title>chart-curve-spline</title>
    <g id="Page-1" stroke="none" stroke-width="1" fill="none" fill-rule="evenodd">
        <g id="chart-curve-spline" transform="translate(0.000000, 0.000000)" fill="#000000">
            <g id="icon" transform="translate(64.000000, 64.000000)">
                <path d="M42.6666667,1.42108547e-14 L42.666,341.333 L384,341.333333 L384,384 L1.42108547e-14,384 L1.42108547e-14,1.42108547e-14 L42.6666667,1.42108547e-14 Z M213.333333,42.6666667 C242.554802,42.6666667 263.209938,59.4789865 276.66524,88.3117767 L278.090266,91.4408839 L280.732904,97.7319035 C281.153137,98.7928422 281.564212,99.8629288 281.96755,100.946559 L284.306072,107.646016 C284.684135,108.801399 285.057298,109.979116 285.426981,111.183561 L287.614674,118.766141 L289.786974,127.201183 L292.012007,136.699657 L294.357902,147.472534 L300.781121,178.78902 L303.23762,190.017878 L305.642044,200.208529 L308.014553,209.400072 C308.80231,212.301745 309.588107,215.043417 310.375306,217.631604 L312.744463,224.942225 C320.281379,246.675686 328.247935,255.145213 339.52484,255.937832 L341.333333,256 L341.333333,298.666667 C312.111864,298.666667 291.456728,281.854347 278.001426,253.021557 L276.576401,249.892449 L273.933762,243.60143 C273.51353,242.540491 273.102454,241.470404 272.699117,240.386775 L270.360594,233.687317 C269.982532,232.531934 269.609369,231.354217 269.239686,230.149772 L267.051992,222.567192 L264.879693,214.132151 L262.65466,204.633676 L260.308765,193.860799 L253.885546,162.544314 L251.429047,151.315455 L249.024623,141.124804 L246.652114,131.933262 C245.864357,129.031588 245.078559,126.289916 244.291361,123.701729 L241.922204,116.391108 C233.988608,93.5137807 225.578957,85.3333333 213.333333,85.3333333 C201.08771,85.3333333 192.678059,93.5137807 184.744463,116.391108 L182.375306,123.701729 C181.981707,124.995823 181.588458,126.328287 181.195139,127.699938 L178.831028,136.406588 C178.435749,137.93824 178.039561,139.510707 177.642044,141.124804 L175.23762,151.315455 L172.781121,162.544314 L166.357902,193.860799 L164.012007,204.633676 L161.786974,214.132151 L159.614674,222.567192 L157.426981,230.149772 C157.057298,231.354217 156.684135,232.531934 156.306072,233.687317 L153.96755,240.386775 C153.564212,241.470404 153.153137,242.540491 152.732904,243.60143 L150.090266,249.892449 C149.627726,250.934378 149.153191,251.975948 148.66524,253.021557 C135.918112,280.336832 116.709083,296.863651 89.8762604,298.527651 L85.3333333,298.666667 L85.3333333,256 C97.5789571,256 105.988608,247.819553 113.922204,224.942225 L116.291361,217.631604 C116.68496,216.337511 117.078209,215.005046 117.471528,213.633395 L119.835639,204.926745 C120.230917,203.395093 120.627105,201.822626 121.024623,200.208529 L123.429047,190.017878 L125.885546,178.78902 L132.308765,147.472534 L134.65466,136.699657 L136.879693,127.201183 L139.051992,118.766141 L141.239686,111.183561 C141.609369,109.979116 141.982532,108.801399 142.360594,107.646016 L144.699117,100.946559 C145.102454,99.8629288 145.51353,98.7928422 145.933762,97.7319035 L148.576401,91.4408839 C149.03894,90.3989558 149.513476,89.3573852 150.001426,88.3117767 C163.456728,59.4789865 184.111864,42.6666667 213.333333,42.6666667 Z" id="Combined-Shape"></path>
            </g>
        </g>
    </g>
</svg>