<svg xmlns="http://www.w3.org/2000/svg" width="512" height="512" viewBox="0 0 512 512"><path fill-rule="evenodd" d="M213.333333,3.55271368e-14 C269.912851,3.55271368e-14 324.175019,22.4761259 364.18278,62.4838867 C404.190541,102.491647 426.666667,156.753816 426.666667,213.333333 C426.666667,331.15408 331.15408,426.666667 213.333333,426.666667 C95.5125867,426.666667 3.55271368e-14,331.15408 3.55271368e-14,213.333333 C3.55271368e-14,95.5125867 95.5125867,3.55271368e-14 213.333333,3.55271368e-14 Z M213.333333,42.6666667 C119.076736,42.6666667 42.6666667,119.076736 42.6666667,213.333333 C42.6666667,307.589931 119.076736,384 213.333333,384 C307.589931,384 384,307.589931 384,213.333333 C384,119.076736 307.589931,42.6666667 213.333333,42.6666667 Z M288.758057,107.738721 L318.927946,137.90861 L243.502,213.333 L318.927946,288.758057 L288.758057,318.927946 L213.333,243.502 L137.90861,318.927946 L107.738721,288.758057 L183.163,213.333 L107.738721,137.90861 L137.90861,107.738721 L213.333,183.163 L288.758057,107.738721 Z" transform="translate(42.667 42.667)"/></svg>