<?xml version="1.0" encoding="UTF-8"?>
<svg width="512px" height="512px" viewBox="0 0 512 512" version="1.1" xmlns="http://www.w3.org/2000/svg" xmlns:xlink="http://www.w3.org/1999/xlink">
    <title>data-egress</title>
    <g id="Page-1" stroke="none" stroke-width="1" fill="none" fill-rule="evenodd">
        <g id="add" fill="#000000" transform="translate(33.830111, 85.333333)">
            <path d="M286.169889,1.42108547e-14 L435.503223,85.3333333 L435.503223,256 L286.169889,341.333333 L136.836556,256 L136.836556,213.333 L179.927556,213.333 L179.928202,231.338667 L286.169889,292.053333 L392.390022,231.338667 L392.390022,109.973333 L286.169889,49.2586667 L179.928202,109.973333 L179.927556,128 L136.836556,128 L136.836556,85.3333333 L286.169889,1.42108547e-14 Z M79.0849447,91.581722 L109.254834,121.751611 L81.682,149.332722 L307.503223,149.333333 L307.503223,192 L81.682,191.999722 L109.254834,219.581722 L79.0849447,249.751611 L0,170.666667 L79.0849447,91.581722 Z" id="Combined-Shape"></path>
        </g>
    </g>
</svg>