<?xml version="1.0" encoding="UTF-8"?>
<svg width="512px" height="512px" viewBox="0 0 512 512" version="1.1" xmlns="http://www.w3.org/2000/svg" xmlns:xlink="http://www.w3.org/1999/xlink">
    <title>disk</title>
    <g id="Page-1" stroke="none" stroke-width="1" fill="none" fill-rule="evenodd">
        <g id="work-case" fill="#000000" transform="translate(85.333333, 85.333333)">
            <path d="M243.498667,1.42108547e-14 L341.333333,97.8346667 L341.333333,341.333333 L1.42108547e-14,341.333333 L1.42108547e-14,1.42108547e-14 L243.498667,1.42108547e-14 Z M213.333333,234.666667 L128,234.666667 L128,298.688 L213.333333,298.688 L213.333333,234.666667 Z M85.3333333,42.6666667 L42.6666667,42.6666667 L42.6666667,298.666667 L85.3333333,298.666667 L85.3333333,192 L256,192 L256,298.666667 L298.666667,298.666667 L298.666667,115.498667 L256,72.8533333 L256,149.333333 L85.3333333,149.333333 L85.3333333,42.6666667 Z M213.333333,42.6666667 L128,42.6666667 L128,106.688 L213.333333,106.688 L213.333333,42.6666667 Z" id="Mask"></path>
        </g>
    </g>
</svg>