<?xml version="1.0" encoding="UTF-8"?>
<svg width="512px" height="512px" viewBox="0 0 512 512" version="1.1" xmlns="http://www.w3.org/2000/svg" xmlns:xlink="http://www.w3.org/1999/xlink">
    <title>function-diagram-new</title>
    <g id="Page-1" stroke="none" stroke-width="1" fill="none" fill-rule="evenodd">
        <g id="Combined-Shape" fill="#000000">
            <path d="M426.666667,320 L426.666,384 L490.666667,384 L490.666667,426.666667 L426.666,426.666 L426.666667,490.666667 L384,490.666667 L384,426.666 L320,426.666667 L320,384 L384,384 L384,320 L426.666667,320 Z M426.666667,64 L426.666,298.666 L384,298.666 L384,106.666667 L106.666667,106.666667 L106.666667,384 L298.666,384 L298.666,426.666 L64,426.666667 L64,64 L426.666667,64 Z M234.666667,149.333333 L234.666667,256 L213.333333,255.999333 L213.333333,277.333333 L277.333333,277.333333 L277.333333,234.666667 L362.666667,234.666667 L362.666667,341.333333 L277.333333,341.333333 L277.333333,298.666667 L192,298.666667 L191.999333,255.999333 L149.333333,256 L149.333333,149.333333 L234.666667,149.333333 Z"></path>
        </g>
    </g>
</svg>