<?xml version="1.0" encoding="UTF-8"?>
<svg width="512px" height="512px" viewBox="0 0 512 512" version="1.1" xmlns="http://www.w3.org/2000/svg" xmlns:xlink="http://www.w3.org/1999/xlink">
    <title>hierarchy</title>
    <g id="Page-1" stroke="none" stroke-width="1" fill="none" fill-rule="evenodd">
        <g id="scheduler" fill="#000000" transform="translate(42.666667, 64.000000)">
            <path d="M128,-1.42108547e-14 L298.666667,-1.42108547e-14 L298.666667,106.666667 L128,106.666667 L128,-1.42108547e-14 Z M3.55271368e-14,277.333333 L128,277.333333 L128,362.666667 L3.55271368e-14,362.666667 L3.55271368e-14,277.333333 Z M298.666667,277.333333 L426.666667,277.333333 L426.666667,362.666667 L298.666667,362.666667 L298.666667,277.333333 Z M149.333333,277.333333 L277.333333,277.333333 L277.333333,362.666667 L149.333333,362.666667 L149.333333,277.333333 Z M234.666667,128 L234.666,170.666 L384,170.666667 L384,256 L341.333333,256 L341.333333,213.312 L234.666,213.312 L234.666667,256 L192,256 L192,213.312 L85.3333333,213.312 L85.3333333,256 L42.6666667,256 L42.6666667,170.666667 L192,170.666 L192,128 L234.666667,128 Z" id="Combined-Shape"></path>
        </g>
    </g>
</svg>