<?xml version="1.0" encoding="UTF-8"?>
<svg width="512px" height="512px" viewBox="0 0 512 512" version="1.1" xmlns="http://www.w3.org/2000/svg" xmlns:xlink="http://www.w3.org/1999/xlink">
    <title>list</title>
    <g id="Page-1" stroke="none" stroke-width="1" fill="none" fill-rule="evenodd">
        <g id="add" fill="#000000" transform="translate(64.000000, 64.000000)">
            <path d="M106.666667,1.42108547e-14 L384,1.42108547e-14 L384,42.6666667 L106.666667,42.6666667 L106.666667,1.42108547e-14 Z M1.42108547e-14,1.42108547e-14 L64,1.42108547e-14 L64,42.6666667 L1.42108547e-14,42.6666667 L1.42108547e-14,1.42108547e-14 Z M106.666667,106.666667 L384,106.666667 L384,149.333333 L106.666667,149.333333 L106.666667,106.666667 Z M1.42108547e-14,106.666667 L64,106.666667 L64,149.333333 L1.42108547e-14,149.333333 L1.42108547e-14,106.666667 Z M106.666667,213.333333 L384,213.333333 L384,256 L106.666667,256 L106.666667,213.333333 Z M1.42108547e-14,213.333333 L64,213.333333 L64,256 L1.42108547e-14,256 L1.42108547e-14,213.333333 Z M106.666667,320 L384,320 L384,362.666667 L106.666667,362.666667 L106.666667,320 Z M1.42108547e-14,320 L64,320 L64,362.666667 L1.42108547e-14,362.666667 L1.42108547e-14,320 Z" id="Combined-Shape"></path>
        </g>
    </g>
</svg>