<?xml version="1.0" encoding="UTF-8"?>
<svg width="512px" height="512px" viewBox="0 0 512 512" version="1.1" xmlns="http://www.w3.org/2000/svg" xmlns:xlink="http://www.w3.org/1999/xlink">
    <title>log-in</title>
    <g id="Page-1" stroke="none" stroke-width="1" fill="none" fill-rule="evenodd">
        <g id="icon" fill="#000000" transform="translate(42.666667, 42.666667)">
            <path d="M405.333333,3.55271368e-14 L405.333333,426.666667 L170.666667,426.666667 L170.666667,341.333333 L213.333333,341.333333 L213.333333,384 L362.666667,384 L362.666667,42.6666667 L213.333333,42.6666667 L213.333333,85.3333333 L170.666667,85.3333333 L170.666667,3.55271368e-14 L405.333333,3.55271368e-14 Z M74.6666667,138.666667 C108.491057,138.666667 137.06239,161.157677 146.241432,192.000465 L320,192 L320,234.666667 L298.666667,234.666667 L298.666667,277.333333 L234.666667,277.333333 L234.666667,234.666667 L146.241432,234.666202 C137.06239,265.508989 108.491057,288 74.6666667,288 C33.4294053,288 7.10542736e-15,254.570595 7.10542736e-15,213.333333 C7.10542736e-15,172.096072 33.4294053,138.666667 74.6666667,138.666667 Z M74.6666667,181.333333 C56.9935547,181.333333 42.6666667,195.660221 42.6666667,213.333333 C42.6666667,231.006445 56.9935547,245.333333 74.6666667,245.333333 C92.3397787,245.333333 106.666667,231.006445 106.666667,213.333333 C106.666667,195.660221 92.3397787,181.333333 74.6666667,181.333333 Z" id="Combined-Shape"></path>
        </g>
    </g>
</svg>