<?xml version="1.0" encoding="UTF-8"?>
<svg width="512px" height="512px" viewBox="0 0 512 512" version="1.1" xmlns="http://www.w3.org/2000/svg" xmlns:xlink="http://www.w3.org/1999/xlink">
    <title>vdi-folder</title>
    <g id="Page-1" stroke="none" stroke-width="1" fill="none" fill-rule="evenodd">
        <g id="icon" fill="#000000" transform="translate(42.666667, 64.000000)">
            <path d="M155.106664,234.084887 L176.494164,291.722387 C181.931664,306.403637 186.009789,318.48697 188.728539,327.972387 C192.897289,314.68072 196.854581,302.990095 200.600414,292.900512 L222.622289,234.084887 L251.259789,234.084887 L202.594164,362.500512 L173.684789,362.500512 L125.019164,234.084887 L155.106664,234.084887 Z M301.194164,234.084887 C316.298331,234.084887 328.381664,235.534887 337.444164,238.434887 C349.285831,242.241137 358.348331,249.294783 364.631664,259.595825 C370.914998,269.896866 374.056664,282.810929 374.056664,298.338012 C374.056664,314.288012 370.914998,327.307804 364.631664,337.397387 C356.777498,350.145304 344.633748,357.878637 328.200414,360.597387 C320.648331,361.866137 310.981664,362.500512 299.200414,362.500512 L265.669164,362.500512 L265.669164,234.084887 L301.194164,234.084887 Z M426.709789,234.084887 L426.709789,362.500512 L397.800414,362.500512 L397.800414,234.084887 L426.709789,234.084887 Z M300.106664,256.741137 L294.578539,256.741137 L294.578539,339.844262 L300.106664,339.844262 C313.277498,339.844262 323.034789,337.69947 329.378539,333.409887 C334.936873,329.72447 338.954581,324.015095 341.431664,316.281762 C343.244164,310.542179 344.150414,304.440095 344.150414,297.975512 C344.150414,291.027595 343.093123,284.59322 340.978539,278.672387 C338.863956,272.751554 335.963956,268.129679 332.278539,264.806762 C328.774373,261.665095 324.786873,259.535408 320.316039,258.4177 C315.845206,257.299991 309.108748,256.741137 300.106664,256.741137 Z M149.333333,-1.42108547e-14 L202.666667,42.6666667 L384,42.6666667 L384,192 L341.333,192 L341.333333,85.3333333 L186.666667,85.3333333 L131.660221,42.6666667 L42.6666667,42.6666667 L42.6666667,277.333333 L106.666,277.333 L106.666,320 L-4.97379915e-14,320 L-4.97379915e-14,-1.42108547e-14 L149.333333,-1.42108547e-14 Z" id="Combined-Shape"></path>
        </g>
    </g>
</svg>