<?xml version="1.0" encoding="UTF-8"?>
<svg width="512px" height="512px" viewBox="0 0 512 512" version="1.1" xmlns="http://www.w3.org/2000/svg" xmlns:xlink="http://www.w3.org/1999/xlink">
    <title>wlan-off</title>
    <g id="Page-1" stroke="none" stroke-width="1" fill="none" fill-rule="evenodd">
        <g id="drop" fill="#000000" transform="translate(52.437333, 59.581722)">
            <path d="M378.647616,341.333329 L348.477717,371.503227 L257.814,280.84 L256.341333,282.314811 C242.96797,268.945667 224.56816,260.60714 204.255868,260.421446 L203.562667,260.418278 C182.976,260.418278 164.309333,268.793745 150.784,282.314811 L150.784,282.314811 L120.64,252.158011 C140.003743,232.796212 166.082401,220.149327 195.033157,218.058556 L158.514149,181.538749 C132.477393,189.189021 109.17764,203.296104 90.4746667,221.999078 L90.4746667,221.999078 L60.3306667,191.844411 C78.7820995,173.390833 100.766876,158.469519 125.170113,148.194269 L93.0519246,116.076592 C69.705425,127.904602 48.4948414,143.357507 30.1653333,161.689745 L30.1653333,161.689745 L4.26325641e-14,131.532945 C18.2651367,113.270946 38.9631068,97.4435062 61.5598585,84.5849166 L7.14438867,30.169894 L37.3142827,7.10542736e-15 L378.647616,341.333329 Z M203.562667,303.084945 C221.226667,303.084945 235.562667,317.412411 235.562667,335.084945 C235.562667,352.757478 221.226667,367.084945 203.562667,367.084945 C185.898667,367.084945 171.562667,352.757478 171.562667,335.084945 C171.562667,317.412411 185.898667,303.084945 203.562667,303.084945 Z M232.071583,134.41706 C276.561543,140.707945 316.454762,161.500979 346.794667,191.844411 L346.794667,191.844411 L318.151,220.497 Z M203.562667,47.0849447 C282.965333,47.0849447 354.965333,79.3816913 407.125333,131.530171 L407.125333,131.530171 L376.96,161.691878 C332.522667,117.267131 271.189333,89.7516113 203.562667,89.7516113 C198.30202,89.7516113 193.079561,89.9180086 187.900275,90.2458141 L149.77556,52.1205982 C167.205286,48.8149138 185.185716,47.0849447 203.562667,47.0849447 Z" id="Shape"></path>
        </g>
    </g>
</svg>