<svg xmlns="http://www.w3.org/2000/svg" width="512" height="512" viewBox="0 0 512 512"><g fill-rule="evenodd" transform="translate(64 64)"><path fill-rule="nonzero" d="M170.666667 0 170.666667 170.666667 0 170.666667 0 0 170.666667 0ZM128 42.6666667 42.6666667 42.6666667 42.6666667 128 128 128 128 42.6666667ZM170.666667 213.333333 170.666667 384 0 384 0 213.333333 170.666667 213.333333ZM128 256 42.6666667 256 42.6666667 341.333333 128 341.333333 128 256ZM384 0 384 170.666667 213.333333 170.666667 213.333333 0 384 0ZM341.333333 42.6666667 256 42.6666667 256 128 341.333333 128 341.333333 42.6666667Z"/><rect width="42.667" height="170.667" x="277.333" y="213.333"/><rect width="170.667" height="42.667" x="213.333" y="277.333"/></g></svg>