<svg width="512" height="512" viewBox="0 0 512 512" fill="none" xmlns="http://www.w3.org/2000/svg"><path fill-rule="evenodd" clip-rule="evenodd" d="M447.998 256.001C447.998 149.962 362.037 64.0006 255.998 64.0006C149.96 64.0006 63.9982 149.962 63.9982 256.001C63.9982 308.239 84.8601 355.605 118.707 390.221L85.3475 447.999L122.298 469.332L152.187 417.544C182.118 436.818 217.752 448.001 255.998 448.001C264.641 448.001 273.15 447.43 281.451 446.314C271.913 434.322 264.673 420.419 260.386 405.271C258.929 405.313 257.466 405.334 255.998 405.334C173.524 405.334 106.665 338.475 106.665 256.001C106.665 173.526 173.524 106.667 255.998 106.667C338.473 106.667 405.332 173.526 405.332 256.001L405.249 260.394C420.404 264.668 434.314 271.91 446.325 281.459C447.429 273.13 447.998 264.632 447.998 256.001ZM255.571 229.242L187.845 161.517L157.675 191.687L225.292 259.552L255.727 289.739L285.736 259.407L345.217 199.966L315.047 169.796L255.571 229.242ZM469.029 113.991C450.268 85.9064 426.102 61.7403 398.017 42.9805L374.363 78.4956C397.759 94.1264 417.892 114.26 433.522 137.657L469.029 113.991ZM137.642 78.4956L113.97 42.9926C85.8967 61.7478 61.7396 85.9049 42.9844 113.978L78.4874 137.65C94.1167 114.256 114.248 94.1249 137.642 78.4956ZM373.333 437.335C385.203 437.335 396.317 434.104 405.846 428.473L318.195 340.822C312.564 350.351 309.333 361.465 309.333 373.335C309.333 408.681 337.987 437.335 373.333 437.335ZM340.823 318.195L428.473 405.845C434.103 396.317 437.333 385.203 437.333 373.335C437.333 337.988 408.68 309.335 373.333 309.335C361.465 309.335 350.351 312.565 340.823 318.195ZM373.333 469.335C426.353 469.335 469.333 426.354 469.333 373.335C469.333 320.315 426.353 277.335 373.333 277.335C320.314 277.335 277.333 320.315 277.333 373.335C277.333 426.354 320.314 469.335 373.333 469.335Z"/></svg>