<svg width="512" height="512" viewBox="0 0 512 512" fill="none" xmlns="http://www.w3.org/2000/svg"><path d="M218.325 381.952L256 419.641L291.157 384.491L321.344 414.677L256 480L188.139 412.139L218.325 381.952ZM320 170.667V341.333H192V170.667H320ZM412.139 188.139L480 256L411.84 324.16L381.653 293.973L419.657 255.985L381.973 218.304L412.139 188.139ZM97.344 190.677L127.488 220.821L92.3434 255.985L127.808 291.456L97.6427 321.643L32 256L97.344 190.677ZM277.333 213.333H234.667V298.667H277.333V213.333ZM256 32L321.643 97.6427L291.477 127.787L256 92.3284L218.005 130.325L187.84 100.16L256 32Z"/></svg>