<svg width="512" height="512" viewBox="0 0 512 512" fill="none" xmlns="http://www.w3.org/2000/svg"><path fill-rule="evenodd" clip-rule="evenodd" d="M469.297 439.13L439.13 469.297L317.815 347.982C288.906 370.466 252.707 384 213.333 384C119.229 384 42.6667 307.438 42.6667 213.333C42.6667 119.229 119.229 42.6667 213.333 42.6667C307.437 42.6667 384 119.229 384 213.333C384 252.707 370.466 288.906 347.982 317.815L469.297 439.13ZM339.556 192C329.371 131.536 276.65 85.3334 213.333 85.3334C150.017 85.3334 97.2954 131.536 87.1108 192H339.556ZM339.556 234.667H87.1108C97.2954 295.131 150.017 341.333 213.333 341.333C276.65 341.333 329.371 295.131 339.556 234.667Z"/></svg>