<svg width="512" height="512" viewBox="0 0 512 512" fill="none" xmlns="http://www.w3.org/2000/svg"><path fill-rule="evenodd" clip-rule="evenodd" d="M384 256.479C399.251 257.853 413.661 262.145 426.667 268.794V106.667H42.667V405.333H260.417C257.54 395.161 256 384.427 256 373.333C256 369.738 256.163 366.18 256.479 362.667H85.333V213.333H384V256.479ZM384 170.667H85.333V149.333H384V170.667ZM447.431 382.596L468.602 385.242C462.737 432.642 422.32 469.333 373.333 469.333C343.176 469.333 316.266 455.428 298.667 433.678V469.333H277.333V394.667H279.712H301.759H352V416L312.056 416.008C325.549 435.347 347.964 448 373.333 448C411.434 448 442.87 419.462 447.431 382.596ZM444.908 352H394.667V330.667H434.617C421.124 311.323 398.707 298.667 373.333 298.667C335.232 298.667 303.797 327.204 299.235 364.071L278.065 361.425C283.929 314.025 324.346 277.333 373.333 277.333C403.491 277.333 430.4 291.239 448 312.988V277.333H469.333V352H466.954H444.908Z"/></svg>