<svg width="512" height="512" viewBox="0 0 512 512" fill="none" xmlns="http://www.w3.org/2000/svg"><path fill-rule="evenodd" clip-rule="evenodd" d="M319.646 43.8359H84.9792V278.503H127.646H383.646H426.312V150.503L319.646 43.8359ZM124.781 419.243H172.15L182.952 449.169H212.88L163.296 323.706H133.812L85.9108 449.169H114.067L124.781 419.243ZM154.796 370.899L164.713 397.993H132.13L141.869 370.899C144.702 362.989 146.857 356.465 148.333 351.33C150.517 358.413 152.671 364.937 154.796 370.899ZM228.817 323.706V449.169H257.062V401.357H268.928C277.544 401.357 284.57 400.708 290.001 399.409C295.49 398.05 300.154 395.838 303.989 392.768C312.845 385.686 317.271 375.503 317.271 362.221C317.271 354.076 315.411 346.963 311.693 340.883C307.089 333.267 300.418 328.339 291.682 326.097C285.365 324.502 276.188 323.706 264.145 323.706H228.817ZM264.499 380.107H256.354V344.956H264.499C272.35 344.956 278.076 346.048 281.677 348.233C286.577 351.183 289.026 356.171 289.026 363.196C289.026 370.338 286.487 375.149 281.412 377.628C277.988 379.281 272.35 380.107 264.499 380.107ZM335.068 323.706V449.169H363.313V401.357H375.177C383.795 401.357 390.82 400.708 396.25 399.409C401.739 398.05 406.402 395.838 410.24 392.768C419.093 385.686 423.52 375.503 423.52 362.221C423.52 354.076 421.662 346.963 417.943 340.883C413.338 333.267 406.669 328.339 397.933 326.097C391.616 324.502 382.438 323.706 370.396 323.706H335.068ZM370.75 380.107H362.605V344.956H370.75C378.6 344.956 384.326 346.048 387.927 348.233C392.826 351.183 395.277 356.171 395.277 363.196C395.277 370.338 392.738 375.149 387.661 377.628C384.239 379.281 378.6 380.107 370.75 380.107Z"/></svg>