<svg width="512" height="512" viewBox="0 0 512 512" fill="none" xmlns="http://www.w3.org/2000/svg"><path fill-rule="evenodd" clip-rule="evenodd" d="M320.354 42.6642L85.3333 42.6641V277.331H128H384H426.667V149.331L320.354 42.6642ZM124.426 428.076V447.997H223.063V425.862H159.755L220.937 342.455V322.534H126.64V344.669H185.697L124.426 428.076ZM242.807 322.534V447.997H271.053V322.534H242.807ZM300.89 322.534V447.997H329.135V400.185H341.001C349.617 400.185 356.642 399.537 362.074 398.237C367.563 396.878 372.226 394.666 376.062 391.596C384.917 384.514 389.344 374.331 389.344 361.049C389.344 352.904 387.484 345.792 383.765 339.712C379.162 332.096 372.491 327.168 363.755 324.925C357.44 323.33 348.26 322.534 336.22 322.534H300.89ZM336.574 378.935H328.427V343.784H336.574C344.425 343.784 350.148 344.876 353.749 347.061C358.65 350.011 361.099 354.999 361.099 362.024C361.099 369.167 358.56 373.977 353.485 376.456C350.061 378.109 344.425 378.935 336.574 378.935Z"/></svg>