<svg width="512" height="512" viewBox="0 0 512 512" fill="none" xmlns="http://www.w3.org/2000/svg"><path fill-rule="evenodd" clip-rule="evenodd" d="M192 85.7669V149.333H307.667L310.273 142.519C319.65 111.779 346.919 89.1338 379.599 85.7669L383.891 85.4379L388.063 85.333C432.948 85.333 469.333 121.416 469.333 165.926C469.333 210.436 432.948 246.518 388.063 246.518C353.095 246.518 322.86 224.489 311.539 193.138L310.273 192H309.374H258.418C263.556 201.044 264.234 205.911 265.542 216.405L266.023 221.69L266.159 226.37V306.963C266.159 328.206 282.735 345.61 303.761 347.148L306.794 347.259H309.374L310.273 344C319.65 313.261 346.919 290.615 379.599 287.248L383.891 286.919L388.063 286.814C432.948 286.814 469.333 322.897 469.333 367.407C469.333 411.917 432.948 448 388.063 448C353.095 448 322.86 425.97 311.539 394.62L310.273 390.814L309.374 387.555H306.794C264.674 387.555 230.038 355.78 225.931 315.084L225.623 310.985L225.524 306.963V226.37C225.524 213.626 219.511 202.105 209.998 194.676L207.318 192.753L192 192V256H42.6667V85.333L192 85.7669ZM388.063 327.111C365.621 327.111 347.429 345.152 347.429 367.407C347.429 389.662 365.621 407.703 388.063 407.703C410.506 407.703 428.698 389.662 428.698 367.407C428.698 345.152 410.506 327.111 388.063 327.111ZM149.333 128H85.3333V213.333H149.333V128ZM388.063 125.629C365.621 125.629 347.429 143.671 347.429 165.926C347.429 188.181 365.621 206.222 388.063 206.222C410.506 206.222 428.698 188.181 428.698 165.926C428.698 143.671 410.506 125.629 388.063 125.629Z"/></svg>