<svg width="512" height="512" viewBox="0 0 512 512" fill="none" xmlns="http://www.w3.org/2000/svg"><path fill-rule="evenodd" clip-rule="evenodd" d="M405.333 127.116L256 40.8984L106.667 127.116V299.551L227.53 369.332C212.742 376.689 201.203 389.599 195.642 405.333H42.6667V448H195.642C204.428 472.857 228.134 490.667 256 490.667C283.866 490.667 307.572 472.857 316.358 448H469.333V405.333H316.358C310.797 389.599 299.258 376.689 284.47 369.332L405.333 299.551V127.116ZM149.333 170.667H192V256H149.333V170.667ZM362.667 170.667H320V256H362.667V170.667ZM277.333 128V298.667H234.667V128H277.333ZM277.333 426.667C277.333 438.449 267.782 448 256 448C244.218 448 234.667 438.449 234.667 426.667C234.667 414.885 244.218 405.333 256 405.333C267.782 405.333 277.333 414.885 277.333 426.667Z"/></svg>