<svg width="512" height="512" viewBox="0 0 512 512" fill="none" xmlns="http://www.w3.org/2000/svg"><path fill-rule="evenodd" clip-rule="evenodd" d="M347.582 178.975L353.868 211.146C367.939 215.849 380.702 223.521 391.456 233.442L421.782 222.933L448 269.53L423.985 291.205C425.46 298.394 426.236 305.848 426.236 313.488C426.236 321.127 425.46 328.581 423.985 335.771L448 357.446L421.782 404.042L391.456 393.533C380.702 403.454 367.939 411.127 353.868 415.829L347.582 448H295.146L288.879 415.835C274.797 411.132 262.023 403.455 251.263 393.525L220.946 404.042L194.728 357.446L218.747 335.79C217.269 328.595 216.492 321.134 216.492 313.488C216.492 305.848 217.268 298.394 218.743 291.205L194.728 269.53L220.946 222.933L251.263 233.45C262.028 223.516 274.808 215.836 288.898 211.134L295.146 178.975H347.582ZM321.364 246.232C285.165 246.232 255.819 276.343 255.819 313.488C255.819 350.632 285.165 380.744 321.364 380.744C357.563 380.744 386.909 350.632 386.909 313.488C386.909 276.343 357.563 246.232 321.364 246.232ZM216.854 64L223.14 96.171C237.211 100.873 249.975 108.546 260.728 118.467L291.054 107.958L317.272 154.554L311.498 159.754L279.784 159.759L276.78 175.218L272.539 196.923L272.351 197.03C266.598 199.582 261.052 202.578 255.757 205.987C256.044 203.552 256.181 201.049 256.181 198.512C256.181 161.368 226.835 131.256 190.636 131.256C154.437 131.256 125.091 161.368 125.091 198.512C125.091 230.546 146.917 257.349 176.142 264.118L170.837 273.559L182.36 283.959L198.623 298.634L198.432 300.248C197.989 304.626 197.765 309.044 197.765 313.488L197.932 320.138C198.044 322.347 198.211 324.548 198.433 326.739L198.623 328.342L193.404 333.025H164.418L158.151 300.86C144.069 296.157 131.296 288.479 120.535 278.55L90.218 289.067L64 242.47L88.0194 220.815C86.5415 213.619 85.7642 206.159 85.7642 198.512C85.7642 190.872 86.5401 183.419 88.0154 176.229L64 154.554L90.218 107.958L120.535 118.475C131.3 108.541 144.08 100.861 158.17 96.1584L164.418 64H216.854Z"/></svg>