<svg width="512" height="512" viewBox="0 0 512 512" fill="none" xmlns="http://www.w3.org/2000/svg"><path fill-rule="evenodd" clip-rule="evenodd" d="M256 64C316.324 64 370.151 91.8203 405.35 135.331L405.333 85.3333H448V213.333H320V170.667L378.562 170.66C351.576 131.976 306.744 106.667 256 106.667C173.525 106.667 106.667 173.525 106.667 256C106.667 338.475 173.525 405.333 256 405.333C332.196 405.333 395.064 348.266 404.194 274.54L446.536 279.826C434.803 374.622 353.971 448 256 448C149.961 448 64 362.039 64 256C64 149.961 149.961 64 256 64ZM277.251 149.417L282.365 174.928C288.1 176.796 293.569 179.255 298.698 182.233L298.686 224.215C288.962 211.186 273.425 202.75 255.917 202.75C226.462 202.75 202.584 226.628 202.584 256.084C202.584 285.539 226.462 309.417 255.917 309.417C285.372 309.417 309.251 285.539 309.251 256.084C309.251 248.467 307.654 241.223 304.777 234.668L343.68 234.665L339.421 238.424C340.62 244.122 341.251 250.029 341.251 256.084C341.251 262.138 340.62 268.045 339.421 273.743L358.96 290.942L337.627 327.892L312.945 319.564C304.195 327.429 293.812 333.511 282.365 337.239L277.251 362.75H234.584L229.491 337.246C218.036 333.519 207.644 327.434 198.89 319.564L174.208 327.892L152.875 290.942L172.418 273.764C171.216 268.06 170.584 262.146 170.584 256.084C170.584 250.022 171.216 244.107 172.418 238.403L152.875 221.226L174.208 184.275L198.89 192.603C207.644 184.733 218.036 178.648 229.491 174.921L234.584 149.417H277.251Z"/></svg>