<svg width="512" height="512" viewBox="0 0 512 512" fill="none" xmlns="http://www.w3.org/2000/svg"><path fill-rule="evenodd" clip-rule="evenodd" d="M168.139 256.044L173.298 281.55C184.846 285.277 195.321 291.358 204.148 299.221L229.047 290.895L250.568 327.838L230.857 345.033C232.067 350.73 232.703 356.636 232.703 362.689C232.703 368.742 232.067 374.648 230.857 380.344L250.568 397.54L229.047 434.482L204.148 426.156C195.321 434.02 184.846 440.101 173.298 443.828L168.139 469.333H125.096L119.959 443.835C108.402 440.108 97.9193 434.024 89.0876 426.156L64.188 434.482L42.6667 397.54L62.3823 380.366C61.1698 374.662 60.5321 368.749 60.5321 362.689C60.5321 356.628 61.1698 350.715 62.3823 345.012L42.6667 327.838L64.188 290.895L89.0876 299.221C97.9193 291.353 108.402 285.269 119.959 281.543L125.096 256.044H168.139ZM146.618 309.366C116.903 309.366 92.8142 333.24 92.8142 362.689C92.8142 392.138 116.903 416.011 146.618 416.011C176.332 416.011 200.421 392.138 200.421 362.689C200.421 333.24 176.332 309.366 146.618 309.366ZM448 64V213.303H404.957L404.943 136.71L268.438 272.02L238.002 241.856L374.404 106.658H297.351V64H448Z"/></svg>