<svg xmlns="http://www.w3.org/2000/svg" width="512" height="512" viewBox="0 0 512 512"><path fill-rule="evenodd" d="M309.333333,116.685768 C374.134744,116.685768 426.666667,146.400795 426.666667,183.056139 C426.666667,183.948602 426.635526,184.836951 426.573825,185.720857 L426.602323,185.426904 L426.666667,185.426509 L426.666667,351.352435 C426.666667,388.007778 374.134744,417.722805 309.333333,417.722805 C245.971954,417.722805 194.340811,389.313772 192.077383,353.785593 L192,351.352435 L192,185.426509 L192.073428,185.426392 C192.024612,184.639713 192,183.849552 192,183.056139 C192,146.400795 244.531923,116.685768 309.333333,116.685768 Z M309.333333,334.759842 C280.967639,334.759842 254.9529,329.066149 234.666084,319.588968 L234.666667,341.905528 L234.684024,343.102008 C235.367975,355.304249 267.149696,375.056139 309.34138,375.056139 C332.415859,375.056139 353.703108,369.267392 368.600752,359.689303 C378.857023,353.095275 383.382711,346.815742 383.940552,343.679133 L384,343.056139 L384.000875,319.588831 C363.714016,329.066095 337.699164,334.759842 309.333333,334.759842 Z M309.333333,249.426509 C280.971684,249.426509 254.960319,243.73444 234.674762,234.259688 L234.673,270.165768 L236.118501,270.156682 C237.848205,271.885644 241.29769,274.74688 247.37294,278.183385 C262.51587,286.749083 284.852488,292.093176 309.333333,292.093176 C333.814178,292.093176 356.150797,286.749083 371.293726,278.183385 C378.794408,273.940575 382.292611,270.574653 383.493358,269.133879 L384,269.129768 L384.002868,234.254566 C363.71572,243.732388 337.700093,249.426509 309.333333,249.426509 Z M309.333333,159.352435 C268.096072,159.352435 234.666667,170.336382 234.666667,183.885768 C234.666667,197.435154 268.096072,208.419102 309.333333,208.419102 C350.570595,208.419102 384,197.435154 384,183.885768 C384,170.336382 350.570595,159.352435 309.333333,159.352435 Z M59.051772,-2.96586941e-13 L89.225366,30.1733203 C67.0029761,53.1969454 53.3333333,84.5301822 53.3333333,119.056135 C53.3333333,161.875726 74.3590515,199.784497 106.649426,223.021387 L106.666667,140.389472 L149.333333,140.389472 L149.333333,289.722805 L2.03266609e-14,289.722805 L1.24889214e-14,247.056139 L68.446352,247.057482 C33.0141836,215.785152 10.6666667,170.030415 10.6666667,119.056135 C10.6666667,72.7481619 29.1099665,30.7478521 59.051772,-2.96586941e-13 Z" transform="translate(42.667 51.61)"/></svg>