<svg xmlns="http://www.w3.org/2000/svg" width="512" height="512" viewBox="0 0 512 512"><path fill-rule="evenodd" d="M298.666667,32 C298.666667,49.6731733 284.3392,64 266.666667,64 C261.725867,64 257.047467,62.88064 252.8704,60.8817067 L216.503467,97.24928 C258.3296,80.91648 298.865067,83.3909333 332.405333,92.7511467 C358.180267,99.9434667 379.697067,111.09568 394.690133,120.344107 C402.225067,124.991573 408.215467,129.222187 412.386133,132.34496 C414.474667,133.908267 416.113067,135.199573 417.269333,136.133973 C417.8496,136.601173 418.308267,136.97984 418.641067,137.259093 L419.048533,137.60256 L419.182933,137.716053 L419.232,137.757653 L419.251622,137.774933 C419.259733,137.7824 419.268267,137.78944 405.3312,153.942187 C391.396267,170.09472 391.4048,170.10112 391.4112,170.10688 L391.281067,169.99808 L390.961067,169.733333 L390.459733,169.325227 C389.6832,168.697813 388.456533,167.729067 386.813867,166.498773 C383.522133,164.034773 378.592,160.544853 372.292267,156.658347 C359.613867,148.839253 341.800533,139.669973 320.938667,133.847467 C287.287467,124.45696 245.408,123.4816 202.562133,152.715947 C202.6304,151.59744 202.666667,150.469547 202.666667,149.333333 C202.666667,138.46336 199.415467,128.352853 193.8304,119.921707 L178.2144,135.537493 C180.213333,139.714773 181.333333,144.393387 181.333333,149.333333 C181.333333,167.006507 167.006507,181.333333 149.333333,181.333333 C144.393387,181.333333 139.714773,180.213333 135.537493,178.2144 L119.921707,193.8304 C128.352853,199.415467 138.46336,202.666667 149.333333,202.666667 C150.469333,202.666667 151.597227,202.6304 152.715733,202.562133 C123.480107,245.408 124.45568,287.2896 133.8464,320.9408 C139.668907,341.802667 148.838187,359.616 156.65728,372.292267 C160.543787,378.594133 164.033707,383.524267 166.497707,386.813867 C167.728,388.458667 168.696747,389.685333 169.32416,390.461867 C169.637547,390.850133 169.865387,391.1232 169.997013,391.281067 L170.105813,391.4112 C170.09984,391.4048 170.093653,391.3984 153.94112,405.333333 C137.788587,419.268267 137.781547,419.261867 137.77408,419.25178 L137.7568,419.232 L137.7152,419.182933 L137.601707,419.050667 L137.25824,418.6432 C136.978987,418.308267 136.60032,417.8496 136.13312,417.271467 C135.19872,416.1152 133.907413,414.474667 132.344107,412.388267 C129.221333,408.2176 124.99072,402.2272 120.343253,394.692267 C111.094613,379.697067 99.9426133,358.180267 92.75008,332.4096 C83.3896533,298.8672 80.9149867,258.3296 97.2482133,216.503467 L60.8817067,252.8704 C62.88064,257.047467 64,261.725867 64,266.666667 C64,284.3392 49.6731733,298.666667 32,298.666667 C14.3268267,298.666667 0,284.3392 0,266.666667 C0,248.994133 14.3268267,234.666667 32,234.666667 C36.9405867,234.666667 41.6194133,235.786667 45.79712,237.7856 L120.452267,163.130453 C118.452907,158.952747 117.333333,154.27392 117.333333,149.333333 C117.333333,131.66016 131.66016,117.333333 149.333333,117.333333 C154.27392,117.333333 158.952747,118.452907 163.130453,120.452267 L237.7856,45.79712 C235.786667,41.6194133 234.666667,36.9405867 234.666667,32 C234.666667,14.3268267 248.994133,7.10542736e-15 266.666667,7.10542736e-15 C284.3392,7.10542736e-15 298.666667,14.3268267 298.666667,32 Z" transform="translate(42.667 42.667)"/></svg>