<svg width="512" height="512" viewBox="0 0 512 512" fill="none" xmlns="http://www.w3.org/2000/svg"><path fill-rule="evenodd" clip-rule="evenodd" d="M469.342 305.866L469.333 106.667H42.6665V405.333L260.418 405.337C257.54 395.164 256 384.428 256 373.333C256 348.211 263.895 324.933 277.339 305.845L277.333 149.333H298.667L298.676 282.812C311.031 272.61 325.51 264.889 341.351 260.412L341.333 149.333H362.667L362.675 256.478C366.185 256.162 369.74 256 373.333 256C384.428 256 395.163 257.54 405.337 260.418L405.333 149.333H426.667L426.675 268.798C443.739 277.523 458.384 290.303 469.342 305.866ZM85.3332 149.333H128V362.667H85.3332V149.333ZM213.333 149.333H234.667V362.667H213.333V149.333ZM373.333 277.333C320.314 277.333 277.333 320.314 277.333 373.333C277.333 426.353 320.314 469.333 373.333 469.333C426.352 469.333 469.333 426.353 469.333 373.333C469.333 320.314 426.352 277.333 373.333 277.333ZM436.096 340.096L352.001 424.191L310.573 382.763L329.429 363.906L352.001 386.478L417.239 321.24L436.096 340.096Z"/></svg>