<svg width="512" height="512" viewBox="0 0 512 512" fill="none" xmlns="http://www.w3.org/2000/svg"><path fill-rule="evenodd" clip-rule="evenodd" d="M85.3335 42.6666H426.667V469.333H85.3335V42.6666ZM128 85.3333H384V170.667H128V85.3333ZM192 213.333H149.333V256H192V213.333ZM234.667 213.333H277.333V256H234.667V213.333ZM277.333 298.667H234.667V341.333H277.333V298.667ZM320 298.667H362.667V341.333H320V298.667ZM192 298.667H149.333V341.333H192V298.667ZM234.667 384H277.333V426.667H234.667V384ZM362.667 384H320V426.667H362.667V384ZM149.333 384H192V426.667H149.333V384ZM362.667 213.333H320V256H362.667V213.333Z"/></svg>