<svg width="512" height="512" viewBox="0 0 512 512" fill="none" xmlns="http://www.w3.org/2000/svg"><path d="M424.094 334.146C443.632 334.146 457.531 341.623 465.793 356.578C471.34 366.709 474.114 381.362 474.114 400.538C474.114 421.523 470.707 437.171 463.893 447.482C455.391 460.387 442.124 466.839 424.094 466.839C404.617 466.839 390.717 459.362 382.396 444.407C376.848 434.337 374.074 419.442 374.074 399.724C374.074 379.221 377.481 363.814 384.295 353.503C392.798 340.598 406.064 334.146 424.094 334.146ZM348.915 336.407V464.578H320.965V366.437L296.181 381.905L283.156 360.467L324.131 336.407H348.915ZM424.094 356.759C416.918 356.759 411.597 360.287 408.129 367.342C404.662 374.397 402.928 385.281 402.928 399.995C402.928 415.251 404.617 426.377 407.994 433.372C411.491 440.608 416.858 444.226 424.094 444.226C431.33 444.226 436.667 440.683 440.104 433.598C443.541 426.513 445.26 415.492 445.26 400.538C445.26 385.523 443.602 374.548 440.285 367.613C436.788 360.377 431.391 356.759 424.094 356.759ZM298.667 64C410.667 64 469.333 149.333 469.333 234.667C469.333 263.135 462.804 291.604 449.943 316.904C442.106 314.18 433.45 312.812 424.094 312.812L419.179 312.943C412.55 313.298 406.295 314.382 400.467 316.186C417.376 294.344 426.667 266.131 426.667 234.667C426.667 161.993 377.104 106.667 298.667 106.667C201.979 106.667 85.3334 181.32 85.3334 234.667C85.3334 280.498 171.428 342.055 256.995 358.49L264.924 371.545L277.95 392.982L285.195 404.936C175.467 398.562 42.6667 316.614 42.6667 234.667C42.6667 149.333 186.667 64 298.667 64ZM320 170.667C355.346 170.667 384 199.32 384 234.667C384 270.013 355.346 298.667 320 298.667H277.333C241.987 298.667 213.333 270.013 213.333 234.667C213.333 199.32 241.987 170.667 277.333 170.667H320ZM320 213.333H277.333C265.551 213.333 256 222.885 256 234.667C256 246.449 265.551 256 277.333 256H320C331.782 256 341.333 246.449 341.333 234.667C341.333 222.885 331.782 213.333 320 213.333Z"/></svg>