<svg width="512" height="512" viewBox="0 0 512 512" fill="none" xmlns="http://www.w3.org/2000/svg"><path d="M212.679 341.333C219.368 341.333 226.931 342.061 235.364 343.514L232.571 366.462C225.476 364.252 218.931 363.146 212.94 363.146C201.772 363.147 193.221 366.752 187.288 373.967C182.576 379.725 179.872 386.995 179.174 395.778C186.91 388.566 195.927 384.96 206.223 384.96C218.146 384.96 227.511 388.625 234.316 395.953C240.657 402.758 243.827 412.386 243.827 424.834C243.827 438.097 240.192 448.51 232.922 456.07C224.429 464.913 212.388 469.333 196.799 469.333C181.035 469.333 169.111 464.768 161.025 455.635C153.231 446.792 149.333 433.792 149.333 416.634C149.333 400.113 152.271 385.57 158.146 373.007C164.02 360.499 172.688 351.659 184.147 346.481C191.826 343.049 201.336 341.333 212.679 341.333ZM308.83 341.333C327.676 341.333 341.084 348.546 349.054 362.972C354.404 372.744 357.079 386.88 357.079 405.376C357.079 425.619 353.794 440.715 347.222 450.66C339.019 463.108 326.221 469.333 308.83 469.333C290.042 469.333 276.633 462.121 268.605 447.695C263.253 437.98 260.578 423.614 260.578 404.591C260.578 384.815 263.866 369.952 270.438 360.007C278.639 347.559 291.437 341.333 308.83 341.333ZM421.736 341.333C440.582 341.333 453.99 348.546 461.96 362.972C467.31 372.744 469.988 386.88 469.988 405.376C469.988 425.619 466.701 440.715 460.128 450.66C451.925 463.108 439.129 469.333 421.736 469.333C402.948 469.333 389.539 462.121 381.512 447.695C376.161 437.98 373.484 423.614 373.484 404.591C373.484 384.815 376.772 369.952 383.345 360.007C391.547 347.559 404.343 341.333 421.736 341.333ZM197.672 406.163C191.041 406.163 185.746 408.46 181.791 413.056C178.708 416.661 177.167 421.199 177.167 426.667C177.167 433.472 178.912 438.737 182.402 442.46C186.009 446.298 190.866 448.218 196.974 448.218C202.965 448.218 207.648 446.27 211.021 442.372C214.453 438.417 216.169 433.006 216.169 426.144C216.169 419.861 214.541 414.973 211.283 411.483C208.026 407.936 203.488 406.163 197.672 406.163ZM308.83 363.146C301.907 363.146 296.76 366.549 293.387 373.354C290.069 380.16 288.412 390.66 288.412 404.854C288.412 419.569 290.041 430.302 293.299 437.05C296.672 444.03 301.85 447.521 308.83 447.521C315.81 447.52 320.958 444.118 324.273 437.312C327.589 430.447 329.246 419.804 329.246 405.376C329.246 390.893 327.648 380.307 324.448 373.617C321.073 366.637 315.868 363.147 308.83 363.146ZM421.736 363.146C414.814 363.146 409.666 366.549 406.293 373.354C402.978 380.16 401.318 390.66 401.318 404.854C401.318 419.569 402.947 430.302 406.205 437.05C409.578 444.03 414.756 447.521 421.736 447.521C428.716 447.52 433.865 444.118 437.18 437.312C440.495 430.447 442.154 419.804 442.154 405.376C442.154 390.893 440.554 380.307 437.354 373.617C433.982 366.637 428.774 363.147 421.736 363.146ZM298.667 85.333C410.667 85.3332 469.333 170.667 469.333 256C469.333 280.968 464.311 305.937 454.397 328.768C444.817 323.848 433.753 321.479 421.736 321.479C417.901 321.479 414.152 321.722 410.513 322.217C421.017 303.098 426.667 280.538 426.667 256C426.667 183.326 377.103 128 298.667 128C201.979 128 85.333 202.653 85.333 256C85.333 282.697 114.545 314.728 155.849 340.07C148.834 346.679 143.166 354.72 138.837 363.936L138.821 363.97C136.909 368.059 135.264 372.271 133.875 376.598C81.1859 344.269 42.667 300.134 42.667 256C42.667 170.667 186.667 85.333 298.667 85.333ZM320 192C355.347 192 384 220.653 384 256C384 291.347 355.347 320 320 320H277.333C241.986 320 213.333 291.347 213.333 256C213.333 220.653 241.986 192 277.333 192H320ZM277.333 234.667C265.551 234.667 256 244.218 256 256C256 267.782 265.551 277.333 277.333 277.333H320C331.782 277.333 341.333 267.782 341.333 256C341.333 244.218 331.782 234.667 320 234.667H277.333Z"/></svg>