<svg xmlns="http://www.w3.org/2000/svg" width="512" height="512" viewBox="0 0 512 512"><path fill-rule="evenodd" d="M240.985257,10.1681198 L272.279703,36.7818243 C279.099257,42.5813709 287.569673,46.0899321 296.492725,46.8111864 L337.439971,50.1209707 C358.299224,51.8070335 374.859633,68.3674422 376.545696,89.2266955 L379.85548,130.173942 C380.576735,139.096993 384.085296,147.56741 389.884842,154.386964 L416.498547,185.68141 C430.05604,201.623356 430.05604,225.043311 416.498547,240.985257 L389.884842,272.279703 C384.085296,279.099257 380.576735,287.569673 379.85548,296.492725 L376.545696,337.439971 C374.859633,358.299224 358.299224,374.859633 337.439971,376.545696 L296.492725,379.85548 C287.569673,380.576735 279.099257,384.085296 272.279703,389.884842 L240.985257,416.498547 C225.043311,430.05604 201.623356,430.05604 185.68141,416.498547 L154.386964,389.884842 C147.56741,384.085296 139.096993,380.576735 130.173942,379.85548 L89.2266955,376.545696 C68.3674422,374.859633 51.8070335,358.299224 50.1209707,337.439971 L46.8111864,296.492725 C46.0899321,287.569673 42.5813709,279.099257 36.7818243,272.279703 L10.1681198,240.985257 C-3.38937326,225.043311 -3.38937326,201.623356 10.1681198,185.68141 L36.7818243,154.386964 C42.5813709,147.56741 46.0899321,139.096993 46.8111864,130.173942 L50.1209707,89.2266955 C51.8070335,68.3674422 68.3674422,51.8070335 89.2266955,50.1209707 L130.173942,46.8111864 C139.096993,46.0899321 147.56741,42.5813709 154.386964,36.7818243 L185.68141,10.1681198 C201.623356,-3.38937326 225.043311,-3.38937326 240.985257,10.1681198 Z M213.344163,42.670649 L182.028057,69.2843536 C168.39162,80.8811753 151.454105,87.8969237 133.611496,89.3391497 L92.6642499,92.648934 L89.3391497,133.611496 C87.8969237,151.454105 80.8811753,168.39162 69.2843536,182.028057 L42.670649,213.322503 L69.2843536,244.63861 C80.8811753,258.275047 87.8969237,275.212562 89.3391497,293.055171 L92.648934,334.002417 L133.611496,337.327517 C151.454105,338.769743 168.39162,345.785491 182.028057,357.382313 L213.322503,383.996018 L244.63861,357.382313 C258.275047,345.785491 275.212562,338.769743 293.055171,337.327517 L334.002417,334.017733 L337.327517,293.055171 C338.769743,275.212562 345.785491,258.275047 357.382313,244.63861 L383.996018,213.344163 L357.382313,182.028057 C345.785491,168.39162 338.769743,151.454105 337.327517,133.611496 L334.017733,92.6642499 L293.055171,89.3391497 C275.212562,87.8969237 258.275047,80.8811753 244.63861,69.2843536 L213.344163,42.670649 Z M262.167114,134.167114 L292.332447,164.332447 L243.415114,213.249781 L292.332447,262.167114 L262.167114,292.332447 L213.249781,243.415114 L164.332447,292.332447 L134.167114,262.167114 L183.084447,213.249781 L134.167114,164.332447 L164.332447,134.167114 L213.249781,183.084447 L262.167114,134.167114 Z" transform="translate(42.75 42.75)"/></svg>