<svg xmlns="http://www.w3.org/2000/svg" width="512" height="512" viewBox="0 0 512 512"><path fill-rule="evenodd" d="M240.985257,10.1681198 L272.279703,36.7818243 C279.099257,42.5813709 287.569673,46.0899321 296.492725,46.8111864 L337.439971,50.1209707 C358.299224,51.8070335 374.859633,68.3674422 376.545696,89.2266955 L379.85548,130.173942 C380.576735,139.096993 384.085296,147.56741 389.884842,154.386964 L416.498547,185.68141 C430.05604,201.623356 430.05604,225.043311 416.498547,240.985257 L389.884842,272.279703 C384.085296,279.099257 380.576735,287.569673 379.85548,296.492725 L376.545696,337.439971 C374.859633,358.299224 358.299224,374.859633 337.439971,376.545696 L296.492725,379.85548 C287.569673,380.576735 279.099257,384.085296 272.279703,389.884842 L240.985257,416.498547 C225.043311,430.05604 201.623356,430.05604 185.68141,416.498547 L154.386964,389.884842 C147.56741,384.085296 139.096993,380.576735 130.173942,379.85548 L89.2266955,376.545696 C68.3674422,374.859633 51.8070335,358.299224 50.1209707,337.439971 L46.8111864,296.492725 C46.0899321,287.569673 42.5813709,279.099257 36.7818243,272.279703 L10.1681198,240.985257 C-3.38937326,225.043311 -3.38937326,201.623356 10.1681198,185.68141 L36.7818243,154.386964 C42.5813709,147.56741 46.0899321,139.096993 46.8111864,130.173942 L50.1209707,89.2266955 C51.8070335,68.3674422 68.3674422,51.8070335 89.2266955,50.1209707 L130.173942,46.8111864 C139.096993,46.0899321 147.56741,42.5813709 154.386964,36.7818243 L185.68141,10.1681198 C201.623356,-3.38937326 225.043311,-3.38937326 240.985257,10.1681198 Z M262.167114,134.167114 L213.249781,183.084447 L164.332447,134.167114 L134.167114,164.332447 L183.084447,213.249781 L134.167114,262.167114 L164.332447,292.332447 L213.249781,243.415114 L262.167114,292.332447 L292.332447,262.167114 L243.415114,213.249781 L292.332447,164.332447 L262.167114,134.167114 Z" transform="translate(42.75 42.75)"/></svg>