<svg xmlns="http://www.w3.org/2000/svg" width="512" height="512" viewBox="0 0 512 512"><path fill-rule="evenodd" d="M384,1.42108547e-14 L384,384 L1.42108547e-14,384 L1.42108547e-14,1.42108547e-14 L384,1.42108547e-14 Z M341.333333,42.6666667 L42.6666667,42.6666667 L42.6666667,341.333333 L341.333333,341.333333 L341.333333,42.6666667 Z M234.666,202.666 L128,202.666667 L128,149.333 L85.3333333,149.333333 L85.3333333,85.3333333 L192,85.3333333 L192,149.333333 L149.333,149.333 L149.333,181.333 L256,181.333333 L256,234.666667 L298.666667,234.666667 L298.666667,298.666667 L192,298.666667 L192,234.666667 L234.666667,234.666667 L234.666,202.666 Z" transform="translate(64 64)"/></svg>