<svg xmlns="http://www.w3.org/2000/svg" width="512" height="512" viewBox="0 0 512 512"><path fill-rule="evenodd" d="M384,64 L384,384 L64,384 L64,64 L384,64 Z M341.333333,106.666667 L106.666667,106.666667 L106.666667,341.333333 L341.333333,341.333333 L341.333333,106.666667 Z M256,234.666 L170.666667,234.666667 L170.666,192 L128,192 L128,128 L234.666667,128 L234.666667,192 L192,192 L192,213.333 L277.333333,213.333333 L277.333333,256 L320,256 L320,320 L213.333333,320 L213.333333,256 L256,256 L256,234.666 Z M320,1.42108547e-14 L320,42.6666667 L42.6666667,42.6666667 L42.6666667,320 L1.42108547e-14,320 L1.42108547e-14,1.42108547e-14 L320,1.42108547e-14 Z" transform="translate(64 64)"/></svg>