<svg width="512" height="512" viewBox="0 0 512 512" fill="none" xmlns="http://www.w3.org/2000/svg"><path fill-rule="evenodd" clip-rule="evenodd" d="M85.3333 85.332V383.999H469.333V426.665H42.6667V85.332H85.3333ZM141.602 106.665C164.654 106.665 187.051 110.887 207.879 118.752C218.416 111.149 231.351 106.665 245.333 106.665C280.68 106.665 309.333 135.319 309.333 170.665C309.333 180.656 307.044 190.113 302.961 198.538C304.796 201.578 306.533 204.702 308.185 207.886L311.022 213.588C315.419 222.812 320.327 231.734 325.709 240.317C333.734 236.678 342.632 234.665 352 234.665C387.346 234.665 416 263.319 416 298.665C416 307.917 414.037 316.71 410.504 324.651C418.169 329.427 426.139 333.821 434.351 337.808L441.444 341.124L446.08 343.208L428.587 382.123L423.951 380.039C408.715 373.19 394.15 365.152 380.372 356.036C371.83 360.282 362.193 362.665 352 362.665C316.654 362.665 288 334.012 288 298.665C288 288.575 290.335 279.03 294.495 270.541C287.748 260.509 281.606 250.044 276.081 239.198L272.507 231.948L271.148 229.246C263.252 232.73 254.519 234.665 245.333 234.665C209.987 234.665 181.333 206.012 181.333 170.665C181.333 165.416 181.965 160.314 183.158 155.431C171.62 151.955 159.539 149.912 147.176 149.439L141.602 149.332H106.667V106.665H141.602ZM352 277.332C340.218 277.332 330.667 286.883 330.667 298.665C330.667 310.447 340.218 319.999 352 319.999C363.782 319.999 373.333 310.447 373.333 298.665C373.333 286.883 363.782 277.332 352 277.332ZM245.333 149.332C233.551 149.332 224 158.883 224 170.665C224 182.447 233.551 191.999 245.333 191.999C257.115 191.999 266.667 182.447 266.667 170.665C266.667 158.883 257.115 149.332 245.333 149.332Z"/></svg>