<svg xmlns="http://www.w3.org/2000/svg" width="512" height="512" viewBox="0 0 512 512"><path fill-rule="evenodd" d="M385.513797,213.333333 L385.513797,255.995367 L286.165256,255.995367 L418.255163,388.085274 L388.085274,418.255163 L255.997328,286.167217 L256.002759,385.506405 L213.340574,385.506556 L213.333333,213.333333 L385.513797,213.333333 Z M170.666667,7.10542736e-15 C264.923264,7.10542736e-15 341.333333,38.2050347 341.333333,85.3333333 L341.333,170.666 L298.667,170.666 L298.667681,141.777012 L299.049,141.558 L298.354698,141.953828 C267.090487,159.567302 221.470973,170.666667 170.666667,170.666667 C119.363999,170.666667 73.348342,159.348477 42.0627357,141.433618 L42.6586002,141.773017 L42.652,192 L42.6666667,192 C42.6666667,195.818843 50.2281437,204.757512 69.0682228,214.177552 C94.6097937,226.948337 131.106154,234.666667 170.666667,234.666667 L170.666667,277.333333 C119.681073,277.333333 73.9173384,266.154614 42.6444983,248.431693 L42.6390764,297.132519 L42.6688356,298.727826 C43.8414491,314.997481 98.3302718,341.333333 170.666667,341.333333 L170.666667,384 C78.5046604,384 3.40481618,347.4741 0.11255743,301.795012 L7.10542736e-15,298.666667 L7.10542736e-15,85.3333333 C7.10542736e-15,38.2050347 76.4100694,7.10542736e-15 170.666667,7.10542736e-15 Z M170.666667,42.6666667 C131.106154,42.6666667 94.6097937,50.384996 69.0682228,63.1557815 C50.2281437,72.575821 42.6666667,81.5144908 42.6666667,85.3333333 C42.6666667,89.1521758 50.2281437,98.0908456 69.0682228,107.510885 C94.6097937,120.281671 131.106154,128 170.666667,128 C210.227179,128 246.72354,120.281671 272.265111,107.510885 C291.10519,98.0908456 298.666667,89.1521758 298.666667,85.3333333 C298.666667,81.5144908 291.10519,72.575821 272.265111,63.1557815 C246.72354,50.384996 210.227179,42.6666667 170.666667,42.6666667 Z" transform="translate(42.667 42.667)"/></svg>