<svg width="512" height="512" viewBox="0 0 512 512" fill="none" xmlns="http://www.w3.org/2000/svg"><path d="M277.333 64V448H106.667C84.1736 448 65.7458 430.595 64.117 408.518L64 405.333V106.667C64 84.1736 81.4054 65.7458 103.482 64.117L106.667 64H277.333ZM234.667 106.615H106.667V405.281L234.667 405.333V106.615ZM361.719 298.615C381.6 298.615 398.305 312.212 403.041 330.614H469.333V373.333L403.036 373.303C398.292 391.695 381.592 405.281 361.719 405.281H298.667V298.615H361.719ZM361.719 106.615C381.6 106.615 398.305 120.212 403.041 138.614H469.333V181.303H403.036C398.292 199.695 381.592 213.281 361.719 213.281H298.667V106.667L361.719 106.615Z"/></svg>