<svg width="512" height="512" viewBox="0 0 512 512" fill="none" xmlns="http://www.w3.org/2000/svg"><path fill-rule="evenodd" clip-rule="evenodd" d="M437.333 85.3332C437.333 108.897 418.231 128 394.666 128C371.102 128 352 108.897 352 85.3332C352 61.769 371.102 42.6665 394.666 42.6665C418.231 42.6665 437.333 61.769 437.333 85.3332ZM322.086 178.784C360.153 213.869 384 264.149 384 320C384 351.736 376.3 381.674 362.666 408.047V448C362.666 459.782 372.218 469.333 384 469.333H405.333C417.115 469.333 426.666 459.782 426.666 448V320H448C459.782 320 469.333 310.449 469.333 298.667V192C469.333 168.436 450.231 149.333 426.666 149.333H362.666C343.715 149.333 327.65 161.689 322.086 178.784ZM213.333 245.333V311.163L264.837 362.666L234.667 392.836L170.667 328.836V245.333H213.333ZM298.667 320C298.667 378.91 250.91 426.667 192 426.667C133.09 426.667 85.3334 378.91 85.3334 320C85.3334 261.089 133.09 213.333 192 213.333C250.91 213.333 298.667 261.089 298.667 320ZM341.333 320C341.333 402.474 274.475 469.333 192 469.333C109.526 469.333 42.6667 402.474 42.6667 320C42.6667 237.525 109.526 170.667 192 170.667C274.475 170.667 341.333 237.525 341.333 320Z"/></svg>