<svg width="512" height="512" viewBox="0 0 512 512" fill="none" xmlns="http://www.w3.org/2000/svg"><path fill-rule="evenodd" clip-rule="evenodd" d="M222.934 85.3334C158.667 85.3334 106.148 135.631 102.593 199.008C67.4498 213.268 42.6665 247.74 42.6665 288C42.6665 329.867 69.4678 365.475 106.849 378.602C106.728 376.862 106.667 375.105 106.667 373.333C106.667 332.096 140.096 298.667 181.333 298.667C193.763 298.667 205.483 301.704 215.792 307.076C214.188 300.987 213.333 294.593 213.333 288C213.333 246.763 246.763 213.333 288 213.333C329.237 213.333 362.666 246.763 362.666 288C362.666 311.363 351.936 332.22 335.135 345.911C352.47 352.295 366.784 364.927 375.345 381.076C429.142 368.995 469.334 320.939 469.334 263.496C469.334 196.942 415.381 142.99 348.827 142.99C341.365 142.99 334.061 143.668 326.973 144.966C306.044 109.289 267.286 85.3334 222.934 85.3334ZM306.475 277.227L323.903 247.039L305.428 236.372L287.999 266.56L270.57 236.372L252.095 247.039L269.524 277.227H234.667V298.56H269.524L252.095 328.748L270.57 339.415L287.999 309.227L305.428 339.415L323.903 328.748L306.474 298.56H341.333V277.227H306.475ZM217.237 332.372L199.808 362.56H234.667V383.893H199.807L217.237 414.082L198.762 424.748L181.333 394.56L163.903 424.748L145.428 414.082L162.858 383.893H128V362.56H162.857L145.428 332.372L163.903 321.706L181.333 351.894L198.762 321.706L217.237 332.372ZM327.808 405.227L345.237 375.039L326.762 364.372L309.333 394.56L291.903 364.372L273.428 375.039L290.857 405.227H256V426.56H290.858L273.428 456.748L291.903 467.415L309.333 437.227L326.762 467.415L345.237 456.748L327.807 426.56H362.666V405.227H327.808Z"/></svg>