<svg width="512" height="512" viewBox="0 0 512 512" fill="none" xmlns="http://www.w3.org/2000/svg"><path fill-rule="evenodd" clip-rule="evenodd" d="M452.42 422.25L89.7533 59.5834L59.5834 89.7533L125.737 155.906C112.333 174.15 103.941 196.305 102.593 220.341C67.4501 234.601 42.6667 269.073 42.6667 309.333C42.6667 362.353 85.6474 405.333 138.667 405.333H228.32V405.336H348.828C357.031 405.336 365.042 404.516 372.785 402.955L422.25 452.42L452.42 422.25ZM199.322 108.979L446.168 355.883C460.735 335.961 469.334 311.399 469.334 284.829C469.334 218.276 415.382 164.323 348.828 164.323C341.365 164.323 334.061 165.001 326.973 166.3C306.044 130.622 267.287 106.667 222.934 106.667C214.853 106.667 206.958 107.462 199.322 108.979Z"/></svg>