<svg width="512" height="512" viewBox="0 0 512 512" fill="none" xmlns="http://www.w3.org/2000/svg"><path fill-rule="evenodd" clip-rule="evenodd" d="M109.486 171.624L140.667 163.8L141.744 131.67C142.606 105.945 163.763 85.3334 189.716 85.3334C205.583 85.3334 219.656 92.9887 228.464 104.992L248.863 132.792L280.324 118.681C287.832 115.314 296.183 113.419 305.091 113.419C338.573 113.419 365.716 140.562 365.716 174.044C365.716 207.527 338.573 234.669 305.091 234.669L244.466 234.665H117.333C99.6603 234.665 85.3334 220.339 85.3334 202.665C85.3334 187.745 95.5842 175.113 109.486 171.624ZM117.333 277.332L170.667 277.335V353.819L128 311.164L97.8302 341.333L192 435.503L286.17 341.333L256 311.164L213.333 353.819V277.336H305.091C362.137 277.336 408.382 231.091 408.382 174.044C408.382 116.998 362.137 70.7528 305.091 70.7528C290.047 70.7528 275.755 73.9689 262.863 79.751C246.363 57.2646 219.745 42.6667 189.716 42.6667C140.677 42.6667 100.732 81.5988 99.1013 130.241C66.6768 138.377 42.6667 167.717 42.6667 202.665C42.6667 243.903 76.0962 277.332 117.333 277.332ZM384 320H490.667V362.667H384V320ZM320 320H362.667V362.667H320V320ZM490.667 426.667V384H384V426.667H490.667ZM362.667 384V426.667H320V384H362.667ZM490.667 490.667V448H384V490.667H490.667ZM362.667 448V490.667H320V448H362.667Z"/></svg>