<svg width="512" height="512" viewBox="0 0 512 512" fill="none" xmlns="http://www.w3.org/2000/svg"><path fill-rule="evenodd" clip-rule="evenodd" d="M143.679 249.716L118.635 259.877C99.0323 267.832 85.3333 287.034 85.3333 309.333C85.3333 338.789 109.211 362.667 138.667 362.667H270.987L348.828 362.669C391.817 362.669 426.667 327.819 426.667 284.829C426.667 241.84 391.817 206.99 348.828 206.99C343.956 206.99 339.225 207.432 334.662 208.268L305.284 213.65L290.172 187.889C276.585 164.729 251.534 149.333 222.934 149.333C181.431 149.333 147.487 181.826 145.193 222.731L143.679 249.716ZM228.32 405.336L138.667 405.333C85.6473 405.333 42.6667 362.353 42.6667 309.333C42.6667 269.073 67.45 234.601 102.593 220.342C106.148 156.964 158.667 106.667 222.934 106.667C267.287 106.667 306.044 130.622 326.973 166.3C334.061 165.001 341.365 164.323 348.828 164.323C415.382 164.323 469.334 218.276 469.334 284.829C469.334 351.383 415.382 405.336 348.828 405.336H228.32Z"/></svg>