<svg width="512" height="512" viewBox="0 0 512 512" fill="none" xmlns="http://www.w3.org/2000/svg"><path fill-rule="evenodd" clip-rule="evenodd" d="M222.866 64C158.677 64 106.216 114.347 102.804 177.707C67.6173 192 42.6667 226.347 42.6667 266.667C42.6667 319.787 85.5306 362.667 138.631 362.667H256.478C261.867 302.864 312.128 256 373.333 256C406.801 256 436.995 270.012 458.371 292.489C478.802 247.998 470.674 193.715 433.987 157.013C410.529 133.547 379.82 121.813 348.899 121.813C341.435 121.813 334.184 122.453 326.933 123.733C306.035 87.8933 267.436 64 223.079 64H222.866ZM373.333 277.333C320.314 277.333 277.333 320.314 277.333 373.333C277.333 426.353 320.314 469.333 373.333 469.333C426.353 469.333 469.333 426.353 469.333 373.333C469.333 320.314 426.353 277.333 373.333 277.333ZM436.096 340.096L352.001 424.191L310.573 382.762L329.429 363.906L352.001 386.478L417.24 321.24L436.096 340.096Z"/></svg>