<svg width="512" height="512" viewBox="0 0 512 512" fill="none" xmlns="http://www.w3.org/2000/svg"><path fill-rule="evenodd" clip-rule="evenodd" d="M222.934 85.3334C158.667 85.3334 106.148 135.631 102.593 199.008C67.4498 213.268 42.6665 247.74 42.6665 288C42.6665 341.019 85.6472 384 138.667 384H149.333V277.333H234.667V320H277.333V277.333H362.666V383.217C422.703 376.352 469.334 325.37 469.334 263.496C469.334 196.942 415.381 142.99 348.827 142.99C341.365 142.99 334.061 143.668 326.973 144.966C306.044 109.289 267.286 85.3334 222.934 85.3334ZM170.667 298.667H213.333V426.667H170.667V298.667ZM277.333 341.333H234.667V469.333H277.333V341.333ZM298.666 298.667H341.333V426.667H298.666V298.667Z"/></svg>