<svg width="512" height="512" viewBox="0 0 512 512" fill="none" xmlns="http://www.w3.org/2000/svg"><path fill-rule="evenodd" clip-rule="evenodd" d="M118.635 238.544L143.679 228.382L145.192 201.398C147.487 160.493 181.431 128 222.934 128C251.534 128 276.585 143.395 290.171 166.555L305.284 192.316L334.662 186.935C339.225 186.099 343.956 185.656 348.827 185.656C391.817 185.656 426.667 220.506 426.667 263.496C426.667 306.486 391.817 341.336 348.827 341.336L340.253 341.336C338.619 342.937 336.911 344.464 335.135 345.911C352.47 352.295 366.784 364.927 375.345 381.076C429.142 368.995 469.334 320.939 469.334 263.496C469.334 196.942 415.381 142.99 348.827 142.99C341.365 142.99 334.061 143.668 326.973 144.966C306.044 109.289 267.286 85.3334 222.934 85.3334C158.667 85.3334 106.148 135.631 102.593 199.008C67.4498 213.268 42.6665 247.74 42.6665 288C42.6665 329.867 69.4678 365.475 106.849 378.602C106.728 376.861 106.667 375.105 106.667 373.333C106.667 359.927 110.2 347.346 116.386 336.47C98.0569 328.031 85.3332 309.502 85.3332 288C85.3332 265.7 99.0321 246.498 118.635 238.544ZM306.475 277.227L323.903 247.039L305.428 236.372L287.999 266.56L270.57 236.372L252.095 247.039L269.524 277.227H234.667V298.56H269.524L252.095 328.748L270.57 339.415L287.999 309.227L305.428 339.415L323.903 328.748L306.474 298.56H341.333V277.227H306.475ZM217.237 332.372L199.808 362.56H234.667V383.893H199.807L217.237 414.082L198.762 424.748L181.333 394.56L163.903 424.748L145.428 414.082L162.858 383.893H128V362.56H162.857L145.428 332.372L163.903 321.706L181.333 351.894L198.762 321.706L217.237 332.372ZM327.808 405.227L345.237 375.039L326.762 364.372L309.333 394.56L291.903 364.372L273.428 375.039L290.857 405.227H256V426.56H290.858L273.428 456.748L291.903 467.415L309.333 437.227L326.762 467.415L345.237 456.748L327.807 426.56H362.666V405.227H327.808Z"/></svg>