<svg width="512" height="512" viewBox="0 0 512 512" fill="none" xmlns="http://www.w3.org/2000/svg"><path fill-rule="evenodd" clip-rule="evenodd" d="M102.593 199.008C106.148 135.631 158.668 85.3334 222.934 85.3334C267.287 85.3334 306.044 109.289 326.973 144.966C334.061 143.668 341.365 142.99 348.828 142.99C415.382 142.99 469.334 196.942 469.334 263.496C469.334 330.05 415.382 384.003 348.828 384.003H327.53L379.594 320H304.658L325.992 234.667H206.513L176.646 384H138.667C85.6474 384 42.6667 341.019 42.6667 288C42.6667 247.74 67.4501 213.268 102.593 199.008ZM277.333 341.333L298.667 256H224L202.667 362.667H245.333L213.319 490.667L330.667 341.333H277.333Z"/></svg>