<svg width="512" height="512" viewBox="0 0 512 512" fill="none" xmlns="http://www.w3.org/2000/svg"><path fill-rule="evenodd" clip-rule="evenodd" d="M222.866 64C158.676 64 106.216 114.347 102.804 177.707C67.6173 192 42.6666 226.347 42.6666 266.667C42.6666 319.787 85.5306 362.667 138.631 362.667H256.478C261.867 302.864 312.127 256 373.333 256C406.801 256 436.995 270.012 458.371 292.489C478.802 247.998 470.674 193.715 433.987 157.013C410.529 133.547 379.82 121.813 348.898 121.813C341.435 121.813 334.184 122.453 326.933 123.733C306.035 87.8933 267.436 64 223.079 64H222.866ZM373.333 277.333C320.314 277.333 277.333 320.314 277.333 373.333C277.333 426.353 320.314 469.333 373.333 469.333C426.352 469.333 469.333 426.353 469.333 373.333C469.333 320.314 426.352 277.333 373.333 277.333ZM354.478 373.334L315.906 334.762L334.762 315.906L373.334 354.478L411.906 315.906L430.762 334.762L392.19 373.334L430.762 411.906L411.906 430.762L373.334 392.191L334.762 430.762L315.906 411.906L354.478 373.334Z"/></svg>