<svg width="512" height="512" viewBox="0 0 512 512" fill="none" xmlns="http://www.w3.org/2000/svg"><path fill-rule="evenodd" clip-rule="evenodd" d="M222.866 106.667C250.375 106.667 275.966 121.387 290.04 145.28L305.181 171.093L334.61 165.76C339.302 164.907 344.207 164.48 348.898 164.48C369.584 164.48 389.203 172.587 403.704 187.093C425.162 208.559 431.415 239.666 422.463 266.75C436.031 273.014 448.199 281.793 458.371 292.489C478.802 247.998 470.674 193.715 433.986 157.013C410.529 133.547 379.82 121.813 348.898 121.813C341.434 121.813 334.184 122.453 326.933 123.733C306.034 87.8933 267.436 64 223.079 64H222.866C158.676 64 106.216 114.347 102.804 177.707C67.6171 192 42.6665 226.347 42.6665 266.667C42.6665 319.787 85.5304 362.667 138.631 362.667H256.478C257.859 347.34 262.188 332.863 268.893 319.807L138.631 320.213C109.202 320.213 85.3172 296.32 85.3172 266.88C85.3172 245.12 98.5389 225.707 118.798 217.6L143.962 207.36L145.455 180.267C147.8 139.093 181.708 106.667 222.866 106.667ZM441.215 305.451C403.725 267.961 342.941 267.961 305.451 305.451C267.961 342.941 267.961 403.725 305.451 441.216C342.941 478.706 403.725 478.706 441.215 441.216C478.706 403.725 478.706 342.941 441.215 305.451ZM357.333 357.333V298.667H389.333V357.333H448V389.333H389.333V448H357.333V389.333H298.667V357.333H357.333Z"/></svg>