<svg width="512" height="512" viewBox="0 0 512 512" fill="none" xmlns="http://www.w3.org/2000/svg"><path fill-rule="evenodd" clip-rule="evenodd" d="M106.478 152.546C106.472 152.076 106.469 151.607 106.469 151.136C106.469 91.7133 154.64 43.5417 214.063 43.5417C250.293 43.5417 282.34 61.4484 301.837 88.894C316.277 82.7737 332.157 79.3886 348.828 79.3886C415.381 79.3886 469.334 133.341 469.334 199.895C469.334 266.449 415.381 320.402 348.828 320.402H277.333V396.484L320.001 353.828L350.17 383.998L256.001 478.168L161.831 383.998L192.001 353.828L234.667 396.483V320.402H228.32V320.401H127.958C80.853 320.401 42.6666 282.215 42.6666 235.109C42.6666 195.424 69.7709 162.069 106.478 152.546Z"/></svg>