<svg width="512" height="512" viewBox="0 0 512 512" fill="none" xmlns="http://www.w3.org/2000/svg"><path d="M448 64L426.667 394.667L256 469.333L85.3333 394.667L64 64H448ZM402.496 106.667H109.483L126.229 365.973L256 422.741L385.749 365.973L402.496 106.667ZM278.281 298.719L256.948 362.719H235.614L246.281 298.719H278.281ZM214.281 128.052V170.719H192.948V204.549C192.948 215.865 188.452 226.717 180.451 234.719C187.563 241.831 191.905 251.196 192.783 261.137L192.948 264.888V298.719H214.281V341.385H192.948C170.455 341.385 152.027 323.98 150.398 301.903L150.281 298.719V264.888L128.948 243.551V225.865L150.281 204.549V170.719C150.281 148.225 167.686 129.798 189.763 128.169L192.948 128.052H214.281ZM320.948 128.052C343.441 128.052 361.869 145.457 363.497 167.534L363.614 170.719V204.549L384.948 225.887V243.551L363.614 264.888V298.719C363.614 321.212 346.209 339.639 324.132 341.268L320.948 341.385H299.614V298.719H320.948V264.888C320.948 254.83 324.499 245.137 330.909 237.488L333.444 234.719C326.332 227.606 321.99 218.241 321.113 208.3L320.948 204.549V170.719H299.614V128.052H320.948ZM256.948 234.719C268.73 234.719 278.281 244.27 278.281 256.052C278.281 267.834 268.73 277.385 256.948 277.385C245.166 277.385 235.614 267.834 235.614 256.052C235.614 244.27 245.166 234.719 256.948 234.719Z"/></svg>