<svg width="512" height="512" viewBox="0 0 512 512" fill="none" xmlns="http://www.w3.org/2000/svg"><path fill-rule="evenodd" clip-rule="evenodd" d="M307.503 42.668H85.3333V469.335H311.588L262.827 426.668H128V85.3346H289.813L384 179.521V336.413L426.667 280.957V161.831L307.503 42.668ZM436.975 298.668L469.333 322.97L354.013 469.335L256 385.603L282.883 355.607L348.152 411.381L436.975 298.668ZM262.24 192.074L282.846 197.596L249.717 321.235L229.111 315.714L262.24 192.074ZM217.753 215.522L202.667 200.437L147.124 255.98L202.667 311.522L217.753 296.437L177.303 255.98L217.753 215.522ZM292.038 215.522L307.123 200.436L362.667 255.978L307.123 311.522L292.038 296.437L332.489 255.978L292.038 215.522Z"/></svg>