<svg xmlns="http://www.w3.org/2000/svg" width="512" height="512" viewBox="0 0 512 512"><path d="M277.333333,2.84217094e-14 L277.333,42.666 L298.666667,42.6666667 C334.012891,42.6666667 362.666667,71.3204427 362.666667,106.666667 L362.666667,128 C362.666667,163.346224 334.012891,192 298.666667,192 L277.333,192 L277.333333,213.333333 C277.333333,260.461632 239.128299,298.666667 192,298.666667 L85.3333333,298.666667 C38.2050347,298.666667 2.84217094e-14,260.461632 2.84217094e-14,213.333333 L2.84217094e-14,2.84217094e-14 L277.333333,2.84217094e-14 Z M234.666667,42.6666667 L42.6666667,42.6666667 L42.6666667,192 L234.666667,192 L234.666667,42.6666667 Z M298.666667,85.3333333 L277.333333,85.3333333 L277.333333,149.333333 L298.666667,149.333333 C310.448741,149.333333 320,139.782075 320,128 L320,106.666667 C320,94.884592 310.448741,85.3333333 298.666667,85.3333333 Z" transform="translate(106.667 170.667)"/></svg>