<svg width="512" height="512" viewBox="0 0 512 512" fill="none" xmlns="http://www.w3.org/2000/svg"><path d="M256 43.8385C373.821 43.8385 469.333 139.351 469.333 257.172C469.333 374.993 373.821 470.505 256 470.505C138.179 470.505 42.6667 374.993 42.6667 257.172C42.6667 139.351 138.179 43.8385 256 43.8385ZM256 86.5052C161.743 86.5052 85.3334 162.915 85.3334 257.172C85.3334 351.428 161.743 427.839 256 427.839C350.257 427.839 426.667 351.428 426.667 257.172C426.667 162.915 350.257 86.5052 256 86.5052ZM277.333 106.667V150.505H320V193.172H256C220.654 193.172 192 221.826 192 257.172C192 291.256 218.644 319.117 252.24 321.063L256 321.172H320V363.839H277.333V405.333H234.663V361.704C185.977 351.819 149.333 308.775 149.333 257.172C149.333 205.569 185.977 162.524 234.663 152.64V106.667H277.333Z"/></svg>