<svg width="512" height="512" viewBox="0 0 512 512" fill="none" xmlns="http://www.w3.org/2000/svg"><path fill-rule="evenodd" clip-rule="evenodd" d="M188.927 111.141C129.325 126.675 85.3333 180.867 85.3333 245.333C85.3333 251.861 85.7844 258.284 86.6572 264.572C85.7724 272.259 85.3177 280.076 85.3177 288C85.3177 324.133 94.7731 358.059 111.345 387.436C69.5006 354.218 42.6667 302.91 42.6667 245.333C42.6667 145.186 123.852 64 224 64C255.913 64 285.9 72.2437 311.948 86.7177C304.094 85.7932 296.103 85.3177 288 85.3177C252.015 85.3177 218.22 94.6955 188.927 111.141ZM288 426.667C364.583 426.667 426.667 364.583 426.667 288C426.667 211.417 364.583 149.333 288 149.333C211.417 149.333 149.333 211.417 149.333 288C149.333 364.583 211.417 426.667 288 426.667ZM288 469.333C388.148 469.333 469.333 388.148 469.333 288C469.333 187.852 388.148 106.667 288 106.667C187.852 106.667 106.667 187.852 106.667 288C106.667 388.148 187.852 469.333 288 469.333ZM277.333 245.333H341.333V202.667H320V170.667H277.333V202.667C230.205 202.667 192 240.872 192 288C192 335.128 230.205 373.333 277.333 373.333V405.333H320V373.333H341.333V330.667H277.333C253.769 330.667 234.667 311.564 234.667 288C234.667 264.436 253.769 245.333 277.333 245.333Z"/></svg>