<svg width="512" height="512" viewBox="0 0 512 512" fill="none" xmlns="http://www.w3.org/2000/svg"><path fill-rule="evenodd" clip-rule="evenodd" d="M64 256C64 273.85 66.4358 291.131 70.9931 307.529C53.0927 280.533 42.6666 248.151 42.6666 213.333C42.6666 119.077 119.077 42.6666 213.333 42.6666C248.151 42.6666 280.533 53.0927 307.529 70.9931C291.131 66.4358 273.85 64 256 64C149.961 64 64 149.961 64 256ZM113.66 350.195C109.102 333.797 106.667 316.516 106.667 298.667C106.667 192.628 192.628 106.667 298.667 106.667C316.516 106.667 333.797 109.102 350.195 113.66C323.2 95.7594 290.817 85.3333 256 85.3333C161.743 85.3333 85.3333 161.743 85.3333 256C85.3333 290.817 95.7594 323.2 113.66 350.195ZM469.333 298.667C469.333 392.923 392.923 469.333 298.667 469.333C204.41 469.333 128 392.923 128 298.667C128 204.41 204.41 128 298.667 128C392.923 128 469.333 204.41 469.333 298.667ZM352 234.667H320V192H277.333V234.667C241.987 234.667 213.333 263.32 213.333 298.667C213.333 334.013 241.987 362.667 277.333 362.667V405.333H320V362.667H352V320H277.333C265.551 320 256 310.449 256 298.667C256 286.885 265.551 277.333 277.333 277.333H352V234.667Z"/></svg>