<svg width="512" height="512" viewBox="0 0 512 512" fill="none" xmlns="http://www.w3.org/2000/svg"><path d="M405.333 42.666V74.666H453.333L455.504 74.8121C462.604 75.7752 468.224 81.3953 469.187 88.4949L469.333 90.666L469.187 92.8371C468.224 99.9368 462.604 105.557 455.504 106.52L453.333 106.666H405.333V149.333H453.333L455.504 149.479C462.604 150.442 468.224 156.062 469.187 163.162L469.333 165.333L469.187 167.504C468.224 174.603 462.604 180.223 455.504 181.187L453.333 181.333H405.333V213.333H341.333L337.074 213.228C299.208 211.367 267.831 184.824 258.693 149.349L231.006 149.333L228.202 149.518C223.579 150.131 219.256 152.247 215.922 155.581C208.231 163.271 207.64 175.372 214.147 183.741L215.922 185.751L326.248 296.078L329.139 299.165C339.328 310.798 344.994 325.773 344.994 341.333C344.994 375.417 318.35 403.277 284.754 405.224L280.994 405.333L253.307 405.349C244.169 440.824 212.792 467.367 174.926 469.228L170.667 469.333H106.667V437.333H58.6667C50.5665 437.333 43.8722 431.313 42.8127 423.504L42.6667 421.333C42.6667 413.233 48.686 406.538 56.4956 405.479L58.6667 405.333H106.667V362.666H58.6667C50.5665 362.666 43.8722 356.647 42.8127 348.837L42.6667 346.666C42.6667 338.566 48.686 331.872 56.4956 330.812L58.6667 330.666H106.667V298.666H170.667C210.43 298.666 243.842 325.864 253.313 362.671L280.994 362.666L283.481 362.523C294.091 361.29 302.327 352.273 302.327 341.333C302.327 336.618 300.766 332.064 297.931 328.361L296.079 326.248L185.752 215.921L182.872 212.849C160.798 187.71 161.758 149.405 185.752 125.411C196.754 114.409 211.349 107.826 226.78 106.806L231.006 106.666L258.687 106.671C267.807 71.227 299.128 44.6938 336.942 42.777L341.333 42.666H405.333ZM170.667 341.333H149.333V426.666H170.667L173.851 426.549C194.824 425.002 211.581 408.293 213.204 387.341L213.333 383.999L213.216 380.815C211.669 359.842 194.961 343.085 174.009 341.462L170.667 341.333ZM362.667 85.3327H341.333L337.991 85.4616C318.204 86.9947 302.201 102.027 299.18 121.36L298.784 124.815L298.667 127.999L298.796 131.341C300.329 151.129 315.361 167.132 334.694 170.153L338.149 170.549L341.333 170.666H362.667V85.3327Z"/></svg>