<svg width="512" height="512" viewBox="0 0 512 512" fill="none" xmlns="http://www.w3.org/2000/svg"><path fill-rule="evenodd" clip-rule="evenodd" d="M405.333 42.666V74.666H453.333L455.504 74.8121C462.604 75.7752 468.224 81.3953 469.187 88.4949L469.333 90.666L469.187 92.8371C468.224 99.9368 462.604 105.557 455.504 106.52L453.333 106.666H405.333V149.333H453.333L455.504 149.479C462.604 150.442 468.224 156.062 469.187 163.162L469.333 165.333L469.187 167.504C468.224 174.603 462.604 180.223 455.504 181.187L453.333 181.333H405.333V213.333H341.333L337.074 213.228C299.208 211.367 267.831 184.824 258.693 149.349L231.006 149.333L228.202 149.518C223.579 150.131 219.256 152.247 215.922 155.581C208.231 163.271 207.64 175.372 214.147 183.741L215.922 185.751L288.501 258.33C276.842 266.633 266.633 276.841 258.331 288.5L185.752 215.921L182.872 212.849C160.798 187.71 161.758 149.405 185.752 125.411C196.754 114.409 211.349 107.826 226.78 106.806L231.006 106.666L258.687 106.671C267.807 71.227 299.128 44.6938 336.942 42.777L341.333 42.666H405.333ZM234.667 362.666C234.667 383.222 239.512 402.645 248.123 419.858C235.139 447.856 207.422 467.631 174.926 469.228L170.667 469.333H106.667V437.333H58.6667C50.5665 437.333 43.8722 431.313 42.8127 423.504L42.6667 421.333C42.6667 413.233 48.686 406.538 56.4956 405.479L58.6667 405.333H106.667V362.666H58.6667C50.5665 362.666 43.8722 356.647 42.8127 348.837L42.6667 346.666C42.6667 338.566 48.686 331.872 56.4956 330.812L58.6667 330.666H106.667V298.666H170.667C198.238 298.666 222.756 311.742 238.356 332.031C235.945 341.847 234.667 352.107 234.667 362.666ZM170.667 341.333H149.333V426.666H170.667L173.851 426.549C194.824 425.002 211.581 408.293 213.204 387.341L213.333 383.999L213.216 380.815C211.669 359.842 194.961 343.085 174.009 341.462L170.667 341.333ZM362.667 85.3327H341.333L337.991 85.4616C318.204 86.9947 302.201 102.027 299.18 121.36L298.784 124.815L298.667 127.999L298.796 131.341C300.329 151.129 315.361 167.132 334.694 170.153L338.149 170.549L341.333 170.666H362.667V85.3327ZM332.921 255.999H392.18V278.835C402.583 282.512 412.098 288.071 420.314 295.103L440.112 283.673L469.741 334.993L449.957 346.415C450.93 351.684 451.439 357.116 451.439 362.666C451.439 368.217 450.93 373.648 449.957 378.917L469.741 390.339L440.111 441.659L420.314 430.23C412.098 437.261 402.583 442.82 392.18 446.497V469.333H332.921V446.497C322.517 442.82 313.003 437.261 304.786 430.23L284.989 441.659L255.359 390.339L275.144 378.917C274.17 373.648 273.661 368.217 273.661 362.666C273.661 357.116 274.17 351.684 275.144 346.415L255.359 334.993L284.989 283.673L304.786 295.103C313.003 288.071 322.517 282.512 332.921 278.835V255.999ZM398.106 362.666C398.106 382.303 382.187 398.222 362.55 398.222C342.913 398.222 326.995 382.303 326.995 362.666C326.995 343.029 342.913 327.11 362.55 327.11C382.187 327.11 398.106 343.029 398.106 362.666Z"/></svg>