<svg width="24" height="24" viewBox="0 0 24 24" fill="none" xmlns="http://www.w3.org/2000/svg"><path d="M12 2C17.5228 2 22 6.47715 22 12C22 17.5228 17.5228 22 12 22C6.47715 22 2 17.5228 2 12C2 6.47715 6.47715 2 12 2ZM9.49707 10.3311C8.48806 11.3401 8.36339 12.8987 9.12207 14.0439L6.75 16.416L7.58496 17.25L9.95605 14.8789C11.1013 15.6376 12.6599 15.512 13.6689 14.5029H13.668L9.49707 10.3311ZM14.0439 9.12207C12.8987 8.36341 11.3401 8.48807 10.3311 9.49707L14.5029 13.668C15.5117 12.6589 15.6375 11.1012 14.8789 9.95605L17.25 7.58496L16.416 6.75L14.0439 9.12207Z"/></svg>