<svg xmlns="http://www.w3.org/2000/svg" width="512" height="512" viewBox="0 0 512 512"><path fill-rule="evenodd" d="M192,7.10542736e-15 L384,110.851252 L384,278.503 L417.850677,301.069865 L406.017073,318.820271 L334.905962,425.486938 L320.471285,447.138952 L302.070611,428.738278 L230.096777,356.764444 L260.266667,326.594555 L313.834667,380.16 L370.51626,295.153062 L382.349865,277.402656 L384,278.502 L384,242.986667 L341.333,242.986 L341.333,157.655 L213.333,231.555 L213.333,431.088 L192,443.405007 L7.10542736e-15,332.553755 L7.10542736e-15,110.851252 L192,7.10542736e-15 Z M42.666,157.654 L42.6666667,307.920144 L170.666,381.82 L170.666,231.555 L42.666,157.654 Z M192,49.267223 L66.1333333,121.936377 L192,194.605531 L317.866667,121.936377 L192,49.267223 Z" transform="translate(42.667 34.347)"/></svg>