<svg width="512" height="512" viewBox="0 0 512 512" fill="none" xmlns="http://www.w3.org/2000/svg"><path d="M430.545 128C451.967 128 469.333 147.103 469.333 170.667V341.333C469.333 364.897 451.967 384 430.545 384H81.4546C60.0326 384 42.6667 364.897 42.6667 341.333V170.667C42.6667 147.103 60.0326 128 81.4546 128H430.545ZM426.667 170.667H85.3334V341.333H426.667V170.667ZM320 192V230.4H300.8L294.4 217.6H268.8V294.4L294.4 300.8V320H217.6V300.8L243.2 294.4V217.6H217.6L211.2 230.4H192V192H320Z"/></svg>