<svg width="512" height="512" viewBox="0 0 512 512" fill="none" xmlns="http://www.w3.org/2000/svg"><path d="M341.333 128C412.026 128 469.333 185.308 469.333 256C469.333 326.692 412.026 384 341.333 384H170.667C99.9742 384 42.6667 326.692 42.6667 256C42.6667 185.308 99.9742 128 170.667 128H341.333ZM341.333 170.667H170.667C123.538 170.667 85.3334 208.872 85.3334 256C85.3334 301.7 121.258 339.01 166.408 341.229L170.667 341.333H341.333C388.462 341.333 426.667 303.128 426.667 256C426.667 210.3 390.742 172.99 345.592 170.771L341.333 170.667ZM170.667 192C206.013 192 234.667 220.654 234.667 256C234.667 291.346 206.013 320 170.667 320C135.32 320 106.667 291.346 106.667 256C106.667 220.654 135.32 192 170.667 192Z"/></svg>