<svg width="512" height="512" viewBox="0 0 512 512" fill="none" xmlns="http://www.w3.org/2000/svg"><path fill-rule="evenodd" clip-rule="evenodd" d="M64 64H85.3333H426.667H448V85.3333V426.667V448H426.667H85.3333H64V426.667V85.3333V64ZM106.667 106.667V405.333H341.332H405.333V106.667H341.334H106.667ZM341.334 106.667L384 170.667H298.667L341.334 106.667ZM341.332 405.333L298.667 341.333H384L341.332 405.333ZM256 192H128V149.333H256V192ZM128 277.333H256V234.667H128V277.333ZM256 362.667H128V320H256V362.667ZM384 192H298.667V277.333H384V192Z"/></svg>