<svg width="512" height="512" viewBox="0 0 512 512" fill="none" xmlns="http://www.w3.org/2000/svg"><path fill-rule="evenodd" clip-rule="evenodd" d="M105.21 256C105.21 173.525 169.786 106.667 249.445 106.667C329.103 106.667 393.679 173.525 393.679 256V268.501L367.037 240.917L337.902 271.083L414.284 350.165L490.667 271.083L461.531 240.917L434.889 268.501V256C434.889 149.952 351.872 64 249.445 64C147.017 64 64 149.952 64 256C64 362.048 147.017 448 249.445 448C293.271 448 333.616 432.235 365.368 405.888L339.591 372.587C314.886 393.088 283.566 405.333 249.445 405.333C169.786 405.333 105.21 338.475 105.21 256ZM234.667 212.167L234.667 341.333H277.333V170.667H239.042L182.417 203.917L200.417 233.542L234.667 212.167Z"/></svg>