<svg width="512" height="512" viewBox="0 0 512 512" fill="none" xmlns="http://www.w3.org/2000/svg"><path fill-rule="evenodd" clip-rule="evenodd" d="M149.333 234.667V42.667H64V298.667V426.667H106.667V384H149.333V426.667H192V384H234.667V341.334H277.333V298.667H330.667L405.333 224.372V164.549L277.333 234.667V165.334L149.333 234.667ZM192 341.334V384H149.333V341.334H192ZM192 341.334H234.667V298.667H192V341.334ZM474.667 316L409.333 250.667L256 404V469.334H321.333L474.667 316ZM288 417.238L367.972 337.266L388.046 357.341L308.053 437.334H288V417.238ZM410.674 334.713L390.599 314.639L409.323 295.915L429.397 315.99L410.674 334.713Z"/></svg>