<svg width="512" height="512" viewBox="0 0 512 512" fill="none" xmlns="http://www.w3.org/2000/svg"><path d="M277.333 42.6666L277.354 86.6562C354.537 96.2902 415.71 157.463 425.344 234.646L469.333 234.667V277.333L425.346 277.332C415.721 354.525 354.544 415.709 277.354 425.344L277.333 469.333H234.667L234.668 425.346C157.468 415.72 96.2799 354.532 86.6537 277.332L42.6667 277.333V234.667L86.6564 234.646C96.2912 157.456 157.475 96.2789 234.668 86.6536L234.667 42.6666H277.333ZM277.351 129.773L277.333 170.667H234.667L234.671 129.769C181.075 138.759 138.772 181.056 129.773 234.649L170.667 234.667V277.333L129.769 277.329C138.76 330.933 181.067 373.24 234.671 382.231L234.667 341.333H277.333L277.351 382.227C330.944 373.229 373.241 330.926 382.231 277.329L341.333 277.333V234.667L382.227 234.649C373.23 181.063 330.937 138.77 277.351 129.773ZM256 213.333C279.564 213.333 298.667 232.436 298.667 256C298.667 279.564 279.564 298.667 256 298.667C232.436 298.667 213.333 279.564 213.333 256C213.333 232.436 232.436 213.333 256 213.333Z"/></svg>