<svg width="512" height="512" viewBox="0 0 512 512" fill="none" xmlns="http://www.w3.org/2000/svg"><path fill-rule="evenodd" clip-rule="evenodd" d="M95.9998 150.5L117.333 43.8334L337.269 313.755C350.692 304.953 366.748 299.833 384 299.833C431.127 299.833 469.333 338.039 469.333 385.167C469.333 432.294 431.127 470.5 384 470.5C336.872 470.5 298.667 432.294 298.667 385.167C298.667 372.949 301.235 361.329 305.86 350.822L257.66 304.81L206.46 351.558C210.884 361.873 213.333 373.233 213.333 385.167C213.333 432.294 175.128 470.5 128 470.5C80.8715 470.5 42.6665 432.294 42.6665 385.167C42.6665 338.039 80.8715 299.833 128 299.833C145.251 299.833 161.307 304.953 174.731 313.755L215.11 264.196L95.9998 150.5ZM149.333 385.167C149.333 396.949 139.782 406.5 128 406.5C116.218 406.5 106.667 396.949 106.667 385.167C106.667 373.384 116.218 363.833 128 363.833C139.782 363.833 149.333 373.384 149.333 385.167ZM405.333 385.167C405.333 396.949 395.782 406.5 384 406.5C372.217 406.5 362.667 396.949 362.667 385.167C362.667 373.384 372.217 363.833 384 363.833C395.782 363.833 405.333 373.384 405.333 385.167ZM426.667 150.5L394.667 43.8334L283.351 180.448L330.592 238.221L426.667 150.5Z"/></svg>