<svg width="512" height="512" viewBox="0 0 512 512" fill="none" xmlns="http://www.w3.org/2000/svg"><path fill-rule="evenodd" clip-rule="evenodd" d="M42.6667 85.3335H469.333V289.188L409.339 229.193L405.333 233.198V213.333H362.667V275.865L341.333 297.198V256H298.667V339.865L277.333 361.198V341.333H234.667V362.667H275.865L211.865 426.667H42.6667V85.3335ZM426.667 128H85.3334V170.667H426.667V128ZM234.667 288C234.667 329.237 201.237 362.667 160 362.667C118.763 362.667 85.3334 329.237 85.3334 288C85.3334 246.763 118.763 213.333 160 213.333C201.237 213.333 234.667 246.763 234.667 288ZM183.273 240.012C176.019 236.495 168.062 234.667 160 234.667V288L211.862 300.441C213.743 292.601 213.822 284.437 212.093 276.563C210.364 268.689 206.872 261.309 201.881 254.978C196.889 248.647 190.527 243.53 183.273 240.012ZM409.333 261.334L464 316L429.543 350.458L374.876 295.791L409.333 261.334ZM359.791 310.876L414.458 365.543L310.667 469.334H256V414.667L359.791 310.876Z"/></svg>