<svg width="512" height="512" viewBox="0 0 512 512" fill="none" xmlns="http://www.w3.org/2000/svg"><path fill-rule="evenodd" clip-rule="evenodd" d="M426.667 125.489H85.3333V145.567H426.667V125.489ZM85.3333 386.508V185.724H426.667V386.508H85.3333ZM42.6667 85.332V426.665H469.333V85.332H42.6667ZM362.667 234.665V362.665H405.333V234.665H362.667ZM298.667 362.665V277.332H341.333V362.665H298.667ZM234.667 341.332V362.665H277.333V341.332H234.667Z"/><path fill-rule="evenodd" clip-rule="evenodd" d="M170.667 362.665C211.904 362.665 245.333 329.236 245.333 287.999C245.333 246.761 211.904 213.332 170.667 213.332C129.429 213.332 96 246.761 96 287.999C96 329.236 129.429 362.665 170.667 362.665ZM206.143 311.703C210.831 304.687 213.333 296.437 213.333 287.999H170.667V245.332C162.228 245.332 153.979 247.834 146.962 252.523C139.946 257.211 134.477 263.875 131.248 271.671C128.018 279.467 127.174 288.046 128.82 296.323C130.466 304.599 134.53 312.202 140.497 318.169C146.464 324.136 154.066 328.199 162.343 329.846C170.619 331.492 179.198 330.647 186.994 327.418C194.791 324.188 201.454 318.72 206.143 311.703Z"/></svg>