<svg width="512" height="512" viewBox="0 0 512 512" fill="none" xmlns="http://www.w3.org/2000/svg"><path fill-rule="evenodd" clip-rule="evenodd" d="M42.6667 85.332H469.333V426.665H42.6667V85.332ZM234.667 341.332H277.333V362.665H234.667V341.332ZM341.333 277.332H298.667V362.665H341.333V277.332ZM362.667 234.665H405.333V362.665H362.667V234.665ZM426.667 127.999H85.3333V170.665H426.667V127.999ZM234.667 287.999C234.667 329.236 201.237 362.665 160 362.665C118.763 362.665 85.3333 329.236 85.3333 287.999C85.3333 246.761 118.763 213.332 160 213.332C201.237 213.332 234.667 246.761 234.667 287.999ZM183.273 240.011C176.019 236.493 168.062 234.665 160 234.665V287.999L211.862 300.439C213.743 292.6 213.821 284.436 212.093 276.562C210.364 268.687 206.872 261.307 201.88 254.976C196.889 248.646 190.527 243.529 183.273 240.011Z"/></svg>