<svg width="512" height="512" viewBox="0 0 512 512" fill="none" xmlns="http://www.w3.org/2000/svg"><path fill-rule="evenodd" clip-rule="evenodd" d="M277.333 64V195.642C302.191 204.428 320 228.134 320 256C320 283.866 302.191 307.572 277.333 316.358V409.6V448H285.369H322.08V409.6V401.613C329.569 397.907 336.746 393.587 343.556 388.672L350.128 392.666L381.938 411.846L400.294 378.611L429.644 325.389L448 292.134L416.226 272.934L409.655 268.998C410.022 264.64 410.206 260.32 410.206 256C410.206 251.68 410.022 247.36 409.655 243.002L416.226 239.066L448 219.866L429.644 186.611L400.294 133.389L381.938 100.154L350.128 119.334L343.556 123.328C336.746 118.413 329.569 114.093 322.08 110.387V102.4V64H285.369H277.333ZM85.3333 149.335C85.3333 105.819 150.479 69.9105 234.667 64.6615V234.008C152.505 228.885 88.4801 194.561 85.4459 152.463L85.3333 149.335ZM85.4459 195.13C88.4801 237.228 152.505 271.552 234.667 276.674V340.674C152.505 335.552 88.4801 301.228 85.4459 259.13L85.3333 256.001V192.001L85.4459 195.13ZM85.4459 301.796C88.4801 343.894 152.505 378.218 234.667 383.341V447.341C152.505 442.218 88.4801 407.894 85.4459 365.796L85.3333 362.668V298.668L85.4459 301.796Z"/></svg>