<svg width="512" height="512" viewBox="0 0 512 512" fill="none" xmlns="http://www.w3.org/2000/svg"><path d="M431.261 380.864C423.408 389.824 415.504 396.142 407.545 399.82C399.695 403.495 390.285 405.333 379.313 405.333C361.891 405.333 348.5 400.394 339.144 390.515C329.679 380.75 324.946 367.536 324.946 350.878C324.946 328.362 333.498 311.819 350.599 301.25C361.354 294.586 378.345 291.254 401.577 291.254C407.707 291.254 416.903 291.6 429.164 292.289V289.015C429.164 261.787 416.741 248.174 391.898 248.174C377.807 248.174 362.643 253.171 346.404 263.167L336.08 233.526C355.653 222.957 375.925 217.673 396.897 217.673C424.108 217.673 443.574 225.485 455.297 241.108C460.03 247.543 463.256 255.011 464.977 263.51C466.806 272.012 467.72 284.763 467.72 301.766V355.532C467.72 374.602 468.258 393.845 469.333 405.333H431.261V380.864ZM429.164 318.137C422.818 317.563 417.01 317.275 411.74 317.275C396.145 317.275 384.907 319.573 378.024 324.168C369.31 330.027 364.956 338.645 364.956 350.017C364.956 358.175 367.321 364.781 372.054 369.834C376.786 374.775 383.132 377.245 391.091 377.245C405.825 377.245 418.516 368.858 429.164 352.086V318.137Z"/><path d="M222.962 316.932H119.38L96 405.333H42.6667L144.691 106.666H198.429L309.333 405.333H256L222.962 316.932ZM209.722 276.583L186.552 206.703C181.101 190.065 175.973 173.149 171.171 155.957C167.277 170.515 162.084 187.43 155.594 206.703L132.425 276.583H209.722Z"/></svg>