<svg width="512" height="512" viewBox="0 0 512 512" fill="none" xmlns="http://www.w3.org/2000/svg"><path fill-rule="evenodd" clip-rule="evenodd" d="M166.521 298.666V267.885C195.792 241.01 218.083 219.083 233.396 202.104C247.458 186.583 257.146 174.135 262.458 164.76C267.875 155.385 270.583 146.166 270.583 137.104C270.583 127.52 267.302 119.864 260.74 114.135C253.344 107.781 244.021 104.604 232.771 104.604C217.354 104.604 199.646 110.176 179.646 121.322L170.271 89.1348C192.25 78.8223 214.49 73.666 236.99 73.666C258.865 73.666 276.156 78.6139 288.865 88.5098C302.719 99.3431 309.646 114.812 309.646 134.916C309.646 148.458 306.469 161.374 300.115 173.666C293.76 185.958 282.458 200.958 266.208 218.666C251.937 234.395 235.74 250.645 217.615 267.416H311.365V298.666H166.521ZM104.771 383.999V205.562L64.3021 232.749L47.7396 202.281L108.99 162.593H142.427V383.999H104.771ZM321.948 365.645L313.823 397.364C333.927 405.176 355.073 409.083 377.26 409.083C402.365 409.083 421.687 403.562 435.229 392.52C450.333 380.229 457.885 363.406 457.885 342.051C457.885 312.051 442 294.708 410.229 290.02C425.229 287.208 436.531 281.426 444.135 272.676C451.74 263.822 455.542 252.104 455.542 237.52C455.542 218.979 448.927 204.708 435.698 194.708C423.198 185.124 405.802 180.333 383.51 180.333C361.844 180.333 340.854 184.291 320.542 192.208L328.042 223.458C347.625 215.333 364.5 211.27 378.667 211.27C390.542 211.27 399.812 213.926 406.479 219.239C413.146 224.447 416.479 231.791 416.479 241.27C416.479 252.312 411.323 261.01 401.01 267.364C392.052 272.989 377.885 275.801 358.51 275.801C354.24 275.801 349.344 275.541 343.823 275.02V305.176C351.427 304.76 357.573 304.551 362.26 304.551C399.969 304.551 418.823 316.635 418.823 340.801C418.823 350.906 415.594 359.395 409.135 366.27C401.74 374.187 390.229 378.145 374.604 378.145C357.312 378.145 339.76 373.979 321.948 365.645Z"/></svg>