<svg width="512" height="512" viewBox="0 0 512 512" fill="none" xmlns="http://www.w3.org/2000/svg"><path fill-rule="evenodd" clip-rule="evenodd" d="M213.333 64C307.59 64 384 102.205 384 149.333V235.145C380.487 234.828 376.929 234.667 373.333 234.667C362.24 234.667 351.506 236.206 341.333 239.083V205.778C310.061 223.493 264.307 234.667 213.333 234.667C162.356 234.667 116.598 223.491 85.326 205.773L85.3194 256H85.3333C85.3333 259.819 92.8948 268.758 111.735 278.178C137.276 290.948 173.773 298.667 213.333 298.667C234.155 298.667 254.127 296.529 272.101 292.641C264.018 306.397 258.658 321.945 256.763 338.546C242.896 340.365 228.341 341.333 213.333 341.333C162.348 341.333 116.585 330.155 85.3121 312.432L85.3058 361.133L85.3355 362.728C86.5081 378.997 140.997 405.333 213.333 405.333C231.995 405.333 249.974 403.616 266.444 400.461C272.926 414.735 282.183 427.482 293.526 438.012C269.619 444.387 242.32 448 213.333 448C121.171 448 46.0715 411.474 42.7792 365.795L42.6667 362.667V256V149.333C42.6667 102.205 119.077 64 213.333 64ZM213.333 106.667C173.773 106.667 137.276 114.385 111.735 127.156C92.8948 136.576 85.3333 145.514 85.3333 149.333C85.3333 153.152 92.8948 162.091 111.735 171.511C137.276 184.282 173.773 192 213.333 192C252.894 192 289.39 184.282 314.932 171.511C333.772 162.091 341.333 153.152 341.333 149.333C341.333 145.514 333.772 136.576 314.932 127.156C289.39 114.385 252.894 106.667 213.333 106.667ZM368.922 262.403L399.092 292.573L350.178 341.488H469.333V384.154H350.177L399.092 433.07L368.922 463.24L268.504 362.821L368.922 262.403Z"/></svg>