<svg width="512" height="512" viewBox="0 0 512 512" fill="none" xmlns="http://www.w3.org/2000/svg"><path fill-rule="evenodd" clip-rule="evenodd" d="M434.664 368.229L434.665 372.62C404.198 419.202 356.006 453.141 299.668 464.86L298.683 466.322C320.529 435.371 323.299 371.662 305.96 337.978C333.565 321.141 352 290.723 352 256L351.992 255.031C393.105 268.595 431.319 325.09 434.664 368.229ZM256 352C266.804 352 277.191 350.215 286.883 346.924C286.486 390.131 244.69 443.674 204.81 460.139C203.124 460.748 201.412 461.301 199.678 461.797C144.464 446.743 98.1825 410.052 70.4833 361.406L69.4978 361.125C105.513 372.285 166.549 355.446 193.427 328.768C210.191 343.247 232.073 352 256 352ZM256 191.95C291.374 191.95 320.05 220.626 320.05 256C320.05 291.374 291.374 320.05 256 320.05C220.626 320.05 191.95 291.374 191.95 256C191.95 220.626 220.626 191.95 256 191.95ZM98.753 111.83L98.7234 110.649C99.2386 148.298 134.018 201.049 167.653 218.442C162.721 229.955 160 242.66 160 256C160 277.42 167.015 297.202 178.873 313.172C137.649 325.784 74.2335 302.636 46.3695 269.936C45.1413 268.357 43.9708 266.726 42.8592 265.046L42.7485 261.971L42.6665 256C42.6665 200.416 63.9241 149.797 98.753 111.83ZM418.282 121.223L422.479 122.586C451.795 159.121 469.333 205.513 469.333 256C469.333 263.784 468.916 271.47 468.104 279.038L469.553 280.861C446.827 250.465 386.92 228.118 349.54 234.312C341.913 201.294 317.261 174.797 285.329 164.563C311.055 129.852 376.34 111.102 418.282 121.223ZM256 42.6667C287.454 42.6667 317.318 49.4741 344.2 61.6958L345.971 61.0435C310.167 73.221 270.555 122.981 264.676 160.402C261.841 160.132 258.936 160 256 160C223.936 160 195.543 175.72 178.108 199.873C153.395 164.547 155.812 97.0805 178.302 60.4742C179.327 58.9621 180.408 57.4824 181.542 56.0366C204.714 47.3876 229.806 42.6667 256 42.6667Z"/></svg>