<svg width="512" height="512" viewBox="0 0 512 512" fill="none" xmlns="http://www.w3.org/2000/svg"><path fill-rule="evenodd" clip-rule="evenodd" d="M213.312 63.9788V213.312L170.667 213.333L170.66 133.438C131.976 160.424 106.667 205.257 106.667 256C106.667 281.481 113.049 305.472 124.301 326.461L138.893 353.557L142.056 351.754L165.437 338.208L187.677 353.554C192.881 357.145 198.384 360.314 204.154 363.044L228.576 374.596L228.557 405.333H281.442L281.463 374.596L305.885 363.044C311.655 360.314 317.158 357.145 322.362 353.554L344.633 338.187L368.029 351.78L371.127 353.579L397.538 307.733L394.531 306.024L370.835 292.455L373.231 265.254C373.507 262.13 373.643 259.06 373.643 256C373.643 252.94 373.507 249.87 373.231 246.746L370.835 219.545L394.531 205.976L397.559 204.245L371.127 158.421L368.029 160.22L344.633 173.813L322.362 158.446C317.158 154.855 311.655 151.686 305.885 148.956L281.463 137.404L281.442 106.667H234.667V64.0001H324.13V110.387C331.964 114.093 339.471 118.413 346.594 123.328L353.468 119.334L386.741 100.154L405.941 133.389L436.642 186.611L455.842 219.866L422.607 239.066L415.733 243.002C416.117 247.36 416.309 251.68 416.309 256C416.309 260.32 416.117 264.64 415.733 268.999L422.607 272.934L455.842 292.134L436.642 325.389L405.941 378.611L386.741 411.846L353.468 392.666L346.594 388.672C339.471 393.587 331.964 397.907 324.13 401.613V448H185.909V401.613C178.076 397.907 170.569 393.587 163.445 388.672L156.553 392.666L123.298 411.846L104.098 378.611L86.7413 346.517C72.2021 319.594 64 288.755 64 256C64 195.676 91.8203 141.849 135.331 106.65L64 106.667V64.0001L213.312 63.9788ZM256 213.333C279.564 213.333 298.667 232.436 298.667 256C298.667 279.564 279.564 298.667 256 298.667C232.436 298.667 213.333 279.564 213.333 256C213.333 232.436 232.436 213.333 256 213.333Z"/></svg>