<svg width="24" height="24" viewBox="0 0 24 24" fill="none" xmlns="http://www.w3.org/2000/svg"><path fill-rule="evenodd" clip-rule="evenodd" d="M12 2C17.5228 2 22 6.47715 22 12C22 17.5228 17.5228 22 12 22C6.47715 22 2 17.5228 2 12C2 6.47715 6.47715 2 12 2ZM12 4C7.58172 4 4 7.58172 4 12C4 16.4183 7.58172 20 12 20C16.4183 20 20 16.4183 20 12C20 7.58172 16.4183 4 12 4ZM7.99982 7.24626L16.4851 15.7315L15.7508 16.4658L7.26552 7.98056L7.99982 7.24626ZM7.7309 12.2142L7.73083 12.2143C6.84272 13.1024 6.70815 14.4494 7.34352 15.425L6.46131 16.3072L7.16719 17.0131L8.04939 16.1309C9.02498 16.7664 10.3721 16.6318 11.2602 15.7437L11.2603 15.7436L11.6132 16.0965L12.3475 15.3622L11.4652 14.4799L12.0752 13.87L11.3693 13.1641L10.7594 13.774L9.70044 12.7151L10.3105 12.1051L9.60458 11.3992L8.99455 12.0092L8.1122 11.1269L7.3779 11.8612L7.7309 12.2142ZM11.3016 7.93771L11.6545 8.29058L11.6546 8.29052C12.5427 7.40243 13.8897 7.26785 14.8653 7.90317L16.0073 6.76119L16.7131 7.46707L15.5712 8.60902C16.2067 9.58461 16.0721 10.9318 15.184 11.8199L15.1839 11.82L15.5369 12.173L14.8026 12.9073L10.5673 8.67202L11.3016 7.93771Z"/></svg>