<svg xmlns="http://www.w3.org/2000/svg" width="512" height="512" viewBox="0 0 512 512"><path fill-rule="evenodd" d="M362.666667,-4.26325641e-14 C398.012891,-4.26325641e-14 426.666667,28.653776 426.666667,64 C426.666667,99.346224 398.012891,128 362.666667,128 C351.034882,128 340.127853,124.896952 330.728232,119.473507 L273.044261,168.917324 C272.93931,168.646018 272.832563,168.375606 272.724035,168.106103 C275.697043,175.488961 277.333333,183.553393 277.333333,192 C277.333333,196.204266 276.92794,200.313848 276.154112,204.291788 C276.210498,204.001927 276.264924,203.711394 276.317379,203.420176 L320.860476,228.873264 C332.075224,219.189719 346.687029,213.333333 362.666667,213.333333 C398.012891,213.333333 426.666667,241.987109 426.666667,277.333333 C426.666667,312.679557 398.012891,341.333333 362.666667,341.333333 C327.320443,341.333333 298.666667,312.679557 298.666667,277.333333 C298.666667,273.436816 299.014883,269.621629 299.681894,265.917194 L255.133505,240.465265 L255.193,240.413 L254.696246,240.839332 C243.541046,250.29631 229.103274,256 213.333333,256 C201.633419,256 190.666775,252.860495 181.229886,247.377969 L181.38892,247.470057 L123.709763,296.914314 C126.480528,304.075865 128,311.860487 128,320 C128,355.346224 99.346224,384 64,384 C28.653776,384 7.10542736e-15,355.346224 7.10542736e-15,320 C7.10542736e-15,284.653776 28.653776,256 64,256 C75.6318224,256 86.5388844,259.103068 95.9385265,264.526546 L153.622794,215.083679 L153.375427,214.433686 C150.76219,207.452428 149.333333,199.893078 149.333333,192 C149.333333,187.781314 149.741512,183.657963 150.52053,179.667286 C150.461291,179.970753 150.404209,180.274913 150.349288,180.579824 L105.8064,155.126555 C94.5916246,164.810208 79.9797369,170.666667 64,170.666667 C28.653776,170.666667 7.10542736e-15,142.012891 7.10542736e-15,106.666667 C7.10542736e-15,71.3204427 28.653776,42.6666667 64,42.6666667 C99.346224,42.6666667 128,71.3204427 128,106.666667 C128,110.561427 127.652098,114.37493 126.985674,118.077796 L171.538177,143.530406 C171.358654,143.685346 171.180001,143.841267 171.002227,143.998161 C182.28406,134.041457 197.103168,128 213.333333,128 C224.973749,128 235.888333,131.107655 245.29269,136.53857 L245.256821,136.517871 L302.953023,87.0756532 C300.18472,79.9168648 298.666667,72.1357126 298.666667,64 C298.666667,28.653776 327.320443,-4.26325641e-14 362.666667,-4.26325641e-14 Z M213.333333,170.666667 C201.551259,170.666667 192,180.217925 192,192 C192,203.782075 201.551259,213.333333 213.333333,213.333333 C225.115408,213.333333 234.666667,203.782075 234.666667,192 C234.666667,180.217925 225.115408,170.666667 213.333333,170.666667 Z M64,85.3333333 C52.2179253,85.3333333 42.6666667,94.884592 42.6666667,106.666667 C42.6666667,118.448741 52.2179253,128 64,128 C75.7820747,128 85.3333333,118.448741 85.3333333,106.666667 C85.3333333,94.884592 75.7820747,85.3333333 64,85.3333333 Z M362.666667,42.6666667 C350.884592,42.6666667 341.333333,52.2179253 341.333333,64 C341.333333,75.7820747 350.884592,85.3333333 362.666667,85.3333333 C374.448741,85.3333333 384,75.7820747 384,64 C384,52.2179253 374.448741,42.6666667 362.666667,42.6666667 Z" transform="translate(42.667 64)"/></svg>