<svg width="512" height="512" viewBox="0 0 512 512" fill="none" xmlns="http://www.w3.org/2000/svg"><path fill-rule="evenodd" clip-rule="evenodd" d="M235.14 42.6641L235.147 172.618C198.249 182.113 170.984 215.607 170.984 255.469C170.984 302.714 209.283 341.014 256.528 341.014C272.393 341.014 287.249 336.695 299.985 329.17L391.879 421.058C355.012 451.229 307.884 469.331 256.528 469.331C138.416 469.331 42.6667 373.582 42.6667 255.469C42.6667 144.575 127.07 53.395 235.14 42.6641ZM422.128 390.807L330.24 298.906C334.257 292.103 337.36 284.696 339.378 276.854L469.333 276.858C465.063 319.865 448.052 359.124 422.128 390.807ZM469.333 234.081L339.373 234.067C331.633 204.02 307.978 180.364 277.931 172.624L277.938 42.6662C378.963 52.7078 459.302 133.053 469.333 234.081Z"/></svg>