<svg width="512" height="512" viewBox="0 0 512 512" fill="none" xmlns="http://www.w3.org/2000/svg"><path d="M426.667 426.666V469.333H85.3333V426.666H426.667ZM277.347 213.487V332.655L326.262 283.735L356.432 313.905L256.013 414.324L155.595 313.905L185.765 283.735L234.68 332.612V213.487H277.347ZM181.333 127.999V191.999H117.333V127.999H181.333ZM288 127.999V191.999H224V127.999H288ZM394.667 127.999V191.999H330.667V127.999H394.667ZM181.333 42.666V106.666H117.333V42.666H181.333ZM288 42.666V106.666H224V42.666H288ZM394.667 42.666V106.666H330.667V42.666H394.667Z"/></svg>