<svg width="512" height="512" viewBox="0 0 512 512" fill="none" xmlns="http://www.w3.org/2000/svg"><path d="M405.347 277.488V396.656L454.262 347.737L484.432 377.907L384.013 478.325L283.595 377.907L313.765 347.737L362.68 396.614V277.488H405.347ZM255.681 63.6875C361.719 63.6875 447.681 149.649 447.681 255.688V256.008L426.68 256.155L405.013 256.138C405.014 255.988 405.014 255.838 405.014 255.688C405.014 173.213 338.155 106.354 255.681 106.354C173.206 106.354 106.347 173.213 106.347 255.688C106.347 338.162 173.206 405.021 255.681 405.021C263.531 405.021 271.24 404.415 278.763 403.248L314.131 438.628C295.701 444.512 276.062 447.688 255.681 447.688C149.642 447.688 63.6805 361.726 63.6805 255.688C63.6805 149.649 149.642 63.6875 255.681 63.6875ZM277.333 149.334V244.481L331.733 280.961L308.267 316.374L234.667 267.521V149.334H277.333Z"/></svg>