<svg width="512" height="512" viewBox="0 0 512 512" fill="none" xmlns="http://www.w3.org/2000/svg"><path fill-rule="evenodd" clip-rule="evenodd" d="M277.333 247.167L368.917 155.583L399.083 185.75L256 328.833L112.917 185.75L143.083 155.583L234.667 247.167V42.6666H277.333V247.167ZM64 384H277.333V426.667H64V384ZM490.667 320V362.667H384V320H490.667ZM362.667 362.667V320H320V362.667H362.667ZM490.667 384V426.667H384V384H490.667ZM362.667 426.667V384H320V426.667H362.667ZM490.667 448V490.667H384V448H490.667ZM362.667 490.667V448H320V490.667H362.667Z"/></svg>