<svg width="512" height="512" viewBox="0 0 512 512" fill="none" xmlns="http://www.w3.org/2000/svg"><path fill-rule="evenodd" clip-rule="evenodd" d="M181.333 149.333C199.006 149.333 213.333 135.006 213.333 117.333C213.333 99.6602 199.006 85.3333 181.333 85.3333C163.66 85.3333 149.333 99.6602 149.333 117.333C149.333 135.006 163.66 149.333 181.333 149.333ZM330.667 149.333C348.34 149.333 362.667 135.006 362.667 117.333C362.667 99.6602 348.34 85.3333 330.667 85.3333C312.993 85.3333 298.667 99.6602 298.667 117.333C298.667 135.006 312.993 149.333 330.667 149.333ZM213.333 245.333C213.333 263.006 199.006 277.333 181.333 277.333C163.66 277.333 149.333 263.006 149.333 245.333C149.333 227.66 163.66 213.333 181.333 213.333C199.006 213.333 213.333 227.66 213.333 245.333ZM330.667 277.333C348.34 277.333 362.667 263.006 362.667 245.333C362.667 227.66 348.34 213.333 330.667 213.333C312.993 213.333 298.667 227.66 298.667 245.333C298.667 263.006 312.993 277.333 330.667 277.333ZM213.333 373.333C213.333 391.006 199.006 405.333 181.333 405.333C163.66 405.333 149.333 391.006 149.333 373.333C149.333 355.66 163.66 341.333 181.333 341.333C199.006 341.333 213.333 355.66 213.333 373.333ZM330.667 405.333C348.34 405.333 362.667 391.006 362.667 373.333C362.667 355.66 348.34 341.333 330.667 341.333C312.993 341.333 298.667 355.66 298.667 373.333C298.667 391.006 312.993 405.333 330.667 405.333Z"/></svg>