<svg width="512" height="512" viewBox="0 0 512 512" fill="none" xmlns="http://www.w3.org/2000/svg"><path d="M256 42.666C263.208 42.666 270.333 43.0235 277.357 43.7217L277.333 234.666L468.28 234.664C468.977 241.681 469.333 248.799 469.333 255.999C469.333 373.82 373.821 469.333 256 469.333C138.179 469.333 42.6667 373.82 42.6667 255.999C42.6667 138.179 138.179 42.666 256 42.666ZM85.3334 255.999C85.3334 350.256 161.743 426.666 256 426.666C343.025 426.666 414.837 361.531 425.344 277.353L234.667 277.333L234.668 86.653C150.479 97.1506 85.3334 168.967 85.3334 255.999Z"/></svg>