<svg width="512" height="512" viewBox="0 0 512 512" fill="none" xmlns="http://www.w3.org/2000/svg"><path fill-rule="evenodd" clip-rule="evenodd" d="M320 42.6641L426.667 149.331V469.331H234.667V426.664H384V167.037L302.293 85.3307H128V319.997H85.3333V42.6641H320ZM114.325 413.523L121.472 381.352C125.397 363.752 139.947 350.504 157.845 348.264L158.891 348.136C186.517 344.68 209.984 368.147 206.528 395.773L206.4 396.819C204.16 414.717 190.912 429.267 173.312 433.192L141.141 440.339L106.667 447.997L114.325 413.523ZM144.235 410.429L167.957 405.16C173.909 403.837 178.389 398.909 179.136 392.872L179.328 391.421C180.48 382.099 172.565 374.184 163.221 375.336L161.792 375.528C155.755 376.275 150.827 380.755 149.504 386.707L144.235 410.429ZM234.667 362.664L222.165 350.163L204.501 332.499L192 319.997L222.165 289.832L309.333 202.664C321.109 190.888 340.224 190.888 352 202.664C363.776 214.44 363.776 233.555 352 245.331L234.667 362.664Z"/></svg>