<svg width="512" height="512" viewBox="0 0 512 512" fill="none" xmlns="http://www.w3.org/2000/svg"><path d="M469.333 255.999C469.333 338.474 373.821 405.333 256 405.333C138.179 405.333 42.6667 338.474 42.6667 255.999C42.6667 173.525 138.179 106.666 256 106.666C263.206 106.666 270.329 106.916 277.352 107.405L277.333 234.666L467.175 234.674C468.597 241.639 469.333 248.759 469.333 255.999ZM81.4546 255.999C81.4546 309.831 156.933 362.666 256 362.666C341.869 362.666 410.017 322.97 426.65 277.337L234.667 277.333L234.677 150.159C146.304 157.061 81.4546 206.102 81.4546 255.999Z"/></svg>