<svg width="512" height="512" viewBox="0 0 512 512" fill="none" xmlns="http://www.w3.org/2000/svg"><path fill-rule="evenodd" clip-rule="evenodd" d="M42.6666 64V362.667H213.737C213.47 359.146 213.333 355.589 213.333 352C213.333 340.986 214.617 330.272 217.044 320H85.3333V128L234.667 257.013L384 128V217.044C399.368 220.674 413.748 226.861 426.667 235.132V64H42.6666ZM346.667 106.667L234.667 202.667L122.667 106.667H346.667ZM408.824 435.489L413.277 460.19C394.746 466.286 375.856 469.333 356.607 469.333C321.182 469.333 292.361 459.014 270.143 438.376C246.492 416.561 234.667 387.689 234.667 351.759C234.667 317.861 245.878 290.005 268.3 268.19C291.439 245.841 320.772 234.667 356.3 234.667C388.449 234.667 415.018 243.328 436.007 260.652C446.45 269.313 454.59 279.953 460.426 292.571C466.364 305.617 469.333 320 469.333 335.719C469.333 360.635 462.422 380.525 448.6 395.388C436.212 408.648 422.236 415.278 406.674 415.278C390.087 415.278 380.975 407.739 379.337 392.662C369.098 407.739 355.276 415.278 337.871 415.278C323.844 415.278 312.735 411.215 304.544 403.088C295.637 394.319 291.183 382.289 291.183 366.997C291.183 356.839 293.205 346.867 297.25 337.083C301.294 327.298 306.899 318.824 314.066 311.659C327.684 298.079 345.191 291.288 366.59 291.288C382.767 291.288 397.868 293.908 411.895 299.148L401.606 365.875C400.582 372.398 400.07 377.156 400.07 380.15C400.07 387.529 403.193 391.218 409.438 391.218C417.629 391.218 424.949 386.246 431.4 376.301C439.283 364.217 443.225 349.888 443.225 333.313C443.225 310.536 435.546 292.785 420.188 280.06C403.193 266.052 382.101 259.048 356.914 259.048C337.461 259.048 319.749 263.86 303.777 273.484C288.726 282.573 277.412 294.871 269.836 310.376C263.795 322.994 260.775 337.003 260.775 352.401C260.775 381.594 270.911 404.745 291.183 421.855C308.998 436.932 331.625 444.471 359.065 444.471C374.729 444.471 391.316 441.477 408.824 435.489ZM379.797 315.83C374.576 314.332 370.327 313.584 367.051 313.584C361.215 313.584 355.43 315.108 349.696 318.155C343.963 321.203 339.048 325.4 334.953 330.747C326.557 341.547 322.359 353.631 322.359 366.997C322.359 374.483 324.202 380.391 327.888 384.722C331.574 389.053 336.591 391.218 342.939 391.218C352.154 391.218 359.781 387.261 365.822 379.348C368.996 375.285 371.504 367.425 373.347 355.769L379.797 315.83Z"/></svg>