<svg width="512" height="512" viewBox="0 0 512 512" fill="none" xmlns="http://www.w3.org/2000/svg"><path d="M320 405.335V469.335H277.333V405.335H320ZM373.333 277.335C426.353 277.335 469.333 320.315 469.333 373.335C469.333 426.354 426.353 469.335 373.333 469.335H341.333V405.335H373.333C391.006 405.335 405.333 391.008 405.333 373.335C405.333 355.662 391.006 341.335 373.333 341.335H341.333V277.335H373.333ZM128 42.668V149.335H170.667V42.668H213.333V149.335H469.333V192.001H213.333V469.335H170.667V192.001H128V469.335H85.3334V192.001H42.6667V149.335H85.3334V42.668H128ZM320 277.335V341.335H277.333V277.335H320Z"/></svg>