<svg width="512" height="512" viewBox="0 0 512 512" fill="none" xmlns="http://www.w3.org/2000/svg"><path fill-rule="evenodd" clip-rule="evenodd" d="M106.667 106.667H192V149.333H234.667V106.667H448V64H64V106.667V448H106.667L106.667 234.667H149.333V192H106.667V106.667ZM192 192H234.667V234.667H192V192ZM234.667 277.333H192V320H234.667V277.333ZM192 362.667H234.667V405.333H192V362.667ZM320 192H277.333V234.667H320V192ZM362.667 192H405.333V234.667H362.667V192ZM418.211 307.123L403.126 322.208L384.003 303.085V362.667H443.586L424.461 343.542L439.546 328.457L484.422 373.333L439.546 418.208L424.461 403.123L443.585 384H384.003V443.584L403.128 424.459L418.213 439.543L373.337 484.419L328.461 439.543L343.546 424.459L362.669 443.582V384H303.086L322.211 403.125L307.126 418.21L262.25 373.334L307.126 328.458L322.211 343.543L303.087 362.667H362.669V303.083L343.544 322.208L328.459 307.123L373.335 262.247L418.211 307.123Z"/></svg>