<svg width="512" height="512" viewBox="0 0 512 512" fill="none" xmlns="http://www.w3.org/2000/svg"><path fill-rule="evenodd" clip-rule="evenodd" d="M448 448H64V64H448V448ZM106.667 405.333H405.333V106.667H106.667V405.333ZM192 320V362.667H149.333V320H192ZM277.333 320V362.667H234.667V320H277.333ZM362.667 320V362.667H320V320H362.667ZM192 234.667V277.333H149.333V234.667H192ZM277.333 234.667V277.333H234.667V234.667H277.333ZM362.667 234.667V277.333H320V234.667H362.667ZM192 149.333V192H149.333V149.333H192ZM277.333 149.333V192H234.667V149.333H277.333ZM362.667 149.333V192H320V149.333H362.667Z"/></svg>