<svg width="512" height="512" viewBox="0 0 512 512" fill="none" xmlns="http://www.w3.org/2000/svg"><path fill-rule="evenodd" clip-rule="evenodd" d="M85.3333 257.171C85.3333 162.915 161.743 86.5046 256 86.5046C350.257 86.5046 426.667 162.915 426.667 257.171C426.667 351.428 350.257 427.838 256 427.838C161.743 427.838 85.3333 351.428 85.3333 257.171ZM256 43.8379C138.179 43.8379 42.6667 139.35 42.6667 257.171C42.6667 374.991 138.179 470.505 256 470.505C373.82 470.505 469.333 374.991 469.333 257.171C469.333 139.35 373.82 43.8379 256 43.8379ZM181.333 213.333C199.006 213.333 213.333 199.006 213.333 181.333C213.333 163.66 199.006 149.333 181.333 149.333C163.66 149.333 149.333 163.66 149.333 181.333C149.333 199.006 163.66 213.333 181.333 213.333ZM362.667 181.333C362.667 199.006 348.34 213.333 330.667 213.333C312.994 213.333 298.667 199.006 298.667 181.333C298.667 163.66 312.994 149.333 330.667 149.333C348.34 149.333 362.667 163.66 362.667 181.333ZM197.111 289.628C208.076 309.185 230.351 322.502 256 322.502C281.649 322.502 303.924 309.185 314.889 289.628C317.064 285.751 318.788 281.634 320.002 277.333L362.667 287.344C360.634 294.546 357.748 301.433 354.116 307.91C335.914 340.371 298.832 362.666 256 362.666C213.168 362.666 176.086 340.371 157.884 307.91C154.252 301.433 151.366 294.546 149.333 287.344L191.998 277.333C193.212 281.634 194.936 285.751 197.111 289.628Z"/></svg>