<svg width="512" height="512" viewBox="0 0 512 512" fill="none" xmlns="http://www.w3.org/2000/svg"><path fill-rule="evenodd" clip-rule="evenodd" d="M469.333 257.171C469.333 374.991 373.82 470.505 256 470.505C138.179 470.505 42.6667 374.991 42.6667 257.171C42.6667 139.35 138.179 43.8379 256 43.8379C373.82 43.8379 469.333 139.35 469.333 257.171ZM181.333 213.333C199.006 213.333 213.333 199.006 213.333 181.333C213.333 163.66 199.006 149.333 181.333 149.333C163.66 149.333 149.333 163.66 149.333 181.333C149.333 199.006 163.66 213.333 181.333 213.333ZM256 322.502C230.351 322.502 208.076 309.185 197.111 289.628C194.936 285.751 193.212 281.634 191.998 277.333L149.333 287.344C151.366 294.546 154.252 301.433 157.884 307.91C176.086 340.371 213.168 362.666 256 362.666C298.832 362.666 335.914 340.371 354.116 307.91C357.748 301.433 360.634 294.546 362.667 287.344L320.002 277.333C318.788 281.634 317.064 285.751 314.889 289.628C303.924 309.185 281.649 322.502 256 322.502ZM330.667 213.333C348.34 213.333 362.667 199.006 362.667 181.333C362.667 163.66 348.34 149.333 330.667 149.333C312.994 149.333 298.667 163.66 298.667 181.333C298.667 199.006 312.994 213.333 330.667 213.333Z"/></svg>