<svg width="512" height="512" viewBox="0 0 512 512" fill="none" xmlns="http://www.w3.org/2000/svg"><path fill-rule="evenodd" clip-rule="evenodd" d="M256 86.5046C161.743 86.5046 85.3333 162.915 85.3333 257.171C85.3333 351.428 161.743 427.838 256 427.838C350.257 427.838 426.667 351.428 426.667 257.171C426.667 162.915 350.257 86.5046 256 86.5046ZM42.6667 257.171C42.6667 139.35 138.179 43.8379 256 43.8379C373.82 43.8379 469.333 139.35 469.333 257.171C469.333 374.991 373.82 470.505 256 470.505C138.179 470.505 42.6667 374.991 42.6667 257.171ZM213.333 203.838C213.333 221.51 199.007 235.838 181.333 235.838C163.66 235.838 149.333 221.51 149.333 203.838C149.333 186.165 163.66 171.838 181.333 171.838C199.007 171.838 213.333 186.165 213.333 203.838ZM330.667 235.838C348.339 235.838 362.667 221.51 362.667 203.838C362.667 186.165 348.339 171.838 330.667 171.838C312.994 171.838 298.667 186.165 298.667 203.838C298.667 221.51 312.994 235.838 330.667 235.838ZM198.964 354.922C209.584 334.146 231.157 319.999 255.998 319.999C280.838 319.999 302.411 334.146 313.031 354.922C315.137 359.041 316.807 363.414 317.983 367.984L359.303 357.349C357.334 349.698 354.539 342.381 351.022 335.501C333.393 301.017 297.48 277.333 255.998 277.333C214.516 277.333 178.602 301.017 160.974 335.501C157.456 342.381 154.662 349.698 152.693 357.349L194.013 367.984C195.189 363.414 196.858 359.041 198.964 354.922Z"/></svg>