<svg width="512" height="512" viewBox="0 0 512 512" fill="none" xmlns="http://www.w3.org/2000/svg"><path fill-rule="evenodd" clip-rule="evenodd" d="M82.951 352.352C70.7916 326.326 63.9998 297.289 63.9998 266.667C63.9998 154.737 154.737 63.9998 266.667 63.9998C297.289 63.9998 326.326 70.7916 352.352 82.951C319.848 57.701 279.013 42.6665 234.667 42.6665C128.628 42.6665 42.6665 128.628 42.6665 234.667C42.6665 279.013 57.701 319.848 82.951 352.352ZM469.333 277.333C469.333 383.372 383.372 469.333 277.333 469.333C171.294 469.333 85.3332 383.372 85.3332 277.333C85.3332 171.294 171.294 85.3332 277.333 85.3332C383.372 85.3332 469.333 171.294 469.333 277.333ZM326.25 198.25L356.415 228.415L307.498 277.333L356.415 326.25L326.25 356.415L277.333 307.498L228.415 356.415L198.25 326.25L247.167 277.333L198.25 228.415L228.415 198.25L277.333 247.167L326.25 198.25Z"/></svg>