<svg width="512" height="512" viewBox="0 0 512 512" fill="none" xmlns="http://www.w3.org/2000/svg"><path fill-rule="evenodd" clip-rule="evenodd" d="M370.905 42.6665L341.333 74.7137L390.492 128H309.333L304.244 128.108C241.803 130.773 192 182.237 192 245.333V362.667H234.667V250.039V245.333C234.667 202.667 271.841 170.667 309.333 170.667H390.492L341.333 223.953L370.905 256L469.333 149.333L370.905 42.6665ZM64 63.9998L64.0001 448H256L207.181 405.333H106.667V106.667H234.667V63.9998H64ZM475.577 322.337L441.759 296.323L348.929 416.978L280.716 357.275L252.62 389.385L355.055 479.016L475.577 322.337Z"/></svg>