<svg width="512" height="512" viewBox="0 0 512 512" fill="none" xmlns="http://www.w3.org/2000/svg"><path fill-rule="evenodd" clip-rule="evenodd" d="M300.907 90.2847L230.498 160.694L215.413 145.609L185.244 175.779L215.413 205.948L64.564 356.798V447.307H155.074L305.922 296.459L336.094 326.628L366.263 296.459L351.179 281.374L421.587 210.964C421.587 210.964 476.339 156.211 416 95.8713C355.661 35.5314 300.907 90.2847 300.907 90.2847ZM275.752 266.289L245.583 236.117L107.231 374.471V404.64H137.4L275.752 266.289ZM321.009 251.204L391.179 181.033C391.283 180.918 391.501 180.677 391.808 180.318C392.527 179.476 393.681 178.047 395.004 176.129C397.756 172.14 400.648 166.884 402.327 161.08C403.964 155.434 404.222 150.129 402.963 145.015C401.783 140.225 398.603 132.779 388.847 123.024C379.093 113.269 371.646 110.087 366.856 108.908C361.743 107.65 356.437 107.908 350.79 109.543C344.988 111.223 339.731 114.116 335.742 116.867C333.824 118.189 332.397 119.344 331.554 120.063C331.194 120.37 330.955 120.587 330.839 120.693L260.668 190.863L321.009 251.204Z"/></svg>