<svg xmlns="http://www.w3.org/2000/svg" width="512" height="512" viewBox="0 0 512 512"><path fill-rule="evenodd" d="M47.0849493,2.84217094e-14 L185.740632,138.655563 C194.095501,134.657276 203.45297,132.418278 213.333333,132.418278 C248.679253,132.418278 277.333333,161.072358 277.333333,196.418278 C277.333333,206.299034 275.094157,215.656855 271.095572,224.011976 L409.751616,362.666662 L379.581717,392.836561 L320.374817,333.628896 C291.246618,353.329494 255.728838,367.084945 213.333333,367.084945 C64,367.084945 7.10542736e-15,196.418278 7.10542736e-15,196.418278 C7.10542736e-15,196.418278 22.862032,135.452859 73.1408088,86.3974274 L16.9150553,30.169894 L47.0849493,2.84217094e-14 Z M103.440016,116.694904 C74.7091717,144.512844 55.9626236,177.598744 46.7136,196.424891 C64.7370667,233.114811 119.071573,324.418278 213.333333,324.418278 C242.440012,324.418278 267.739844,315.712374 289.339919,302.595012 L240.926035,254.180993 C232.571166,258.17928 223.213696,260.418278 213.333333,260.418278 C177.987413,260.418278 149.333333,231.764198 149.333333,196.418278 C149.333333,186.537915 151.572331,177.180445 155.570618,168.825577 Z M213.333333,25.7516113 C362.666667,25.7516113 426.666667,196.418278 426.666667,196.418278 C426.666667,196.418278 412.428071,234.387867 381.712212,274.508373 L351.151213,243.941206 C364.581948,225.697449 374.142733,208.239347 379.954347,196.410385 C361.9296,159.721745 307.595093,68.418278 213.333333,68.418278 C201.495833,68.418278 190.287983,69.858232 179.702584,72.449263 L145.662385,38.4000762 C165.913597,30.494948 188.437631,25.7516113 213.333333,25.7516113 Z" transform="translate(42.667 59.582)"/></svg>