<svg width="512" height="512" viewBox="0 0 512 512" fill="none" xmlns="http://www.w3.org/2000/svg"><path d="M448 341.333V448H341.333V405.333H405.333V341.333H448ZM106.667 341.333V405.333H170.667V448H64V341.333H106.667ZM256 121.6C332.8 121.6 396.8 166.4 448 256C396.8 345.6 332.8 390.4 256 390.4C179.2 390.4 115.2 345.6 64 256C115.2 166.4 179.2 121.6 256 121.6ZM256 160C200.484 160 151.728 189.657 108.924 253.606L107.334 256L108.924 258.394C150.539 320.566 197.78 350.326 251.389 351.931L256 352C311.516 352 360.272 322.343 403.076 258.394L404.646 256L403.076 253.606C361.461 191.434 314.22 161.674 260.611 160.069L256 160ZM256 188.8C293.114 188.8 323.2 218.886 323.2 256C323.2 293.114 293.114 323.2 256 323.2C218.886 323.2 188.8 293.114 188.8 256C188.8 218.886 218.886 188.8 256 188.8ZM256 227.2C240.094 227.2 227.2 240.094 227.2 256C227.2 271.906 240.094 284.8 256 284.8C271.906 284.8 284.8 271.906 284.8 256C284.8 240.094 271.906 227.2 256 227.2ZM448 64V170.667H405.333V106.667H341.333V64H448ZM170.667 64V106.667H106.667V170.667H64V64H117.333H170.667Z"/></svg>