<svg width="512" height="512" viewBox="0 0 512 512" fill="none" xmlns="http://www.w3.org/2000/svg"><path fill-rule="evenodd" clip-rule="evenodd" d="M196.423 321.225C201.26 321.848 205.776 322.132 209.999 322.132C253.957 322.132 266.134 290.958 270.989 278.528L270.995 278.512C280.445 254.258 288.293 210.464 291.248 193.644C294.384 174.949 290.216 157.926 279.525 145.704C269.754 134.539 255.133 127.989 238.337 127.989H190.371C190.371 127.989 194.601 111.248 197.786 98.8416C208.304 57.8698 184.932 43.1836 151.649 44.9377L103.083 135.728L42.6659 169.591V294.397L196.423 321.225ZM232.475 366.488C227.844 361.194 224.437 354.998 222.318 348.157C246.399 346.403 263.778 336.795 275.857 324.449C288.296 311.737 293.967 297.2 296.562 290.547L296.723 290.133C307.107 263.484 315.341 217.735 318.402 200.289L318.452 200.117L318.664 198.856C319.066 196.458 319.378 194.06 319.599 191.669L469.335 217.794V342.601L408.918 376.464L360.351 467.254C327.068 469.008 303.697 454.322 314.214 413.35C317.399 400.944 321.63 384.203 321.63 384.203H273.664C256.868 384.203 242.246 377.653 232.475 366.488Z"/></svg>