<svg width="512" height="512" viewBox="0 0 512 512" fill="none" xmlns="http://www.w3.org/2000/svg"><path fill-rule="evenodd" clip-rule="evenodd" d="M224.815 85.3225C224.721 53.3015 187.337 42.666 149.333 42.666L96 139.733L42.6667 170.658V298.665L200.367 326.18C205.327 326.819 209.959 327.111 214.291 327.111C259.376 327.111 271.865 295.136 276.844 282.389C286.537 257.512 294.592 212.578 297.594 195.425L297.623 195.327C300.839 176.153 296.565 158.694 285.6 146.158C278.762 138.344 269.607 132.734 259.008 129.959C254.074 128.667 248.827 127.989 243.355 127.989H215.493C215.493 127.989 219.832 110.819 223.098 98.0947C224.277 93.5021 224.827 89.2513 224.815 85.3225ZM253.491 174.255C252.212 172.794 249.286 170.655 243.355 170.655H160.703C162.464 163.688 164.221 156.721 165.978 149.753L165.99 149.706L165.991 149.704C171.031 129.719 176.072 109.733 181.186 89.7664L173.365 87.5306L127.675 170.685L85.3333 195.237V262.797L206.662 283.966C209.559 284.308 212.09 284.443 214.291 284.443C220.407 284.443 223.947 283.384 225.824 282.593C227.689 281.807 228.997 280.828 230.113 279.687C232.867 276.87 234.674 273.077 237.095 266.881C244.916 246.809 252.322 206.607 255.566 188.068L255.661 187.528C256.897 179.168 254.556 175.476 253.491 174.255ZM226.401 365.842C221.966 360.771 218.625 354.895 216.432 348.425C233.423 348.108 247.309 344.028 258.516 337.75C259.798 339.212 262.724 341.344 268.646 341.344H296.508H351.298L337.871 394.477L337.862 394.515L337.824 394.664L337.68 395.234L337.141 397.363L335.286 404.681C333.964 409.89 332.317 416.367 330.815 422.233C332.715 422.963 335.287 423.755 338.636 424.468L378.607 351.721L384.326 341.314L394.599 335.357L426.668 316.761V249.202L312.935 229.358C315.378 217.355 317.253 206.833 318.401 200.291L318.452 200.119L318.663 198.858C319.313 194.983 319.728 191.11 319.901 187.262L469.334 213.335V341.342L416.001 372.267L362.668 469.334C324.664 469.334 287.28 458.698 287.186 426.677C287.174 422.749 287.724 418.498 288.903 413.905C292.17 401.18 296.508 384.011 296.508 384.011H268.646C263.174 384.011 257.927 383.333 252.993 382.041C242.394 379.266 233.24 373.656 226.401 365.842Z"/></svg>