<svg width="512" height="512" viewBox="0 0 512 512" fill="none" xmlns="http://www.w3.org/2000/svg"><path fill-rule="evenodd" clip-rule="evenodd" d="M192 405.333V448H149.333V405.333H192ZM106.667 405.333V448H64V405.333H106.667ZM277.333 405.333V448H234.667V405.333H277.333ZM362.667 405.333V448H320V405.333H362.667ZM448 405.333V448H405.333V405.333H448ZM469.333 128V384H42.6666V128H469.333ZM426.667 170.667H85.3333V341.333H426.667V170.667ZM262.207 191.199L282.813 196.721L249.684 320.359L229.078 314.838L262.207 191.199ZM198.565 196.01L213.617 211.071L168.32 256.367L213.595 301.631L198.565 316.689L138.225 256.349L198.565 196.01ZM313.816 195.969L374.155 256.308L313.816 316.648L298.785 301.59L344.06 256.326L298.763 211.03L313.816 195.969ZM192 64V106.667H149.333V64H192ZM106.667 64V106.667H64V64H106.667ZM277.333 64V106.667H234.667V64H277.333ZM362.667 64V106.667H320V64H362.667ZM448 64V106.667H405.333V64H448Z"/></svg>