<svg xmlns="http://www.w3.org/2000/svg" width="512" height="512" viewBox="0 0 512 512"><path d="M426.666667,1.42108547e-14 L426.666667,341.333333 L3.55271368e-14,341.333333 L3.55271368e-14,1.42108547e-14 L426.666667,1.42108547e-14 Z M384,42.6666667 L42.6666667,42.6666667 L42.6666667,298.666667 L384,298.666667 L384,42.6666667 Z M240.915055,208.915055 L271.084945,239.084945 L228.418278,281.751611 L213.333333,296.836556 L155.581722,239.084945 L185.751611,208.915055 L213.333333,236.48 L240.915055,208.915055 Z M102.248389,112.915055 L132.418278,143.084945 L104.853333,170.666667 L132.418278,198.248389 L102.248389,228.418278 L44.4967773,170.666667 L59.581722,155.581722 L102.248389,112.915055 Z M324.418278,112.915055 L382.169889,170.666667 L367.084945,185.751611 L324.418278,228.418278 L294.248389,198.248389 L321.813333,170.666667 L294.248389,143.084945 L324.418278,112.915055 Z M213.333333,44.4967773 L228.418278,59.581722 L271.084945,102.248389 L240.915055,132.418278 L213.333333,104.853333 L185.751611,132.418278 L155.581722,102.248389 L213.333333,44.4967773 Z" transform="translate(42.667 85.333)"/></svg>