<svg width="24" height="24" viewBox="0 0 24 24" fill="none" xmlns="http://www.w3.org/2000/svg"><path d="M16.75 19.75H15.5205C16.0483 20.2159 16.7401 20.5 17.5 20.5C18.8976 20.5 20.069 19.5435 20.4023 18.25H21.9365C21.5794 20.3782 19.7297 22 17.5 22C16.3467 22 15.296 21.565 14.5 20.8516V22H13V18.25H16.75V19.75ZM15 10H13V5H5V19H12V21H3V3H15V10ZM13.6553 12.249L9.03027 18.0303L6 15.5615L7.24902 14L8.7168 15.2197L12.0928 11L13.6553 12.249ZM22.0498 16.75H18.2998V15.25H19.4795C18.9517 14.7841 18.2599 14.5 17.5 14.5C16.1024 14.5 14.931 15.4565 14.5977 16.75H13.0635C13.4206 14.6218 15.2703 13 17.5 13C18.677 13 19.7482 13.4517 20.5498 14.1914V13H22.0498V16.75ZM11 8H7V7H11V8Z"/></svg>