<svg width="24" height="24" viewBox="0 0 24 24" fill="none" xmlns="http://www.w3.org/2000/svg"><path d="M16.4004 15.6523L15.3398 16.7129L14.5 15.8721V17.5C14.5 19.1569 15.8431 20.5 17.5 20.5C19.1569 20.5 20.5 19.1569 20.5 17.5C20.5 16.4969 20.0061 15.6111 19.25 15.0664V13.3525C20.8661 14.0353 22 15.6354 22 17.5C22 19.9853 19.9853 22 17.5 22C15.0147 22 13 19.9853 13 17.5V15.8701L12.1582 16.7119L11.0967 15.6514L13.749 13L16.4004 15.6523ZM15 12H13V5H5V19H12.208C12.418 19.7424 12.7795 20.421 13.2578 21H3V3H15V12ZM18.25 17H16.75V12H18.25V17ZM11 8H7V7H11V8Z"/></svg>