<svg width="24" height="24" viewBox="0 0 24 24" fill="none" xmlns="http://www.w3.org/2000/svg"><path d="M14.168 17.7822L14.7559 17.1943L15.4609 17.9004L14.874 18.4883L15.9326 19.5469L16.5205 18.96L17.2256 19.665L16.6387 20.2529L17.5205 21.1348L16.8135 21.8418L16.4609 21.4893C15.6057 22.3445 14.2857 22.4523 13.3164 21.8105L12.4668 22.6592L11.7617 21.9541L12.6104 21.1045C12.0088 20.1958 12.0662 18.9792 12.7803 18.126L12.9316 17.96L12.5781 17.6064L13.2861 16.8994L14.168 17.7822ZM21.5889 21.5742L20.8818 22.2812L12.3965 13.7959L13.1035 13.0889L21.5889 21.5742ZM15 12H13V5H5V19H11V21H3V3H15V12ZM21.6592 13.4668L20.5596 14.5664C21.2014 15.5357 21.0945 16.8557 20.2393 17.7109L20.5928 18.0645L19.8848 18.7715L19.5322 18.418L15.6504 14.5361L16.3574 13.8291L16.71 14.1816C17.5652 13.3265 18.8852 13.2197 19.8545 13.8613L20.9541 12.7617L21.6592 13.4668ZM11 8H7V7H11V8Z"/></svg>