<svg width="24" height="24" viewBox="0 0 24 24" fill="none" xmlns="http://www.w3.org/2000/svg"><path d="M16.3174 21.2744L14.9033 22.6885L14.1963 21.9814L15.6104 20.5674L16.3174 21.2744ZM14.9033 19.8604L12.7822 21.9814L12.0752 21.2744L14.1963 19.1533L14.9033 19.8604ZM22.0195 12.0205C21.7972 15.043 21.0282 17.1408 19.6729 18.4941C19.436 18.7306 19.2055 18.9475 18.9668 19.1455L19.1455 20.5674L17.7314 21.9814L16.1406 19.668L14.375 17.9053L12.0752 16.3252L13.4893 14.9111L14.8994 15.0762C15.0983 14.8408 15.3173 14.614 15.5527 14.3789C16.9081 13.0257 18.9928 12.2425 22.0195 12.0205ZM15 13.5264C14.9486 13.5747 14.8956 13.6211 14.8457 13.6709C14.7308 13.7857 14.6152 13.902 14.502 14.0215L13.6055 13.918L13.124 13.8613L13 13.9854V5H5V19H10.1064L9.95312 19.1533L11.3682 20.5674L10.9355 21H3V3H15V13.5264ZM13.4893 18.4463L12.0752 19.8604L11.3682 19.1533L12.7822 17.7393L13.4893 18.4463ZM18.0762 15.1709C17.6405 15.171 17.2871 15.524 17.2871 15.959C17.2873 16.3936 17.6399 16.7458 18.0752 16.7461C18.5109 16.7461 18.8652 16.393 18.8652 15.958C18.8649 15.5234 18.5114 15.1712 18.0762 15.1709ZM11 8H7V7H11V8Z"/></svg>