<svg width="24" height="24" viewBox="0 0 24 24" fill="none" xmlns="http://www.w3.org/2000/svg"><path d="M11.8115 3C11.2589 3.57562 10.811 4.25209 10.499 5H5V19H13V12.9746C13.6058 13.3627 14.2792 13.6529 15 13.8232V21H3V3H11.8115ZM17 10V13H16V10H17ZM15.085 9.62012L14.0254 10.6797L13.3203 9.97461L14.3799 8.91504L15.085 9.62012ZM19.6797 9.97461L18.9746 10.6797L17.915 9.62012L18.6201 8.91504L19.6797 9.97461ZM16.5 6C17.33 6 18 6.67 18 7.5C18 8.33 17.33 9 16.5 9C15.67 9 15 8.33 15 7.5C15 6.67 15.67 6 16.5 6ZM14 7V8H11V7H14ZM22 7V8H19V7H22ZM15.085 5.37988L14.3799 6.08496L13.3203 5.02539L14.0254 4.32031L15.085 5.37988ZM19.6797 5.02539L18.6201 6.08496L17.915 5.37988L18.9746 4.32031L19.6797 5.02539ZM17 2V5H16V2H17Z"/></svg>