<svg width="24" height="24" viewBox="0 0 24 24" fill="none" xmlns="http://www.w3.org/2000/svg"><path d="M17.5 13C19.9853 13 22 15.0147 22 17.5C22 19.9853 19.9853 22 17.5 22C15.0147 22 13 19.9853 13 17.5C13 15.0147 15.0147 13 17.5 13ZM17.6162 19.5322C17.186 19.5323 16.8371 19.8804 16.8369 20.3105C16.8369 20.7408 17.1859 21.0898 17.6162 21.0898C18.0465 21.0898 18.3955 20.7409 18.3955 20.3105C18.3953 19.8804 18.0464 19.5322 17.6162 19.5322ZM15 12.6006C14.1999 13.0097 13.5137 13.609 13 14.3389V5H5V19H12.208C12.418 19.7424 12.7795 20.421 13.2578 21H3V3H15V12.6006ZM17.5127 14C16.906 14 16.3959 14.1655 15.9834 14.4951C15.4945 14.89 15.25 15.5584 15.25 16.2451H16.5752V16.2363C16.5752 15.942 16.6371 15.7001 16.7607 15.5117C16.9315 15.2584 17.2089 15.1319 17.5918 15.1318C17.8275 15.1318 18.0287 15.1929 18.1934 15.3164C18.3995 15.4876 18.5029 15.7471 18.5029 16.0947C18.5029 16.3128 18.4487 16.5068 18.3428 16.6777C18.2544 16.8309 18.1136 16.9815 17.9189 17.1289C17.5066 17.4117 17.2378 17.6917 17.1143 17.9688C17.0083 18.1986 16.9551 18.564 16.9551 19.0645H18.2021C18.2021 18.7345 18.2462 18.4873 18.335 18.3223C18.4055 18.1867 18.5525 18.042 18.7764 17.8887C19.1654 17.5998 19.4423 17.3315 19.6074 17.084C19.8075 16.7896 19.9082 16.4446 19.9082 16.0498C19.9081 15.2318 19.6073 14.7182 18.9092 14.3096C18.5088 14.1035 18.0431 14.0001 17.5127 14ZM11 8H7V7H11V8Z"/></svg>