<svg width="24" height="24" viewBox="0 0 24 24" fill="none" xmlns="http://www.w3.org/2000/svg"><path d="M7 21H6V19H7V21Z"/><path d="M11 21H9V20H11V21Z"/><path d="M15 21H13V20H15V21Z"/><path d="M18 21H17V19H18V21Z"/><path d="M7 17H6V15H7V17Z"/><path d="M18 17H17V15H18V17Z"/><path d="M7 13H6V11H7V13Z"/><path d="M18 13H17V11H18V13Z"/><path d="M7 9H6V7H7V9Z"/><path d="M18 9H17V7H18V9Z"/><path d="M14 8H10V7H14V8Z"/><path d="M7 5H6V3H7V5Z"/><path d="M18 5H17V3H18V5Z"/><path d="M11 4H9V3H11V4Z"/><path d="M15 4H13V3H15V4Z"/></svg>