<svg width="24" height="24" viewBox="0 0 24 24" fill="none" xmlns="http://www.w3.org/2000/svg"><path d="M16.0479 14.875C15.125 15.3866 14.5 16.3701 14.5 17.5C14.5 19.1569 15.8431 20.5 17.5 20.5C18.4023 20.5 19.2088 20.0992 19.7588 19.4688C20.4969 18.9647 21.0529 18.0926 21.1865 16.8066L21.8008 16.1748C21.9297 16.5938 22 17.0387 22 17.5C22 19.9853 19.9853 22 17.5 22C15.0147 22 13 19.9853 13 17.5C13 15.917 13.818 14.5258 15.0537 13.7236L16.0479 14.875ZM15 12.6006C14.1999 13.0097 13.5137 13.609 13 14.3389V5H5V19H12.208C12.418 19.7424 12.7795 20.421 13.2578 21H3V3H15V12.6006ZM22.5303 13.9697L21.4697 15.0303L20.25 13.8105V16.75C20.25 17.9926 19.2426 19 18 19H17V17.5H18C18.4142 17.5 18.75 17.1642 18.75 16.75V13.8105L17.5303 15.0303L16.4697 13.9697L19.5 10.9395L22.5303 13.9697ZM11 8H7V7H11V8Z"/></svg>