<svg width="512" height="512" viewBox="0 0 512 512" fill="none" xmlns="http://www.w3.org/2000/svg"><path d="M355.745 255.997L490.667 390.919L390.922 490.664L256 355.742V255.997H355.745ZM256 42.6641C312.58 42.6641 366.842 65.1402 406.849 105.148C446.857 145.156 469.333 199.418 469.333 255.997C469.333 280.975 465.041 304.951 457.153 327.226L423.706 293.78C424.537 290.183 425.254 286.544 425.855 282.87L426.667 277.331H407.232L364.581 234.664H425.173C417.236 171.036 374.303 117.226 314.027 95.3574C341.001 134.047 357.491 179.007 361.968 225.858L362.667 234.664H320C315.944 181.338 293.293 131.129 256 92.7974C220.482 129.304 198.246 176.583 192.706 227.068L192 234.664H234.667V277.331H192C195.863 328.117 216.592 376.077 250.772 413.642L256 419.197C261.51 413.534 266.701 407.611 271.559 401.457L327.229 457.15C304.953 465.038 280.978 469.331 256 469.331C138.179 469.331 42.6667 373.818 42.6667 255.997C42.6667 138.177 138.179 42.6641 256 42.6641ZM149.333 277.331H86.8267C94.7644 340.959 137.697 394.768 197.973 416.637C169.313 375.53 152.488 327.343 149.333 277.331ZM320 298.664C308.218 298.664 298.667 308.215 298.667 319.997C298.667 331.779 308.218 341.331 320 341.331C331.782 341.331 341.333 331.779 341.333 319.997C341.333 308.215 331.782 298.664 320 298.664ZM197.675 95.7627L193.141 97.4355C136.8 119.164 96.1127 169.106 86.2195 228.676L85.3334 234.664H149.333C152.303 187.593 167.381 142.14 193.039 102.684L197.675 95.7627Z"/></svg>