<svg width="512" height="512" viewBox="0 0 512 512" fill="none" xmlns="http://www.w3.org/2000/svg"><path fill-rule="evenodd" clip-rule="evenodd" d="M149.333 234.667V64H64V426.667H268.794C262.145 413.661 257.853 399.251 256.478 383.999H149.333H106.667V301.516L150.071 278.008L234.667 232.191V301.836L362.667 231.701V256.478C366.18 256.162 369.738 256 373.333 256C384.427 256 395.161 257.54 405.333 260.417V164.548L277.333 234.667V165.333L149.333 234.667ZM343.408 441.761C336.602 426.691 332.033 406.519 330.927 384H299.423C303.134 409.948 320.186 431.592 343.408 441.761ZM362.658 432.551C357.346 420.599 353.363 403.691 352.289 384H394.378C393.303 403.691 389.321 420.599 384.009 432.551C380.872 439.608 377.69 443.998 375.234 446.335C374.361 447.167 373.729 447.61 373.333 447.838C372.938 447.61 372.306 447.167 371.432 446.335C368.977 443.998 365.794 439.608 362.658 432.551ZM362.658 314.115C357.346 326.067 353.363 342.976 352.289 362.667H394.378C393.303 342.976 389.321 326.067 384.009 314.115C380.872 307.058 377.69 302.668 375.234 300.331C374.361 299.5 373.729 299.057 373.333 298.828C372.938 299.057 372.306 299.5 371.432 300.331C368.977 302.668 365.794 307.058 362.658 314.115ZM403.259 441.761C410.065 426.691 414.633 406.519 415.74 384H447.244C443.532 409.948 426.48 431.592 403.259 441.761ZM415.74 362.667H447.244C443.532 336.719 426.48 315.075 403.259 304.905C410.065 319.975 414.633 340.147 415.74 362.667ZM299.423 362.667H330.927C332.033 340.147 336.602 319.975 343.408 304.905C320.186 315.075 303.134 336.719 299.423 362.667ZM373.333 469.333C426.353 469.333 469.333 426.353 469.333 373.333C469.333 320.314 426.353 277.333 373.333 277.333C320.314 277.333 277.333 320.314 277.333 373.333C277.333 426.353 320.314 469.333 373.333 469.333Z"/></svg>