<svg width="512" height="512" viewBox="0 0 512 512" fill="none" xmlns="http://www.w3.org/2000/svg"><path fill-rule="evenodd" clip-rule="evenodd" d="M42.6668 426.668H234.667V405.831L256.497 384.001H213.333V341.334H298.667V341.831L341.83 298.668H341.333V256.001H384.497L409.333 231.165L426.667 247.473L469.333 287.616V85.3345H42.6668V426.668ZM426.667 247.473L426.667 213.334H341.333V170.668H426.667V247.473ZM85.3335 170.668H170.667V213.334H85.3335L85.3335 170.668ZM213.333 298.668V256.001H298.667V298.668H213.333ZM170.667 298.668V256.001H85.3335V298.668H170.667ZM85.3335 341.334H170.667V384.001H85.3335L85.3335 341.334ZM213.333 213.334H298.667V170.668H213.333V213.334ZM409.333 261.334L464 316L429.543 350.458L374.876 295.791L409.333 261.334ZM359.791 310.876L414.458 365.543L310.667 469.334H256V414.667L359.791 310.876Z"/></svg>