<svg width="512" height="512" viewBox="0 0 512 512" fill="none" xmlns="http://www.w3.org/2000/svg"><path fill-rule="evenodd" clip-rule="evenodd" d="M106.667 288.001V293.335C106.667 336.616 118.095 374.355 129.845 401.597C133.845 410.872 137.825 418.797 141.291 425.152L341.105 426.519C345.939 419.419 351.707 410.402 357.447 400.16C372.47 373.353 384 343.913 384 320.001L384 234.668H375.667C368.487 234.668 362.667 240.488 362.667 247.668V320.001L320 320.001V288.001V277.404V256.001V117.335C320 111.444 315.224 106.668 309.333 106.668C303.442 106.668 298.667 111.444 298.667 117.335V256.001H256V96.0013C256 90.1103 251.224 85.3346 245.333 85.3346C239.442 85.3346 234.667 90.1103 234.667 96.0013V256.001H192V117.335C192 111.444 187.224 106.668 181.333 106.668C175.442 106.668 170.667 111.444 170.667 117.335V256.001V266.668V277.335H128V160.001C128 154.11 123.224 149.335 117.333 149.335C111.442 149.335 106.667 154.11 106.667 160.001V277.335V288.001ZM117.333 106.668C87.8781 106.668 64 130.546 64 160.001V293.335C64 394.668 117.333 467.656 117.333 467.656L362.667 469.335C362.667 469.335 426.667 390.271 426.667 320.001V170.668C419.361 170.668 412.226 171.402 405.333 172.802C397.913 174.308 390.773 176.584 384 179.544C376.384 182.871 369.232 187.062 362.667 191.993V117.335C362.667 87.8795 338.788 64.0013 309.333 64.0013C302.664 64.0013 296.281 65.2254 290.396 67.4612C280.938 52.5587 264.291 42.668 245.333 42.668C226.376 42.668 209.729 52.5587 200.271 67.4612C194.386 65.2254 188.003 64.0013 181.333 64.0013C156.56 64.0013 135.732 80.8917 129.736 103.785C129.382 105.14 129.079 106.516 128.83 107.91C127.462 107.61 126.074 107.362 124.669 107.168C122.271 106.838 119.822 106.668 117.333 106.668Z"/></svg>