<svg width="512" height="512" viewBox="0 0 512 512" fill="none" xmlns="http://www.w3.org/2000/svg"><path d="M341.333 321.173H320L319.856 86.5065C319.856 74.7244 310.305 65.1732 298.523 65.1732C287.583 65.1732 278.566 73.4087 277.333 84.0186L277.19 86.5065L277.333 257.173H256V65.1732C256 53.3911 246.449 43.8398 234.667 43.8398C223.726 43.8398 214.709 52.0754 213.477 62.6853L213.333 65.1732V257.173H192V86.5065C192 74.7244 182.449 65.1732 170.667 65.1732C159.726 65.1732 150.709 73.4087 149.477 84.0186L149.333 86.5065V267.84H128V129.173C128 117.391 118.449 107.84 106.667 107.84C95.7262 107.84 86.7092 116.075 85.4769 126.685L85.3333 129.173V248.754C85.3333 298.493 92.7353 347.932 107.276 395.451L135.68 470.507H348.032C384.921 429.305 405.252 375.906 405.106 320.603L404.715 173.035L402.365 173.599C380.603 179.337 342.952 198.483 341.447 221.667L341.333 225.173V321.173Z"/></svg>