<svg width="512" height="512" viewBox="0 0 512 512" fill="none" xmlns="http://www.w3.org/2000/svg"><path d="M341.333 42.6667C412.026 42.6667 469.333 96.9589 469.333 163.93C469.333 183.985 465.264 205.069 457.125 227.18L423.005 193.154C425.074 184.516 426.263 176.211 426.58 168.247L426.667 163.93C426.667 121.054 388.962 85.3334 341.333 85.3334C325.096 85.3334 309.675 89.5027 296.418 97.1082L236.686 154.679C228.355 163.01 228.355 176.517 236.686 184.848C245.017 193.18 258.525 193.18 266.856 184.848L324.752 124.637L353.792 154.069L436.162 236.433C461.156 261.427 461.156 301.95 436.162 326.943C428.164 334.941 418.576 340.38 408.416 343.259L407.361 343.533C411.84 364.109 406.081 386.465 390.085 402.461C373.62 418.926 350.416 424.544 329.352 419.316C326.461 429.209 321.073 438.329 313.215 445.489C290.766 465.945 257.973 467.841 233.417 449.903L229.635 446.619L213.024 431.72C99.4524 328.111 42.6665 238.847 42.6665 163.93C42.6665 96.9581 99.9741 42.6667 170.667 42.6667C203.459 42.6667 233.371 54.3489 256.018 73.5598C278.648 54.3415 308.551 42.6667 341.333 42.6667ZM170.667 85.3334C123.038 85.3334 85.3332 121.054 85.3332 163.93C85.3332 223.895 136.241 303.919 241.513 399.958L251.093 408.555C259.533 417.07 275.155 423.666 284.236 414.91C292.484 406.956 291.64 395.889 285.171 387.684L272.003 374.25L222.706 324.954L221.799 324.157L252.327 293.608L296.515 338.431L313.215 355.124C314.356 356.265 315.444 357.442 316.48 358.652L327.139 369.512C338.247 380.621 352.018 381.033 360.349 372.702C368.68 364.371 368.417 350.451 357.309 339.342L306.285 287.57L282.343 263.613L312.508 233.426L327.941 248.865C329.489 250.147 330.991 251.513 332.441 252.963L351.896 272.85L375.823 296.773C384.154 305.104 397.661 305.104 405.992 296.773C414.324 288.442 414.324 274.935 405.992 266.603L325.696 186.325L297.026 215.018C272.032 240.012 231.51 240.012 206.516 215.018C181.523 190.025 181.523 149.502 206.516 124.509L226.475 104.533L224.416 102.905C209.395 91.6449 190.644 85.3334 170.667 85.3334Z"/></svg>