<svg width="512" height="512" viewBox="0 0 512 512" fill="none" xmlns="http://www.w3.org/2000/svg"><path fill-rule="evenodd" clip-rule="evenodd" d="M280.4 68.9945C307.19 39.2282 356.477 53.0028 363.952 92.3454L378.832 170.666H133.162L148.043 92.3454C155.518 53.0029 204.805 39.2282 231.595 68.9945C244.636 83.4853 267.359 83.4853 280.4 68.9945ZM129.109 191.999L121.003 234.666H85.3333V277.332L112.896 277.332H399.099L426.667 277.332V234.666H390.992L382.886 191.999H129.109ZM170.667 426.666L128 405.332L85.3333 383.999V426.666V431.702V469.332H128H160.594H256H351.406H384H426.667V431.702V426.666V383.999L384 405.332L341.333 426.666L256 469.332L170.667 426.666ZM384 298.666H128V319.999H128.062C129.454 349.689 153.966 373.332 184 373.332H192C214.679 373.332 226.959 359.073 231.955 341.097C235.11 329.745 244.218 319.999 256 319.999C267.782 319.999 276.89 329.745 280.045 341.097C285.041 359.073 297.321 373.332 320 373.332H328C358.034 373.332 382.546 349.689 383.938 319.999H384V298.666Z"/></svg>