<svg width="512" height="512" viewBox="0 0 512 512" fill="none" xmlns="http://www.w3.org/2000/svg"><path fill-rule="evenodd" clip-rule="evenodd" d="M248.959 107.967C204.155 52.3589 124.11 49.0122 75.3066 100.706C41.1152 136.923 32.2259 189.791 48.6387 234.667H136.128L192 122.964L256 250.944L288 186.964L311.851 234.667H463.363C479.775 189.792 470.886 136.923 436.695 100.706C387.891 49.0125 307.847 52.3592 263.042 107.967L256.001 116.706L248.959 107.967ZM437.26 277.333H290.518L256 346.369L192 218.368L162.518 277.333H74.7417C74.9292 277.535 75.1176 277.735 75.3066 277.936L255.911 469.237L256 469.333L256.001 469.333L436.695 277.936C436.884 277.736 437.072 277.535 437.26 277.333Z"/></svg>