<svg width="512" height="512" viewBox="0 0 512 512" fill="none" xmlns="http://www.w3.org/2000/svg"><path fill-rule="evenodd" clip-rule="evenodd" d="M433.256 101.735C481.358 152.047 481.358 233.62 433.256 283.933L256 469.333L78.7434 283.933C30.6409 233.62 30.6409 152.047 78.7434 101.734C123.374 55.0531 193.734 51.6839 242.078 91.6271C245.839 94.7341 249.466 98.1033 252.938 101.734L256 104.937L259.061 101.735C262.533 98.1036 266.16 94.7345 269.921 91.6275C318.266 51.6842 388.625 55.0534 433.256 101.735ZM109.583 131.219C140.882 98.4824 190.799 98.4824 222.098 131.219L256 166.679L289.901 131.22C321.2 98.4828 371.117 98.4828 402.416 131.22C434.749 165.038 434.748 220.629 402.416 254.448L399.355 257.65L256 407.592L109.583 254.448C77.2499 220.629 77.2499 165.038 109.583 131.219Z"/></svg>