<svg xmlns="http://www.w3.org/2000/svg" width="512" height="512" viewBox="0 0 512 512"><g fill-rule="evenodd" transform="translate(42.667 34.246)"><path d="M192,7.10542736e-15 L384,110.851252 L384.001134,185.48897 C368.274441,181.451555 350.081492,179.086945 330.666667,179.086945 C319.519838,179.086945 308.776099,179.868194 298.666408,181.315806 L298.666667,168.420278 L256,168.420278 L256,192.892 L255.43909,193.139407 C228.705759,205.020888 215.096345,223.191635 213.375754,241.580297 L213.333,242.067 L213.333333,125.753611 L170.666667,125.753611 L170.666667,317.753611 L213.333333,317.753611 L213.333,250.621 L213.461,431.015 L192,443.405007 L-2.13162821e-14,332.553755 L-2.13162821e-14,110.851252 L192,7.10542736e-15 Z M128,168.420278 L85.3333333,168.420278 L85.3333333,275.086945 L128,275.086945 L128,168.420278 Z"/><path fill-rule="nonzero" d="M426.247658,367.086537 C426.525741,368.402966 426.666667,369.737641 426.666667,371.086945 L426.666667,392.420278 C426.666667,415.984427 383.686003,435.086945 330.666667,435.086945 C277.647331,435.086945 234.666667,415.984427 234.666667,392.420278 L234.666667,371.086945 L234.679528,370.381373 C234.719905,369.274557 234.855108,368.177986 235.081684,367.093195 C240.961696,371.511899 248.119437,375.587359 256.413327,379.076445 C275.772109,387.220327 301.875889,392.420278 330.666667,392.420278 C360.599038,392.420278 387.623237,386.791466 407.213205,378.084814 C414.535528,374.830448 420.909655,371.102819 426.247658,367.086537 Z M426.247658,303.086537 C426.525741,304.402966 426.666667,305.737641 426.666667,307.086945 L426.666667,328.420278 C426.666667,351.984427 383.686003,371.086945 330.666667,371.086945 C277.647331,371.086945 234.666667,351.984427 234.666667,328.420278 L234.666667,307.086945 L234.679528,306.381373 C234.719905,305.274557 234.855108,304.177986 235.081684,303.093195 C240.961696,307.511899 248.119437,311.587359 256.413327,315.076445 C275.772109,323.220327 301.875889,328.420278 330.666667,328.420278 C360.599038,328.420278 387.623237,322.791466 407.213205,314.084814 C414.535528,310.830448 420.909655,307.102819 426.247658,303.086537 Z M330.666667,200.420278 C383.155809,200.420278 425.80605,219.142655 426.653805,242.381373 L426.666667,243.086945 L426.666667,264.420278 C426.666667,287.984427 383.686003,307.086945 330.666667,307.086945 C278.177524,307.086945 235.527284,288.364568 234.679528,265.12585 L234.666667,264.420278 L234.666667,243.086945 L234.808715,240.745944 C237.543198,218.270519 279.414642,200.420278 330.666667,200.420278 Z"/></g></svg>