<svg xmlns="http://www.w3.org/2000/svg" width="512" height="512" viewBox="0 0 512 512"><path fill-rule="evenodd" d="M192,7.10542736e-15 L384,110.851252 L384,332.553755 L192,443.405007 L1.42108547e-14,332.553755 L1.42108547e-14,110.851252 L192,7.10542736e-15 Z M192,49.2586667 L42.6666667,135.466667 L42.6666667,307.925333 L192,394.133333 L341.333333,307.904 L341.333333,135.488 L192,49.2586667 Z M213.333333,125.753611 L213.333333,317.753611 L170.666667,317.753611 L170.666667,125.753611 L213.333333,125.753611 Z M128,168.420278 L128,275.086945 L85.3333333,275.086945 L85.3333333,168.420278 L128,168.420278 Z M298.666667,168.420278 L298.666667,275.086945 L256,275.086945 L256,168.420278 L298.666667,168.420278 Z" transform="translate(64 34.246)"/></svg>