<svg width="512" height="512" viewBox="0 0 512 512" fill="none" xmlns="http://www.w3.org/2000/svg"><path fill-rule="evenodd" clip-rule="evenodd" d="M469.333 256C469.333 362.039 383.372 448 277.333 448C227.538 448 182.17 429.044 148.052 397.954L177.827 367.352C204.241 390.973 239.11 405.333 277.333 405.333C359.808 405.333 426.667 338.475 426.667 256C426.667 173.525 359.808 106.667 277.333 106.667C194.859 106.667 128 173.525 128 256C128 260.043 128.161 264.048 128.476 268.01L170.667 225.83L200.837 256L106.667 350.17L12.4968 256L42.6667 225.83L85.7607 268.913C85.4773 264.645 85.3334 260.339 85.3334 256C85.3334 149.961 171.295 64 277.333 64C383.372 64 469.333 149.961 469.333 256ZM255.999 149.333V267.52L329.599 316.373L353.066 280.96L298.666 244.48V149.333H255.999Z"/></svg>