<svg xmlns="http://www.w3.org/2000/svg" width="512" height="512" viewBox="0 0 512 512"><path fill-rule="evenodd" d="M256,7.10542736e-15 L256,115.477333 L158.165333,213.333333 L256,311.146667 L256,426.666667 L-2.84217094e-14,426.666667 L-2.84217094e-14,311.146667 L97.8133333,213.333333 L-2.84217094e-14,115.477333 L-2.84217094e-14,7.10542736e-15 L256,7.10542736e-15 Z M128,243.498667 L42.6666667,328.832 L42.6666667,373.333333 L128,320 L213.333333,373.333333 L213.333333,328.832 L128,243.498667 Z M213.333333,42.6666667 L42.6666667,42.6666667 L42.6666667,97.8133333 L72.9030755,128.057301 L183.356249,127.797912 L213.333333,97.8133333 L213.333333,42.6666667 Z" transform="translate(128 42.667)"/></svg>