<svg width="512" height="512" viewBox="0 0 512 512" fill="none" xmlns="http://www.w3.org/2000/svg"><path d="M394.667 298.667C447.686 298.667 490.667 341.648 490.667 394.667C490.667 447.686 447.686 490.667 394.667 490.667C341.648 490.667 298.667 447.686 298.667 394.667H344.326C344.326 422.469 366.865 445.007 394.667 445.007C422.469 445.007 445.007 422.469 445.007 394.667C445.007 366.865 422.469 344.326 394.667 344.326V298.667ZM106.667 405.333H256.413C257.552 420.1 261.041 434.494 266.668 448H64V170.667H106.667V405.333ZM170.667 85.333C228.027 85.3332 274.812 130.609 277.234 187.373L277.333 192V268.485L326.248 219.582L356.418 249.752L256 350.17L155.582 249.752L185.752 219.582L234.667 268.485V192C234.667 157.916 208.023 130.055 174.427 128.108L170.667 128H42.667V85.333H170.667ZM448 266.668C434.494 261.041 420.1 257.551 405.333 256.412V128H320V85.333H448V266.668Z"/></svg>