<svg width="512" height="512" viewBox="0 0 512 512" fill="none" xmlns="http://www.w3.org/2000/svg"><path fill-rule="evenodd" clip-rule="evenodd" d="M256 43.8398C350.257 43.8398 426.667 120.25 426.667 214.507C426.667 301.531 361.532 373.343 277.354 383.85V405.335H426.667V470.507H85.3333V405.335H234.668V383.853C152.2 373.57 88.0037 304.448 85.4146 219.822L85.3333 214.507C85.3333 120.25 161.743 43.8398 256 43.8398ZM315.582 124.755L267.03 173.279C263.512 172.34 259.814 171.84 256 171.84C232.436 171.84 213.333 190.942 213.333 214.507C213.333 238.071 232.436 257.173 256 257.173C279.564 257.173 298.667 238.071 298.667 214.507C298.667 210.692 298.166 206.995 297.227 203.476L345.752 154.925L315.582 124.755Z"/></svg>