<svg width="512" height="512" viewBox="0 0 512 512" fill="none" xmlns="http://www.w3.org/2000/svg"><path fill-rule="evenodd" clip-rule="evenodd" d="M63.9998 266.667C63.9998 297.289 70.7916 326.326 82.951 352.352C57.701 319.848 42.6665 279.013 42.6665 234.667C42.6665 128.628 128.628 42.6665 234.667 42.6665C279.013 42.6665 319.848 57.701 352.352 82.951C326.326 70.7916 297.289 63.9998 266.667 63.9998C154.737 63.9998 63.9998 154.737 63.9998 266.667ZM277.333 469.333C383.372 469.333 469.333 383.372 469.333 277.333C469.333 171.294 383.372 85.3332 277.333 85.3332C171.294 85.3332 85.3332 171.294 85.3332 277.333C85.3332 383.372 171.294 469.333 277.333 469.333ZM256 256V384H298.666V256H256ZM277.545 218.667C292.78 218.667 304.041 207.467 304.041 192C304.041 176.553 292.78 165.333 277.545 165.333C261.991 165.333 250.708 176.553 250.708 191.704C250.708 207.467 261.694 218.667 277.545 218.667Z"/></svg>