<svg width="512" height="512" viewBox="0 0 512 512" fill="none" xmlns="http://www.w3.org/2000/svg"><path d="M405.333 298.668V362.668H469.333V405.335H405.333V469.335H362.667V405.335H298.667V362.668H362.667V298.668H405.333ZM341.333 42.668L426.667 128.001L384 170.668L330.667 330.668L42.6667 426.668L138.667 138.668L298.667 85.3346L341.333 42.668ZM321.714 122.627L172.395 172.396L117.653 336.577L214.055 240.189C213.792 239.204 213.597 238.191 213.477 237.156L213.333 234.668C213.333 222.886 222.885 213.335 234.667 213.335C246.449 213.335 256 222.886 256 234.668C256 246.45 246.449 256.001 234.667 256.001C232.758 256.001 230.907 255.751 229.146 255.28L132.779 351.617L296.917 296.919L346.708 147.62L321.714 122.627Z"/></svg>