<svg width="512" height="512" viewBox="0 0 512 512" fill="none" xmlns="http://www.w3.org/2000/svg"><path fill-rule="evenodd" clip-rule="evenodd" d="M426.667 161.831L307.503 42.668H85.3333V469.335H426.667V161.831ZM293.181 163.936L353.468 224.327L293.128 284.667L278.043 269.582L323.355 224.267L278.096 179.021L293.181 163.936ZM234.091 179.54L219.006 164.455L158.719 224.846L219.059 285.186L234.143 270.101L188.831 224.786L234.091 179.54ZM234.667 352.002C234.667 334.329 220.34 320.002 202.667 320.002C184.993 320.002 170.667 334.329 170.667 352.002C170.667 369.675 184.993 384.002 202.667 384.002C220.34 384.002 234.667 369.675 234.667 352.002Z"/></svg>