<svg width="512" height="512" viewBox="0 0 512 512" fill="none" xmlns="http://www.w3.org/2000/svg"><path fill-rule="evenodd" clip-rule="evenodd" d="M352 64L336 312L322.9 317.731L298.593 293.42L305.312 290.48L317.872 96H98.112L110.672 290.48L196.477 328.015L172.169 352.324L80 312L64 64H352ZM288.711 128.039V160.039H256.711V184.039H290.141L282.896 268.563L224.71 284.279V251.127L252.919 243.511L255.271 216.039H224.71V128.039H288.711ZM208.711 128.039V283.149L133.193 269.664L128.79 225.631L160.631 222.447L162.631 242.407L176.711 244.919V160.039H144.711V128.039H208.711ZM362.667 383.993H273.711L279.921 390.241L295.006 405.326L264.837 435.496L192 362.659L264.837 289.823L295.006 319.993L273.69 341.326H362.667L362.667 383.993ZM320 448L409.259 447.993L403.049 454.241L387.964 469.326L418.133 499.496L490.97 426.659L418.133 353.823L387.964 383.993L409.28 405.326L320 405.333V448Z"/></svg>