<svg width="512" height="512" viewBox="0 0 512 512" fill="none" xmlns="http://www.w3.org/2000/svg"><path fill-rule="evenodd" clip-rule="evenodd" d="M354.348 99.4376C349.78 104.012 346.494 109.378 344.449 115.093C344.449 115.093 337.192 137.189 312.241 112.303L243.765 43.8386L187.888 99.7154C162.842 124.761 185.01 132.048 185.01 132.048C190.725 134.069 196.091 137.361 200.665 141.935C217.035 158.299 217.035 184.845 200.665 201.21L200.659 201.221C184.283 217.585 157.748 217.585 141.372 201.221C136.798 196.641 133.5 191.275 131.485 185.555C131.485 185.555 124.198 163.393 99.147 188.439L41.9583 245.633L110.334 313.997C135.38 339.043 113.212 346.335 113.212 346.335C107.492 348.368 102.131 351.637 97.5514 356.228C81.1873 372.604 81.1873 399.133 97.5514 415.503H97.5573C113.927 431.879 140.474 431.891 156.832 415.503C161.412 410.947 164.704 405.575 166.725 399.86C166.725 399.86 174.012 377.698 199.063 402.744L256 459.686V256H455.931L400.775 200.849C375.901 175.874 398.003 168.611 398.003 168.611C403.73 166.596 409.09 163.298 413.652 158.73C430.028 142.354 430.028 115.819 413.652 99.4435H413.629C397.265 83.0617 370.736 83.0617 354.348 99.4376ZM266.819 470.505L265.647 469.333H267.99L266.819 470.505ZM448 320V277.333H277.333V320H448ZM448 384V341.333H277.333V384H448ZM448 405.333V448H277.333V405.333H448Z"/></svg>