<svg width="512" height="512" viewBox="0 0 512 512" fill="none" xmlns="http://www.w3.org/2000/svg"><path fill-rule="evenodd" clip-rule="evenodd" d="M245.234 42.6667L316.223 113.644L320.033 117.305C325.613 122.412 327.541 122.765 328.77 121.643L329.121 121.265C329.53 120.759 329.802 120.201 329.89 119.947C332.34 113.099 336.25 106.864 341.466 101.642C359.641 83.4799 388.457 82.5084 407.745 98.7252L410.947 101.643C430.132 120.828 430.132 151.918 410.951 171.098C405.711 176.345 399.454 180.27 392.397 182.752C389.516 184.898 389.655 187.05 398.919 196.351L469.333 266.759L410.099 325.994C393.035 343.041 377.188 344.098 367.507 332.112C365.894 330.114 364.773 328.145 364.053 326.488L363.463 324.945C362.025 320.879 359.7 317.17 356.58 314.055C345.187 302.654 326.714 302.654 313.793 315.302L315.294 314.068C303.905 325.457 303.909 343.942 315.334 355.363C318.4 358.449 322.098 360.763 325.995 362.157C328.099 362.85 330.708 364.128 333.367 366.281C345.334 375.973 344.266 391.817 327.217 408.87L266.766 469.333L196.442 399.003C187.072 389.635 184.899 389.489 183.432 391.303L182.813 392.27L182.675 392.586C180.245 399.454 176.317 405.716 171.094 410.912C152.955 429.084 124.12 430.053 104.819 413.836L101.632 410.917C82.4596 391.738 82.4596 360.656 101.624 341.478C106.852 336.236 113.089 332.331 120.191 329.811C122.876 327.808 122.943 325.792 115.44 318.016L42.6667 245.223L103.124 184.76C120.181 167.707 136.027 166.644 145.713 178.622C147.328 180.618 148.449 182.586 149.172 184.249L149.766 185.802C151.196 189.86 153.519 193.566 156.646 196.697C168.047 208.09 186.518 208.093 197.924 196.707C209.334 185.294 209.334 166.811 197.936 155.417C194.812 152.292 191.107 149.97 187.249 148.602C185.143 147.91 182.532 146.634 179.87 144.483C167.888 134.797 168.95 118.951 186.003 101.897L245.234 42.6667ZM245.221 99.0145L221.331 122.904L222.911 124.232L226.109 127.234C253.079 154.195 253.07 197.912 226.077 224.908C199.11 251.83 155.434 251.82 128.45 224.856C127.406 223.811 126.398 222.735 125.427 221.629L124.14 220.075L99.0153 245.22L141.749 287.939C148.834 295.024 153.215 300.11 156.548 306.639L158.135 310.04C166.343 329.294 160.082 348.144 146.484 359.78L144.01 361.757L139.188 365.352L133.52 367.364C131.959 367.918 130.823 368.632 129.811 369.646C126.648 372.811 126.253 377.695 127.776 380.477L128.544 381.529L130.454 383.327C134.074 386.369 139.51 386.147 142.989 382.661C143.936 381.72 144.651 380.587 144.956 379.731C146.597 374.915 149.205 370.255 152.446 366.247C165.607 349.972 187.288 346.268 205.266 355.558C211.026 358.534 215.776 362.272 221.606 367.868L224.62 370.826L266.739 412.964L291.884 387.819L290.311 386.517L287.161 383.545C261.146 357.539 260.188 315.958 284.331 288.843L286.066 286.982L285.918 286.825C312.937 260.378 354.328 258.611 381.751 283.037L384.739 285.859L387.765 289.082L389.055 290.648L412.965 266.758L370.685 224.472C363.64 217.398 359.288 212.325 355.978 205.794L354.403 202.391C346.26 183.139 352.555 164.364 366.117 152.77L368.584 150.8L373.452 147.172L379.18 145.158C380.624 144.651 381.757 143.94 382.774 142.921C385.94 139.755 386.336 134.873 384.851 132.128L384.103 131.094L382.102 129.227C378.49 126.19 373.053 126.412 369.661 129.801C368.648 130.816 367.899 132.003 367.587 132.865C365.953 137.631 363.377 142.274 360.117 146.309C346.985 162.562 325.321 166.302 307.339 157.02C301.603 154.059 296.883 150.351 291.061 144.774L288.048 141.824L245.221 99.0145Z"/></svg>