<svg width="512" height="512" viewBox="0 0 512 512" fill="none" xmlns="http://www.w3.org/2000/svg"><path d="M320 277.333V426.667H42.6667V277.333H320ZM298.667 298.667H64V405.333H298.667V298.667ZM106.667 362.667V384H85.3333V362.667H106.667ZM234.667 362.667V384H128V362.667H234.667ZM277.333 362.667V384H256V362.667H277.333ZM106.667 320V341.333H85.3333V320H106.667ZM149.333 320V341.333H128V320H149.333ZM192 320V341.333H170.667V320H192ZM234.667 320V341.333H213.333V320H234.667ZM277.333 320V341.333H256V320H277.333ZM469.333 85.3334V320H341.333V277.333H426.667V128H85.3333V256H42.6667V85.3334H469.333ZM149.333 213.333V256H106.667V213.333H149.333ZM341.333 213.333V256H170.667V213.333H341.333ZM405.333 213.333V256H362.667V213.333H405.333ZM149.333 149.333V192H106.667V149.333H149.333ZM213.333 149.333V192H170.667V149.333H213.333ZM277.333 149.333V192H234.667V149.333H277.333ZM341.333 149.333V192H298.667V149.333H341.333ZM405.333 149.333V192H362.667V149.333H405.333Z"/></svg>