<svg width="512" height="512" viewBox="0 0 512 512" fill="none" xmlns="http://www.w3.org/2000/svg"><path d="M469.333 128V362.667H42.6667V128H469.333ZM426.667 170.667H85.3334V320H426.667V170.667ZM149.333 256V298.667H106.667V256H149.333ZM341.333 256V298.667H170.667V256H341.333ZM405.333 256V298.667H362.667V256H405.333ZM149.333 192V234.667H106.667V192H149.333ZM213.333 192V234.667H170.667V192H213.333ZM277.333 192V234.667H234.667V192H277.333ZM341.333 192V234.667H298.667V192H341.333ZM405.333 192V234.667H362.667V192H405.333Z"/></svg>