<svg width="512" height="512" viewBox="0 0 512 512" fill="none" xmlns="http://www.w3.org/2000/svg"><path fill-rule="evenodd" clip-rule="evenodd" d="M384 170.665H469.333L426.666 85.332L384 170.665ZM148.693 213.332V193.332C165.082 179.554 177.332 168.776 185.443 160.999C194.109 152.665 199.943 146.304 202.943 141.915C205.998 137.471 207.526 133.11 207.526 128.832C207.526 124.443 205.693 120.888 202.026 118.165C198.415 115.388 193.693 113.999 187.859 113.999C179.526 113.999 169.026 116.693 156.359 122.082L149.693 101.415C163.693 95.9154 177.498 93.1654 191.109 93.1654C204.554 93.1654 214.998 96.0542 222.443 101.832C230.276 107.888 234.193 116.499 234.193 127.665C234.193 134.776 232.609 141.249 229.443 147.082C226.332 152.915 220.637 159.971 212.359 168.249C205.526 175.082 196.721 183.165 185.943 192.499H235.193V213.332H148.693ZM265.25 208.749L271 187.999C280.667 192.499 290.972 194.749 301.917 194.749C310.972 194.749 317.389 192.86 321.167 189.082C324.111 186.249 325.583 182.693 325.583 178.415C325.583 172.249 322.722 167.776 317 164.999C312.778 162.943 306.139 161.915 297.083 161.915C293.694 161.915 289.278 162.026 283.833 162.249V142.832C286.444 142.943 289.028 142.999 291.583 142.999C304.194 142.999 312.861 141.638 317.583 138.915C322.194 136.304 324.5 132.665 324.5 127.999C324.5 123.499 322.722 120.054 319.167 117.665C315.667 115.221 310.611 113.999 304 113.999C295.444 113.999 285.639 116.138 274.583 120.415L269 99.9154C281.389 95.4154 294.333 93.1654 307.833 93.1654C320.722 93.1654 330.889 95.5542 338.333 100.332C346.833 105.832 351.083 114.304 351.083 125.749C351.083 133.526 349.083 139.638 345.083 144.082C341.083 148.471 334.944 151.304 326.667 152.582C334.889 153.804 341.056 156.415 345.167 160.415C349.889 165.082 352.25 171.471 352.25 179.582C352.25 186.915 350.306 193.443 346.417 199.165C342.639 204.776 337.361 208.915 330.583 211.582C323.806 214.249 315.167 215.582 304.667 215.582C290.167 215.582 277.028 213.304 265.25 208.749ZM89.75 122.915V213.332H115.5V95.2487H92.6667L54.9167 117.415L66.9167 137.165L89.75 122.915ZM450.032 247.626V447.997L64 446.263V326.734L150.858 409.311L285.968 267.837L353.524 338.574L450.032 247.626Z"/></svg>