<svg width="512" height="512" viewBox="0 0 512 512" fill="none" xmlns="http://www.w3.org/2000/svg"><path fill-rule="evenodd" clip-rule="evenodd" d="M348.932 255.997L353.883 281.508C364.964 285.236 375.016 291.319 383.485 299.183L407.379 290.856L428.03 327.806L409.116 345.005C410.276 350.703 410.887 356.61 410.887 362.664C410.887 368.718 410.276 374.626 409.116 380.323L428.03 397.522L407.379 434.473L383.485 426.145C375.016 434.01 364.964 440.092 353.883 443.82L348.932 469.331H307.629L302.699 443.827C291.61 440.099 281.55 434.014 273.076 426.145L249.182 434.473L228.531 397.522L247.45 380.345C246.286 374.64 245.674 368.726 245.674 362.664C245.674 356.602 246.286 350.688 247.45 344.983L233.942 332.712L236.151 321.363L236.4 321.272C246.068 316.95 255.209 311.484 263.645 304.995L263.824 304.829L286.446 312.741L300.552 317.667C286.182 327.137 276.652 343.751 276.652 362.664C276.652 392.119 299.767 415.997 328.281 415.997C356.794 415.997 379.909 392.119 379.909 362.664C379.909 333.209 356.794 309.331 328.281 309.331C319.497 309.331 311.227 311.596 303.986 315.593L310.938 303.196L337.303 255.997H348.932ZM211.228 42.6641L218.16 78.3798C233.677 83.6001 247.753 92.1179 259.612 103.132L293.054 91.4654L321.966 143.196L295.483 167.259C297.109 175.241 297.965 183.516 297.965 191.997C297.965 200.479 297.109 208.754 295.483 216.736L321.966 240.799L293.054 292.529L259.612 280.862C247.753 291.877 233.677 300.395 218.16 305.615L211.228 341.331H153.404L146.493 305.622C130.964 300.401 116.878 291.877 105.012 280.854L71.5789 292.529L42.6667 240.799L69.1544 216.757C67.5246 208.769 66.6675 200.487 66.6675 191.997C66.6675 183.516 67.5231 175.241 69.15 167.259L42.6667 143.196L71.5789 91.4654L105.012 103.141C116.883 92.1126 130.976 83.5862 146.514 78.3658L153.404 42.6641H211.228ZM182.316 117.331C142.397 117.331 110.036 150.76 110.036 191.997C110.036 233.235 142.397 266.664 182.316 266.664C222.236 266.664 254.597 233.235 254.597 191.997C254.597 150.76 222.236 117.331 182.316 117.331ZM390.235 42.6641L395.186 68.175C406.267 71.9029 416.319 77.9852 424.789 85.8502L448.682 77.5222L469.333 114.473L450.419 131.672C451.58 137.369 452.19 143.276 452.19 149.331C452.19 155.385 451.58 161.292 450.419 166.99L469.333 184.189L448.682 221.139L424.789 212.811C416.319 220.676 406.267 226.759 395.186 230.486L390.235 255.997H348.932L344.002 230.493L340.4 229.139L335.605 224.78L317.642 208.467L317.881 206.696C318.37 201.835 318.617 196.931 318.617 191.997L318.432 184.621C318.31 182.17 318.126 179.729 317.881 177.299L317.642 175.507L322.46 171.152C330.533 189.727 348.596 202.664 369.584 202.664C398.098 202.664 421.213 178.786 421.213 149.331C421.213 119.876 398.098 95.9974 369.584 95.9974C353.725 95.9974 339.536 103.384 330.066 115.007L313.615 85.5867L314.379 85.8502C322.854 77.9803 332.913 71.8954 344.002 68.1681L348.932 42.6641H390.235Z"/></svg>