<svg width="512" height="512" viewBox="0 0 512 512" fill="none" xmlns="http://www.w3.org/2000/svg"><path fill-rule="evenodd" clip-rule="evenodd" d="M42.6667 256.001C42.6667 373.822 138.179 469.335 256 469.335C373.821 469.335 469.333 373.822 469.333 256.001C469.333 138.181 373.821 42.668 256 42.668C138.179 42.668 42.6667 138.181 42.6667 256.001ZM85.3333 256.001C85.3333 350.258 161.743 426.668 256 426.668C350.257 426.668 426.667 350.258 426.667 256.001C426.667 161.745 350.257 85.3346 256 85.3346C161.743 85.3346 85.3333 161.745 85.3333 256.001ZM295.873 112.712C292.042 110.84 287.826 109.3 283.201 108.186C278.745 107.114 273.908 106.37 256.559 106.784L256.318 106.79C256.233 106.8 256.15 106.809 246.136 108.617C242.932 109.417 239.878 110.411 236.986 111.587C234.059 112.778 231.297 114.156 228.713 115.711C226.099 117.284 223.666 119.039 221.428 120.964C219.171 122.905 217.111 125.021 215.261 127.301C213.405 129.589 211.761 132.042 210.342 134.653C208.928 137.255 207.738 140.013 206.789 142.92C206.113 144.994 205.583 147.093 205.195 149.211C204.807 151.325 204.562 153.458 204.453 155.604C204.346 157.739 204.375 159.886 204.537 162.038C204.698 164.175 204.99 166.318 205.411 168.458C205.829 170.582 206.373 172.703 207.041 174.815C207.704 176.91 208.489 178.996 209.392 181.065C210.289 183.12 211.302 185.158 212.43 187.171C212.862 187.944 213.311 188.713 213.777 189.477C212.696 190.673 211.655 191.865 210.657 193.054C208.78 195.288 207.048 197.51 205.462 199.722C203.857 201.958 202.4 204.185 201.088 206.402C199.76 208.646 198.581 210.882 197.548 213.111C196.502 215.368 195.607 217.618 194.859 219.861C194.103 222.132 193.499 224.396 193.044 226.655C192.585 228.933 192.278 231.207 192.122 233.478C191.965 235.757 191.96 238.032 192.106 240.307C192.359 244.297 193.06 248.14 194.157 251.85C195.243 255.521 196.718 259.064 198.535 262.497C200.315 265.859 202.425 269.117 204.82 272.287C207.163 275.39 209.781 278.412 212.627 281.368C215.423 284.273 218.439 287.116 221.629 289.917C224.776 292.679 228.094 295.401 231.534 298.102C234.937 300.773 238.462 303.425 242.06 306.074C245.615 308.692 249.242 311.309 252.933 313.971L254.605 315.18L256.29 316.398L257.136 317.01L257.985 317.625L259.694 318.866L261.418 320.121L263.16 321.394L266.705 324.006C268.74 325.448 270.516 326.854 272.124 328.276C273.703 329.672 275.12 331.082 276.38 332.494C277.611 333.873 278.692 335.253 279.628 336.621C280.534 337.947 281.304 339.264 281.94 340.557C282.55 341.795 283.036 343.012 283.4 344.198C283.746 345.318 283.981 346.404 284.107 347.446C284.224 348.409 284.247 349.332 284.175 350.205C284.111 350.987 283.97 351.724 283.747 352.406C283.523 353.096 283.225 353.745 282.856 354.354C282.473 354.988 282.017 355.575 281.492 356.123C280.926 356.715 280.281 357.258 279.566 357.759C278.795 358.297 277.937 358.787 277.005 359.228C276.01 359.698 274.934 360.11 273.781 360.465C272.568 360.838 271.273 361.15 269.9 361.398C268.479 361.655 266.978 361.847 265.4 361.969C263.782 362.094 262.085 362.15 260.314 362.132C257.573 362.041 255.062 361.666 252.863 361.064C250.811 360.503 249.045 359.748 247.531 358.851C246.086 357.995 244.876 357.013 243.866 355.967C242.855 354.921 242.045 353.814 241.392 352.709C240.721 351.573 240.216 350.443 239.834 349.386C239.445 348.311 239.182 347.308 239.004 346.446C238.831 345.606 238.739 344.904 238.692 344.407L238.343 338.535H199.899C199.322 342.569 199.419 347.401 200.335 352.561C200.866 355.554 201.673 358.661 202.779 361.791C203.882 364.91 205.282 368.053 207.003 371.13C208.727 374.215 210.773 377.234 213.162 380.099C215.559 382.974 218.301 385.691 221.409 388.164C224.518 390.635 227.991 392.86 231.853 394.745C235.681 396.617 239.897 398.156 244.521 399.27C249.075 400.367 254.029 401.052 259.408 401.227L260.085 401.234L260.975 401.242C264.69 401.242 268.236 401.038 271.65 400.639C275.099 400.236 278.414 399.633 281.582 398.841C284.785 398.04 287.839 397.046 290.731 395.87C293.658 394.68 296.419 393.301 299.003 391.748C301.619 390.173 304.051 388.418 306.288 386.493C308.545 384.552 310.605 382.436 312.455 380.158C314.312 377.868 315.957 375.414 317.375 372.805C318.789 370.203 319.979 367.444 320.929 364.536C321.605 362.463 322.135 360.365 322.523 358.246C322.91 356.134 323.156 353.999 323.264 351.853C323.372 349.72 323.343 347.572 323.181 345.42C323.02 343.282 322.727 341.14 322.306 338.999C321.888 336.876 321.344 334.755 320.676 332.643C320.013 330.548 319.229 328.463 318.326 326.393C317.428 324.338 316.415 322.299 315.287 320.286C314.855 319.514 314.406 318.745 313.94 317.98C315.022 316.784 316.062 315.592 317.06 314.404C318.938 312.17 320.669 309.947 322.256 307.736C323.86 305.499 325.318 303.273 326.629 301.056C327.957 298.811 329.136 296.575 330.169 294.347C331.215 292.09 332.111 289.84 332.858 287.596C333.614 285.326 334.219 283.062 334.674 280.803C335.133 278.524 335.44 276.25 335.596 273.98C335.752 271.701 335.758 269.425 335.612 267.151C335.359 263.16 334.658 259.318 333.56 255.608C332.474 251.936 331 248.394 329.182 244.961C327.402 241.599 325.292 238.341 322.898 235.17C320.554 232.067 317.936 229.046 315.09 226.089C312.295 223.185 309.279 220.342 306.088 217.541C302.941 214.778 299.624 212.056 296.184 209.356C292.78 206.684 289.255 204.033 285.657 201.383C282.09 198.756 278.45 196.131 274.784 193.487L273.112 192.278L272.27 191.67L271.427 191.06L267.163 187.966L263.676 185.416L261.01 183.45C258.977 182.01 257.201 180.603 255.593 179.181C254.014 177.786 252.598 176.376 251.338 174.965C250.107 173.586 249.026 172.207 248.091 170.838C247.184 169.511 246.414 168.195 245.778 166.902C245.167 165.661 244.681 164.444 244.317 163.26C243.972 162.14 243.736 161.054 243.61 160.011C243.493 159.048 243.47 158.125 243.542 157.252C243.607 156.47 243.748 155.733 243.971 155.05C244.195 154.362 244.491 153.714 244.859 153.106C245.237 152.481 245.69 151.897 246.212 151.354C246.773 150.768 247.413 150.231 248.123 149.736C248.896 149.197 249.749 148.712 250.677 148.276C251.672 147.808 252.749 147.397 253.904 147.042C255.121 146.668 256.419 146.356 257.796 146.105C259.224 145.844 260.734 145.649 262.321 145.519C263.949 145.386 265.658 145.321 267.442 145.326C270.146 145.417 272.659 145.792 274.86 146.393C276.913 146.954 278.68 147.71 280.196 148.607C281.642 149.463 282.853 150.445 283.863 151.491C284.875 152.538 285.686 153.647 286.339 154.751C287.009 155.884 287.514 157.014 287.897 158.071C288.286 159.147 288.549 160.149 288.727 161.011C288.9 161.851 288.992 162.554 289.04 163.052L289.388 168.923H327.833C328.409 164.88 328.312 160.055 327.396 154.897C326.865 151.904 326.059 148.798 324.952 145.667C323.849 142.548 322.449 139.405 320.728 136.327C319.003 133.241 316.956 130.222 314.567 127.358C312.169 124.483 309.426 121.765 306.317 119.293C303.21 116.823 299.736 114.599 295.873 112.712ZM231.641 233.449C231.917 232.429 235.372 227.28 242.005 218.002L243.243 218.929L244.985 220.198L248.459 222.715L251.906 225.207C257.768 229.435 263.549 233.605 268.937 237.719C274.215 241.748 279.111 245.72 283.317 249.641C287.299 253.355 290.651 257.003 293.044 260.619C295.062 263.669 296.399 266.654 296.591 269.634C296.679 271.021 296.49 272.479 296.076 274.009C295.597 275.782 294.819 277.632 293.778 279.562C292.645 281.663 291.208 283.845 289.486 286.107C288.887 286.894 288.254 287.69 287.588 288.495L286.357 289.895C285.706 289.429 285.162 289.031 284.627 288.641L284.48 288.533L282.732 287.26L279.258 284.742L275.812 282.25C269.949 278.022 264.168 273.853 258.78 269.739C253.503 265.709 248.606 261.738 244.4 257.816C240.418 254.103 237.066 250.455 234.673 246.838C232.655 243.788 231.318 240.804 231.126 237.824C231.039 236.437 231.227 234.978 231.641 233.449Z"/></svg>