<svg width="512" height="512" viewBox="0 0 512 512" fill="none" xmlns="http://www.w3.org/2000/svg"><path fill-rule="evenodd" clip-rule="evenodd" d="M271.083 469.331V426.664H57.75V469.331H271.083ZM185.75 383.997V341.331H143.083V383.997H185.75ZM185.75 298.664V255.997H143.083V298.664H185.75ZM185.75 213.331V170.664H143.083V213.331H185.75ZM271.083 85.3307V42.6641H57.75V85.3307H155.563L64.0007 176.915L94.166 207.08L164.417 136.851L234.667 207.08L264.833 176.915L173.27 85.3307H271.083ZM373.333 437.331C385.203 437.331 396.317 434.1 405.846 428.469L318.195 340.818C312.564 350.347 309.333 361.461 309.333 373.331C309.333 408.677 337.987 437.331 373.333 437.331ZM340.823 318.191L428.473 405.841C434.103 396.313 437.333 385.199 437.333 373.331C437.333 337.985 408.68 309.331 373.333 309.331C361.465 309.331 350.351 312.561 340.823 318.191ZM373.333 469.331C426.353 469.331 469.333 426.35 469.333 373.331C469.333 320.311 426.353 277.331 373.333 277.331C320.314 277.331 277.333 320.311 277.333 373.331C277.333 426.35 320.314 469.331 373.333 469.331Z"/></svg>