<svg width="512" height="512" viewBox="0 0 512 512" fill="none" xmlns="http://www.w3.org/2000/svg"><path fill-rule="evenodd" clip-rule="evenodd" d="M75.0933 42.6666H437.76C446.021 42.5526 453.988 45.7254 459.91 51.4867C465.831 57.2479 469.221 65.1257 469.333 73.3866V438.613C469.225 447.026 465.718 455.038 459.61 460.824C453.502 466.61 445.313 469.68 436.907 469.333H74.24C65.9791 469.447 58.0114 466.274 52.0901 460.513C46.1688 454.752 42.779 446.874 42.6666 438.613V73.3866C42.7747 64.9736 46.2819 56.9623 52.3898 51.1758C58.4977 45.3894 66.6868 42.3201 75.0933 42.6666ZM106.667 405.333H169.173L170.667 202.667H106.667V405.333ZM137.6 174.72C117.335 174.72 100.907 158.292 100.907 138.027C100.907 117.761 117.335 101.333 137.6 101.333C157.865 101.333 174.293 117.761 174.293 138.027C174.293 158.292 157.865 174.72 137.6 174.72ZM341.333 405.333H405.333L402.987 294.613C402.987 240.213 391.04 197.547 327.04 197.547C302.584 196.601 279.605 209.239 267.307 230.4V202.667H206.507V405.333H270.507V305.493C270.507 279.04 275.627 253.227 308.48 253.227C341.333 253.227 341.333 283.52 341.333 307.2V405.333Z"/></svg>