<svg width="512" height="512" viewBox="0 0 512 512" fill="none" xmlns="http://www.w3.org/2000/svg"><path fill-rule="evenodd" clip-rule="evenodd" d="M109.917 80.25V170.667H135.667V52.5833H112.833L75.0833 74.75L87.0833 94.5L109.917 80.25ZM213.333 85.3333H469.333V128H213.333V85.3333ZM213.333 234.666H469.333V277.333H213.333V234.666ZM213.333 384H469.333V426.667H213.333V384ZM71.6667 320V300C88.0556 286.222 100.306 275.444 108.417 267.667C117.083 259.333 122.917 252.972 125.917 248.583C128.972 244.139 130.5 239.778 130.5 235.5C130.5 231.111 128.667 227.556 125 224.833C121.389 222.056 116.667 220.667 110.833 220.667C102.5 220.667 92 223.361 79.3333 228.75L72.6667 208.083C86.6667 202.583 100.472 199.833 114.083 199.833C127.528 199.833 137.972 202.722 145.417 208.5C153.25 214.556 157.167 223.167 157.167 234.333C157.167 241.444 155.583 247.917 152.417 253.75C149.306 259.583 143.611 266.639 135.333 274.917C128.5 281.75 119.694 289.833 108.917 299.167H158.167V320H71.6667ZM75.5 444L69.75 464.75C81.5278 469.306 94.6667 471.583 109.167 471.583C119.667 471.583 128.306 470.25 135.083 467.583C141.861 464.917 147.139 460.778 150.917 455.167C154.806 449.444 156.75 442.917 156.75 435.583C156.75 427.472 154.389 421.083 149.667 416.417C145.556 412.417 139.389 409.806 131.167 408.583C139.444 407.306 145.583 404.472 149.583 400.083C153.583 395.639 155.583 389.528 155.583 381.75C155.583 370.306 151.333 361.833 142.833 356.333C135.389 351.556 125.222 349.167 112.333 349.167C98.8333 349.167 85.8889 351.417 73.5 355.917L79.0833 376.417C90.1389 372.139 99.9444 370 108.5 370C115.111 370 120.167 371.222 123.667 373.667C127.222 376.056 129 379.5 129 384C129 388.667 126.694 392.306 122.083 394.917C117.361 397.639 108.694 399 96.0833 399C93.5278 399 90.9444 398.944 88.3333 398.833V418.25C93.7778 418.028 98.1944 417.917 101.583 417.917C110.639 417.917 117.278 418.944 121.5 421C127.222 423.778 130.083 428.25 130.083 434.417C130.083 438.694 128.611 442.25 125.667 445.083C121.889 448.861 115.472 450.75 106.417 450.75C95.4722 450.75 85.1667 448.5 75.5 444Z"/></svg>