<svg width="512" height="512" viewBox="0 0 512 512" fill="none" xmlns="http://www.w3.org/2000/svg"><path fill-rule="evenodd" clip-rule="evenodd" d="M64 64H128V106.667H64V64ZM64 170.667H128V213.333H64V170.667ZM128 277.333H64V320H128V277.333ZM170.667 64H448V106.667H170.667V64ZM448 170.667H170.667V213.333H448V170.667ZM170.667 277.333H213.333V320H170.667V277.333ZM128 384H64V426.667H128V384ZM213.333 384H170.667V426.667H213.333V384ZM343.625 306.083C336.458 295.833 325 290.708 309.25 290.708C294.75 290.708 283.833 295 276.5 303.583C269.167 312.333 265.5 324.583 265.5 340.333C265.5 355.25 268.583 367.042 274.75 375.708C281.917 385.958 293.375 391.083 309.125 391.083C323.625 391.083 334.542 386.75 341.875 378.083C349.208 369.417 352.875 357 352.875 340.833C352.875 326.333 349.792 314.75 343.625 306.083ZM297.625 319.458C300.375 314.458 304.25 311.958 309.25 311.958C314.25 311.958 318.083 314.458 320.75 319.458C323.417 324.375 324.75 331.5 324.75 340.833C324.75 350.25 323.417 357.458 320.75 362.458C318.083 367.375 314.25 369.833 309.25 369.833C298.833 369.833 293.625 360.083 293.625 340.583C293.625 331.417 294.958 324.375 297.625 319.458ZM395 288.083L324.625 473.458H349.375L419.75 288.083H395ZM469.625 385.833C462.458 375.583 451 370.458 435.25 370.458C420.75 370.458 409.833 374.75 402.5 383.333C395.167 392.083 391.5 404.375 391.5 420.208C391.5 435.042 394.583 446.792 400.75 455.458C407.917 465.708 419.375 470.833 435.125 470.833C449.625 470.833 460.542 466.542 467.875 457.958C475.208 449.208 478.875 436.75 478.875 420.583C478.875 406.083 475.792 394.5 469.625 385.833ZM423.625 399.083C426.292 394.167 430.167 391.708 435.25 391.708C445.583 391.708 450.75 401.333 450.75 420.583C450.75 439.917 445.583 449.583 435.25 449.583C424.833 449.583 419.625 439.833 419.625 420.333C419.625 411.083 420.958 404 423.625 399.083Z"/></svg>