<svg width="512" height="512" viewBox="0 0 512 512" fill="none" xmlns="http://www.w3.org/2000/svg"><path d="M118.855 338.285C149.152 338.285 173.713 362.846 173.713 393.143C173.713 423.392 149.229 447.923 118.997 447.999H118.714C88.5768 447.923 64.1523 423.545 64 393.426V392.858C64.153 362.692 88.6536 338.285 118.855 338.285ZM118.857 201.144C224.896 201.144 310.857 287.105 310.857 393.144C310.857 412.205 308.079 430.618 302.906 447.999H244.59C251.929 431.2 256 412.647 256 393.144C256 317.402 194.599 256.001 118.857 256.001C99.3527 256.001 80.7991 260.073 64 267.413V209.095C81.3818 203.922 99.7952 201.144 118.857 201.144ZM118.854 64C300.635 64 447.998 211.362 447.998 393.143C447.998 411.833 446.439 430.159 443.446 447.999H387.653C391.251 430.274 393.141 411.929 393.141 393.143C393.14 241.659 270.338 118.857 118.854 118.857C100.069 118.857 81.7241 120.746 64 124.344V68.5508C81.8392 65.558 100.165 64 118.854 64Z"/></svg>