<svg width="512" height="512" viewBox="0 0 512 512" fill="none" xmlns="http://www.w3.org/2000/svg"><path fill-rule="evenodd" clip-rule="evenodd" d="M389.676 102.627L387.382 85.3335H333.73L331.43 102.616L329.997 113.323L327.18 114.952L324.656 116.616L315.166 112.577L299.873 106.072L291.616 121.147L281.351 139.888L273.079 154.989L286.08 165.749L294.112 172.394L294.087 172.705C294.04 173.712 294.015 174.706 294.015 175.686L294.087 178.643L294.131 179.06L286.082 185.729L273.073 196.488L281.347 211.593L291.618 230.344L299.873 245.417L315.166 238.915L324.637 234.878L327.271 236.618L329.997 238.171L331.405 248.748L333.699 266.039H387.348L389.649 248.758L391.065 238.03L393.899 236.422L396.406 234.737L405.911 238.795L421.206 245.3L429.463 230.225L439.728 211.485L448 196.384L434.999 185.624L426.969 178.979L426.99 178.668C427.039 177.661 427.062 176.667 427.062 175.686L426.992 172.73L426.95 172.273L435.001 165.633L448 154.873L439.728 139.773L429.461 121.028L421.204 105.956L405.913 112.458L396.425 116.475L393.808 114.754L391.065 113.182L389.676 102.627ZM362.405 215.843C383.4 215.843 400.418 197.864 400.418 175.686C400.418 153.508 383.4 135.53 362.405 135.53C341.41 135.53 324.392 153.508 324.392 175.686C324.392 197.864 341.41 215.843 362.405 215.843ZM180.601 263.255L178.308 245.961H124.656L122.355 263.242L120.922 273.95L118.106 275.579L115.581 277.243L106.092 273.205L90.7989 266.7L82.5418 281.775L72.2759 300.516L64.004 315.617L77.0048 326.377L85.0374 333.021L85.0137 333.332C84.9658 334.34 84.9414 335.334 84.9414 336.314L85.0121 339.269L85.0566 339.687L77.0069 346.357L64 357.115L72.2734 372.22L82.5436 390.971L90.7989 406.044L106.091 399.543L115.562 395.505L118.196 397.246L120.922 398.798L122.332 409.375L124.626 426.667H178.274L180.575 409.385L181.991 398.657L184.824 397.049L187.332 395.365L196.838 399.422L212.131 405.928L220.388 390.853L230.654 372.112L238.926 357.011L225.925 346.251L217.895 339.607L217.916 339.296C217.964 338.288 217.989 337.294 217.989 336.314L217.918 333.358L217.876 332.901L225.927 326.261L238.926 315.501L230.654 300.402L220.387 281.656L212.131 266.583L196.839 273.085L187.351 277.103L184.734 275.382L181.991 273.81L180.601 263.255ZM153.331 376.471C174.325 376.471 191.344 358.492 191.344 336.314C191.344 314.135 174.325 296.157 153.331 296.157C132.336 296.157 115.317 314.135 115.317 336.314C115.317 358.492 132.336 376.471 153.331 376.471ZM448 384H256V426.667H448V384ZM64 85.3335H256V128H64V85.3335ZM256 213.333H213.333V256H256V213.333Z"/></svg>