<svg width="512" height="512" viewBox="0 0 512 512" fill="none" xmlns="http://www.w3.org/2000/svg"><path fill-rule="evenodd" clip-rule="evenodd" d="M85.3333 136.835L48.9114 100.413L79.0813 70.2461L94.1673 85.332H94.1686L192 183.163V183.165L200.834 191.999H200.835L243.502 234.665H243.501L284.818 275.982C284.818 275.982 284.818 275.982 284.819 275.982L315.908 307.072C315.908 307.072 315.908 307.072 315.907 307.072L361.379 352.543C361.379 352.543 361.379 352.543 361.379 352.543L391.603 382.766C391.603 382.767 391.602 382.767 391.602 382.767L441.748 432.913L411.578 463.08L355.994 407.496C332.455 419.743 305.703 426.665 277.333 426.665H85.3333V277.332H225.83L183.163 234.665H85.3333V136.835ZM268.497 319.999H192V383.999H277.333C293.725 383.999 309.396 380.918 323.801 375.303L268.497 319.999ZM154.508 85.332L197.175 127.999H277.333C348.026 127.999 405.333 185.306 405.333 255.999C405.333 279.06 399.234 300.698 388.562 319.385L419.552 350.376C437.527 323.344 448 290.895 448 255.999C448 161.742 371.59 85.332 277.333 85.332H154.508ZM339.682 270.506L261.175 191.999H277.333C312.68 191.999 341.333 220.652 341.333 255.999C341.333 260.988 340.762 265.845 339.682 270.506Z"/></svg>