<svg width="512" height="512" viewBox="0 0 512 512" fill="none" xmlns="http://www.w3.org/2000/svg"><path fill-rule="evenodd" clip-rule="evenodd" d="M42.6667 362.667V64H426.667V294.838C423.285 289.776 418.767 285.557 413.46 282.524C404.161 277.21 393.607 276.104 384 278.605V128L234.667 257.013L85.3334 128V320H170.659C161.342 332.403 154.667 346.904 151.467 362.667H42.6667ZM234.667 202.667L346.667 106.667H122.667L234.667 202.667ZM332.151 345.438C331.708 344.584 331.326 343.862 331.014 343.288C316.557 316.708 288.385 298.667 256 298.667C208.872 298.667 170.667 336.872 170.667 384C170.667 431.128 208.872 469.333 256 469.333C264.309 469.333 272.34 468.146 279.934 465.931C278.254 461.553 277.333 456.798 277.333 451.828C277.333 444.974 279.122 438.239 282.523 432.288L284.953 428.034L283.413 426.496L256 399.083L224 431.085L208.915 416L240.896 384L208.915 352L224 336.915L256 368.896L288 336.915L303.085 352L271.083 384L294.379 407.296C294.379 407.296 294.912 407.879 295.89 408.895L332.151 345.438ZM409.593 307.769C407.994 304.97 405.675 302.651 402.876 301.052C394.22 296.106 383.193 299.113 378.247 307.769L301.045 442.873C299.486 445.6 298.667 448.687 298.667 451.829C298.667 461.798 306.749 469.88 316.718 469.88H471.122C474.264 469.88 477.351 469.06 480.078 467.501C488.734 462.555 491.741 451.529 486.795 442.873L409.593 307.769ZM407.155 397.591H380.078V343.437H407.155V397.591ZM393.617 415.643C403.932 415.643 411.668 423.28 411.668 433.694C411.668 444.108 403.932 451.745 393.617 451.745C383.067 451.745 375.565 444.108 375.565 433.462C375.565 423.28 383.302 415.643 393.617 415.643Z"/></svg>