<svg width="24" height="24" viewBox="0 0 24 24" fill="none" xmlns="http://www.w3.org/2000/svg"><path d="M8 2C11.3137 2 14 4.6863 14 8C14 8.60617 13.9103 9.19159 13.7432 9.74316L20 16C21.1046 17.1046 21.1046 18.8954 20 20C18.9645 21.0355 17.3258 21.1003 16.2148 20.1943L16 20L9.74316 13.7432C9.19159 13.9103 8.60617 14 8 14C4.6863 14 2.00001 11.3137 2 8C2 7.36051 2.09987 6.74397 2.28516 6.16602L5.12305 9L7.93652 8.06348L8.0625 7.9375L9 5.12695L6.1582 2.28809C6.73847 2.10115 7.35756 2 8 2ZM12.5859 11.5703C12.2612 11.254 11.7424 11.2576 11.4219 11.5781C11.0953 11.9047 11.0988 12.4356 11.4297 12.7578L17.4141 18.5859C17.7376 18.9094 18.2624 18.9094 18.5859 18.5859C18.9094 18.2624 18.9094 17.7376 18.5859 17.4141L12.5859 11.5703Z"/></svg>