<svg width="24" height="24" viewBox="0 0 24 24" fill="none" xmlns="http://www.w3.org/2000/svg"><path d="M22 8V16L16 22H8.03125L2 15.9688V8L8.03125 2H16L22 8ZM11.9131 7.41211C10.9446 6.71785 9.69796 6.5045 8.81543 6.73047L10.3965 8.22461L9.67188 9.78418L8.15527 10.5967L6.57422 9.10254C6.39857 9.99641 6.68194 11.2286 7.42969 12.1562C8.43419 12.8846 9.6511 13.1052 10.5273 12.8379L14.1299 16.0693C14.8117 16.6373 15.4757 16.5795 16.1221 15.8955C16.8088 15.1688 16.7889 14.4621 16.0625 13.7754C13.8409 11.7157 12.7424 10.612 12.7686 10.4658C12.9858 9.57597 12.6969 8.37381 11.9131 7.41211Z"/></svg>