<svg width="24" height="24" viewBox="0 0 24 24" fill="none" xmlns="http://www.w3.org/2000/svg"><path d="M7.5 4C10.5376 4 13 6.46243 13 9.5C13 10.0711 12.9125 10.6217 12.751 11.1396L18.252 16.6406C19.2492 17.6379 19.2492 19.2556 18.252 20.2529C17.2546 21.2497 15.6368 21.25 14.6396 20.2529L9.13867 14.751C8.62103 14.9123 8.07078 15 7.5 15C4.46243 15 2 12.5376 2 9.5C2 8.91382 2.09188 8.34912 2.26172 7.81934L4.86328 10.417L7.19434 9.63965L7.63965 9.19434L8.41699 6.86621L5.81152 4.26367C6.34344 4.09232 6.9111 4 7.5 4ZM11.8203 12.9004C11.5066 13.2984 11.1398 13.6519 10.7295 13.9502C10.7707 14.0645 10.8368 14.1722 10.9297 14.2627L15.9141 19.0908C16.2374 19.4141 16.7624 19.4136 17.0859 19.0908C17.4095 18.7673 17.4094 18.2425 17.0859 17.9189L12.0859 13.0752C12.0068 12.9982 11.9168 12.9395 11.8203 12.9004ZM20 14.25H18V8.25H20V14.25ZM19 4C19.6904 4 20.25 4.55964 20.25 5.25C20.25 5.94036 19.6904 6.5 19 6.5C18.3096 6.5 17.75 5.94036 17.75 5.25C17.75 4.55964 18.3096 4 19 4Z"/></svg>