<svg width="24" height="24" viewBox="0 0 24 24" fill="none" xmlns="http://www.w3.org/2000/svg"><path fill-rule="evenodd" clip-rule="evenodd" d="M21 3.00004L3.00002 3L3 21H21V3.00004ZM10.5044 8.18086L9.73515 9.71932L8.19669 10.4886L6.65823 8.95009C6.45728 9.83869 6.7061 11.0785 7.42746 12.027C8.41098 12.7835 9.62093 13.0386 10.5044 12.7962L14.0139 16.1279C14.6794 16.7151 15.3449 16.6759 16.0104 16.0104C16.7175 15.3033 16.7175 14.5962 16.0104 13.8891C13.8479 11.7674 12.7818 10.6339 12.8121 10.4886C13.0545 9.60518 12.7993 8.3952 12.0428 7.41163C11.0944 6.69026 9.85449 6.44147 8.96592 6.6424L10.5044 8.18086Z"/></svg>