<svg width="24" height="24" viewBox="0 0 24 24" fill="none" xmlns="http://www.w3.org/2000/svg"><path fill-rule="evenodd" clip-rule="evenodd" d="M7.19411 9.64039L7.6399 9.1946L8.41667 6.86636L5.81191 4.26391C6.34382 4.09255 6.9111 4 7.5 4C10.5376 4 13 6.46243 13 9.5C13 10.0711 12.913 10.6219 12.7514 11.1398L18.252 16.6404C19.2494 17.6377 19.2494 19.2547 18.252 20.252C17.2547 21.2493 15.6378 21.2493 14.6404 20.252L9.13983 14.7514C8.62192 14.9129 8.07112 15 7.5 15C4.46243 15 2 12.5376 2 9.5C2 8.9138 2.09171 8.34902 2.26156 7.81922L4.86321 10.4167L7.19411 9.64039ZM19 6.5C19.6904 6.5 20.25 5.94036 20.25 5.25C20.25 4.55964 19.6904 4 19 4C18.3096 4 17.75 4.55964 17.75 5.25C17.75 5.94036 18.3096 6.5 19 6.5ZM20 14.25V8.25H18V14.25H20Z"/></svg>