<svg width="24" height="24" viewBox="0 0 24 24" fill="none" xmlns="http://www.w3.org/2000/svg"><path d="M21 21.0001H3C3 19.0454 3 3.09886 3 3.00012H21V21.0001ZM5 19.0001H19V5.00012H5V19.0001ZM9.375 7.0675C10.2636 6.86661 11.5037 7.11471 12.4521 7.83606C13.2085 8.81962 13.4631 10.0298 13.2207 10.9132C13.1905 11.0586 14.2567 12.1922 16.4189 14.3136C17.126 15.0207 17.126 15.7276 16.4189 16.4347C15.7535 17.1001 15.0883 17.1399 14.4229 16.5529L10.9131 13.2208C10.0296 13.4632 8.81941 13.2077 7.83594 12.4513C7.11492 11.5029 6.86658 10.2636 7.06738 9.37512L8.60547 10.9132L10.1436 10.1437L10.9131 8.60559L9.375 7.0675Z"/></svg>