<svg width="24" height="24" viewBox="0 0 24 24" fill="none" xmlns="http://www.w3.org/2000/svg"><path d="M10.5594 2.08579C11.3405 1.30474 12.6075 1.30474 13.3885 2.08579L21.8622 10.5594C22.6429 11.3405 22.6431 12.6076 21.8622 13.3885L13.3885 21.8622C12.6076 22.6431 11.3405 22.6429 10.5594 21.8622L2.08579 13.3885C1.30474 12.6075 1.30474 11.3405 2.08579 10.5594L10.5594 2.08579ZM3.49985 11.9735L11.9735 20.4481L15.1756 17.245C15.0914 17.1907 15.0069 17.1269 14.9227 17.0526L11.4129 13.7206C10.5295 13.963 9.3193 13.7075 8.33579 12.951C7.6147 12.0026 7.36642 10.7633 7.56723 9.87485L9.10532 11.4129L10.6434 10.6434L11.4129 9.10532L9.87485 7.56723C10.7633 7.36643 12.0027 7.61469 12.951 8.33579C13.7074 9.31935 13.9629 10.5296 13.7206 11.4129C13.6904 11.5584 14.7565 12.6919 16.9188 14.8133C17.0448 14.9393 17.1473 15.0662 17.2284 15.1922L20.4481 11.9735L11.9735 3.49985L3.49985 11.9735Z"/></svg>