<svg width="512" height="512" viewBox="0 0 512 512" fill="none" xmlns="http://www.w3.org/2000/svg"><path fill-rule="evenodd" clip-rule="evenodd" d="M308.209 85.3359L316.992 88.3083L455.659 135.242L469.333 139.871V152.764V207.471C457.518 194.956 442.98 185.039 426.667 178.668V165.658L341.333 136.776V178.668C325.02 185.039 310.482 194.956 298.667 207.471V131.513L213.333 169.06V316.001C230.962 308.932 251.328 301.022 266.918 295.74C267.774 308.895 270.798 321.458 275.637 333.077C260.694 338.389 242.024 345.718 225.737 352.298C215.91 356.269 207.108 359.9 200.764 362.539C197.594 363.857 195.04 364.927 193.284 365.665L191.269 366.513L190.753 366.731L190.625 366.786L190.594 366.799L181.593 370.612L172.506 366.977L55.1723 320.043L42.6667 315.04V302.952V115.217V86.0619L72.8277 98.1265L180.896 141.354L299.793 89.039L308.209 85.3359ZM85.3333 144.373L170.667 178.506V324.998L85.3333 290.864V144.373ZM383.993 213.336C427.194 213.336 462.215 248.357 462.215 291.558C462.215 305.808 458.416 319.159 451.748 330.674C445.08 342.188 383.993 448.003 383.993 448.003C383.993 448.003 322.906 342.188 316.238 330.674C309.57 319.159 305.771 305.808 305.771 291.558C305.771 248.357 340.792 213.336 383.993 213.336ZM417.516 291.558C417.516 310.073 402.506 325.082 383.992 325.082C365.477 325.082 350.468 310.073 350.468 291.558C350.468 273.044 365.477 258.034 383.992 258.034C402.506 258.034 417.516 273.044 417.516 291.558Z"/></svg>