<svg width="512" height="512" viewBox="0 0 512 512" fill="none" xmlns="http://www.w3.org/2000/svg"><path fill-rule="evenodd" clip-rule="evenodd" d="M369.308 48.1548C416.672 55.1554 456.627 91.2832 462.795 137.127C465.482 164.394 464.151 205.363 463.505 225.278C463.344 230.234 463.225 233.886 463.222 235.698C463.222 238.374 462.834 262.808 462.679 265.387C458.528 330.895 417.68 356.764 374.758 365.006C374.295 365.145 373.77 365.247 373.232 365.351C373.095 365.378 372.956 365.404 372.818 365.432C345.606 370.746 316.454 372.161 288.796 372.937C282.182 373.112 275.587 373.112 268.974 373.112C241.474 373.119 214.07 369.864 187.338 363.416C187.196 363.379 187.047 363.376 186.904 363.407C186.761 363.438 186.628 363.503 186.514 363.596C186.401 363.688 186.311 363.806 186.252 363.94C186.193 364.073 186.166 364.22 186.174 364.366C186.929 373.068 188.82 381.635 191.798 389.847C195.503 399.35 208.44 422.174 256.541 422.174C284.492 422.225 312.35 418.971 339.535 412.478C339.673 412.446 339.817 412.446 339.955 412.476C340.093 412.507 340.223 412.568 340.335 412.656C340.447 412.743 340.537 412.855 340.6 412.981C340.663 413.109 340.697 413.248 340.699 413.39V445.542C340.694 445.693 340.655 445.842 340.584 445.976C340.513 446.11 340.414 446.227 340.292 446.318C331.792 452.478 320.362 456.099 310.353 459.271C309.901 459.414 309.452 459.556 309.006 459.698C304.455 461.134 299.845 462.394 295.177 463.48C252.746 473.143 208.461 470.806 167.282 456.731C128.82 443.234 89.5636 410.151 79.8657 370.397C74.6868 348.872 71.0377 327.007 68.9459 304.967C66.7481 280.865 66.0137 256.722 65.2783 232.546C65.0013 223.44 64.7241 214.328 64.3686 205.213C63.457 181.981 63.9806 156.655 68.8877 133.811C79.0899 87.4242 121.14 54.9614 167.185 48.1548C168.131 48.0147 169.177 47.8308 170.401 47.6155C179.514 46.0125 198.535 42.6667 260.382 42.6667H260.905C331.04 42.6667 361.316 46.9718 369.308 48.1548ZM394.794 302.524V188.633C394.807 165.349 388.878 146.861 377.008 133.171C364.711 119.499 348.632 112.479 328.693 112.479C305.632 112.479 288.176 121.36 276.538 139.105L265.289 157.954L254.059 139.105C242.421 121.36 224.965 112.479 201.865 112.479C181.907 112.479 165.828 119.499 153.57 133.171C141.687 146.874 135.745 165.362 135.745 188.633V302.524H180.859V191.988C180.859 168.717 190.654 156.849 210.263 156.849C231.948 156.849 242.829 170.889 242.829 198.62V259.124H287.691V198.62C287.691 170.889 298.552 156.849 320.237 156.849C339.963 156.849 349.66 168.717 349.66 191.988V302.524H394.794Z"/></svg>