<svg width="512" height="512" viewBox="0 0 512 512" fill="none" xmlns="http://www.w3.org/2000/svg"><path fill-rule="evenodd" clip-rule="evenodd" d="M42.6667 426.669H469.333V256.003H42.6667V426.669ZM85.3334 298.669H106.667V341.336H149.333V298.669H170.667V362.669H213.333V298.669H234.667V341.336H277.333V298.669H298.667V362.669H341.333V298.669H362.667V341.336H405.333V298.669H426.667V383.042H85.3334V298.669ZM335.625 213.336C328.248 226.089 314.459 234.669 298.667 234.669C275.103 234.669 256 215.567 256 192.003C256 168.438 275.103 149.336 298.667 149.336C314.459 149.336 328.248 157.916 335.625 170.669H362.667H469.333V213.336H362.667H335.625ZM282.484 116.184L252.314 85.3359L170.667 170.669H42.6667V213.336H192L282.484 116.184Z"/></svg>