<svg width="512" height="512" viewBox="0 0 512 512" fill="none" xmlns="http://www.w3.org/2000/svg"><path d="M430.369 314.667C441.462 297.813 448.076 277.547 448.076 256C448.076 197.12 400.289 149.333 341.409 149.333C282.529 149.333 234.742 197.12 234.742 256C234.742 280.107 243.062 302.08 256.502 320H85.4089V106.667H426.742V149.333H469.409V64H42.7422V362.667H234.742V426.667H149.409V469.333H362.742V426.667H277.409V362.667H341.409C363.169 362.667 383.222 356.053 400.076 344.96L448.076 392.96L478.156 362.88L430.156 314.88L430.369 314.667ZM341.409 320C306.209 320 277.409 291.2 277.409 256C277.409 220.8 306.209 192 341.409 192C376.609 192 405.409 220.8 405.409 256C405.409 291.2 376.609 320 341.409 320Z"/></svg>