<svg xmlns="http://www.w3.org/2000/svg" width="512" height="512" viewBox="0 0 512 512"><path fill-rule="evenodd" d="M384,64 L384,384 L64,384 L64,64 L384,64 Z M341.333333,106.666667 L106.666667,106.666667 L106.666667,341.333333 L341.333333,341.333333 L341.333333,106.666667 Z M304.620334,234.169887 L320.49678,261.953667 L231.938223,312.558557 L219.26366,319.801165 L210.892289,307.842064 L195.242667,285.504 L158.633144,311.686402 L145.613409,320.986213 L127.013787,294.946742 L140.033522,285.646931 L189.8113,250.091376 L202.955623,240.702573 L212.218822,253.935714 L228.714667,277.525333 L290.728444,242.10811 L304.620334,234.169887 Z M320,1.42108547e-14 L320,42.6666667 L42.6666667,42.6666667 L42.6666667,320 L1.42108547e-14,320 L1.42108547e-14,1.42108547e-14 L320,1.42108547e-14 Z M297.70936,126.726176 L321.273824,148.376027 L310.448899,160.158259 L258.182232,217.047148 L249.125239,226.9051 L237.82387,219.729627 L204.309333,198.464 L161.115565,245.491592 L150.29064,257.273824 L126.726176,235.623973 L137.551101,223.841741 L189.817768,166.952852 L198.874761,157.0949 L210.17613,164.270373 L243.669333,185.536 L286.884435,138.508408 L297.70936,126.726176 Z" transform="translate(64 64)"/></svg>