<svg xmlns="http://www.w3.org/2000/svg" width="512" height="512" viewBox="0 0 512 512"><g fill-rule="evenodd" transform="translate(64 64)"><path d="M362.666667,256 L362.666,320 L426.666667,320 L426.666667,362.666667 L362.666,362.666 L362.666667,426.666667 L320,426.666667 L320,362.666 L256,362.666667 L256,320 L320,320 L320,256 L362.666667,256 Z M362.666667,0 L362.666,234.666 L319.999,234.666 L320,42.6666667 L42.6666667,42.6666667 L42.6666667,320 L234.666,319.999 L234.666,362.666 L0,362.666667 L0,0 L362.666667,0 Z"/><polygon fill-rule="nonzero" points="274.662 62.864 299.803 82.662 289.904 95.232 222.704 180.566 213.093 192.77 200.61 183.524 154.688 149.504 97.226 213.37 86.523 225.263 62.737 203.856 73.441 191.963 140.641 117.297 150.37 106.486 162.057 115.143 207.147 148.544 264.763 75.434"/><polygon fill-rule="nonzero" points="281.771 191.145 299.521 217.771 190.209 290.646 175.598 300.386 167.255 284.936 147.52 248.384 95.28 289.866 82.747 299.812 62.854 274.747 75.387 264.801 142.587 211.467 157.541 199.599 166.612 216.398 187.051 254.272 268.458 200.021"/></g></svg>