<svg width="512" height="512" viewBox="0 0 512 512" fill="none" xmlns="http://www.w3.org/2000/svg"><path d="M298.667 85.3333C316.046 85.3333 332.986 87.9003 349.134 92.9109C307.214 132.38 281.016 187.321 278.465 246.324C275.613 312.282 302.526 375.196 349.115 419.094C332.971 424.102 316.039 426.667 298.667 426.667C204.561 426.667 128 350.106 128 256C128 161.894 204.561 85.3333 298.667 85.3333ZM298.667 42.6666C180.847 42.6666 85.3335 138.18 85.3335 256C85.3335 373.82 180.847 469.333 298.667 469.333C348.92 469.333 395.026 451.846 431.483 422.773C363.882 394.066 317.732 325.866 321.091 248.167C324.211 176.014 369.182 115.726 431.49 89.2305C395.033 60.1548 348.923 42.6666 298.667 42.6666Z"/></svg>