<svg width="512" height="512" viewBox="0 0 512 512" fill="none" xmlns="http://www.w3.org/2000/svg"><path fill-rule="evenodd" clip-rule="evenodd" d="M426.667 96C426.667 101.891 421.89 106.667 416 106.667C410.11 106.667 405.333 101.891 405.333 96C405.333 90.109 410.11 85.3333 416 85.3333C421.89 85.3333 426.667 90.109 426.667 96ZM469.333 96C469.333 125.455 445.455 149.333 416 149.333C386.545 149.333 362.667 125.455 362.667 96C362.667 66.5448 386.545 42.6666 416 42.6666C445.455 42.6666 469.333 66.5448 469.333 96ZM106.667 416C106.667 421.89 101.891 426.667 96.0001 426.667C90.1091 426.667 85.3334 421.89 85.3334 416C85.3334 410.11 90.1091 405.333 96.0001 405.333C101.891 405.333 106.667 410.11 106.667 416ZM149.333 416C149.333 445.455 125.455 469.333 96.0001 469.333C66.5449 469.333 42.6667 445.455 42.6667 416C42.6667 386.545 66.5449 362.667 96.0001 362.667C125.455 362.667 149.333 386.545 149.333 416ZM320 222.17L164.418 377.751L134.248 347.582L289.83 192H234.667V149.333H362.667V277.333H320V222.17Z"/></svg>