<svg width="512" height="512" viewBox="0 0 512 512" fill="none" xmlns="http://www.w3.org/2000/svg"><path fill-rule="evenodd" clip-rule="evenodd" d="M295.509 106.667C340.075 132.821 377.771 169.323 405.333 212.992L405.333 106.667H295.509ZM405.333 322.389C380.544 214.997 295.147 131.989 186.944 110.336L168.555 106.667H106.667V150.142C242.83 160.498 351.502 269.17 361.858 405.333H405.333L405.333 322.389ZM405.333 448H362.667H320H256H213.333L64 448V298.667V256V192V149.333V106.667V85.3333V64H448V448L426.667 448H405.333ZM106.667 192.957V260.757C178.454 277.043 234.957 333.546 251.243 405.333H319.043C308.898 292.757 219.243 203.102 106.667 192.957ZM207.149 405.333C192.814 357.167 154.833 319.186 106.667 304.851V405.333H207.149Z"/></svg>