<svg width="512" height="512" viewBox="0 0 512 512" fill="none" xmlns="http://www.w3.org/2000/svg"><path fill-rule="evenodd" clip-rule="evenodd" d="M170.667 42.668H341.333V170.668H277.333V234.668H469.333V277.335H405.333V341.335H469.333V469.335H298.667V341.335H362.667V277.335H234.667V234.668V170.668H170.667V42.668ZM213.333 85.3346H298.667V128.001H213.333V85.3346ZM42.6667 234.668H213.333V256.001H42.6667V234.668ZM181.333 277.335H74.6667V298.668H181.333V277.335ZM106.667 320.001H149.333V341.335H213.333V469.335H42.6667V341.335H106.667V320.001ZM85.3334 384.001H170.667V426.668H85.3334V384.001ZM426.667 384.001H341.333V426.668H426.667V384.001Z"/></svg>