<svg xmlns="http://www.w3.org/2000/svg" width="512" height="512" viewBox="0 0 512 512"><g fill-rule="evenodd" transform="translate(42.667 42.667)"><path d="M178.0832,42.6666667 L221.594,77.0716667 L191.217,107.448667 L163.24992,85.3333333 L42.6666667,85.3333333 L42.6666667,296.106667 L82.0209067,170.666667 L341.333333,170.666667 L341.333,170.665667 L384,170.665667 L437.333333,170.666667 L372.583253,384 L-2.13162821e-14,384 L-2.13162821e-14,42.6666667 L178.0832,42.6666667 Z M379.79136,213.333333 L113.354027,213.333333 L73.1874133,341.333333 L340.95808,341.333333 L379.79136,213.333333 Z"/><path fill-rule="nonzero" d="M384,7.10542736e-15 L384,149.333333 L341.333333,149.333333 L341.332777,72.836 L264.836777,149.332777 L204.496777,149.333333 L311.162777,42.666 L234.666667,42.6666667 L234.666667,7.10542736e-15 L384,7.10542736e-15 Z"/></g></svg>