<svg width="512" height="512" viewBox="0 0 512 512" fill="none" xmlns="http://www.w3.org/2000/svg"><path d="M256 42.667C373.638 42.667 469.333 128.502 469.333 234C469.291 267.215 456.071 299.057 432.583 322.542C409.094 346.027 374.548 362.63 341.333 362.667H304.25C299.538 362.667 295.228 363.087 291.896 366.417C288.562 369.751 287.292 372.348 287.292 377.062C287.378 381.456 289.019 385.677 291.896 389C299.868 397.778 304.266 409.225 304.25 421.083L304.021 425.854C302.923 436.899 298.042 447.291 290.125 455.208L286.583 458.396C277.995 465.434 267.201 469.333 256 469.333C138.362 469.333 42.667 373.638 42.667 256C42.667 138.362 138.362 42.667 256 42.667ZM256 85.333C161.926 85.333 85.333 161.926 85.333 256C85.333 350.074 161.926 426.667 256 426.667C257.482 426.667 258.91 426.068 259.958 425.021C261 423.974 261.582 422.559 261.583 421.083V421.021C261.585 419.791 261.139 418.598 260.312 417.688L259.958 417.312L259.625 416.938C250.219 406.072 244.922 392.244 244.646 377.875L244.625 377.458V377.062C244.625 370.829 245.464 362.683 249.292 354C252.994 345.603 258.15 339.809 261.708 336.25L264.875 333.312C279.854 320.518 297 320.013 303.167 320H341.292C361.406 319.975 385.549 309.239 402.417 292.375C417.902 276.891 426.625 255.897 426.667 234L426.458 226.729C422.134 151.941 351.479 85.333 256 85.333ZM138.667 213.333C156.34 213.333 170.667 227.66 170.667 245.333C170.667 263.006 156.34 277.333 138.667 277.333C120.994 277.333 106.667 263.006 106.667 245.333C106.667 227.66 120.994 213.333 138.667 213.333ZM373.333 213.333C391.006 213.333 405.333 227.66 405.333 245.333C405.333 263.006 391.006 277.333 373.333 277.333C355.66 277.333 341.333 263.006 341.333 245.333C341.333 227.66 355.66 213.333 373.333 213.333ZM202.667 128C220.34 128 234.667 142.327 234.667 160C234.667 177.673 220.34 192 202.667 192C184.994 192 170.667 177.673 170.667 160C170.667 142.327 184.994 128 202.667 128ZM309.333 128C327.006 128 341.333 142.327 341.333 160C341.333 177.673 327.006 192 309.333 192C291.66 192 277.333 177.673 277.333 160C277.333 142.327 291.66 128 309.333 128Z"/></svg>