<svg width="512" height="512" viewBox="0 0 512 512" fill="none" xmlns="http://www.w3.org/2000/svg"><path fill-rule="evenodd" clip-rule="evenodd" d="M469.342 305.866L469.333 106.667H42.6667V405.333L260.418 405.337C257.54 395.164 256 384.428 256 373.333C256 369.741 256.162 366.186 256.478 362.675L85.3334 362.667V170.667H426.667L426.675 268.798C443.739 277.523 458.385 290.303 469.342 305.866ZM85.3334 128H149.333V149.333H85.3334V128ZM373.333 277.333C320.314 277.333 277.333 320.314 277.333 373.333C277.333 426.353 320.314 469.333 373.333 469.333C426.353 469.333 469.333 426.353 469.333 373.333C469.333 320.314 426.353 277.333 373.333 277.333ZM354.478 373.334L315.906 334.763L334.763 315.906L373.334 354.478L411.906 315.906L430.763 334.763L392.191 373.334L430.763 411.906L411.906 430.763L373.334 392.191L334.763 430.763L315.906 411.906L354.478 373.334Z"/></svg>