<svg width="512" height="512" viewBox="0 0 512 512" fill="none" xmlns="http://www.w3.org/2000/svg"><path fill-rule="evenodd" clip-rule="evenodd" d="M469.342 305.866L469.333 106.667H42.6667V405.333L260.418 405.337C257.54 395.164 256 384.428 256 373.333C256 369.741 256.162 366.186 256.478 362.675L85.3334 362.667V170.667H426.667L426.675 268.798C443.739 277.523 458.385 290.303 469.342 305.866ZM85.3334 128H149.333V149.333H85.3334V128ZM277.341 374.705C277.341 321.685 320.322 278.705 373.341 278.705C426.36 278.705 469.341 321.685 469.341 374.705C469.341 427.724 426.36 470.705 373.341 470.705C320.322 470.705 277.341 427.724 277.341 374.705ZM418.297 365.837C422.568 359.555 424.709 352.199 424.709 343.774C424.709 326.316 418.297 315.357 403.395 306.638C394.853 302.241 384.922 300.038 373.603 300.038C360.659 300.038 349.781 303.564 340.98 310.597C330.551 319.021 325.341 333.281 325.341 347.931H353.615V347.741C353.615 341.458 354.939 336.304 357.579 332.284C361.223 326.88 367.133 324.175 375.303 324.175C380.331 324.175 384.61 325.495 388.124 328.13C392.521 331.782 394.727 337.308 394.727 344.725C394.727 349.377 393.59 353.522 391.33 357.17C389.444 360.437 386.428 363.64 382.275 366.784C373.477 372.817 367.757 378.789 365.121 384.699C362.858 389.602 361.721 397.394 361.721 408.076H388.314C388.314 401.035 389.25 395.759 391.144 392.238C392.65 389.347 395.796 386.27 400.573 382.999C408.872 376.838 414.775 371.117 418.297 365.837ZM375.821 418.048C366.642 418.048 359.2 425.49 359.2 434.67C359.2 443.85 366.642 451.291 375.821 451.291C385.001 451.291 392.443 443.85 392.443 434.67C392.443 425.49 385.001 418.048 375.821 418.048Z"/></svg>