<svg width="512" height="512" viewBox="0 0 512 512" fill="none" xmlns="http://www.w3.org/2000/svg"><path fill-rule="evenodd" clip-rule="evenodd" d="M169.357 335.059H149.034V289.882H182.193L201.447 222.118H170.427V176.941H214.283L223.91 143.059H266.697L257.07 176.941H299.856L309.483 143.059H352.27L342.643 176.941H362.966V222.118H329.807L310.553 289.882H341.573V335.059H297.717L288.09 368.941H245.303L254.93 335.059H212.144L202.517 368.941H159.73L169.357 335.059ZM244.234 222.118L224.98 289.882H267.766L287.02 222.118H244.234ZM116.944 109.176V204.747C116.944 224.67 108.665 243.283 94.7592 256C108.665 268.717 116.944 287.33 116.944 307.253V402.824H170.427V448H116.944C93.3045 448 74.1575 427.784 74.1575 402.824V307.253C74.1575 298.918 69.8147 291.283 62.8619 287.33L42.6667 275.9V236.1L62.8619 224.648C69.8147 220.717 74.1575 213.082 74.1575 204.747V109.176C74.1575 84.2165 93.3045 64 116.944 64H158.532V109.176H116.944ZM395.056 402.824V307.253C395.056 287.33 403.335 268.717 417.241 256C403.335 243.283 395.056 224.67 395.056 204.747V109.176H341.573V64H395.056C418.696 64 437.842 84.2165 437.842 109.176V204.747C437.842 213.082 442.185 220.717 449.138 224.67L469.333 236.1V275.9L449.138 287.352C442.185 291.283 437.842 298.918 437.842 307.253V402.824C437.842 427.784 418.696 448 395.056 448H353.468V402.824H395.056Z"/></svg>