<svg width="512" height="512" viewBox="0 0 512 512" fill="none" xmlns="http://www.w3.org/2000/svg"><path fill-rule="evenodd" clip-rule="evenodd" d="M320 42.6641H85.3333V277.331H128H384H426.667V149.331L320 42.6641ZM101.671 322.534V447.997H129.916V400.185H141.781C150.399 400.185 157.423 399.537 162.854 398.237C168.343 396.878 173.006 394.666 176.843 391.596C185.697 384.514 190.124 374.331 190.124 361.049C190.124 352.904 188.265 345.792 184.546 339.712C179.942 332.096 173.272 327.168 164.536 324.925C158.22 323.33 149.041 322.534 136.999 322.534H101.671ZM137.354 378.935H129.208V343.784H137.354C145.204 343.784 150.93 344.876 154.531 347.061C159.43 350.011 161.879 354.999 161.879 362.024C161.879 369.166 159.341 373.977 154.265 376.456C150.841 378.109 145.204 378.935 137.354 378.935ZM207.921 322.534V447.997H240.683C252.192 447.997 261.636 447.377 269.015 446.137C285.071 443.481 296.937 435.927 304.61 423.47C310.748 413.614 313.818 400.893 313.818 385.309C313.818 370.139 310.748 357.538 304.61 347.503C298.47 337.41 289.617 330.502 278.046 326.784C269.193 323.95 257.387 322.534 242.63 322.534H207.921ZM241.568 425.862H236.166V344.669H241.568C250.364 344.669 256.945 345.23 261.312 346.353C265.681 347.415 269.577 349.48 273.001 352.55C276.602 355.797 279.435 360.311 281.5 366.097C283.567 371.88 284.599 378.167 284.599 384.955C284.599 391.272 283.714 397.233 281.943 402.841C279.522 410.397 275.597 415.974 270.167 419.575C263.968 423.767 254.436 425.862 241.568 425.862ZM337.015 322.534V447.997H365.261V395.404H414.223V373.269H365.261V344.669H416.791V322.534H337.015Z"/></svg>