<svg xmlns="http://www.w3.org/2000/svg" width="512" height="512" viewBox="0 0 512 512"><path fill-rule="evenodd" d="M309.333333,64 L347.727744,106.657348 L426.666667,106.666667 L426.666667,384 L64,384 L64,106.666667 L142.933333,106.666667 L181.333333,64 L309.333333,64 Z M285.162667,106.666667 L205.461333,106.666667 L167.090795,149.333333 L106.666667,149.333333 L106.666667,341.333333 L384,341.333333 L384,149.312 L323.569067,149.321985 L285.162667,106.666667 Z M245.333333,7.10542736e-15 L283.727744,42.6573479 L362.666667,42.6666667 L362.666,43.961 L361.500602,42.6666667 L141.461333,42.6666667 L103.090795,85.3333333 L42.6666667,85.3333333 L42.666,320 L-2.13162821e-14,320 L-2.13162821e-14,42.6666667 L78.9333333,42.6666667 L117.333333,7.10542736e-15 L245.333333,7.10542736e-15 Z M245.333333,149.333333 C292.461632,149.333333 330.666667,187.538368 330.666667,234.666667 C330.666667,281.794965 292.461632,320 245.333333,320 C198.205035,320 160,281.794965 160,234.666667 C160,187.538368 198.205035,149.333333 245.333333,149.333333 Z M245.333333,192 C221.769184,192 202.666667,211.102517 202.666667,234.666667 C202.666667,258.230816 221.769184,277.333333 245.333333,277.333333 C268.897483,277.333333 288,258.230816 288,234.666667 C288,211.102517 268.897483,192 245.333333,192 Z M352,170.666667 C357.891037,170.666667 362.666667,175.442296 362.666667,181.333333 C362.666667,187.224371 357.891037,192 352,192 C346.108963,192 341.333333,187.224371 341.333333,181.333333 C341.333333,175.442296 346.108963,170.666667 352,170.666667 Z" transform="translate(42.667 42.667)"/></svg>