<svg width="512" height="512" viewBox="0 0 512 512" fill="none" xmlns="http://www.w3.org/2000/svg"><path d="M70.8265 105.173L176.213 208.853L104.96 200.107L42.6665 262.4L130.987 350.72L64.2132 417.707V448H94.0798L161.067 380.8L249.6 469.333L311.893 407.04L302.933 333.227L408.96 437.333L438.827 406.827L100.693 74.6666L70.8265 105.173ZM249.813 409.173L103.04 262.187L120.32 244.907L200.533 254.507L211.627 243.413L269.013 299.733L257.707 311.04L267.307 391.68L249.813 409.173Z"/><path d="M469.333 219.307L292.693 42.6666L262.613 72.96L292.267 102.613L241.493 153.387L272 183.04L322.347 132.693L379.307 189.653L329.6 239.36L360.107 269.013L409.387 219.733L439.04 249.387L469.333 219.307Z"/></svg>