<svg width="512" height="512" viewBox="0 0 512 512" fill="none" xmlns="http://www.w3.org/2000/svg"><path d="M301.755 327.147L409.256 219.496L439.305 249.439L469.355 219.432L380.993 131.071L292.61 42.6666L262.603 72.6947L292.546 102.744L184.896 210.245L104.339 200.824L42.6667 262.454L57.9998 277.617L57.936 277.681L131.007 350.752L64.2521 417.422L64.3584 447.45H94.5566L161.269 380.993L234.34 454.064L234.404 454L249.567 469.333L311.197 407.703L301.776 327.147H301.755ZM249.503 409.107L102.893 262.518L119.502 245.888L201.633 253.905L322.702 132.836L379.164 189.298L258.116 310.367L266.133 392.498L249.503 409.107Z"/></svg>