<svg width="512" height="512" viewBox="0 0 512 512" fill="none" xmlns="http://www.w3.org/2000/svg"><path fill-rule="evenodd" clip-rule="evenodd" d="M149.333 234.667V64H64V426.667H256.94C250.894 413.495 247.019 399.119 245.771 383.999H149.333H106.667V301.516L150.071 278.008L234.667 232.191V301.836L362.667 231.701V245.771C366.184 245.481 369.741 245.333 373.333 245.333C384.383 245.333 395.105 246.733 405.333 249.366V164.548L277.333 234.667V165.333L149.333 234.667ZM474.618 339.536L455.655 350.484C457.672 357.756 458.749 365.419 458.749 373.333C458.749 381.248 457.672 388.91 455.655 396.183L474.618 407.131C472.555 413.309 469.943 419.237 466.838 424.854L464.845 428.307C461.464 433.917 457.581 439.191 453.259 444.066L434.302 433.122C423.602 444.017 410.001 452.053 394.749 455.978V477.866C387.856 479.266 380.722 480 373.416 480C366.11 480 358.976 479.265 352.082 477.866V455.978C336.83 452.052 323.227 444.016 312.527 433.119L293.571 444.063C289.23 439.167 285.333 433.869 281.943 428.231L280.037 424.931C276.913 419.289 274.286 413.335 272.214 407.127L291.175 396.179C289.159 388.908 288.082 381.246 288.082 373.333C288.082 365.42 289.159 357.759 291.175 350.487L272.214 339.54C274.286 333.33 276.915 327.375 280.039 321.732L281.941 318.439C285.332 312.8 289.23 307.501 293.571 302.603L312.527 313.547C323.227 302.651 336.83 294.614 352.082 290.688V268.801C358.976 267.401 366.11 266.667 373.416 266.667C380.722 266.667 387.856 267.401 394.749 268.8V290.688C410.001 294.614 423.602 302.65 434.302 313.545L453.259 302.6C457.582 307.476 461.465 312.751 464.846 318.362L466.837 321.811C469.942 327.429 472.555 333.357 474.618 339.536ZM405.417 373.333C405.417 391.006 391.09 405.333 373.417 405.333C355.744 405.333 341.417 391.006 341.417 373.333C341.417 355.66 355.744 341.333 373.417 341.333C391.09 341.333 405.417 355.66 405.417 373.333Z"/></svg>