<svg width="512" height="512" viewBox="0 0 512 512" fill="none" xmlns="http://www.w3.org/2000/svg"><path fill-rule="evenodd" clip-rule="evenodd" d="M149.333 64V234.667L277.333 165.333V234.667L405.333 164.548V272.166C390.079 261.955 371.735 256 352 256C298.981 256 256 298.981 256 352C256 382.158 269.906 409.067 291.655 426.667H64V64H149.333ZM352 394.667C375.564 394.667 394.667 375.564 394.667 352C394.667 328.436 375.564 309.333 352 309.333C328.436 309.333 309.333 328.436 309.333 352C309.333 375.564 328.436 394.667 352 394.667ZM352 426.667C366.826 426.667 380.643 422.346 392.259 414.894L437.761 460.396L460.389 437.769L414.888 392.269C422.343 380.65 426.667 366.83 426.667 352C426.667 310.763 393.237 277.333 352 277.333C310.763 277.333 277.334 310.763 277.334 352C277.334 393.237 310.763 426.667 352 426.667Z"/></svg>