<svg width="512" height="512" viewBox="0 0 512 512" fill="none" xmlns="http://www.w3.org/2000/svg"><path fill-rule="evenodd" clip-rule="evenodd" d="M149.333 64V234.667L277.333 165.333V234.667L405.333 164.548V234.667H298.667C275.103 234.667 256 253.769 256 277.333V426.667H64V64H149.333ZM277.333 276.513C277.333 265.184 286.378 256 297.535 256H426.667V426.667H303.667C300.905 426.667 298.667 428.905 298.667 431.667V443C298.667 445.761 300.905 448 303.667 448H448V298.667H469.333V469.333H297.535C286.378 469.333 277.333 460.149 277.333 448.821V276.513ZM352 317.867C362.604 317.867 371.2 309.271 371.2 298.667C371.2 288.063 362.604 279.467 352 279.467C341.396 279.467 332.8 288.063 332.8 298.667C332.8 309.271 341.396 317.867 352 317.867ZM368 405.333V341.333H336L336.047 405.479L368 405.333Z"/></svg>