<svg width="512" height="512" viewBox="0 0 512 512" fill="none" xmlns="http://www.w3.org/2000/svg"><path fill-rule="evenodd" clip-rule="evenodd" d="M149.333 234.667V64H64V426.667H298.745C290.914 413.851 285.045 399.631 281.451 383.999H149.333H106.667V301.516L150.071 278.008L234.667 232.191V301.836L277.333 285.568V260.557L384 234.667L405.333 239.845V164.548L277.333 234.667V165.333L149.333 234.667ZM468.885 276.587L384 256L298.667 276.712V345.752L298.803 352.045C301.147 405.753 333.238 437.913 357.348 454.621L362.753 458.205L368.954 461.939L374.35 464.875L377.952 466.67L380.807 467.992L384 469.333L387.055 468.051L393.246 465.071L397.326 462.884L401.933 460.211L409.622 455.256L415.126 451.298C439.458 432.982 469.139 399.384 468.859 344.568L468.8 331.858L468.775 285.216L468.885 276.587ZM341.333 310.251L384 299.883L384.037 299.892V421.048L383.957 421.099L380.928 419.062L376.934 416.167C356.09 400.372 342.681 378.861 341.429 350.185L341.323 344.828L341.333 310.251Z"/></svg>