<svg xmlns="http://www.w3.org/2000/svg" width="512" height="512" viewBox="0 0 512 512"><path fill-rule="evenodd" d="M106.666667,-2.84217094e-14 L320,128 L106.666667,256 L106.666667,-2.84217094e-14 Z M149.333333,75.328 L149.333333,180.650667 L237.098667,128 L149.333333,75.328 Z M42.6666667,85.3333333 C66.230816,85.3333333 85.3333333,104.435851 85.3333333,128 C85.3333333,151.564149 66.230816,170.666667 42.6666667,170.666667 C19.1025173,170.666667 -1.84305061e-14,151.564149 -2.13162821e-14,128 C-2.42020581e-14,104.435851 19.1025173,85.3333333 42.6666667,85.3333333 Z M384,85.3333333 C407.564149,85.3333333 426.666667,104.435851 426.666667,128 C426.666667,151.564149 407.564149,170.666667 384,170.666667 C360.435851,170.666667 341.333333,151.564149 341.333333,128 C341.333333,104.435851 360.435851,85.3333333 384,85.3333333 Z" transform="translate(42.667 128)"/></svg>