<svg width="512" height="512" viewBox="0 0 512 512" fill="none" xmlns="http://www.w3.org/2000/svg"><path fill-rule="evenodd" clip-rule="evenodd" d="M64 64H320V256H277.333V106.667H106.667V405.333H277.333L320 448H64V64ZM128 128H256V256H128V128ZM170.667 170.667V213.333H213.333V170.667H170.667ZM170.667 266.667H213.333V309.333H170.667V266.667ZM170.667 352H128V309.333H170.667V352ZM213.333 352V394.667H170.667V352H213.333ZM213.333 352H256V309.333H213.333V352ZM373.333 277.333L490.667 394.667L394.667 490.667L277.333 373.333V277.333H373.333ZM341.333 320H320V341.333H341.333V320Z"/></svg>