<svg width="512" height="512" viewBox="0 0 512 512" fill="none" xmlns="http://www.w3.org/2000/svg"><path fill-rule="evenodd" clip-rule="evenodd" d="M42.6667 64H426.667V300.497L384 257.83V106.667H341.333V256H298.667V106.667H256V448H42.6667V64ZM85.3334 106.667V405.333H213.333V106.667H85.3334ZM373.333 277.333L490.667 394.667L394.667 490.667L277.333 373.333V277.333H373.333ZM341.333 320H320V341.333H341.333V320ZM192 128H106.667V234.667H192V128ZM106.667 320H128V341.333H106.667V320ZM192 320H170.667V341.333H192V320ZM138.667 277.333H160V298.667H138.667V277.333ZM160 362.667H138.667V384H160V362.667Z"/></svg>