<svg xmlns="http://www.w3.org/2000/svg" width="512" height="512" viewBox="0 0 512 512"><path fill-rule="evenodd" d="M106.666667,1.42108547e-14 L64,1.42108547e-14 L64,64 L-4.26325641e-14,64 L-4.26325641e-14,106.666667 L64,106.666667 L64,170.666667 L106.666667,170.666667 L106.666667,106.666667 L170.666667,106.666667 L170.666667,64 L106.666667,64 L106.666667,1.42108547e-14 Z M130.588587,234.666667 L160.759467,264.836267 L115.503147,310.0928 L160.757333,355.3472 L130.587733,385.5168 L85.3333333,340.2624 L40.0789333,385.5168 L9.90826667,355.3472 L55.16352,310.0928 L9.90826667,264.836267 L40.07808,234.666667 L85.3333333,279.921067 L130.588587,234.666667 Z M213.333333,64 L384,64 L384,106.666667 L213.333333,106.666667 L213.333333,64 Z M298.666667,256 C310.449067,256 320,246.449067 320,234.666667 C320,222.884267 310.449067,213.333333 298.666667,213.333333 C286.884267,213.333333 277.333333,222.884267 277.333333,234.666667 C277.333333,246.449067 286.884267,256 298.666667,256 Z M384,320 L384,277.333333 L213.333333,277.333333 L213.333333,320 L384,320 Z M320,362.666667 C320,374.449067 310.449067,384 298.666667,384 C286.884267,384 277.333333,374.449067 277.333333,362.666667 C277.333333,350.884267 286.884267,341.333333 298.666667,341.333333 C310.449067,341.333333 320,350.884267 320,362.666667 Z" transform="translate(64 64)"/></svg>