<svg width="512" height="512" viewBox="0 0 512 512" fill="none" xmlns="http://www.w3.org/2000/svg"><path fill-rule="evenodd" clip-rule="evenodd" d="M215.746 89.9554V44.5041L234.936 43.2116C278.612 40.2662 319.23 49.2082 356.81 69.9526C394.985 91.0149 422.201 117.735 439.01 149.561L448 166.576L412.985 190.69C425.095 216.308 431.252 244.808 431.252 276.232C431.252 311.66 423.432 343.36 408.059 371.436L397.469 390.76L379.264 378.937C365.553 370.016 352.315 361.413 339.508 353.128C331.524 361.667 321.467 370.207 309.234 378.64C293.472 389.468 276.005 396.799 256.794 400.529V469.331L234.094 466.83C203.082 463.398 176.647 455.43 154.706 443.225C131.924 430.554 112.077 410.509 95.5956 382.645L85.3333 365.248L138.758 328.485C135.372 315.644 133.648 301.765 133.648 286.826C133.648 266.951 139.005 248.728 149.862 232.2C135.68 223.406 123.427 215.969 113.144 209.845L98.0585 200.882L104.175 184.058C116.284 150.684 149.616 108.644 215.746 89.9554ZM215.746 326.429L141.899 377.263C151.463 389.637 162.177 399.257 174.163 405.911C186.293 412.649 200.168 417.671 215.746 421.04V326.429ZM256.794 299.794V357.09C267.488 354.166 277.38 349.611 286.452 343.36C293.02 338.846 298.787 334.418 303.734 329.989C287.191 319.331 271.551 309.266 256.794 299.794ZM378.422 214.464L293.082 273.201C319.845 290.386 349.298 309.414 381.419 330.265C387.309 313.673 390.203 295.662 390.203 276.232C390.203 253.771 386.324 233.153 378.422 214.464ZM215.746 273.604C204.929 266.718 194.708 260.255 185.103 254.216C178.227 264.026 174.697 274.875 174.697 286.826C174.697 292.463 175.005 297.866 175.661 303.1L215.746 275.49V273.604ZM256.794 247.244L392.769 153.651C379.448 135.64 360.935 120.277 337.455 107.331C312.251 93.4093 285.364 86.0354 256.794 85.1454V247.244ZM215.746 134.305C183.071 145.874 162.033 164.648 150.375 183.21C168.088 193.974 189.864 207.535 215.746 223.873V134.305Z"/></svg>