<svg width="512" height="512" viewBox="0 0 512 512" fill="none" xmlns="http://www.w3.org/2000/svg"><path fill-rule="evenodd" clip-rule="evenodd" d="M277.201 97.7069L426.667 179.947V280.992L384.001 323.658L383.962 323.62V235.089L277.201 291.056L170.439 235.109V320.557L277.179 379.296L288.581 373.005L312.053 395.606L285.631 422.028L277.201 426.667L127.734 344.427V179.947L277.201 97.7069ZM212.164 64L254.484 87.5206L106.705 169.368V334.898L64 311.152V145.512L212.164 64ZM277.201 145.057L184.873 195.84L277.201 244.238L369.507 195.84L277.201 145.057ZM473.753 324.417L414.173 383.998L473.755 443.581L443.585 473.751L384.003 414.168L324.42 473.751L294.25 443.581L353.833 383.998L294.252 324.417L324.422 294.247L384.003 353.828L443.583 294.247L473.753 324.417Z"/></svg>