<svg width="512" height="512" viewBox="0 0 512 512" fill="none" xmlns="http://www.w3.org/2000/svg"><path fill-rule="evenodd" clip-rule="evenodd" d="M426.667 149.333L234.667 42.666L42.6667 149.333V362.666L234.667 469.333L256 457.471V264.298L384 190.399V255.999H426.667V149.333ZM85.3334 334.6V191.594L213.333 265.493V408.213L85.3334 334.6ZM114.411 159.103L234.667 89.9467L353.877 158.527L233.643 227.946L114.411 159.103ZM277.333 277.333H426.667V298.666H298.667V426.666H277.333V277.333ZM320 319.999H469.333V469.333H320V319.999ZM448 383.999V405.333H405.333V447.999H384V405.333H341.333V383.999H384V341.333H405.333V383.999H448Z"/></svg>