<svg width="512" height="512" viewBox="0 0 512 512" fill="none" xmlns="http://www.w3.org/2000/svg"><path fill-rule="evenodd" clip-rule="evenodd" d="M256 42.668L448 149.335V268.497L443.581 264.079L405.333 302.327V190.401L277.333 264.3V408.215L322.109 382.448L323.661 383.999L264.078 443.582L277.747 457.251L256 469.335L64 362.668V149.335L256 42.668ZM106.667 191.596V334.602L234.667 408.215V265.495L106.667 191.596ZM256 89.9487L135.744 159.105L254.976 227.948L375.211 158.529L256 89.9487ZM473.753 324.419L414.173 383.999L473.755 443.582L443.585 473.752L384.003 414.169L324.42 473.752L294.25 443.582L353.833 383.999L294.252 324.419L324.422 294.249L384.003 353.829L443.583 294.249L473.753 324.419Z"/></svg>