<svg xmlns="http://www.w3.org/2000/svg" width="512" height="512" viewBox="0 0 512 512"><path fill-rule="evenodd" d="M170.666667,7.10542736e-15 L341.333333,96 L341.333,213.333 L298.666,213.333 L298.666,138.747 L191.999,200.331 L191.999,323.018 L213.333,311.018 L213.333,360 L170.666667,384 L7.10542736e-15,288 L7.10542736e-15,96 L170.666667,7.10542736e-15 Z M42.666,139.913 L42.6666667,263.04 L149.333,323.022 L149.333,201.497 L42.666,139.913 Z M170.666667,48.96 L69.246,105.991 L169.656,163.963 L271.048,105.425 L170.666667,48.96 Z M234.666667,234.666667 L405.333333,234.666667 L405.333333,277.333333 L234.666667,277.333333 Z M234.666667,298.666667 L405.333333,298.666667 L405.333333,341.333333 L234.666667,341.333333 Z M234.666667,362.666667 L405.333333,362.666667 L405.333333,405.333333 L234.666667,405.333333 Z" transform="translate(42.667 42.667)"/></svg>