<svg width="512" height="512" viewBox="0 0 512 512" fill="none" xmlns="http://www.w3.org/2000/svg"><path fill-rule="evenodd" clip-rule="evenodd" d="M42.6666 85.3333H362.667V149.333H277.333V341.333H224V384H256V426.667H149.333V384H181.333V341.333H42.6666V85.3333ZM256 170.266L181.333 127.147L106.667 170.266V256.502L181.333 299.622L256 256.502V170.266ZM128 244.187V193.959L170.667 218.584V268.827L128 244.187ZM192 268.827V218.584L234.667 193.959V244.187L192 268.827ZM181.333 151.782L223.188 175.952L181.333 200.108L139.479 175.952L181.333 151.782ZM469.333 448V170.667H298.667V448H469.333ZM341.333 213.333H426.667V256H341.333V213.333ZM341.333 277.333V405.333H426.667V277.333H341.333ZM362.667 362.667H405.333V320H362.667V362.667Z"/></svg>