<svg width="512" height="512" viewBox="0 0 512 512" fill="none" xmlns="http://www.w3.org/2000/svg"><path fill-rule="evenodd" clip-rule="evenodd" d="M469.342 305.866L469.333 149.333H42.6665V362.667L256.477 362.675C260.173 321.628 285.008 286.676 320.013 268.787L320 192H426.667L426.675 268.798C443.739 277.523 458.384 290.302 469.342 305.866ZM85.3332 192H106.667V320H85.3332V192ZM149.333 192H170.667V320H149.333V192ZM213.333 192H234.667V320H213.333V192ZM373.333 277.333C320.314 277.333 277.333 320.314 277.333 373.333C277.333 426.352 320.314 469.333 373.333 469.333C426.352 469.333 469.333 426.352 469.333 373.333C469.333 320.314 426.352 277.333 373.333 277.333ZM354.478 373.334L315.906 334.762L334.762 315.906L373.334 354.478L411.906 315.906L430.762 334.762L392.19 373.334L430.762 411.906L411.906 430.762L373.334 392.19L334.762 430.762L315.906 411.906L354.478 373.334Z"/></svg>