<svg xmlns="http://www.w3.org/2000/svg" width="512" height="512" viewBox="0 0 512 512"><path fill-rule="evenodd" d="M320.179896,193.724847 C323.395359,195.562255 326.060205,198.2271 327.897613,201.442564 L416.602034,356.675301 C422.285204,366.620848 418.829864,379.290427 408.884317,384.973596 C405.750439,386.764384 402.203476,387.706331 398.594028,387.706331 L221.185185,387.706331 C209.73039,387.706331 200.444444,378.420385 200.444444,366.96559 C200.444444,363.356143 201.386392,359.80918 203.177179,356.675301 L291.881601,201.442564 C297.56477,191.497017 310.234349,188.041677 320.179896,193.724847 Z M94.8164267,1.42108547e-14 L118.519467,35.4688 C72.7904,66.0885333 42.6666667,118.195413 42.6666667,177.358933 C42.6666667,236.522667 72.7904,288.629333 118.519467,319.249067 L94.8164267,354.717867 C37.65632,316.448 -2.13162821e-14,251.317333 -2.13162821e-14,177.358933 C-2.13162821e-14,103.40096 37.65632,38.2709333 94.8164267,1.42108547e-14 Z M309.333333,323.210785 C301.925926,323.210785 296.37037,328.686341 296.37037,335.987081 C296.37037,343.619674 301.757576,349.09523 309.333333,349.09523 C316.740741,349.09523 322.296296,343.619674 322.296296,336.153007 C322.296296,328.686341 316.740741,323.210785 309.333333,323.210785 Z M320,241.358933 L298.666667,241.358933 L298.666667,305.358933 L320,305.358933 L320,241.358933 Z M142.22272,70.94272 L165.936213,106.427093 C143.071573,121.73696 128,147.776 128,177.358933 C128,206.941867 143.071573,232.9792 165.936213,248.288 L142.22272,283.776 C107.92576,260.8128 85.3333333,221.7344 85.3333333,177.358933 C85.3333333,132.983467 107.92576,93.9063467 142.22272,70.94272 Z M331.850667,1.42108547e-14 C389.0112,38.2709333 426.666667,103.403733 426.666667,177.358933 C426.666667,215.663929 416.564524,251.601915 398.883025,282.666406 L373.085429,237.520225 C380.139772,218.812097 384,198.537666 384,177.358933 C384,118.195413 353.8752,66.0885333 308.1472,35.47136 L331.850667,1.42108547e-14 Z M213.333333,134.692267 C236.885333,134.692267 256,153.795556 256,177.358933 C256,200.922311 236.885333,220.0256 213.333333,220.0256 C189.781333,220.0256 170.666667,200.922311 170.666667,177.358933 C170.666667,153.795556 189.781333,134.692267 213.333333,134.692267 Z M284.443733,70.94272 C318.741333,93.9061333 341.333333,132.983467 341.333333,177.358933 C341.333333,179.454048 341.282973,181.537356 341.183399,183.607717 C338.192932,180.282192 334.679817,177.439826 330.764193,175.202327 C320.676567,169.437969 309.207468,168.308141 298.819185,171.141308 L298.449985,171.243797 C296.533801,144.20805 282.005387,120.672819 260.7296,106.427093 L284.443733,70.94272 Z" transform="translate(42.667 78.641)"/></svg>