<svg xmlns="http://www.w3.org/2000/svg" width="512" height="512" viewBox="0 0 512 512"><path fill-rule="evenodd" d="M255.999606,200.875771 L255.999607,250.963413 C242.906515,262.68224 234.666667,279.712194 234.666667,298.666667 C234.666667,334.012891 263.320443,362.666667 298.666667,362.666667 C334.012891,362.666667 362.666667,334.012891 362.666667,298.666667 C362.666667,279.712677 354.427238,262.683109 341.334728,250.96431 L341.334477,200.876098 C379.006502,217.336234 405.333333,254.92697 405.333333,298.666667 C405.333333,357.57704 357.57704,405.333333 298.666667,405.333333 C239.756293,405.333333 192,357.57704 192,298.666667 C192,254.92668 218.327181,217.335735 255.999606,200.875771 Z M149.333333,3.62594489e-14 L149.333333,149.333333 L106.666667,149.333333 L106.664112,69.435153 C67.9778918,96.4208623 42.6666667,141.254554 42.6666667,192 C42.6666667,269.656005 101.941333,333.46767 177.713351,340.65742 C183.27741,356.686679 191.937938,371.268058 202.982958,383.691132 C199.348079,383.896122 195.686171,384 192,384 C85.961328,384 2.24322044e-12,298.038672 2.22374145e-12,192 C2.21266155e-12,131.683829 27.8126321,77.8636454 71.3127128,42.6646339 L7.83773951e-15,42.6666667 L0,6.36915372e-14 L149.333333,3.62594489e-14 Z M320,170.666667 L320,298.666667 L277.333333,298.666667 L277.333333,170.666667 L320,170.666667 Z M215.817985,1.46284133 C310.617565,13.1923144 384,94.0264642 384,192 C384,195.686171 383.896122,199.348079 383.685684,202.97906 C371.267801,191.937709 356.686074,183.277051 340.658887,177.714384 C334.048463,108.06203 279.595628,52.3504727 210.525102,43.8044325 Z" transform="translate(64 64)"/></svg>