<svg width="512" height="512" viewBox="0 0 512 512" fill="none" xmlns="http://www.w3.org/2000/svg"><path fill-rule="evenodd" clip-rule="evenodd" d="M256 427.84C350.257 427.84 426.667 351.43 426.667 257.173C426.667 162.917 350.257 86.5065 256 86.5065C161.743 86.5065 85.3333 162.917 85.3333 257.173C85.3333 351.43 161.743 427.84 256 427.84ZM256 470.507C138.179 470.507 42.6667 374.994 42.6667 257.173C42.6667 139.352 138.179 43.8398 256 43.8398C373.821 43.8398 469.333 139.352 469.333 257.173C469.333 374.994 373.821 470.507 256 470.507ZM149.333 278.507V235.84H362.667V278.507H149.333Z"/></svg>