<svg width="512" height="512" viewBox="0 0 512 512" fill="none" xmlns="http://www.w3.org/2000/svg"><path fill-rule="evenodd" clip-rule="evenodd" d="M160 85.3334C160 103.006 145.673 117.333 128 117.333C110.327 117.333 96 103.006 96 85.3334C96 67.6603 110.327 53.3334 128 53.3334C145.673 53.3334 160 67.6603 160 85.3334ZM127.998 161.83L222.168 256L191.998 286.17L149.327 243.499L149.331 341.333C149.331 376.68 177.985 405.333 213.331 405.333H298.665V448H213.331C154.421 448 106.665 400.244 106.665 341.333L106.66 243.499L63.998 286.17L33.8281 256L127.998 161.83ZM298.665 64C357.575 64 405.331 111.756 405.331 170.667L405.327 268.459L447.998 225.83L478.168 256L383.998 350.17L289.828 256L319.998 225.83C334.211 240.047 348.433 254.256 362.66 268.459L362.665 170.667C362.665 135.32 334.011 106.667 298.665 106.667H213.331V64H298.665ZM384 458.667C401.673 458.667 416 444.34 416 426.667C416 408.994 401.673 394.667 384 394.667C366.327 394.667 352 408.994 352 426.667C352 444.34 366.327 458.667 384 458.667Z"/></svg>