<svg xmlns="http://www.w3.org/2000/svg" width="512" height="512" viewBox="0 0 512 512"><path fill-rule="evenodd" d="M366.108188,291.250855 L336.32912,260.687611 C359.206726,237.563815 373.333333,205.764966 373.333333,170.66667 C373.333333,127.847079 352.307615,89.9383084 320.017241,66.7014188 L320,149.333333 L277.333333,149.333333 L277.333333,-8.66862138e-13 L426.666667,-9.23705556e-13 L426.666667,42.6666667 L358.220315,42.6653231 C393.652483,73.937653 416,119.69239 416,170.66667 C416,217.746477 396.936773,260.373828 366.108188,291.250855 Z M0.464729716,324.968546 C0.156599725,326.524833 7.10542736e-15,328.102256 7.10542736e-15,329.69697 L7.10542736e-15,354.909091 C7.10542736e-15,382.757631 47.7562934,405.333333 106.666667,405.333333 C165.57704,405.333333 213.333333,382.757631 213.333333,354.909091 L213.333333,329.69697 L213.319043,328.863113 C213.274163,327.554577 213.123843,326.258158 212.871925,324.975671 C206.339228,330.198963 198.386026,335.015545 189.170378,339.139106 C167.660619,348.763694 138.65642,354.909091 106.666667,354.909091 C73.4084763,354.909091 43.381588,348.256858 21.6149575,337.967179 C13.4786616,334.12093 6.39601488,329.715317 0.464729716,324.968546 Z M0.464729716,249.332183 C0.156599725,250.88847 7.10542736e-15,252.465893 7.10542736e-15,254.060606 L7.10542736e-15,279.272727 C7.10542736e-15,307.121267 47.7562934,329.69697 106.666667,329.69697 C165.57704,329.69697 213.333333,307.121267 213.333333,279.272727 L213.333333,254.060606 L213.319043,253.226749 C213.274163,251.918213 213.123843,250.621794 212.871925,249.339307 C206.339228,254.562599 198.386026,259.379181 189.170378,263.502743 C167.660619,273.12733 138.65642,279.272727 106.666667,279.272727 C73.4084763,279.272727 43.381588,272.620495 21.6149575,262.330815 C13.4786616,258.484566 6.39601488,254.078953 0.464729716,249.332183 Z M106.666667,128 C47.7562934,128 7.10542736e-15,150.575702 7.10542736e-15,178.424242 L7.10542736e-15,203.636364 C7.10542736e-15,231.484904 47.7562934,254.060606 106.666667,254.060606 C165.57704,254.060606 213.333333,231.484904 213.333333,203.636364 L213.333333,178.424242 L213.175501,175.657605 C210.137187,149.09574 163.613361,128 106.666667,128 Z" transform="translate(42.667 64)"/></svg>