<svg xmlns="http://www.w3.org/2000/svg" width="512" height="512" viewBox="0 0 512 512"><path fill-rule="evenodd" d="M117.333333,104.296296 C182.134744,104.296296 234.666667,134.011323 234.666667,170.666667 C234.666667,171.55913 234.635526,172.447479 234.573825,173.331385 L234.602323,173.037432 L234.666667,173.037037 L234.666667,338.962963 C234.666667,375.618306 182.134744,405.333333 117.333333,405.333333 C53.971954,405.333333 2.34081113,376.9243 0.0773832332,341.396121 L7.10542736e-15,338.962963 L7.10542736e-15,173.037037 L0.0734277655,173.03692 C0.0246120239,172.250241 7.10542736e-15,171.46008 7.10542736e-15,170.666667 C7.10542736e-15,134.011323 52.5319227,104.296296 117.333333,104.296296 Z M117.333333,322.37037 C88.9676393,322.37037 62.9529005,316.676678 42.6660844,307.199496 L42.6666667,329.516056 L42.6840243,330.712536 C43.3679752,342.914777 75.1496965,362.666667 117.34138,362.666667 C140.415859,362.666667 161.703108,356.87792 176.600752,347.299831 C186.857023,340.705803 191.382711,334.42627 191.940552,331.289661 L192,330.666667 L192.000875,307.199359 C171.714016,316.676623 145.699164,322.37037 117.333333,322.37037 Z M117.333333,237.037037 C88.9716837,237.037037 62.9603188,231.344968 42.6747622,221.870216 L42.673,257.776296 L44.1185015,257.76721 C45.8482051,259.496172 49.29769,262.357408 55.3729402,265.793913 C70.5158701,274.359611 92.8524884,279.703704 117.333333,279.703704 C141.814178,279.703704 164.150797,274.359611 179.293726,265.793913 C186.794408,261.551103 190.292611,258.185181 191.493358,256.744407 L192,256.740296 L192.002868,221.865094 C171.71572,231.342916 145.700093,237.037037 117.333333,237.037037 Z M117.333333,146.962963 C76.096072,146.962963 42.6666667,157.94691 42.6666667,171.496296 C42.6666667,185.045682 76.096072,196.02963 117.333333,196.02963 C158.570595,196.02963 192,185.045682 192,171.496296 C192,157.94691 158.570595,146.962963 117.333333,146.962963 Z M366.108188,291.250855 L336.32912,260.687611 C359.206726,237.563815 373.333333,205.764966 373.333333,170.66667 C373.333333,127.847079 352.307615,89.9383084 320.017241,66.7014188 L320,149.333333 L277.333333,149.333333 L277.333333,-8.66862138e-13 L426.666667,-9.23705556e-13 L426.666667,42.6666667 L358.220315,42.6653231 C393.652483,73.937653 416,119.69239 416,170.66667 C416,217.746477 396.936773,260.373828 366.108188,291.250855 Z" transform="translate(42.667 64)"/></svg>