<svg width="512" height="512" viewBox="0 0 512 512" fill="none" xmlns="http://www.w3.org/2000/svg"><path d="M283.016 48.38L143.303 131.92C137.686 130.2 131.805 129.288 125.718 129.288C91.6323 129.288 64 157.904 64 193.204C64 207.75 68.6919 221.161 76.594 231.903C75.5638 230.502 74.5912 229.061 73.676 227.578L149.089 362.873L148.952 363.43C147.359 370.051 146.513 376.978 146.513 384.109L146.526 426.716L105.368 426.72V469.331H362.667V426.664L311.108 426.716L311.096 384.109C311.096 350.003 291.75 320.576 263.802 306.956L259.364 304.957L199.147 196.937L304.258 134.086L350.099 216.411C348.181 223.483 348.604 231.23 351.72 238.295L353.083 241.034C355.152 244.743 357.83 247.862 360.911 250.33L360.939 293.978L360.902 294.142L400.645 305.171L405.97 284.591L381.513 277.789L381.515 256.971C386.2 256.706 390.897 255.327 395.238 252.731C399.831 249.985 403.485 246.2 406.082 241.828L424.095 252.607L417.607 277.768L437.479 283.282L448 242.357L447.954 242.352L447.988 242.285L410.239 219.694C409.641 216.054 408.42 212.46 406.533 209.075C401.739 200.476 393.669 195.057 384.898 193.533L337.768 109.022C346.219 95.9523 347.329 78.5186 339.222 63.9766C327.86 43.5961 302.696 36.6133 283.016 48.38ZM228.805 341.498C250.496 341.498 268.267 358.881 269.837 380.929L269.95 384.109V426.72H187.659V384.109C187.659 361.645 204.444 343.242 225.734 341.615L228.805 341.498ZM170.408 237.288L172.686 234.672L209.773 301.178L210.558 300.99C198.032 303.926 186.59 309.822 176.953 317.929L173.365 321.129L137.071 256.042L136.51 256.147C149.742 253.73 161.52 246.948 170.408 237.288ZM125.718 171.899C137.08 171.899 146.291 181.438 146.291 193.204C146.291 204.971 137.08 214.51 125.718 214.51C114.356 214.51 105.146 204.971 105.146 193.204C105.146 181.438 114.356 171.899 125.718 171.899ZM301.068 75.1152C306.749 75.1152 311.354 79.8845 311.354 85.7679C311.354 91.6512 306.749 96.4206 301.068 96.4206C295.387 96.4206 290.782 91.6512 290.782 85.7679C290.782 79.8845 295.387 75.1152 301.068 75.1152Z"/></svg>