<svg width="512" height="512" viewBox="0 0 512 512" fill="none" xmlns="http://www.w3.org/2000/svg"><path fill-rule="evenodd" clip-rule="evenodd" d="M213.33 28.4453L285.898 125.202L391.983 98.681L365.998 202.623C345.256 200.464 323.386 207.418 307.21 225.392C302.643 230.467 294.685 230.467 290.118 225.392C251.524 182.51 180.52 202.354 169.752 259.032L158.168 320.001H90.007L34.6771 98.681L140.762 125.202L213.33 28.4453ZM406.618 263.014C399.143 223.672 349.857 209.897 323.067 239.663C310.025 254.154 287.303 254.154 274.261 239.663C247.472 209.897 198.185 223.672 190.71 263.014L171.776 362.668H425.553L406.618 263.014ZM429.606 384.001H167.723L163.669 405.334H128V448.001L155.562 448.001H441.766L469.333 448.001V405.334H433.659L429.606 384.001Z"/></svg>