<svg width="512" height="512" viewBox="0 0 512 512" fill="none" xmlns="http://www.w3.org/2000/svg"><path d="M246.868 319.998C265.259 319.998 279.171 325.325 288.604 335.98C297.697 346.295 302.244 361.463 302.244 381.482C302.244 400.756 298.817 417.721 291.963 432.38C285.109 446.971 274.997 457.286 261.628 463.326C252.738 467.33 241.642 469.332 228.341 469.332C220.469 469.332 211.68 468.483 201.976 466.787L205.132 440.015C213.479 442.593 221.113 443.883 228.035 443.883C241.065 443.883 251.041 439.675 257.963 431.26C263.528 424.542 266.684 416.059 267.43 405.811C258.404 414.226 247.885 418.434 235.874 418.434C221.962 418.434 211.036 414.193 203.096 405.71C195.699 397.702 192 386.436 192 371.914C192 356.441 196.241 344.293 204.724 335.471C214.632 325.156 228.68 319.998 246.868 319.998ZM384.667 319.792C406.654 319.792 422.297 328.207 431.594 345.037C437.838 356.438 440.959 372.929 440.959 394.509C440.959 418.126 437.125 435.736 429.457 447.341C419.888 461.864 404.958 469.125 384.667 469.125C362.747 469.125 347.104 460.71 337.739 443.88C331.496 432.547 328.374 415.785 328.374 393.593C328.374 370.52 332.208 353.181 339.877 341.576C349.446 327.053 364.376 319.792 384.667 319.792ZM384.667 345.241C376.591 345.241 370.602 349.211 366.7 357.151C362.798 365.091 360.847 377.34 360.847 393.899C360.847 411.068 362.747 423.589 366.547 431.461C370.483 439.605 376.523 443.676 384.667 443.676C392.81 443.676 398.816 439.689 402.684 431.716C406.553 423.742 408.487 411.34 408.487 394.509C408.487 377.611 406.62 365.26 402.888 357.456C398.952 349.312 392.878 345.241 384.667 345.241ZM246.664 344.633C239.674 344.633 234.194 346.923 230.224 351.504C226.254 356.085 224.269 362.379 224.269 370.387C224.269 377.784 226.152 383.518 229.919 387.59C233.685 391.662 238.995 393.698 245.85 393.698C253.654 393.698 259.829 391.017 264.376 385.656C267.973 381.448 269.771 376.155 269.771 369.776C269.771 361.768 267.736 355.626 263.664 351.351C259.456 346.872 253.79 344.633 246.664 344.633ZM405.524 42.4922V170.492H277.524V127.826L330.619 127.809C329.09 126.108 327.508 124.438 325.871 122.802C275.884 72.8151 194.839 72.8151 144.852 122.802C94.9559 172.698 94.8652 253.54 144.58 303.549L114.411 333.72L110.981 330.175C48.0565 263.279 49.2903 158.024 114.682 92.6323C181.332 25.9828 289.392 25.9828 356.041 92.6323C358.406 94.997 360.687 97.4139 362.884 99.8791L362.857 42.4922H405.524Z"/></svg>