<svg width="512" height="512" viewBox="0 0 512 512" fill="none" xmlns="http://www.w3.org/2000/svg"><path d="M118.868 319.999C137.259 319.999 151.17 325.326 160.603 335.98C169.697 346.296 174.244 361.463 174.244 381.483C174.244 400.756 170.817 417.722 163.963 432.38C157.109 446.971 146.997 457.286 133.628 463.326C124.738 467.33 113.642 469.332 100.341 469.332C92.4687 469.332 83.6804 468.484 73.9759 466.787L77.1316 440.015C85.4788 442.594 93.1134 443.883 100.035 443.883C113.065 443.883 123.041 439.676 129.963 431.261C135.528 424.542 138.684 416.059 139.43 405.812C130.404 414.227 119.885 418.434 107.874 418.434C93.9617 418.434 83.0357 414.193 75.0957 405.71C67.6986 397.702 64 386.437 64 371.914C64 356.441 68.2415 344.294 76.7244 335.471C86.6324 325.156 100.68 319.999 118.868 319.999ZM256.667 319.792C278.654 319.792 294.297 328.207 303.594 345.038C309.838 356.439 312.959 372.929 312.959 394.51C312.959 418.126 309.125 435.737 301.457 447.342C291.888 461.864 276.958 469.126 256.667 469.126C234.747 469.126 219.104 460.711 209.739 443.881C203.496 432.547 200.374 415.785 200.374 393.594C200.374 370.52 204.208 353.181 211.877 341.576C221.446 327.054 236.376 319.792 256.667 319.792ZM256.667 345.241C248.591 345.241 242.602 349.211 238.7 357.151C234.798 365.091 232.847 377.34 232.847 393.899C232.847 411.069 234.747 423.589 238.547 431.462C242.483 439.605 248.523 443.677 256.667 443.677C264.81 443.677 270.816 439.69 274.684 431.716C278.553 423.742 280.487 411.34 280.487 394.51C280.487 377.612 278.62 365.261 274.888 357.457C270.952 349.313 264.878 345.241 256.667 345.241ZM118.664 344.633C111.674 344.633 106.194 346.923 102.224 351.504C98.254 356.085 96.269 362.379 96.269 370.387C96.269 377.784 98.1522 383.519 101.919 387.591C105.685 391.662 110.995 393.698 117.85 393.698C125.654 393.698 131.829 391.018 136.376 385.656C139.973 381.449 141.771 376.156 141.771 369.776C141.771 361.769 139.736 355.627 135.664 351.351C131.456 346.873 125.79 344.633 118.664 344.633ZM149.459 42.6719L149.432 100.059C151.629 97.5935 153.91 95.1767 156.275 92.812C222.924 26.1625 330.984 26.1625 397.634 92.812C463.026 158.204 464.26 263.459 401.335 330.355L397.905 333.9L367.736 303.728C417.451 253.719 417.36 172.878 367.464 122.982C317.477 72.9948 236.432 72.9948 186.445 122.982C184.808 124.618 183.226 126.288 181.697 127.988L234.792 128.005V170.672H106.792V42.6719H149.459Z"/></svg>