<svg xmlns="http://www.w3.org/2000/svg" width="512" height="512" viewBox="0 0 512 512"><path fill-rule="evenodd" d="M341.333333,298.666667 C364.897483,298.666667 384,317.769184 384,341.333333 C384,364.897483 364.897483,384 341.333333,384 C317.769184,384 298.666667,364.897483 298.666667,341.333333 C298.666667,317.769184 317.769184,298.666667 341.333333,298.666667 Z M103.02469,21.3326125 L224,21.3333333 C277.019336,21.3333333 320,64.3139973 320,117.333333 C320,170.352669 277.019336,213.333333 224,213.333333 L138.666667,213.333333 C109.21148,213.333333 85.3333333,237.21148 85.3333333,266.666667 C85.3333333,296.121853 109.21148,320 138.666667,320 L280.975194,319.999607 C278.616674,326.672335 277.333333,333.852964 277.333333,341.333333 C277.333333,348.813764 278.616695,355.994449 280.975252,362.667224 L138.666667,362.666667 C85.6473307,362.666667 42.6666667,319.686003 42.6666667,266.666667 C42.6666667,213.647331 85.6473307,170.666667 138.666667,170.666667 L224,170.666667 C253.455187,170.666667 277.333333,146.78852 277.333333,117.333333 C277.333333,87.8781467 253.455187,64 224,64 L103.024748,64.0005569 C105.383305,57.3277825 106.666667,50.1470971 106.666667,42.6666667 C106.666667,35.1861749 105.383284,28.0054332 103.02469,21.3326125 Z M42.6666667,-4.26325641e-14 C66.230816,-4.26325641e-14 85.3333333,19.1025173 85.3333333,42.6666667 C85.3333333,66.230816 66.230816,85.3333333 42.6666667,85.3333333 C19.1025173,85.3333333 -4.26325641e-14,66.230816 -4.26325641e-14,42.6666667 C-4.26325641e-14,19.1025173 19.1025173,-4.26325641e-14 42.6666667,-4.26325641e-14 Z" transform="translate(64 64)"/></svg>