<svg xmlns="http://www.w3.org/2000/svg" width="512" height="512" viewBox="0 0 512 512"><path fill-rule="evenodd" d="M352,170.666667 L352,170.667 L416,202.666667 L352,234.666 L352.000557,280.975252 C345.327782,278.616695 338.147097,277.333333 330.666667,277.333333 C323.186175,277.333333 316.005433,278.616716 309.332612,280.97531 L309.333333,170.666667 L352,170.666667 Z M113.691357,21.3326125 L170.666667,21.3333333 C223.686003,21.3333333 266.666667,64.3139973 266.666667,117.333333 C266.666667,170.352669 223.686003,213.333333 170.666667,213.333333 L96,213.333333 C66.5448133,213.333333 42.6666667,237.21148 42.6666667,266.666667 C42.6666667,296.121853 66.5448133,320 96,320 L193.826,320 L187.581722,313.751611 L172.496777,298.666667 L202.666667,268.496777 L275.503223,341.333333 L202.666667,414.169889 L172.496777,384 L187.581722,368.915055 L193.826,362.666 L96,362.666667 C42.980664,362.666667 2.13162821e-14,319.686003 2.13162821e-14,266.666667 C2.13162821e-14,213.647331 42.980664,170.666667 96,170.666667 L170.666667,170.666667 C200.121853,170.666667 224,146.78852 224,117.333333 C224,87.8781467 200.121853,64 170.666667,64 L113.691415,64.0005569 C116.049972,57.3277825 117.333333,50.1470971 117.333333,42.6666667 C117.333333,35.1861749 116.049951,28.0054332 113.691357,21.3326125 Z M53.3333333,0 C76.8974827,0 96,19.1025173 96,42.6666667 C96,66.230816 76.8974827,85.3333333 53.3333333,85.3333333 C29.769184,85.3333333 10.6666667,66.230816 10.6666667,42.6666667 C10.6666667,19.1025173 29.769184,0 53.3333333,0 Z M330.666667,384 C354.230816,384 373.333333,364.897483 373.333333,341.333333 C373.333333,317.769184 354.230816,298.666667 330.666667,298.666667 C307.102517,298.666667 288,317.769184 288,341.333333 C288,364.897483 307.102517,384 330.666667,384 Z" transform="translate(53.333 64)"/></svg>