<svg width="512" height="512" viewBox="0 0 512 512" fill="none" xmlns="http://www.w3.org/2000/svg"><path fill-rule="evenodd" clip-rule="evenodd" d="M469.333 256C469.333 373.821 373.821 469.333 256 469.333C138.179 469.333 42.6667 373.821 42.6667 256C42.6667 138.179 138.179 42.6666 256 42.6666C373.821 42.6666 469.333 138.179 469.333 256ZM148.579 354.233L138.667 383.608C147.048 387.476 156.276 389.411 166.349 389.411C182.064 389.411 193.951 383.93 202.01 372.97C204.75 369.263 206.967 364.589 208.659 358.948C210.351 353.387 212.124 344.723 213.978 332.957L230.054 231.485H270.776L291.156 264.265L228.659 330.993H272.057L307.838 291.222L332.136 330.993H371.907L332.136 266.682L391.249 204.185H347.61L315.575 239.967L293.453 204.185H253.803L253.858 204.273H234.365L234.891 200.951C236.019 193.698 237.631 188.621 239.726 185.72C241.822 182.738 244.844 181.247 248.793 181.247C252.097 181.247 256.408 182.214 261.727 184.148L270.915 154.048C262.05 150.905 253.386 149.333 244.924 149.333C223.568 149.333 209.505 158.037 202.736 175.444C201.285 179.152 199.552 187.452 197.538 200.347L196.915 204.273H175.966L171.831 231.485H192.599L176.504 332.957C174.972 342.789 173.159 349.317 171.064 352.541C168.968 355.845 165.584 357.497 160.909 357.497C157.283 357.497 153.173 356.409 148.579 354.233Z"/></svg>