<svg width="512" height="512" viewBox="0 0 512 512" fill="none" xmlns="http://www.w3.org/2000/svg"><path fill-rule="evenodd" clip-rule="evenodd" d="M145.129 320.005C155.987 338.856 171.804 355.189 192 366.849C205.687 374.751 220.228 379.839 234.951 382.29C235.941 397.81 239.483 412.636 245.164 426.353C219.72 424.759 194.244 417.412 170.666 403.799C143.739 388.252 122.652 366.476 108.171 341.342L145.129 320.005ZM382.277 234.95C397.793 235.938 412.614 239.477 426.327 245.153C423.406 198.558 401.788 157.035 368.887 127.997H405.333V85.3306H298.666V191.997H341.333V160.59C362.568 179.596 377.42 205.586 382.277 234.95ZM256.003 85.3018L256.003 127.977C234.248 127.954 212.195 133.486 192 145.146C159.169 164.101 137.912 195.403 130.708 229.8L157.907 214.096L179.241 251.047L86.8646 304.38L33.5312 212.004L70.4817 190.671L88.7046 222.234C98.071 175.912 126.522 133.682 170.666 108.196C197.594 92.649 226.996 85.2757 256.003 85.3018ZM474.618 339.536L455.656 350.484C457.672 357.756 458.749 365.419 458.749 373.333C458.749 381.247 457.672 388.91 455.656 396.182L474.618 407.13C472.554 413.311 469.941 419.24 466.835 424.86L464.848 428.3C461.467 433.913 457.583 439.189 453.259 444.066L434.302 433.121C423.602 444.016 410.001 452.052 394.749 455.978V477.866C387.856 479.265 380.722 480 373.416 480C366.11 480 358.976 479.265 352.082 477.866V455.978C336.83 452.052 323.227 444.015 312.527 433.119L293.571 444.063C289.232 439.168 285.336 433.872 281.946 428.236L280.034 424.925C276.912 419.285 274.285 413.333 272.214 407.126L291.175 396.179C289.16 388.908 288.082 381.246 288.082 373.333C288.082 365.42 289.16 357.758 291.175 350.487L272.214 339.539C274.286 333.332 276.913 327.379 280.036 321.738L281.944 318.433C285.335 312.796 289.231 307.498 293.571 302.603L312.527 313.547C323.227 302.651 336.83 294.614 352.082 290.688V268.8C358.976 267.401 366.11 266.666 373.416 266.666C380.722 266.666 387.856 267.401 394.749 268.8V290.688C410.001 294.614 423.602 302.65 434.302 313.545L453.259 302.6C457.583 307.478 461.468 312.754 464.849 318.368L466.833 321.804C469.94 327.424 472.554 333.354 474.618 339.536ZM405.417 373.333C405.417 391.006 391.09 405.333 373.417 405.333C355.744 405.333 341.417 391.006 341.417 373.333C341.417 355.66 355.744 341.333 373.417 341.333C391.09 341.333 405.417 355.66 405.417 373.333Z"/></svg>