<svg width="24" height="24" viewBox="0 0 24 24" fill="none" xmlns="http://www.w3.org/2000/svg"><path d="M18.3838 12V13.0703C18.8713 13.2427 19.3171 13.5035 19.7021 13.833L20.6299 13.2969L22.0195 15.7031L21.0918 16.2383C21.1374 16.4852 21.1611 16.7398 21.1611 17C21.1611 17.2602 21.1374 17.5148 21.0918 17.7617L22.0195 18.2969L20.6299 20.7031L19.7021 20.167C19.3171 20.4965 18.8713 20.7573 18.3838 20.9297V22H15.6055V20.9297C15.1179 20.7573 14.6722 20.4965 14.2871 20.167L13.3594 20.7031L11.9697 18.2969L12.8975 17.7617C12.8518 17.5148 12.8281 17.2602 12.8281 17C12.8281 16.7398 12.8518 16.4852 12.8975 16.2383L11.9697 15.7031L13.3594 13.2969L14.2871 13.833C14.6722 13.5035 15.1179 13.2427 15.6055 13.0703V12H18.3838ZM16.9941 15.333C16.0739 15.3332 15.3281 16.0797 15.3281 17C15.3281 17.9203 16.0739 18.6668 16.9941 18.667C17.9146 18.667 18.6611 17.9205 18.6611 17C18.6611 16.0795 17.9146 15.333 16.9941 15.333ZM11 10H16V11.084C15.1548 11.2258 14.3697 11.544 13.6836 12H4V15H11.3428C11.1216 15.6257 11 16.2986 11 17H2V10H7V8H11V10ZM9 3C11.7922 3 14.2016 4.6353 15.3252 7H2.6748C3.79836 4.6353 6.20778 3 9 3Z"/></svg>