<svg width="512" height="512" viewBox="0 0 512 512" fill="none" xmlns="http://www.w3.org/2000/svg"><path d="M277.333 426.667H362.667V469.333H149.333V426.667H234.667V362.667H42.667V64H469.333V362.667H277.333V426.667ZM256.297 117.333C249.722 117.333 243.302 117.995 237.099 119.254V138.951C223.371 142.484 211.128 149.719 201.497 159.525L184.438 149.676C180.538 154.074 177.037 158.833 173.989 163.896L172.236 166.933C169.434 171.998 167.076 177.344 165.216 182.918L182.28 192.771C180.466 199.315 179.495 206.211 179.495 213.334C179.495 220.456 180.466 227.35 182.28 233.895L165.216 243.746C167.079 249.33 169.441 254.685 172.25 259.759L173.97 262.737C177.022 267.812 180.529 272.583 184.437 276.99L201.496 267.141C211.127 276.948 223.37 284.182 237.099 287.715V307.412C243.302 308.671 249.722 309.333 256.297 309.333C262.873 309.333 269.295 308.671 275.499 307.411V287.713C289.224 284.179 301.465 276.946 311.094 267.141L328.155 276.991C332.091 272.552 335.621 267.745 338.688 262.629L340.294 259.848C343.124 254.748 345.503 249.364 347.377 243.749L330.31 233.896C332.124 227.351 333.096 220.456 333.096 213.334C333.096 206.211 332.124 199.315 330.31 192.771L347.377 182.917C345.506 177.312 343.132 171.936 340.309 166.845L338.67 164.007C335.606 158.902 332.083 154.104 328.154 149.673L311.092 159.524C301.463 149.72 289.224 142.486 275.499 138.953V119.255C269.295 117.995 262.873 117.333 256.297 117.333ZM256.305 184.534C272.21 184.535 285.104 197.428 285.104 213.334C285.104 229.239 272.21 242.133 256.305 242.134C240.399 242.134 227.505 229.24 227.505 213.334C227.505 197.428 240.399 184.534 256.305 184.534Z"/></svg>