<svg width="512" height="512" viewBox="0 0 512 512" fill="none" xmlns="http://www.w3.org/2000/svg"><path fill-rule="evenodd" clip-rule="evenodd" d="M85.3334 64H320H362.667V106.667V149.333H320V106.667H85.3334V298.667H277.333V341.333H224V384H256V426.667H149.333V384H181.333V341.333H85.3334H42.6667V298.667V106.667V64H85.3334ZM274.745 179.006L261.469 186.671C262.88 191.762 263.635 197.127 263.635 202.667C263.635 208.208 262.88 213.572 261.469 218.663L274.745 226.328C273.329 230.568 271.544 234.638 269.427 238.5L267.769 241.373C265.434 245.217 262.761 248.834 259.792 252.182L246.521 244.52C239.031 252.146 229.51 257.771 218.835 260.518V275.84C214.011 276.819 209.018 277.333 203.905 277.333C198.79 277.333 193.794 276.819 188.968 275.839V260.518C178.291 257.77 168.769 252.144 161.279 244.516L148.012 252.176C144.915 248.682 142.14 244.895 139.734 240.863L138.671 239.021C136.426 235.002 134.542 230.753 133.063 226.32L146.333 218.658C144.922 213.569 144.168 208.206 144.168 202.667C144.168 197.128 144.922 191.766 146.333 186.676L133.062 179.015C134.55 174.555 136.448 170.283 138.71 166.243L139.694 164.538C142.109 160.481 144.897 156.671 148.011 153.158L161.278 160.818C168.769 153.19 178.291 147.564 188.968 144.815V129.494C193.729 128.527 198.655 128.014 203.698 128H204.113C209.153 128.014 214.076 128.527 218.835 129.493V144.816C229.511 147.563 239.031 153.188 246.521 160.814L259.794 153.152C262.773 156.512 265.454 160.143 267.795 164.003L269.403 166.789C271.531 170.665 273.325 174.75 274.745 179.006ZM226.299 202.667C226.299 215.038 216.271 225.067 203.899 225.067C191.528 225.067 181.499 215.038 181.499 202.667C181.499 190.295 191.528 180.267 203.899 180.267C216.271 180.267 226.299 190.295 226.299 202.667ZM469.333 170.667V448H298.667V170.667H469.333ZM426.667 213.333H341.333V256H426.667V213.333ZM341.333 405.333V277.333H426.667V405.333H341.333ZM405.333 320V362.667H362.667V320H405.333Z"/></svg>