<svg width="512" height="512" viewBox="0 0 512 512" fill="none" xmlns="http://www.w3.org/2000/svg"><path fill-rule="evenodd" clip-rule="evenodd" d="M42.6667 85.3359H362.667V149.336H277.333V341.336H224V384.003H256V426.669H149.333V384.003H181.333V341.336H42.6667V85.3359ZM252.803 186.299L237.631 195.058C239.244 200.875 240.106 207.005 240.106 213.336C240.106 219.667 239.244 225.796 237.631 231.614L252.803 240.373C251.147 245.335 249.047 250.093 246.551 254.602L245.013 257.266C242.302 261.772 239.186 266.008 235.716 269.922L220.549 261.165C211.989 269.882 201.108 276.311 188.907 279.451V296.963C183.393 298.082 177.686 298.669 171.842 298.669C165.996 298.669 160.288 298.082 154.774 296.962V279.452C142.571 276.312 131.69 269.882 123.129 261.166L107.966 269.92C104.5 266.011 101.388 261.782 98.6799 257.283L97.1221 254.585C94.6302 250.08 92.5338 245.327 90.8797 240.371L106.047 231.614C104.434 225.797 103.572 219.667 103.572 213.336C103.572 207.005 104.434 200.875 106.047 195.057L90.8797 186.301C92.5318 181.351 94.625 176.603 97.1127 172.104L98.69 169.372C101.396 164.879 104.505 160.655 107.966 156.751L123.129 165.506C131.689 156.789 142.571 150.36 154.774 147.219V129.71C160.288 128.59 165.996 128.003 171.842 128.003C177.686 128.003 183.393 128.59 188.907 129.709V147.22C201.108 150.361 211.989 156.79 220.549 165.506L235.716 156.75C239.181 160.659 242.294 164.888 245.002 169.387L246.562 172.089C249.053 176.592 251.149 181.344 252.803 186.299ZM197.442 213.336C197.442 227.474 185.981 238.936 171.842 238.936C157.704 238.936 146.242 227.474 146.242 213.336C146.242 199.198 157.704 187.736 171.842 187.736C185.981 187.736 197.442 199.198 197.442 213.336ZM469.333 448.003V170.669H298.667V448.003H469.333ZM341.333 213.336H426.667V256.003H341.333V213.336ZM341.333 277.336V405.336H426.667V277.336H341.333ZM362.667 362.669H405.333V320.003H362.667V362.669Z"/></svg>