<svg xmlns="http://www.w3.org/2000/svg" width="512" height="512" viewBox="0 0 512 512"><path fill-rule="evenodd" d="M384,64 L384,384 L64,384 L64,64 L384,64 Z M341.333333,106.666667 L106.666667,106.666667 L106.666667,341.333333 L341.333333,341.333333 L341.333333,106.666667 Z M208,122.666667 L208,154.666667 L192,154.666667 C189.054481,154.666667 186.666667,157.054481 186.666667,160 L186.666667,212.222094 L181.296488,216.995586 L173.397333,224 L181.296488,231.004414 L186.666667,235.777906 L186.666667,288 C186.666667,290.945519 189.054481,293.333333 192,293.333333 L208,293.333333 L208,325.333333 L192,325.333333 C171.381369,325.333333 154.666667,308.618631 154.666667,288 L154.666667,250.154667 L138.703512,235.958549 L125.250144,224 L138.703512,212.041451 L154.666667,197.824 L154.666667,160 C154.666667,140.412301 169.751686,124.347897 188.938086,122.790426 L192,122.666667 L208,122.666667 Z M256,122.666667 L259.061914,122.790426 C278.248314,124.347897 293.333333,140.412301 293.333333,160 L293.333333,197.824 L309.296488,212.041451 L322.749856,224 L309.296488,235.958549 L293.333333,250.154667 L293.333333,288 C293.333333,308.618631 276.618631,325.333333 256,325.333333 L240,325.333333 L240,293.333333 L256,293.333333 C258.945519,293.333333 261.333333,290.945519 261.333333,288 L261.333333,235.777906 L266.703512,231.004414 L274.602667,224 L266.703512,216.995586 L261.333333,212.222094 L261.333333,160 C261.333333,157.054481 258.945519,154.666667 256,154.666667 L240,154.666667 L240,122.666667 L256,122.666667 Z M320,1.42108547e-14 L320,42.6666667 L42.6666667,42.6666667 L42.6666667,320 L1.42108547e-14,320 L1.42108547e-14,1.42108547e-14 L320,1.42108547e-14 Z" transform="translate(64 64)"/></svg>