<svg xmlns="http://www.w3.org/2000/svg" width="512" height="512" viewBox="0 0 512 512"><path fill-rule="evenodd" d="M362.666667,256 L362.666,320 L426.666667,320 L426.666667,362.666667 L362.666,362.666 L362.666667,426.666667 L320,426.666667 L320,362.666 L256,362.666667 L256,320 L320,320 L320,256 L362.666667,256 Z M362.666667,0 L362.666,234.666 L319.999,234.666 L320,42.6666667 L42.6666667,42.6666667 L42.6666667,320 L234.666,319.999 L234.666,362.666 L0,362.666667 L0,0 L362.666667,0 Z M165.333333,80 L165.333333,112 L149.333333,112 C146.387815,112 144,114.387815 144,117.333333 L144,169.555427 L138.629821,174.328919 L130.730667,181.333333 L138.629821,188.337747 L144,193.111239 L144,245.333333 C144,248.278852 146.387815,250.666667 149.333333,250.666667 L165.333333,250.666667 L165.333333,282.666667 L149.333333,282.666667 C128.714703,282.666667 112,265.951964 112,245.333333 L112,207.488 L96.0368452,193.291882 L82.5834775,181.333333 L96.0368452,169.374784 L112,155.157333 L112,117.333333 C112,97.7456342 127.085019,81.6812301 146.27142,80.1237589 L149.333333,80 L165.333333,80 Z M213.333333,80 L216.395247,80.1237589 C235.581648,81.6812301 250.666667,97.7456342 250.666667,117.333333 L250.666667,155.157333 L266.629821,169.374784 L280.083189,181.333333 L266.629821,193.291882 L250.666667,207.488 L250.666667,245.333333 C250.666667,265.951964 233.951964,282.666667 213.333333,282.666667 L197.333333,282.666667 L197.333333,250.666667 L213.333333,250.666667 C216.278852,250.666667 218.666667,248.278852 218.666667,245.333333 L218.666667,193.111239 L224.036845,188.337747 L231.936,181.333333 L224.036845,174.328919 L218.666667,169.555427 L218.666667,117.333333 C218.666667,114.387815 216.278852,112 213.333333,112 L197.333333,112 L197.333333,80 L213.333333,80 Z" transform="translate(64 64)"/></svg>