<svg width="512" height="512" viewBox="0 0 512 512" fill="none" xmlns="http://www.w3.org/2000/svg"><path d="M256 42.667C373.821 42.667 469.333 138.179 469.333 256C469.333 373.821 373.821 469.333 256 469.333C138.179 469.333 42.667 373.821 42.667 256C42.667 138.179 138.179 42.667 256 42.667ZM183.854 277.333H86.6553C97.1533 361.521 168.968 426.667 256 426.667C343.032 426.667 414.847 361.521 425.345 277.333H354.521L298.667 389.042L213.333 218.375L183.854 277.333ZM256 85.333C168.968 85.333 97.1533 150.479 86.6553 234.667H157.479L213.333 122.958L298.667 293.625L328.146 234.667H425.345C414.847 150.479 343.032 85.333 256 85.333Z"/></svg>