<svg width="512" height="512" viewBox="0 0 512 512" fill="none" xmlns="http://www.w3.org/2000/svg"><path d="M234.667 64V448H405.333C427.826 448 446.254 430.595 447.883 408.518L448 405.333V106.667C448 84.1736 430.595 65.7458 408.518 64.117L405.333 64H234.667ZM277.333 106.615H405.333V405.281L277.333 405.333V106.615ZM150.281 298.615C130.4 298.615 113.695 312.212 108.959 330.614H42.6667V373.333L108.964 373.303C113.708 391.695 130.408 405.281 150.281 405.281H213.333V298.615H150.281ZM150.281 106.615C130.4 106.615 113.695 120.212 108.959 138.614H42.6667V181.303H108.964C113.708 199.695 130.408 213.281 150.281 213.281H213.333V106.667L150.281 106.615Z"/></svg>