<svg width="512" height="512" viewBox="0 0 512 512" fill="none" xmlns="http://www.w3.org/2000/svg"><path fill-rule="evenodd" clip-rule="evenodd" d="M256.449 42.6667L426.667 83.84L426.446 101.099L426.496 194.383L426.615 219.803C427.176 329.435 367.657 396.631 318.865 433.262L307.828 441.179L292.41 451.089L283.171 456.434L274.99 460.808L262.575 466.77L256.449 469.333L250.047 466.651L244.322 464.007L237.099 460.417L226.279 454.545L213.844 447.077L203.006 439.908C154.658 406.492 90.3073 342.173 85.6068 234.757L85.3335 222.17V84.0906L256.449 42.6667ZM357.144 206.323L260.517 312.989L244.706 330.443L228.895 312.989L176.19 254.807L207.811 226.162L244.706 266.891L325.523 177.677L357.144 206.323Z"/></svg>