<svg width="512" height="512" viewBox="0 0 512 512" fill="none" xmlns="http://www.w3.org/2000/svg"><path fill-rule="evenodd" clip-rule="evenodd" d="M311.874 171.817L377.326 72.063L376.461 71.6959L426.667 83.84L426.446 101.099L426.495 194.383L426.614 219.803C427.176 329.435 367.657 396.631 318.865 433.262L307.828 441.179L292.41 451.089L283.171 456.434L274.99 460.808L262.575 466.77L256.449 469.333L250.046 466.651L244.321 464.007L237.099 460.416L226.278 454.545L213.844 447.077L203.005 439.908C154.658 406.492 90.3071 342.173 85.6066 234.757L85.3333 222.17V84.0906L256.449 42.6666L279.175 48.1638L216.197 190.847L265.098 211.604L184.483 365.652L361.365 192.825L311.874 171.817Z"/></svg>