<svg width="512" height="512" viewBox="0 0 512 512" fill="none" xmlns="http://www.w3.org/2000/svg"><path fill-rule="evenodd" clip-rule="evenodd" d="M42.6694 257.621C41.7728 139.802 136.557 43.565 254.375 42.6684C372.193 41.7719 468.431 136.556 469.327 254.374C470.224 372.192 375.44 468.43 257.622 469.326C139.803 470.223 43.5659 375.439 42.6694 257.621ZM129.441 234.664C132.447 216.83 139.203 199.751 149.354 184.59C163.477 163.497 183.538 147.066 206.999 137.374C230.461 127.682 256.269 125.165 281.161 130.141C306.053 135.117 328.911 147.363 346.843 165.33C364.775 183.296 376.977 206.177 381.906 231.079C382.142 232.272 382.361 233.467 382.563 234.664H362.669V277.331H382.563C380.957 286.855 378.274 296.215 374.531 305.227C364.795 328.669 348.325 348.699 327.205 362.781C312.094 372.858 295.087 379.566 277.335 382.558V362.665H234.668V447.999H277.335V425.327C284.484 424.426 291.556 423.076 298.511 421.287C316.99 416.534 334.641 408.691 350.685 397.993C378.769 379.267 400.669 352.633 413.616 321.46C419.512 307.265 423.431 292.418 425.331 277.331H448.004V234.664H425.332C424.834 230.718 424.198 226.781 423.422 222.862C416.869 189.749 400.643 159.323 376.798 135.432C352.952 111.541 322.558 95.2574 289.458 88.6405C256.357 82.0236 222.039 85.3706 190.841 98.2583C159.643 111.146 132.967 132.995 114.187 161.044C103.458 177.067 95.5818 194.703 90.7941 213.173C88.9649 220.229 87.5865 227.407 86.6723 234.664H64.0003V277.331H149.334V234.664H129.441ZM277.335 244.569V149.33H234.668V255.996L234.666 255.997L280.513 335.407L317.464 314.073L277.335 244.569Z"/></svg>