<svg width="512" height="512" viewBox="0 0 512 512" fill="none" xmlns="http://www.w3.org/2000/svg"><path fill-rule="evenodd" clip-rule="evenodd" d="M170.667 149.333L149.333 42.6666H42.6666V85.3333H114.987L170.667 362.667H426.667L469.333 149.333H170.667ZM390.827 320H205.653L180.053 192H417.28L390.827 320Z"/><path d="M256 437.333C256 455.006 241.673 469.333 224 469.333C206.327 469.333 192 455.006 192 437.333C192 419.66 206.327 405.333 224 405.333C241.673 405.333 256 419.66 256 437.333Z"/><path d="M405.333 437.333C405.333 455.006 391.006 469.333 373.333 469.333C355.66 469.333 341.333 455.006 341.333 437.333C341.333 419.66 355.66 405.333 373.333 405.333C391.006 405.333 405.333 419.66 405.333 437.333Z"/></svg>