<svg width="24" height="24" viewBox="0 0 24 24" fill="none" xmlns="http://www.w3.org/2000/svg"><path d="M15 5.58301C17.9316 6.76991 20 9.64282 20 13V17.6172L21.5859 16L23 17.4141L19.0508 21.4141L15 17.4141L16.4141 16L18 17.5547V13C18 10.7793 16.7932 8.8412 15 7.80371V5.58301ZM9 7.80371C7.20684 8.8412 6 10.7793 6 13C6 16.3137 8.68629 19 12 19C12.5321 19 13.0478 18.9298 13.5391 18.7998L15.165 20.3477C14.1942 20.7664 13.1245 21 12 21C7.58172 21 4 17.4183 4 13C4 9.64282 6.06844 6.76991 9 5.58301V7.80371ZM13 13H11V3H13V13Z"/></svg>