<svg xmlns="http://www.w3.org/2000/svg" width="512" height="512" viewBox="0 0 512 512"><path fill-rule="evenodd" d="M64,42.6666667 L320,42.6666667 L320,125.481813 L362.666667,146.815147 L362.666667,0 L21.3333333,0 L21.3333333,29.4818133 L64,50.8151467 L64,42.6666667 Z M362.666667,237.184 L320,258.517333 L320,341.333333 L64,341.333333 L64,333.184 L21.3333333,354.517333 L21.3333333,384 L362.666667,384 L362.666667,237.184 Z M64,141.18464 L64,242.816 L21.3333333,221.482667 L21.3333333,162.517333 L64,141.18464 Z M106.666667,96 L0,149.333333 L0,42.6666667 L106.666667,96 Z M0,341.333333 L106.666667,288 L0,234.666667 L0,341.333333 Z M405.333333,192 L298.666667,245.333333 L298.666667,138.666667 L405.333333,192 Z M128,128 L128,256 L151.613867,256 L151.613867,152.3904 C154.229333,163.409067 156.497067,172.2624 158.4192,178.946133 L180.512,256 L202.446933,256 L225.179733,176.778667 C227.528533,168.7104 229.610667,160.580267 231.424,152.3904 L231.424,256 L256,256 L256,128 L218.536533,128 L198.683733,197.194667 C196.763733,203.8784 194.5472,212.490667 192.040533,223.029333 C189.531733,212.369067 187.342933,203.758933 185.476267,197.194667 L165.864533,128 L128,128 Z" transform="translate(64 64)"/></svg>