<svg width="512" height="512" viewBox="0 0 512 512" fill="none" xmlns="http://www.w3.org/2000/svg"><path fill-rule="evenodd" clip-rule="evenodd" d="M128 42.666C104.436 42.666 85.3333 61.7685 85.3333 85.3327V426.666C85.3333 450.23 104.436 469.333 128 469.333H298.667C322.231 469.333 341.333 450.23 341.333 426.666V319.999H309.333L298.667 330.666V426.666L128 426.666V85.3329H298.667V127.999H341.333V85.3329C341.333 61.7687 322.231 42.6662 298.667 42.6662L128 42.666ZM234.667 362.666V405.333H192V362.666H234.667ZM170.667 106.666H256V127.999H170.667V106.666ZM448 149.333H256V341.333L298.667 298.666H448V149.333ZM399.998 224C399.998 232.836 407.161 240 415.998 240C424.835 240 431.998 232.836 431.998 224C431.998 215.163 424.835 208 415.998 208C407.161 208 399.998 215.163 399.998 224ZM352 240C343.163 240 336 232.837 336 224C336 215.164 343.163 208 352 208C360.837 208 368 215.164 368 224C368 232.837 360.837 240 352 240ZM271.998 224C271.998 232.837 279.161 240 287.998 240C296.835 240 303.998 232.837 303.998 224C303.998 215.164 296.835 208 287.998 208C279.161 208 271.998 215.164 271.998 224Z"/></svg>