<svg width="512" height="512" viewBox="0 0 512 512" fill="none" xmlns="http://www.w3.org/2000/svg"><path fill-rule="evenodd" clip-rule="evenodd" d="M202.669 356.782L323.824 376.112L376.379 448H137.491L202.669 356.782ZM42.6667 219.842L149.158 247.657L183.798 347.157L119.512 437.114L42.6667 219.842ZM469.333 216.953L392.403 434.408L345.905 370.822L425.725 228.877L469.333 216.953ZM368.665 244.483L318.596 333.484L272.714 270.732L368.665 244.483ZM255.576 282.757L289.652 329.373L229.149 319.729L255.576 282.757ZM198.44 260.538L238.266 270.935L213.933 304.997L198.44 260.538ZM244.854 209.221V251.564L206.325 241.492L244.854 209.221ZM266.105 198.538L351.961 227.9L266.117 251.401L266.105 198.538ZM244.854 64V155.178L157.149 228.653L48.8296 200.37L244.854 64ZM266.105 64L459.473 198.498L422.155 208.712L266.105 155.34V64Z"/></svg>