<svg width="512" height="512" viewBox="0 0 512 512" fill="none" xmlns="http://www.w3.org/2000/svg"><path fill-rule="evenodd" clip-rule="evenodd" d="M170.667 128.001H234.667V192.001H170.667V128.001ZM128 192.001H64V277.335H128V192.001ZM128 298.668H64V426.668H128V298.668ZM234.667 213.335H170.667V426.668H234.667V213.335ZM277.333 234.668H341.333V298.668H277.333V234.668ZM341.333 320.001H277.333V426.668H341.333V320.001ZM384 149.335H448V213.335H384V149.335ZM448 234.668H384V426.668H448V234.668Z"/><path fill-rule="evenodd" clip-rule="evenodd" d="M170.667 74.668H234.667V106.668H170.667V74.668ZM128 149.335H64V170.668H128V149.335ZM277.333 170.668H341.333V213.335H277.333V170.668ZM384 106.668H448V128.001H384V106.668Z"/></svg>