<svg xmlns="http://www.w3.org/2000/svg" width="512" height="512" viewBox="0 0 512 512"><path fill-rule="evenodd" d="M341.333333,384 L341.333333,426.666667 L42.6666667,426.666667 L42.6666667,384 L341.333333,384 Z M192,7.10542736e-15 C245.019336,7.10542736e-15 288,38.2050347 288,85.3333333 C288,110.598638 275.647392,133.299403 256.017668,148.924081 L256.007,213.333 L352,213.333333 L384,362.666667 L1.42108547e-14,362.666667 L32,213.333333 L128.001,213.333 L128.003315,148.940778 C108.361411,133.315577 96,110.607639 96,85.3333333 C96,38.2050347 138.980664,7.10542736e-15 192,7.10542736e-15 Z M317.504,256 L66.4746667,256 L52.7573333,320 L331.221333,320 L317.504,256 Z M192,42.6666667 C161.49867,42.6666667 138.666667,62.9617807 138.666667,85.3333333 C138.666667,96.5152257 144.220996,107.32165 154.565318,115.550593 L170.670618,128.362414 L170.669981,148.942099 L170.645333,213.333333 L213.333333,213.333333 L213.354395,128.350027 L229.446118,115.541493 C239.783288,107.313413 245.333333,96.5110564 245.333333,85.3333333 C245.333333,62.9617807 222.50133,42.6666667 192,42.6666667 Z" transform="translate(64 42.667)"/></svg>