<svg xmlns="http://www.w3.org/2000/svg" width="512" height="512" viewBox="0 0 512 512"><path fill-rule="evenodd" d="M234.667065,55.0725249 C297.212568,80.3904855 341.333333,141.709431 341.333333,213.333333 C341.333333,307.589931 264.923264,384 170.666667,384 C76.4100694,384 1.42108547e-14,307.589931 1.42108547e-14,213.333333 C1.42108547e-14,141.709431 44.1207654,80.3904855 106.666268,55.0725249 L106.666268,102.457685 C68.4072,124.589545 42.6666667,165.955427 42.6666667,213.333333 C42.6666667,284.025781 99.9742187,341.333333 170.666667,341.333333 C241.359115,341.333333 298.666667,284.025781 298.666667,213.333333 C298.666667,165.955419 272.926124,124.589531 234.667046,102.457674 L234.667065,55.0725249 Z M192,1.42108547e-14 L192,213.333333 L149.333333,213.333333 L149.333333,1.42108547e-14 L192,1.42108547e-14 Z" transform="translate(85.333 64)"/></svg>