<svg xmlns="http://www.w3.org/2000/svg" width="512" height="512" viewBox="0 0 512 512"><path fill-rule="evenodd" d="M213.333333,3.55271368e-14 C331.15408,3.55271368e-14 426.666667,95.5125867 426.666667,213.333333 C426.666667,331.15408 331.15408,426.666667 213.333333,426.666667 C95.5125867,426.666667 3.55271368e-14,331.15408 3.55271368e-14,213.333333 C3.55271368e-14,95.5125867 95.5125867,3.55271368e-14 213.333333,3.55271368e-14 Z M42.6666667,213.333333 C42.6666667,300.364854 107.811537,372.180975 191.999065,382.679483 L191.999607,273.691473 C170.129652,265.961391 153.715616,246.681629 150.086283,223.180971 L42.9686875,203.095253 C42.7682871,206.482318 42.6666667,209.895958 42.6666667,213.333333 Z M383.697979,203.095253 L276.580384,223.180971 C272.95105,246.681629 256.537014,265.961391 234.66706,273.691473 L234.667936,382.679442 C318.855302,372.180785 384,300.364739 384,213.333333 C384,209.895958 383.89838,206.482318 383.697979,203.095253 Z M213.333333,42.6666667 C137.276902,42.6666667 72.8403631,92.4173405 50.7917609,161.150644 L157.951889,181.235868 C169.031596,162.159986 189.684552,149.333333 213.333333,149.333333 C236.982114,149.333333 257.63507,162.159986 268.714777,181.235868 L375.874906,161.150644 C353.826304,92.4173405 289.389765,42.6666667 213.333333,42.6666667 Z" transform="translate(42.667 42.667)"/></svg>