<svg xmlns="http://www.w3.org/2000/svg" width="512" height="512" viewBox="0 0 512 512"><path fill-rule="evenodd" d="M181.384747,7.10542736e-15 C222.622008,7.10542736e-15 256.051413,33.4294053 256.051413,74.6666667 C256.051413,114.529353 224.813491,147.096031 185.481498,149.222851 L181.384747,149.333333 C140.147485,149.333333 106.71808,115.903928 106.71808,74.6666667 C106.71808,34.8039807 137.956002,2.23730242 177.287996,0.110482405 L181.384747,7.10542736e-15 Z M181.384747,170.666667 C265.67639,170.666667 337.613427,231.606479 351.470887,314.751244 L362.427817,380.492822 C366.595747,405.500403 331.443412,415.607463 321.692439,392.205128 L301.354419,343.389919 C283.215261,392.02758 236.3452,426.666667 181.384747,426.666667 C126.424293,426.666667 79.5542322,392.02758 61.4150743,343.389919 L41.0770543,392.205128 C31.3260813,415.607463 -3.82625399,405.500403 0.341676204,380.492822 L11.2986058,314.751244 C25.1560667,231.606479 97.0931031,170.666667 181.384747,170.666667 Z M165.383624,382.502232 L165.384898,338.23197 C152.563742,333.042156 142.839418,321.801226 139.753325,308.050582 L96.0797191,300.886274 C97.1180523,341.553029 126.607041,375.146036 165.383624,382.502232 Z M266.689774,300.886274 L223.016168,308.050582 C219.930075,321.801226 210.205751,333.042156 197.384595,338.23197 L197.385474,382.502307 C236.162252,375.146264 265.651437,341.553167 266.689774,300.886274 Z M181.384747,213.333333 C144.575597,213.333333 113.209867,236.639381 101.239008,269.300026 L144.944011,276.462113 C152.437209,264.191005 165.954422,256 181.384747,256 C196.814233,256 210.330815,264.190115 217.824261,276.460112 L261.530486,269.300026 C249.917726,237.616401 220.053106,214.736072 184.673117,213.395527 L181.384747,213.333333 Z" transform="translate(74.615 42.667)"/></svg>