<svg width="512" height="512" viewBox="0 0 512 512" fill="none" xmlns="http://www.w3.org/2000/svg"><path fill-rule="evenodd" clip-rule="evenodd" d="M341.333 42.666H170.667V85.3327H234.667V129.32C208.816 132.543 184.762 141.548 163.837 154.999L115.503 106.665L85.3333 136.835L130.983 182.485C102.657 212.951 85.3333 253.785 85.3333 298.666C85.3333 392.923 161.743 469.333 256 469.333C350.257 469.333 426.667 392.923 426.667 298.666C426.667 255.525 410.66 216.123 384.261 186.074L433.5 136.835L403.33 106.665L352.271 157.724C330.411 142.764 304.892 132.756 277.333 129.32V85.3327H341.333V42.666ZM384 298.666C384 369.358 326.692 426.666 256 426.666C185.308 426.666 128 369.358 128 298.666C128 227.974 185.308 170.666 256 170.666C326.692 170.666 384 227.974 384 298.666ZM243.498 326.837L329.167 241.169L298.997 210.999L213.329 296.667L243.498 326.837Z"/></svg>