<svg width="512" height="512" viewBox="0 0 512 512" fill="none" xmlns="http://www.w3.org/2000/svg"><path d="M277.333 42.668V140.504L315.582 102.255L345.751 132.425L256 222.176L166.248 132.425L196.418 102.255L234.667 140.504V42.668H277.333Z"/><path fill-rule="evenodd" clip-rule="evenodd" d="M448 448.001V405.334H353.792C359.501 392.268 362.667 377.838 362.667 362.668C362.667 303.755 314.91 256 256 256C197.09 256 149.333 303.755 149.333 362.668C149.333 377.838 152.5 392.268 158.209 405.334H64V448.001H448ZM303.703 405.334C313.839 394.011 320 379.058 320 362.668C320 327.32 291.347 298.667 256 298.667C220.653 298.667 192 327.32 192 362.668C192 379.058 198.162 394.011 208.296 405.334H303.703Z"/><path d="M405.333 362.668H469.333V320.001H405.333V362.668Z"/><path d="M106.667 362.668H42.6667V320.001H106.667V362.668Z"/><path d="M175.085 230.249L121.752 176.915L91.5817 207.085L144.915 260.419L175.085 230.249Z"/><path d="M390.249 176.915L336.915 230.249L367.085 260.419L420.418 207.085L390.249 176.915Z"/></svg>