<svg width="512" height="512" viewBox="0 0 512 512" fill="none" xmlns="http://www.w3.org/2000/svg"><path d="M277.333 42.668V140.504L315.582 102.255L345.751 132.425L256 222.178L166.248 132.425L196.418 102.255L234.667 140.504V42.668H277.333Z"/><path d="M448 448.001V405.334H353.792C359.501 392.268 362.667 377.838 362.667 362.667C362.667 303.757 314.91 256 256 256C197.09 256 149.333 303.757 149.333 362.667C149.333 377.838 152.5 392.268 158.209 405.334H64V448.001H448Z"/><path d="M405.333 362.667H469.333V320.001H405.333V362.667Z"/><path d="M106.667 362.667H42.6667V320.001H106.667V362.667Z"/><path d="M175.085 230.248L121.752 176.916L91.5817 207.086L144.915 260.42L175.085 230.248Z"/><path d="M390.249 176.916L336.915 230.248L367.085 260.42L420.418 207.086L390.249 176.916Z"/></svg>