<svg xmlns="http://www.w3.org/2000/svg" width="512" height="512" viewBox="0 0 512 512"><path fill-rule="evenodd" d="M30.169894,-1.42108547e-14 L392.836561,362.666662 L362.666662,392.836561 C317.907399,342.925718 275.34977,297.468977 234.993774,256.466337 L198.983,246.579 L149.384948,332.486646 L149.333333,332.462061 L149.333333,332.496768 L64,332.483394 L64,375.163435 L21.3333333,375.163435 L21.3333333,247.163435 L64,247.163435 L64,289.816728 L124.736,289.816728 L156.451,234.901 L21.3333333,197.803181 L52.8826108,80.068587 C36.1963338,64.2748611 18.5687968,47.6419634 7.10542736e-15,30.169894 L30.169894,-1.42108547e-14 Z M145.202,54.694 L426.344993,131.396804 L392.022,165.76 L415.82323,172.166377 L393.737339,254.592048 L327.298,236.79 L145.202,54.694 Z" transform="translate(42.667 72.837)"/></svg>