<svg width="512" height="512" viewBox="0 0 512 512" fill="none" xmlns="http://www.w3.org/2000/svg"><path fill-rule="evenodd" clip-rule="evenodd" d="M341.333 192C335.669 192 330.078 192.315 324.578 192.93L238.315 106.667H106.667V238.315L192.93 324.578C192.315 330.078 192 335.669 192 341.333C192 359.602 195.281 377.105 201.285 393.285L64 256V64H256L393.285 201.285C377.105 195.281 359.602 192 341.333 192ZM192 160C192 177.673 177.673 192 160 192C142.327 192 128 177.673 128 160C128 142.327 142.327 128 160 128C177.673 128 192 142.327 192 160ZM469.333 341.333C469.333 270.641 412.026 213.333 341.333 213.333H320V320H277.333L341.333 384L405.333 320H362.667L362.683 258.693C399.48 268.171 426.667 301.577 426.667 341.333C426.667 388.462 388.462 426.667 341.333 426.667C294.205 426.667 256 388.462 256 341.333C256 317.769 265.551 296.436 280.994 280.994L250.824 250.824C227.66 273.987 213.333 305.987 213.333 341.333C213.333 412.026 270.641 469.333 341.333 469.333C412.026 469.333 469.333 412.026 469.333 341.333Z"/></svg>