<svg width="512" height="512" viewBox="0 0 512 512" fill="none" xmlns="http://www.w3.org/2000/svg"><path fill-rule="evenodd" clip-rule="evenodd" d="M256 64L362.667 170.667H320V188.352L238.315 106.667H106.667V238.315L277.333 408.981L320 366.315V426.667L277.333 469.333L64 256V64H256ZM160 192C177.673 192 192 177.673 192 160C192 142.327 177.673 128 160 128C142.327 128 128 142.327 128 160C128 177.673 142.327 192 160 192ZM470.281 469.385V192.052H342.281V469.385H470.281ZM384.948 405.385C384.948 393.603 394.499 384.052 406.281 384.052C418.063 384.052 427.615 393.603 427.615 405.385C427.615 417.167 418.063 426.719 406.281 426.719C394.499 426.719 384.948 417.167 384.948 405.385ZM384.948 234.719H427.615V341.385H384.948V234.719Z"/></svg>