<svg width="512" height="512" viewBox="0 0 512 512" fill="none" xmlns="http://www.w3.org/2000/svg"><path fill-rule="evenodd" clip-rule="evenodd" d="M469.333 277.333L256 64H64V256L277.333 469.333V408.981L106.667 238.315V106.667H238.315L408.981 277.333H469.333ZM192 160C192 177.673 177.673 192 160 192C142.327 192 128 177.673 128 160C128 142.327 142.327 128 160 128C177.673 128 192 142.327 192 160Z"/><path fill-rule="evenodd" clip-rule="evenodd" d="M426.667 320L426.666 384H490.667V426.667L426.666 426.666L426.667 490.667H384V426.666L320 426.667V384H384V320H426.667Z"/></svg>