<svg width="512" height="512" viewBox="0 0 512 512" fill="none" xmlns="http://www.w3.org/2000/svg"><path d="M461.226 111.998C456.746 141.011 426.453 338.131 416.64 399.998C416.658 404.63 415.489 409.189 413.244 413.24C410.999 417.291 407.753 420.699 403.816 423.138C399.879 425.577 395.382 426.967 390.755 427.173C386.128 427.38 381.525 426.397 377.386 424.318C364.5 419.796 352.352 413.398 341.333 405.331C307.413 382.718 272.853 361.171 240.853 335.998C225.493 323.838 225.28 312.531 240.853 299.091C277.973 265.243 314.453 230.54 350.293 194.985C354.986 190.291 365.653 179.838 359.68 173.651C353.706 167.465 341.333 176.211 335.36 180.265C285.44 213.545 235.093 246.611 186.026 280.745C177.846 286.912 168.276 290.974 158.158 292.573C148.039 294.173 137.683 293.261 128 289.918C104.533 282.878 81.2797 275.198 58.2397 267.518C48.853 264.531 24.1063 254.505 69.973 235.731C187.093 187.091 306.56 138.238 424.106 89.8114C452.693 78.9314 464.64 88.5314 461.226 111.998Z"/></svg>