<svg xmlns="http://www.w3.org/2000/svg" width="512" height="512" viewBox="0 0 512 512"><path fill-rule="evenodd" d="M341.333333,170.666667 C388.4608,170.666667 426.666667,132.461653 426.666667,85.3333333 C426.666667,38.2050133 388.4608,7.10542736e-15 341.333333,7.10542736e-15 C294.205867,7.10542736e-15 256,38.2050133 256,85.3333333 C256,132.461653 294.205867,170.666667 341.333333,170.666667 Z M213.28,149.333333 L213.28,85.3333333 L3.55271368e-14,85.3333333 L3.55271368e-14,149.333333 L31.9921067,149.333333 L42.656,128 L85.312,128 L85.312,277.333333 L42.656,288 L42.656,320 L170.624,320 L170.624,288 L127.968,277.333333 L127.968,128 L170.624,128 L181.288533,149.333333 L213.28,149.333333 Z M213.333333,213.333333 L213.333333,405.333333 L405.333333,405.333333 L405.333333,213.333333 L213.333333,213.333333 Z" transform="translate(42.667 42.667)"/></svg>