<svg width="512" height="512" viewBox="0 0 512 512" fill="none" xmlns="http://www.w3.org/2000/svg"><path fill-rule="evenodd" clip-rule="evenodd" d="M130.133 42.6667V223.36C130.133 244.324 130.446 261.063 131.071 273.579C132.01 286.094 133.574 296.263 135.765 304.085C138.268 311.908 141.553 319.104 145.621 325.675C165.02 356.964 200.846 372.608 253.098 372.608C301.909 372.608 336.796 358.684 357.759 330.837C363.078 323.954 366.99 316.445 369.493 308.309C372.309 300.174 374.186 289.536 375.125 276.395C376.063 263.253 376.533 245.575 376.533 223.36V42.6667H327.253V240.725C327.253 272.327 322.246 294.542 312.234 307.371C306.602 315.193 298.623 321.138 288.298 325.205C278.286 329.273 266.552 331.307 253.098 331.307C239.644 331.307 228.067 329.273 218.367 325.205C208.668 321.138 200.846 315.037 194.901 306.901C190.207 299.705 186.766 290.475 184.575 279.211C182.698 267.947 181.759 253.71 181.759 236.501V42.6667H130.133ZM405.333 405.333H106.667V448H405.333V405.333Z"/></svg>