<svg width="512" height="512" viewBox="0 0 512 512" fill="none" xmlns="http://www.w3.org/2000/svg"><path d="M469.12 170.667H426.475V106.667H85.3115V320H319.861V362.667H277.216V426.667H362.507V469.333H149.28V426.667H234.57V362.667H42.667V64H469.12V170.667ZM255.896 149.333C318.371 170.026 362.296 167.254 386.817 191.787C406.007 210.987 410.059 239.36 399.185 262.613L469.336 332.587L439.271 362.667L369.119 292.693C345.878 303.36 317.519 299.52 298.328 280.32C273.807 255.787 275.939 212.906 255.896 149.333ZM235.539 155.75C245.233 186.498 249.27 211.108 254.644 234.292C259.724 256.207 266.323 278.479 283.227 295.396C284.357 296.527 285.513 297.616 286.688 298.667H106.667V128H226.793L235.539 155.75Z"/></svg>