<svg width="512" height="512" viewBox="0 0 512 512" fill="none" xmlns="http://www.w3.org/2000/svg"><path fill-rule="evenodd" clip-rule="evenodd" d="M256 42.6666C220.654 42.6666 192 71.3204 192 106.667V277.325C166.092 296.786 149.333 327.769 149.333 362.667C149.333 421.577 197.09 469.333 256 469.333C314.91 469.333 362.667 421.577 362.667 362.667C362.667 327.769 345.908 296.786 320 277.325V106.667C320 71.3204 291.346 42.6666 256 42.6666ZM341.333 64H384V85.3333H341.333V64ZM341.333 128H384V149.333H341.333V128ZM384 192H341.333V213.333H384V192ZM341.333 256H384V277.333H341.333V256ZM256 405.333C279.564 405.333 298.667 386.231 298.667 362.667C298.667 339.102 279.564 320 256 320C232.436 320 213.333 339.102 213.333 362.667C213.333 386.231 232.436 405.333 256 405.333Z"/></svg>