<svg width="512" height="512" viewBox="0 0 512 512" fill="none" xmlns="http://www.w3.org/2000/svg"><path d="M349.873 238.326C348.502 237.668 347.097 237.021 345.682 236.396C341.866 176.046 307.876 141.278 252.231 140.923L251.47 140.921C217.692 140.921 189.555 155.39 172.24 181.664L170.876 183.733L205.299 207.347L206.715 205.199C218.714 186.994 237.684 183.172 251.484 183.172L251.971 183.173C269.324 183.284 282.355 188.256 290.705 197.95C296.239 204.378 300.156 213.161 302.37 224.095C287.147 221.797 270.679 221.134 253.351 222.128C199.541 225.228 164.959 256.801 167.299 300.694C168.488 323.017 179.601 342.214 198.591 354.753C214.51 365.26 234.991 370.405 256.242 369.246C284.355 367.705 306.439 356.943 321.879 337.261C332.972 323.121 340.086 305.335 343.57 282.983C354.727 290.416 362.717 299.634 367.344 310.426C376.106 330.859 376.59 364.462 349.114 391.914C324.767 416.237 295.422 426.754 251.031 427.08C201.752 426.715 164.531 410.977 140.4 380.301C117.691 351.432 105.954 309.604 105.515 256.021C105.954 202.394 117.691 160.566 140.4 131.698C164.53 101.023 201.751 85.2837 250.992 84.9177C300.65 85.2867 338.542 101.114 363.613 131.96C375.836 146.998 385.172 166.017 391.363 188.488L392.028 190.903L432.357 180.144L431.693 177.696C424.055 149.544 411.911 125.095 395.6 105.027C362.318 64.0818 313.719 43.1003 251.135 42.6667H250.87C188.412 43.0989 140.342 64.1686 107.994 105.29C79.2978 141.769 64.4972 192.419 64.001 255.835L64 256.017L64.001 256.168C64.4972 319.582 79.2978 370.231 107.994 406.71C140.343 447.832 188.414 468.901 250.888 469.333H251.153C306.679 468.948 345.86 454.369 378.193 422.065C420.727 379.571 419.429 326.262 405.393 293.523C395.3 269.994 376.102 250.908 349.873 238.326ZM208.75 298.405C207.522 275.333 232.196 265.666 255.697 264.311C259.915 264.068 264.144 263.945 268.266 263.945C280.8 263.945 292.71 265.075 303.703 267.305C301.604 289.786 295.429 305.987 285.337 315.475C275.353 324.863 262.674 326.581 254.007 327.057H254.003C239.465 327.872 225.817 323.916 217.499 316.462C212.074 311.601 209.13 305.525 208.75 298.405Z"/></svg>