<svg width="512" height="512" viewBox="0 0 512 512" fill="none" xmlns="http://www.w3.org/2000/svg"><path d="M254.571 424.759C248.39 423.256 244.279 421.073 242.595 418.98C240.504 416.378 239.421 409.112 242.655 396.517C247.571 377.365 254.101 351.525 254.101 351.525L267.455 298.681L211.45 298.681L146.968 298.681C134.579 298.681 123.957 294.34 117.065 286.465C109.288 277.573 106.341 264.093 108.72 248.408L108.905 247.35C121.593 174.852 131.62 140.735 137.794 124.891C146.247 103.249 156.052 85.3363 190.564 85.3363C195.03 85.3363 199.798 85.641 204.751 86.2452L404.083 121.026L404.082 252.702L333.106 292.483L321.996 298.71L316.082 309.768C316.082 309.768 276.007 384.689 254.571 424.759ZM272.315 469.334C274.965 469.334 277.641 469.261 280.332 469.12C280.339 469.12 355.051 329.443 355.051 329.443L448 277.347L448 85.3363L211.45 44.0632C204.009 43.1048 197.061 42.6673 190.564 42.6673C122.907 42.6673 104.187 90.6699 96.7242 109.775C82.1851 147.09 70.112 214.466 65.6088 240.196L65.566 240.342C60.7409 269.104 67.1527 295.293 83.6003 314.096C98.6326 331.274 121.128 341.35 146.968 341.35L211.45 341.35C211.45 341.35 204.942 367.104 200.042 386.191C184.711 445.916 224.539 469.334 272.315 469.334Z"/></svg>