<svg width="512" height="512" viewBox="0 0 512 512" fill="none" xmlns="http://www.w3.org/2000/svg"><path d="M257.429 87.2414C263.61 88.7441 267.721 90.9265 269.405 93.0203C271.496 95.6221 272.579 102.888 269.345 115.483C264.429 134.635 257.899 160.475 257.899 160.475L244.545 213.319H300.55H365.032C377.421 213.319 388.043 217.66 394.935 225.535C402.712 234.427 405.659 247.906 403.28 263.592L403.095 264.65C390.407 337.148 380.38 371.265 374.206 387.109C365.753 408.751 355.948 426.664 321.436 426.664C316.97 426.664 312.202 426.359 307.249 425.755L107.918 390.974V259.298L178.894 219.517L190.004 213.29L195.918 202.232C195.918 202.232 235.993 127.311 257.429 87.2414ZM239.685 42.666C237.035 42.666 234.359 42.7389 231.668 42.8796C231.661 42.8796 156.949 182.557 156.949 182.557L64 234.653V426.664L300.55 467.937C307.991 468.895 314.939 469.333 321.436 469.333C389.093 469.333 407.813 421.33 415.276 402.225C429.815 364.91 441.888 297.534 446.391 271.804L446.434 271.658C451.259 242.896 444.847 216.707 428.4 197.904C413.367 180.726 390.872 170.65 365.032 170.65H300.55C300.55 170.65 307.058 144.896 311.958 125.809C327.289 66.084 287.461 42.666 239.685 42.666Z"/></svg>