<svg width="512" height="512" viewBox="0 0 512 512" fill="none" xmlns="http://www.w3.org/2000/svg"><path fill-rule="evenodd" clip-rule="evenodd" d="M42.6667 255.999C42.6667 138.179 138.179 42.666 256 42.666C373.821 42.666 469.333 138.179 469.333 255.999C469.333 271.033 467.778 285.704 464.82 299.86C443.314 273.116 410.323 255.999 373.333 255.999C348.215 255.999 324.941 263.892 305.854 277.333H203.161C203.418 282.871 203.773 288.324 204.217 293.677L205.371 305.604C205.588 307.562 205.817 309.504 206.057 311.431L207.632 322.793C211.614 348.831 217.689 371.471 224.737 388.911L227.814 396.061C236.681 415.388 246.746 426.666 256 426.666C259.453 426.666 263.019 425.096 266.594 422.123C274.244 438.833 285.703 453.435 299.86 464.819C285.705 467.778 271.034 469.333 256 469.333C138.179 469.333 42.6667 373.82 42.6667 255.999ZM86.6537 234.666C94.282 173.492 134.286 122.373 188.978 98.9955C181.245 115.342 174.915 134.646 170.166 156.09L167.829 167.486C164.908 182.93 162.769 199.343 161.472 216.451L160.658 229.408C160.57 231.155 160.492 232.907 160.422 234.666H86.6537ZM86.6537 277.333C94.282 338.507 134.286 389.626 188.978 413.003C181.245 396.656 174.915 377.353 170.166 355.909L167.829 344.512C164.908 329.069 162.769 312.655 161.472 295.547L160.658 282.591C160.57 280.844 160.492 279.091 160.422 277.333H86.6537ZM425.346 234.666H351.578C351.508 232.907 351.43 231.155 351.342 229.408L350.528 216.451C349.231 199.343 347.092 182.93 344.171 167.486L341.834 156.09C337.085 134.646 330.755 115.342 323.022 98.9956C377.714 122.373 417.718 173.492 425.346 234.666ZM203.161 234.666C203.418 229.127 203.773 223.675 204.217 218.322L205.371 206.395C205.588 204.437 205.817 202.495 206.057 200.568L207.632 189.206C211.614 163.168 217.689 140.527 224.737 123.088L227.814 115.938C236.681 96.6108 246.746 85.3327 256 85.3327C265.254 85.3327 275.319 96.6108 284.186 115.938L287.263 123.088C294.311 140.527 300.386 163.168 304.368 189.206L305.943 200.568C306.184 202.495 306.412 204.437 306.629 206.395L307.783 218.322C308.227 223.675 308.582 229.127 308.839 234.666H203.161ZM373.333 469.333C426.353 469.333 469.333 426.352 469.333 373.333C469.333 320.313 426.353 277.333 373.333 277.333C320.314 277.333 277.333 320.313 277.333 373.333C277.333 426.352 320.314 469.333 373.333 469.333ZM389.333 298.666V357.333H426.667V389.333H357.333V298.666H389.333Z"/></svg>