<svg width="512" height="512" viewBox="0 0 512 512" fill="none" xmlns="http://www.w3.org/2000/svg"><path fill-rule="evenodd" clip-rule="evenodd" d="M329.132 276.555C329.098 276.757 329.05 277.182 328.99 277.997C311.473 279.466 293.326 290.067 278.488 300.035C279.787 299.083 281.017 298.013 282.163 296.832C287.51 291.322 290.615 283.819 290.814 275.92C290.798 272.173 290.085 268.465 288.714 265.008C286.815 259.146 283.241 254.052 278.488 250.431C273.735 246.812 268.038 244.844 262.181 244.801C259.307 244.926 256.472 245.541 253.783 246.62C249.261 248.034 245.145 250.625 241.81 254.155C238.478 257.683 236.031 262.042 234.694 266.827C233.927 269.514 233.541 272.307 233.549 275.112C233.532 281.214 235.278 287.175 238.554 292.196C241.83 297.216 246.477 301.057 251.874 303.199C255.138 304.652 258.641 305.408 262.181 305.422C267.527 305.425 272.722 303.845 277.205 300.923C263.009 311.026 252.319 328.133 243.857 343.815C232.066 340.297 221.47 333.285 213.316 323.608L175.139 343.815C175.904 347.806 176.288 351.868 176.284 355.939C176.284 369.929 172.366 383.603 165.025 395.232C157.684 406.863 147.25 415.928 135.042 421.28C122.834 426.633 109.401 428.034 96.4419 425.306C83.4821 422.576 71.578 415.841 62.2347 405.949C52.8912 396.058 46.5283 383.457 43.9504 369.739C41.3726 356.018 42.6957 341.798 47.7522 328.876C52.8089 315.952 61.3719 304.907 72.3587 297.135C83.3453 289.363 96.2621 285.215 109.476 285.215C118.636 285.096 127.719 287.011 136.137 290.841C144.554 294.67 152.119 300.326 158.341 307.443L196.518 287.236C195.752 283.247 195.369 279.185 195.373 275.112C195.22 265.707 196.842 256.362 200.143 247.628C203.445 238.893 208.358 230.943 214.598 224.245C220.836 217.546 228.277 212.232 236.479 208.615C244.683 204.995 253.485 203.148 262.372 203.176C266.219 203.172 270.055 203.578 273.825 204.387L292.913 163.974C286.297 157.543 281.002 149.739 277.357 141.048C273.711 132.357 271.794 122.966 271.725 113.457C271.951 99.5146 276.066 85.9539 283.551 74.4798C291.037 63.0055 301.558 54.1298 313.796 48.9686C326.033 43.8071 339.437 42.5902 352.326 45.4709C365.214 48.3516 377.01 55.2014 386.232 65.159C395.453 75.1165 401.688 87.7378 404.154 101.436C406.618 115.134 405.202 129.298 400.084 142.147C394.967 154.996 386.375 165.957 375.39 173.651C364.405 181.346 351.516 185.432 338.343 185.394C334.497 185.398 330.66 184.992 326.89 184.181L307.802 224.594C314.418 231.026 319.713 238.83 323.359 247.521C327.005 256.212 328.921 265.604 328.99 275.112C329.05 275.927 329.098 276.353 329.132 276.555ZM329.202 276.554C329.202 276.691 329.179 276.828 329.132 276.555C329.179 276.283 329.202 276.418 329.202 276.554ZM277.205 300.923C277.629 300.62 278.057 300.324 278.488 300.035C278.068 300.343 277.639 300.639 277.205 300.923ZM358.781 92.0243C353.412 86.3399 346.128 83.1466 338.534 83.1466C330.941 83.1466 323.657 86.3399 318.287 92.0243C312.918 97.7085 309.902 105.418 309.902 113.457C310.001 121.463 313.05 129.112 318.398 134.774C323.747 140.436 330.972 143.663 338.534 143.767C341.123 143.774 343.698 143.366 346.17 142.555C352.221 140.853 357.565 137.072 361.366 131.805C365.166 126.539 367.207 120.084 367.167 113.457C367.167 105.418 364.151 97.7085 358.781 92.0243ZM126.808 380.111C131.783 376.088 135.355 370.428 136.963 364.022C137.729 361.405 138.115 358.679 138.108 355.939C138.009 347.933 134.961 340.285 129.612 334.623C124.264 328.961 117.039 325.734 109.476 325.629C101.882 325.629 94.5991 328.824 89.2294 334.508C83.8599 340.192 80.8432 347.901 80.8432 355.939C80.8432 363.98 83.8599 371.689 89.2294 377.373C94.5991 383.057 101.882 386.25 109.476 386.25C115.736 386.294 121.833 384.134 126.808 380.111ZM330.664 383.997C330.664 366.324 344.991 351.997 362.664 351.997C380.337 351.997 394.664 366.324 394.664 383.997C394.664 401.67 380.337 415.997 362.664 415.997C344.991 415.997 330.664 401.67 330.664 383.997ZM362.664 293.065C442.229 293.065 476.328 383.996 476.328 383.996C476.328 383.996 442.229 474.928 362.664 474.928C283.099 474.928 249 383.996 249 383.996C249 383.996 283.099 293.065 362.664 293.065ZM299.837 357.903C292.24 367.253 286.57 376.775 282.808 383.996C286.57 391.218 292.24 400.74 299.837 410.09C315.313 429.137 335.85 444.208 362.664 444.208C389.478 444.208 410.015 429.137 425.491 410.09C433.088 400.74 438.75 391.235 442.511 384.014V383.979C438.75 376.757 433.088 367.253 425.491 357.903C410.015 338.856 389.478 323.785 362.664 323.785C335.85 323.785 315.313 338.856 299.837 357.903Z"/></svg>