<svg width="512" height="512" viewBox="0 0 512 512" fill="none" xmlns="http://www.w3.org/2000/svg"><path fill-rule="evenodd" clip-rule="evenodd" d="M213.333 85.3307C189.769 85.3307 170.667 104.433 170.667 127.997V265.372V298.664C170.667 310.447 180.218 319.997 192 319.997H320C331.783 319.997 341.333 310.447 341.333 298.664V265.372V127.997C341.333 104.433 322.23 85.3307 298.667 85.3307L277.333 85.3307C277.333 97.1127 267.782 106.664 256 106.664C244.218 106.664 234.667 97.1127 234.667 85.3307L213.333 85.3307ZM341.333 265.372C341.333 253.59 331.782 244.039 320 244.039C308.218 244.039 298.667 253.59 298.667 265.372C298.667 277.153 308.218 286.706 320 286.706C331.782 286.706 341.333 277.153 341.333 265.372ZM170.667 265.372C170.667 277.153 180.218 286.706 192 286.706C203.782 286.706 213.333 277.153 213.333 265.372C213.333 253.59 203.782 244.039 192 244.039C180.218 244.039 170.667 253.59 170.667 265.372ZM128 127.997C128 80.8691 166.205 42.6641 213.333 42.6641H298.667C345.794 42.6641 384 80.8691 384 127.997V298.664C384 334.011 355.347 362.664 320 362.664H192C156.654 362.664 128 334.011 128 298.664V127.997ZM320 426.664V405.331H192V426.664H320ZM149.333 469.331V447.997H362.667V469.331H149.333ZM315.557 193.513C314.802 200.8 310.091 206.833 303.526 208.242C293.057 210.486 275.865 213.331 256 213.331C236.136 213.331 218.943 210.486 208.474 208.242C201.91 206.833 197.198 200.8 196.445 193.513L192.106 151.53C191.143 142.221 196.856 133.701 205.313 132.365C217.937 130.372 236.969 127.997 256 127.997C275.032 127.997 294.064 130.372 306.688 132.365C315.143 133.701 320.857 142.221 319.894 151.53L315.557 193.513Z"/></svg>