<svg width="512" height="512" viewBox="0 0 512 512" fill="none" xmlns="http://www.w3.org/2000/svg"><path fill-rule="evenodd" clip-rule="evenodd" d="M85.4634 255.869C85.4634 350.126 161.873 426.535 256.13 426.535C350.387 426.535 426.797 350.126 426.797 255.869C426.797 165.194 356.085 91.0356 266.797 85.5297L266.797 42.7971C379.662 48.3547 469.463 141.624 469.463 255.869C469.463 373.688 373.951 469.202 256.13 469.202C138.31 469.202 42.7967 373.688 42.7967 255.869C42.7967 204.606 60.8767 157.566 91.0101 120.779C96.5887 113.967 102.583 107.506 108.951 101.435C112.868 97.7014 116.926 94.1155 121.118 90.686L320.13 289.699L320.13 191.869L362.797 191.869L362.797 341.202L362.797 362.535L341.463 362.535L192.13 362.535L192.13 319.869L289.96 319.869L121.306 151.215C98.8415 180.115 85.4634 216.43 85.4634 255.869Z"/></svg>