<svg xmlns="http://www.w3.org/2000/svg" width="512" height="512" viewBox="0 0 512 512"><path fill-rule="evenodd" d="M96,192 C113.673112,192 128,206.326888 128,224 C128,241.673112 113.673112,256 96,256 C78.326888,256 64,241.673112 64,224 C64,206.326888 78.326888,192 96,192 Z M352,192 C369.673112,192 384,206.326888 384,224 C384,241.673112 369.673112,256 352,256 C334.326888,256 320,241.673112 320,224 C320,206.326888 334.326888,192 352,192 Z M256,-5.68434189e-14 L256,149.333 L277.333333,149.333333 L277.333333,21.3333333 L384,21.3333333 L426.666667,106.666667 L426.666667,213.333333 L404.26641,213.33302 C399.324739,188.989279 377.802107,170.666667 352,170.666667 C326.197893,170.666667 304.675261,188.989279 299.73359,213.33302 L148.26641,213.33302 C143.324739,188.989279 121.802107,170.666667 96,170.666667 C70.197893,170.666667 48.6752614,188.989279 43.7335902,213.33302 L-2.13162821e-14,213.333333 L-2.13162821e-14,-5.68434189e-14 L256,-5.68434189e-14 Z M362.666667,64 L320,64 L320,106.666667 L384,106.666667 L362.666667,64 Z" transform="translate(42.667 149.333)"/></svg>