<svg width="512" height="512" viewBox="0 0 512 512" fill="none" xmlns="http://www.w3.org/2000/svg"><path fill-rule="evenodd" clip-rule="evenodd" d="M149.333 234.667V64H64V426.667H213.333V383.999H149.333H106.667V301.516L150.071 278.008L234.667 232.191V301.836L362.667 231.701V348.891C367.057 343.916 372.019 339.456 377.45 335.617C385.769 329.736 395.186 325.303 405.333 322.69V164.548L277.333 234.667V165.333L149.333 234.667ZM490.667 405.333C490.667 369.987 462.013 341.333 426.667 341.333C398.801 341.333 375.094 359.143 366.308 384H234.667V426.667H256V469.333H320V426.667H366.308C375.094 451.524 398.801 469.333 426.667 469.333C462.013 469.333 490.667 440.68 490.667 405.333ZM394.667 405.333C394.667 387.66 408.994 373.333 426.667 373.333C444.34 373.333 458.667 387.66 458.667 405.333C458.667 423.006 444.34 437.333 426.667 437.333C408.994 437.333 394.667 423.006 394.667 405.333Z"/></svg>