<svg width="512" height="512" viewBox="0 0 512 512" fill="none" xmlns="http://www.w3.org/2000/svg"><path d="M394.667 298.667C447.686 298.667 490.667 341.647 490.667 394.667C490.667 447.686 447.686 490.667 394.667 490.667C341.647 490.666 298.667 447.686 298.667 394.667C298.667 341.648 341.647 298.667 394.667 298.667ZM394.667 375.811L356.095 337.24L337.24 356.095L375.811 394.668L337.24 433.24L356.095 452.095L394.667 413.524L433.24 452.095L452.095 433.24L413.524 394.668L452.095 356.095L433.24 337.24L394.667 375.811ZM256.405 383.998C256.137 387.518 256 391.076 256 394.665C256.001 405.679 257.287 416.392 259.713 426.665H85.3335V383.998H256.405ZM399.083 176.917L368.917 207.084L277.333 115.5V319.998H234.667V115.501L143.083 207.084L112.917 176.917L256 33.8336L399.083 176.917Z"/></svg>