<svg width="512" height="512" viewBox="0 0 512 512" fill="none" xmlns="http://www.w3.org/2000/svg"><path d="M394.666 298.667C447.685 298.667 490.666 341.647 490.666 394.667C490.666 447.686 447.685 490.667 394.666 490.667C341.647 490.666 298.666 447.686 298.666 394.667C298.666 341.648 341.647 298.667 394.666 298.667ZM373.334 407.811L350.762 385.24L331.906 404.095L373.334 445.524L457.429 361.429L438.573 342.573L373.334 407.811ZM256.405 383.998C256.137 387.518 256 391.076 256 394.665C256 405.679 257.287 416.392 259.713 426.665H85.3333V383.998H256.405ZM399.083 176.917L368.916 207.084L277.333 115.5V319.998H234.666V115.501L143.083 207.084L112.916 176.917L256 33.8336L399.083 176.917Z"/></svg>