<svg width="512" height="512" viewBox="0 0 512 512" fill="none" xmlns="http://www.w3.org/2000/svg"><path fill-rule="evenodd" clip-rule="evenodd" d="M250.667 234.664C310.976 234.664 360.152 283.694 362.573 345.116L362.648 348.908C358.914 353.141 355.594 357.748 352.749 362.664H320V349.864C320 310.931 290.808 279.562 254.575 277.445L250.667 277.331H176C139.292 277.331 108.834 307.357 106.777 345.723L106.667 349.864V383.997H213.333V426.664H64V349.864C64 287.831 111.668 237.25 171.383 234.76L176 234.664H250.667ZM213.333 42.6641C254.571 42.6641 288 76.0935 288 117.331C288 157.193 256.762 189.76 217.43 191.887L213.333 191.997C172.096 191.997 138.667 158.568 138.667 117.331C138.667 77.468 169.905 44.9014 209.237 42.7745L213.333 42.6641ZM213.333 85.3307C195.66 85.3307 181.333 99.6576 181.333 117.331C181.333 135.004 195.66 149.331 213.333 149.331C231.006 149.331 245.333 135.004 245.333 117.331C245.333 99.6576 231.006 85.3307 213.333 85.3307ZM490.667 405.331C490.667 369.984 462.013 341.331 426.667 341.331C398.801 341.331 375.094 359.14 366.308 383.997H234.667V426.664H256V469.331H320V426.664H366.308C375.094 451.522 398.801 469.331 426.667 469.331C462.013 469.331 490.667 440.677 490.667 405.331ZM394.667 405.331C394.667 387.658 408.994 373.331 426.667 373.331C444.34 373.331 458.667 387.658 458.667 405.331C458.667 423.004 444.34 437.331 426.667 437.331C408.994 437.331 394.667 423.004 394.667 405.331Z"/></svg>