<svg width="512" height="512" viewBox="0 0 512 512" fill="none" xmlns="http://www.w3.org/2000/svg"><path fill-rule="evenodd" clip-rule="evenodd" d="M160 95.9974C160 101.888 155.224 106.664 149.333 106.664C143.442 106.664 138.667 101.888 138.667 95.9974C138.667 90.1064 143.442 85.3307 149.333 85.3307C155.224 85.3307 160 90.1064 160 95.9974ZM202.667 95.9974C202.667 125.453 178.789 149.331 149.333 149.331C119.878 149.331 96 125.453 96 95.9974C96 66.5422 119.878 42.6641 149.333 42.6641C178.789 42.6641 202.667 66.5422 202.667 95.9974ZM85.3333 255.997C85.3333 232.433 104.436 213.331 128 213.331H170.667C176.477 213.331 182.015 214.492 187.063 216.595C192.812 202.819 202.571 191.134 214.88 182.997C201.986 175.17 186.852 170.664 170.667 170.664H128C80.8717 170.664 42.6667 208.869 42.6667 255.997V319.997H170.656C181.529 311.829 194.013 305.69 207.546 302.142C199.581 295.342 193.063 286.896 188.519 277.331H85.3333V255.997ZM329.661 257.614C333.371 256.561 337.286 255.997 341.333 255.997H384C407.564 255.997 426.667 275.1 426.667 298.664V319.997H341.344C355.985 330.997 367.703 345.677 375.124 362.664H469.333V298.664C469.333 251.536 431.128 213.331 384 213.331H341.333C335.488 213.331 329.781 213.918 324.266 215.038C328.38 224.296 330.667 234.546 330.667 245.331C330.667 249.514 330.323 253.618 329.661 257.614ZM277.333 362.664H234.667C211.103 362.664 192 381.767 192 405.331V426.664H320V405.331C320 381.767 300.897 362.664 277.333 362.664ZM234.667 319.997C187.538 319.997 149.333 358.202 149.333 405.331V469.331H362.667V405.331C362.667 358.202 324.462 319.997 277.333 319.997H234.667ZM256 255.997C261.891 255.997 266.667 251.222 266.667 245.331C266.667 239.44 261.891 234.664 256 234.664C250.109 234.664 245.333 239.44 245.333 245.331C245.333 251.222 250.109 255.997 256 255.997ZM256 298.664C285.455 298.664 309.333 274.786 309.333 245.331C309.333 215.876 285.455 191.997 256 191.997C226.545 191.997 202.667 215.876 202.667 245.331C202.667 274.786 226.545 298.664 256 298.664ZM373.333 138.664C373.333 144.555 368.558 149.331 362.667 149.331C356.776 149.331 352 144.555 352 138.664C352 132.773 356.776 127.997 362.667 127.997C368.558 127.997 373.333 132.773 373.333 138.664ZM416 138.664C416 168.119 392.122 191.997 362.667 191.997C333.212 191.997 309.333 168.119 309.333 138.664C309.333 109.209 333.212 85.3307 362.667 85.3307C392.122 85.3307 416 109.209 416 138.664Z"/></svg>