<svg width="512" height="512" viewBox="0 0 512 512" fill="none" xmlns="http://www.w3.org/2000/svg"><path fill-rule="evenodd" clip-rule="evenodd" d="M331.52 117.547C331.52 158.933 297.813 192.427 256.64 192.427C215.253 192.427 181.76 158.933 181.76 117.547C181.76 76.16 215.253 42.6666 256.64 42.6666C298.027 42.6666 331.52 76.16 331.52 117.547ZM288.853 117.547C288.853 99.84 274.347 85.3333 256.64 85.3333C238.933 85.3333 224.427 99.84 224.427 117.547C224.427 135.253 238.933 149.76 256.64 149.76C274.347 149.76 288.853 135.253 288.853 117.547Z"/><path d="M209.92 330.24H210.987V331.307H209.92V330.24Z"/><path d="M303.147 330.24H302.08V331.307H303.147V330.24Z"/><path d="M315.947 330.453H314.88V331.52H315.947V330.453Z"/><path fill-rule="evenodd" clip-rule="evenodd" d="M256.64 232.96L64 136.533V372.907L256.64 469.333L449.28 372.907V136.533L256.64 232.96ZM106.667 205.44L235.307 269.867V410.88L106.667 346.453V205.44ZM406.613 346.453L277.973 410.88V269.867L406.613 205.44V346.453Z"/></svg>