<svg width="512" height="512" viewBox="0 0 512 512" fill="none" xmlns="http://www.w3.org/2000/svg"><path fill-rule="evenodd" clip-rule="evenodd" d="M213.333 42.6666C254.571 42.6666 288 76.096 288 117.333C288 157.196 256.762 189.763 217.43 191.889L213.333 192C172.096 192 138.667 158.571 138.667 117.333C138.667 77.4706 169.905 44.9039 209.237 42.7771L213.333 42.6666ZM362.168 426.667L362.667 426.168V426.667H362.168ZM64 426.667H234.667V384.495L235.161 384H106.667V349.867L106.777 345.725C108.834 307.36 139.292 277.333 176 277.333H250.667L254.575 277.447C277.197 278.769 297.076 291.494 308.817 310.344L339.484 279.677C319.008 252.305 286.84 234.667 250.667 234.667H176L171.383 234.763C111.668 237.253 64 287.834 64 349.867V426.667ZM256 393.331L265.331 384H265.333L317.777 331.556L317.776 331.555L350.907 298.424L350.908 298.426L359.791 289.542L414.458 344.209L310.667 448H256V393.333V393.331ZM181.333 117.333C181.333 99.6602 195.66 85.3333 213.333 85.3333C231.006 85.3333 245.333 99.6602 245.333 117.333C245.333 135.006 231.006 149.333 213.333 149.333C195.66 149.333 181.333 135.006 181.333 117.333ZM409.333 240L464 294.667L429.542 329.124L374.876 274.457L409.333 240Z"/></svg>