<svg width="512" height="512" viewBox="0 0 512 512" fill="none" xmlns="http://www.w3.org/2000/svg"><path fill-rule="evenodd" clip-rule="evenodd" d="M288 117.333C288 76.096 254.571 42.6666 213.333 42.6666L209.237 42.7771C169.905 44.9039 138.667 77.4706 138.667 117.333C138.667 158.571 172.096 192 213.333 192L217.43 191.889C256.762 189.763 288 157.196 288 117.333ZM362.573 345.118C360.152 283.697 310.976 234.667 250.667 234.667H176L171.383 234.763C111.668 237.253 64 287.834 64 349.867V426.667H262.826L222.516 391.395L278.71 327.173L345.877 385.941L362.667 364.123V349.867L362.573 345.118ZM475.576 322.34L441.757 296.326L348.928 416.981L280.715 357.278L252.619 389.388L355.054 479.019L475.576 322.34Z"/></svg>