<svg width="512" height="512" viewBox="0 0 512 512" fill="none" xmlns="http://www.w3.org/2000/svg"><path fill-rule="evenodd" clip-rule="evenodd" d="M298.669 117.332C298.669 135.005 284.342 149.332 266.669 149.332C248.996 149.332 234.669 135.005 234.669 117.332C234.669 99.6586 248.996 85.3317 266.669 85.3317C284.342 85.3317 298.669 99.6586 298.669 117.332ZM341.336 117.332C341.336 158.569 307.907 191.998 266.669 191.998C225.432 191.998 192.003 158.569 192.003 117.332C192.003 76.0944 225.432 42.665 266.669 42.665C307.907 42.665 341.336 76.0944 341.336 117.332ZM117.337 192.001C123.228 192.001 128.003 187.225 128.003 181.334C128.003 175.443 123.228 170.667 117.337 170.667C111.446 170.667 106.67 175.443 106.67 181.334C106.67 187.225 111.446 192.001 117.337 192.001ZM117.337 234.667C146.792 234.667 170.67 210.789 170.67 181.334C170.67 151.879 146.792 128.001 117.337 128.001C87.8814 128.001 64.0032 151.879 64.0032 181.334C64.0032 210.789 87.8814 234.667 117.337 234.667ZM291.891 255.997H234.667C211.103 255.997 192 275.1 192 298.664V319.457C192.001 319.571 192.002 319.685 192.002 319.799C192.003 319.866 192.003 319.933 192.003 320.001V362.664H234.669V362.665C234.669 377.625 237.235 391.986 241.952 405.331H192.003V405.334H42.6693V320.001C42.6693 284.654 71.3231 256.001 106.669 256.001H128.003C138.49 256.001 148.388 258.523 157.124 262.994C170.631 233.679 200.273 213.331 234.667 213.331H298.667C320.421 213.331 340.274 221.471 355.345 234.871C331.964 236.19 310.26 243.785 291.891 255.997ZM149.334 319.686C149.165 308.049 139.68 298.667 128.003 298.667H106.669C94.8872 298.667 85.336 308.218 85.336 320.001V362.667H149.334V319.686ZM392.177 256.001H332.918V278.831C322.512 282.508 312.995 288.067 304.776 295.1L284.987 283.674L255.357 334.994L275.131 346.411C274.158 351.681 273.649 357.114 273.649 362.666C273.649 368.218 274.158 373.651 275.132 378.921L255.356 390.338L284.986 441.658L304.777 430.232C312.995 437.264 322.512 442.824 332.918 446.5V469.334H392.177V446.493C402.578 442.815 412.09 437.257 420.304 430.227L440.109 441.661L469.739 390.341L449.945 378.913C450.918 373.645 451.426 368.215 451.426 362.666C451.426 357.117 450.918 351.686 449.945 346.419L469.738 334.992L440.108 283.671L420.305 295.105C412.09 288.074 402.578 282.516 392.177 278.838V256.001ZM362.538 398.224C382.174 398.224 398.093 382.305 398.093 362.668C398.093 343.031 382.174 327.112 362.538 327.112C342.901 327.112 326.982 343.031 326.982 362.668C326.982 382.305 342.901 398.224 362.538 398.224Z"/></svg>