<svg width="512" height="512" viewBox="0 0 512 512" fill="none" xmlns="http://www.w3.org/2000/svg"><path fill-rule="evenodd" clip-rule="evenodd" d="M252.716 47.4143C258.356 50.6025 263.031 55.2264 266.255 60.8057L268.494 64.6814C251.794 67.257 236.362 77.0572 227.267 92.8003L71.6552 362.151C68.25 368.045 65.9375 374.476 64.8053 381.137C51.7908 375.654 42.6667 362.887 42.6667 348.012C42.6667 341.749 44.3192 335.594 47.4607 330.157L203.073 60.8057C213.042 43.5487 235.268 37.5532 252.716 47.4143ZM308.921 103.472C305.698 97.8931 301.023 93.2692 295.382 90.081C277.935 80.2199 255.709 86.2154 245.739 103.472L90.1274 372.823C86.9859 378.261 85.3334 384.415 85.3334 390.678C85.3334 410.554 101.624 426.666 121.718 426.666H432.942C439.274 426.666 445.497 425.032 450.994 421.925C468.441 412.064 474.503 390.08 464.533 372.823L308.921 103.472ZM256.294 287.36H298.667V192H256.294V287.36ZM300.074 331.79C300.074 318.834 290.328 309.333 277.333 309.333C264.339 309.333 254.593 318.834 254.593 331.502C254.593 344.746 264.043 354.246 277.333 354.246C290.328 354.246 300.074 344.746 300.074 331.79Z"/></svg>