<svg width="512" height="512" viewBox="0 0 512 512" fill="none" xmlns="http://www.w3.org/2000/svg"><path fill-rule="evenodd" clip-rule="evenodd" d="M75.1957 232.083C63.6056 243.674 57.3901 258.603 56.5492 273.775L47.614 264.84C30.9516 248.177 30.9516 221.162 47.614 204.5L204.497 47.6164C221.16 30.954 248.175 30.954 264.837 47.6164L273.774 56.5534C258.601 57.3935 243.67 63.609 232.079 75.2001L75.1957 232.083ZM434.217 277.334L277.333 434.217L120.45 277.334L277.333 120.451L434.217 277.334ZM307.503 464.387C290.841 481.05 263.826 481.05 247.163 464.387L90.28 307.504C73.6177 290.841 73.6177 263.826 90.28 247.164L247.163 90.2806C263.826 73.6182 290.841 73.6183 307.503 90.2806L464.387 247.164C481.049 263.826 481.049 290.841 464.387 307.504L307.503 464.387ZM298.668 287.338H256.295V192H298.668V287.338ZM277.334 309.333C290.329 309.333 300.075 318.834 300.075 331.79C300.075 344.745 290.329 354.246 277.334 354.246C264.044 354.246 254.594 344.745 254.594 331.502C254.594 318.834 264.34 309.333 277.334 309.333Z"/></svg>