<svg xmlns="http://www.w3.org/2000/svg" width="512" height="512" viewBox="0 0 512 512"><path fill-rule="evenodd" d="M85.3333333,1.42108547e-14 L85.3333333,170.666667 L234.666667,101.333333 L234.666667,170.666667 L384,100.548267 L384,384 L1.42108547e-14,384 L1.42108547e-14,1.42108547e-14 L85.3333333,1.42108547e-14 Z M320,256 L320,298.666667 C311.665185,298.666667 308.650256,299.872638 299.833604,305.750406 C284.650256,315.872638 274.331852,320 256,320 C237.668148,320 227.349744,315.872638 212.166396,305.750406 C203.349744,299.872638 200.334815,298.666667 192,298.666667 C183.665185,298.666667 180.650256,299.872638 171.833604,305.750406 C156.650256,315.872638 146.331852,320 128,320 C109.668148,320 99.3497436,315.872638 84.1663958,305.750406 C75.3497436,299.872638 72.3348149,298.666667 64,298.666667 L64,256 C82.3318517,256 92.6502564,260.127362 107.833604,270.249594 C116.650256,276.127362 119.665185,277.333333 128,277.333333 C136.334815,277.333333 139.349744,276.127362 148.166396,270.249594 C163.349744,260.127362 173.668148,256 192,256 C210.331852,256 220.650256,260.127362 235.833604,270.249594 C244.650256,276.127362 247.665185,277.333333 256,277.333333 C264.334815,277.333333 267.349744,276.127362 276.166396,270.249594 C291.349744,260.127362 301.668148,256 320,256 Z M42.6666667,237.517254 L42.6666667,341.333333 L341.333333,341.333333 L341.333333,167.701333 L192,237.836455 L192,168.192 L42.6666667,237.517254 Z" transform="translate(64 64)"/></svg>