<svg xmlns="http://www.w3.org/2000/svg" width="512" height="512" viewBox="0 0 512 512"><path fill-rule="evenodd" d="M30.169894,0 L392.836561,362.666662 L362.666662,392.836561 C350.722247,379.517399 338.934618,366.515432 327.303775,353.830657 L85.3333333,353.830101 L85.3333333,311.163435 L287.644597,311.162425 C280.831392,303.935954 274.075501,296.825433 267.376923,289.830863 L128,289.830101 C57.307552,289.830101 3.55271368e-14,232.522549 3.55271368e-14,161.830101 C3.55271368e-14,124.964627 15.5849519,91.7392133 40.5257026,68.3830133 C27.5576017,56.1264751 14.0481724,43.3883403 3.55271368e-14,30.169894 L30.169894,0 Z M298.666667,33.8301013 C369.359115,33.8301013 426.666667,91.1376534 426.666667,161.830101 C426.666667,209.065019 401.08127,250.324148 363.013124,272.50484 L331.235486,240.727931 C362.206695,227.929021 384,197.424611 384,161.830101 C384,116.129933 348.075339,78.8204186 302.925661,76.6012012 L298.666667,76.496768 L167.004,76.496 L124.390823,33.8800044 C125.589834,33.8468086 126.792966,33.8301013 128,33.8301013 L298.666667,33.8301013 Z M71.5933699,97.8011564 L71.4776063,97.8991536 C53.8072548,113.533563 42.6666667,136.38082 42.6666667,161.830101 C42.6666667,207.53027 78.5913274,244.839784 123.741006,247.059001 L128,247.163435 L225.798895,247.162813 C223.106502,244.450031 220.424075,241.757408 217.751611,239.084945 C213.322804,234.656137 208.635853,229.997184 203.690758,225.108085 C176.594604,221.013095 155.071234,199.931397 150.315235,173.059562 C127.275986,150.826989 101.034758,125.74061 71.5933699,97.8011564 Z M213.333333,97.8301013 C248.679557,97.8301013 277.333333,126.483877 277.333333,161.830101 C277.333333,169.315338 276.048322,176.500445 273.686867,183.176853 L191.985579,101.476922 C198.662271,99.1152411 205.847722,97.8301013 213.333333,97.8301013 Z" transform="translate(42.667 72.837)"/></svg>