<svg xmlns="http://www.w3.org/2000/svg" width="512" height="512" viewBox="0 0 512 512"><path fill-rule="evenodd" d="M30.169894,0 L392.836561,362.666662 L362.666662,392.836561 C350.722247,379.517399 338.934618,366.515432 327.303775,353.830657 L85.3333333,353.830101 L85.3333333,311.163435 L287.644597,311.162425 C280.831392,303.935954 274.075501,296.825433 267.376923,289.830863 L128,289.830101 C57.307552,289.830101 3.55271368e-14,232.522549 3.55271368e-14,161.830101 C3.55271368e-14,124.964627 15.5849519,91.7392133 40.5257026,68.3830133 C27.5576017,56.1264751 14.0481724,43.3883403 3.55271368e-14,30.169894 L30.169894,0 Z M298.666667,33.8301013 C369.359115,33.8301013 426.666667,91.1376534 426.666667,161.830101 C426.666667,209.065019 401.08127,250.324148 363.013124,272.50484 L273.686867,183.176853 C276.048322,176.500445 277.333333,169.315338 277.333333,161.830101 C277.333333,126.483877 248.679557,97.8301013 213.333333,97.8301013 C205.847722,97.8301013 198.662271,99.1152411 191.985579,101.476922 L124.390823,33.8800044 C125.589834,33.8468086 126.792966,33.8301013 128,33.8301013 L298.666667,33.8301013 Z M150.317052,173.060293 L150.344235,173.222189 C155.158133,200.016421 176.649286,221.02136 203.688886,225.108197 C188.375561,209.966311 170.584326,192.617046 150.317052,173.060293 Z" transform="translate(42.667 72.837)"/></svg>