<svg width="512" height="512" viewBox="0 0 512 512" fill="none" xmlns="http://www.w3.org/2000/svg"><path d="M226.272 432C215.299 432.271 204.321 431.772 193.419 430.507C168.1 428.14 143.286 421.955 119.819 412.16C104.405 405.609 90.0307 396.84 77.1519 386.133C66.0332 376.857 56.954 365.381 50.4853 352.427C44.6517 340.277 42.0086 326.841 42.8053 313.387C43.9192 298.615 47.6766 284.163 53.8986 270.72C61.7159 254.041 71.6074 238.415 83.3386 224.213C101.065 202.286 121.658 182.841 144.565 166.4C157.764 156.788 172.093 148.835 187.232 142.72C194.707 139.641 202.509 137.423 210.485 136.107C217.519 134.628 224.784 134.628 231.819 136.107C237.364 137.409 242.379 140.375 246.192 144.607C250.005 148.839 252.433 154.136 253.152 159.787C254.646 167.25 254.646 174.936 253.152 182.4C253.152 186.24 251.445 189.867 250.379 193.493C250.175 194.622 250.175 195.778 250.379 196.907C250.363 197.599 250.588 198.276 251.016 198.821C251.444 199.366 252.048 199.745 252.725 199.893C254.202 200.21 255.729 200.21 257.205 199.893C259.19 199.371 261.119 198.657 262.965 197.76C273.696 193.413 284.752 189.918 296.032 187.307C304.523 185.53 313.17 184.601 321.845 184.533C329.128 184.534 336.352 185.835 343.179 188.373C347.355 189.903 351.124 192.372 354.195 195.59C357.265 198.808 359.554 202.689 360.885 206.933C362.481 212.108 362.918 217.571 362.165 222.933C361.256 229.059 359.682 235.068 357.472 240.853C356.754 242.189 356.25 243.628 355.979 245.12C355.787 246.245 355.977 247.402 356.518 248.407C357.059 249.412 357.92 250.207 358.965 250.667L362.592 252.16C371.791 254.787 380.558 258.74 388.619 263.893C395.368 269.035 401.086 275.404 405.472 282.667C412.354 292.562 415.457 304.597 414.219 316.587C413.016 329.085 408.768 341.098 401.845 351.573C393.879 364.115 383.854 375.222 372.192 384.427C356.395 396.819 338.855 406.812 320.139 414.08C304.811 420.044 288.954 424.544 272.779 427.52C257.434 430.344 241.874 431.843 226.272 432V432ZM203.659 405.333C212.865 405.309 222.058 404.667 231.179 403.413C245.351 401.3 259.236 397.578 272.565 392.32C287.452 386.63 301.238 378.402 313.312 368C322.275 360.425 329.544 351.049 334.645 340.48C340.084 328.815 341.364 315.64 338.272 303.147C335.033 291.982 328.755 281.937 320.139 274.133C310.845 265.051 299.915 257.812 287.925 252.8C269.776 244.948 250.304 240.605 230.539 240C217.673 239.779 204.815 240.779 192.139 242.987C177.443 245.583 163.116 249.953 149.472 256C136.111 261.934 123.849 270.085 113.205 280.107C105.402 287.343 99.0964 296.041 94.6453 305.707C91.4862 312.789 89.8536 320.458 89.8536 328.213C89.8536 335.969 91.4862 343.637 94.6453 350.72C99.3516 361.35 106.695 370.603 115.979 377.6C125.811 385.363 136.833 391.487 148.619 395.733C166.279 402.065 184.897 405.312 203.659 405.333V405.333ZM210.272 273.067C223.925 272.833 237.324 276.779 248.672 284.373C259.39 291.376 267.023 302.215 270.005 314.667C272.597 325.369 271.546 336.629 267.019 346.667C261.176 360.332 250.873 371.612 237.792 378.667C224.93 386.326 210.072 389.966 195.125 389.12C181.619 388.831 168.551 384.276 157.792 376.107C148.209 368.86 141.546 358.412 139.019 346.667C136.939 335.589 138.511 324.135 143.499 314.027C148.361 303.963 155.702 295.3 164.832 288.853C177.947 278.953 193.844 273.43 210.272 273.067V273.067ZM160.139 346.667C160.034 350.248 161.046 353.773 163.033 356.754C165.021 359.736 167.886 362.025 171.232 363.307C173.894 364.451 176.761 365.041 179.659 365.041C182.556 365.041 185.423 364.451 188.085 363.307C192.201 362.253 195.983 360.174 199.079 357.264C202.175 354.355 204.485 350.709 205.792 346.667C206.706 344.178 207.069 341.522 206.858 338.88C206.646 336.238 205.865 333.673 204.568 331.361C203.27 329.05 201.487 327.048 199.341 325.491C197.196 323.935 194.739 322.862 192.139 322.347C185.81 320.868 179.161 321.714 173.405 324.73C167.648 327.745 163.167 332.729 160.779 338.773C160 341.328 159.782 344.02 160.139 346.667V346.667ZM227.125 319.787C227.155 318.382 226.737 317.005 225.931 315.854C225.126 314.704 223.975 313.839 222.645 313.387C221.318 312.897 219.9 312.7 218.489 312.81C217.078 312.919 215.707 313.333 214.471 314.022C213.235 314.711 212.163 315.659 211.327 316.801C210.492 317.944 209.914 319.253 209.632 320.64C209.328 322.273 209.61 323.96 210.43 325.405C211.25 326.849 212.554 327.957 214.112 328.533C216.052 329.168 218.145 329.168 220.085 328.533C222.205 327.951 224.06 326.658 225.342 324.872C226.623 323.086 227.253 320.914 227.125 318.72V319.787ZM408.032 218.24C409.921 212.677 410.859 206.835 410.805 200.96C410.918 193.52 409.551 186.133 406.782 179.227C404.013 172.321 399.898 166.034 394.677 160.734C389.456 155.433 383.232 151.224 376.369 148.351C369.505 145.478 362.139 143.999 354.699 144C351.435 143.683 348.149 143.683 344.885 144C341.406 144.622 338.316 146.601 336.295 149.502C334.275 152.403 333.49 155.987 334.112 159.467C334.734 162.946 336.714 166.036 339.614 168.057C342.515 170.077 346.099 170.862 349.579 170.24C353.852 169.596 358.213 169.881 362.366 171.074C366.519 172.268 370.367 174.342 373.646 177.156C376.926 179.97 379.56 183.457 381.371 187.381C383.182 191.304 384.126 195.572 384.139 199.893C384.182 203.015 383.676 206.12 382.645 209.067C382.118 210.733 381.926 212.488 382.081 214.229C382.236 215.97 382.735 217.664 383.548 219.211C384.361 220.758 385.473 222.129 386.82 223.244C388.166 224.359 389.72 225.196 391.392 225.707C392.724 226.024 394.113 226.024 395.445 225.707C398.166 225.752 400.835 224.957 403.088 223.43C405.34 221.902 407.067 219.718 408.032 217.173V218.24ZM464.565 234.667C467.908 223.381 469.561 211.663 469.472 199.893C469.415 169.49 457.298 140.352 435.78 118.874C414.262 97.3961 385.101 85.3332 354.699 85.3333C347.031 85.3636 339.385 86.1497 331.872 87.6799C329.801 88.0618 327.827 88.8543 326.066 90.0108C324.306 91.1672 322.795 92.6643 321.622 94.4137C320.449 96.1632 319.638 98.1296 319.237 100.197C318.835 102.265 318.852 104.392 319.285 106.453C320.159 110.626 322.642 114.287 326.196 116.643C329.749 118.999 334.088 119.86 338.272 119.04C343.678 117.933 349.18 117.362 354.699 117.333C376.615 117.333 397.636 126.025 413.153 141.502C428.67 156.978 437.415 177.977 437.472 199.893C437.465 208.134 436.243 216.329 433.845 224.213C433.221 226.23 433.001 228.351 433.2 230.453C433.399 232.555 434.011 234.597 435.003 236.461C435.995 238.325 437.345 239.975 438.977 241.314C440.609 242.654 442.49 243.657 444.512 244.267C446.069 244.475 447.648 244.475 449.205 244.267C452.554 244.292 455.828 243.281 458.578 241.371C461.328 239.461 463.42 236.746 464.565 233.6V234.667Z"/></svg>