<svg width="512" height="512" viewBox="0 0 512 512" fill="none" xmlns="http://www.w3.org/2000/svg"><path fill-rule="evenodd" clip-rule="evenodd" d="M277.333 397.184V349.487C271.671 344.418 264.193 341.336 256 341.336C238.336 341.336 224 355.663 224 373.336C224 391.008 238.336 405.336 256 405.336C264.193 405.336 271.671 402.253 277.333 397.184ZM399.232 230.095L394.072 235.257C390.769 234.869 387.408 234.669 384 234.669C371.177 234.669 359.014 237.498 348.102 242.565C322.043 224.159 290.263 213.336 256 213.336C211.883 213.336 171.883 231.279 142.912 260.25L112.768 230.095C149.462 193.398 200.128 170.669 256 170.669C311.872 170.669 362.539 193.398 399.232 230.095ZM372.26 257.077C370.504 257.403 368.772 257.8 367.069 258.266C352.415 262.276 339.859 271.363 331.41 283.519C326.343 290.809 322.753 299.203 321.074 308.267C320.369 312.071 320 315.994 320 320.003V362.669H298.667V469.336H469.333V362.669H448V320.003C448 284.656 419.346 256.003 384 256.003C379.99 256.003 376.066 256.371 372.26 257.077ZM299.007 312.329C300.358 297.171 305.673 283.152 313.908 271.318C296.811 261.574 277.042 256.003 256 256.003C223.659 256.003 194.326 269.163 173.077 290.409L203.221 320.566C216.747 307.045 235.414 298.669 256 298.669C271.999 298.669 286.839 303.728 299.007 312.329ZM256 85.3359C176.598 85.3359 104.598 117.633 52.4375 169.784L82.6028 199.941C127.019 155.518 188.352 128.003 256 128.003C323.627 128.003 384.96 155.518 429.398 199.943L459.563 169.781C407.403 117.633 335.403 85.3359 256 85.3359ZM362.81 317.515C364.042 306.905 373.06 298.669 384 298.669L386.488 298.813C397.098 300.045 405.333 309.062 405.333 320.003V362.669H362.667V320.003L362.81 317.515Z"/></svg>