<svg width="512" height="512" viewBox="0 0 512 512" fill="none" xmlns="http://www.w3.org/2000/svg"><path fill-rule="evenodd" clip-rule="evenodd" d="M257.779 405.287L284.433 358.643C279.108 348.362 268.37 341.336 256 341.336C238.336 341.336 224 355.663 224 373.336C224 391.008 238.336 405.336 256 405.336C256.597 405.336 257.19 405.32 257.779 405.287ZM307.114 318.952L328.648 281.266C308.652 265.453 283.406 256.003 256 256.003C223.659 256.003 194.326 269.163 173.077 290.409L203.221 320.566C216.747 307.045 235.414 298.669 256 298.669C275.755 298.669 293.741 306.381 307.114 318.952ZM356.874 249.222C364.897 245.789 373.904 244.834 382.628 246.705L399.232 230.095C362.539 193.398 311.872 170.669 256 170.669C200.128 170.669 149.462 193.398 112.768 230.095L142.912 260.25C171.883 231.279 211.883 213.336 256 213.336C294.21 213.336 329.332 226.796 356.874 249.222ZM256 85.3359C176.598 85.3359 104.598 117.633 52.4375 169.784L82.6028 199.941C127.019 155.518 188.352 128.003 256 128.003C323.627 128.003 384.96 155.518 429.398 199.943L459.563 169.781C407.403 117.633 335.403 85.3359 256 85.3359ZM384.276 269.911C387.584 271.801 390.325 274.542 392.214 277.849L483.453 437.517C489.299 447.747 485.745 460.778 475.515 466.624C472.292 468.466 468.643 469.435 464.931 469.435H282.453C270.671 469.435 261.12 459.883 261.12 448.101C261.12 444.389 262.089 440.74 263.931 437.517L355.169 277.849C361.015 267.619 374.047 264.065 384.276 269.911ZM357.333 384.003H389.333V320.003H357.333V384.003ZM394.667 426.669C394.667 414.362 385.524 405.336 373.333 405.336C361.143 405.336 352 414.362 352 426.396C352 438.977 360.866 448.003 373.333 448.003C385.524 448.003 394.667 438.977 394.667 426.669Z"/></svg>