<svg width="512" height="512" viewBox="0 0 512 512" fill="none" xmlns="http://www.w3.org/2000/svg"><path fill-rule="evenodd" clip-rule="evenodd" d="M255.998 405.333C264.191 405.333 271.668 402.251 277.331 397.182V349.485C271.668 344.416 264.191 341.333 255.998 341.333C238.334 341.333 223.998 355.661 223.998 373.333C223.998 391.006 238.334 405.333 255.998 405.333ZM331.408 283.517C326.341 290.806 322.751 299.2 321.071 308.264C320.366 312.069 319.997 315.991 319.997 320V362.667H298.664V469.333H469.331V362.667H447.997V320C447.997 284.654 419.344 256 383.997 256C362.21 256 342.966 266.887 331.408 283.517ZM255.998 298.667C271.997 298.667 286.837 303.725 299.004 312.327C300.355 297.168 305.67 283.15 313.905 271.316C296.808 261.571 277.04 256 255.998 256C223.656 256 194.323 269.161 173.075 290.406L203.219 320.563C216.744 307.042 235.411 298.667 255.998 298.667ZM362.808 317.512C364.04 306.902 373.057 298.667 383.997 298.667L386.485 298.81C397.095 300.043 405.331 309.059 405.331 320V362.667H362.664V320L362.808 317.512Z"/></svg>