<svg width="512" height="512" viewBox="0 0 512 512" fill="none" xmlns="http://www.w3.org/2000/svg"><path fill-rule="evenodd" clip-rule="evenodd" d="M256 405.331C264.193 405.331 271.671 402.248 277.333 397.179V349.482C271.671 344.413 264.193 341.331 256 341.331C238.336 341.331 224 355.658 224 373.331C224 391.003 238.336 405.331 256 405.331ZM399.232 230.09L394.072 235.252C390.769 234.864 387.408 234.664 384 234.664C371.177 234.664 359.014 237.493 348.102 242.56C322.043 224.154 290.264 213.331 256 213.331C211.883 213.331 171.883 231.274 142.912 260.245L112.768 230.09C149.462 193.393 200.128 170.664 256 170.664C311.872 170.664 362.539 193.393 399.232 230.09ZM372.26 257.072C370.504 257.397 368.772 257.795 367.069 258.261C352.415 262.27 339.859 271.358 331.41 283.514C326.343 290.804 322.754 299.197 321.074 308.261C320.369 312.066 320 315.989 320 319.997V362.664H298.667V469.331H469.333V362.664H448V319.997C448 284.651 419.346 255.997 384 255.997C379.99 255.997 376.066 256.366 372.26 257.072ZM299.007 312.324C300.358 297.165 305.673 283.147 313.908 271.313C296.811 261.568 277.042 255.997 256 255.997C223.659 255.997 194.326 269.158 173.078 290.404L203.222 320.561C216.747 307.04 235.414 298.664 256 298.664C272 298.664 286.839 303.723 299.007 312.324ZM362.81 317.509C364.043 306.9 373.06 298.664 384 298.664L386.488 298.808C397.098 300.04 405.333 309.057 405.333 319.997V362.664H362.667V319.997L362.81 317.509Z"/></svg>