<svg width="512" height="512" viewBox="0 0 512 512" fill="none" xmlns="http://www.w3.org/2000/svg"><path d="M196.56 318.381L138.49 352L256 420.032L373.51 352L315.44 318.381C322.529 306.103 329.846 293.43 336.775 281.431L458.667 352L256 469.333L53.3335 352L175.225 281.431C182.154 293.43 189.471 306.103 196.56 318.381Z"/><path fill-rule="evenodd" clip-rule="evenodd" d="M231.367 335.999C233.511 339.713 235.572 343.283 237.525 346.666L256 378.667L274.475 346.666C276.429 343.283 278.489 339.713 280.634 335.999C307.269 289.867 346.774 221.446 353.013 210.673C362.56 194.187 368 175.07 368 154.667C368 92.8109 317.856 42.6667 256 42.6667C194.144 42.6667 144 92.8109 144 154.667C144 175.07 149.44 194.187 158.987 210.673C165.226 221.446 204.732 289.867 231.367 335.999ZM256 293.333C230.88 249.825 201.255 198.522 195.91 189.291ZM256 293.333C281.121 249.824 310.747 198.519 316.091 189.291C321.965 179.147 325.333 167.383 325.333 154.667C325.333 116.375 294.292 85.3334 256 85.3334C217.708 85.3334 186.667 116.375 186.667 154.667C186.667 167.383 190.035 179.147 195.91 189.291"/><path d="M293.333 149.333C293.333 169.952 276.619 186.667 256 186.667C235.382 186.667 218.667 169.952 218.667 149.333C218.667 128.715 235.382 112 256 112C276.619 112 293.333 128.715 293.333 149.333Z"/></svg>