<svg width="512" height="512" viewBox="0 0 512 512" fill="none" xmlns="http://www.w3.org/2000/svg"><path fill-rule="evenodd" clip-rule="evenodd" d="M426.667 120.242L256 42.6667L85.3333 120.242V236.606C85.3333 344.243 158.151 444.896 256 469.333L261.617 467.84C274.46 464.213 286.848 459.273 298.667 453.176V362.667H362.667V298.667H418.609C423.861 278.598 426.667 257.737 426.667 236.606V120.242ZM128 147.712L256 89.5148V424.939L251.339 423.341C180.854 397.666 128 319.868 128 236.606V147.712ZM384 490.667V426.667H320V384H384V320H426.667V384H490.667V426.667H426.667V490.667H384Z"/></svg>