<svg width="512" height="512" viewBox="0 0 512 512" fill="none" xmlns="http://www.w3.org/2000/svg"><path fill-rule="evenodd" clip-rule="evenodd" d="M128 106.667H106.667V128H64L64 106.667V64H106.667H128V106.667ZM64 170.667V234.667H106.667V170.667H64ZM64 341.333L64 277.333H106.667V341.333H64ZM405.333 170.667V234.667H448V170.667H405.333ZM170.667 64H234.667V106.667H170.667V64ZM341.333 64H277.333V106.667H341.333V64ZM170.667 405.333H234.667V448H170.667V405.333ZM106.667 405.333V384H64L64 405.333V448H106.667H128V405.333H106.667ZM405.333 106.667V128H448V106.667V64H405.333H384V106.667H405.333ZM426.667 384V320H384V384H320V426.667H384V490.667H426.667V426.667H490.667V384H426.667Z"/></svg>