<svg width="512" height="512" viewBox="0 0 512 512" fill="none" xmlns="http://www.w3.org/2000/svg"><path fill-rule="evenodd" clip-rule="evenodd" d="M85.3334 256C85.3334 161.743 161.743 85.3334 256 85.3334C350.257 85.3334 426.667 161.743 426.667 256C426.667 350.257 350.257 426.667 256 426.667C161.743 426.667 85.3334 350.257 85.3334 256ZM128 256C128 185.308 185.308 128 256 128C326.692 128 384 185.308 384 256C384 326.692 326.692 384 256 384C185.308 384 128 326.692 128 256ZM234.667 234.667V170.667H277.333V234.667H341.333V277.333H277.333V341.333H234.667V277.333H170.667V234.667H234.667Z"/></svg>