<svg xmlns="http://www.w3.org/2000/svg" width="512" height="512" viewBox="0 0 512 512"><path fill-rule="evenodd" d="M362.666667,277.333333 L362.666667,341.333333 L426.666667,341.333333 L426.666667,384 L362.666667,384 L362.666667,448 L320,448 L320,384 L256,384 L256,341.333333 L320,341.333333 L320,277.333333 L362.666667,277.333333 Z M186.666667,192 C246.976162,192 296.152141,241.030193 298.573248,302.451465 L298.666667,307.2 L298.666667,320 L256,320 L256,307.2 C256,268.266624 226.807633,236.897658 190.574699,234.780576 L186.666667,234.666667 L112,234.666667 C75.2924237,234.666667 44.8342773,264.693103 42.777363,303.0585 L42.6666667,307.2 L42.6666667,341.333333 L234.666667,341.333333 L234.666667,384 L0,384 L0,307.2 C0,245.167377 47.6682428,194.586368 107.383368,192.09609 L112,192 L186.666667,192 Z M149.333333,3.55271368e-14 C190.570594,3.55271368e-14 224,33.4294054 224,74.6666667 C224,114.529353 192.762078,147.096031 153.430084,149.222851 L149.333333,149.333333 C108.096072,149.333333 74.6666667,115.903928 74.6666667,74.6666667 C74.6666667,34.8039808 105.904589,2.2373024 145.236582,0.110482347 L149.333333,3.55271368e-14 Z M149.333333,42.6666667 C131.660221,42.6666667 117.333333,56.9935548 117.333333,74.6666667 C117.333333,92.3397786 131.660221,106.666667 149.333333,106.666667 C167.006445,106.666667 181.333333,92.3397786 181.333333,74.6666667 C181.333333,56.9935548 167.006445,42.6666667 149.333333,42.6666667 Z" transform="translate(64 42.667)"/></svg>