<svg width="512" height="512" viewBox="0 0 512 512" fill="none" xmlns="http://www.w3.org/2000/svg"><path fill-rule="evenodd" clip-rule="evenodd" d="M320 42.6641H85.3333V277.331H128V85.3307H302.293L384 167.037V277.331H426.667V149.331L320 42.6641ZM125.135 418.071H172.505L183.307 447.997H213.234L163.65 322.534H134.166L86.265 447.997H114.421L125.135 418.071ZM155.151 369.728L165.067 396.821H132.484L142.223 369.728C145.057 361.817 147.211 355.293 148.687 350.158C150.871 357.241 153.025 363.765 155.151 369.728ZM229.171 322.534V447.997H257.417V400.185H269.282C277.899 400.185 284.924 399.537 290.355 398.237C295.844 396.878 300.508 394.666 304.343 391.596C313.199 384.514 317.626 374.331 317.626 361.049C317.626 352.904 315.765 345.792 312.047 339.712C307.443 332.096 300.772 327.168 292.036 324.925C285.719 323.33 276.542 322.534 264.499 322.534H229.171ZM264.853 378.935H256.708V343.784H264.853C272.704 343.784 278.43 344.876 282.031 347.061C286.931 350.011 289.38 354.999 289.38 362.024C289.38 369.166 286.842 373.977 281.766 376.456C278.342 378.109 272.704 378.935 264.853 378.935ZM335.422 322.534V447.997H363.667V400.185H375.531C384.149 400.185 391.174 399.537 396.604 398.237C402.093 396.878 406.756 394.666 410.594 391.596C419.447 384.514 423.874 374.331 423.874 361.049C423.874 352.904 422.016 345.792 418.298 339.712C413.692 332.096 407.023 327.168 398.287 324.925C391.97 323.33 382.793 322.534 370.75 322.534H335.422ZM371.104 378.935H362.959V343.784H371.104C378.955 343.784 384.681 344.876 388.282 347.061C393.18 350.011 395.631 354.999 395.631 362.024C395.631 369.166 393.092 373.977 388.015 376.456C384.593 378.109 378.955 378.935 371.104 378.935Z"/></svg>