<svg width="512" height="512" viewBox="0 0 512 512" fill="none" xmlns="http://www.w3.org/2000/svg"><mask id="path-1-inside-1_13340_11543"><path fill-rule="evenodd" clip-rule="evenodd" d="M106.667 341.336H239.083C236.206 351.508 234.667 362.242 234.667 373.336C234.667 376.932 234.828 380.489 235.145 384.003H64V85.3359H448V305.857C437.042 290.296 422.396 277.519 405.333 268.796V192.003H106.667V341.336ZM106.667 128.003H405.333V149.336H106.667V128.003ZM352 277.336C405.019 277.336 448 320.317 448 373.336C448 426.355 405.019 469.336 352 469.336C298.981 469.336 256 426.355 256 373.336C256 320.317 298.981 277.336 352 277.336ZM330.954 362.669C332.029 342.978 336.012 326.07 341.324 314.118C344.46 307.061 347.642 302.671 350.098 300.334C350.972 299.502 351.604 299.059 351.999 298.831C352.394 299.059 353.026 299.502 353.9 300.334C356.356 302.671 359.538 307.061 362.674 314.118C367.986 326.07 371.969 342.978 373.044 362.669H330.954ZM322.074 441.764C315.267 426.694 310.699 406.522 309.593 384.002H278.089C281.8 409.95 298.852 431.594 322.074 441.764ZM341.324 432.554C336.012 420.602 332.029 403.693 330.954 384.002H373.044C371.969 403.693 367.986 420.602 362.674 432.554C359.538 439.611 356.356 444.001 353.9 446.338C353.026 447.169 352.394 447.612 351.999 447.841C351.604 447.612 350.972 447.169 350.098 446.338C347.642 444.001 344.46 439.611 341.324 432.554ZM381.924 441.764C388.731 426.694 393.299 406.522 394.405 384.002H425.91C422.198 409.95 405.146 431.594 381.924 441.764ZM425.91 362.669H394.405C393.299 340.15 388.731 319.978 381.924 304.908C405.146 315.077 422.198 336.722 425.91 362.669ZM278.089 362.669H309.593C310.699 340.15 315.267 319.978 322.074 304.908C298.852 315.077 281.8 336.722 278.089 362.669Z"/></mask><path fill-rule="evenodd" clip-rule="evenodd" d="M106.667 341.336H239.083C236.206 351.508 234.667 362.242 234.667 373.336C234.667 376.932 234.828 380.489 235.145 384.003H64V85.3359H448V305.857C437.042 290.296 422.396 277.519 405.333 268.796V192.003H106.667V341.336ZM106.667 128.003H405.333V149.336H106.667V128.003ZM352 277.336C405.019 277.336 448 320.317 448 373.336C448 426.355 405.019 469.336 352 469.336C298.981 469.336 256 426.355 256 373.336C256 320.317 298.981 277.336 352 277.336ZM330.954 362.669C332.029 342.978 336.012 326.07 341.324 314.118C344.46 307.061 347.642 302.671 350.098 300.334C350.972 299.502 351.604 299.059 351.999 298.831C352.394 299.059 353.026 299.502 353.9 300.334C356.356 302.671 359.538 307.061 362.674 314.118C367.986 326.07 371.969 342.978 373.044 362.669H330.954ZM322.074 441.764C315.267 426.694 310.699 406.522 309.593 384.002H278.089C281.8 409.95 298.852 431.594 322.074 441.764ZM341.324 432.554C336.012 420.602 332.029 403.693 330.954 384.002H373.044C371.969 403.693 367.986 420.602 362.674 432.554C359.538 439.611 356.356 444.001 353.9 446.338C353.026 447.169 352.394 447.612 351.999 447.841C351.604 447.612 350.972 447.169 350.098 446.338C347.642 444.001 344.46 439.611 341.324 432.554ZM381.924 441.764C388.731 426.694 393.299 406.522 394.405 384.002H425.91C422.198 409.95 405.146 431.594 381.924 441.764ZM425.91 362.669H394.405C393.299 340.15 388.731 319.978 381.924 304.908C405.146 315.077 422.198 336.722 425.91 362.669ZM278.089 362.669H309.593C310.699 340.15 315.267 319.978 322.074 304.908C298.852 315.077 281.8 336.722 278.089 362.669Z"/><path d="M239.083 341.336L240.046 341.608L240.405 340.336H239.083V341.336ZM106.667 341.336H105.667V342.336H106.667V341.336ZM235.145 384.003V385.003H236.239L236.141 383.913L235.145 384.003ZM64 384.003H63V385.003H64V384.003ZM64 85.3359V84.3359H63V85.3359H64ZM448 85.3359H449V84.3359H448V85.3359ZM448 305.857L447.182 306.433L449 309.014V305.857H448ZM405.333 268.796H404.333V269.408L404.878 269.687L405.333 268.796ZM405.333 192.003H406.333V191.003H405.333V192.003ZM106.667 192.003V191.003H105.667V192.003H106.667ZM405.333 128.003H406.333V127.003H405.333V128.003ZM106.667 128.003V127.003H105.667V128.003H106.667ZM405.333 149.336V150.336H406.333V149.336H405.333ZM106.667 149.336H105.667V150.336H106.667V149.336ZM341.324 314.118L340.41 313.712L340.41 313.712L341.324 314.118ZM330.954 362.669L329.956 362.615L329.898 363.669H330.954V362.669ZM350.098 300.334L349.409 299.609L349.409 299.609L350.098 300.334ZM351.999 298.831L352.5 297.965L351.999 297.675L351.498 297.965L351.999 298.831ZM353.9 300.334L354.589 299.609L354.589 299.609L353.9 300.334ZM362.674 314.118L363.588 313.712L363.588 313.712L362.674 314.118ZM373.044 362.669V363.669H374.1L374.042 362.615L373.044 362.669ZM309.593 384.002L310.592 383.953L310.545 383.002H309.593V384.002ZM322.074 441.764L321.673 442.68L324.056 443.724L322.985 441.352L322.074 441.764ZM278.089 384.002V383.002H276.935L277.099 384.144L278.089 384.002ZM330.954 384.002V383.002H329.898L329.956 384.057L330.954 384.002ZM341.324 432.554L340.41 432.96L340.41 432.96L341.324 432.554ZM373.044 384.002L374.042 384.057L374.1 383.002H373.044V384.002ZM362.674 432.554L363.588 432.96L363.588 432.96L362.674 432.554ZM353.9 446.338L353.211 445.613L353.211 445.613L353.9 446.338ZM351.999 447.841L351.498 448.706L351.999 448.996L352.5 448.706L351.999 447.841ZM350.098 446.338L350.788 445.613L350.788 445.613L350.098 446.338ZM394.405 384.002V383.002H393.453L393.407 383.953L394.405 384.002ZM381.924 441.764L381.013 441.352L379.942 443.724L382.326 442.68L381.924 441.764ZM425.91 384.002L426.9 384.144L427.063 383.002H425.91V384.002ZM394.405 362.669L393.407 362.718L393.453 363.669H394.405V362.669ZM425.91 362.669V363.669H427.063L426.9 362.527L425.91 362.669ZM381.924 304.908L382.326 303.992L379.942 302.948L381.013 305.319L381.924 304.908ZM309.593 362.669V363.669H310.545L310.592 362.718L309.593 362.669ZM278.089 362.669L277.099 362.527L276.935 363.669H278.089V362.669ZM322.074 304.908L322.985 305.319L324.056 302.948L321.673 303.992L322.074 304.908ZM239.083 340.336H106.667V342.336H239.083V340.336ZM235.667 373.336C235.667 362.335 237.193 351.693 240.046 341.608L238.121 341.064C235.219 351.324 233.667 362.149 233.667 373.336H235.667ZM236.141 383.913C235.827 380.429 235.667 376.902 235.667 373.336H233.667C233.667 376.962 233.83 380.549 234.149 384.092L236.141 383.913ZM64 385.003H235.145V383.003H64V385.003ZM63 85.3359V384.003H65V85.3359H63ZM448 84.3359H64V86.3359H448V84.3359ZM449 305.857V85.3359H447V305.857H449ZM404.878 269.687C421.795 278.335 436.317 291.003 447.182 306.433L448.818 305.281C437.767 289.588 422.997 276.703 405.789 267.906L404.878 269.687ZM404.333 192.003V268.796H406.333V192.003H404.333ZM106.667 193.003H405.333V191.003H106.667V193.003ZM107.667 341.336V192.003H105.667V341.336H107.667ZM405.333 127.003H106.667V129.003H405.333V127.003ZM406.333 149.336V128.003H404.333V149.336H406.333ZM106.667 150.336H405.333V148.336H106.667V150.336ZM105.667 128.003V149.336H107.667V128.003H105.667ZM449 373.336C449 319.764 405.572 276.336 352 276.336V278.336C404.467 278.336 447 320.869 447 373.336H449ZM352 470.336C405.572 470.336 449 426.908 449 373.336H447C447 425.803 404.467 468.336 352 468.336V470.336ZM255 373.336C255 426.908 298.428 470.336 352 470.336V468.336C299.533 468.336 257 425.803 257 373.336H255ZM352 276.336C298.428 276.336 255 319.764 255 373.336H257C257 320.869 299.533 278.336 352 278.336V276.336ZM340.41 313.712C335.038 325.799 331.036 342.831 329.956 362.615L331.953 362.724C333.023 343.125 336.986 326.341 342.238 314.524L340.41 313.712ZM349.409 299.609C346.829 302.065 343.58 306.578 340.41 313.712L342.238 314.524C345.34 307.543 348.456 303.277 350.788 301.058L349.409 299.609ZM351.498 297.965C351.021 298.241 350.327 298.736 349.409 299.609L350.788 301.058C351.617 300.269 352.187 299.878 352.5 299.696L351.498 297.965ZM354.589 299.609C353.672 298.736 352.977 298.241 352.5 297.965L351.498 299.696C351.812 299.878 352.381 300.269 353.211 301.058L354.589 299.609ZM363.588 313.712C360.418 306.578 357.169 302.065 354.589 299.609L353.211 301.058C355.542 303.277 358.658 307.543 361.761 314.524L363.588 313.712ZM374.042 362.615C372.962 342.831 368.96 325.799 363.588 313.712L361.761 314.524C367.012 326.341 370.975 343.125 372.045 362.724L374.042 362.615ZM330.954 363.669H373.044V361.669H330.954V363.669ZM308.594 384.051C309.705 406.666 314.293 426.966 321.162 442.175L322.985 441.352C316.242 426.421 311.693 406.378 310.592 383.953L308.594 384.051ZM278.089 385.002H309.593V383.002H278.089V385.002ZM322.475 440.848C299.563 430.813 282.74 409.458 279.078 383.861L277.099 384.144C280.86 410.442 298.141 432.374 321.673 442.68L322.475 440.848ZM329.956 384.057C331.036 403.84 335.038 420.873 340.41 432.96L342.238 432.148C336.986 420.331 333.023 403.547 331.953 383.948L329.956 384.057ZM373.044 383.002H330.954V385.002H373.044V383.002ZM363.588 432.96C368.96 420.873 372.962 403.84 374.042 384.057L372.045 383.948C370.975 403.547 367.012 420.331 361.761 432.148L363.588 432.96ZM354.589 447.062C357.169 444.607 360.418 440.093 363.588 432.96L361.761 432.148C358.658 439.128 355.542 443.394 353.211 445.613L354.589 447.062ZM352.5 448.706C352.977 448.43 353.672 447.936 354.589 447.062L353.211 445.613C352.381 446.403 351.812 446.794 351.498 446.975L352.5 448.706ZM349.409 447.062C350.327 447.936 351.021 448.43 351.498 448.706L352.5 446.975C352.187 446.794 351.617 446.403 350.788 445.613L349.409 447.062ZM340.41 432.96C343.58 440.093 346.829 444.607 349.409 447.062L350.788 445.613C348.456 443.394 345.34 439.128 342.238 432.148L340.41 432.96ZM393.407 383.953C392.305 406.378 387.756 426.421 381.013 441.352L382.836 442.175C389.705 426.966 394.293 406.666 395.404 384.051L393.407 383.953ZM425.91 383.002H394.405V385.002H425.91V383.002ZM382.326 442.68C405.857 432.374 423.138 410.442 426.9 384.144L424.92 383.861C421.258 409.458 404.435 430.813 381.523 440.848L382.326 442.68ZM394.405 363.669H425.91V361.669H394.405V363.669ZM381.013 305.319C387.756 320.25 392.305 340.294 393.407 362.718L395.404 362.62C394.293 340.006 389.705 319.705 382.836 304.496L381.013 305.319ZM426.9 362.527C423.138 336.229 405.857 314.297 382.326 303.992L381.523 305.824C404.435 315.858 421.258 337.214 424.92 362.811L426.9 362.527ZM309.593 361.669H278.089V363.669H309.593V361.669ZM321.162 304.496C314.293 319.705 309.705 340.006 308.594 362.62L310.592 362.718C311.693 340.294 316.242 320.25 322.985 305.319L321.162 304.496ZM279.078 362.811C282.74 337.214 299.563 315.858 322.475 305.824L321.673 303.992C298.141 314.297 280.86 336.229 277.099 362.527L279.078 362.811Z" mask="url(#path-1-inside-1_13340_11543)"/></svg>