<svg xmlns="http://www.w3.org/2000/svg" width="512" height="512" viewBox="0 0 512 512"><path d="M170.666667 0 170.666667 170.666667 0 170.666667 0 0 170.666667 0ZM128 42.6666667 42.6666667 42.6666667 42.6666667 128 128 128 128 42.6666667ZM170.666667 213.333333 170.666667 384 0 384 0 213.333333 170.666667 213.333333ZM128 256 42.6666667 256 42.6666667 341.333333 128 341.333333 128 256ZM384 0 384 170.666667 213.333333 170.666667 213.333333 0 384 0ZM341.333333 42.6666667 256 42.6666667 256 128 341.333333 128 341.333333 42.6666667ZM384 213.333333 384 384 213.333333 384 213.333333 213.333333 384 213.333333ZM341.333333 256 256 256 256 341.333333 341.333333 341.333333 341.333333 256Z" transform="translate(64 64)"/></svg>