<svg width="512" height="512" viewBox="0 0 512 512" fill="none" xmlns="http://www.w3.org/2000/svg"><path fill-rule="evenodd" clip-rule="evenodd" d="M448 85.3359V331.985L428.115 297.187C424.626 291.081 419.566 286.021 413.46 282.532C410.835 281.032 408.109 279.867 405.333 279.024V192.003H106.667V341.336H158.209C152.5 354.402 149.333 368.832 149.333 384.003H64V85.3359H448ZM106.667 128.003H405.333V149.336H106.667V128.003ZM332.151 345.441C331.708 344.587 331.326 343.865 331.014 343.29C316.557 316.71 288.385 298.669 256 298.669C208.872 298.669 170.667 336.874 170.667 384.003C170.667 431.131 208.872 469.336 256 469.336C264.309 469.336 272.34 468.148 279.934 465.934C278.254 461.555 277.333 456.801 277.333 451.831C277.333 444.977 279.122 438.242 282.523 432.291L284.953 428.037L283.413 426.499L256 399.085L224 431.088L208.915 416.003L240.896 384.003L208.915 352.003L224 336.918L256 368.899L288 336.918L303.085 352.003L271.083 384.003L294.379 407.299C294.379 407.299 294.912 407.882 295.89 408.898L332.151 345.441ZM409.593 307.772C407.994 304.973 405.674 302.654 402.876 301.055C394.22 296.108 383.193 299.116 378.247 307.772L301.045 442.875C299.486 445.603 298.667 448.69 298.667 451.831C298.667 461.801 306.749 469.882 316.718 469.882H471.122C474.264 469.882 477.351 469.063 480.078 467.504C488.734 462.558 491.741 451.531 486.795 442.875L409.593 307.772ZM407.155 397.594H380.078V343.44H407.155V397.594ZM393.617 415.645C403.932 415.645 411.668 423.282 411.668 433.696C411.668 444.111 403.932 451.748 393.617 451.748C383.067 451.748 375.565 444.111 375.565 433.465C375.565 423.282 383.302 415.645 393.617 415.645Z"/></svg>