<svg xmlns="http://www.w3.org/2000/svg" width="512" height="512" viewBox="0 0 512 512"><path fill-rule="evenodd" d="M213.798063,337.358018 C213.489933,338.914305 213.333333,340.491728 213.333333,342.086442 L213.333333,367.298563 C213.333333,395.147103 261.089627,417.722805 320,417.722805 C378.910373,417.722805 426.666667,395.147103 426.666667,367.298563 L426.666667,342.086442 L426.652376,341.252585 C426.607497,339.944049 426.457177,338.647629 426.205258,337.365143 C419.672561,342.588434 411.71936,347.405017 402.503711,351.528578 C380.993953,361.153166 351.989753,367.298563 320,367.298563 C286.74181,367.298563 256.714921,360.64633 234.948291,350.356651 C226.811995,346.510402 219.729348,342.104789 213.798063,337.358018 Z M213.798063,261.721655 C213.489933,263.277942 213.333333,264.855365 213.333333,266.450078 L213.333333,291.662199 C213.333333,319.510739 261.089627,342.086442 320,342.086442 C378.910373,342.086442 426.666667,319.510739 426.666667,291.662199 L426.666667,266.450078 L426.652376,265.616221 C426.607497,264.307685 426.457177,263.011266 426.205258,261.728779 C419.672561,266.952071 411.71936,271.768653 402.503711,275.892215 C380.993953,285.516802 351.989753,291.662199 320,291.662199 C286.74181,291.662199 256.714921,285.009967 234.948291,274.720287 C226.811995,270.874038 219.729348,266.468425 213.798063,261.721655 Z M320,140.389472 C261.089627,140.389472 213.333333,162.965174 213.333333,190.813714 L213.333333,216.025836 C213.333333,243.874376 261.089627,266.450078 320,266.450078 C378.910373,266.450078 426.666667,243.874376 426.666667,216.025836 L426.666667,190.813714 L426.508835,188.047077 C423.47052,161.485212 376.946694,140.389472 320,140.389472 Z M59.051772,-3.17686786e-13 L89.225366,30.1733203 C67.0029761,53.1969454 53.3333333,84.5301822 53.3333333,119.056135 C53.3333333,161.875726 74.3590515,199.784497 106.649426,223.021387 L106.666667,140.389472 L149.333333,140.389472 L149.333333,289.722805 L-8.09504849e-15,289.722805 L-1.5932788e-14,247.056139 L68.446352,247.057482 C33.0141836,215.785152 10.6666667,170.030415 10.6666667,119.056135 C10.6666667,72.7481619 29.1099665,30.7478521 59.051772,-3.17686786e-13 Z" transform="translate(42.667 51.61)"/></svg>