<svg width="512" height="512" viewBox="0 0 512 512" fill="none" xmlns="http://www.w3.org/2000/svg"><path fill-rule="evenodd" clip-rule="evenodd" d="M305.917 42.6667V85.3334H384L384.003 199.604C372.564 198.238 357.253 197.854 341.352 198.448L341.333 128H170.667V426.667L283.843 426.674C283.208 430.13 282.877 433.693 282.877 437.333C282.877 449.146 286.368 460.143 292.374 469.349L128 469.333V85.3334H213.333V42.6667H305.917ZM341.543 410.667C356.271 410.667 368.21 422.606 368.21 437.333C368.21 452.061 356.271 464 341.543 464C326.815 464 314.877 452.061 314.877 437.333C314.877 422.606 326.815 410.667 341.543 410.667ZM337.985 221.335C356.145 221.335 372.077 224.869 385.783 231.923C408.586 243.626 419.978 263.495 419.978 291.504C419.978 305.02 416.543 316.822 409.691 326.901C404.04 335.371 394.57 344.55 381.254 354.435C373.59 359.682 368.543 364.619 366.128 369.258C363.089 374.906 361.588 383.371 361.588 394.667H318.922C318.922 377.53 320.746 365.028 324.377 357.163C328.606 347.68 337.783 338.099 351.898 328.421C358.562 323.375 363.4 318.237 366.426 312.995C370.051 307.143 371.875 300.492 371.875 293.029C371.875 281.13 368.336 272.263 361.282 266.405C355.645 262.177 348.779 260.06 340.713 260.06C327.605 260.06 318.123 264.399 312.276 273.069C308.041 279.518 305.917 287.788 305.917 297.869V298.173H260.555C260.555 271.751 268.914 251.791 285.646 238.275C299.766 226.992 317.219 221.335 337.985 221.335Z"/></svg>