<svg width="512" height="512" viewBox="0 0 512 512" fill="none" xmlns="http://www.w3.org/2000/svg"><path fill-rule="evenodd" clip-rule="evenodd" d="M234.877 389.333C249.605 389.333 261.544 401.272 261.544 416C261.544 430.728 249.605 442.667 234.877 442.667C220.149 442.667 208.21 430.728 208.21 416C208.21 401.272 220.149 389.333 234.877 389.333ZM426.667 128V210.589L469.334 210.59V298.667L426.667 298.667V384H286.925L286.921 373.333L286.922 372.73C286.931 369.835 287.068 365.88 289.126 363.321C290.596 361.493 291.776 360.221 292.666 359.506C301.098 353.26 308.295 347.258 314.383 341.333L384 341.333V170.667H85.3337V341.333L182.79 341.333C181.04 350.549 180.256 361.171 180.256 373.333L180.24 384H42.667V128H426.667ZM231.318 200.001C249.479 200.001 265.411 203.535 279.117 210.59C301.92 222.293 313.312 242.161 313.312 270.171C313.312 283.686 309.877 295.488 303.024 305.568C297.373 314.038 287.903 323.216 274.588 333.102C266.924 338.349 261.877 343.285 259.462 347.924C256.422 353.573 254.921 362.038 254.921 373.333H212.256C212.256 356.197 214.08 343.694 217.71 335.829C221.939 326.346 231.117 316.765 245.231 307.087C251.895 302.042 256.734 296.903 259.76 291.661C263.385 285.81 265.209 279.159 265.209 271.695C265.209 259.797 261.67 250.93 254.615 245.072C248.979 240.844 242.113 238.727 234.046 238.727C220.938 238.727 211.456 243.065 205.61 251.736C201.374 258.185 199.251 266.454 199.251 276.535V276.84H153.889C153.889 250.418 162.248 230.457 178.98 216.941C193.1 205.659 210.553 200.001 231.318 200.001Z"/></svg>