<svg width="512" height="512" viewBox="0 0 512 512" fill="none" xmlns="http://www.w3.org/2000/svg"><path fill-rule="evenodd" clip-rule="evenodd" d="M234.667 341.333C252.331 341.333 266.667 355.661 266.667 373.333C266.667 391.006 252.331 405.333 234.667 405.333C217.003 405.333 202.667 391.006 202.667 373.333C202.667 355.661 217.003 341.333 234.667 341.333ZM170.667 128V170.667H85.3333V341.333L170.667 341.333V384L42.6666 384V128L170.667 128ZM426.667 128V213.333H469.333V298.667H426.667V384L298.667 384V341.333L384 341.333V170.667H298.667V128L426.667 128ZM256 106.667V314.667H213.333V106.667H256Z"/></svg>