<svg width="512" height="512" viewBox="0 0 512 512" fill="none" xmlns="http://www.w3.org/2000/svg"><path d="M202.667 261.333V293.333C202.667 300.406 199.857 307.188 194.856 312.189C189.855 317.19 183.072 320 176 320C168.928 320 162.145 317.19 157.144 312.189C152.143 307.188 149.333 300.406 149.333 293.333V261.333C149.333 254.261 152.143 247.478 157.144 242.477C162.145 237.476 168.928 234.667 176 234.667C183.072 234.667 189.855 237.476 194.856 242.477C199.857 247.478 202.667 254.261 202.667 261.333ZM469.333 202.667V373.333C469.333 393.136 461.467 412.128 447.464 426.131C433.461 440.133 414.47 448 394.667 448H117.333C97.5305 448 78.5388 440.133 64.536 426.131C50.5333 412.128 42.6667 393.136 42.6667 373.333V202.667C42.6667 182.864 50.5333 163.872 64.536 149.869C78.5388 135.867 97.5305 128 117.333 128H149.333L125.227 104.107C120.248 99.1275 117.451 92.3746 117.451 85.3332C117.451 78.2918 120.248 71.5389 125.227 66.5599C130.206 61.5809 136.959 58.7837 144 58.7837C151.041 58.7837 157.794 61.5809 162.773 66.5599L224.427 128H288.427L350.08 66.5599C355.059 61.5809 361.812 58.7837 368.853 58.7837C375.895 58.7837 382.648 61.5809 387.627 66.5599C392.606 71.5389 395.403 78.2918 395.403 85.3332C395.403 92.3746 392.606 99.1275 387.627 104.107L362.667 128H394.667C414.47 128 433.461 135.867 447.464 149.869C461.467 163.872 469.333 182.864 469.333 202.667V202.667ZM416 202.667C416 197.009 413.752 191.582 409.752 187.582C405.751 183.581 400.325 181.333 394.667 181.333H117.333C111.675 181.333 106.249 183.581 102.248 187.582C98.2476 191.582 96 197.009 96 202.667V373.333C96 378.991 98.2476 384.417 102.248 388.418C106.249 392.419 111.675 394.667 117.333 394.667H394.667C400.325 394.667 405.751 392.419 409.752 388.418C413.752 384.417 416 378.991 416 373.333V202.667ZM336 234.667C328.928 234.667 322.145 237.476 317.144 242.477C312.143 247.478 309.333 254.261 309.333 261.333V293.333C309.333 300.406 312.143 307.188 317.144 312.189C322.145 317.19 328.928 320 336 320C343.072 320 349.855 317.19 354.856 312.189C359.857 307.188 362.667 300.406 362.667 293.333V261.333C362.667 254.261 359.857 247.478 354.856 242.477C349.855 237.476 343.072 234.667 336 234.667V234.667Z"/></svg>