<svg xmlns="http://www.w3.org/2000/svg" width="512" height="512" viewBox="0 0 512 512"><path fill-rule="evenodd" d="M403.947108,0.342073662 C404.340947,0.570821143 404.67104,0.894802002 404.907109,1.2842963 C424.503258,38.8168134 431.117232,81.7826396 423.716006,123.471016 L423.716006,123.488794 C404.667804,242.890471 302.082357,331.016355 181.173678,331.844441 C169.315918,332.305895 157.441611,331.591292 145.724773,329.711107 C95.2330683,321.135008 57.5881814,278.460433 55.3780669,227.293284 C55.5979843,169.479135 102.310853,122.613055 160.123972,122.203827 C217.937091,121.7946 265.308724,167.994708 266.347048,225.79995 C266.791493,243.275513 259.218156,258.617742 243.644816,259.062187 C227.004809,259.062187 219.218139,247.186626 219.218139,231.204397 L219.218139,186.759933 C219.23808,171.790139 207.165325,159.61413 192.195905,159.506588 L154.933666,159.506588 C125.080432,159.310278 98.949797,179.518984 91.6322288,208.462158 C84.3146605,237.405332 97.70081,267.604883 124.060163,281.62054 C150.419516,295.636197 182.941566,289.846715 202.844798,267.595524 L204.142576,265.639967 L205.458133,267.79108 C214.556079,280.154961 229.235913,287.1479 244.569261,286.422199 C272.557398,284.389723 293.817793,260.407681 292.480393,232.377731 C292.612788,220.80784 291.317072,209.265818 288.622613,198.013271 C274.352004,132.152439 212.643092,87.7074772 145.654298,95.0423841 C78.6655029,102.377291 28.0363788,159.122654 28.3558329,226.511061 C29.2128666,298.190945 86.6135367,356.353502 158.27589,358.155563 C158.27589,358.155563 165.446505,358.808625 174.413973,358.827284 L175.233997,358.827197 C176.471011,358.824337 177.738409,358.808955 179.022565,358.777786 C232.498589,358.441986 284.767983,342.850597 329.689298,313.835544 C330.329298,313.391099 330.969299,314.279989 330.542632,314.919989 C286.278524,362.599724 223.265774,388.370574 158.27589,385.373353 C115.857311,386.144869 74.966413,369.545438 45.0880872,339.4254 C15.2097614,309.305362 -1.05966567,268.282047 0.0535983086,225.871061 C0.0744823017,175.138639 24.0252939,127.388562 64.6758488,97.0354493 C91.6186497,77.1967083 124.177252,66.4496922 157.635889,66.3509914 L207.6448,66.3509914 C247.145384,66.3211951 284.814472,49.6897669 311.44929,20.5198603 C311.726185,20.2125071 312.093417,20.000882 312.498179,19.9154156 C313.33807,19.7366051 314.197979,20.1163982 314.631514,20.8576382 C314.84179,21.2174076 314.934982,21.6336645 314.89818,22.0487498 C312.780481,44.5223586 305.29986,66.1594614 293.084838,85.1421107 C292.899089,85.4655743 292.812537,85.8365102 292.835949,86.2087779 C292.897121,86.9786055 293.405608,87.6403359 294.133727,87.8976675 C294.486456,88.0277958 294.869423,88.0525033 295.23595,87.9687787 C342.047128,77.39386 381.058405,45.2242358 400.355996,1.2842963 C400.598223,0.893577306 400.934354,0.569668908 401.333774,0.342073662 C402.145184,-0.114024554 403.135698,-0.114024554 403.947108,0.342073662 Z M194.364794,186.119933 C195.806968,186.19128 196.960115,187.344427 197.031462,188.786601 L197.031462,225.088839 C197.031462,246.571497 179.616326,263.986633 158.133667,263.986633 C136.651009,263.986633 119.235873,246.571497 119.235873,225.088839 C119.235873,203.60618 136.651009,186.191044 158.133667,186.191044 Z" transform="translate(42.667 63.196)"/></svg>