<svg xmlns="http://www.w3.org/2000/svg" width="512" height="512" viewBox="0 0 512 512"><path fill-rule="evenodd" d="M1.42108547e-14,7.10542736e-15 L168,96 L1.42108547e-14,192 L1.42108547e-14,7.10542736e-15 Z M213.333333,7.10542736e-15 L381.333333,96 L213.333333,192 L213.333333,7.10542736e-15 Z M256,73.5146667 L256,118.464 L295.338667,96 L256,73.5146667 Z M213.333333,234.666667 L381.333333,330.666667 L213.333333,426.666667 L213.333333,234.666667 Z M256,308.181333 L256,353.130667 L295.338667,330.666667 L256,308.181333 Z M1.42108547e-14,234.666667 L168,330.666667 L1.42108547e-14,426.666667 L1.42108547e-14,234.666667 Z" transform="translate(85.333 42.667)"/></svg>