<svg width="512" height="512" viewBox="0 0 512 512" fill="none" xmlns="http://www.w3.org/2000/svg"><path d="M426.645 273.941L426.667 373.333L256 469.333L85.3334 373.333L85.312 275.584L127.979 300.523L128 348.373L234.667 408.363L234.645 334.336L256.147 321.147L277.312 334.165L277.333 408.363L384 348.352L383.979 298.859L426.645 273.941ZM208.019 57.6816L255.41 85.671L256 85.3333L256.263 85.479L301.144 58.9866L480.548 163.556L435.506 191.207L480.556 217.8L300.037 323.22L256.029 296.188L210.639 324.086L30.1206 218.666L76.1672 191.463L28.6152 162.251L208.019 57.6816ZM406.934 192L255.895 108.928L107.892 192L255.895 275.072L406.934 192Z"/></svg>