<svg width="512" height="512" viewBox="0 0 512 512" fill="none" xmlns="http://www.w3.org/2000/svg"><path fill-rule="evenodd" clip-rule="evenodd" d="M469.342 305.866L469.333 106.667H42.6665V405.333L260.418 405.337C257.54 395.164 256 384.428 256 373.333C256 348.211 263.895 324.933 277.339 305.845L277.333 149.333H298.667L298.676 282.812C311.031 272.61 325.51 264.889 341.351 260.412L341.333 149.333H362.667L362.675 256.478C366.185 256.162 369.74 256 373.333 256C384.428 256 395.163 257.54 405.337 260.418L405.333 149.333H426.667L426.675 268.798C443.739 277.523 458.384 290.303 469.342 305.866ZM85.3332 149.333H128V362.667H85.3332V149.333ZM213.333 149.333H234.667V362.667H213.333V149.333ZM277.34 374.705C277.34 321.685 320.321 278.705 373.34 278.705C426.359 278.705 469.34 321.685 469.34 374.705C469.34 427.724 426.359 470.705 373.34 470.705C320.321 470.705 277.34 427.724 277.34 374.705ZM418.297 365.837C422.568 359.555 424.709 352.199 424.709 343.774C424.709 326.316 418.297 315.357 403.395 306.638C394.852 302.241 384.922 300.038 373.602 300.038C360.659 300.038 349.781 303.564 340.98 310.597C330.551 319.021 325.34 333.281 325.34 347.931H353.614V347.741C353.614 341.458 354.938 336.304 357.578 332.284C361.222 326.88 367.132 324.175 375.303 324.175C380.33 324.175 384.61 325.495 388.123 328.13C392.52 331.782 394.726 337.308 394.726 344.725C394.726 349.377 393.589 353.522 391.33 357.17C389.444 360.437 386.428 363.64 382.274 366.784C373.477 372.817 367.756 378.789 365.12 384.699C362.858 389.602 361.721 397.394 361.721 408.076H388.314C388.314 401.035 389.25 395.759 391.144 392.238C392.649 389.347 395.795 386.27 400.572 382.999C408.872 376.838 414.774 371.117 418.297 365.837ZM375.821 418.048C366.641 418.048 359.2 425.49 359.2 434.67C359.2 443.85 366.641 451.291 375.821 451.291C385.001 451.291 392.442 443.85 392.442 434.67C392.442 425.49 385.001 418.048 375.821 418.048Z"/></svg>