<svg width="512" height="512" viewBox="0 0 512 512" fill="none" xmlns="http://www.w3.org/2000/svg"><path d="M298.667 42.667V149.334H426.667V256H405.333V332.47C405.333 370.455 395.698 407.774 377.389 440.955L373.333 448H64C93.3744 413.577 109.511 369.808 109.511 324.555L109.504 256H85.3333V149.334H213.333V42.667H298.667ZM152.171 256L152.178 324.555C152.178 349.18 148.275 373.445 140.781 396.508L137.685 405.334H197.952C204.921 384.441 209.527 363.031 211.761 341.342L254.624 341.353C252.674 363.01 248.658 384.443 242.623 405.36L261.952 405.334C271.03 378.115 276.122 349.909 277.142 321.429L277.333 310.738L277.312 277.334H319.979L320 310.738C320 342.773 315.49 374.625 306.623 405.36L347.392 405.334L349.831 399.587C357.345 380.661 361.642 360.568 362.505 340.143L362.667 332.47V256H152.171ZM384 192H128V213.334H384V192Z"/></svg>