<svg width="512" height="512" viewBox="0 0 512 512" fill="none" xmlns="http://www.w3.org/2000/svg"><path fill-rule="evenodd" clip-rule="evenodd" d="M256 64C299.76 64 337.366 90.3517 353.814 128.052L391.764 90.0656L421.934 120.235L367.083 175.083L384 192V234.645L469.333 234.667V277.333H384V277.335L375.063 277.333C363.707 277.323 352.254 279.128 341.157 282.855C341.274 281.03 341.333 279.188 341.333 277.333V213.333H170.667V277.333C170.667 322.533 205.809 359.525 250.261 362.477L272.98 404.217C267.424 404.953 261.756 405.333 256 405.333C222.909 405.333 192.751 392.777 170.031 372.168L120.235 421.934L90.0654 391.764L143.457 338.362C133.6 320.221 128 299.431 128 277.333H42.6665V234.667L128 234.645V192L144.917 175.083L90.0654 120.235L120.235 90.0656L158.192 128.038C174.643 90.345 212.245 64 256 64ZM256 106.667C220.654 106.667 192 135.32 192 170.667H320C320 135.32 291.346 106.667 256 106.667ZM469.331 384.014C469.331 399.561 465.173 414.136 457.91 426.69L439.432 416.021C444.88 406.606 447.998 395.674 447.998 384.014C447.998 365.06 439.758 348.03 426.665 336.311V352.014H405.331V298.681H458.665V320.014H440.442C458.158 335.651 469.331 358.528 469.331 384.014ZM341.331 310.114C354.795 302.34 369.496 298.654 384 298.667L384 320.004C373.122 319.993 362.096 322.759 351.998 328.589C335.583 338.066 324.954 353.717 321.352 370.916L334.952 363.064L345.618 381.539L299.43 408.206L272.764 362.018L291.239 351.351L300.35 367.133C305.034 343.972 319.259 322.857 341.331 310.114ZM341.331 457.915C327.867 450.142 317.324 439.254 310.084 426.687L328.563 416.018C333.992 425.444 341.9 433.61 351.998 439.44C368.413 448.917 387.282 450.296 403.977 444.817L390.377 436.965L401.044 418.49L447.232 445.156L420.565 491.344L402.09 480.678L411.202 464.896C388.802 472.421 363.404 470.659 341.331 457.915Z"/></svg>