<svg width="512" height="512" viewBox="0 0 512 512" fill="none" xmlns="http://www.w3.org/2000/svg"><path d="M256 64C299.76 64 337.366 90.3517 353.814 128.052L391.764 90.0656L421.934 120.235L367.083 175.083L384 192V234.645L469.333 234.667V277.333H384C384 299.431 378.4 320.221 368.542 338.362L421.934 391.764L391.764 421.934L341.969 372.168C319.249 392.777 289.091 405.333 256 405.333C222.909 405.333 192.751 392.777 170.031 372.168L120.235 421.934L90.0655 391.764L143.457 338.362C133.6 320.221 128 299.431 128 277.333H42.6665V234.667L128 234.645V192L144.917 175.083L90.0655 120.235L120.235 90.0656L158.192 128.038C174.643 90.3451 212.245 64 256 64ZM341.333 213.333H170.667V277.333C170.667 323.034 206.591 360.343 251.741 362.562L256 362.667C303.128 362.667 341.333 324.462 341.333 277.333V213.333ZM256 106.667C220.654 106.667 192 135.32 192 170.667H320C320 135.32 291.346 106.667 256 106.667Z"/></svg>