<svg width="512" height="512" viewBox="0 0 512 512" fill="none" xmlns="http://www.w3.org/2000/svg"><path d="M298.667 85.333C410.667 85.333 469.333 170.666 469.333 256C469.333 339.723 412.86 423.446 304.949 426.576L298.667 426.666C186.667 426.666 42.6667 341.333 42.6667 256C42.6667 170.666 186.667 85.333 298.667 85.333ZM298.667 128C201.979 128 85.3334 202.653 85.3334 256C85.3334 309.346 201.979 384 298.667 384C377.104 384 426.667 328.674 426.667 256C426.667 183.326 377.104 128 298.667 128ZM320 192C355.346 192 384 220.653 384 256C384 291.346 355.346 320 320 320H277.333C241.987 320 213.333 291.346 213.333 256C213.333 220.653 241.987 192 277.333 192H320ZM320 234.666H277.333C265.551 234.666 256 244.218 256 256C256 267.782 265.551 277.333 277.333 277.333H320C331.782 277.333 341.333 267.782 341.333 256C341.333 244.218 331.782 234.666 320 234.666Z"/></svg>