<svg width="512" height="512" viewBox="0 0 512 512" fill="none" xmlns="http://www.w3.org/2000/svg"><path d="M319.345 341.333C326.035 341.333 333.598 342.061 342.031 343.514L339.238 366.462C332.143 364.252 325.598 363.146 319.607 363.146C308.439 363.146 299.889 366.752 293.954 373.967C289.244 379.725 286.538 386.995 285.841 395.778C293.576 388.566 302.592 384.96 312.89 384.96C324.813 384.96 334.178 388.625 340.983 395.953C347.324 402.758 350.494 412.386 350.494 424.834C350.494 438.097 346.858 448.51 339.588 456.07C331.095 464.913 319.055 469.333 303.465 469.333C287.702 469.333 275.778 464.768 267.692 455.635C259.897 446.792 256 433.792 256 416.634C256 400.113 258.937 385.57 264.812 373.007C270.688 360.499 279.356 351.659 290.813 346.481C298.491 343.049 308.002 341.333 319.345 341.333ZM404.019 341.333V417.346L431.893 379.64H461.562L430.61 418.628L465.582 469.333H434.203L404.019 423.588V469.333H377.599V341.333H404.019ZM304.337 406.163C297.707 406.163 292.414 408.461 288.459 413.056C285.376 416.661 283.834 421.199 283.834 426.667C283.834 433.472 285.578 438.737 289.068 442.46C292.676 446.298 297.532 448.218 303.64 448.218C309.632 448.218 314.315 446.27 317.688 442.372C321.12 438.417 322.835 433.006 322.835 426.144C322.835 419.861 321.208 414.973 317.95 411.483C314.693 407.936 310.155 406.163 304.337 406.163ZM298.667 85.333C410.667 85.3332 469.333 170.667 469.333 256C469.333 294.084 457.649 332.169 434.752 362.667H426.667V320H411.701C421.442 301.361 426.667 279.595 426.667 256C426.667 183.326 377.103 128 298.667 128C201.979 128 85.333 202.653 85.333 256C85.333 298.916 160.824 355.622 240.685 376.155C236.582 388.753 234.667 402.319 234.667 416.634C234.667 417.267 234.671 417.899 234.68 418.528C138.544 395.26 42.667 325.63 42.667 256C42.667 170.667 186.667 85.333 298.667 85.333ZM320 192C355.347 192 384 220.653 384 256C384 291.347 355.347 320 320 320H277.333C241.986 320 213.333 291.347 213.333 256C213.333 220.653 241.986 192 277.333 192H320ZM277.333 234.667C265.551 234.667 256 244.218 256 256C256 267.782 265.551 277.333 277.333 277.333H320C331.782 277.333 341.333 267.782 341.333 256C341.333 244.218 331.782 234.667 320 234.667H277.333Z"/></svg>