<svg width="512" height="512" viewBox="0 0 512 512" fill="none" xmlns="http://www.w3.org/2000/svg"><path fill-rule="evenodd" clip-rule="evenodd" d="M64 64H277.333V234.667V448H64V64ZM106.667 405.333H234.667V277.333H106.667V405.333ZM106.667 234.667H234.667V106.667H106.667V234.667ZM320 192H448V64H320V192ZM362.667 106.667H405.333V149.333H362.667V106.667ZM448 320C448 284.654 419.346 256 384 256C348.654 256 320 284.654 320 320V362.667H298.667V469.333H469.333V362.667H448V320ZM362.81 317.512C364.042 306.902 373.06 298.667 384 298.667L386.488 298.81C397.098 300.043 405.333 309.06 405.333 320V362.667H362.667V320L362.81 317.512Z"/></svg>