<svg width="512" height="512" viewBox="0 0 512 512" fill="none" xmlns="http://www.w3.org/2000/svg"><path fill-rule="evenodd" clip-rule="evenodd" d="M234.667 85.3335H64V256H234.667V85.3335ZM426.667 85.3335H298.667V213.333H426.667V85.3335ZM64 277.333H234.667V448H64V277.333ZM448 320C448 284.654 419.346 256 384 256C348.654 256 320 284.654 320 320V362.667H298.667V469.334H469.333V362.667H448V320ZM362.81 317.512C364.042 306.902 373.06 298.667 384 298.667L386.488 298.81C397.098 300.043 405.333 309.06 405.333 320V362.667H362.667V320L362.81 317.512Z"/></svg>