<svg xmlns="http://www.w3.org/2000/svg" width="512" height="512" viewBox="0 0 512 512"><path fill-rule="evenodd" d="M85.3333333,149.333333 C108.897483,149.333333 128,168.435851 128,192 C128,215.564149 108.897483,234.666667 85.3333333,234.666667 C61.769184,234.666667 42.6666667,215.564149 42.6666667,192 C42.6666667,168.435851 61.769184,149.333333 85.3333333,149.333333 Z M330.666667,149.333333 C354.230816,149.333333 373.333333,168.435851 373.333333,192 C373.333333,215.564149 354.230816,234.666667 330.666667,234.666667 C307.102517,234.666667 288,215.564149 288,192 C288,168.435851 307.102517,149.333333 330.666667,149.333333 Z M266.666667,192 C266.666667,199.48043 267.950028,206.661116 270.308585,213.33389 L145.691415,213.33389 C148.049972,206.661116 149.333333,199.48043 149.333333,192 C149.333333,184.51957 148.049972,177.338884 145.691415,170.66611 L270.308585,170.66611 C267.950028,177.338884 266.666667,184.51957 266.666667,192 Z M241.777778,5.68434189e-14 L247.466667,4.26666667 L329.322667,65.664 L394.348187,81.9304833 C412.224697,86.3996109 425.07944,101.77974 426.529906,119.896303 L426.666667,123.32323 L426.666667,197.989897 L410.507427,202.029707 L393.040934,206.396653 C394.104647,201.769253 394.666667,196.95026 394.666667,192 C394.666667,178.915408 390.740071,166.747921 384.000943,156.611604 L384,123.32323 L314.825907,106.029707 L310.64646,104.984845 L309.811,104.358 L298.666667,115.503223 C290.665115,123.504775 279.812681,128 268.496777,128 L42.666,127.999 L42.6652717,144.297643 C29.5727617,156.016443 21.3333333,173.04601 21.3333333,192 C21.3333333,195.24372 21.5746473,198.431078 22.0403022,201.545101 L3.55271368e-14,179.503223 L3.55271368e-14,77.6096014 L4.9446127,71.6760661 L58.277946,7.67606614 L64.6746678,5.68434189e-14 L241.777778,5.68434189e-14 Z M227.562667,42.6666667 L84.6506667,42.6666667 L49.101,85.333 L268.496777,85.3333333 L275.332,78.497 L227.562667,42.6666667 Z" transform="translate(42.667 149.333)"/></svg>