<svg width="512" height="512" viewBox="0 0 512 512" fill="none" xmlns="http://www.w3.org/2000/svg"><path fill-rule="evenodd" clip-rule="evenodd" d="M64 42.667V85.3388C86.4931 85.3388 104.921 102.746 106.55 124.826L106.667 128.011L106.55 426.714L256 426.667V384.042H149.333L149.333 128.011C149.333 115.513 146.647 103.643 141.821 92.9459L139.623 88.435L137.92 85.3388H341.333C363.826 85.3388 382.254 102.746 383.883 124.826L384 128.011V237.356C400.774 241.672 415.55 250.96 426.667 263.554V128.011C426.667 82.305 390.742 44.9909 345.592 42.7714L341.333 42.667H64ZM341.333 213.354V237.354C328.105 240.758 316.118 247.254 306.189 256.026H192V213.354H341.333ZM192 298.698L280.019 298.672C278.266 305.489 277.333 312.635 277.333 319.999C277.333 327.368 278.267 334.519 280.023 341.34L192 341.37V298.698ZM192 128V170.672H298.667V128H192ZM362.663 256C398.017 256 426.667 284.653 426.667 319.999C426.667 355.349 398.016 384 362.663 384C327.316 384 298.667 355.349 298.667 319.999C298.667 284.653 327.315 256 362.663 256ZM284.682 449.129L310.745 387.729C321.964 396.342 335.385 402.23 350.019 404.404L323.957 465.8L284.682 449.129ZM414.589 387.726C403.37 396.339 389.95 402.228 375.316 404.402L401.377 465.798L440.652 449.127L414.589 387.726ZM384 320C384 308.218 374.45 298.667 362.665 298.667C350.883 298.667 341.333 308.218 341.333 320C341.333 331.783 350.883 341.334 362.665 341.334C374.45 341.334 384 331.783 384 320Z"/></svg>