<svg width="512" height="512" viewBox="0 0 512 512" fill="none" xmlns="http://www.w3.org/2000/svg"><path fill-rule="evenodd" clip-rule="evenodd" d="M403.942 257.822C393.108 271.619 378.947 282.678 362.667 289.791V298.667H424.512C452.171 271.562 469.333 233.785 469.333 192C469.333 109.525 402.475 42.6666 320 42.6666C237.525 42.6666 170.667 109.525 170.667 192H213.333C213.333 140.396 249.979 97.3501 298.667 87.467V205.185L403.942 257.822ZM423.043 219.67L341.333 178.815V87.467C390.021 97.3501 426.667 140.396 426.667 192C426.667 201.57 425.406 210.846 423.043 219.67ZM64 85.3333H128V448H64V85.3333ZM170.667 213.333H234.667V448H170.667V213.333ZM277.333 277.333H341.333V448H277.333V277.333ZM448 320H384V448H448V320Z"/></svg>