<svg width="512" height="512" viewBox="0 0 512 512" fill="none" xmlns="http://www.w3.org/2000/svg"><path fill-rule="evenodd" clip-rule="evenodd" d="M405.333 106.667H106.667V405.333H405.333V106.667ZM106.667 64H64V106.667V405.333V448H106.667H405.333H448V405.333V106.667V64H405.333H106.667ZM213.688 129.667C226.035 129.667 235.174 134.042 241.104 142.792C247.035 151.493 250 164.91 250 183.042C250 199.472 247.642 211.868 242.927 220.229C236.851 230.972 227.104 236.344 213.688 236.344C201.292 236.344 192.128 231.969 186.198 223.219C180.316 214.42 177.375 200.833 177.375 182.458C177.375 166.319 179.733 154.069 184.448 145.708C190.524 135.014 200.271 129.667 213.688 129.667ZM213.688 144.25C207.562 144.25 203.017 147.41 200.052 153.729C197.087 160 195.604 169.625 195.604 182.604C195.604 195.972 196.99 205.67 199.76 211.698C202.872 218.406 207.514 221.76 213.688 221.76C219.812 221.76 224.358 218.601 227.323 212.281C230.288 205.913 231.771 196.167 231.771 183.042C231.771 169.917 230.385 160.34 227.615 154.312C224.552 147.604 219.91 144.25 213.688 144.25ZM270.854 235.177L272.24 220.01C277.149 221.274 281.16 221.906 284.271 221.906C294.382 221.906 302.135 217.969 307.531 210.094C311.42 204.503 313.778 197.674 314.604 189.604C308.819 195.535 301.698 198.5 293.24 198.5C283.566 198.5 276.007 195.17 270.562 188.51C265.944 182.92 263.635 175.312 263.635 165.688C263.635 154.993 266.576 146.438 272.458 140.021C278.778 133.118 287.455 129.667 298.49 129.667C310.934 129.667 320.146 133.75 326.125 141.917C331.472 149.257 334.146 159.611 334.146 172.979C334.146 187.368 331.667 199.837 326.708 210.385C318.59 227.691 304.542 236.344 284.562 236.344C281.208 236.344 276.639 235.955 270.854 235.177ZM298.562 143.812C293.458 143.812 289.375 145.684 286.312 149.427C283.299 153.17 281.792 158.201 281.792 164.521C281.792 170.306 283.128 174.924 285.802 178.375C288.767 182.312 292.875 184.281 298.125 184.281C303.326 184.281 307.556 182.434 310.812 178.74C314.069 175.045 315.698 170.257 315.698 164.375C315.698 157.861 314.142 152.83 311.031 149.281C307.823 145.635 303.667 143.812 298.562 143.812ZM324.363 312.373L305.796 330.939L275.695 300.838V379.078H249.439V300.838L219.337 330.939L200.771 312.373L262.567 250.577L324.363 312.373Z"/></svg>