<svg xmlns="http://www.w3.org/2000/svg" width="512" height="512" viewBox="0 0 512 512"><path fill-rule="evenodd" d="M362.666667,0 L362.666,234.666 L320,234.666 L320,42.6666667 L42.6666667,42.6666667 L42.6666667,320 L234.666,320 L234.666,362.666 L0,362.666667 L0,0 L362.666667,0 Z M362.666667,256 L362.666,320 L426.666667,320 L426.666667,362.666667 L362.666,362.666 L362.666667,426.666667 L320,426.666667 L320,362.666 L256,362.666667 L256,320 L320,320 L320,256 L362.666667,256 Z M192,85.3333333 L192,149.333333 L149.333,149.333 L149.333,170.666 L234.666667,170.666667 L234.666,213.333 L277.333333,213.333333 L277.333333,277.333333 L170.666667,277.333333 L170.666667,213.333333 L213.333,213.333 L213.333333,192 L128,192 L128,149.333 L85.3333333,149.333333 L85.3333333,85.3333333 L192,85.3333333 Z" transform="translate(64 64)"/></svg>