<svg width="512" height="512" viewBox="0 0 512 512" fill="none" xmlns="http://www.w3.org/2000/svg"><path fill-rule="evenodd" clip-rule="evenodd" d="M384 85.3334L234.667 267.333V389.333H192V267.333L42.6665 85.3334H384ZM448 373.333C448 414.571 414.57 448 373.333 448C332.096 448 298.667 414.571 298.667 373.333C298.667 332.096 332.096 298.667 373.333 298.667C414.57 298.667 448 332.096 448 373.333ZM469.333 373.333C469.333 426.353 426.353 469.333 373.333 469.333C320.314 469.333 277.333 426.353 277.333 373.333C277.333 320.314 320.314 277.333 373.333 277.333C426.353 277.333 469.333 320.314 469.333 373.333ZM407.276 324.41L422.361 339.495L388.417 373.439L422.37 407.393L407.285 422.478L373.332 388.524L339.39 422.466L324.305 407.381L358.247 373.439L324.29 339.482L339.375 324.397L373.332 358.354L407.276 324.41Z"/></svg>