<svg width="512" height="512" viewBox="0 0 512 512" fill="none" xmlns="http://www.w3.org/2000/svg"><path fill-rule="evenodd" clip-rule="evenodd" d="M222.866 64C158.676 64 106.216 114.347 102.804 177.707C67.6171 192 42.6665 226.347 42.6665 266.667C42.6665 319.787 85.5304 362.667 138.631 362.667H150.37L256 256L360.257 361.28C386.654 357.547 415.184 346.276 433.986 327.467C481.115 280.32 481.115 204.16 433.986 157.013C410.529 133.547 379.82 121.813 348.898 121.813C341.434 121.813 334.184 122.453 326.933 123.733C306.034 87.8933 267.436 64 223.079 64H222.866ZM277.625 469.333V371.489L320.295 414.147L350.465 383.978L256.295 289.81L162.125 383.978L192.295 414.147L234.958 371.496V469.333H277.625Z"/></svg>