<svg width="512" height="512" viewBox="0 0 512 512" fill="none" xmlns="http://www.w3.org/2000/svg"><path fill-rule="evenodd" clip-rule="evenodd" d="M452.42 422.25L89.7533 59.5834L59.5834 89.7533L125.737 155.906C112.333 174.15 103.941 196.305 102.593 220.341C67.4501 234.601 42.6667 269.073 42.6667 309.333C42.6667 362.353 85.6474 405.333 138.667 405.333L228.32 405.336H348.828C357.031 405.336 365.042 404.516 372.785 402.955L422.25 452.42L452.42 422.25ZM332.499 362.669L270.987 362.667H138.667C109.212 362.667 85.3334 338.789 85.3334 309.333C85.3334 287.034 99.0324 267.831 118.635 259.877L143.679 249.716L145.193 222.731C145.932 209.555 149.955 197.252 156.456 186.626L332.499 362.669ZM199.322 108.979L242.02 151.687C262.458 156.831 279.712 170.059 290.172 187.889L305.284 213.65L334.662 208.268C339.225 207.432 343.956 206.99 348.828 206.99C391.817 206.99 426.668 241.84 426.668 284.829C426.668 299.585 422.562 313.381 415.431 325.138L446.168 355.883C460.735 335.961 469.334 311.399 469.334 284.829C469.334 218.276 415.382 164.323 348.828 164.323C341.365 164.323 334.061 165.001 326.973 166.3C306.044 130.622 267.287 106.667 222.934 106.667C214.853 106.667 206.958 107.462 199.322 108.979Z"/></svg>