<svg width="512" height="512" viewBox="0 0 512 512" fill="none" xmlns="http://www.w3.org/2000/svg"><path fill-rule="evenodd" clip-rule="evenodd" d="M149.57 185.444L117.192 193.844C98.8375 198.606 85.3333 215.334 85.3333 235.108C85.3333 258.649 104.417 277.733 127.958 277.733H270.987L348.828 277.734C391.817 277.734 426.667 242.884 426.667 199.894C426.667 156.904 391.817 122.054 348.828 122.054C337.981 122.054 327.756 124.248 318.488 128.176L286.914 141.559L267.054 113.603C255.216 96.9381 235.892 86.2072 214.063 86.2072C178.204 86.2072 149.135 115.276 149.135 151.135L149.141 151.997L149.57 185.444ZM234.667 396.482L192.001 353.827L161.831 383.997L255.988 478.154L350.167 384.001L320.001 353.827L277.333 396.483V320.4H348.828C415.381 320.4 469.334 266.448 469.334 199.894C469.334 133.34 415.381 79.3874 348.828 79.3874C332.157 79.3874 316.277 82.7725 301.837 88.8929C282.34 61.4472 250.293 43.5405 214.063 43.5405C154.64 43.5405 106.469 91.7121 106.469 151.135C106.469 151.605 106.472 152.075 106.478 152.544C69.7709 162.067 42.6666 195.423 42.6666 235.108C42.6666 282.214 80.853 320.4 127.958 320.4H228.32L234.667 320.4V396.482Z"/></svg>