<svg width="512" height="512" viewBox="0 0 512 512" fill="none" xmlns="http://www.w3.org/2000/svg"><path fill-rule="evenodd" clip-rule="evenodd" d="M222.866 64C158.676 64 106.216 114.347 102.804 177.707C67.6171 192 42.6665 226.347 42.6665 266.667C42.6665 319.787 85.5304 362.667 138.631 362.667H256.478C261.867 302.864 312.127 256 373.333 256C406.801 256 436.995 270.012 458.371 292.489C478.802 247.998 470.674 193.715 433.986 157.013C410.529 133.547 379.82 121.813 348.898 121.813C341.434 121.813 334.184 122.453 326.933 123.733C306.034 87.8933 267.436 64 223.079 64H222.866ZM441.215 305.451C403.725 267.961 342.941 267.961 305.451 305.451C267.961 342.941 267.961 403.725 305.451 441.216C342.941 478.706 403.725 478.706 441.215 441.216C478.706 403.725 478.706 342.941 441.215 305.451ZM357.333 357.333V298.667H389.333V357.333H448V389.333H389.333V448H357.333V389.333H298.667V357.333H357.333Z"/></svg>