<svg width="512" height="512" viewBox="0 0 512 512" fill="none" xmlns="http://www.w3.org/2000/svg"><path fill-rule="evenodd" clip-rule="evenodd" d="M222.866 106.667C250.375 106.667 275.966 121.387 290.041 145.28L305.182 171.093L334.61 165.76C339.302 164.907 344.207 164.48 348.898 164.48C369.584 164.48 389.203 172.587 403.705 187.093C425.162 208.559 431.415 239.666 422.463 266.75C436.031 273.014 448.199 281.793 458.371 292.489C478.802 247.998 470.674 193.715 433.987 157.013C410.529 133.547 379.82 121.813 348.898 121.813C341.435 121.813 334.184 122.453 326.933 123.733C306.035 87.8933 267.436 64 223.079 64H222.866C158.676 64 106.216 114.347 102.804 177.707C67.6173 192 42.6666 226.347 42.6666 266.667C42.6666 319.787 85.5306 362.667 138.631 362.667H256.478C257.859 347.34 262.188 332.863 268.893 319.807L138.631 320.213C109.202 320.213 85.3173 296.32 85.3173 266.88C85.3173 245.12 98.539 225.707 118.798 217.6L143.962 207.36L145.455 180.267C147.801 139.093 181.708 106.667 222.866 106.667ZM277.333 373.333C277.333 320.314 320.314 277.333 373.333 277.333C426.352 277.333 469.333 320.314 469.333 373.333C469.333 426.353 426.352 469.333 373.333 469.333C320.314 469.333 277.333 426.353 277.333 373.333ZM315.906 334.762L354.478 373.334L315.906 411.906L334.762 430.762L373.334 392.191L411.906 430.762L430.762 411.906L392.19 373.334L430.762 334.762L411.906 315.906L373.334 354.478L334.762 315.906L315.906 334.762Z"/></svg>