<svg width="512" height="512" viewBox="0 0 512 512" fill="none" xmlns="http://www.w3.org/2000/svg"><path fill-rule="evenodd" clip-rule="evenodd" d="M143.679 228.382L118.635 238.544C99.0324 246.498 85.3334 265.7 85.3334 288C85.3334 317.455 109.212 341.333 138.667 341.333H185.179L176.646 384H218.009L218.008 384.002L138.667 384C85.6474 384 42.6667 341.019 42.6667 288C42.6667 247.74 67.4501 213.268 102.593 199.008C106.148 135.631 158.668 85.3334 222.934 85.3334C267.287 85.3334 306.044 109.289 326.973 144.966C334.061 143.668 341.365 142.99 348.828 142.99C415.382 142.99 469.334 196.942 469.334 263.496C469.334 330.05 415.382 384.003 348.828 384.003H327.53L363.335 339.986C399.392 333.189 426.668 301.528 426.668 263.496C426.668 220.506 391.817 185.656 348.828 185.656C343.956 185.656 339.225 186.099 334.662 186.935L305.284 192.316L290.172 166.555C276.586 143.395 251.534 128 222.934 128C181.431 128 147.487 160.493 145.193 201.398L143.679 228.382ZM277.333 341.333L298.667 256H224L202.667 362.667H245.333L213.319 490.667L330.667 341.333H277.333Z"/></svg>