<svg width="512" height="512" viewBox="0 0 512 512" fill="none" xmlns="http://www.w3.org/2000/svg"><path fill-rule="evenodd" clip-rule="evenodd" d="M143.679 228.382L118.635 238.544C99.0321 246.498 85.3332 265.7 85.3332 288C85.3332 317.455 109.211 341.333 138.667 341.333H149.333V384L138.667 384C85.6472 384 42.6665 341.019 42.6665 288C42.6665 247.74 67.4498 213.268 102.593 199.008C106.148 135.631 158.667 85.3334 222.934 85.3334C267.286 85.3334 306.044 109.289 326.973 144.966C334.061 143.668 341.365 142.99 348.827 142.99C415.381 142.99 469.334 196.942 469.334 263.496C469.334 325.37 422.703 376.352 362.667 383.217V340.109C399.054 333.58 426.667 301.763 426.667 263.496C426.667 220.506 391.817 185.656 348.827 185.656C343.956 185.656 339.225 186.099 334.662 186.935L307.011 192H305.098L290.171 166.555C276.585 143.395 251.534 128 222.934 128C181.431 128 147.487 160.493 145.192 201.398L143.679 228.382ZM149.333 384H170.667V298.667H213.333V426.667H170.667V384.001L149.333 384ZM341.333 384H349.627C349.36 384.002 349.094 384.003 348.827 384.003H341.333V426.667H298.666V298.667H341.333V384ZM234.667 341.333H277.333V469.333H234.667V341.333Z"/></svg>