<svg xmlns="http://www.w3.org/2000/svg" width="512" height="512" viewBox="0 0 512 512"><path d="M277.333333,129.735908 L277.333,172.402 L298.666667,172.402575 C334.012891,172.402575 362.666667,201.056351 362.666667,236.402575 L362.666667,257.735908 C362.666667,293.082132 334.012891,321.735908 298.666667,321.735908 L277.333,321.735 L277.333333,343.069242 C277.333333,390.19754 239.128299,428.402575 192,428.402575 L85.3333333,428.402575 C38.2050347,428.402575 -5.68434189e-14,390.19754 -5.68434189e-14,343.069242 L-5.68434189e-14,129.735908 L277.333333,129.735908 Z M234.666667,172.402575 L42.6666667,172.402575 L42.6666667,343.069242 C42.6666667,365.562293 60.0720595,383.990098 82.14907,385.618879 L85.3333333,385.735908 L192,385.735908 C215.564149,385.735908 234.666667,366.633391 234.666667,343.069242 L234.666667,172.402575 Z M298.666667,215.069242 L277.333333,215.069242 L277.333333,279.069242 L298.666667,279.069242 C310.448741,279.069242 320,269.517983 320,257.735908 L320,236.402575 C320,224.6205 310.448741,215.069242 298.666667,215.069242 Z M60.9570541,3.26352279e-11 C83.0397716,12.7494629 90.6058693,40.9865242 77.8564065,63.0692417 C73.9434996,69.8465953 76.2655924,78.5127636 83.0429459,82.4256705 L67.0429459,110.138483 C44.9602284,97.3890205 37.3941307,69.1519592 50.1435935,47.0692417 C54.0565004,40.2918882 51.7344076,31.6257198 44.9570541,27.7128129 L60.9570541,3.26352279e-11 Z M124.957054,3.41131567e-11 C147.039772,12.7494629 154.605869,40.9865242 141.856406,63.0692417 C137.9435,69.8465953 140.265592,78.5127636 147.042946,82.4256705 L131.042946,110.138483 C108.960228,97.3890205 101.394131,69.1519592 114.143594,47.0692417 C118.0565,40.2918882 115.734408,31.6257198 108.957054,27.7128129 L124.957054,3.41131567e-11 Z M188.957054,7.10542736e-15 C211.039772,12.7494629 218.605869,40.9865242 205.856406,63.0692417 C201.9435,69.8465953 204.265592,78.5127636 211.042946,82.4256705 L195.042946,110.138483 C172.960228,97.3890205 165.394131,69.1519592 178.143594,47.0692417 C182.0565,40.2918882 179.734408,31.6257198 172.957054,27.7128129 L188.957054,7.10542736e-15 Z" transform="translate(106.667 40.93)"/></svg>