<svg width="512" height="512" viewBox="0 0 512 512" fill="none" xmlns="http://www.w3.org/2000/svg"><path fill-rule="evenodd" clip-rule="evenodd" d="M85.3334 245.333C85.3334 180.867 129.325 126.675 188.927 111.141C218.22 94.6955 252.015 85.3177 288 85.3177C296.103 85.3177 304.094 85.7932 311.948 86.7177C285.9 72.2437 255.913 64 224 64C123.852 64 42.6667 145.186 42.6667 245.333C42.6667 302.91 69.5007 354.218 111.345 387.436C94.7731 358.059 85.3177 324.133 85.3177 288C85.3177 280.076 85.7724 272.259 86.6572 264.572C85.7845 258.284 85.3334 251.861 85.3334 245.333ZM288 469.333C388.148 469.333 469.333 388.148 469.333 288C469.333 187.852 388.148 106.667 288 106.667C187.852 106.667 106.667 187.852 106.667 288C106.667 388.148 187.852 469.333 288 469.333ZM277.333 170.667H320V202.667H341.333V245.333H277.333C253.769 245.333 234.667 264.436 234.667 288C234.667 311.564 253.769 330.667 277.333 330.667H341.333V373.333H320V405.333H277.333V373.333C230.205 373.333 192 335.128 192 288C192 240.872 230.205 202.667 277.333 202.667V170.667Z"/></svg>