<svg width="512" height="512" viewBox="0 0 512 512" fill="none" xmlns="http://www.w3.org/2000/svg"><path fill-rule="evenodd" clip-rule="evenodd" d="M256 43.8385C373.821 43.8385 469.333 139.351 469.333 257.172C469.333 374.993 373.821 470.505 256 470.505C138.179 470.505 42.6667 374.993 42.6667 257.172C42.6667 139.351 138.179 43.8385 256 43.8385ZM277.333 106.667H234.663L234.663 152.64C185.977 162.524 149.333 205.569 149.333 257.172C149.333 308.775 185.977 351.819 234.663 361.704V405.333H277.333V363.839H320V321.172H256L252.24 321.063C218.644 319.117 192 291.256 192 257.172C192 221.826 220.654 193.172 256 193.172H320V150.505H277.333V106.667Z"/></svg>