<svg xmlns="http://www.w3.org/2000/svg" width="512" height="512" viewBox="0 0 512 512"><path d="M213.333333,7.10542736e-15 C238.946702,7.10542736e-15 263.505796,4.51388476 286.258523,12.7895603 L286.879056,13.016359 C286.998414,13.0601942 287.117721,13.1041329 287.236978,13.1481752 L286.258523,12.7895603 C287.551103,13.2597007 288.837853,13.7419817 290.118636,14.2362656 C290.159579,14.2520665 290.200203,14.2677585 290.24082,14.2834626 C291.241577,14.6703871 292.239001,15.0647689 293.232708,15.4664191 C293.297116,15.4924523 293.361524,15.5185227 293.425917,15.5446236 C294.351149,15.9196558 295.2731,16.30097 296.19177,16.6885339 C296.323424,16.7440758 296.454808,16.7996598 296.586125,16.8553716 C297.482053,17.2354747 298.374844,17.6215259 299.264451,18.0134766 C299.355014,18.0533777 299.445632,18.0933786 299.536217,18.1334407 C300.461989,18.5428755 301.384171,18.9586421 302.302838,19.3807437 C302.374307,19.4135817 302.44554,19.4463593 302.516752,19.479175 C303.481892,19.9239258 304.443296,20.3757455 305.400746,20.8344979 C305.448164,20.8572181 305.495228,20.8797894 305.542281,20.9023774 C306.475748,21.3504851 307.405765,21.8053423 308.331955,22.2667357 C308.402771,22.3020134 308.473471,22.337283 308.544149,22.3725906 C309.421643,22.8109475 310.295786,23.2552234 311.166433,23.7053194 C311.279461,23.763751 311.392693,23.8224171 311.505866,23.8811818 C313.373072,24.8507279 315.223788,25.8468763 317.057854,26.8692996 C317.168832,26.9311655 317.279591,26.9930397 317.39029,27.0550098 C318.221914,27.520559 319.050269,27.9916129 319.875138,28.4680291 C319.995985,28.5378264 320.116995,28.6078761 320.237929,28.6780411 C321.073834,29.1630276 321.905951,29.6534128 322.734425,30.1492589 C322.824487,30.2031618 322.914414,30.2570737 323.004298,30.3110499 C323.89666,30.8469228 324.784944,31.3892383 325.668921,31.9378353 C325.700138,31.9572086 325.731833,31.9768899 325.763522,31.9965792 C326.639899,32.541096 327.51158,33.0914948 328.378967,33.6480025 C328.467212,33.7046202 328.554945,33.7609997 328.642633,33.8174417 C329.447288,34.3353665 330.248676,34.8588467 331.046304,35.3875464 C331.178158,35.4749444 331.309811,35.5624195 331.44136,35.6500368 C332.268204,36.2007474 333.091002,36.7570872 333.909683,37.3189905 C333.938825,37.3389921 333.968108,37.3591012 333.997386,37.3792174 C335.739906,38.5764783 337.463605,39.7988447 339.168106,41.045894 C339.291658,41.136287 339.415082,41.2267902 339.538405,41.3174227 C340.294069,41.8727751 341.045981,42.4330179 341.794054,42.9980748 C341.890756,43.0711195 341.987031,43.1439686 342.083241,43.2168974 C342.864791,43.8093201 343.642495,44.4072871 344.415933,45.0104682 C344.488163,45.0667988 344.560035,45.1229234 344.63187,45.1790931 C345.4486,45.8177142 346.26098,46.4624955 347.068521,47.1130411 C347.130682,47.1631171 347.192481,47.2129583 347.254251,47.2628333 C348.011551,47.8742947 348.76484,48.4910427 349.513806,49.1128169 C349.623361,49.2037676 349.732413,49.2944837 349.841374,49.3853063 C350.587164,50.0069485 351.329028,50.6339097 352.066528,51.2658176 C352.127015,51.3176445 352.187973,51.3699334 352.2489,51.4222561 C353.012949,52.0784008 353.77181,52.7394279 354.525923,53.4057059 C354.58364,53.4567003 354.641196,53.5076077 354.698725,53.5585457 C355.463954,54.2361097 356.224466,54.9192562 356.980013,55.6077581 C357.063156,55.6835241 357.145954,55.7590937 357.228692,55.8347276 C357.957681,56.5011215 358.682402,57.1728607 359.402421,57.8495447 C359.454879,57.8988457 359.507221,57.9480865 359.559537,57.9973535 C360.30913,58.7032498 361.05368,59.4145761 361.793058,60.1312073 C361.823198,60.1604197 361.853146,60.189464 361.883086,60.2185171 C363.406971,61.6972427 364.909041,63.1987123 366.388563,64.7221985 C366.470538,64.8066093 366.552492,64.8911374 366.634376,64.9757331 C367.296032,65.659297 367.953131,66.3472441 368.60565,67.0395547 C368.694,67.1332921 368.782138,67.2269736 368.870192,67.3207347 C370.307949,68.8516726 371.723453,70.403949 373.116088,71.9769401 C373.151218,72.0166199 373.186278,72.0562501 373.221324,72.0958934 C373.906463,72.8709182 374.586108,73.6510236 375.260142,74.4360866 C375.307096,74.4907755 375.3542,74.545695 375.401277,74.6006388 C376.056318,75.3651441 376.705886,76.134148 377.350083,76.9077812 C377.398378,76.9657811 377.446649,77.0238123 377.494889,77.0818694 C378.152649,77.8734902 378.804781,78.6699306 379.451235,79.4711435 C379.479203,79.5058078 379.507476,79.5408712 379.535738,79.5759439 C381.564115,82.093154 383.536185,84.6569995 385.450365,87.2659709 C385.484875,87.3130081 385.519347,87.3600324 385.5538,87.4070714 C386.159664,88.2342627 386.759703,89.0659688 387.353866,89.9021419 C387.389906,89.9528602 387.425944,90.0036247 387.461961,90.0544056 C388.073058,90.9160017 388.67789,91.7822839 389.276421,92.6532325 C389.307493,92.6984454 389.338565,92.7436974 389.36962,92.7889619 C389.944606,93.6270295 390.51373,94.4693613 391.076967,95.315947 C391.130665,95.3966592 391.184448,95.4776183 391.238177,95.5586163 C391.779429,96.3745686 392.315108,97.19429 392.845275,98.0178964 C392.907529,98.1146088 392.969675,98.2113221 393.031744,98.3080888 C394.143039,100.040611 395.230075,101.790442 396.292251,103.556919 C405.338961,118.602241 412.582395,134.855159 417.723462,152.016552 C418.063733,153.152411 418.39482,154.29234 418.71661,155.436163 C418.731074,155.487578 418.74551,155.538965 418.759927,155.59036 C419.044869,156.606153 419.322521,157.625166 419.592778,158.647185 C419.616981,158.738715 419.641161,158.830403 419.665281,158.922116 C420.218152,161.024306 420.739714,163.139031 421.229477,165.265909 C421.238635,165.30568 421.247771,165.345409 421.256897,165.385142 C421.498378,166.436586 421.732126,167.491168 421.958037,168.548654 C421.974223,168.624419 421.990562,168.701108 422.00686,168.777812 C422.219457,169.778401 422.424903,170.780892 422.623291,171.785919 C422.646575,171.903874 422.669846,172.022293 422.693018,172.140747 C422.89736,173.185307 423.094031,174.232329 423.283022,175.282019 C423.292708,175.335814 423.302289,175.389147 423.31185,175.442488 C423.696827,177.590124 424.04974,179.74944 424.369982,181.919395 C424.388769,182.046694 424.407541,182.174699 424.4262,182.30274 C424.578643,183.348889 424.7234,184.396781 424.860518,185.447075 C424.868463,185.507935 424.876397,185.568909 424.884305,185.629891 C425.02267,186.696931 425.153133,187.766283 425.275654,188.838048 C425.281989,188.893467 425.288335,188.94917 425.294659,189.004879 C425.678674,192.387672 425.983561,195.794267 426.207446,199.222961 C426.21072,199.273106 426.213947,199.322786 426.217156,199.37247 C426.436657,202.770276 426.576619,206.190215 426.63517,209.629982 C426.637339,209.757433 426.639394,209.884748 426.641338,210.012091 C426.651307,210.665287 426.658341,211.319243 426.662426,211.973899 L426.666667,213.333333 C426.666667,331.15408 331.15408,426.666667 213.333333,426.666667 C187.71959,426.666667 163.160152,422.15265 140.407146,413.876743 L139.748732,413.636025 C139.653056,413.600866 139.557411,413.56564 139.461799,413.530347 L140.407146,413.876743 C139.102805,413.402318 137.804401,412.91553 136.512075,412.416521 C136.490201,412.408075 136.468562,412.399715 136.446923,412.391352 C135.454854,412.007907 134.466146,411.61717 133.481089,411.219291 C133.377665,411.177516 133.274568,411.135779 133.171511,411.093964 C132.229938,410.711924 131.291319,410.323188 130.356105,409.927975 C130.3081,409.907688 130.260078,409.887374 130.212066,409.867043 C129.272338,409.469104 128.336041,409.064617 127.403246,408.653644 C127.304901,408.610315 127.206593,408.566913 127.108324,408.523439 C126.158901,408.103416 125.213078,407.676651 124.270954,407.243223 C124.243695,407.230682 124.216391,407.218113 124.18909,407.205539 C123.234606,406.765933 122.28396,406.319502 121.337177,405.866294 C121.225065,405.812628 121.112927,405.758829 121.000844,405.704934 C120.124556,405.283578 119.251494,404.856362 118.381805,404.423384 C118.27737,404.37139 118.173317,404.31948 118.069311,404.267487 C117.167222,403.816529 116.268427,403.359186 115.373333,402.89569 C115.330064,402.873284 115.287107,402.851022 115.244158,402.828745 C113.312073,401.826601 111.396998,400.79563 109.499762,399.736534 C109.478441,399.724632 109.456746,399.712516 109.435052,399.700396 C108.529244,399.19433 107.627851,398.68205 106.730585,398.163425 C106.647999,398.11569 106.564997,398.06764 106.48203,398.019535 C105.655454,397.540279 104.83282,397.055889 104.013744,396.566163 C103.872718,396.481843 103.731804,396.397369 103.590997,396.312738 C101.806021,395.239889 100.038173,394.14175 98.287811,393.018735 C98.2014139,392.963304 98.1146845,392.907571 98.0279981,392.851777 C97.1936821,392.31478 96.3637549,391.772394 95.537864,391.22441 C95.4643609,391.17564 95.391039,391.126925 95.3177489,391.078166 C94.4620109,390.508854 93.6103512,389.933343 92.7631009,389.351875 C92.728806,389.328338 92.6945211,389.304794 92.6602435,389.281239 C90.9035655,388.074121 89.1658399,386.841356 87.447636,385.583504 C87.3654035,385.523304 87.2829985,385.462887 87.2006384,385.402412 C86.3959133,384.811522 85.5956695,384.215262 84.7997766,383.613551 C84.7463138,383.573132 84.6930159,383.532798 84.6397376,383.49244 C83.807827,382.862274 82.9805387,382.226036 82.1580802,381.5839 C82.1326485,381.564044 82.1073617,381.544292 82.0820795,381.524534 C81.2516881,380.875604 80.4260468,380.220514 79.6054021,379.559471 C79.5422995,379.508641 79.4798573,379.458284 79.4174441,379.407893 C78.6398577,378.780094 77.8661356,378.146418 77.0969758,377.507439 C77.0280403,377.450171 76.9593384,377.393024 76.890673,377.335835 C76.1254633,376.698519 75.3646034,376.055794 74.6083314,375.407868 C74.5425998,375.351554 74.4766437,375.294977 74.4107225,375.238361 C72.7971151,373.85252 71.204703,372.443194 69.6337764,371.010707 C69.5946312,370.975012 69.5555684,370.939365 69.5165189,370.903704 C68.7811904,370.232181 68.0504732,369.555481 67.3245298,368.873756 C67.2282762,368.783366 67.1319284,368.692719 67.035665,368.601984 C66.3401252,367.946386 65.6492017,367.286372 64.9627291,366.621788 C64.8852224,366.546753 64.8076847,366.471574 64.730204,366.396337 C63.2065706,364.916824 61.7050232,363.414831 60.2260299,361.890828 C60.1905023,361.85422 60.1546812,361.817282 60.1188733,361.780331 C59.4049129,361.043584 58.6965055,360.302007 57.993421,359.555361 C57.9471174,359.506189 57.9006968,359.456846 57.8542994,359.40748 C57.1665443,358.675726 56.4840487,357.939283 55.8067151,357.198042 C55.7464552,357.132097 55.6858197,357.065657 55.6252258,356.999179 C54.9634931,356.273181 54.307051,355.542986 53.6556022,354.808263 C53.5562265,354.696184 53.456824,354.583838 53.3575383,354.471387 C52.7000126,353.72667 52.0477643,352.97751 51.4006877,352.223781 C51.358667,352.174834 51.3167016,352.125907 51.2747581,352.076961 C50.6350745,351.330484 50.0004148,350.579482 49.3708773,349.824061 C49.2819614,349.717366 49.1929688,349.610367 49.1040789,349.50328 C47.7723031,347.898855 46.4639282,346.275031 45.1791128,344.631895 L45.1216913,344.558426 C45.0758814,344.499788 45.0301014,344.441125 44.9843515,344.382437 C44.385784,343.614602 43.7923514,342.84256 43.2041085,342.066368 C43.1411142,341.983246 43.0783458,341.900297 43.0156366,341.8173 C42.434502,341.048163 41.8582901,340.274737 41.287221,339.497299 C41.205415,339.385931 41.1237924,339.274586 41.0422752,339.16316 C40.4612232,338.368916 39.8854163,337.570343 39.315024,336.767654 C39.2788772,336.716787 39.2421263,336.665021 39.2053979,336.613237 C37.9856336,334.893474 36.7913179,333.155773 35.6223358,331.399759 C35.5437204,331.281666 35.4649487,331.163081 35.3862925,331.044413 C34.8675018,330.261712 34.3540137,329.475819 33.845592,328.686356 C33.7690618,328.567522 33.6923419,328.448133 33.615738,328.328663 C32.5105918,326.60508 31.429937,324.865177 30.3738569,323.108819 C21.3275348,308.063941 14.0844307,291.81173 8.94350551,274.651117 L8.88891539,274.468594 C8.86186681,274.378009 8.83487678,274.287398 8.80794536,274.196761 L8.94350551,274.651117 C8.28297135,272.446228 7.65714103,270.226342 7.06664879,267.992094 C7.04475125,267.90924 7.02304952,267.826925 7.00139576,267.744591 C6.44705699,265.636848 5.92403568,263.515821 5.43300291,261.382571 C5.42121438,261.331357 5.40941778,261.280021 5.3976397,261.228677 C5.15484407,260.170262 4.91995402,259.108994 4.69299994,258.044787 C4.68183625,257.99244 4.67070603,257.940152 4.65959497,257.887858 C4.44231538,256.865225 4.23235106,255.839824 4.02977217,254.811772 C4.01201591,254.721662 3.99427109,254.631301 3.97658333,254.540919 C3.77136107,253.492255 3.57389266,252.441233 3.38416229,251.387524 C3.3729385,251.325191 3.36162665,251.262206 3.35034244,251.199211 C2.96350944,249.039666 2.60926375,246.869458 2.28802142,244.688511 C2.27368478,244.591179 2.2593703,244.493527 2.24512199,244.395853 C1.92856858,242.225836 1.64470191,240.045384 1.39401319,237.854849 C1.38414586,237.768628 1.37431806,237.682286 1.36454181,237.595929 C1.24272187,236.519852 1.12890195,235.441292 1.02314934,234.360366 C1.01680828,234.295553 1.01048232,234.230588 1.00418551,234.165614 C0.78958103,231.95121 0.608834718,229.726951 0.462465553,227.493308 C0.455484067,227.386768 0.448576416,227.280139 0.441747133,227.173489 C0.376075211,226.147924 0.317644361,225.120276 0.266512404,224.090707 C0.260964475,223.979003 0.25547073,223.866617 0.250063986,223.754208 C0.197312618,222.657418 0.152864019,221.559068 0.116749932,220.45861 C0.114730894,220.397085 0.112744371,220.335755 0.11078374,220.274419 C0.0744891021,219.139008 0.0470638667,218.001186 0.0285805716,216.86119 L7.10542736e-15,213.333333 C-1.0658141e-13,95.5125867 95.5125867,7.10542736e-15 213.333333,7.10542736e-15 Z M277.333333,213.333333 C277.333333,248.679557 248.679557,277.333333 213.333333,277.333333 C205.648899,277.333333 198.280783,275.979019 191.454649,273.496055 L154.991924,373.767894 C173.194458,380.388726 192.842166,384 213.333333,384 C307.589931,384 384,307.589931 384,213.333333 L277.333333,213.332332 Z M152.016164,231.727931 L49.8217005,262.388326 C53.9343404,276.116246 59.7285858,289.117497 66.96526,301.152903 L158.444719,246.264695 C155.731059,241.751392 153.558311,236.875907 152.016164,231.727931 Z M213.333333,192 C201.551259,192 192,201.551259 192,213.333333 C192,225.115408 201.551259,234.666667 213.333333,234.666667 C225.115408,234.666667 234.666667,225.115408 234.666667,213.333333 C234.666667,201.551259 225.115408,192 213.333333,192 Z M213.333333,42.6666667 C119.076736,42.6666667 42.6666667,119.076736 42.6666667,213.333333 L149.333,213.332 L149.341908,212.274976 C149.907078,177.416899 178.340572,149.333333 213.333333,149.333333 C221.017018,149.333333 228.384448,150.687384 235.210022,153.169886 L271.673485,52.8983149 C253.471304,46.2777745 233.824028,42.6666667 213.333333,42.6666667 Z M359.700199,125.511755 L268.220182,180.399034 C270.934473,184.91284 273.107713,189.788953 274.650175,194.937643 L376.84554,164.280256 C372.732636,150.550866 366.937773,137.548282 359.700199,125.511755 Z" transform="translate(42.667 42.667)"/></svg>