<svg width="512" height="512" viewBox="0 0 512 512" fill="none" xmlns="http://www.w3.org/2000/svg"><path fill-rule="evenodd" clip-rule="evenodd" d="M320 42.668C343.564 42.668 362.667 61.7705 362.667 85.3346C362.667 108.899 343.564 128.001 320 128.001C317.73 128.001 315.502 127.824 313.329 127.483L297.6 170.668H341.333V286.081L389.524 298.989C396.855 286.059 410.742 277.335 426.667 277.335C450.231 277.335 469.333 296.437 469.333 320.001C469.333 343.565 450.231 362.668 426.667 362.668C403.103 362.668 384 343.565 384 320.001L384.021 319.596L341.333 308.161V341.335H304.96L316.449 384.147C317.62 384.051 318.804 384.001 320 384.001C343.564 384.001 362.667 403.104 362.667 426.668C362.667 450.232 343.564 469.335 320 469.335C296.436 469.335 277.333 450.232 277.333 426.668C277.333 411.898 284.838 398.881 296.243 391.222L282.88 341.335H170.667V322.647L127.823 337.418C127.94 338.708 128 340.014 128 341.335C128 364.899 108.898 384.001 85.3334 384.001C61.7692 384.001 42.6667 364.899 42.6667 341.335C42.6667 317.77 61.7692 298.668 85.3334 298.668C99.9999 298.668 112.938 306.068 120.618 317.338L170.667 300.097V183.703L129.608 142.648C122.983 146.881 115.112 149.335 106.667 149.335C83.1025 149.335 64 130.232 64 106.668C64 83.1038 83.1025 64.0013 106.667 64.0013C130.231 64.0013 149.333 83.1038 149.333 106.668C149.333 114.046 147.461 120.986 144.165 127.04L187.797 170.668H274.901L293.737 118.963C283.752 111.153 277.333 98.9936 277.333 85.3346C277.333 61.7705 296.436 42.668 320 42.668ZM320 405.335C308.218 405.335 298.667 414.886 298.667 426.668C298.667 438.45 308.218 448.001 320 448.001C331.782 448.001 341.333 438.45 341.333 426.668C341.333 414.886 331.782 405.335 320 405.335ZM85.3334 320.001C73.5513 320.001 64 329.553 64 341.335C64 353.117 73.5513 362.668 85.3334 362.668C97.1154 362.668 106.667 353.117 106.667 341.335C106.667 329.553 97.1154 320.001 85.3334 320.001ZM426.667 298.668C414.885 298.668 405.333 308.219 405.333 320.001C405.333 331.783 414.885 341.335 426.667 341.335C438.449 341.335 448 331.783 448 320.001C448 308.219 438.449 298.668 426.667 298.668ZM298.667 213.335H213.333V298.668H298.667V213.335ZM106.667 85.3346C94.8846 85.3346 85.3334 94.8859 85.3334 106.668C85.3334 118.45 94.8846 128.001 106.667 128.001C118.449 128.001 128 118.45 128 106.668C128 94.8859 118.449 85.3346 106.667 85.3346ZM320 64.0013C308.218 64.0013 298.667 73.5526 298.667 85.3346C298.667 97.1167 308.218 106.668 320 106.668C331.782 106.668 341.333 97.1167 341.333 85.3346C341.333 73.5526 331.782 64.0013 320 64.0013Z"/></svg>