<svg width="24" height="24" viewBox="0 0 24 24" fill="none" xmlns="http://www.w3.org/2000/svg"><path fill-rule="evenodd" clip-rule="evenodd" d="M12 2C17.5228 2 22 6.47715 22 12C22 17.5228 17.5228 22 12 22C6.47715 22 2 17.5228 2 12C2 6.47715 6.47715 2 12 2ZM12 4C7.58172 4 4 7.58172 4 12C4 16.4183 7.58172 20 12 20C16.4183 20 20 16.4183 20 12C20 7.58172 16.4183 4 12 4ZM13.4736 14.6816L13.6689 14.5029L9.49707 10.3311C8.4881 11.34 8.36348 12.8987 9.12207 14.0439L6.75 16.416L7.58496 17.25L9.95605 14.8789C11.0298 15.5903 12.4668 15.5243 13.4736 14.6816ZM14.8789 9.95605L17.25 7.58496L16.416 6.75L14.0439 9.12207C12.8987 8.36347 11.34 8.48809 10.3311 9.49707L14.5029 13.668C15.5116 12.6589 15.6376 11.1012 14.8789 9.95605Z"/></svg>