<svg width="512" height="512" viewBox="0 0 512 512" fill="none" xmlns="http://www.w3.org/2000/svg"><path fill-rule="evenodd" clip-rule="evenodd" d="M405.333 74.668V42.668H341.333L336.942 42.779C299.128 44.6958 267.807 71.2289 258.687 106.673L231.006 106.668L226.78 106.808C211.349 107.828 196.754 114.411 185.752 125.413C161.758 149.407 160.798 187.712 182.872 212.851L185.752 215.923L273.672 303.844C281.599 291.876 291.875 281.6 303.842 273.674L215.922 185.753L214.147 183.743C207.64 175.374 208.231 163.273 215.922 155.583C219.256 152.249 223.579 150.133 228.202 149.52L231.006 149.335L258.693 149.351C267.831 184.826 299.208 211.369 337.074 213.23L341.333 213.335H405.333V181.335H453.333L455.504 181.189C462.604 180.225 468.224 174.605 469.187 167.506L469.333 165.335L469.187 163.164C468.224 156.064 462.604 150.444 455.504 149.481L453.333 149.335H405.333V106.668H453.333L455.504 106.522C462.604 105.559 468.224 99.9387 469.187 92.8391L469.333 90.668L469.187 88.4969C468.224 81.3972 462.604 75.7772 455.504 74.814L453.333 74.668H405.333ZM253.313 362.673L256 362.673C256.001 377.845 259.169 392.277 264.88 405.344L253.307 405.351C244.169 440.826 212.792 467.369 174.926 469.23L170.667 469.335H106.667V437.335H58.6667C50.5665 437.335 43.8722 431.315 42.8127 423.506L42.6667 421.335C42.6667 413.234 48.686 406.54 56.4956 405.481L58.6667 405.335H106.667V362.668H58.6667C50.5665 362.668 43.8722 356.649 42.8127 348.839L42.6667 346.668C42.6667 338.568 48.686 331.874 56.4956 330.814L58.6667 330.668H106.667V298.668H170.667C210.43 298.668 243.842 325.866 253.313 362.673ZM149.333 341.335H170.667L174.009 341.464C194.961 343.087 211.669 359.844 213.216 380.817L213.333 384.001L213.204 387.343C211.581 408.295 194.824 425.004 173.851 426.551L170.667 426.668H149.333V341.335ZM341.333 85.3346H362.667V170.668H341.333L338.149 170.551L334.694 170.155C315.361 167.134 300.329 151.131 298.796 131.343L298.667 128.001L298.784 124.817L299.18 121.362C302.201 102.029 318.204 86.9967 337.991 85.4636L341.333 85.3346ZM373.333 277.335C320.314 277.335 277.333 320.315 277.333 373.335C277.333 426.354 320.314 469.335 373.333 469.335C426.353 469.335 469.333 426.354 469.333 373.335C469.333 320.315 426.353 277.335 373.333 277.335ZM436.096 340.097L352.001 424.192L310.573 382.764L329.429 363.908L352.001 386.479L417.24 321.241L436.096 340.097Z"/></svg>