<svg width="512" height="512" viewBox="0 0 512 512" fill="none" xmlns="http://www.w3.org/2000/svg"><path fill-rule="evenodd" clip-rule="evenodd" d="M362.667 149.333C421.577 149.333 469.333 197.09 469.333 256C469.333 314.91 421.577 362.667 362.667 362.667H277.333C225.738 362.667 182.698 326.034 172.806 277.359L122.279 277.356C114.898 290.097 101.117 298.667 85.3334 298.667C61.7692 298.667 42.6667 279.564 42.6667 256C42.6667 232.436 61.7692 213.333 85.3334 213.333C101.125 213.333 114.914 221.913 122.291 234.665L172.801 234.663C182.686 185.977 225.73 149.333 277.333 149.333H362.667ZM362.667 192H277.333C241.987 192 213.333 220.654 213.333 256C213.333 290.084 239.977 317.945 273.573 319.891L277.333 320H362.667C398.013 320 426.667 291.346 426.667 256C426.667 221.916 400.023 194.055 366.427 192.109L362.667 192Z"/></svg>