<svg width="512" height="512" viewBox="0 0 512 512" fill="none" xmlns="http://www.w3.org/2000/svg"><path d="M448 64V213.333H469.333V298.667H448V448H64V298.667H42.6667V213.333H64V64H448ZM405.333 106.667H106.667V213.333H128V298.667H106.667V405.333H405.333V298.667H384V213.333H405.333V106.667ZM279.836 127.715L373.984 383.716H327.613L301.968 310.366H208.523L183.054 383.716H139.317L231.357 127.715H279.836ZM255.245 170.533C252.318 181.071 248.577 193.032 244.023 206.414L220.291 275.317H290.024L269.122 214.615L264.301 200.081C261.152 190.339 258.134 180.489 255.245 170.533Z"/></svg>