<svg width="512" height="512" viewBox="0 0 512 512" fill="none" xmlns="http://www.w3.org/2000/svg"><path fill-rule="evenodd" clip-rule="evenodd" d="M256 64C149.961 64 64 149.961 64 256C64 295.476 75.9134 332.169 96.341 362.681L131.821 338.974C115.933 315.243 106.667 286.703 106.667 256C106.667 173.525 173.525 106.667 256 106.667V64ZM256 469.333C373.821 469.333 469.333 373.821 469.333 256C469.333 138.179 373.821 42.6666 256 42.6666C138.179 42.6666 42.6666 138.179 42.6666 256C42.6666 373.821 138.179 469.333 256 469.333ZM256 384C326.692 384 384 326.692 384 256C384 185.308 326.692 128 256 128C185.308 128 128 185.308 128 256C128 326.692 185.308 384 256 384Z"/></svg>