<svg width="512" height="512" viewBox="0 0 512 512" fill="none" xmlns="http://www.w3.org/2000/svg"><path d="M138.667 277.331C191.686 277.331 234.667 320.311 234.667 373.331C234.667 426.35 191.686 469.331 138.667 469.331C85.6474 469.331 42.6667 426.35 42.6667 373.331C42.6667 320.311 85.6474 277.331 138.667 277.331ZM138.667 319.997C109.212 319.997 85.3334 343.876 85.3334 373.331C85.3334 402.786 109.212 426.664 138.667 426.664C168.122 426.664 192 402.786 192 373.331C192 343.876 168.122 319.997 138.667 319.997ZM469.333 362.664V405.331H298.667V362.664H469.333ZM138.667 42.6641C191.686 42.6641 234.667 85.6447 234.667 138.664C234.667 191.683 191.686 234.664 138.667 234.664C85.6474 234.664 42.6667 191.683 42.6667 138.664C42.6667 85.6447 85.6474 42.6641 138.667 42.6641ZM138.667 85.3307C109.212 85.3307 85.3334 109.209 85.3334 138.664C85.3334 168.119 109.212 191.997 138.667 191.997C168.122 191.997 192 168.119 192 138.664C192 109.209 168.122 85.3307 138.667 85.3307ZM469.333 127.997V170.664H298.667V127.997H469.333ZM138.667 106.664C156.34 106.664 170.667 120.991 170.667 138.664C170.667 156.337 156.34 170.664 138.667 170.664C120.994 170.664 106.667 156.337 106.667 138.664C106.667 120.991 120.994 106.664 138.667 106.664Z"/></svg>