<svg width="512" height="512" viewBox="0 0 512 512" fill="none" xmlns="http://www.w3.org/2000/svg"><path d="M259.669 277.331L218.048 319.997H128V426.664H234.667V409.427L277.333 367.08V469.331H85.3333V277.331H259.669ZM278.882 280.303L309.25 310.274L199.41 421.566L138.364 363.517L167.765 332.598L198.443 361.768L278.882 280.303ZM469.333 362.664V405.331H298.667V362.664H469.333ZM259.669 42.6641L218.048 85.3307H128V191.997H234.667V174.76L277.333 132.413V234.664H85.3333V42.6641H259.669ZM278.882 45.636L309.25 75.6069L199.41 186.9L138.364 128.85L167.765 97.931L198.443 127.101L278.882 45.636ZM469.333 127.997V170.664H298.667V127.997H469.333Z"/></svg>