<svg width="512" height="512" viewBox="0 0 512 512" fill="none" xmlns="http://www.w3.org/2000/svg"><path d="M447.881 213.686V448.352L362.667 448V405.333H405.333L405.214 253.305L447.881 213.686ZM195.1 142.907L197.756 142.971L201.457 143.249L202.502 143.398C230.368 147.344 250.985 170.118 252.185 197.282L252.23 200.849V266.961L341.333 300.497V469.265H148.038L135.75 457.809L63.8783 389.499C62.7263 388.411 61.6383 387.302 60.5716 386.107C49.4783 373.841 41.4356 356.475 42.8223 340.134C44.0829 325.22 50.0333 311.875 60.946 301.831L64.9236 298.491L65.4996 298.086C76.3583 290.086 88.4756 285.521 102.086 285.755C112.421 285.926 122.334 289.889 133.609 297.48L137.905 300.497V199.291C137.862 182.801 145.137 167.185 157.766 156.539C168.134 147.75 181.404 142.907 195.1 142.907ZM194.14 180.966C184.766 180.966 177.047 187.964 175.915 197.011L175.772 199.313V357.691L157.809 365.307L122.908 333.606L120.86 331.665L120.433 331.366L116.486 327.782C113.606 325.158 110.129 323.878 106.566 323.217C105.649 322.982 104.774 322.875 103.836 322.811C102.705 322.769 101.66 322.726 100.55 322.854C99.4623 323.003 98.4596 323.302 97.4143 323.622C93.8729 324.603 90.5023 326.225 87.8356 329.147C80.8842 336.788 80.8585 348.3 87.4228 355.949L89.2009 357.777L143.494 407.078L164.849 426.598H164.998L165.126 426.726L165.254 426.598L298.091 425.595L298.517 331.707L212.486 299.131V199.313C212.486 189.179 204.273 180.966 194.14 180.966ZM320 64V106.667L106.667 106.666V234.666L64 266.666V63.9996L320 64ZM378.697 48.9688L479.113 149.385L378.697 249.801L348.532 219.635L397.406 170.718H278.281V128.051H397.406L348.532 79.1341L378.697 48.9688Z"/></svg>