<svg width="512" height="512" viewBox="0 0 512 512" fill="none" xmlns="http://www.w3.org/2000/svg"><path fill-rule="evenodd" clip-rule="evenodd" d="M149.333 64V234.667L277.333 165.333V234.667L405.333 164.548V224.421L362.667 266.958V231.701L234.667 301.836V232.191L150.071 278.008L106.667 301.516V362.667H64V64H149.333ZM64 405.333H106.667V448H64V405.333ZM149.333 405.333H192V448H149.333V405.333ZM474.667 316L409.333 250.667L256 404V469.333H321.333L474.667 316ZM288 417.237L367.972 337.266L388.046 357.34L308.053 437.333H288V417.237ZM410.674 334.713L390.599 314.638L409.323 295.915L429.397 315.989L410.674 334.713Z"/></svg>