<svg width="512" height="512" viewBox="0 0 512 512" fill="none" xmlns="http://www.w3.org/2000/svg"><path fill-rule="evenodd" clip-rule="evenodd" d="M277.333 42.6666V86.6537C354.533 96.2803 415.72 157.467 425.346 234.667H469.333V277.333H425.346C415.72 354.533 354.533 415.72 277.333 425.346V469.333H234.667V425.346C157.467 415.72 96.2804 354.533 86.6538 277.333H42.6667V234.667H86.6538C96.2804 157.467 157.467 96.2803 234.667 86.6537V42.6666H277.333ZM234.667 405.333H277.333V341.333H234.667V405.333ZM298.667 256C298.667 279.564 279.564 298.667 256 298.667C232.436 298.667 213.333 279.564 213.333 256C213.333 232.436 232.436 213.333 256 213.333C279.564 213.333 298.667 232.436 298.667 256ZM170.667 234.667H106.667V277.333H170.667V234.667ZM277.333 106.667V170.667H234.667V106.667H277.333ZM405.333 234.667H341.333V277.333H405.333V234.667Z"/></svg>