<svg width="512" height="512" viewBox="0 0 512 512" fill="none" xmlns="http://www.w3.org/2000/svg"><path fill-rule="evenodd" clip-rule="evenodd" d="M309.334 117.333C309.334 76.096 275.904 42.6666 234.667 42.6666L230.57 42.7771C191.238 44.9039 160 77.4706 160 117.333C160 158.571 193.43 192 234.667 192L238.764 191.889C278.096 189.763 309.334 157.196 309.334 117.333ZM256 362.667C256 385.981 262.233 407.84 273.124 426.667H85.3335V349.867C85.3335 287.834 133.002 237.253 192.717 234.763L197.333 234.667H272C291.434 234.667 309.712 239.758 325.642 248.714C284.293 269.933 256 312.996 256 362.667ZM321.303 448.962L384 410.667L446.697 448.962L429.651 377.499L485.446 329.705L412.214 323.834L384 256L355.786 323.834L282.554 329.705L338.349 377.499L321.303 448.962Z"/></svg>