<svg width="512" height="512" viewBox="0 0 512 512" fill="none" xmlns="http://www.w3.org/2000/svg"><path fill-rule="evenodd" clip-rule="evenodd" d="M234.667 42.6666C275.904 42.6666 309.334 76.096 309.334 117.333C309.334 157.196 278.096 189.763 238.764 191.889L234.667 192C193.43 192 160 158.571 160 117.333C160 77.4706 191.238 44.9039 230.57 42.7771L234.667 42.6666ZM85.3335 426.667H273.124C265.629 413.709 260.339 399.316 257.77 384H128V349.867L128.111 345.725C130.168 307.36 160.626 277.333 197.333 277.333H272L275.908 277.447C279.717 277.67 283.448 278.216 287.076 279.059C297.81 266.627 310.895 256.281 325.642 248.714C309.712 239.758 291.434 234.667 272 234.667H197.333L192.717 234.763C133.002 237.253 85.3335 287.834 85.3335 349.867V426.667ZM202.667 117.333C202.667 99.6602 216.994 85.3333 234.667 85.3333C252.34 85.3333 266.667 99.6602 266.667 117.333C266.667 135.006 252.34 149.333 234.667 149.333C216.994 149.333 202.667 135.006 202.667 117.333ZM321.303 448.962L384 410.667L446.697 448.962L429.651 377.499L485.446 329.705L412.214 323.834L384 256L355.786 323.834L282.554 329.705L338.349 377.499L321.303 448.962Z"/></svg>