<svg width="512" height="512" viewBox="0 0 512 512" fill="none" xmlns="http://www.w3.org/2000/svg"><path d="M405.333 128C427.826 128 446.254 141.685 447.883 164.505L448 167.796V344.204C448 367.453 427.41 382.316 405.333 384H307.541L335.085 416.815L304.915 448L225.83 366.255L304.915 284.51L335.085 315.694L307.541 341.333H405.333V170.667H320V128H405.333ZM207.085 64L286.17 145.745L207.085 227.49L176.915 196.306L202.667 170.667H106.667V341.333H192V384H106.667C84.1736 384 65.7458 370.315 64.117 347.495L64 344.204V167.796C64 144.547 73.923 129.684 96 128H106.667H202.667L176.915 95.1848L207.085 64Z"/></svg>