<svg width="512" height="512" viewBox="0 0 512 512" fill="none" xmlns="http://www.w3.org/2000/svg"><path fill-rule="evenodd" clip-rule="evenodd" d="M426.667 125.49H85.3334V145.569H426.667V125.49ZM85.3334 386.51V185.726H426.667V237.188L469.333 279.854V85.3335H42.6667V426.667H201.245L241.402 386.51H85.3334ZM405.333 213.333V222.578L362.667 265.245V213.333H405.333ZM341.333 256V286.578L298.667 329.245V256H341.333ZM277.333 341.333V350.578L265.245 362.667H234.667V341.333H277.333ZM170.667 362.667C211.904 362.667 245.333 329.237 245.333 288C245.333 246.763 211.904 213.333 170.667 213.333C129.429 213.333 96.0001 246.763 96.0001 288C96.0001 329.237 129.429 362.667 170.667 362.667ZM206.143 311.704C210.831 304.688 213.333 296.439 213.333 288H170.667V245.333C162.228 245.333 153.979 247.836 146.962 252.524C139.946 257.212 134.477 263.876 131.248 271.672C128.019 279.469 127.174 288.047 128.82 296.324C130.466 304.601 134.53 312.203 140.497 318.17C146.464 324.137 154.066 328.201 162.343 329.847C170.619 331.493 179.198 330.648 186.995 327.419C194.791 324.19 201.455 318.721 206.143 311.704ZM474.667 316L409.333 250.667L256 404V469.334H321.333L474.667 316ZM288 417.237L367.972 337.266L388.046 357.341L308.053 437.334H288V417.237ZM410.674 334.713L390.599 314.638L409.323 295.915L429.397 315.99L410.674 334.713Z"/></svg>