<svg width="24" height="24" viewBox="0 0 24 24" fill="none" xmlns="http://www.w3.org/2000/svg"><path d="M19 18H22V22H13V18H16V16.5H19V18ZM12 3C16.4183 3 20 4.79086 20 7V12.6709C19.3897 12.3269 18.708 12.0994 17.9941 12.0264C17.9957 12.0169 18 12.0085 18 12V9.64551C16.5341 10.4759 14.3894 11 12 11C9.61054 11 7.46589 10.476 6 9.64551L5.99902 12H6C6 12.179 6.3542 12.5985 7.2373 13.04C8.43457 13.6387 10.1456 14 12 14C12.5137 14 13.0162 13.9708 13.5 13.918C13.0508 14.4564 12.7148 15.0768 12.5352 15.7383L12.4658 15.9932C12.3117 15.9976 12.1564 16 12 16C9.61014 16 7.46493 15.4762 5.99902 14.6455V16.9277L6 17.0029C6.05509 17.7656 8.60931 19 12 19V21C7.67991 21 4.15921 19.2877 4.00488 17.1465L4 17V7C4 4.79086 7.58172 3 12 3ZM17.5 13C19.364 13 21.0561 14.3654 21.5 16H13.5C13.9439 14.3654 15.636 13 17.5 13ZM12 5C10.1456 5 8.43457 5.36133 7.2373 5.95996C6.3542 6.40152 6 6.82099 6 7C6 7.17901 6.3542 7.59848 7.2373 8.04004C8.43457 8.63867 10.1456 9 12 9C13.8544 9 15.5654 8.63867 16.7627 8.04004C17.6458 7.59848 18 7.17901 18 7C18 6.82099 17.6458 6.40152 16.7627 5.95996C15.5654 5.36133 13.8544 5 12 5Z"/></svg>