<svg width="512" height="512" viewBox="0 0 512 512" fill="none" xmlns="http://www.w3.org/2000/svg"><path fill-rule="evenodd" clip-rule="evenodd" d="M85.3333 149.333C85.3333 125.769 104.436 106.667 128 106.667C151.564 106.667 170.667 125.769 170.667 149.333C170.667 172.897 151.564 192 128 192C104.436 192 85.3333 172.897 85.3333 149.333ZM128 64C80.8717 64 42.6667 102.205 42.6667 149.333C42.6667 196.462 80.8717 234.667 128 234.667C175.128 234.667 213.333 196.462 213.333 149.333C213.333 102.205 175.128 64 128 64ZM469.333 170.667H234.667V128H469.333V170.667ZM234.667 341.333H469.333V384H234.667V341.333ZM128 448C175.128 448 213.333 409.794 213.333 362.667C213.333 315.539 175.128 277.333 128 277.333C80.8717 277.333 42.6667 315.539 42.6667 362.667C42.6667 409.794 80.8717 448 128 448Z"/></svg>