<svg width="512" height="512" viewBox="0 0 512 512" fill="none" xmlns="http://www.w3.org/2000/svg"><path fill-rule="evenodd" clip-rule="evenodd" d="M277.333 102.4V64H285.369H322.08V102.4V110.387C329.569 114.093 336.746 118.413 343.556 123.328L350.128 119.334L381.938 100.154L400.294 133.389L429.644 186.611L448 219.866L416.226 239.066L409.655 243.002C410.022 247.36 410.206 251.68 410.206 256C410.206 260.32 410.022 264.64 409.655 268.998L416.226 272.934L448 292.134L429.644 325.389L400.294 378.611L381.938 411.846L350.128 392.666L343.556 388.672C336.746 393.587 329.569 397.907 322.08 401.613V409.6V448H285.369H277.333V409.6H285.372V374.848C306.353 369.203 325.075 357.741 339.797 342.054L368.486 359.411L397.874 306.189L369.129 288.832C371.882 278.368 373.498 267.386 373.498 256C373.498 244.614 371.882 233.632 369.129 223.168L397.874 205.811L368.486 152.589L339.797 169.946C325.075 154.259 306.353 142.797 285.372 137.152V102.4H277.333ZM329.433 256C329.433 290.661 307.486 319.957 277.333 329.512V287.264C286.65 280.3 292.722 268.893 292.722 256C292.722 243.107 286.65 231.7 277.333 224.736V182.488C307.486 192.043 329.433 221.339 329.433 256ZM85.3333 149.335C85.3333 105.819 150.479 69.9105 234.667 64.6615V107.425C203.466 109.658 175.276 116.72 154.402 127.157C135.561 136.577 128 145.516 128 149.335C128 153.153 135.561 162.092 154.402 171.512C175.276 181.949 203.466 189.012 234.667 191.244V234.008C192.344 231.369 154.833 220.982 127.993 205.775L127.986 256.001H128C128 259.82 135.561 268.759 154.402 278.179C175.276 288.616 203.466 295.678 234.667 297.911V340.674C192.336 338.035 154.82 327.645 127.979 312.433L127.972 361.134L128.002 362.729C129.056 377.356 173.202 400.118 234.667 404.566V447.341C152.505 442.218 88.4801 407.894 85.4459 365.796L85.3333 362.668V256.001V149.335Z"/></svg>