<svg width="512" height="512" viewBox="0 0 512 512" fill="none" xmlns="http://www.w3.org/2000/svg"><path fill-rule="evenodd" clip-rule="evenodd" d="M276.625 384V347.062C311.75 314.812 338.5 288.5 356.875 268.125C373.75 249.5 385.375 234.562 391.75 223.312C398.25 212.062 401.5 201 401.5 190.125C401.5 178.625 397.562 169.438 389.687 162.562C380.812 154.938 369.625 151.125 356.125 151.125C337.625 151.125 316.375 157.812 292.375 171.188L281.125 132.562C307.5 120.188 334.187 114 361.187 114C387.437 114 408.187 119.938 423.437 131.812C440.062 144.812 448.375 163.375 448.375 187.5C448.375 203.75 444.562 219.25 436.937 234C429.312 248.75 415.75 266.75 396.25 288C379.125 306.875 359.687 326.375 337.937 346.5H450.437V384H276.625ZM121.458 384V169.875L72.8958 202.5L53.0208 165.938L126.521 118.312H166.646V384H121.458ZM238.667 342.333C233.667 337.222 227.389 334.667 219.833 334.667C212.389 334.667 206.111 337.167 201 342.167C196 347.167 193.5 353.389 193.5 360.833C193.5 368.722 195.944 375.222 200.833 380.333C205.833 385.333 212.222 387.833 220 387.833C227.444 387.833 233.667 385.333 238.667 380.333C243.667 375.222 246.167 368.833 246.167 361.167C246.167 353.611 243.667 347.333 238.667 342.333Z"/></svg>