<svg width="512" height="512" viewBox="0 0 512 512" fill="none" xmlns="http://www.w3.org/2000/svg"><path fill-rule="evenodd" clip-rule="evenodd" d="M213.333 191.999V149.333H448V191.999H213.333ZM213.333 383.999V341.935H448V383.999H213.333Z"/><path d="M156.16 408.326C149.354 415.041 142.502 419.777 135.602 422.534C128.796 425.289 120.639 426.666 111.129 426.666C96.0252 426.666 84.4179 422.964 76.3065 415.559C68.1022 408.24 64 398.336 64 385.85C64 368.974 71.4119 356.574 86.2359 348.652C95.559 343.657 110.29 341.16 130.428 341.16C135.742 341.16 143.714 341.419 154.342 341.935V339.482C154.342 319.073 143.574 308.87 122.037 308.87C109.824 308.87 96.6778 312.615 82.5999 320.107L73.6494 297.891C90.6177 289.97 108.192 286.007 126.372 286.007C149.96 286.007 166.835 291.863 176.998 303.573C181.1 308.397 183.897 313.994 185.388 320.365C186.973 326.737 187.766 336.294 187.766 349.039V389.338C187.766 403.632 188.232 415.085 189.164 423.696H157.419L156.16 408.326ZM154.342 361.31C148.841 360.879 143.807 360.664 139.238 360.664C125.72 360.664 115.977 362.386 110.01 365.83C102.458 370.221 98.6825 376.681 98.6825 385.205C98.6825 391.32 100.734 396.271 104.836 400.058C108.938 403.762 114.439 405.613 121.338 405.613C134.111 405.613 145.112 399.327 154.342 386.755V361.31Z"/><path d="M156.16 216.326C149.354 223.043 142.502 227.779 135.602 230.534C128.796 233.289 120.639 234.667 111.129 234.667C96.0252 234.667 84.4179 230.965 76.3065 223.559C68.1022 216.24 64 206.338 64 193.852C64 176.975 71.4119 164.575 86.2359 156.653C95.559 151.658 110.29 149.161 130.428 149.161C135.742 149.161 143.714 149.42 154.342 149.936V147.482C154.342 127.074 143.574 116.87 122.037 116.87C109.824 116.87 96.6778 120.616 82.5999 128.108L73.6494 105.892C90.6177 97.9696 108.192 94.0086 126.372 94.0086C149.96 94.0086 166.835 99.864 176.998 111.575C181.1 116.397 183.897 121.994 185.388 128.366C186.973 134.738 187.766 144.296 187.766 157.04V197.339C187.766 211.633 188.232 223.086 189.164 231.697H157.419L156.16 216.326ZM154.342 169.311C148.841 168.88 143.807 168.665 139.238 168.665C125.72 168.665 115.977 170.387 110.01 173.831C102.458 178.223 98.6825 184.681 98.6825 193.206C98.6825 199.32 100.734 204.271 104.836 208.06C108.938 211.763 114.439 213.614 121.338 213.614C134.111 213.614 145.112 207.328 154.342 194.756V169.311Z"/></svg>