<svg width="512" height="512" viewBox="0 0 512 512" fill="none" xmlns="http://www.w3.org/2000/svg"><path fill-rule="evenodd" clip-rule="evenodd" d="M256 64H64V362.667H256V320H106.667V106.667H256V64ZM128 405.333H256V448H128V405.333ZM298.667 448V409.6H316.884V374.848C338.83 369.203 358.414 357.741 373.812 342.054L403.822 359.411L434.561 306.189L404.494 288.832C407.374 278.368 409.063 267.386 409.063 256C409.063 244.614 407.374 233.632 404.494 223.168L434.561 205.811L403.822 152.589L373.812 169.946C358.414 154.259 338.83 142.797 316.884 137.152V102.4H298.667V64H316.885H355.285V102.4V110.387C363.119 114.093 370.626 118.413 377.749 123.328L384.623 119.334L417.896 100.154L437.096 133.389L467.797 186.611L486.997 219.866L453.762 239.066L446.888 243.002C447.272 247.36 447.464 251.68 447.464 256C447.464 260.32 447.272 264.64 446.888 268.998L453.762 272.934L486.997 292.134L467.797 325.389L437.096 378.611L417.896 411.846L384.623 392.666L377.749 388.672C370.626 393.587 363.119 397.907 355.285 401.613V409.6V448H316.885H298.667ZM362.974 256C362.974 294.164 335.143 325.823 298.667 331.789V292.317C313.744 287.135 324.576 272.831 324.576 255.994C324.576 239.156 313.744 224.853 298.667 219.67V180.211C335.143 186.177 362.974 217.836 362.974 256Z"/></svg>