<svg width="512" height="512" viewBox="0 0 512 512" fill="none" xmlns="http://www.w3.org/2000/svg"><path fill-rule="evenodd" clip-rule="evenodd" d="M405.333 260.418L405.33 42.668H64V298.668H282.819C304.34 272.609 336.897 256.001 373.333 256.001C384.427 256.001 395.161 257.541 405.333 260.418ZM106.667 85.3346H362.667V256.001H106.667V85.3346ZM469.333 373.335C469.333 320.315 426.353 277.335 373.333 277.335C320.314 277.335 277.333 320.315 277.333 373.335C277.333 426.354 320.314 469.335 373.333 469.335C426.353 469.335 469.333 426.354 469.333 373.335ZM341.555 326.599L426.888 374.599L341.555 422.599V326.599Z"/></svg>