<svg width="24" height="24" viewBox="0 0 24 24" fill="none" xmlns="http://www.w3.org/2000/svg"><path d="M12 2C17.5228 2 22 6.47715 22 12C22 17.5228 17.5228 22 12 22C6.47715 22 2 17.5228 2 12C2 6.47715 6.47715 2 12 2ZM7.45508 11.9375L7.82129 12.3047C6.93323 13.1927 6.82206 14.5628 7.48828 15.5693L6.60645 16.4521L7.33887 17.1846L8.2207 16.3027C9.16442 16.9276 10.4284 16.8687 11.3145 16.127L11.4863 15.9697L11.8525 16.3359L12.5869 15.6016L11.6709 14.6855L12.2812 14.0762L11.5479 13.3428L10.9375 13.9521L9.83789 12.8525L10.4482 12.2432L9.71484 11.5098L9.10547 12.1201L8.18945 11.2041L7.45508 11.9375ZM7.26562 7.98047L16.0771 16.792L16.8115 16.0576L8 7.24609L7.26562 7.98047ZM15.0098 8.04785C14.0661 7.42325 12.803 7.48207 11.917 8.22363L11.7451 8.38086L11.3789 8.01465L10.6445 8.74902L15.042 13.1465L15.7764 12.4131L15.4102 12.0459C16.2981 11.1579 16.4093 9.78776 15.7432 8.78125L16.8848 7.63867L16.1523 6.90625L15.0098 8.04785Z"/></svg>