<svg width="512" height="512" viewBox="0 0 512 512" fill="none" xmlns="http://www.w3.org/2000/svg"><path fill-rule="evenodd" clip-rule="evenodd" d="M426.667 161.831L307.503 42.668H85.3333V469.335H426.667V161.831ZM266.667 186.668C257.83 186.668 250.667 193.831 250.667 202.668C250.667 211.505 257.83 218.668 266.667 218.668C275.503 218.668 282.667 211.505 282.667 202.668C282.667 193.831 275.503 186.668 266.667 186.668ZM293.333 202.668C293.333 193.831 300.497 186.668 309.333 186.668C318.17 186.668 325.333 193.831 325.333 202.668C325.333 211.505 318.17 218.668 309.333 218.668C300.497 218.668 293.333 211.505 293.333 202.668ZM181.333 314.668C172.497 314.668 165.333 321.831 165.333 330.668C165.333 339.505 172.497 346.668 181.333 346.668C190.17 346.668 197.333 339.505 197.333 330.668C197.333 321.831 190.17 314.668 181.333 314.668ZM208 330.668C208 321.831 215.163 314.668 224 314.668C232.837 314.668 240 321.831 240 330.668C240 339.505 232.837 346.668 224 346.668C215.163 346.668 208 339.505 208 330.668ZM219.584 143.103L234.669 158.188L189.409 203.434L234.722 248.748L219.637 263.833L159.297 203.493L219.584 143.103ZM291.715 270.277L352.002 330.668L291.662 391.008L276.577 375.923L321.89 330.608L276.63 285.362L291.715 270.277Z"/></svg>