<svg width="512" height="512" viewBox="0 0 512 512" fill="none" xmlns="http://www.w3.org/2000/svg"><path fill-rule="evenodd" clip-rule="evenodd" d="M307.503 42.668L426.667 161.831V469.335H85.3333V42.668H307.503ZM289.813 85.3346H128V426.668H384V179.521L289.813 85.3346ZM219.582 143.103L234.667 158.188L189.407 203.434L234.719 248.748L219.634 263.833L159.295 203.494L219.582 143.103ZM291.713 270.277L352 330.668L291.66 391.008L276.575 375.923L321.887 330.608L276.628 285.362L291.713 270.277ZM250.667 202.668C250.667 193.831 257.83 186.668 266.667 186.668C275.503 186.668 282.667 193.831 282.667 202.668C282.667 211.505 275.503 218.668 266.667 218.668C257.83 218.668 250.667 211.505 250.667 202.668ZM309.333 186.668C300.497 186.668 293.333 193.831 293.333 202.668C293.333 211.505 300.497 218.668 309.333 218.668C318.17 218.668 325.333 211.505 325.333 202.668C325.333 193.831 318.17 186.668 309.333 186.668ZM165.333 330.668C165.333 321.831 172.497 314.668 181.333 314.668C190.17 314.668 197.333 321.831 197.333 330.668C197.333 339.505 190.17 346.668 181.333 346.668C172.497 346.668 165.333 339.505 165.333 330.668ZM224 314.668C215.163 314.668 208 321.831 208 330.668C208 339.505 215.163 346.668 224 346.668C232.837 346.668 240 339.505 240 330.668C240 321.831 232.837 314.668 224 314.668Z"/></svg>