<svg width="512" height="512" viewBox="0 0 512 512" fill="none" xmlns="http://www.w3.org/2000/svg"><path fill-rule="evenodd" clip-rule="evenodd" d="M256 43.8359C373.821 43.8359 469.333 139.349 469.333 257.169C469.333 374.99 373.821 470.503 256 470.503C138.179 470.503 42.6667 374.99 42.6667 257.169C42.6667 139.349 138.179 43.8359 256 43.8359ZM85.3333 257.169C85.3333 351.426 161.743 427.836 256 427.836C295.428 427.836 331.734 414.466 360.63 392.011L314.826 346.163C297.963 357.332 277.741 363.836 256 363.836C197.09 363.836 149.333 316.08 149.333 257.169C149.333 205.566 185.977 162.522 234.663 152.637L234.668 87.8229C150.479 98.3205 85.3333 170.137 85.3333 257.169ZM425.344 278.523L360.528 278.528C357.762 292.137 352.404 304.806 344.993 315.995L390.842 361.799C409.178 338.203 421.456 309.666 425.344 278.523ZM256 193.169C220.654 193.169 192 221.823 192 257.169C192 292.516 220.654 321.169 256 321.169C291.346 321.169 320 292.516 320 257.169C320 221.823 291.346 193.169 256 193.169ZM277.352 87.8254L277.343 152.638C319.132 161.125 352.048 194.042 360.532 235.832L425.346 235.837C415.721 158.644 354.543 97.4598 277.352 87.8254Z"/></svg>