<svg width="512" height="512" viewBox="0 0 512 512" fill="none" xmlns="http://www.w3.org/2000/svg"><path fill-rule="evenodd" clip-rule="evenodd" d="M277.333 128H320V42.6667H42.6665V320H128V277.333H85.3332V85.3333H277.333V128ZM192 181.333H181.333V192H149.333V149.333H192V181.333ZM149.333 234.667V277.333H181.333V234.667H149.333ZM149.333 362.667V320H181.333V362.667H149.333ZM416 320V362.667H448V320H416ZM448 277.333H416V234.667H448V277.333ZM277.333 149.333H234.667V181.333H277.333V149.333ZM320 149.333H362.667V181.333H320V149.333ZM277.333 448V416H234.667V448H277.333ZM320 416H362.667V448H320V416ZM181.333 416V405.333H149.333L149.333 448H192V416H181.333ZM416 181.333V192H448V149.333H405.333V181.333H416ZM416 416H405.333V448H448V405.333H416V416ZM341.775 234.667L298.667 192L256 234.667H341.775ZM298.667 405.333L256 362.667H341.775L298.667 405.333ZM234.667 256L192 298.667L234.667 341.333V256ZM405.333 298.667L362.667 341.333V256L405.333 298.667Z"/></svg>