<svg width="512" height="512" viewBox="0 0 512 512" fill="none" xmlns="http://www.w3.org/2000/svg"><path d="M106.667 298.164H106.167V298.664V404.764V405.264H106.667L405.333 405.264H405.833V404.764V298.664V298.164H405.333L106.667 298.164ZM404.833 119.368V233.596H363.167V136.851V136.644L363.02 136.497L311.5 84.9772L311.354 84.8307H311.147H213.333H212.833V85.3307V233.596H171.167V43.1641H328.629L404.833 119.368ZM64.5 446.931V256.497L447.5 256.497V446.931L64.5 446.931ZM340.833 192.497V234.164H235.167V192.497H340.833ZM298.167 129.065V170.732H235.167V129.065H298.167ZM107.167 63.9297H148.833V233.596H107.167V63.9297ZM192.5 320.497H319.5V362.164H192.5V320.497Z"/></svg>