<svg width="512" height="512" viewBox="0 0 512 512" fill="none" xmlns="http://www.w3.org/2000/svg"><path fill-rule="evenodd" clip-rule="evenodd" d="M85.3333 42.6641H320L426.667 149.331V469.331H384H128H85.3333V42.6641ZM121.477 381.35L106.666 447.997L173.314 433.186C190.916 429.275 204.159 414.72 206.396 396.827L206.528 395.765C209.98 368.155 186.508 344.684 158.899 348.134L157.835 348.268C139.943 350.504 125.388 363.748 121.477 381.35ZM191.999 319.997L234.667 362.664L352 245.331C363.782 233.548 363.782 214.446 352 202.664C340.218 190.882 321.116 190.882 309.333 202.664L191.999 319.997Z"/></svg>