<svg width="512" height="512" viewBox="0 0 512 512" fill="none" xmlns="http://www.w3.org/2000/svg"><path fill-rule="evenodd" clip-rule="evenodd" d="M134.4 72.96L256.213 194.56L378.026 72.96L347.733 42.6667L256.213 134.4L164.693 42.6667L134.4 72.96ZM106.667 64V106.667V128H64L64 106.667V64H106.667ZM64 170.667V234.667H106.667V170.667H64ZM64 341.333L64 277.333H106.667V341.333H64ZM405.333 277.333V341.333H448V277.333H405.333ZM405.333 234.667V170.667H448V234.667H405.333ZM234.667 405.333H170.667V448H234.667V405.333ZM277.333 405.333H341.333V448H277.333V405.333ZM106.667 405.333V384H64L64 405.333V448H106.667H128V405.333H106.667ZM405.333 106.667V128H448V106.667V64H405.333V106.667ZM405.333 405.333H384V448H405.333H448V405.333V384H405.333V405.333Z"/></svg>