<svg width="512" height="512" viewBox="0 0 512 512" fill="none" xmlns="http://www.w3.org/2000/svg"><path d="M448 256V320H416L409.609 294.4H371.218V409.6L405.333 419.2V448H298.667V419.2L332.828 409.6V294.4H294.437L288 320H256.046V256H448ZM341.333 64V234.667H246.893L204.096 274.69L151.051 206.31L106.667 277.333V298.667H234.667V341.333H64V64H341.333ZM298.667 106.667H106.667V213.333L148.3 134.403L209.29 213.05L246.893 178.565L298.667 213.333V106.667ZM236.759 121.6C247.36 121.6 255.954 130.196 255.954 140.8C255.954 151.404 247.36 160 236.759 160C226.157 160 217.563 151.404 217.563 140.8C217.563 130.196 226.157 121.6 236.759 121.6Z"/></svg>