<svg width="512" height="512" viewBox="0 0 512 512" fill="none" xmlns="http://www.w3.org/2000/svg"><path fill-rule="evenodd" clip-rule="evenodd" d="M149.333 234.667V64H64V426.667H234.667V400.497L251.164 383.999H149.333H106.667V301.516L150.071 278.008L234.667 232.191V301.836L362.667 231.701V272.497L405.333 229.83V164.548L277.333 234.667V165.333L149.333 234.667ZM474.667 316L409.333 250.667L256 404V469.333H321.333L474.667 316ZM288 417.237L367.972 337.266L388.046 357.34L308.053 437.333H288V417.237ZM410.674 334.713L390.599 314.638L409.323 295.915L429.397 315.989L410.674 334.713Z"/></svg>