<svg width="512" height="512" viewBox="0 0 512 512" fill="none" xmlns="http://www.w3.org/2000/svg"><path d="M170.667 64V128H234.667V64H277.333V128H341.333V64H384V128H448V170.667H384V234.667H448V277.333H384V341.333H448V384H384V448H341.333V384H277.333V448H234.667V384H170.667V448H128V384H64V341.333H128V277.333H64V234.667H128V170.667H64V128H128V64H170.667ZM234.667 277.333H170.667V341.333H234.667V277.333ZM341.333 277.333H277.333V341.333H341.333V277.333ZM234.667 170.667H170.667V234.667H234.667V170.667ZM341.333 170.667H277.333V234.667H341.333V170.667Z"/></svg>