<svg width="512" height="512" viewBox="0 0 512 512" fill="none" xmlns="http://www.w3.org/2000/svg"><path d="M320 405.335V469.335H277.333V405.335H320ZM373.333 277.335C426.353 277.335 469.333 320.315 469.333 373.335C469.333 426.354 426.353 469.335 373.333 469.335H341.333V405.335H373.333C391.006 405.335 405.333 391.008 405.333 373.335C405.333 355.662 391.006 341.335 373.333 341.335H341.333V277.335H373.333ZM149.333 42.668V106.668H213.333V42.668H256V106.668H320V42.668H362.667V106.668H426.667V149.335H362.667V213.335H426.667V256.001H256V426.668H213.333V362.668H149.333V426.668H106.667V362.668H42.6667V320.001H106.667V256.001H42.6667V213.335H106.667V149.335H42.6667V106.668H106.667V42.668H149.333ZM320 277.335V341.335H277.333V277.335H320ZM213.333 256.001H149.333V320.001H213.333V256.001ZM213.333 149.335H149.333V213.335H213.333V149.335ZM320 149.335H256V213.335H320V149.335Z"/></svg>