<svg width="512" height="512" viewBox="0 0 512 512" fill="none" xmlns="http://www.w3.org/2000/svg"><path fill-rule="evenodd" clip-rule="evenodd" d="M320 85.3346H426.667V192.001H320V85.3346ZM277.333 42.668H320H426.667H469.333V85.3346V192.001V234.668H426.667H320H277.333V192.001V85.3346V42.668ZM106.667 149.335H213.333V256.001H106.667V149.335ZM362.667 256.001H256V149.335V106.668H213.333H106.667H64V149.335V256.001V298.668V405.335V448.001H106.667H213.333H256H362.667H405.333V405.335V298.668V256.001H362.667ZM213.333 298.668V405.335H106.667V298.668H213.333ZM362.667 405.335H256V298.668H362.667V405.335Z"/></svg>