<svg width="512" height="512" viewBox="0 0 512 512" fill="none" xmlns="http://www.w3.org/2000/svg"><path fill-rule="evenodd" clip-rule="evenodd" d="M426.667 149.331L320 42.6641H85.3333V469.331H426.667V149.331ZM280.824 414.153L285.277 438.855C266.746 444.95 247.856 447.997 228.607 447.997C193.182 447.997 164.361 437.678 142.143 417.04C118.492 395.225 106.667 366.353 106.667 330.423C106.667 296.525 117.878 268.669 140.3 246.855C163.439 224.505 192.773 213.331 228.3 213.331C260.449 213.331 287.018 221.992 308.007 239.316C318.45 247.977 326.59 258.617 332.426 271.235C338.364 284.281 341.333 298.664 341.333 314.383C341.333 339.299 334.422 359.189 320.6 374.053C308.212 387.312 294.236 393.942 278.674 393.942C262.087 393.942 252.975 386.403 251.337 371.326C241.098 386.403 227.276 393.942 209.871 393.942C195.844 393.942 184.735 389.879 176.545 381.752C167.637 372.983 163.183 360.953 163.183 345.662C163.183 335.503 165.205 325.531 169.25 315.747C173.294 305.962 178.899 297.488 186.066 290.323C199.684 276.743 217.191 269.952 238.59 269.952C254.767 269.952 269.869 272.572 283.895 277.812L273.606 344.539C272.582 351.062 272.07 355.82 272.07 358.814C272.07 366.193 275.193 369.882 281.438 369.882C289.629 369.882 296.949 364.91 303.4 354.965C311.283 342.881 315.225 328.552 315.225 311.977C315.225 289.2 307.546 271.449 292.189 258.724C275.193 244.716 254.101 237.712 228.915 237.712C209.461 237.712 191.749 242.524 175.777 252.148C160.726 261.237 149.412 273.535 141.836 289.04C135.795 301.658 132.775 315.667 132.775 331.065C132.775 360.258 142.911 383.409 163.183 400.519C180.998 415.596 203.625 423.135 231.065 423.135C246.73 423.135 263.316 420.141 280.824 414.153ZM251.798 294.494C246.576 292.997 242.327 292.248 239.051 292.248C233.215 292.248 227.43 293.772 221.696 296.819C215.963 299.867 211.048 304.064 206.953 309.411C198.557 320.211 194.36 332.295 194.36 345.662C194.36 353.147 196.202 359.055 199.888 363.386C203.574 367.717 208.591 369.882 214.939 369.882C224.154 369.882 231.781 365.926 237.822 358.012C240.996 353.949 243.504 346.089 245.347 334.434L251.798 294.494Z"/></svg>