<svg width="512" height="512" viewBox="0 0 512 512" fill="none" xmlns="http://www.w3.org/2000/svg"><path fill-rule="evenodd" clip-rule="evenodd" d="M298.667 42.6641H64V234.664L106.667 213.331V85.3307H280.96L384 170.664V426.664H298.667V469.331H426.667V149.331L298.667 42.6641ZM238.157 435.486L242.611 460.188C224.079 466.283 205.189 469.331 185.941 469.331C150.515 469.331 121.694 459.012 99.4764 438.373C75.8255 416.559 64 387.687 64 351.757C64 317.859 75.2112 290.002 97.6335 268.188C120.773 245.839 150.106 234.664 185.633 234.664C217.782 234.664 244.351 243.326 265.34 260.649C275.784 269.311 283.923 279.951 289.759 292.569C295.697 305.615 298.667 319.997 298.667 335.717C298.667 360.632 291.756 380.522 277.934 395.386C265.545 408.646 251.57 415.276 236.007 415.276C219.421 415.276 210.308 407.737 208.67 392.659C198.432 407.737 184.61 415.276 167.204 415.276C153.177 415.276 142.069 411.212 133.878 403.085C124.97 394.317 120.517 382.286 120.517 366.995C120.517 356.836 122.539 346.865 126.583 337.08C130.627 327.296 136.233 318.821 143.4 311.657C157.017 298.076 174.525 291.286 195.923 291.286C212.1 291.286 227.202 293.906 241.229 299.145L230.939 365.872C229.915 372.395 229.403 377.154 229.403 380.148C229.403 387.526 232.526 391.215 238.771 391.215C246.962 391.215 254.283 386.243 260.733 376.298C268.617 364.215 272.558 349.885 272.558 333.311C272.558 310.534 264.88 292.783 249.522 280.058C232.526 266.049 211.435 259.045 186.248 259.045C166.795 259.045 149.082 263.857 133.11 273.481C118.059 282.571 106.746 294.868 99.1693 310.373C93.1286 322.992 90.1082 337 90.1082 352.398C90.1082 381.591 100.244 404.743 120.517 421.852C138.332 436.93 160.959 444.469 188.398 444.469C204.063 444.469 220.649 441.474 238.157 435.486ZM209.131 315.827C203.909 314.33 199.66 313.581 196.384 313.581C190.548 313.581 184.763 315.105 179.03 318.153C173.296 321.2 168.382 325.398 164.286 330.744C155.891 341.545 151.693 353.628 151.693 366.995C151.693 374.48 153.536 380.388 157.222 384.719C160.908 389.05 165.924 391.215 172.272 391.215C181.487 391.215 189.115 387.259 195.155 379.346C198.329 375.282 200.838 367.423 202.681 355.767L209.131 315.827Z"/></svg>