<svg width="512" height="512" viewBox="0 0 512 512" fill="none" xmlns="http://www.w3.org/2000/svg"><path fill-rule="evenodd" clip-rule="evenodd" d="M85.3333 257.171C85.3333 162.915 161.743 86.5046 256 86.5046C350.257 86.5046 426.667 162.915 426.667 257.171C426.667 351.428 350.257 427.838 256 427.838C161.743 427.838 85.3333 351.428 85.3333 257.171ZM256 43.8379C138.179 43.8379 42.6667 139.35 42.6667 257.171C42.6667 374.991 138.179 470.505 256 470.505C373.82 470.505 469.333 374.991 469.333 257.171C469.333 139.35 373.82 43.8379 256 43.8379ZM170.667 299.838V342.505H341.333V299.838H170.667Z"/><path d="M213.333 203.838C213.333 221.51 199.007 235.838 181.333 235.838C163.66 235.838 149.333 221.51 149.333 203.838C149.333 186.165 163.66 171.838 181.333 171.838C199.007 171.838 213.333 186.165 213.333 203.838Z"/><path d="M362.667 203.838C362.667 221.51 348.339 235.838 330.667 235.838C312.994 235.838 298.667 221.51 298.667 203.838C298.667 186.165 312.994 171.838 330.667 171.838C348.339 171.838 362.667 186.165 362.667 203.838Z"/></svg>