<svg width="512" height="512" viewBox="0 0 512 512" fill="none" xmlns="http://www.w3.org/2000/svg"><path fill-rule="evenodd" clip-rule="evenodd" d="M256 470.505C373.82 470.505 469.333 374.991 469.333 257.171C469.333 139.35 373.82 43.8379 256 43.8379C138.179 43.8379 42.6667 139.35 42.6667 257.171C42.6667 374.991 138.179 470.505 256 470.505ZM181.333 235.838C199.007 235.838 213.333 221.51 213.333 203.838C213.333 186.165 199.007 171.838 181.333 171.838C163.66 171.838 149.333 186.165 149.333 203.838C149.333 221.51 163.66 235.838 181.333 235.838ZM330.667 235.838C348.339 235.838 362.667 221.51 362.667 203.838C362.667 186.165 348.339 171.838 330.667 171.838C312.994 171.838 298.667 186.165 298.667 203.838C298.667 221.51 312.994 235.838 330.667 235.838ZM362.667 321.171V363.838H149.333V321.171H362.667Z"/></svg>