<svg width="512" height="512" viewBox="0 0 512 512" fill="none" xmlns="http://www.w3.org/2000/svg"><path fill-rule="evenodd" clip-rule="evenodd" d="M341.333 74.7137L370.905 42.6665L469.333 149.333L389.708 235.623C384.338 234.991 378.873 234.667 373.333 234.667C366.299 234.667 359.388 235.19 352.635 236.201L341.333 223.953L390.492 170.667H309.333C271.841 170.667 234.667 202.667 234.667 245.333V250.039V362.667H192V245.333C192 182.237 241.803 130.773 304.244 128.108L309.333 128H390.492L341.333 74.7137ZM256.465 448C248.195 435.082 242.007 420.701 238.377 405.333H106.667V106.667H234.667V63.9998H64L64.0001 448H256.465ZM373.333 277.333C320.314 277.333 277.333 320.314 277.333 373.333C277.333 426.352 320.314 469.333 373.333 469.333C426.353 469.333 469.333 426.352 469.333 373.333C469.333 320.314 426.353 277.333 373.333 277.333ZM354.478 373.334L315.906 334.762L334.762 315.906L373.334 354.478L411.906 315.906L430.762 334.762L392.191 373.334L430.762 411.906L411.906 430.762L373.334 392.19L334.762 430.762L315.906 411.906L354.478 373.334Z"/></svg>