<svg width="512" height="512" viewBox="0 0 512 512" fill="none" xmlns="http://www.w3.org/2000/svg"><path fill-rule="evenodd" clip-rule="evenodd" d="M42.6667 256.003C42.6667 256.003 106.667 85.3359 256 85.3359C405.333 85.3359 469.333 256.003 469.333 256.003C469.333 256.003 444.816 321.381 390.724 371.209L365.589 336.02C394.492 308.141 413.339 274.888 422.621 255.995C404.596 219.306 350.262 128.003 256 128.003C161.781 128.003 107.452 219.225 89.3803 256.009C107.404 292.699 161.738 384.003 256 384.003C268.626 384.003 280.535 382.365 291.736 379.439L317.955 416.145C299.205 422.768 278.578 426.669 256 426.669C106.667 426.669 42.6667 256.003 42.6667 256.003ZM286.679 335.655C277.158 339.324 266.814 341.336 256 341.336C208.872 341.336 170.667 303.131 170.667 256.003C170.667 208.874 208.872 170.669 256 170.669C303.128 170.669 341.333 208.874 341.333 256.003C341.333 276.881 333.835 296.008 321.386 310.837L380.027 392.935L345.307 417.734L286.679 335.655ZM256 298.669C279.564 298.669 298.667 279.567 298.667 256.003C298.667 232.438 279.564 213.336 256 213.336C232.436 213.336 213.333 232.438 213.333 256.003C213.333 279.567 232.436 298.669 256 298.669Z"/></svg>