<svg xmlns="http://www.w3.org/2000/svg" width="512" height="512" viewBox="0 0 512 512"><path fill-rule="evenodd" d="M47.0849493,2.84217094e-14 L409.751616,362.666662 L379.581717,392.836561 L320.374817,333.628896 C291.246618,353.329494 255.728838,367.084945 213.333333,367.084945 C64,367.084945 7.10542736e-15,196.418278 7.10542736e-15,196.418278 C7.10542736e-15,196.418278 22.8621027,135.452671 73.141042,86.3971998 L16.9150553,30.169894 L47.0849493,2.84217094e-14 Z M213.333333,25.7516113 C362.666667,25.7516113 426.666667,196.418278 426.666667,196.418278 C426.666667,196.418278 412.428071,234.387867 381.712212,274.508373 L285.871605,178.644581 C279.289844,151.690235 258.075932,130.47205 231.123994,123.884151 L145.662385,38.4000762 C165.913597,30.494948 188.437631,25.7516113 213.333333,25.7516113 Z M138.666667,196.418278 C138.666667,237.655539 172.096072,271.084945 213.333333,271.084945 C226.192194,271.084945 238.291853,267.834416 248.85545,262.110219 L215.113754,228.369585 C214.524387,228.401906 213.930772,228.418278 213.333333,228.418278 C195.660221,228.418278 181.333333,214.09139 181.333333,196.418278 C181.333333,195.820501 181.349724,195.226552 181.382081,194.636857 L147.641392,160.896162 C141.917195,171.459758 138.666667,183.559417 138.666667,196.418278 Z" transform="translate(42.667 59.582)"/></svg>