<svg width="512" height="512" viewBox="0 0 512 512" fill="none" xmlns="http://www.w3.org/2000/svg"><path fill-rule="evenodd" clip-rule="evenodd" d="M64 64H448V448H64V64ZM106.667 106.667V405.333H405.333V106.667H106.667ZM149.333 149.333H234.667V234.667H149.333V149.333ZM362.667 149.333H298.667V234.667H362.667V149.333ZM149.333 298.667H234.667V362.667H149.333V298.667ZM299.333 277.333C287.183 277.333 277.333 287.183 277.333 299.333V340.667C277.333 352.817 287.183 362.667 299.333 362.667H340.667C352.817 362.667 362.667 352.817 362.667 340.667V299.333C362.667 287.183 352.817 277.333 340.667 277.333H299.333Z"/></svg>