<svg width="512" height="512" viewBox="0 0 512 512" fill="none" xmlns="http://www.w3.org/2000/svg"><path d="M256 42.6667C144.524 42.4935 51.7098 128.177 42.989 239.311C34.2682 350.445 112.582 449.556 222.72 466.773V317.44H168.533V256H222.72V209.067C220.306 186.86 227.903 164.731 243.449 148.69C258.995 132.65 280.875 124.363 303.147 126.08C319.152 126.289 335.122 127.644 350.933 130.133V182.613H324.053C314.782 181.42 305.469 184.483 298.716 190.946C291.963 197.409 288.494 206.579 289.28 215.893V256H348.587L338.987 317.653H289.28V466.987C400.085 450.441 479.214 351.003 470.454 239.312C461.694 127.621 368.03 41.735 256 42.6667Z"/></svg>