<svg xmlns="http://www.w3.org/2000/svg" width="512" height="512" viewBox="0 0 512 512"><path fill-rule="evenodd" d="M405.333333,42.6666667 L405.333333,85.3333333 L336.667394,85.3303853 C372.744828,116.988529 394.855414,163.321355 394.813425,213.803851 C394.748279,291.98295 341.571722,360.121539 265.75113,379.179704 C189.930538,398.237869 110.855351,363.341907 73.8315898,294.485411 C60.0532004,268.860473 53.4100238,240.970854 53.4739967,213.332797 L96.0123884,213.333103 C96.0033438,213.972568 95.9992065,214.612661 96,215.253333 C97.0492403,285.194843 154.050621,341.341203 224,341.333333 C288.071713,342.388718 342.708652,295.138227 350.905639,231.584253 C357.029826,184.101393 335.770546,138.84385 298.669136,112.637083 L298.666667,192 L256,192 L256,42.6666667 L405.333333,42.6666667 Z M42.6666667,1.42108547e-14 L42.6666667,85.3333333 L128,42.6666667 L128,85.3333333 L213.333333,42.6666667 L213.333333,192 L7.10542736e-15,192 L7.10542736e-15,1.42108547e-14 L42.6666667,1.42108547e-14 Z" transform="translate(42.667 85.333)"/></svg>