<svg width="512" height="512" viewBox="0 0 512 512" fill="none" xmlns="http://www.w3.org/2000/svg"><path fill-rule="evenodd" clip-rule="evenodd" d="M192 389.336V267.336L42.6667 85.3359H384L234.667 267.336V389.336H192ZM132.864 128.003H293.781L213.333 226.051L132.864 128.003ZM469.333 277.336H437.333V305.401C420.624 289.654 398.105 280.003 373.333 280.003C330.288 280.003 294.048 309.143 283.266 348.772L313.288 356.96C320.476 330.54 344.636 311.114 373.333 311.114C391.182 311.114 407.276 318.63 418.623 330.669H384V362.669H437.333H469.333V330.669V277.336ZM277.333 416.003V469.336H309.333V441.271C326.043 457.018 348.561 466.669 373.333 466.669C416.378 466.669 452.617 437.529 463.4 397.9L433.378 389.712C426.189 416.131 402.03 435.558 373.333 435.558C355.483 435.558 339.389 428.042 328.043 416.003H362.667V384.003H309.333H277.333V416.003Z"/></svg>