<svg width="512" height="512" viewBox="0 0 512 512" fill="none" xmlns="http://www.w3.org/2000/svg"><path d="M391.764 361.595L421.934 391.765L391.764 421.935L361.594 391.765L391.764 361.595ZM120.235 361.595L150.405 391.765L120.235 421.935L90.0655 391.765L120.235 361.595ZM256 128C326.692 128 384 185.308 384 256C384 326.693 326.692 384 256 384C185.307 384 128 326.693 128 256C128 185.308 185.307 128 256 128ZM256 170.667C208.872 170.667 170.667 208.872 170.667 256C170.667 278.767 179.582 299.451 194.113 314.752L314.752 194.113C299.451 179.582 278.767 170.667 256 170.667ZM120.235 90.0657L150.405 120.236L120.235 150.405L90.0655 120.236L120.235 90.0657ZM391.764 90.0657L421.934 120.236L391.764 150.405L361.594 120.236L391.764 90.0657ZM277.333 42.6667V85.3334H234.667V42.6667H277.333ZM277.333 426.667V469.333H234.667V426.667H277.333ZM469.333 277.333H426.667V234.667H469.333V277.333ZM85.3332 277.333H42.6665V234.667H85.3332V277.333Z"/></svg>