<svg width="512" height="512" viewBox="0 0 512 512" fill="none" xmlns="http://www.w3.org/2000/svg"><path fill-rule="evenodd" clip-rule="evenodd" d="M42.6666 85.3335H469.333V128H42.6666V85.3335ZM86.2736 179.964L64.4531 168.062L84.8841 130.605L106.705 142.507C166.244 174.983 232.979 192 300.799 192H320.002V137.714L472.083 256L320.002 374.286V320H300.799C232.979 320 166.243 337.017 106.705 369.493L84.8841 381.395L64.4531 343.938L86.2736 332.036C152.08 296.142 225.84 277.333 300.799 277.333H362.669V287.048L402.587 256L362.669 224.952V234.667H300.799C225.84 234.667 152.08 215.858 86.2736 179.964ZM469.333 384H42.6666V426.667H469.333V384Z"/></svg>