<svg width="24" height="24" viewBox="0 0 24 24" fill="none" xmlns="http://www.w3.org/2000/svg"><path d="M21.9785 12.9648L21.9736 13.3691L21.9746 15.5557L21.9775 16.1514C21.9907 18.7208 20.5995 20.2957 19.459 21.1543L19.2012 21.3398L18.8408 21.5723L18.625 21.6973L18.4336 21.7998L18.1436 21.9395L18 22L17.8506 21.9375L17.7168 21.875L17.5479 21.791L17.2949 21.6533L17.0039 21.4785L16.751 21.3105C15.6208 20.5274 14.1167 19.0195 14.0068 16.502L14 16.207V12.9707L18 12L21.9785 12.9648ZM15 11.7275L13 12.2139V5H5V19H13V16.2578L13.0068 16.5527V16.5645L13.0078 16.5752C13.0943 18.5568 13.9253 19.9991 14.8457 21H3V3H15V11.7275ZM16 14.543V16.1641L16.0049 16.415C16.0636 17.7592 16.6919 18.7674 17.6689 19.5078L17.8564 19.6436L17.998 19.7393L18.002 19.7363V14.0576L18 14.0566L16 14.543ZM11 8H7V7H11V8Z"/></svg>