<svg width="24" height="24" viewBox="0 0 24 24" fill="none" xmlns="http://www.w3.org/2000/svg"><path d="M21 22H8.5V13H21V22ZM15 12H13V5H5V19H7.5V21H3V3H15V12ZM16.1533 14C15.18 14 14.4151 14.2817 13.8584 14.8447C13.2159 15.4999 12.8946 16.3713 12.8945 17.459C12.8945 18.4991 13.1661 19.3426 13.71 19.9883C14.2762 20.6627 15.0909 21 16.1533 21C17.1299 21 17.8947 20.7166 18.4482 20.1504C19.0908 19.4951 19.4121 18.6122 19.4121 17.502C19.412 16.4875 19.1405 15.6574 18.5967 15.0117C18.0304 14.3373 17.2158 14 16.1533 14ZM10 20.8809H11.5225V14.1191H10V20.8809ZM16.1484 15.1934C16.6511 15.1934 17.0533 15.389 17.3555 15.7803C17.6767 16.1937 17.8378 16.7674 17.8379 17.502C17.8379 18.1699 17.7029 18.7081 17.4326 19.1152C17.1272 19.5765 16.7005 19.8066 16.1533 19.8066C15.6539 19.8066 15.2534 19.611 14.9512 19.2197C14.63 18.8062 14.4688 18.2243 14.4688 17.4736C14.4688 16.8247 14.6046 16.2934 14.875 15.8799C15.174 15.422 15.5983 15.1934 16.1484 15.1934ZM11 8H7V7H11V8Z"/></svg>