<svg width="24" height="24" viewBox="0 0 24 24" fill="none" xmlns="http://www.w3.org/2000/svg"><path d="M15 10H13V5H5V19H15V21H3V3H15V10ZM14.208 11C15.9798 11 17.4168 12.4362 17.417 14.208C17.417 14.5412 17.3657 14.8629 17.2715 15.165L20.4805 18.374C21.062 18.9558 21.0621 19.8988 20.4805 20.4805C19.8988 21.0622 18.9558 21.062 18.374 20.4805L15.165 17.2715C14.8629 17.3657 14.5411 17.417 14.208 17.417C12.4362 17.4168 11 15.9798 11 14.208C11 13.8662 11.0533 13.5365 11.1523 13.2275L12.6699 14.7432L14.0303 14.29L14.29 14.0303L14.7432 12.6719L13.2236 11.1543C13.5338 11.0544 13.8646 11 14.208 11ZM11 8H7V7H11V8Z"/></svg>