<svg width="24" height="24" viewBox="0 0 24 24" fill="none" xmlns="http://www.w3.org/2000/svg"><path d="M17.4102 13C18.4702 13 19.4429 13.3691 20.2119 13.9824C18.8977 14.5414 17.9496 15.8131 17.8838 17.335C17.813 18.9738 18.7861 20.412 20.2119 21.0176C19.4429 21.6308 18.4702 22 17.4102 22C14.925 21.9999 12.9102 19.9852 12.9102 17.5C12.9102 15.0148 14.925 13.0001 17.4102 13ZM15 12.6006C14.1999 13.0097 13.5137 13.609 13 14.3389V5H5V19H12.208C12.418 19.7424 12.7795 20.421 13.2578 21H3V3H15V12.6006ZM11 8H7V7H11V8Z"/></svg>