<svg width="24" height="24" viewBox="0 0 24 24" fill="none" xmlns="http://www.w3.org/2000/svg"><path d="M17.5 13C19.9853 13 22 15.0147 22 17.5C22 19.9853 19.9853 22 17.5 22C15.0147 22 13 19.9853 13 17.5C13 15.0147 15.0147 13 17.5 13ZM15 12.6006C14.1999 13.0097 13.5137 13.609 13 14.3389V5H5V19H12.208C12.418 19.7424 12.7795 20.421 13.2578 21H3V3H15V12.6006ZM17.5059 18.6299C17.0226 18.63 16.6604 18.9879 16.6602 19.4648C16.6602 19.9638 17.0115 20.3221 17.5059 20.3223C17.9892 20.3223 18.3523 19.9645 18.3525 19.4766C18.3525 18.9884 17.9894 18.6299 17.5059 18.6299ZM16.8711 17.5H18.1406V15H16.8711V17.5ZM7.5 13C8.32843 13 9 13.6716 9 14.5V15.5C9 16.3284 8.32843 17 7.5 17C6.67157 17 6 16.3284 6 15.5V14.5C6 13.6716 6.67157 13 7.5 13ZM12 17H11V14L10 15V14L11 13H12V17ZM7.5 14C7.22386 14 7 14.2239 7 14.5V15.5C7 15.7761 7.22386 16 7.5 16C7.77614 16 8 15.7761 8 15.5V14.5C8 14.2239 7.77614 14 7.5 14ZM8 11H7V8L6 9V8L7 7H8V11ZM10.5 7C11.3284 7 12 7.67157 12 8.5V9.5C12 10.3284 11.3284 11 10.5 11C9.67157 11 9 10.3284 9 9.5V8.5C9 7.67157 9.67157 7 10.5 7ZM10.5 8C10.2239 8 10 8.22386 10 8.5V9.5C10 9.77614 10.2239 10 10.5 10C10.7761 10 11 9.77614 11 9.5V8.5C11 8.22386 10.7761 8 10.5 8Z"/></svg>