<svg width="24" height="24" viewBox="0 0 24 24" fill="none" xmlns="http://www.w3.org/2000/svg"><path d="M17.5 13C19.9853 13 22 15.0147 22 17.5C22 19.9853 19.9853 22 17.5 22C15.0147 22 13 19.9853 13 17.5C13 15.0147 15.0147 13 17.5 13ZM15 12.6006C14.1999 13.0097 13.5137 13.609 13 14.3389V5H5V19H12.208C12.418 19.7424 12.7795 20.421 13.2578 21H3V3H15V12.6006ZM17.5059 18.6299C17.0226 18.63 16.6604 18.9879 16.6602 19.4648C16.6602 19.9638 17.0115 20.3221 17.5059 20.3223C17.9892 20.3223 18.3523 19.9645 18.3525 19.4766C18.3525 18.9884 17.9894 18.6299 17.5059 18.6299ZM16.8711 17.5H18.1406V15H16.8711V17.5ZM11 8H7V7H11V8Z"/></svg>