<svg width="24" height="24" viewBox="0 0 24 24" fill="none" xmlns="http://www.w3.org/2000/svg"><path d="M19.25 13.3525C20.8661 14.0353 22 15.6354 22 17.5C22 19.9853 19.9853 22 17.5 22C15.0147 22 13 19.9853 13 17.5C13 15.6354 14.1339 14.0353 15.75 13.3525V15.0664C14.9939 15.6111 14.5 16.4969 14.5 17.5C14.5 19.1569 15.8431 20.5 17.5 20.5C19.1569 20.5 20.5 19.1569 20.5 17.5C20.5 16.4969 20.0061 15.6111 19.25 15.0664V13.3525ZM15 12.6006C14.1999 13.0097 13.5137 13.609 13 14.3389V5H5V19H12.208C12.418 19.7424 12.7795 20.421 13.2578 21H3V3H15V12.6006ZM18.25 17H16.75V12H18.25V17ZM11 8H7V7H11V8Z"/></svg>