<svg width="24" height="24" viewBox="0 0 24 24" fill="none" xmlns="http://www.w3.org/2000/svg"><path d="M17.5 13C19.9853 13 22 15.0147 22 17.5C22 19.9853 19.9853 22 17.5 22C15.0147 22 13 19.9853 13 17.5C13 15.0147 15.0147 13 17.5 13ZM15 12.6006C14.1999 13.0097 13.5137 13.609 13 14.3389V5H5V19H12.208C12.418 19.7424 12.7795 20.421 13.2578 21H3V3H15V12.6006ZM14.917 15.9775C14.6532 16.4241 14.5 16.9438 14.5 17.5C14.5 19.1569 15.8431 20.5 17.5 20.5C18.0561 20.5 18.575 20.3457 19.0215 20.082L14.917 15.9775ZM17.5 14.5C16.9438 14.5 16.4241 14.6532 15.9775 14.917L20.082 19.0215C20.3457 18.575 20.5 18.0561 20.5 17.5C20.5 15.8431 19.1569 14.5 17.5 14.5ZM11 8H7V7H11V8Z"/></svg>