<svg width="24" height="24" viewBox="0 0 24 24" fill="none" xmlns="http://www.w3.org/2000/svg"><path d="M17.5 13C19.9853 13 22 15.0147 22 17.5C22 19.9853 19.9853 22 17.5 22C15.0147 22 13 19.9853 13 17.5C13 15.0147 15.0147 13 17.5 13ZM15 12.6006C14.1999 13.0097 13.5137 13.609 13 14.3389V5H5V19H12.208C12.418 19.7424 12.7795 20.421 13.2578 21H3V3H15V12.6006ZM17.1436 17.4346C15.766 17.4346 14.6494 18.5747 14.6494 20H20.3506C20.3506 18.5747 19.2294 17.4346 17.8564 17.4346H17.1436ZM17.5 14C16.8112 14 16.253 14.5583 16.2529 15.2471C16.2529 15.9359 16.8112 16.4941 17.5 16.4941C18.1888 16.4941 18.7471 15.9359 18.7471 15.2471C18.747 14.5583 18.1888 14 17.5 14ZM11 8H7V7H11V8Z"/></svg>