<svg width="24" height="24" viewBox="0 0 24 24" fill="none" xmlns="http://www.w3.org/2000/svg"><path d="M22.0244 14.4756H20.833C21.5727 15.2772 22.0244 16.3484 22.0244 17.5254C22.0242 20.0104 20.0095 22.0254 17.5244 22.0254C15.0395 22.0251 13.0247 20.0103 13.0244 17.5254C13.0244 16.9142 13.1464 16.331 13.3672 15.7998C13.6534 16.2684 14.0881 16.6342 14.6074 16.833C14.5548 17.0552 14.5244 17.287 14.5244 17.5254C14.5247 19.1819 15.8679 20.5251 17.5244 20.5254C19.1811 20.5254 20.5242 19.182 20.5244 17.5254C20.5244 16.7655 20.2403 16.0737 19.7744 15.5459V16.7256H18.2744V12.9756H22.0244V14.4756ZM15 12.0498C13.9137 12.2703 13.0852 13.1954 13.0078 14.3271C13.0051 14.331 13.0027 14.335 13 14.3389V5H5V19H12.208C12.418 19.7424 12.7795 20.421 13.2578 21H3V3H15V12.0498ZM15.5 13C16.3284 13 17 13.6716 17 14.5C17 15.3284 16.3284 16 15.5 16C14.6716 16 14 15.3284 14 14.5C14 13.6716 14.6716 13 15.5 13ZM11 8H7V7H11V8Z"/></svg>