<svg width="24" height="24" viewBox="0 0 24 24" fill="none" xmlns="http://www.w3.org/2000/svg"><path d="M17.5 13C19.9853 13 22 15.0147 22 17.5C22 19.9853 19.9853 22 17.5 22C15.0147 22 13 19.9853 13 17.5C13 15.0147 15.0147 13 17.5 13ZM15 12.6006C14.1999 13.0097 13.5137 13.609 13 14.3389V5H5V19H12.208C12.418 19.7424 12.7795 20.421 13.2578 21H3V3H15V12.6006ZM17.5 16.6162L15.6924 14.8086L14.8086 15.6924L16.6162 17.5L14.8086 19.3086L15.6924 20.1924L17.5 18.3838L19.3086 20.1924L20.1924 19.3086L18.3838 17.5L20.1924 15.6924L19.3086 14.8086L17.5 16.6162ZM11 8H7V7H11V8Z"/></svg>