<svg width="24" height="24" viewBox="0 0 24 24" fill="none" xmlns="http://www.w3.org/2000/svg"><path d="M18.6309 19.3389H18.6318C17.7767 20.194 16.456 20.3001 15.4854 19.6572L13.4746 21.667L12.7676 20.96L14.7783 18.9502C14.1352 17.9795 14.2405 16.658 15.0957 15.8027L18.6309 19.3389ZM15 13H13V5H5V19H11V21H3V3H15V13ZM21.667 13.4746L19.6572 15.4854C20.3 16.4559 20.1936 17.7757 19.3389 18.6309L15.8027 15.0957C16.658 14.2405 17.9795 14.1352 18.9502 14.7783L20.96 12.7676L21.667 13.4746ZM11 8H7V7H11V8Z"/></svg>