<svg width="512" height="512" viewBox="0 0 512 512" fill="none" xmlns="http://www.w3.org/2000/svg"><path fill-rule="evenodd" clip-rule="evenodd" d="M258.934 42.6667C139.344 42.6667 42.6667 139.906 42.6667 260.205C42.6667 356.366 104.611 437.764 190.544 466.574C201.288 468.74 205.224 461.893 205.224 456.134C205.224 451.091 204.87 433.804 204.87 415.793C144.709 428.761 132.181 389.861 132.181 389.861C122.513 364.649 108.188 358.17 108.188 358.17C88.4975 344.843 109.622 344.843 109.622 344.843C131.464 346.284 142.925 367.173 142.925 367.173C162.257 400.305 193.409 390.944 205.941 385.18C207.729 371.133 213.462 361.409 219.549 356.008C171.567 350.965 121.083 332.237 121.083 248.678C121.083 224.907 129.671 205.459 143.279 190.334C141.132 184.933 133.611 162.599 145.431 132.706C145.431 132.706 163.691 126.943 204.865 155.036C222.493 150.274 240.673 147.852 258.934 147.831C277.195 147.831 295.81 150.355 312.999 155.036C354.177 126.943 372.438 132.706 372.438 132.706C384.258 162.599 376.732 184.933 374.585 190.334C388.552 205.459 396.785 224.907 396.785 248.678C396.785 332.237 346.302 350.602 297.961 356.008C305.841 362.85 312.641 375.814 312.641 396.345C312.641 425.517 312.286 448.929 312.286 456.13C312.286 461.893 316.226 468.74 326.966 466.578C412.899 437.76 474.843 356.366 474.843 260.205C475.198 139.906 378.166 42.6667 258.934 42.6667Z"/></svg>