<svg width="512" height="512" viewBox="0 0 512 512" fill="none" xmlns="http://www.w3.org/2000/svg"><path d="M357.333 64C386.155 64 412.802 73.858 434.431 90.5632L469.917 85.515V117.515L447.939 135.124C447.98 136.299 448 137.481 448 138.667C448 191.686 407.407 234.667 357.333 234.667C307.26 234.667 266.667 191.686 266.667 138.667C266.667 135.311 266.829 131.996 267.147 128.729C263.533 128.248 259.795 128 256 128C252.205 128 248.468 128.248 244.804 128.728C245.171 132.01 245.333 135.318 245.333 138.667C245.333 191.686 204.741 234.667 154.667 234.667C104.593 234.667 64 191.686 64 138.667L64.1067 134.485L42.6667 117.333V85.3333L77.888 90.3467L79.6532 88.9909C100.902 73.2383 126.766 64 154.667 64C182.136 64 207.63 72.9547 228.687 88.2575C237.479 86.3419 246.622 85.3333 256 85.3333C265.378 85.3333 274.52 86.3418 283.324 88.2561C304.37 72.9547 329.864 64 357.333 64ZM154.667 106.667C138.943 106.667 123.869 111.125 110.597 119.478L109.653 120.107L109.54 120.446C108.126 124.757 107.217 129.284 106.85 133.953L106.667 138.667C106.667 168.65 128.72 192 154.667 192C180.614 192 202.667 168.65 202.667 138.667C202.667 132.325 201.679 126.193 199.791 120.443L199.659 120.107L198.737 119.476C186.94 112.053 173.717 107.705 159.882 106.831L154.667 106.667ZM357.333 106.667C341.61 106.667 326.536 111.125 313.264 119.478L312.32 120.107L312.207 120.446C310.792 124.757 309.883 129.284 309.517 133.953L309.333 138.667C309.333 168.65 331.386 192 357.333 192C383.28 192 405.333 168.65 405.333 138.667C405.333 132.325 404.346 126.193 402.458 120.443L402.325 120.107L401.404 119.476C389.606 112.053 376.384 107.705 362.549 106.831L357.333 106.667ZM373.333 277.333C426.353 277.333 469.333 320.314 469.333 373.333C469.333 426.353 426.353 469.333 373.333 469.333C320.314 469.333 277.333 426.353 277.333 373.333C277.333 320.314 320.314 277.333 373.333 277.333ZM341.554 326.597V422.597L426.887 374.597L341.554 326.597Z"/></svg>