<svg width="512" height="512" viewBox="0 0 512 512" fill="none" xmlns="http://www.w3.org/2000/svg"><path fill-rule="evenodd" clip-rule="evenodd" d="M314.18 461.115C396.047 437.673 457.769 366.544 467.369 279.704H372.77C368.871 342.986 349.341 405.503 314.18 461.115ZM372.77 232.297H467.369C457.77 145.457 396.047 74.3267 314.18 50.8848C349.341 106.498 368.871 169.014 372.77 232.297ZM256.001 42.6677C265.434 54.459 273.975 66.7195 281.624 79.3605C310.193 126.572 326.322 179.092 330.012 232.297H181.988C185.677 179.092 201.807 126.572 230.376 79.3605C238.025 66.7195 246.566 54.4589 255.999 42.6677C256 42.6677 256 42.6677 256.001 42.6677ZM198.108 50.4302C115.44 73.3953 52.9689 144.888 43.3066 232.297H139.23C143.139 168.842 162.766 106.157 198.108 50.4302ZM139.23 279.704H43.3068C52.9695 367.113 115.44 438.605 198.108 461.57C162.766 405.844 143.14 343.159 139.23 279.704ZM256.001 469.332C256 469.332 256 469.332 255.999 469.332C246.566 457.541 238.025 445.28 230.376 432.639C201.807 385.428 185.678 332.909 181.988 279.704H330.012C326.322 332.909 310.193 385.428 281.624 432.639C273.975 445.28 265.434 457.541 256.001 469.332Z"/></svg>