<svg xmlns="http://www.w3.org/2000/svg" width="512" height="512" viewBox="0 0 512 512"><path fill-rule="evenodd" d="M405.973333,64 L405.973333,106.666667 L337.307394,106.663719 C373.384828,138.321862 395.495414,184.654689 395.453425,235.137184 C395.388279,313.316284 342.211722,381.454872 266.39113,400.513037 C190.570538,419.571202 111.495351,384.67524 74.4715898,315.818745 C60.6932004,290.193806 54.0500238,262.304187 54.1139967,234.66613 L96.6523884,234.666437 C96.6433438,235.305901 96.6392065,235.945994 96.64,236.586667 C97.6892403,306.528176 154.690621,362.674536 224.64,362.666667 C288.711713,363.722052 343.348652,316.471561 351.545639,252.917586 C357.669826,205.434726 336.410546,160.177183 299.309136,133.970417 L299.306667,213.333333 L256.64,213.333333 L256.64,64 L405.973333,64 Z M136.820488,1.42108547e-14 L136.821163,22.8359635 C147.224391,26.5130721 156.738741,32.0718495 164.955274,39.1033566 L184.752086,27.6733214 L214.381716,78.9933453 L194.597797,90.4166575 C195.571071,95.6851349 196.079747,101.116497 196.079747,106.666667 C196.079747,112.216944 195.571052,117.648409 194.597741,122.916982 L214.381716,134.339988 L184.752086,185.660012 L164.955274,174.229977 C156.738741,181.261484 147.224391,186.820261 136.821163,190.49737 L136.820488,213.333333 L77.5612283,213.333333 L77.5605526,190.49737 C67.1577102,186.820398 57.6436802,181.261896 49.4273561,174.230759 L29.6296296,185.660012 L-2.32347475e-12,134.339988 L19.7839749,122.916982 C18.8106642,117.648409 18.301969,112.216944 18.301969,106.666667 C18.301969,101.116146 18.8107089,95.6844472 19.7841032,90.4156568 L2.32055211e-11,78.9933453 L29.6296296,27.6733214 L49.4263622,39.1034251 C57.6429129,32.0718856 67.1572907,26.513084 77.5605526,22.8359635 L77.5612283,1.42108547e-14 L136.820488,1.42108547e-14 Z M107.190858,71.1111111 C87.5540668,71.1111111 71.6353023,87.0298756 71.6353023,106.666667 C71.6353023,126.303458 87.5540668,142.222222 107.190858,142.222222 C126.827649,142.222222 142.746413,126.303458 142.746413,106.666667 C142.746413,87.0298756 126.827649,71.1111111 107.190858,71.1111111 Z" transform="translate(42.027 64)"/></svg>