<svg width="512" height="512" viewBox="0 0 512 512" fill="none" xmlns="http://www.w3.org/2000/svg"><path fill-rule="evenodd" clip-rule="evenodd" d="M341.333 469.333H320V426.667H277.333V469.333H256V426.667H213.333V469.333H85.3335V42.6666H426.667V469.333H384V426.667H341.333V469.333ZM352 405.333L384 373.333V117.333L352 85.3333H160L128 117.333V373.333L160 405.333H352ZM362.667 213.333C362.667 154.423 314.91 106.667 256 106.667C197.09 106.667 149.333 154.423 149.333 213.333C149.333 253.077 171.069 287.744 203.302 306.095L274.312 258.142L304.606 286.029L289.958 314.481C332.22 300.299 362.667 260.371 362.667 213.333ZM285.733 291.066L271.85 277.344L192.461 339.411C173.783 354.016 184.109 383.989 207.818 383.989C216.257 383.989 224.16 379.853 228.968 372.917L285.733 291.066ZM234.667 213.333C234.667 201.551 244.218 192 256 192C267.782 192 277.333 201.551 277.333 213.333C277.333 225.115 267.782 234.667 256 234.667C244.218 234.667 234.667 225.115 234.667 213.333Z"/></svg>