<svg width="512" height="512" viewBox="0 0 512 512" fill="none" xmlns="http://www.w3.org/2000/svg"><path fill-rule="evenodd" clip-rule="evenodd" d="M433.256 101.735C462.309 132.123 473.814 173.914 467.773 213.333H424.364C430.879 184.77 423.563 153.338 402.416 131.22C371.117 98.4828 321.2 98.4828 289.901 131.22L256 166.679L222.098 131.219C190.799 98.4824 140.882 98.4824 109.583 131.219C88.4359 153.338 81.1198 184.77 87.6348 213.333H44.2267C38.1849 173.914 49.6905 132.122 78.7434 101.734C123.374 55.0531 193.734 51.6839 242.078 91.6271C245.839 94.7341 249.466 98.1033 252.938 101.734L256 104.937L259.061 101.735C262.533 98.1036 266.16 94.7345 269.921 91.6275C318.266 51.6843 388.625 55.0534 433.256 101.735ZM360.14 298.667H419.17L256 469.333L92.8301 298.667H151.859L256 407.592L360.14 298.667ZM192 122.964L136.128 234.667H42.6665V277.333H162.518L192 218.368L256 346.369L290.517 277.333H469.333V234.667H311.851L288 186.964L256 250.944L192 122.964Z"/></svg>