<svg width="512" height="512" viewBox="0 0 512 512" fill="none" xmlns="http://www.w3.org/2000/svg"><path fill-rule="evenodd" clip-rule="evenodd" d="M64 64H213.333V213.333H64V64ZM106.667 106.667V170.667H170.667V106.667H106.667ZM85.3333 234.667H192V341.333H85.3333V234.667ZM128 277.333V298.667H149.333V277.333H128ZM341.333 234.667H234.667V341.333H341.333V234.667ZM277.333 298.667V277.333H298.667V298.667H277.333ZM234.667 85.3333H341.333V192H234.667V85.3333ZM277.333 128V149.333H298.667V128H277.333ZM448 405.333H405.333V448H448V405.333ZM384 170.667H448V106.667H384V170.667ZM106.667 384H170.667V448H106.667V384ZM320 384H256V448H320V384ZM384 256H448V320H384V256Z"/></svg>