<svg width="512" height="512" viewBox="0 0 512 512" fill="none" xmlns="http://www.w3.org/2000/svg"><path d="M469.333 386.374C468.885 386.673 397.773 433.771 256 433.771C114.228 433.771 43.1151 386.673 42.6667 386.374V362.667H469.333V386.374ZM341.333 105.5C415.972 138.126 468.329 212.209 469.272 298.667H469.333V320H42.6667V298.667H42.7292C43.6704 212.209 96.0288 138.126 170.667 105.5V85.3333H341.333V105.5ZM213.333 128V234.667H181.333L174.354 151.125C127.948 176.475 94.6372 222.79 87.0624 277.333H424.937C417.361 222.784 384.038 176.473 337.626 151.125L330.667 234.667H298.667V128H213.333Z"/></svg>