<svg width="512" height="512" viewBox="0 0 512 512" fill="none" xmlns="http://www.w3.org/2000/svg"><path fill-rule="evenodd" clip-rule="evenodd" d="M298.667 378.623C285.03 382.133 270.733 383.999 256 383.999C208.872 383.999 166.205 364.897 135.32 334.012L165.49 303.842C188.654 327.006 220.654 341.333 256 341.333C270.96 341.333 285.321 338.766 298.667 334.049V378.623ZM85.3333 213.333C85.3333 217.697 85.4971 222.023 85.819 226.305L53.3333 193.829L23.1635 223.999L106.667 307.503L190.17 223.999L160 193.829L128.549 225.27C128.186 221.34 128 217.358 128 213.333C128 142.64 185.308 85.3327 256 85.3327C326.692 85.3327 384 142.64 384 213.333C384 246.116 371.676 276.02 351.407 298.666H403.835C418.356 273.563 426.667 244.419 426.667 213.333C426.667 119.076 350.257 42.666 256 42.666C161.743 42.666 85.3333 119.076 85.3333 213.333ZM234.667 224.853V106.666H277.333V201.813L331.733 238.293L308.267 273.706L234.667 224.853ZM490.667 319.999V362.666H384V319.999H490.667ZM362.667 319.999V362.666H320V319.999H362.667ZM490.667 426.666V383.999H384V426.666H490.667ZM362.667 383.999V426.666H320V383.999H362.667ZM490.667 490.666V447.999H384V490.666H490.667ZM362.667 447.999V490.666H320V447.999H362.667Z"/></svg>