<svg width="512" height="512" viewBox="0 0 512 512" fill="none" xmlns="http://www.w3.org/2000/svg"><path fill-rule="evenodd" clip-rule="evenodd" d="M426.667 128H85.3333V384H426.667V128ZM42.6666 85.3333V426.667H469.333V85.3333H42.6666ZM231 341.333V164.208H280C300.833 164.208 317.5 166.208 330 170.208C346.333 175.458 358.833 185.208 367.5 199.458C376.167 213.625 380.5 231.417 380.5 252.833C380.5 274.833 376.167 292.792 367.5 306.708C356.667 324.292 339.917 334.958 317.25 338.708C306.833 340.458 293.5 341.333 277.25 341.333H231ZM270.875 310.083H278.5C296.667 310.083 310.125 307.125 318.875 301.208C326.542 296.125 332.083 288.25 335.5 277.583C338 269.667 339.25 261.25 339.25 252.333C339.25 242.75 337.792 233.875 334.875 225.708C331.958 217.542 327.958 211.167 322.875 206.583C318.042 202.25 312.542 199.333 306.375 197.833C300.208 196.25 290.917 195.458 278.5 195.458H270.875V310.083ZM149 164.208V341.333H188.875V164.208H149Z"/></svg>