<svg width="512" height="512" viewBox="0 0 512 512" fill="none" xmlns="http://www.w3.org/2000/svg"><path d="M475.582 322.337L355.061 479.016L252.625 389.385L280.722 357.275L348.935 416.979L441.764 296.323L475.582 322.337ZM106.667 405.333H209.208L257.204 448H64V170.667H106.667V405.333ZM170.667 85.333C228.027 85.3332 274.812 130.609 277.234 187.373L277.333 192V268.488L326.25 219.583L356.42 249.753L256.002 350.172L155.583 249.753L185.753 219.583L234.667 268.485V192C234.667 157.916 208.023 130.055 174.427 128.108L170.667 128H42.667V85.333H170.667ZM448 228.413L405.333 281.442V128H320V85.333H448V228.413Z"/></svg>