<svg width="512" height="512" viewBox="0 0 512 512" fill="none" xmlns="http://www.w3.org/2000/svg"><path fill-rule="evenodd" clip-rule="evenodd" d="M256 42.668C350.257 42.668 426.667 119.078 426.667 213.335C426.667 300.359 361.532 372.171 277.354 382.678L277.333 405.335H426.667V469.335H85.3333V405.335H234.667L234.668 382.681C150.479 372.183 85.3333 300.367 85.3333 213.335C85.3333 119.078 161.743 42.668 256 42.668ZM256 85.3346C185.308 85.3346 128 142.642 128 213.335C128 284.027 185.308 341.335 256 341.335C326.692 341.335 384 284.027 384 213.335C384 142.642 326.692 85.3346 256 85.3346ZM315.582 123.583L345.752 153.753L297.227 202.304C298.166 205.823 298.667 209.52 298.667 213.335C298.667 236.899 279.564 256.001 256 256.001C232.436 256.001 213.333 236.899 213.333 213.335C213.333 189.77 232.436 170.668 256 170.668C259.814 170.668 263.512 171.168 267.03 172.107L315.582 123.583Z"/></svg>