<svg width="512" height="512" viewBox="0 0 512 512" fill="none" xmlns="http://www.w3.org/2000/svg"><path fill-rule="evenodd" clip-rule="evenodd" d="M63.9998 266.667C63.9998 297.289 70.7916 326.326 82.951 352.352C57.701 319.848 42.6665 279.013 42.6665 234.667C42.6665 128.628 128.628 42.6665 234.667 42.6665C279.013 42.6665 319.848 57.701 352.352 82.951C326.326 70.7916 297.289 63.9998 266.667 63.9998C154.737 63.9998 63.9998 154.737 63.9998 266.667ZM277.333 469.333C383.372 469.333 469.333 383.372 469.333 277.333C469.333 171.294 383.372 85.3332 277.333 85.3332C171.294 85.3332 85.3332 171.294 85.3332 277.333C85.3332 383.372 171.294 469.333 277.333 469.333ZM277.333 427.106C194.616 427.106 127.56 360.051 127.56 277.333C127.56 194.616 194.616 127.56 277.333 127.56C360.051 127.56 427.106 194.616 427.106 277.333C427.106 360.051 360.051 427.106 277.333 427.106ZM256 384V256H298.666V384H256ZM304.041 192C304.041 207.467 292.78 218.667 277.545 218.667C261.694 218.667 250.708 207.467 250.708 191.704C250.708 176.553 261.991 165.333 277.545 165.333C292.78 165.333 304.041 176.553 304.041 192Z"/></svg>