<svg width="512" height="512" viewBox="0 0 512 512" fill="none" xmlns="http://www.w3.org/2000/svg"><path d="M395.52 142.08C395.52 156.219 384.059 167.68 369.92 167.68C355.782 167.68 344.32 156.219 344.32 142.08C344.32 127.942 355.782 116.48 369.92 116.48C384.059 116.48 395.52 127.942 395.52 142.08Z"/><path fill-rule="evenodd" clip-rule="evenodd" d="M146.347 256C146.347 195.44 195.44 146.347 256 146.347C285.082 146.347 312.973 157.899 333.537 178.463C354.101 199.027 365.653 226.918 365.653 256C365.653 316.56 316.56 365.653 256 365.653C195.44 365.653 146.347 316.56 146.347 256ZM184.96 256C184.96 295.234 216.766 327.04 256 327.04C274.841 327.04 292.91 319.556 306.233 306.233C319.555 292.91 327.04 274.841 327.04 256C327.04 216.766 295.234 184.96 256 184.96C216.766 184.96 184.96 216.766 184.96 256Z"/><path fill-rule="evenodd" clip-rule="evenodd" d="M256 42.6667C197.973 42.6667 190.72 42.6667 168.107 43.9467C150.406 44.3616 132.894 47.6767 116.267 53.7601C102.012 59.1289 89.1183 67.5789 78.5067 78.5067C67.5789 89.1184 59.1288 102.012 53.76 116.267C47.6767 132.894 44.3616 150.406 43.9467 168.107C42.6667 190.72 42.6667 197.973 42.6667 256C42.6667 314.027 42.6667 321.28 43.9467 343.893C44.3616 361.594 47.6767 379.106 53.76 395.733C59.1288 409.988 67.5789 422.882 78.5067 433.493C89.1183 444.421 102.012 452.871 116.267 458.24C132.894 464.323 150.406 467.639 168.107 468.053C190.72 469.333 197.973 469.333 256 469.333C314.027 469.333 321.28 469.333 343.893 468.053C361.594 467.639 379.106 464.323 395.733 458.24C424.343 446.986 446.986 424.344 458.24 395.733C464.323 379.106 467.639 361.594 468.053 343.893C468.053 335.203 468.242 328.782 468.475 320.875C468.848 308.208 469.333 291.724 469.333 256C469.333 197.973 469.333 190.72 468.053 168.107C467.639 150.406 464.323 132.894 458.24 116.267C452.871 102.012 444.421 89.1184 433.493 78.5067C422.882 67.5789 409.988 59.1289 395.733 53.7601C379.106 47.6767 361.594 44.3616 343.893 43.9467C321.28 42.6667 314.027 42.6667 256 42.6667ZM256 81.0667C312.96 81.0667 320 81.0667 341.333 82.3467C354.875 82.5021 368.292 84.9547 381.013 89.6001C399.618 96.8184 414.328 111.529 421.547 130.133C426.579 143.072 429.323 156.788 429.653 170.667C430.72 192 430.933 199.893 430.933 256C430.933 312.102 430.933 320.001 429.653 341.333C429.498 354.875 427.045 368.292 422.4 381.013C415.182 399.618 400.471 414.328 381.867 421.547C369.146 426.192 355.728 428.645 342.187 428.8C320.853 429.867 312.96 430.08 256.853 430.08C200.747 430.08 192.853 430.08 171.52 428.8C157.456 429.116 143.446 426.949 130.133 422.4C111.529 415.182 96.8184 400.471 89.6 381.867C84.8586 368.876 82.4045 355.162 82.3467 341.333C82.3467 333.196 82.1605 327.015 81.9301 319.367C81.5565 306.964 81.0667 290.706 81.0667 256C81.0667 199.893 81.0667 192 82.3467 170.667C82.4045 156.838 84.8586 143.124 89.6 130.133C96.8184 111.529 111.529 96.8184 130.133 89.6001C143.124 84.8587 156.838 82.4046 170.667 82.3467C178.804 82.3467 184.986 82.1605 192.633 81.9301C205.036 81.5565 221.294 81.0667 256 81.0667Z"/></svg>