<svg width="512" height="512" viewBox="0 0 512 512" fill="none" xmlns="http://www.w3.org/2000/svg"><path d="M307.503 42.668L426.667 161.831V469.335H85.3333V42.668H307.503ZM289.813 85.3346H128V426.668H384V179.521L289.813 85.3346ZM202.667 320.001C220.34 320.001 234.667 334.328 234.667 352.001C234.667 369.674 220.34 384.001 202.667 384.001C184.994 384.001 170.667 369.674 170.667 352.001C170.667 334.328 184.994 320.001 202.667 320.001ZM219.006 164.455L234.091 179.54L188.831 224.786L234.144 270.101L219.059 285.186L158.719 224.846L219.006 164.455ZM293.181 163.936L353.468 224.326L293.128 284.666L278.043 269.581L323.355 224.267L278.096 179.021L293.181 163.936Z"/></svg>