<svg width="512" height="512" viewBox="0 0 512 512" fill="none" xmlns="http://www.w3.org/2000/svg"><path fill-rule="evenodd" clip-rule="evenodd" d="M354.348 99.4375C349.78 104.012 346.494 109.378 344.449 115.092C344.449 115.092 337.192 137.189 312.241 112.303L243.765 43.8385L187.888 99.7153C162.842 124.761 185.01 132.048 185.01 132.048C190.725 134.069 196.091 137.36 200.665 141.935C217.035 158.299 217.035 184.845 200.665 201.209L200.659 201.221C184.283 217.585 157.748 217.585 141.372 201.221C136.798 196.641 133.5 191.275 131.485 185.554C131.485 185.554 124.198 163.393 99.147 188.438L41.9583 245.633L110.334 313.997C135.38 339.043 113.212 346.335 113.212 346.335C107.492 348.368 102.131 351.636 97.5514 356.228C81.1873 372.604 81.1873 399.133 97.5514 415.503H97.5573C113.927 431.879 140.474 431.891 156.832 415.503C161.412 410.947 164.704 405.575 166.725 399.86C166.725 399.86 174.012 377.698 199.063 402.744L266.819 470.505L324.001 413.311C349.041 388.265 326.897 380.966 326.897 380.966C321.182 378.928 315.805 375.659 311.254 371.079C294.878 354.709 294.878 328.163 311.236 311.805L311.254 311.793C327.63 295.417 354.165 295.417 370.529 311.793C375.091 316.349 378.389 321.721 380.41 327.436C380.41 327.436 387.685 349.609 412.748 324.57L468.625 268.693L400.775 200.849C375.901 175.874 398.003 168.611 398.003 168.611C403.73 166.596 409.09 163.298 413.652 158.73C430.028 142.354 430.028 115.819 413.652 99.4434H413.629C397.265 83.0616 370.736 83.0616 354.348 99.4375Z"/></svg>