<svg width="512" height="512" viewBox="0 0 512 512" fill="none" xmlns="http://www.w3.org/2000/svg"><path fill-rule="evenodd" clip-rule="evenodd" d="M321.338 42.6641H85.7031V276.056H128.001V85.3307L305.083 85.0989L384.001 170.664V276.056H426.667V149.331L321.338 42.6641ZM348.99 447.996V320.023H377.937L409.023 377.643C413.409 385.771 418.124 395.796 423.168 407.717C422.894 402.358 422.757 394.2 422.757 383.242V320.023H448.004V447.996H419.55L390.437 394.351C384.626 383.694 379.089 372.254 373.825 360.032C374.1 367.678 374.237 377.914 374.237 390.738V447.996H348.99ZM321.8 336.912C312.041 324.148 298.006 317.766 279.694 317.766C262.918 317.766 249.732 323.094 240.138 333.751C229.063 346.154 223.526 362.651 223.526 383.242C223.526 402.93 228.214 418.886 237.589 431.108C247.348 443.872 261.383 450.254 279.694 450.254C296.526 450.254 309.711 444.896 319.251 434.178C330.325 421.776 335.863 405.068 335.863 384.055C335.863 364.849 331.175 349.134 321.8 336.912ZM257.655 353.349C262.808 344.679 270.127 340.344 279.612 340.344C288.275 340.344 295.21 344.047 300.418 351.452C305.956 359.279 308.724 370.147 308.724 384.055C308.724 396.699 306.394 406.874 301.734 414.581C296.471 423.311 289.124 427.676 279.694 427.676C271.087 427.676 264.179 423.973 258.971 416.567C253.433 408.74 250.665 397.722 250.665 383.513C250.665 371.231 252.995 361.176 257.655 353.349ZM134.578 443.029L138.361 418.464C151.684 424.605 162.978 427.676 172.243 427.676C178.274 427.676 182.715 426.05 185.566 422.799C188.033 419.969 189.266 416.507 189.266 412.413C189.266 408.74 188.06 405.881 185.648 403.833C183.235 401.786 177.287 398.625 167.802 394.351C160.785 391.16 155.823 388.781 152.917 387.216C150.066 385.651 147.435 383.874 145.022 381.888C138.169 376.288 134.743 368.22 134.743 357.684C134.743 348.592 136.99 340.615 141.486 333.751C148.394 323.094 159.743 317.766 175.533 317.766C186.936 317.766 199.327 320.084 212.704 324.72L207.441 348.201C199.546 345.01 193.597 342.903 189.595 341.879C185.648 340.856 181.508 340.344 177.177 340.344C172.243 340.344 168.487 341.548 165.911 343.956C163.224 346.545 161.881 349.827 161.881 353.8C161.881 357.232 163.005 359.942 165.253 361.928C167.555 363.855 173.038 366.775 181.7 370.689C190.308 374.602 196.01 377.342 198.806 378.907C201.602 380.412 204.234 382.189 206.701 384.236C213.444 389.895 216.816 398.535 216.816 410.155C216.816 423.883 212.567 434.269 204.069 441.313C196.832 447.274 186.689 450.254 173.641 450.254C160.044 450.254 147.023 447.846 134.578 443.029ZM122.519 320.023H96.2854V401.756C96.2854 407.416 96.0936 411.6 95.7098 414.31C95.3808 416.959 94.7503 419.126 93.8183 420.812C91.3512 424.967 87.2393 427.044 81.4826 427.044C77.3708 427.044 72.4365 425.599 66.6798 422.709L64.5417 446.371C70.6821 448.96 78.0012 450.254 86.4991 450.254C105.304 450.254 116.708 442.216 120.71 426.141C121.916 421.264 122.519 411.028 122.519 395.434V320.023Z"/></svg>