<svg width="512" height="512" viewBox="0 0 512 512" fill="none" xmlns="http://www.w3.org/2000/svg"><path fill-rule="evenodd" clip-rule="evenodd" d="M373.333 309.333C402.789 309.333 426.667 285.455 426.667 256C426.667 226.545 402.789 202.667 373.333 202.667C343.878 202.667 320 226.545 320 256C320 285.455 343.878 309.333 373.333 309.333ZM373.333 352C327.646 352 289.413 320.085 279.712 277.333H170.667V341.333H85.3334V277.333H42.6667V234.667H279.712C289.413 191.915 327.646 160 373.333 160C426.353 160 469.333 202.981 469.333 256C469.333 309.019 426.353 352 373.333 352Z"/></svg>