<svg width="512" height="512" viewBox="0 0 512 512" fill="none" xmlns="http://www.w3.org/2000/svg"><path d="M469.333 85.3359V426.669H42.6667V85.3359H469.333ZM426.667 128.003H85.3334V384.003H128V256.003H384V384.003H426.667V128.003ZM362.667 277.336H149.333V384.003H362.667V277.336ZM186.667 341.336V362.669H170.667V341.336H186.667ZM341.333 341.336V362.669H325.333V341.336H341.333ZM298.667 341.336V362.669H213.333V341.336H298.667ZM186.667 298.669V320.003H170.667V298.669H186.667ZM229.333 298.669V320.003H213.333V298.669H229.333ZM272 298.669V320.003H256V298.669H272ZM341.333 298.669V320.003H298.667V298.669H341.333Z"/></svg>