<svg width="512" height="512" viewBox="0 0 512 512" fill="none" xmlns="http://www.w3.org/2000/svg"><path d="M469.333 85.3359V426.669H42.6667V85.3359H469.333ZM426.667 128.003H85.3334V384.003H426.667V128.003ZM384 170.669V341.336H128V170.669H384ZM362.667 192.003H149.333V320.003H362.667V192.003ZM186.667 277.336V298.669H170.667V277.336H186.667ZM341.333 277.336V298.669H325.333V277.336H341.333ZM298.667 277.336V298.669H213.333V277.336H298.667ZM186.667 213.336V234.669H170.667V213.336H186.667ZM229.333 213.336V234.669H213.333V213.336H229.333ZM272 213.336V234.669H256V213.336H272ZM341.333 213.336V234.669H298.667V213.336H341.333Z"/></svg>