<svg width="512" height="512" viewBox="0 0 512 512" fill="none" xmlns="http://www.w3.org/2000/svg"><path fill-rule="evenodd" clip-rule="evenodd" d="M106.667 64V405.333H448V448H64V64H106.667ZM192 256C227.346 256 256 284.654 256 320C256 355.346 227.346 384 192 384C156.654 384 128 355.346 128 320C128 284.654 156.654 256 192 256ZM192 298.667C180.218 298.667 170.667 308.218 170.667 320C170.667 331.782 180.218 341.333 192 341.333C203.782 341.333 213.333 331.782 213.333 320C213.333 308.218 203.782 298.667 192 298.667ZM448 64V213.333H405.333L405.319 136.725L270.007 272.063L239.837 241.893L375.047 106.667H298.667V64H448Z"/></svg>