<svg width="512" height="512" viewBox="0 0 512 512" fill="none" xmlns="http://www.w3.org/2000/svg"><path fill-rule="evenodd" clip-rule="evenodd" d="M448 64H64V362.667H246.081C238.822 350.116 234.667 335.543 234.667 320H106.667V106.667H405.333V319.998V320C405.333 335.543 401.178 350.116 393.918 362.667H448V64ZM242.016 449.128L268.078 387.728C279.297 396.341 292.718 402.23 307.351 404.403L281.29 465.799L242.016 449.128ZM358.712 465.798L332.651 404.402C347.284 402.227 360.705 396.338 371.923 387.725L397.987 449.126L358.712 465.798ZM319.996 256C355.35 256 384 284.652 384 319.999C384 355.348 355.349 384 319.996 384C284.65 384 256 355.348 256 319.999C256 284.652 284.649 256 319.996 256ZM149.333 149.333H362.667V192H149.333V149.333ZM234.667 234.667H149.333V277.333H234.667V234.667ZM341.333 320C341.333 308.217 331.783 298.667 319.999 298.667C308.216 298.667 298.667 308.217 298.667 320C298.667 331.783 308.217 341.333 319.999 341.333C331.783 341.333 341.333 331.783 341.333 320Z"/></svg>