<svg width="512" height="512" viewBox="0 0 512 512" fill="none" xmlns="http://www.w3.org/2000/svg"><path fill-rule="evenodd" clip-rule="evenodd" d="M301.255 180.575L331.424 210.745L210.745 331.425L180.575 301.255L301.255 180.575V180.575ZM301.255 331.425L256 376.68C222.728 409.951 168.592 409.951 135.32 376.68C102.048 343.408 102.048 289.272 135.32 256L180.575 210.745L150.405 180.575L105.15 225.83C55.163 275.817 55.163 356.862 105.15 406.85C155.138 456.837 236.182 456.837 286.17 406.85L331.424 361.595L301.255 331.425ZM225.83 105.151L180.575 150.405L210.745 180.575L256 135.321C289.272 102.049 343.408 102.049 376.679 135.321C409.951 168.592 409.951 222.728 376.679 256L331.424 301.255L361.594 331.425L406.849 286.17C456.836 236.183 456.836 155.138 406.849 105.151C356.862 55.1633 275.817 55.1633 225.83 105.151Z"/></svg>