<svg width="512" height="512" viewBox="0 0 512 512" fill="none" xmlns="http://www.w3.org/2000/svg"><g clip-path="url(#clip0_11274_2112)"><path fill-rule="evenodd" clip-rule="evenodd" d="M258.588 352.758L234.667 376.68C201.395 409.951 147.259 409.951 113.987 376.68C80.7156 343.408 80.7156 289.272 113.987 256L137.909 232.079L107.739 201.909L83.8175 225.83C33.8303 275.817 33.8303 356.862 83.8175 406.85C133.805 456.837 214.85 456.837 264.837 406.85L288.758 382.928L258.588 352.758ZM341.333 106.667L298.667 106.667V149.333L341.333 149.333C388.387 149.333 426.667 187.613 426.667 234.667C426.667 281.72 388.387 320 341.333 320H298.667V362.667L341.333 362.667C412.026 362.667 469.333 305.359 469.333 234.667C469.333 163.974 412.026 106.667 341.333 106.667ZM213.333 170.666V63.9994H255.999V170.666H213.333ZM172.277 207.905L96.8527 132.481L127.023 102.311L202.447 177.735L172.277 207.905ZM193.362 254.185L153.6 307.2L187.733 332.8L237.77 266.084L193.362 254.185ZM257.672 256H341.333V213.334H269.105L257.672 256Z"/></g><defs><clipPath id="clip0_11274_2112"><rect width="512" height="512"/></clipPath></defs></svg>