<svg width="512" height="512" viewBox="0 0 512 512" fill="none" xmlns="http://www.w3.org/2000/svg"><path fill-rule="evenodd" clip-rule="evenodd" d="M106.667 213.333V98.1271L77.5732 116.284L62.2832 91.1191L110.383 62.875H139.477V213.333H106.667ZM469.333 170.667L213.333 170.667V128L469.333 128V170.667ZM213.333 384L469.333 384V341.333L213.333 341.333V384ZM64.0002 401.105V426.667H174.555V400.04H111.609C125.384 388.111 136.638 377.78 145.372 369.046C155.951 358.467 163.229 349.449 167.206 341.993C171.253 334.538 173.277 326.266 173.277 317.177C173.277 302.905 168.271 291.9 158.259 284.16C148.744 276.776 135.395 273.083 118.212 273.083C100.816 273.083 83.1714 276.598 65.2782 283.628L73.7988 310.041C89.9879 303.154 103.408 299.71 114.059 299.71C121.514 299.71 127.549 301.485 132.165 305.035C136.851 308.515 139.194 313.059 139.194 318.668C139.194 324.136 137.242 329.71 133.336 335.39C129.502 340.999 122.047 349.129 110.97 359.78C100.603 369.721 84.9466 383.496 64.0002 401.105Z"/></svg>