<svg width="512" height="512" viewBox="0 0 512 512" fill="none" xmlns="http://www.w3.org/2000/svg"><path fill-rule="evenodd" clip-rule="evenodd" d="M426.667 320V256H384V170.667C384 100.362 326.49 42.667 256 42.667C185.51 42.667 128 100.362 128 170.667V256H85.3334V469.334H213.333V426.667H128V298.667H384V331.416C396.551 324.156 411.124 320 426.667 320ZM170.667 170.667C170.667 124.329 208.669 85.3337 256 85.3337C303.33 85.3337 341.333 124.329 341.333 170.667V256H170.667V170.667ZM490.667 405.334C490.667 369.987 462.013 341.334 426.667 341.334C398.801 341.334 375.094 359.143 366.308 384H234.667V426.667H256V469.334H320V426.667H366.308C375.094 451.524 398.801 469.334 426.667 469.334C462.013 469.334 490.667 440.68 490.667 405.334ZM394.667 405.334C394.667 387.661 408.994 373.334 426.667 373.334C444.34 373.334 458.667 387.661 458.667 405.334C458.667 423.007 444.34 437.334 426.667 437.334C408.994 437.334 394.667 423.007 394.667 405.334Z"/></svg>