<svg width="512" height="512" viewBox="0 0 512 512" fill="none" xmlns="http://www.w3.org/2000/svg"><path fill-rule="evenodd" clip-rule="evenodd" d="M106.667 42.6665H128H362.667H384V63.9998V149.333H341.333V85.3332H149.333V106.667H192H213.333H277.333H298.667V128V213.333V234.667H277.333H266.667V298.667H224V234.667H213.333H192V213.333V149.333H149.333H106.667V63.9998V42.6665ZM256 192H234.667V149.333H256V192ZM85.3333 170.667H64V192V426.667V448H85.3333H405.333H426.667V426.667V192V170.667H405.333H320V213.333H384V405.333H106.667V213.333H170.667V170.667H85.3333ZM149.333 277.333V341.333V362.667H170.667H320H341.333V341.333V277.333H298.667V320H192V277.333H149.333Z"/></svg>