<svg width="512" height="512" viewBox="0 0 512 512" fill="none" xmlns="http://www.w3.org/2000/svg"><path fill-rule="evenodd" clip-rule="evenodd" d="M389.676 102.627L387.382 85.3335H333.73L331.43 102.616L329.997 113.323L327.18 114.952L324.656 116.616L315.166 112.577L299.873 106.072L291.616 121.147L281.351 139.888L273.079 154.989L286.08 165.749L294.112 172.394L294.087 172.705C294.04 173.712 294.015 174.706 294.015 175.686L294.087 178.643L294.131 179.06L286.082 185.729L273.073 196.488L281.347 211.593L291.618 230.344L299.873 245.417L315.166 238.915L324.637 234.878L327.271 236.618L329.997 238.171L331.405 248.748L333.699 266.039H387.348L389.649 248.758L391.065 238.03L393.899 236.422L396.406 234.737L405.911 238.795L421.206 245.3L429.463 230.225L439.728 211.485L448 196.384L434.999 185.624L426.969 178.979L426.99 178.668C427.039 177.661 427.062 176.667 427.062 175.686L426.992 172.73L426.95 172.273L435.001 165.633L448 154.873L439.728 139.773L429.461 121.028L421.204 105.956L405.913 112.458L396.425 116.475L393.808 114.754L391.065 113.182L389.676 102.627ZM178.308 245.961L180.601 263.255L181.991 273.81L184.734 275.382L187.351 277.103L196.839 273.085L212.131 266.583L220.387 281.656L230.654 300.402L238.926 315.501L225.927 326.261L217.876 332.901L217.918 333.358L217.989 336.314C217.989 337.294 217.964 338.288 217.916 339.296L217.895 339.607L225.925 346.251L238.926 357.011L230.654 372.112L220.388 390.853L212.131 405.928L196.838 399.422L187.332 395.365L184.824 397.049L181.991 398.657L180.575 409.385L178.274 426.667H124.626L122.332 409.375L120.922 398.798L118.196 397.246L115.562 395.505L106.091 399.543L90.7989 406.044L82.5436 390.971L72.2734 372.22L64 357.115L77.0069 346.357L85.0566 339.687L85.0121 339.269L84.9414 336.314C84.9414 335.334 84.9658 334.34 85.0137 333.332L85.0374 333.021L77.0048 326.377L64.004 315.617L72.2759 300.516L82.5418 281.775L90.7989 266.7L106.092 273.205L115.581 277.243L118.106 275.579L120.922 273.95L122.355 263.242L124.656 245.961H178.308ZM448 384H256V426.667H448V384ZM64 85.3335H256V128H64V85.3335ZM256 213.333H213.333V256H256V213.333Z"/></svg>