<svg width="512" height="512" viewBox="0 0 512 512" fill="none" xmlns="http://www.w3.org/2000/svg"><path fill-rule="evenodd" clip-rule="evenodd" d="M96 42.6665H68.0693L75.4185 69.6131L102.978 170.667H64H42.6667V192V362.667V384H64H85.3333V448H128V384H213.333V448H256V384H277.333H298.667V362.667H384V448H426.667V362.667H469.333V320H298.667V192V170.667H277.333H217.022L244.582 69.6131L251.93 42.6665H224H96ZM172.797 170.667L196.069 85.3332H123.931L147.203 170.667H172.797ZM85.3333 341.333V213.333H256V341.333H85.3333ZM341.333 192H320V213.333V277.333V298.667H341.333H426.667H448V277.333V213.333V192H426.667H341.333ZM362.667 256V234.667H405.333V256H362.667Z"/></svg>