<svg width="512" height="512" viewBox="0 0 512 512" fill="none" xmlns="http://www.w3.org/2000/svg"><path d="M320 106.668C402.475 106.668 469.333 173.527 469.333 256.001C469.333 338.476 402.475 405.335 320 405.335H192V277.335H320C331.782 277.335 341.333 267.783 341.333 256.001C341.333 245.061 333.098 236.044 322.488 234.812L320 234.668H192V106.668H320ZM149.333 362.668V405.335H42.6667V362.668H149.333ZM320 149.335H277.333V192.001H320C355.346 192.001 384 220.655 384 256.001C384 291.348 355.346 320.001 320 320.001H277.333V362.668H320C378.91 362.668 426.667 314.912 426.667 256.001C426.667 198.641 381.391 151.856 324.627 149.433L320 149.335ZM149.333 277.335V320.001H42.6667V277.335H149.333ZM149.333 192.001V234.668H42.6667V192.001H149.333ZM149.333 106.668V149.335H42.6667V106.668H149.333Z"/></svg>