<svg width="24" height="24" viewBox="0 0 24 24" fill="none" xmlns="http://www.w3.org/2000/svg"><path d="M22 8V16L16 22H8L2 16V8L8 2H16L22 8ZM4 8.7998V15.2002L8.7998 20H15.2002L20 15.2002V8.7998L15.2002 4H8.7998L4 8.7998ZM9.375 7.06738C10.2636 6.86651 11.5037 7.11461 12.4521 7.83594C13.2085 8.81947 13.463 10.0297 13.2207 10.9131C13.1904 11.0584 14.2567 12.192 16.4189 14.3135C17.1261 15.0206 17.1261 15.7284 16.4189 16.4355C15.7536 17.1006 15.0882 17.1397 14.4229 16.5527L10.9131 13.2207C10.0296 13.4631 8.81942 13.2086 7.83594 12.4521C7.11462 11.5037 6.8665 10.2636 7.06738 9.375L8.60547 10.9131L10.1436 10.1436L10.9131 8.60547L9.375 7.06738Z"/></svg>