<svg width="24" height="24" viewBox="0 0 24 24" fill="none" xmlns="http://www.w3.org/2000/svg"><path fill-rule="evenodd" clip-rule="evenodd" d="M8.06222 7.93778L9 5.12694L6.15844 2.2879C6.73871 2.10097 7.35756 2 8 2C11.3137 2 14 4.68629 14 8C14 8.60617 13.9101 9.19135 13.7429 9.74293L20 16C21.1046 17.1046 21.1046 18.8954 20 20C18.8954 21.1046 17.1046 21.1046 16 20L9.74293 13.7429C9.19135 13.9101 8.60617 14 8 14C4.68629 14 2 11.3137 2 8C2 7.36051 2.10005 6.74438 2.28534 6.16642L5.12351 9L7.937 8.063L8.06222 7.93778Z"/></svg>