<svg width="24" height="24" viewBox="0 0 24 24" fill="none" xmlns="http://www.w3.org/2000/svg"><path fill-rule="evenodd" clip-rule="evenodd" d="M13.2901 4.00806C13.1129 3.698 12.856 3.44103 12.5459 3.26386C11.5869 2.71584 10.3652 3.04903 9.81715 4.00806L1.26351 18.9769C1.09083 19.2791 1 19.6212 1 19.9692C1 21.0738 1.89543 21.9692 3 21.9692H20.1073C20.4553 21.9692 20.7974 21.8784 21.0996 21.7057C22.0586 21.1577 22.3918 19.936 21.8438 18.9769L13.2901 4.00806ZM10.9132 11.6055L10.144 13.144L8.60555 13.9132L7.06708 12.3748C6.86613 13.2634 7.11496 14.5032 7.83631 15.4517C8.81983 16.2081 10.0298 16.4633 10.9132 16.2209L14.4227 19.5525C15.0882 20.1397 15.7537 20.1006 16.4193 19.4351C17.1264 18.728 17.1264 18.0209 16.4193 17.3138C14.2568 15.1921 13.1907 14.0586 13.2209 13.9132C13.4633 13.0299 13.2081 11.8199 12.4517 10.8363C11.5032 10.1149 10.2633 9.86615 9.37478 10.0671L10.9132 11.6055Z"/></svg>