<svg width="24" height="24" viewBox="0 0 24 24" fill="none" xmlns="http://www.w3.org/2000/svg"><path d="M10.5853 2.11167C11.3663 1.33062 12.6334 1.33062 13.4144 2.11167L21.888 10.5853C22.6691 11.3663 22.6691 12.6334 21.888 13.4144L13.4144 21.888C12.6334 22.6691 11.3663 22.6691 10.5853 21.888L2.11167 13.4144C1.33062 12.6334 1.33062 11.3663 2.11167 10.5853L10.5853 2.11167ZM12.471 7.89487C11.5225 7.1735 10.2825 6.92441 9.39389 7.12534L10.933 8.66342L10.1634 10.2025L8.62534 10.971L7.08627 9.43295C6.88536 10.3216 7.13447 11.5616 7.85581 12.5101C8.8393 13.2665 10.0495 13.521 10.933 13.2787L14.4417 16.6107C15.1072 17.1979 15.7733 17.1589 16.4388 16.4935C17.1458 15.7865 17.1456 15.0794 16.4388 14.3724C14.2763 12.2507 13.2103 11.1164 13.2406 10.971C13.4828 10.0878 13.2272 8.87826 12.471 7.89487Z"/></svg>