<svg width="24" height="24" viewBox="0 0 24 24" fill="none" xmlns="http://www.w3.org/2000/svg"><path d="M10.3174 3.00775C10.8655 2.04903 12.087 1.71576 13.0459 2.26361C13.3559 2.44073 13.6129 2.69782 13.79 3.00775L22.3438 17.9765C22.8918 18.9355 22.5586 20.158 21.5996 20.706C21.2975 20.8786 20.9554 20.9696 20.6074 20.9697H3.5C2.39557 20.9697 1.50023 20.074 1.5 18.9697C1.5 18.6216 1.59099 18.2787 1.76367 17.9765L10.3174 3.00775ZM3.5 18.9697H13.7559L11.9131 17.2206C11.0296 17.463 9.81943 17.2085 8.83594 16.4521C8.1146 15.5036 7.86646 14.2635 8.06738 13.3749L9.60547 14.913L11.1436 14.1445L11.9131 12.6054L10.375 11.0673C11.2636 10.8665 12.5037 11.1145 13.4521 11.8359C14.2085 12.8194 14.463 14.0297 14.2207 14.913C14.1904 15.0584 15.2567 16.192 17.4189 18.3134C17.6375 18.532 17.7886 18.7511 17.8721 18.9697H20.6074L12.0537 3.99993L3.5 18.9697Z"/></svg>