<svg width="512" height="512" viewBox="0 0 512 512" fill="none" xmlns="http://www.w3.org/2000/svg"><path fill-rule="evenodd" clip-rule="evenodd" d="M234.663 448V323.605L64 253.312L64.0091 448H234.663ZM447.991 411.456L277.328 341.163V448H448L447.991 411.456ZM447.991 365.333L448 64H191.997V259.904L447.991 365.333ZM149.331 242.325V64H64.0091L64 207.189L149.331 242.325ZM319.993 106.667C351.412 106.667 376.882 132.137 376.882 163.556C376.882 173.919 374.119 183.629 369.269 192.003C364.42 200.377 319.993 277.333 319.993 277.333C319.993 277.333 275.566 200.377 270.717 192.003C265.867 183.629 263.104 173.919 263.104 163.556C263.104 132.137 288.574 106.667 319.993 106.667ZM344.378 163.556C344.378 177.021 333.462 187.937 319.997 187.937C306.532 187.937 295.616 177.021 295.616 163.556C295.616 150.09 306.532 139.175 319.997 139.175C333.462 139.175 344.378 150.09 344.378 163.556Z"/></svg>