<svg width="512" height="512" viewBox="0 0 512 512" fill="none" xmlns="http://www.w3.org/2000/svg"><path fill-rule="evenodd" clip-rule="evenodd" d="M298.66 42.6641C341.861 42.6641 376.882 77.6853 376.882 120.886C376.882 135.136 373.083 148.488 366.415 160.002C359.747 171.516 298.66 277.331 298.66 277.331C298.66 277.331 237.573 171.516 230.905 160.002C224.237 148.488 220.438 135.136 220.438 120.886C220.438 77.6853 255.459 42.6641 298.66 42.6641ZM332.182 120.886C332.182 139.401 317.173 154.41 298.658 154.41C280.144 154.41 265.135 139.401 265.135 120.886C265.135 102.372 280.144 87.3626 298.658 87.3626C317.173 87.3626 332.182 102.372 332.182 120.886ZM193.065 192.102H48.0002L147.689 325.021L230.869 251.082C217.095 232.205 204.017 212.743 193.065 192.102ZM348.444 320.102H469.333V426.663H450.031L348.444 320.102ZM391.11 426.663H224L173.378 359.272L256.48 285.405L391.11 426.663ZM42.6667 256.102L170.667 426.663H42.6667V256.102ZM469.335 192.102H404.268L346.438 277.435H469.335V192.102Z"/></svg>