<svg width="512" height="512" viewBox="0 0 512 512" fill="none" xmlns="http://www.w3.org/2000/svg"><path fill-rule="evenodd" clip-rule="evenodd" d="M298.66 42.6641C341.861 42.6641 376.882 77.6853 376.882 120.886C376.882 135.136 373.083 148.488 366.415 160.002C359.747 171.516 298.66 277.331 298.66 277.331C298.66 277.331 237.573 171.516 230.905 160.002C224.237 148.488 220.438 135.136 220.438 120.886C220.438 77.6853 255.459 42.6641 298.66 42.6641ZM298.66 277.331L426.667 277.331V234.664H384V191.997H469.333V426.664H42.6667V191.997H192V234.664H90.6667L154.089 319.997L231.159 250.877L254.814 277.331L298.66 277.331ZM332.182 120.886C332.182 139.401 317.173 154.41 298.658 154.41C280.144 154.41 265.135 139.401 265.135 120.886C265.135 102.372 280.144 87.3626 298.658 87.3626C317.173 87.3626 332.182 102.372 332.182 120.886ZM179.778 354.131L256.77 285.224L349.129 383.997H202.667L179.778 354.131ZM426.667 383.997H405.333L347.759 319.997H426.667V383.997ZM85.3333 298.664L149.333 383.997H85.3333V298.664Z"/></svg>