<svg width="512" height="512" viewBox="0 0 512 512" fill="none" xmlns="http://www.w3.org/2000/svg"><path fill-rule="evenodd" clip-rule="evenodd" d="M266.667 288.003C266.667 309.257 272.318 329.191 282.2 346.385L266.758 352.605L192 381.879V140.468L298.667 90.3479V207.471C278.828 228.484 266.667 256.823 266.667 288.003ZM469.333 145.48V207.471C447.941 184.811 417.622 170.669 384 170.669C360.389 170.669 338.406 177.644 320 189.645V89.3455L469.333 145.48ZM170.667 381.427V140.853L42.6667 85.3359V325.911L170.667 381.427ZM383.993 213.336C427.194 213.336 462.215 248.357 462.215 291.558C462.215 305.808 458.416 319.159 451.748 330.674C445.08 342.188 383.993 448.003 383.993 448.003C383.993 448.003 322.906 342.188 316.238 330.674C309.57 319.159 305.771 305.808 305.771 291.558C305.771 248.357 340.792 213.336 383.993 213.336ZM417.516 291.558C417.516 310.073 402.506 325.082 383.992 325.082C365.477 325.082 350.468 310.073 350.468 291.558C350.468 273.044 365.477 258.034 383.992 258.034C402.506 258.034 417.516 273.044 417.516 291.558Z"/></svg>