<svg width="512" height="512" viewBox="0 0 512 512" fill="none" xmlns="http://www.w3.org/2000/svg"><path fill-rule="evenodd" clip-rule="evenodd" d="M448 448V64H64V448H448ZM106.667 405.333V270.912L234.667 323.605V405.333H106.667ZM277.333 405.333V341.184L405.333 393.877V405.333H277.333ZM192 106.667H405.333V347.755L192 259.904V106.667ZM106.667 106.667H149.333V242.347L106.667 224.768V106.667ZM319.993 128C351.412 128 376.882 153.47 376.882 184.889C376.882 195.252 374.119 204.963 369.269 213.337C364.42 221.711 319.993 298.667 319.993 298.667C319.993 298.667 275.566 221.711 270.717 213.337C265.867 204.963 263.104 195.252 263.104 184.889C263.104 153.47 288.574 128 319.993 128ZM344.378 184.889C344.378 198.354 333.462 209.27 319.997 209.27C306.532 209.27 295.616 198.354 295.616 184.889C295.616 171.424 306.532 160.508 319.997 160.508C333.462 160.508 344.378 171.424 344.378 184.889Z"/></svg>