<svg width="512" height="512" viewBox="0 0 512 512" fill="none" xmlns="http://www.w3.org/2000/svg"><path d="M448 64V185.221C437.077 168.792 422.459 155.031 405.333 145.124V106.667H64.0003V320H230.457C240.364 337.126 254.125 351.744 270.554 362.667H256V426.667H341.333V469.333H128V426.667H213.333V362.667H21.3333V64H448ZM341.333 149.333C400.244 149.333 448 197.09 448 256C448 277.74 441.481 297.95 430.313 314.812L478.229 362.688L448.083 392.854L400.146 344.979C383.284 356.147 363.073 362.667 341.333 362.667C282.423 362.667 234.666 314.91 234.666 256C234.666 197.09 282.423 149.333 341.333 149.333ZM341.333 192C305.987 192 277.333 220.654 277.333 256C277.333 291.346 305.987 320 341.333 320C376.68 320 405.333 291.346 405.333 256C405.333 220.654 376.68 192 341.333 192ZM341.333 128C270.641 128 213.333 185.308 213.333 256C213.333 270.96 215.9 285.322 220.617 298.667H85.3333V128H341.333Z"/></svg>