<svg xmlns="http://www.w3.org/2000/svg" width="512" height="512" viewBox="0 0 512 512"><path fill-rule="evenodd" d="M384,1.42108547e-14 L384,384 L1.42108547e-14,384 L1.42108547e-14,1.42108547e-14 L384,1.42108547e-14 Z M341.333333,42.6666667 L42.6666667,42.6666667 L42.6666667,341.333333 L341.333333,341.333333 L341.333333,42.6666667 Z M304.154621,212.714848 L320.618486,240.154621 L306.898599,248.386553 L200.231932,312.386553 L187.149827,320.235817 L178.687195,307.54187 L152.512,268.288 L94.9333333,311.466667 L82.1333333,321.066667 L62.9333333,295.466667 L75.7333333,285.866667 L146.844444,232.533333 L160.375293,222.385197 L169.757249,236.45813 L196.842667,277.077333 L290.434735,220.94678 L304.154621,212.714848 Z M297.161513,84.0893658 L321.243968,105.161513 L310.707894,117.20274 L236.041227,202.536074 L226.800665,213.096717 L215.124797,205.312805 L162.773333,170.432 L97.3745604,245.20274 L86.8384867,257.243968 L62.7560325,236.17182 L73.2921062,224.130593 L147.958773,138.79726 L157.199335,128.236617 L168.875203,136.020529 L221.205333,170.88 L286.62544,96.1305929 L297.161513,84.0893658 Z" transform="translate(64 64)"/></svg>