<svg width="512" height="512" viewBox="0 0 512 512" fill="none" xmlns="http://www.w3.org/2000/svg"><path fill-rule="evenodd" clip-rule="evenodd" d="M298.667 267.302L333.347 288.978L253.414 368.911L313.754 429.251L341.335 401.707V425.17L256 459.302L42.6667 352.635L213.333 267.302L256 288.635L298.667 267.302ZM256 53.9688L469.333 160.635L256 267.302L42.6667 160.635L256 53.9688ZM256 101.649L138.048 160.635L256 219.601L373.931 160.635L256 101.649ZM484.419 368.918L454.25 399.088L405.334 350.172V469.336H362.667V350.174L313.753 399.088L283.583 368.918L384.001 268.5L484.419 368.918Z"/></svg>