<svg width="512" height="512" viewBox="0 0 512 512" fill="none" xmlns="http://www.w3.org/2000/svg"><path fill-rule="evenodd" clip-rule="evenodd" d="M405.333 351.997V64.8125L170.667 156.072V342.398C167.22 341.698 163.653 341.331 160 341.331C130.545 341.331 106.667 365.209 106.667 394.664C106.667 424.119 130.545 447.997 160 447.997C189.455 447.997 213.333 424.12 213.333 394.665V247.576L362.667 186.086V299.731C359.22 299.031 355.653 298.664 352 298.664C322.545 298.664 298.667 322.542 298.667 351.997C298.667 381.453 322.545 405.331 352 405.331C381.455 405.331 405.333 381.453 405.333 351.999C405.333 351.998 405.333 351.998 405.333 351.997ZM362.667 351.997C362.667 346.106 357.891 341.331 352 341.331C346.109 341.331 341.333 346.106 341.333 351.997C341.333 357.888 346.109 362.664 352 362.664C357.891 362.664 362.666 357.889 362.667 351.999C362.667 351.998 362.667 351.998 362.667 351.997ZM213.333 185.259V212.97L362.667 151.479V127.185L213.333 185.259ZM170.667 394.664C170.667 400.555 165.891 405.331 160 405.331C154.109 405.331 149.333 400.555 149.333 394.664C149.333 388.773 154.109 383.997 160 383.997C165.891 383.997 170.667 388.773 170.667 394.664Z"/></svg>