<svg width="512" height="512" viewBox="0 0 512 512" fill="none" xmlns="http://www.w3.org/2000/svg"><path d="M426.667 42.668V298.668H277.333L277.353 344.983C295.529 351.414 309.934 365.824 316.359 384.003L469.333 384.001V426.668L316.352 426.687C307.56 451.535 283.859 469.335 256 469.335C228.141 469.335 204.44 451.535 195.649 426.687L42.6667 426.668V384.001L195.641 384.003C202.068 365.817 216.482 351.403 234.669 344.976L234.667 298.668H85.3334V42.668H426.667ZM256 384.001C244.218 384.001 234.667 393.553 234.667 405.335C234.667 417.117 244.218 426.668 256 426.668C267.782 426.668 277.333 417.117 277.333 405.335C277.333 393.553 267.782 384.001 256 384.001Z"/></svg>