<svg width="512" height="512" viewBox="0 0 512 512" fill="none" xmlns="http://www.w3.org/2000/svg"><path fill-rule="evenodd" clip-rule="evenodd" d="M405.333 42.668H64V298.668H213.333V344.976C195.149 351.404 180.736 365.816 174.308 384.001H64V426.668H174.308C183.094 451.525 206.801 469.335 234.667 469.335C253.748 469.335 270.878 460.985 282.604 447.739C265.979 427.491 256 401.578 256 373.335C256 363.99 257.092 354.901 259.156 346.187C258.118 345.757 257.065 345.353 256 344.976V298.668H282.819C304.34 272.609 336.897 256.001 373.333 256.001C384.427 256.001 395.161 257.541 405.333 260.418V42.668ZM213.333 405.335C213.333 393.553 222.885 384.001 234.667 384.001C246.449 384.001 256 393.553 256 405.335C256 417.117 246.449 426.668 234.667 426.668C222.885 426.668 213.333 417.117 213.333 405.335ZM469.333 373.335C469.333 320.315 426.353 277.335 373.333 277.335C320.314 277.335 277.333 320.315 277.333 373.335C277.333 426.354 320.314 469.335 373.333 469.335C426.353 469.335 469.333 426.354 469.333 373.335ZM341.555 326.599L426.888 374.599L341.555 422.599V326.599Z"/></svg>