<svg xmlns="http://www.w3.org/2000/svg" width="512" height="512" viewBox="0 0 512 512"><path fill-rule="evenodd" d="M30.169894,8.83689867 L392.836561,371.503561 L362.666662,401.673459 L344.993,384 L21.3333333,384.000333 L21.333,60.339 L7.10542736e-15,39.0067927 L30.169894,8.83689867 Z M234.666667,298.667 L128,192.000333 L63.999,293.12 L63.9993333,341.333333 L302.326,341.333 L246.044,285.05 L234.666667,298.667 Z M405.333333,0.000333333343 L405.333,323.661 L271.129,189.457 L298.666667,161.920333 L362.666,225.92 L362.666333,42.6663333 L124.338,42.666 L81.672,4.26325641e-14 L405.333333,0.000333333343 Z M63.999,103.005 L63.999,211.877 L105.74,144.746 L63.999,103.005 Z M266.666667,85.3336667 C284.339779,85.3336667 298.666667,99.6605547 298.666667,117.333667 C298.666667,135.006779 284.339779,149.333667 266.666667,149.333667 C248.993555,149.333667 234.666667,135.006779 234.666667,117.333667 C234.666667,99.6605547 248.993555,85.3336667 266.666667,85.3336667 Z" transform="translate(42.667 64)"/></svg>