<svg width="512" height="512" viewBox="0 0 512 512" fill="none" xmlns="http://www.w3.org/2000/svg"><path d="M448 64V362.667H277.333V426.667H362.667V469.333H149.333V426.667H234.667V362.667H64V64H448ZM405.333 106.667H106.667V320H405.333V106.667ZM201.768 144.604C222.643 144.604 238.643 151.229 249.768 164.479C260.456 177.167 265.8 193.479 265.8 213.417C265.8 235.229 259.487 252.573 246.862 265.448C235.987 276.573 220.956 282.136 201.768 282.136C180.893 282.136 164.893 275.511 153.768 262.261C143.081 249.573 137.737 233.011 137.737 212.573C137.737 191.198 144.05 174.073 156.675 161.198C167.612 150.136 182.643 144.604 201.768 144.604ZM330.112 144.604C343.112 144.604 357.237 147.011 372.487 151.823L366.487 176.198C357.487 172.886 350.721 170.698 346.19 169.636C341.659 168.573 336.925 168.042 331.987 168.042C326.362 168.042 322.081 169.292 319.143 171.792C316.081 174.479 314.55 177.886 314.55 182.011C314.55 185.573 315.846 188.37 318.44 190.401C320.71 192.179 325.767 194.734 333.611 198.066L337.143 199.542C346.956 203.604 353.456 206.433 356.643 208.026C359.831 209.62 362.831 211.479 365.643 213.604C373.331 219.479 377.175 228.448 377.175 240.511C377.175 254.761 372.331 265.542 362.643 272.854C354.393 279.042 342.831 282.136 327.956 282.136C312.456 282.136 297.612 279.636 283.425 274.636L287.737 249.136C302.925 255.511 315.8 258.698 326.362 258.698C333.237 258.698 338.3 257.011 341.55 253.636C344.362 250.698 345.768 247.104 345.768 242.854C345.768 239.042 344.393 236.073 341.643 233.948C338.893 231.823 332.112 228.542 321.3 224.104C313.3 220.792 307.659 218.323 304.378 216.698C301.096 215.073 298.081 213.229 295.331 211.167C287.518 205.354 283.612 196.979 283.612 186.042C283.612 176.604 286.175 168.323 291.3 161.198C299.175 150.136 312.112 144.604 330.112 144.604ZM201.675 168.042C190.862 168.042 182.518 172.542 176.643 181.542C171.331 189.667 168.675 200.104 168.675 212.854C168.675 227.604 171.831 239.042 178.143 247.167C184.081 254.854 191.956 258.698 201.768 258.698C212.518 258.698 220.893 254.167 226.893 245.104C232.206 237.104 234.862 226.542 234.862 213.417C234.862 198.979 231.706 187.698 225.393 179.573C219.456 171.886 211.55 168.042 201.675 168.042Z"/></svg>