<svg width="512" height="512" viewBox="0 0 512 512" fill="none" xmlns="http://www.w3.org/2000/svg"><path d="M426.667 384H490.667V426.667H426.667V490.667H384V426.667H320V384H384V320H426.667V384ZM426.667 298.667H384V106.667H106.667V298.667H362.667V341.333H266.667V384H298.667V426.667H170.667V384H224V341.333H64V64H426.667V298.667ZM198.995 149.333C215.185 149.333 227.594 154.472 236.223 164.748C244.512 174.588 248.656 187.24 248.656 202.703C248.656 219.62 243.76 233.072 233.969 243.058C225.534 251.686 213.876 256 198.995 256C182.805 256 170.395 250.861 161.767 240.585C153.478 230.745 149.333 217.899 149.333 202.049C149.333 185.471 154.229 172.189 164.021 162.203C172.503 153.623 184.162 149.333 198.995 149.333ZM302.877 149.333C312.959 149.333 323.915 151.199 335.742 154.932L331.089 173.837C324.109 171.268 318.849 169.571 315.311 168.747C311.82 167.923 308.16 167.511 304.331 167.511C299.968 167.511 296.647 168.481 294.369 170.42C291.994 172.504 290.807 175.146 290.807 178.345C290.807 181.108 291.801 183.289 293.788 184.889C295.824 186.44 300.671 188.791 308.33 191.941C315.94 195.092 320.982 197.298 323.454 198.559C325.926 199.77 328.252 201.201 330.434 202.849C336.396 207.405 339.377 214.361 339.377 223.717C339.377 234.769 335.621 243.13 328.107 248.802C321.709 253.601 312.741 256 301.204 256C289.183 256 277.67 254.061 266.667 250.184L270.012 230.406C281.79 235.35 291.776 237.822 299.968 237.822C305.3 237.822 309.226 236.513 311.747 233.896C313.928 231.617 315.02 228.83 315.02 225.534C315.02 222.577 313.953 220.275 311.82 218.627C309.687 216.979 304.428 214.434 296.042 210.992C289.837 208.423 285.45 206.508 282.881 205.248C280.36 203.988 278.034 202.558 275.901 200.958C269.842 196.45 266.813 189.955 266.812 181.472C266.812 174.152 268.8 167.729 272.774 162.203C278.882 153.623 288.917 149.333 302.877 149.333ZM198.922 167.511C190.536 167.511 184.064 171.001 179.508 177.981C175.388 184.283 173.328 192.378 173.328 202.267C173.328 213.706 175.776 222.577 180.672 228.879C185.277 234.841 191.385 237.822 198.995 237.822C207.332 237.822 213.828 234.308 218.481 227.279C222.602 221.075 224.662 212.883 224.662 202.703C224.662 191.506 222.214 182.756 217.318 176.454C212.713 170.492 206.581 167.511 198.922 167.511Z"/></svg>