<svg width="512" height="512" viewBox="0 0 512 512" fill="none" xmlns="http://www.w3.org/2000/svg"><path fill-rule="evenodd" clip-rule="evenodd" d="M149.333 64V234.667L277.333 165.333V234.667L405.333 164.548V249.366C395.105 246.733 384.383 245.333 373.333 245.333C302.641 245.333 245.333 302.641 245.333 373.333C245.333 392.367 249.488 410.431 256.94 426.667H64V64H149.333ZM474.618 339.536L455.655 350.484C457.672 357.756 458.749 365.419 458.749 373.333C458.749 381.248 457.672 388.91 455.655 396.183L474.618 407.131C472.555 413.309 469.943 419.237 466.838 424.854L464.845 428.307C461.464 433.917 457.581 439.191 453.259 444.066L434.302 433.122C423.602 444.017 410.001 452.053 394.749 455.978V477.866C387.856 479.266 380.722 480 373.416 480C366.11 480 358.976 479.265 352.082 477.866V455.978C336.83 452.052 323.227 444.016 312.527 433.119L293.571 444.063C289.23 439.167 285.333 433.869 281.943 428.231L280.037 424.931C276.913 419.289 274.286 413.335 272.214 407.127L291.175 396.179C289.159 388.908 288.082 381.246 288.082 373.333C288.082 365.42 289.159 357.759 291.175 350.487L272.214 339.54C274.286 333.33 276.915 327.375 280.039 321.732L281.941 318.439C285.332 312.8 289.23 307.501 293.571 302.603L312.527 313.547C323.227 302.651 336.83 294.614 352.082 290.688V268.801C358.976 267.401 366.11 266.667 373.416 266.667C380.722 266.667 387.856 267.401 394.749 268.8V290.688C410.001 294.614 423.602 302.65 434.302 313.545L453.259 302.6C457.582 307.476 461.465 312.751 464.846 318.362L466.837 321.811C469.942 327.429 472.555 333.357 474.618 339.536ZM415.379 334.719L432.73 352.07L362.709 422.09L317.227 376.608L334.578 359.257L362.709 387.379L415.379 334.719Z"/></svg>