<svg width="512" height="512" viewBox="0 0 512 512" fill="none" xmlns="http://www.w3.org/2000/svg"><path d="M215.333 2C332.971 2.00001 428.666 87.828 428.666 193.326C428.626 226.543 415.412 258.388 391.923 281.875C368.434 305.362 333.883 321.963 300.666 322H263.587C258.872 322 254.553 322.411 251.219 325.745C247.885 329.079 246.635 331.672 246.635 336.387C246.719 340.783 248.341 345.011 251.219 348.336C259.193 357.114 263.603 368.553 263.587 380.412C263.587 393.21 258.503 405.484 249.454 414.533C240.405 423.583 228.131 428.666 215.333 428.666C97.6949 428.666 2.00001 332.971 2 215.333C2 97.6949 97.6949 2 215.333 2ZM98 151.333C80.3269 151.333 66 165.66 66 183.333C66 201.006 80.3269 215.333 98 215.333C115.673 215.333 130 201.006 130 183.333C130 165.66 115.673 151.333 98 151.333ZM332.666 151.333C314.993 151.333 300.666 165.66 300.666 183.333C300.666 201.006 314.993 215.333 332.666 215.333C350.339 215.333 364.666 201.006 364.666 183.333C364.666 165.66 350.339 151.333 332.666 151.333ZM162 66C144.327 66 130 80.3269 130 98C130 115.673 144.327 130 162 130C179.673 130 194 115.673 194 98C194 80.327 179.673 66.0002 162 66ZM268.666 66C250.993 66.0002 236.666 80.327 236.666 98C236.666 115.673 250.993 130 268.666 130C286.339 130 300.666 115.673 300.666 98C300.666 80.3269 286.339 66 268.666 66Z"/></svg>