<svg width="512" height="512" viewBox="0 0 512 512" fill="none" xmlns="http://www.w3.org/2000/svg"><path fill-rule="evenodd" clip-rule="evenodd" d="M469.342 305.866L469.333 106.667H42.6666V405.333L260.418 405.337C257.54 395.164 256 384.428 256 373.333C256 369.741 256.161 366.186 256.478 362.675L85.3333 362.667V170.667H426.667L426.675 268.798C443.739 277.523 458.385 290.303 469.342 305.866ZM85.3333 128H149.333V149.333H85.3333V128ZM373.333 277.333C320.314 277.333 277.333 320.314 277.333 373.333C277.333 426.353 320.314 469.333 373.333 469.333C426.352 469.333 469.333 426.353 469.333 373.333C469.333 320.314 426.352 277.333 373.333 277.333ZM436.096 340.096L352.001 424.191L310.573 382.763L329.429 363.906L352.001 386.478L417.24 321.24L436.096 340.096Z"/></svg>