<svg width="512" height="512" viewBox="0 0 512 512" fill="none" xmlns="http://www.w3.org/2000/svg"><path fill-rule="evenodd" clip-rule="evenodd" d="M384 42.6641V235.068C380.48 234.8 376.922 234.663 373.333 234.663C346.152 234.663 320.798 242.484 299.398 255.997H130.133V426.664H245.294C251.946 442.613 261.49 457.054 273.271 469.331H85.3333V42.6641H384ZM256 298.664V299.395C247.962 312.124 241.939 326.252 238.377 341.331H213.333V298.664H256ZM341.333 170.664H128V213.331H341.333V170.664ZM341.333 85.3307H128V127.997H341.333V85.3307ZM474.618 339.533L455.655 350.481C457.672 357.754 458.749 365.416 458.749 373.331C458.749 381.245 457.672 388.908 455.655 396.18L474.618 407.128C472.555 413.307 469.942 419.234 466.838 424.851L464.845 428.304C461.464 433.915 457.581 439.189 453.259 444.064L434.302 433.119C423.602 444.014 410.001 452.05 394.749 455.976V477.864C387.856 479.263 380.722 479.997 373.416 479.997C366.11 479.997 358.976 479.263 352.082 477.864V455.976C336.83 452.05 323.227 444.013 312.527 433.117L293.571 444.061C289.23 439.165 285.333 433.866 281.943 428.229L280.037 424.928C276.913 419.287 274.286 413.333 272.214 407.124L291.175 396.177C289.159 388.905 288.082 381.244 288.082 373.331C288.082 365.418 289.159 357.756 291.175 350.485L272.214 339.537C274.286 333.328 276.914 327.372 280.039 321.73L281.941 318.436C285.332 312.797 289.229 307.498 293.571 302.601L312.527 313.545C323.227 302.648 336.83 294.612 352.082 290.686V268.798C358.976 267.399 366.11 266.664 373.416 266.664C380.722 266.664 387.856 267.399 394.749 268.798V290.686C410.001 294.611 423.602 302.647 434.302 313.542L453.259 302.598C457.582 307.473 461.465 312.748 464.846 318.359L466.837 321.808C469.942 327.426 472.555 333.354 474.618 339.533ZM405.417 373.331C405.417 391.004 391.09 405.331 373.417 405.331C355.744 405.331 341.417 391.004 341.417 373.331C341.417 355.658 355.744 341.331 373.417 341.331C391.09 341.331 405.417 355.658 405.417 373.331Z"/></svg>