<svg xmlns="http://www.w3.org/2000/svg" width="512" height="512" viewBox="0 0 512 512"><path fill-rule="evenodd" d="M384,245.333333 L383.999333,309.333333 L448,309.333333 L448,352 L383.999333,351.999333 L384,416 L341.333333,416 L341.333333,351.999333 L277.333333,352 L277.333333,309.333333 L341.333333,309.333333 L341.333333,245.333333 L384,245.333333 Z M256,1.42108547e-14 L294.394409,53.3240146 L384,53.3333333 L384,224 L341.333,224 L341.333333,95.9786667 L270.235735,95.9886521 L231.829333,42.6666667 L152.128,42.6666667 L113.757456,96 L42.6666667,96 L42.6666667,309.333333 L256,309.333 L256,352 L7.10542736e-15,352 L7.10542736e-15,53.3333333 L89.6,53.3333333 L128,1.42108547e-14 L256,1.42108547e-14 Z M192,117.333333 C239.128299,117.333333 277.333333,155.538368 277.333333,202.666667 C277.333333,249.794965 239.128299,288 192,288 C144.871701,288 106.666667,249.794965 106.666667,202.666667 C106.666667,155.538368 144.871701,117.333333 192,117.333333 Z M192,160 C168.435851,160 149.333333,179.102517 149.333333,202.666667 C149.333333,226.230816 168.435851,245.333333 192,245.333333 C215.564149,245.333333 234.666667,226.230816 234.666667,202.666667 C234.666667,179.102517 215.564149,160 192,160 Z M298.666667,117.333333 C310.448741,117.333333 320,126.884592 320,138.666667 C320,150.448741 310.448741,160 298.666667,160 C286.884592,160 277.333333,150.448741 277.333333,138.666667 C277.333333,126.884592 286.884592,117.333333 298.666667,117.333333 Z" transform="translate(42.667 74.667)"/></svg>