<svg xmlns="http://www.w3.org/2000/svg" width="512" height="512" viewBox="0 0 512 512"><path fill-rule="evenodd" d="M392.836561,371.503227 L362.666662,401.673126 C350.721943,388.353627 338.934019,375.351337 327.30289,362.666257 L3.55271368e-14,362.666667 L3.55271368e-14,64 L26.5280534,64.0009462 C17.9097986,55.8695388 9.06711409,47.5380432 3.55271368e-14,39.0064593 L30.169894,8.83656533 L392.836561,371.503227 Z M277.333333,0 C277.333333,0 277.681778,0.557511111 278.378667,1.67253333 L278.698667,2.18453333 C279.438222,3.36782222 280.478222,5.03182222 281.818667,7.17653333 L282.458667,8.20053333 C283.891556,10.4931556 285.624889,13.2664889 287.658667,16.5205333 L288.618667,18.0565333 C290.744889,21.4584889 293.171556,25.3411556 295.898667,29.7045333 L297.178667,31.7525333 C299.998222,36.2638222 303.118222,41.2558222 306.538667,46.7285333 L308.138667,49.2885333 C311.003462,53.8722052 314.068069,58.775577 317.332489,63.9986486 L426.666667,64 L426.666,344.993 L323.849007,242.174896 C328.262734,229.829714 330.666667,216.528924 330.666667,202.666667 C330.666667,137.865256 278.134744,85.3333333 213.333333,85.3333333 C199.471076,85.3333333 186.170286,87.7372661 173.825104,92.1509935 L123.31,41.637 L149.333333,0 L277.333333,0 Z M111.394972,144.533391 L110.818487,145.545819 C101.379269,162.450159 96,181.930215 96,202.666667 C96,267.468077 148.531923,320 213.333333,320 C234.907391,320 255.121504,314.177386 272.489934,304.017894 C261.996629,293.015828 251.64493,282.29874 241.432601,271.863608 C232.759424,275.391061 223.2732,277.333333 213.333333,277.333333 C172.096072,277.333333 138.666667,243.903928 138.666667,202.666667 C138.666667,193.104111 140.464283,183.961411 143.740025,175.558057 C133.554393,165.747076 122.771832,155.405154 111.394972,144.533391 Z M213.333333,128 C254.570595,128 288,161.429405 288,202.666667 C288,203.865409 287.971751,205.057553 287.915883,206.24247 L209.75753,128.084117 C210.942447,128.028249 212.134591,128 213.333333,128 Z M384,106.666667 C372.217925,106.666667 362.666667,116.217925 362.666667,128 C362.666667,139.782075 372.217925,149.333333 384,149.333333 C395.782075,149.333333 405.333333,139.782075 405.333333,128 C405.333333,116.217925 395.782075,106.666667 384,106.666667 Z" transform="translate(42.667 64)"/></svg>