<svg xmlns="http://www.w3.org/2000/svg" width="512" height="512" viewBox="0 0 512 512"><path fill-rule="evenodd" d="M392.836561,371.503227 L362.666662,401.673126 C350.721943,388.353627 338.934019,375.351337 327.30289,362.666257 L3.55271368e-14,362.666667 L3.55271368e-14,64 L26.5280534,64.0009462 C17.9097986,55.8695388 9.06711409,47.5380432 3.55271368e-14,39.0064593 L30.169894,8.83656533 L392.836561,371.503227 Z M277.333333,0 L315.727742,63.9906813 L426.666667,64 L426.666,344.993 L384,302.327 L384,106.645333 L291.569068,106.655319 L253.162667,42.6666667 L173.461333,42.6666667 L155.049,73.376 L123.96,42.288 L149.333333,0 L277.333333,0 Z M71.6253315,106.668053 L42.6666667,106.666667 L42.6666667,320 L287.644597,319.99899 C277.364549,309.09539 267.214982,298.455762 257.195895,288.080107 C244.049979,294.847611 229.13765,298.666667 213.333333,298.666667 C160.313997,298.666667 117.333333,255.686003 117.333333,202.666667 C117.333333,187.278274 120.954021,172.735538 127.389969,159.843887 C110.290526,143.446446 91.7021154,125.720722 71.6253315,106.668053 Z M161.020825,192.243049 L160.999912,192.335352 C160.343845,195.677731 160,199.132044 160,202.666667 C160,232.121853 183.878147,256 213.333333,256 C217.203013,256 220.976436,255.587877 224.612105,254.805127 C222.31759,252.494905 220.030976,250.200875 217.751611,247.92151 C202.075522,232.245421 183.16526,213.685934 161.020825,192.243049 Z M213.333333,106.666667 C266.352669,106.666667 309.333333,149.647331 309.333333,202.666667 C309.333333,210.369496 308.426129,217.860437 306.712738,225.03847 L261.579517,179.905083 C256.301825,168.73794 247.261187,159.697479 236.093918,154.420011 L190.96153,109.287262 C198.139563,107.573871 205.630504,106.666667 213.333333,106.666667 Z M341.333333,128 C353.115408,128 362.666667,137.551259 362.666667,149.333333 C362.666667,161.115408 353.115408,170.666667 341.333333,170.666667 C329.551259,170.666667 320,161.115408 320,149.333333 C320,137.551259 329.551259,128 341.333333,128 Z" transform="translate(42.667 64)"/></svg>