<svg width="512" height="512" viewBox="0 0 512 512" fill="none" xmlns="http://www.w3.org/2000/svg"><path fill-rule="evenodd" clip-rule="evenodd" d="M149.333 234.667V64H64V426.667H291.655C277.998 415.615 267.433 400.892 261.462 383.999H149.333H106.667V301.516L150.071 278.008L234.667 232.191V301.836L362.667 231.701V256.586C378.334 258.318 392.866 263.82 405.333 272.166V164.548L277.333 234.667V165.333L149.333 234.667ZM352 394.667C375.564 394.667 394.667 375.564 394.667 352C394.667 328.436 375.564 309.333 352 309.333C328.436 309.333 309.333 328.436 309.333 352C309.333 375.564 328.436 394.667 352 394.667ZM352 426.667C366.826 426.667 380.643 422.346 392.259 414.894L437.761 460.396L460.389 437.769L414.888 392.269C422.343 380.65 426.667 366.83 426.667 352C426.667 310.763 393.237 277.333 352 277.333C310.763 277.333 277.334 310.763 277.334 352C277.334 393.237 310.763 426.667 352 426.667Z"/></svg>