<svg width="512" height="512" viewBox="0 0 512 512" fill="none" xmlns="http://www.w3.org/2000/svg"><path fill-rule="evenodd" clip-rule="evenodd" d="M64 64V448H256V405.333H106.667V106.667H277.333V250.667H320V64H64ZM128 128H256V256H128V128ZM170.667 170.667V213.333H213.333V170.667H170.667ZM170.667 266.667H213.333V309.333H170.667V266.667ZM170.667 352H128V309.333H170.667V352ZM213.333 352V394.667H170.667V352H213.333ZM213.333 352H256V309.333H213.333V352ZM448 234.667H480V277.333H448V266.667H426.667V309.333H448V298.667H480V341.333H448V330.667H405.333V304H309.333V400H341.333V373.333H384V362.667H416V405.333H384V394.667H362.667V437.333H384V426.667H416V469.333H384V458.667H341.333V432H277.333V272H405.333V245.333H448V234.667Z"/></svg>