<svg width="512" height="512" viewBox="0 0 512 512" fill="none" xmlns="http://www.w3.org/2000/svg"><path fill-rule="evenodd" clip-rule="evenodd" d="M42.6667 64H426.667V224H384V106.667H341.333V250.667H298.667V106.667H256C256 220.444 256 334.222 256 448H42.6667V64ZM85.3334 106.667V405.333H213.333V106.667H85.3334ZM480 234.667H448V245.333H405.333V272H277.333V432H341.333V458.667H384V469.333H416V426.667H384V437.333H362.667V394.667H384V405.333H416V362.667H384V373.333H341.333V400H309.333V304H405.333V330.667H448V341.333H480V298.667H448V309.333H426.667V266.667H448V277.333H480V234.667ZM192 128H106.667V234.667H192V128ZM106.667 320H128V341.333H106.667V320ZM192 320H170.667V341.333H192V320ZM138.667 277.333H160V298.667H138.667V277.333ZM160 362.667H138.667V384H160V362.667Z"/></svg>