<svg width="512" height="512" viewBox="0 0 512 512" fill="none" xmlns="http://www.w3.org/2000/svg"><path fill-rule="evenodd" clip-rule="evenodd" d="M222.855 295.594V469.331C151.188 462.638 103.92 436.383 67.2126 384.293L222.855 295.594ZM245.652 283.076L418.884 190.385C432.872 215.461 439.866 246.358 439.866 283.076C439.866 319.794 429.973 351.702 410.186 378.8L245.652 283.076ZM245.652 311.989L329.494 359.351C310.595 379.922 276.989 395.343 245.66 400.669L245.652 311.989ZM121.672 242.659L196.323 284.415L113.925 327.364C110.561 316.723 108.825 305.602 108.825 294.262C108.825 276.105 113.279 258.54 121.672 242.659ZM222.846 93.5408V270.618L64 185.616C82.817 145.363 145.34 97.1085 200.296 93.5408H222.846ZM448 148.97L245.652 258.734L245.668 42.6641C336.884 42.6641 414.127 92.2967 448 148.97Z"/></svg>