<svg width="512" height="512" viewBox="0 0 512 512" fill="none" xmlns="http://www.w3.org/2000/svg"><path fill-rule="evenodd" clip-rule="evenodd" d="M448 448V64H64V448H448ZM106.667 106.667H405.333V405.333H106.667V106.667ZM192 149.333H128V192H192V149.333ZM224 149.333H288V192H224V149.333ZM384 149.333H320V192H384V149.333ZM128 234.667H192V277.333H128V234.667ZM288 234.667H224V277.333H288V234.667ZM320 234.667H384V277.333H320V234.667ZM192 320H128V362.667H192V320ZM224 320H288V362.667H224V320ZM384 320H320V362.667H384V320Z"/></svg>