<svg width="512" height="512" viewBox="0 0 512 512" fill="none" xmlns="http://www.w3.org/2000/svg"><path fill-rule="evenodd" clip-rule="evenodd" d="M426.667 149.333L234.667 42.666L42.6667 149.333V362.666L234.667 469.333L256 457.471V264.298L384 190.399V261.226L426.667 305.962V149.333ZM85.3334 334.6V191.594L213.333 265.493V408.213L85.3334 334.6ZM114.411 159.103L234.667 89.9467L353.877 158.527L233.643 227.946L114.411 159.103ZM474.618 360.869L455.656 371.817C457.672 379.089 458.749 386.752 458.749 394.666C458.749 402.58 457.672 410.243 455.656 417.515L474.618 428.463C472.555 434.644 469.941 440.573 466.836 446.191L464.848 449.635C461.466 455.247 457.583 460.522 453.259 465.399L434.302 454.454C423.602 465.349 410.001 473.385 394.749 477.311V499.199C387.856 500.598 380.722 501.333 373.416 501.333C366.11 501.333 358.976 500.598 352.082 499.199V477.311C336.83 473.385 323.227 465.348 312.527 454.452L293.571 465.396C289.231 460.501 285.335 455.204 281.945 449.569L280.034 446.259C276.912 440.619 274.285 434.666 272.214 428.459L291.175 417.512C289.159 410.241 288.082 402.579 288.082 394.666C288.082 386.753 289.159 379.091 291.175 371.82L272.214 360.872C274.286 354.665 276.913 348.711 280.036 343.07L281.944 339.766C285.334 334.129 289.231 328.832 293.571 323.936L312.527 334.88C323.227 323.984 336.83 315.947 352.082 312.021V290.133C358.976 288.734 366.11 287.999 373.416 287.999C380.722 287.999 387.856 288.734 394.749 290.133V312.021C410.001 315.947 423.602 323.983 434.302 334.878L453.259 323.933C457.583 328.81 461.467 334.087 464.849 339.7L466.834 343.138C469.941 348.758 472.554 354.687 474.618 360.869ZM405.417 394.666C405.417 412.339 391.09 426.666 373.417 426.666C355.744 426.666 341.417 412.339 341.417 394.666C341.417 376.993 355.744 362.666 373.417 362.666C391.09 362.666 405.417 376.993 405.417 394.666Z"/></svg>