<svg width="512" height="512" viewBox="0 0 512 512" fill="none" xmlns="http://www.w3.org/2000/svg"><path fill-rule="evenodd" clip-rule="evenodd" d="M426.667 149.333L234.667 42.666L42.6667 149.333V362.666L234.667 469.333L256 457.471V418.648L213.333 375.981V408.213L85.3334 334.6V191.594L213.333 265.493V370.684L255.938 328.08L256 328.142V264.298L384 190.399V256.478C399.251 257.852 413.661 262.145 426.667 268.793V149.333ZM114.411 159.103L234.667 89.9467L353.877 158.527L233.643 227.946L114.411 159.103ZM373.272 469.333C426.291 469.333 469.272 426.352 469.272 373.333C469.272 320.313 426.291 277.333 373.272 277.333C320.252 277.333 277.272 320.313 277.272 373.333C277.272 375.502 277.344 377.655 277.485 379.789L255.938 358.248L240.853 373.333L287.938 420.418L335.023 373.333L319.938 358.248L298.843 379.338C298.685 377.357 298.605 375.354 298.605 373.333C298.605 332.095 332.034 298.666 373.272 298.666C414.509 298.666 447.938 332.095 447.938 373.333C447.938 414.57 414.509 447.999 373.272 447.999C354.16 447.999 336.725 440.819 323.518 429.009L308.631 444.31C325.69 459.855 348.374 469.333 373.272 469.333ZM383.999 319.999H362.666V383.999H415.999V362.666H383.999V319.999Z"/></svg>