<svg width="512" height="512" viewBox="0 0 512 512" fill="none" xmlns="http://www.w3.org/2000/svg"><path fill-rule="evenodd" clip-rule="evenodd" d="M421.935 90.0661C424.221 92.3526 427.291 98.039 425.948 111.464C424.625 124.685 419.217 142.151 409.103 162.969C407.905 165.435 406.648 167.933 405.333 170.461V212.771C445.156 150.778 459.37 97.3314 437.02 74.9812C414.491 52.4526 360.368 67.0744 297.743 107.627L318.622 119.681C329.157 113.221 339.339 107.608 349.033 102.898C369.85 92.7837 387.316 87.3757 400.537 86.0529C413.962 84.7096 419.649 87.7797 421.935 90.0661ZM405.333 341.54V299.23C445.156 361.223 459.37 414.67 437.02 437.02C414.484 459.556 360.331 444.917 297.679 404.333L318.556 392.28C329.115 398.757 339.319 404.384 349.033 409.103C369.85 419.217 387.316 424.625 400.538 425.948C413.962 427.291 419.649 424.221 421.935 421.935C424.222 419.648 427.292 413.962 425.948 400.537C424.626 387.316 419.218 369.85 409.103 349.032C407.905 346.566 406.648 344.068 405.333 341.54ZM193.445 392.28L214.321 404.333C151.67 444.917 97.5174 459.556 74.9812 437.02C52.6312 414.67 66.8448 361.225 106.667 299.232V341.542C105.353 344.069 104.096 346.567 102.898 349.032C92.7837 369.85 87.3757 387.316 86.0529 400.537C84.7096 413.962 87.7797 419.648 90.0661 421.935C92.3526 424.221 98.039 427.291 111.464 425.948C124.685 424.625 142.151 419.217 162.969 409.103C172.682 404.384 182.886 398.757 193.445 392.28ZM74.9814 74.9812C52.6315 97.3311 66.845 150.776 106.667 212.769V170.458C105.353 167.932 104.096 165.434 102.898 162.969C92.784 142.151 87.376 124.685 86.0531 111.464C84.7099 98.039 87.7799 92.3526 90.0664 90.0661C92.3528 87.7797 98.0392 84.7096 111.464 86.0529C124.685 87.3757 142.151 92.7837 162.969 102.898C172.662 107.607 182.843 113.22 193.379 119.68L214.257 107.626C151.633 67.0743 97.51 52.4526 74.9814 74.9812ZM256 108.159L384 182.06V329.861L256 403.762L128 329.861V182.06L256 108.159ZM341.333 231.291V305.228L277.333 342.178V268.241L341.333 231.291ZM234.667 268.241V342.178L170.667 305.228V231.291L234.667 268.241ZM256 231.291L192.031 194.358L256 157.426L319.969 194.358L256 231.291Z"/></svg>