<svg width="512" height="512" viewBox="0 0 512 512" fill="none" xmlns="http://www.w3.org/2000/svg"><path fill-rule="evenodd" clip-rule="evenodd" d="M243.07 65.7277L277.333 80.4119V126.832L236.027 109.129L128.332 170.669L245.251 237.48L256 243.623V256.003V389.908L362.667 328.956V234.668H405.333V341.336V353.716L394.584 359.859L245.251 445.192L234.667 451.24L224.082 445.192L74.749 359.859L64 353.716V341.336V170.669V158.289L74.749 152.147L224.082 66.8136L233.306 61.543L243.07 65.7277ZM213.333 389.908V268.383L106.667 207.431V328.956L213.333 389.908ZM319.999 106.668H375.162L283.581 198.25L313.751 228.42L405.332 136.838V192.001H447.999V85.3346V64.0013H426.666H319.999V106.668Z"/></svg>