<svg width="512" height="512" viewBox="0 0 512 512" fill="none" xmlns="http://www.w3.org/2000/svg"><path fill-rule="evenodd" clip-rule="evenodd" d="M85.3333 64H320H362.667V106.667V149.333H320V106.667H85.3333V298.667H277.333V341.333H224V384H256V426.667H149.333V384H181.333V341.333H85.3333H42.6666V298.667V106.667V64H85.3333ZM277.333 159.549L202.667 116.43L128 159.549V245.785L202.667 288.905L277.333 245.785V159.549ZM149.333 233.47V183.242L192 207.867V258.11L149.333 233.47ZM213.333 258.11V207.867L256 183.242V233.47L213.333 258.11ZM202.667 141.065L244.521 165.236L202.667 189.392L160.812 165.236L202.667 141.065ZM469.333 170.667V448H298.667V170.667H469.333ZM426.667 213.333H341.333V256H426.667V213.333ZM341.333 405.333V277.333H426.667V405.333H341.333ZM405.333 320V362.667H362.667V320H405.333Z"/></svg>