<svg width="512" height="512" viewBox="0 0 512 512" fill="none" xmlns="http://www.w3.org/2000/svg"><path fill-rule="evenodd" clip-rule="evenodd" d="M324.636 229.391C331.488 219.311 334.923 207.509 334.923 193.994C334.923 165.984 323.531 146.116 300.728 134.413C287.022 127.358 271.09 123.824 252.93 123.824C232.164 123.824 214.711 129.482 200.591 140.764C183.859 154.28 175.5 174.241 175.5 200.663H220.862V200.358C220.862 190.277 222.986 182.008 227.221 175.559C233.068 166.888 242.55 162.55 255.658 162.55C263.724 162.55 270.59 164.667 276.227 168.895C283.281 174.753 286.82 183.62 286.82 195.518C286.82 202.982 284.996 209.633 281.371 215.484C278.345 220.726 273.507 225.865 266.843 230.91C252.728 240.588 243.551 250.169 239.322 259.652C235.691 267.517 233.867 280.02 233.867 297.156H276.533C276.533 285.861 278.034 277.396 281.073 271.747C283.488 267.108 288.535 262.172 296.199 256.925C309.515 247.039 318.985 237.861 324.636 229.391ZM282.667 352C282.311 336.884 271.285 325.325 256.059 325.325C240.697 325.325 228.986 336.953 229.341 352C228.986 367.116 240.697 378.676 256.059 378.676C271.327 378.676 282.311 367.116 282.667 352Z"/></svg>