<svg width="512" height="512" viewBox="0 0 512 512" fill="none" xmlns="http://www.w3.org/2000/svg"><path d="M176.61 254.781C147.353 248.279 132.724 231.213 132.724 203.581C132.724 187.53 137.601 174.527 147.353 164.571C157.309 154.413 170.312 149.333 186.363 149.333C202.413 149.333 215.213 154.311 224.763 164.267C234.515 174.222 239.391 187.429 239.391 203.886C239.391 242.489 211.353 295.416 155.277 362.667L131.201 344.381C155.175 311.873 170.312 282.006 176.61 254.781ZM318.629 254.781C289.372 248.279 274.744 231.213 274.744 203.581C274.744 187.53 279.62 174.527 289.372 164.571C299.328 154.413 312.331 149.333 328.382 149.333C344.229 149.333 357.029 154.311 366.782 164.267C376.534 174.222 381.41 187.429 381.41 203.886C381.41 243.098 353.372 296.025 297.296 362.667L273.22 344.381C297.194 312.076 312.331 282.21 318.629 254.781Z"/></svg>