<svg width="512" height="512" viewBox="0 0 512 512" fill="none" xmlns="http://www.w3.org/2000/svg"><path fill-rule="evenodd" clip-rule="evenodd" d="M469.342 305.866L469.333 149.333H42.6665V362.667L256.477 362.675C260.173 321.628 285.008 286.676 320.013 268.787L320 192H426.667L426.675 268.798C443.739 277.523 458.384 290.302 469.342 305.866ZM85.3332 192H106.667V320H85.3332V192ZM149.333 192H170.667V320H149.333V192ZM213.333 192H234.667V320H213.333V192ZM277.341 374.704C277.341 321.685 320.321 278.704 373.341 278.704C426.36 278.704 469.341 321.685 469.341 374.704C469.341 427.724 426.36 470.704 373.341 470.704C320.321 470.704 277.341 427.724 277.341 374.704ZM418.297 365.837C422.568 359.555 424.709 352.199 424.709 343.774C424.709 326.316 418.297 315.357 403.395 306.638C394.852 302.24 384.922 300.038 373.602 300.038C360.659 300.038 349.781 303.564 340.98 310.596C330.551 319.021 325.341 333.28 325.341 347.931H353.615V347.741C353.615 341.458 354.938 336.304 357.578 332.284C361.222 326.879 367.133 324.175 375.303 324.175C380.331 324.175 384.61 325.495 388.123 328.13C392.521 331.781 394.726 337.308 394.726 344.725C394.726 349.377 393.589 353.522 391.33 357.169C389.444 360.437 386.428 363.639 382.274 366.784C373.477 372.817 367.757 378.788 365.121 384.699C362.858 389.601 361.721 397.394 361.721 408.076H388.314C388.314 401.035 389.25 395.759 391.144 392.238C392.65 389.347 395.795 386.27 400.572 382.999C408.872 376.838 414.774 371.117 418.297 365.837ZM375.821 418.048C366.641 418.048 359.2 425.49 359.2 434.669C359.2 443.849 366.641 451.291 375.821 451.291C385.001 451.291 392.443 443.849 392.443 434.669C392.443 425.49 385.001 418.048 375.821 418.048Z"/></svg>