<svg width="512" height="512" viewBox="0 0 512 512" fill="none" xmlns="http://www.w3.org/2000/svg"><path d="M295.822 315.556C297.422 316.978 297.422 319.467 295.822 321.067C287.467 329.245 274.667 333.333 256.178 333.333C237.689 333.333 224.711 329.245 216.533 321.067C214.933 319.645 214.933 317.156 216.533 315.556C217.956 314.133 220.445 314.133 222.045 315.556C228.8 322.311 240 325.511 256.178 325.511C272.356 325.511 283.556 322.311 290.311 315.556C291.911 314.133 294.222 314.133 295.822 315.556ZM234.667 272.533C234.667 263.467 227.378 256.178 218.311 256.178C209.245 256.178 201.956 263.467 201.956 272.533C201.956 281.6 209.245 288.889 218.311 288.889C227.378 288.889 234.667 281.6 234.667 272.533ZM469.333 256C469.333 373.867 373.867 469.333 256 469.333C138.133 469.333 42.6667 373.867 42.6667 256C42.6667 138.133 138.133 42.6667 256 42.6667C373.867 42.6667 469.333 138.133 469.333 256ZM380.445 253.689C380.445 238.578 368.178 226.311 352.889 226.311C345.422 226.311 338.667 229.333 333.867 234.133C315.022 221.867 289.778 213.867 261.511 212.978L276.8 164.622L318.4 174.4V174.933C318.4 187.378 328.533 197.333 340.8 197.333C353.067 197.333 363.378 187.2 363.378 174.933C363.378 162.667 353.245 152.533 340.8 152.533C331.2 152.533 323.2 158.578 319.822 166.756L274.845 156.267C272.889 155.733 270.933 156.978 270.222 158.756L252.978 212.8C223.467 213.156 196.978 221.156 177.245 233.778C172.267 229.156 165.867 226.489 158.578 226.489C143.467 226.489 131.022 238.756 131.022 253.867C131.022 264 136.533 272.711 144.711 277.333C144.178 280.178 143.822 283.2 143.822 286.222C143.822 326.756 193.6 359.822 254.933 359.822C316.267 359.822 366.045 326.756 366.045 286.222C366.045 283.378 365.689 280.533 365.333 277.867C374.045 273.245 379.911 264.178 379.911 253.867L380.445 253.689ZM293.867 256.178C284.8 256.178 277.511 263.467 277.511 272.533C277.511 281.6 284.8 288.889 293.867 288.889C302.933 288.889 310.222 281.6 310.222 272.533C310.222 263.467 302.933 256.178 293.867 256.178Z"/></svg>