<svg width="512" height="512" viewBox="0 0 512 512" fill="none" xmlns="http://www.w3.org/2000/svg"><path fill-rule="evenodd" clip-rule="evenodd" d="M133.445 341.349C157.215 375.419 194.829 399.112 238.132 404.275C241.725 420.042 248.005 434.785 256.465 447.999C256.31 448 256.155 448 256 448C195.685 448 141.866 420.188 106.667 376.69V448H64V298.667H68.7577H112.851H213.333V341.333L133.445 341.349ZM298.667 213.333H399.149H443.242H448V64H405.333V135.31C370.134 91.8116 316.315 64 256 64C158.026 64 77.1918 137.383 65.4627 232.183L107.804 237.476C116.927 163.742 179.798 106.667 256 106.667C306.747 106.667 351.581 131.979 378.567 170.667H298.667V213.333ZM474.618 339.536L455.655 350.484C457.672 357.756 458.749 365.419 458.749 373.333C458.749 381.248 457.672 388.91 455.655 396.183L474.618 407.131C472.555 413.31 469.942 419.238 466.837 424.855L464.845 428.305C461.465 433.916 457.582 439.191 453.259 444.066L434.302 433.122C423.602 444.017 410.001 452.053 394.749 455.978V477.866C387.856 479.266 380.722 480 373.416 480C366.11 480 358.976 479.265 352.082 477.866V455.978C336.83 452.052 323.227 444.016 312.527 433.119L293.571 444.063C289.231 439.167 285.334 433.869 281.943 428.232L280.037 424.93C276.913 419.289 274.286 413.335 272.214 407.127L291.175 396.179C289.159 388.908 288.082 381.246 288.082 373.333C288.082 365.42 289.16 357.759 291.175 350.487L272.214 339.54C274.286 333.331 276.914 327.376 280.038 321.734L281.942 318.437C285.333 312.799 289.23 307.5 293.571 302.603L312.527 313.547C323.227 302.651 336.83 294.614 352.082 290.688V268.801C358.976 267.401 366.11 266.667 373.416 266.667C380.722 266.667 387.856 267.401 394.749 268.8V290.688C410.001 294.614 423.602 302.65 434.302 313.545L453.259 302.6C457.582 307.476 461.465 312.752 464.847 318.363L466.836 321.809C469.941 327.428 472.555 333.356 474.618 339.536ZM405.417 373.333C405.417 391.006 391.09 405.333 373.417 405.333C355.744 405.333 341.417 391.006 341.417 373.333C341.417 355.66 355.744 341.333 373.417 341.333C391.09 341.333 405.417 355.66 405.417 373.333Z"/></svg>