<svg width="512" height="512" viewBox="0 0 512 512" fill="none" xmlns="http://www.w3.org/2000/svg"><path fill-rule="evenodd" clip-rule="evenodd" d="M446.537 279.817L404.196 274.524C395.073 348.258 332.202 405.333 256 405.333C205.26 405.333 160.431 380.028 133.444 341.349L202.667 341.333L160 298.667H112.851H68.7577H64V448H106.667V376.69C141.866 420.188 195.685 448 256 448C353.974 448 434.808 374.617 446.537 279.817ZM399.149 213.333H351.999L309.333 170.667H378.567C351.581 131.979 306.747 106.667 256 106.667C179.798 106.667 116.927 163.742 107.804 237.476L65.4627 232.183C77.1918 137.383 158.026 64 256 64C316.315 64 370.134 91.8116 405.333 135.31V64H448V213.333H443.242H399.149ZM234.668 170.667V268.497L191.087 224.915L160.917 255.085L256.002 350.17L351.087 255.085L320.917 224.915L277.335 268.497V170.667H234.668Z"/></svg>