<svg width="512" height="512" viewBox="0 0 512 512" fill="none" xmlns="http://www.w3.org/2000/svg"><path fill-rule="evenodd" clip-rule="evenodd" d="M404.195 274.525L446.537 279.818C434.808 374.617 353.974 448 256 448C192.089 448 135.471 416.773 100.571 368.744V426.667H64V298.667H192V335.238L129.407 335.251C155.816 377.346 202.639 405.333 255.999 405.333C332.201 405.333 395.072 348.258 404.195 274.525ZM399.149 213.334H443.243L443.242 213.333H448V85.3333H411.429V143.256C376.529 95.227 319.911 64 256 64C158.026 64 77.1916 137.383 65.4627 232.183L107.803 237.476C116.926 163.742 179.797 106.666 255.999 106.666C309.365 106.666 356.193 134.659 382.6 176.762H320V213.333H399.149L399.149 213.334ZM240.633 277.333H271.367L273.506 170.667H238.494L240.633 277.333ZM271.254 302.868C267.276 298.607 262.211 296.477 256.056 296.477C249.902 296.477 244.799 298.607 240.746 302.868C236.693 307.05 234.667 312.297 234.667 318.609C234.667 325.237 236.656 330.681 240.633 334.942C244.611 339.203 249.752 341.333 256.056 341.333C262.211 341.333 267.276 339.203 271.254 334.942C275.307 330.681 277.333 325.356 277.333 318.964C277.333 312.415 275.307 307.05 271.254 302.868Z"/></svg>