<svg xmlns="http://www.w3.org/2000/svg" width="512" height="512" viewBox="0 0 512 512"><g fill-rule="evenodd" transform="translate(64 64)"><path d="M330.666667,213.333333 L330.666667,234.666667 L384,234.666667 L384,277.333333 L362.666667,277.333333 L362.666667,405.333333 L234.666667,405.333333 L234.666667,277.333333 L213.333333,277.333333 L213.333333,234.666667 L266.666667,234.666667 L266.666667,213.333333 L330.666667,213.333333 Z M282.666667,288 L261.333333,288 L261.333333,362.666667 L282.666667,362.666667 L282.666667,288 Z M336,288 L314.666667,288 L314.666667,362.666667 L336,362.666667 L336,288 Z"/><path fill-rule="nonzero" d="M170.666667 0 170.666667 170.666667-2.84217094e-14 170.666667-2.84217094e-14 0 170.666667 0ZM128 42.6666667 42.6666667 42.6666667 42.6666667 128 128 128 128 42.6666667ZM170.666667 213.333333 170.666667 384-2.84217094e-14 384-2.84217094e-14 213.333333 170.666667 213.333333ZM128 256 42.6666667 256 42.6666667 341.333333 128 341.333333 128 256ZM384 0 384 170.666667 213.333333 170.666667 213.333333 0 384 0ZM341.333333 42.6666667 256 42.6666667 256 128 341.333333 128 341.333333 42.6666667Z"/></g></svg>