<svg width="512" height="512" viewBox="0 0 512 512" fill="none" xmlns="http://www.w3.org/2000/svg"><path fill-rule="evenodd" clip-rule="evenodd" d="M256 85.3274H85.3333H42.6667V127.994V234.661V277.327H85.3333H149.333V298.661H128V319.994H192V298.661V277.327V234.661H85.3333V127.994H256V213.327H298.667V127.994V85.3274H256ZM404.04 234.661H256H213.333V277.327V383.994V426.661H256H320V447.994H298.667V469.327H384V447.994H362.667V426.661H426.667H469.333V383.994V234.661H448H426.667H406.635L480.649 160.644L458.021 138.017L421.337 174.703L421.336 143.996C421.335 111.595 395.07 85.3302 362.669 85.3302L320.002 85.3302V117.33L362.669 117.33C377.397 117.33 389.336 129.269 389.336 143.996L389.337 174.703L352.649 138.016L330.021 160.644L404.04 234.661ZM256 383.994H426.667V277.327H256L256 383.994Z"/></svg>