<svg xmlns="http://www.w3.org/2000/svg" width="512" height="512" viewBox="0 0 512 512"><path fill-rule="evenodd" d="M149.333333,1.42108547e-14 L149.333333,213.333333 L1.42108547e-14,213.333333 L1.42108547e-14,1.42108547e-14 L149.333333,1.42108547e-14 Z M85.3333333,149.333333 L64,149.333333 L64,170.666667 L85.3333333,170.666667 L85.3333333,149.333333 Z M128,74.6666667 L21.3333333,74.6666667 L21.3333333,106.666667 L128,106.666667 L128,74.6666667 Z M128,21.3333333 L21.3333333,21.3333333 L21.3333333,53.3333333 L128,53.3333333 L128,21.3333333 Z M149.333333,234.666667 L149.333333,277.333333 L69.4463164,277.351889 C96.4332257,316.029088 141.261551,341.333333 192,341.333333 C199.243626,341.333333 206.366794,340.817593 213.334787,339.82083 L213.33523,382.827976 C206.330163,383.602418 199.211512,384 192,384 C131.683829,384 77.8636454,356.187368 42.6646339,312.687287 L42.6666667,384 L6.54694077e-11,384 L6.54978294e-11,234.666667 L149.333333,234.666667 Z M404.962083,343.513856 C405.208015,344.711032 405.333333,345.924621 405.333333,347.151515 L405.333333,366.545455 C405.333333,387.967408 367.128299,405.333333 320,405.333333 C272.871701,405.333333 234.666667,387.967408 234.666667,366.545455 L234.666667,347.151515 L234.678099,346.510087 C234.714005,345.50345 234.834275,344.506135 235.035836,343.519539 C240.261801,347.537576 246.624425,351.242689 253.997031,354.414697 C271.204838,361.818226 294.408197,366.545455 320,366.545455 C346.606552,366.545455 370.628063,361.428353 388.041367,353.513214 C394.550648,350.55445 400.216946,347.165374 404.962083,343.513856 Z M404.962083,285.332038 C405.208015,286.529214 405.333333,287.742803 405.333333,288.969697 L405.333333,308.363636 C405.333333,329.78559 367.128299,347.151515 320,347.151515 C272.871701,347.151515 234.666667,329.78559 234.666667,308.363636 L234.666667,288.969697 L234.678099,288.328268 C234.714005,287.321632 234.834275,286.324316 235.035836,285.33772 C240.261801,289.355758 246.624425,293.060871 253.997031,296.232879 C271.204838,303.636408 294.408197,308.363636 320,308.363636 C346.606552,308.363636 370.628063,303.246534 388.041367,295.331396 C394.550648,292.372632 400.216946,288.983556 404.962083,285.332038 Z M320,192 C366.657016,192 404.56834,209.020343 405.321901,230.14645 L405.333333,230.787879 L405.333333,250.181818 C405.333333,271.603772 367.128299,288.969697 320,288.969697 C273.342984,288.969697 235.43166,271.949354 234.678099,250.823247 L234.666667,250.181818 L234.666667,230.787879 L234.792932,228.659696 C237.223584,208.227492 274.442645,192 320,192 Z" transform="translate(64 64)"/></svg>