<svg width="512" height="512" viewBox="0 0 512 512" fill="none" xmlns="http://www.w3.org/2000/svg"><path fill-rule="evenodd" clip-rule="evenodd" d="M256 448C158.026 448 77.1918 374.617 65.4627 279.817L107.804 274.524C116.927 348.258 179.798 405.333 256 405.333C338.475 405.333 405.333 338.475 405.333 256C405.333 173.525 338.475 106.667 256 106.667C205.253 106.667 160.419 131.979 133.433 170.667H213.333V213.333H112.851H68.7577H64V64H106.667V135.31C141.866 91.8116 195.685 64 256 64C362.039 64 448 149.961 448 256C448 362.039 362.039 448 256 448Z"/></svg>