<svg width="24" height="24" viewBox="0 0 24 24" fill="none" xmlns="http://www.w3.org/2000/svg"><path d="M12 2C17.5228 2 22 6.47715 22 12C22 17.5228 17.5228 22 12 22C6.47715 22 2 17.5228 2 12C2 6.47715 6.47715 2 12 2ZM8.99609 17.1318L9.70312 17.8389L11.1182 16.4248L10.4102 15.7178L8.99609 17.1318ZM6.875 16.4248L7.58203 17.1318L9.70312 15.0107L8.99609 14.3037L6.875 16.4248ZM16.8203 7.16992C13.7932 7.39191 11.708 8.17587 10.3525 9.5293C10.1172 9.7643 9.89897 9.99029 9.7002 10.2256L8.28906 10.0605L6.875 11.4746L9.1748 13.0557L10.9414 14.8184L12.5322 17.1318L13.9463 15.7178L13.7676 14.2959C14.0063 14.0978 14.2358 13.8801 14.4727 13.6436C15.8281 12.2901 16.598 10.1926 16.8203 7.16992ZM6.16797 14.3037L6.875 15.0107L8.28906 13.5967L7.58203 12.8887L6.16797 14.3037ZM12.877 10.3213C13.3121 10.3218 13.6648 10.6738 13.665 11.1084C13.665 11.5433 13.3115 11.8964 12.876 11.8965C12.4406 11.8964 12.0873 11.544 12.0869 11.1094C12.0869 10.6743 12.4413 10.3213 12.877 10.3213Z"/></svg>