<svg width="24" height="24" viewBox="0 0 24 24" fill="none" xmlns="http://www.w3.org/2000/svg"><path fill-rule="evenodd" clip-rule="evenodd" d="M12 2C17.5228 2 22 6.47715 22 12C22 17.5228 17.5228 22 12 22C6.47715 22 2 17.5228 2 12C2 6.47715 6.47715 2 12 2ZM12 4C7.58172 4 4 7.58172 4 12C4 16.4183 7.58172 20 12 20C16.4183 20 20 16.4183 20 12C20 7.58172 16.4183 4 12 4ZM6.87507 16.4247L7.58218 17.1318L9.7035 15.0105L8.99639 14.3034L6.87507 16.4247ZM6.16796 14.3034L6.87507 15.0105L8.28928 13.5962L7.58218 12.8891L6.16796 14.3034ZM8.99639 17.1318L9.7035 17.8389L11.1177 16.4247L10.4106 15.7176L8.99639 17.1318ZM14.473 13.6439C15.8285 12.2904 16.5978 10.1928 16.8201 7.17014C13.793 7.39213 11.708 8.17558 10.3526 9.529C10.1171 9.76413 9.89891 9.99034 9.70005 10.2258L8.28928 10.0607L6.87507 11.4749L9.17524 13.0556L10.9409 14.8185L12.5319 17.1318L13.9461 15.7176L13.7673 14.2958C14.0061 14.0977 14.2361 13.8804 14.473 13.6439ZM12.8765 10.321C13.3118 10.3213 13.6649 10.6736 13.6651 11.1083C13.6651 11.5433 13.3115 11.8962 12.8758 11.8962C12.4403 11.8961 12.0874 11.5438 12.0872 11.1089C12.0872 10.6739 12.4408 10.321 12.8765 10.321Z"/></svg>