<svg width="512" height="512" viewBox="0 0 512 512" fill="none" xmlns="http://www.w3.org/2000/svg"><path fill-rule="evenodd" clip-rule="evenodd" d="M213.33 28.4453L285.898 125.202L391.983 98.681L365.998 202.623C349.937 200.952 333.199 204.744 318.953 214.886L333.344 157.321L268.762 173.466L213.33 99.5564L157.898 173.466L93.3168 157.321L123.32 277.334H166.274L158.168 320.001H90.007L34.6771 98.681L140.762 125.202L213.33 28.4453ZM354.781 268.206C357.962 264.671 363.814 266.307 364.702 270.978L378.069 341.334H219.259L232.627 270.978C233.514 266.307 239.367 264.671 242.547 268.206C272.538 301.529 324.79 301.529 354.781 268.206ZM211.152 384.001H386.176L390.229 405.334H207.099L211.152 384.001ZM163.669 405.334L190.71 263.014C198.185 223.672 247.472 209.897 274.261 239.663C287.303 254.154 310.025 254.154 323.067 239.663C349.857 209.897 399.143 223.671 406.618 263.014L433.659 405.334H469.333V448.001L441.766 448.001H155.562L128 448.001V405.334H163.669Z"/></svg>