<svg width="512" height="512" viewBox="0 0 512 512" fill="none" xmlns="http://www.w3.org/2000/svg"><path d="M106.15 466.786V356.338L78.5205 373.745L64 349.62L109.679 322.542H137.309V466.786H106.15ZM194.388 391.939C186.253 387.867 180.371 383.354 176.741 378.4C173.111 373.446 171.296 367.406 171.296 360.28C171.296 348.201 176.035 338.598 185.514 331.472C195.127 324.347 207.9 320.784 223.832 320.784C239.764 320.784 252.537 324.347 262.15 331.472C271.629 338.598 276.368 348.201 276.368 360.28C276.368 367.542 274.603 373.599 271.074 378.451C267.545 383.303 261.612 387.799 253.276 391.939C260.94 395.06 266.654 398.589 270.419 402.525C276.469 408.837 279.494 416.878 279.494 426.651C279.494 441.241 273.914 452.405 262.755 460.141C253.209 466.792 240.235 470.117 223.832 470.117C207.429 470.117 194.455 466.792 184.909 460.141C173.75 452.405 168.17 441.241 168.17 426.651C168.17 418.168 170.22 411.212 174.321 405.783C178.422 400.354 185.111 395.739 194.388 391.939ZM223.832 380.945L225.647 380.538C231.294 379.112 235.899 376.585 239.462 372.954C243.025 369.323 244.806 365.268 244.806 360.789C244.806 355.903 242.941 352.052 239.21 349.236C235.479 346.419 230.353 345.011 223.832 345.011C217.378 345.011 212.269 346.402 208.505 349.185C204.74 351.967 202.858 355.734 202.858 360.484C202.858 370.188 209.849 377.009 223.832 380.945ZM222.723 404.052C207.799 408.26 200.337 415.962 200.337 427.16C200.337 432.86 202.471 437.407 206.74 440.8C211.009 444.193 216.706 445.89 223.832 445.89C231.361 445.89 237.243 444.024 241.479 440.291C245.378 436.83 247.327 432.487 247.327 427.262C247.327 415.996 239.126 408.26 222.723 404.052ZM349.57 319.997C371.351 319.997 386.847 328.412 396.056 345.243C402.241 356.644 405.333 373.134 405.333 394.715C405.333 418.331 401.535 435.942 393.939 447.547C384.46 462.069 369.671 469.331 349.57 469.331C327.857 469.331 312.362 460.916 303.085 444.086C296.9 432.752 293.808 415.99 293.808 393.799C293.808 370.725 297.606 353.386 305.202 341.782C314.681 327.259 329.47 319.997 349.57 319.997ZM349.57 345.446C341.571 345.446 335.638 349.416 331.773 357.356C327.907 365.296 325.975 377.546 325.975 394.104C325.975 411.274 327.857 423.794 331.621 431.667C335.52 439.81 341.503 443.882 349.57 443.882C357.637 443.882 363.587 439.895 367.419 431.921C371.25 423.947 373.166 411.545 373.166 394.715C373.166 377.817 371.318 365.466 367.62 357.662C363.721 349.518 357.705 345.446 349.57 345.446ZM234.667 42.6641C328.923 42.6641 405.333 119.074 405.333 213.331L405.312 214.461L443.66 176.125L473.83 206.295L383.32 296.805L292.811 206.295L322.981 176.125L362.644 215.755C362.659 214.949 362.667 214.141 362.667 213.331C362.667 142.638 305.359 85.3307 234.667 85.3307C163.974 85.3307 106.667 142.638 106.667 213.331C106.667 220.605 107.274 227.738 108.439 234.681L65.3229 234.684C64.4498 227.689 64 220.563 64 213.331C64 119.074 140.41 42.6641 234.667 42.6641Z"/></svg>