<svg width="512" height="512" viewBox="0 0 512 512" fill="none" xmlns="http://www.w3.org/2000/svg"><path d="M249.444 64C147.026 64 64 149.961 64 256C64 362.039 147.026 448 249.444 448C274.098 448 298.114 443.005 320.432 433.424C340.435 424.836 358.802 412.674 374.719 397.566L380.572 391.764L351.432 361.595C338.037 375.464 322.138 386.502 304.647 394.011C287.312 401.454 268.657 405.333 249.444 405.333C169.785 405.333 105.21 338.475 105.21 256C105.21 173.525 169.785 106.667 249.444 106.667C326.137 106.667 388.849 168.641 393.412 246.858L367.038 219.582L337.898 249.752L414.282 328.837L490.667 249.752L461.527 219.582L434.702 247.342C430.329 145.321 349.059 64 249.444 64Z"/></svg>