<svg width="512" height="512" viewBox="0 0 512 512" fill="none" xmlns="http://www.w3.org/2000/svg"><path fill-rule="evenodd" clip-rule="evenodd" d="M256 426.667C350.257 426.667 426.667 350.257 426.667 256C426.667 161.743 350.257 85.3334 256 85.3334C161.743 85.3334 85.3334 161.743 85.3334 256C85.3334 305.272 106.213 349.667 139.607 380.82L148.579 354.233C153.173 356.409 157.283 357.497 160.909 357.497C165.584 357.497 168.968 355.845 171.064 352.541C173.159 349.317 174.972 342.789 176.504 332.957L192.599 231.485H171.831L175.966 204.274H196.915L197.538 200.347C199.552 187.452 201.285 179.152 202.736 175.445C209.505 158.037 223.568 149.333 244.924 149.333C253.386 149.333 262.05 150.905 270.915 154.048L261.727 184.148C256.409 182.214 252.097 181.247 248.793 181.247C244.844 181.247 241.822 182.738 239.726 185.72C237.631 188.621 236.019 193.698 234.891 200.951L234.365 204.274H253.858L253.803 204.185H293.453L315.575 239.967L347.61 204.185H391.249L332.136 266.682L371.907 330.993H332.136L307.838 291.222L272.057 330.993H228.659L291.156 264.265L270.776 231.485H230.054L213.978 332.957C212.124 344.724 210.351 353.387 208.659 358.948C206.967 364.589 204.75 369.263 202.01 372.97C193.951 383.931 182.064 389.411 166.349 389.411C159.088 389.411 152.267 388.406 145.885 386.396C175.607 411.52 214.035 426.667 256 426.667ZM256 469.333C373.821 469.333 469.333 373.821 469.333 256C469.333 138.179 373.821 42.6667 256 42.6667C138.179 42.6667 42.6667 138.179 42.6667 256C42.6667 373.821 138.179 469.333 256 469.333Z"/></svg>