<svg width="512" height="512" viewBox="0 0 512 512" fill="none" xmlns="http://www.w3.org/2000/svg"><path fill-rule="evenodd" clip-rule="evenodd" d="M426.666 256C426.666 287.094 418.351 316.243 403.825 341.351L366.867 320.013C377.764 301.184 384 279.32 384 256C384 218.091 367.52 184.031 341.333 160.593V192H298.666V85.3336H405.333V128H368.887C404.32 159.273 426.666 205.027 426.666 256ZM170.666 108.199C197.594 92.6519 226.996 85.2786 256.003 85.3048L256.003 127.98C234.248 127.957 212.195 133.489 192 145.149C159.169 164.104 137.912 195.406 130.708 229.803L157.907 214.099L179.241 251.05L86.8646 304.383L33.5312 212.007L70.4817 190.674L88.7046 222.237C98.071 175.915 126.522 133.685 170.666 108.199ZM170.666 403.802C143.739 388.255 122.652 366.479 108.171 341.345L145.129 320.008C155.987 338.859 171.804 355.192 192 366.851C224.83 385.806 262.567 388.564 295.958 377.605L268.759 361.901L290.092 324.951L382.468 378.284L329.135 470.66L292.184 449.327L310.407 417.764C265.608 432.813 214.811 429.289 170.666 403.802ZM298.667 213.336H213.333V298.669H298.667V213.336Z"/></svg>