<svg width="512" height="512" viewBox="0 0 512 512" fill="none" xmlns="http://www.w3.org/2000/svg"><path fill-rule="evenodd" clip-rule="evenodd" d="M447.468 64V106.56H241.167C225.616 106.56 211.014 113.737 201.509 125.869L199.241 129.004C182.962 153.43 156.175 168.643 127.072 170.258L121.913 170.401H64.5319V127.84H121.913C137.465 127.84 152.067 120.664 161.571 108.531L163.839 105.396C180.118 80.9709 206.906 65.7579 236.009 64.1429L241.167 64H447.468Z"/><path fill-rule="evenodd" clip-rule="evenodd" d="M447.468 361.922V319.362H370.102C332.667 319.362 296.898 304.305 270.76 277.739L266.494 273.206C233.429 236.456 186.908 214.814 137.694 213.075L131.261 212.961H64.5319V255.521H131.261C168.696 255.521 204.465 270.578 230.603 297.144L234.868 301.677C267.934 338.427 314.455 360.069 363.669 361.808L370.102 361.922H447.468Z"/><path fill-rule="evenodd" clip-rule="evenodd" d="M448 405.44V448H64V405.44H448Z"/></svg>