<svg width="512" height="512" viewBox="0 0 512 512" fill="none" xmlns="http://www.w3.org/2000/svg"><path fill-rule="evenodd" clip-rule="evenodd" d="M64 42.668H448V85.3346H398.815L469.333 266.668C469.333 307.905 435.904 341.335 394.667 341.335C353.429 341.335 320 307.905 320 266.668L390.519 85.3346H277.333L277.333 405.335H362.667V469.335H277.333H234.667H149.333L149.333 405.335H234.667L234.667 85.3346H121.481L192 266.668C192 307.905 158.571 341.335 117.333 341.335C76.0961 341.335 42.6667 307.905 42.6667 266.668L113.185 85.3346H64V42.668ZM369.928 256.001L394.667 192.387L419.406 256.001H369.928ZM117.333 192.387L92.5943 256.001H142.072L117.333 192.387Z"/></svg>