<svg width="512" height="512" viewBox="0 0 512 512" fill="none" xmlns="http://www.w3.org/2000/svg"><path d="M469.333 362.667H277.333V426.667H362.667V469.333H149.333V426.667H234.667V362.667H42.667V64H469.333V362.667ZM85.333 320H426.667V106.667H85.333V320ZM256.298 128C262.144 128 267.853 128.588 273.368 129.708V147.218C285.568 150.358 296.448 156.788 305.007 165.503L320.172 156.747C323.673 160.696 326.813 164.973 329.541 169.524L330.945 171.958C333.468 176.499 335.588 181.295 337.258 186.297L322.089 195.055C323.702 200.872 324.565 207.002 324.565 213.333C324.565 219.664 323.702 225.794 322.089 231.611L337.258 240.368C335.587 245.374 333.465 250.173 330.94 254.718L329.556 257.115C326.824 261.676 323.679 265.961 320.172 269.918L305.007 261.162C296.448 269.878 285.568 276.308 273.368 279.448V296.957C267.853 298.077 262.144 298.667 256.298 298.667C250.454 298.667 244.748 298.078 239.234 296.959V279.449C227.032 276.309 216.149 269.879 207.589 261.161L192.422 269.918C188.958 266.01 185.847 261.781 183.139 257.283L181.582 254.586C179.089 250.08 176.992 245.326 175.337 240.368L190.507 231.609C188.895 225.793 188.032 219.663 188.032 213.333C188.032 207.002 188.895 200.873 190.508 195.056L175.337 186.297C176.989 181.346 179.084 176.597 181.572 172.097L183.149 169.366C185.855 164.874 188.962 160.651 192.422 156.748L207.589 165.505C216.149 156.788 227.032 150.357 239.234 147.217V129.706C244.748 128.587 250.454 128 256.298 128ZM256.302 187.733C242.163 187.734 230.701 199.196 230.701 213.334C230.701 227.472 242.164 238.933 256.302 238.934C270.44 238.933 281.901 227.472 281.901 213.334C281.901 199.196 270.44 187.734 256.302 187.733Z"/></svg>