<svg xmlns="http://www.w3.org/2000/svg" width="512" height="512" viewBox="0 0 512 512"><path fill-rule="evenodd" d="M384,1.42108547e-14 L384,384 L1.42108547e-14,384 L1.42108547e-14,1.42108547e-14 L384,1.42108547e-14 Z M341.333333,42.6666667 L42.6666667,42.6666667 L42.6666667,341.333333 L341.333333,341.333333 L341.333333,42.6666667 Z M165.333333,80 L165.333333,112 L149.333333,112 C140.496777,112 133.333333,119.163444 133.333333,128 L133.333333,177.294084 L118.634667,192 L133.333333,206.705916 L133.333333,256 C133.333333,264.836556 140.496777,272 149.333333,272 L165.333333,272 L165.333333,304 L149.333333,304 C122.823665,304 101.333333,282.509668 101.333333,256 L101.333333,219.968 L84.6862915,203.313708 L73.372583,192 L84.6862915,180.686292 L101.333333,164.010667 L101.333333,128 C101.333333,102.594902 121.070114,81.7995751 146.046959,80.1107373 L149.333333,80 L165.333333,80 Z M234.666667,80 L237.953041,80.1107373 C262.929886,81.7995751 282.666667,102.594902 282.666667,128 L282.666667,164.010667 L299.313708,180.686292 L310.627417,192 L299.313708,203.313708 L282.666667,219.968 L282.666667,256 C282.666667,282.509668 261.176335,304 234.666667,304 L218.666667,304 L218.666667,272 L234.666667,272 C243.503223,272 250.666667,264.836556 250.666667,256 L250.666667,206.705916 L265.365333,192 L250.666667,177.294084 L250.666667,128 C250.666667,119.163444 243.503223,112 234.666667,112 L218.666667,112 L218.666667,80 L234.666667,80 Z" transform="translate(64 64)"/></svg>