<svg width="512" height="512" viewBox="0 0 512 512" fill="none" xmlns="http://www.w3.org/2000/svg"><path fill-rule="evenodd" clip-rule="evenodd" d="M298.667 190.739L441.59 448H155.744L298.667 190.739ZM170.667 160C199.593 160 227.077 169.653 249.344 187.028L226.233 223.235C210.862 210.032 191.362 202.667 170.667 202.667C123.538 202.667 85.3333 240.872 85.3333 288C85.3333 325.369 109.568 357.946 144.323 369.196L128 405.333C72.5826 390.389 42.6667 346.212 42.6667 288C42.6667 217.308 99.9742 160 170.667 160ZM298.667 278.592L228.245 405.333H369.067L298.667 278.592ZM448 64V298.667H405.333V106.645H213.333V128H170.667V64H448Z"/></svg>