<svg width="512" height="512" viewBox="0 0 512 512" fill="none" xmlns="http://www.w3.org/2000/svg"><path fill-rule="evenodd" clip-rule="evenodd" d="M426.667 83.84L256.449 42.6667L85.3333 84.0906V222.17L85.6066 234.757C90.307 342.173 154.658 406.492 203.005 439.908L213.844 447.077L226.278 454.545L237.099 460.417L244.321 464.007L250.046 466.651L256.449 469.333L262.574 466.77L274.99 460.808L283.171 456.434L292.41 451.089L307.828 441.179L318.865 433.262C367.657 396.631 427.176 329.435 426.614 219.803L426.495 194.383L426.446 101.099L426.667 83.84ZM128.03 114.529L256.729 85.3334L383.755 114.108L383.82 175.436L384 211.725L383.654 227.318C379.513 309.134 338.905 369.555 273.217 415.715L258.875 425.308L256.601 426.667L247.464 420.932L235.415 412.78C172.542 368.302 132.094 307.73 128.319 226.979L128 211.895L128.03 114.529Z"/></svg>