<svg width="512" height="512" viewBox="0 0 512 512" fill="none" xmlns="http://www.w3.org/2000/svg"><path fill-rule="evenodd" clip-rule="evenodd" d="M256.449 42.6666L426.667 83.84L426.446 101.099L426.496 194.383L426.614 219.803C427.176 329.435 367.657 396.631 318.865 433.262L307.828 441.179L292.41 451.089L283.171 456.434L274.99 460.808L262.575 466.77L256.449 469.333L250.046 466.651L244.322 464.007L237.099 460.416L226.278 454.545L213.844 447.077L203.006 439.908C154.658 406.492 90.3071 342.173 85.6067 234.757L85.3334 222.17V84.0906L256.449 42.6666ZM256.729 85.3333L128.03 114.529L128 211.895L128.319 226.979C132.094 307.729 172.542 368.302 235.416 412.78L247.464 420.932L256.601 426.667L258.875 425.308L273.217 415.715C338.905 369.555 379.514 309.134 383.654 227.318L384 211.725L383.82 175.436L383.756 114.108L342.623 104.79L304.446 165.444L349.824 184.706L186.44 352.625L261.268 204.199L216.431 185.167L258.817 85.8063L256.729 85.3333Z"/></svg>