<svg width="512" height="512" viewBox="0 0 512 512" fill="none" xmlns="http://www.w3.org/2000/svg"><path fill-rule="evenodd" clip-rule="evenodd" d="M108.179 234.667C118.531 162.298 180.769 106.667 256 106.667C331.231 106.667 393.469 162.298 403.821 234.667H384V277.333H403.821C394.466 342.735 342.735 394.466 277.333 403.821V384H234.667V469.333H277.333V446.828C366.328 436.99 436.99 366.328 446.828 277.333H469.333V234.667H446.828C436.216 138.668 354.828 64 256 64C157.172 64 75.784 138.668 65.1718 234.667H42.6667V277.333H128V234.667H108.179ZM277.823 147.823V266.97L335.575 324.738L305.405 354.908L235.156 284.659V147.823H277.823Z"/></svg>