<svg xmlns="http://www.w3.org/2000/svg" width="512" height="512" viewBox="0 0 512 512"><path fill-rule="evenodd" d="M384,1.42108547e-14 L384,384 L1.42108547e-14,384 L1.42108547e-14,1.42108547e-14 L384,1.42108547e-14 Z M341.333333,42.6666667 L42.6666667,42.6666667 L42.6666667,341.333333 L341.333333,341.333333 L341.333333,42.6666667 Z M159.133867,190.1824 C165.211733,190.1824 170.743467,190.762667 175.7248,191.921067 C180.708267,193.0304 186.363733,195.022933 192.6912,197.8944 L184.693333,216.0448 C176.273067,211.406933 168.200533,209.088 160.477867,209.088 C151.1616,209.088 144.03584,212.3136 139.103147,218.766933 C133.92128,225.521067 131.330347,234.4448 131.330347,245.536 C131.330347,257.0304 134.045867,266.0288 139.476907,272.5312 C144.907947,278.984533 152.407467,282.210133 161.973333,282.210133 C166.308267,282.210133 170.293333,281.632 173.930667,280.471467 C177.568,279.261867 181.9776,277.0944 187.159467,273.969067 L194.109867,293.252267 C187.8336,296.3264 182.350933,298.3936 177.668267,299.451733 C172.9856,300.561067 167.204267,301.115733 160.328533,301.115733 C149.9648,301.115733 141.3952,299.6032 134.61888,296.578133 C125.152,292.343467 118.00192,285.664 113.168853,276.539733 C108.834133,268.373333 106.666667,258.391467 106.666667,246.594133 C106.666667,226.6816 112.67072,211.607467 124.678613,201.373867 C133.398187,193.9136 144.882987,190.1824 159.133867,190.1824 Z M275.195733,192 L275.195733,210.818133 L235.332267,210.818133 L235.332267,235.133867 L273.194667,235.133867 L273.194667,253.952 L235.332267,253.952 L235.332267,279.848533 L277.333333,279.848533 L277.333333,298.666667 L213.333333,298.666667 L213.333333,192 L275.195733,192 Z M165.864533,64 L185.476267,121.661653 C187.342933,127.131733 189.531733,134.308267 192.040533,143.190827 C194.5472,134.408533 196.763733,127.232213 198.683733,121.661653 L218.536533,64 L256,64 L256,170.666667 L231.424,170.666667 L231.424,84.3246933 C229.610667,91.1496533 227.528533,97.92448 225.179733,104.649173 L202.446933,170.666667 L180.512,170.666667 L158.4192,106.455893 C156.497067,100.885333 154.229333,93.5082667 151.613867,84.3246933 L151.613867,170.666667 L128,170.666667 L128,64 L165.864533,64 Z" transform="translate(64 64)"/></svg>