<svg width="512" height="512" viewBox="0 0 512 512" fill="none" xmlns="http://www.w3.org/2000/svg"><path fill-rule="evenodd" clip-rule="evenodd" d="M64 64V426.667H170.667V384H106.667V106.667H405.333V320H448V64H64ZM192 341.333V384H234.667V469.333H362.667V384H405.333V469.333H490.667V426.667H448V341.333H320V426.667H277.333V341.333H192ZM192 128H128V170.667H192V128ZM224 128H288V170.667H224V128ZM384 128H320V170.667H384V128ZM128 192H192V234.667H128V192ZM288 192H224V234.667H288V192ZM320 192H384V234.667H320V192ZM192 256H128V298.667H192V256ZM224 256H288V298.667H224V256ZM384 256H320V298.667H384V256Z"/></svg>