<svg width="512" height="512" viewBox="0 0 512 512" fill="none" xmlns="http://www.w3.org/2000/svg"><path fill-rule="evenodd" clip-rule="evenodd" d="M341.333 469.333H320V426.667H277.333V469.333H256V426.667H213.333V469.333H85.3335V42.6666H426.667V469.333H384V426.667H341.333V469.333ZM352 405.333L384 373.333V117.333L352 85.3333H160L128 117.333V373.333L160 405.333H352ZM320 149.333V128H192V149.333H149.333V192H192V213.333H149.333V256H192V277.333H149.333V320H192V341.333H320V320H362.667V277.333H320V256H362.667V213.333H320V192H362.667V149.333H320ZM213.333 149.333H298.667V320H213.333V149.333Z"/></svg>