<svg width="512" height="512" viewBox="0 0 512 512" fill="none" xmlns="http://www.w3.org/2000/svg"><path fill-rule="evenodd" clip-rule="evenodd" d="M256 64L469.333 212.203L385.797 448H126.203L42.6667 212.203L256 64ZM200.25 357.868L161.752 408.074H350.234L327.248 378.11L200.25 357.868ZM95.1527 235.957L149.726 390.008L184.195 345.072L151.355 250.889L95.1527 235.957ZM408.67 258.894L346.455 369.386L362.238 389.988L408.67 258.894ZM366.644 249.292L273.342 274.065L319.085 333.733L366.644 249.292ZM256 285.206L227.934 321.796L291.881 331.997L256 285.206ZM199.832 263.765L214.447 305.626L238.644 274.065L199.832 263.765ZM266.432 203.258L266.439 255.202L351.988 232.483L266.432 203.258ZM245.554 213.739L207.933 245.2L245.554 255.201V213.739ZM245.554 120.594L105.383 217.971L159.831 232.424L245.554 160.698V120.594ZM266.432 120.594V160.858L380.444 199.785L266.432 120.594Z"/></svg>