<svg xmlns="http://www.w3.org/2000/svg" width="512" height="512" viewBox="0 0 512 512"><path fill-rule="evenodd" d="M224,1.42108547e-14 C241.673112,1.42108547e-14 256,14.326888 256,32 C256,34.0081162 255.815029,35.97303 255.461196,37.8786331 C255.813522,39.4176473 256,41.0203798 256,42.6666667 L256,106.666667 C256,170.090239 209.871725,222.739975 149.334332,232.896719 L149.333333,277.333333 C149.333333,324.461632 187.538368,362.666667 234.666667,362.666667 C281.794965,362.666667 320,324.461632 320,277.333333 L319.999607,252.358139 C295.142375,243.572185 277.333333,219.865855 277.333333,192 C277.333333,156.653776 305.987109,128 341.333333,128 C376.679557,128 405.333333,156.653776 405.333333,192 C405.333333,219.865855 387.524292,243.572185 362.66706,252.358139 L362.666667,277.333333 C362.666667,348.025781 305.359115,405.333333 234.666667,405.333333 C163.974219,405.333333 106.666667,348.025781 106.666667,277.333333 L106.665668,232.896719 C46.1282749,222.739975 1.42108547e-14,170.090239 1.42108547e-14,106.666667 L1.42108547e-14,42.6666667 C1.42108547e-14,41.0203798 0.186478211,39.4176473 0.539464149,37.8784395 C0.184970924,35.97303 1.42108547e-14,34.0081162 1.42108547e-14,32 C1.42108547e-14,14.326888 14.326888,1.42108547e-14 32,1.42108547e-14 C49.673112,1.42108547e-14 64,14.326888 64,32 C64,45.9329273 55.0954792,57.7860924 42.6668633,62.1790696 L42.6666667,106.666667 C42.6666667,153.794965 80.8717013,192 128,192 C175.128299,192 213.333333,153.794965 213.333333,106.666667 L213.333137,62.1790696 C200.904521,57.7860924 192,45.9329273 192,32 C192,14.326888 206.326888,1.42108547e-14 224,1.42108547e-14 Z M341.333333,170.666667 C329.551259,170.666667 320,180.217925 320,192 C320,203.782075 329.551259,213.333333 341.333333,213.333333 C353.115408,213.333333 362.666667,203.782075 362.666667,192 C362.666667,180.217925 353.115408,170.666667 341.333333,170.666667 Z" transform="translate(64 64)"/></svg>