<svg width="512" height="512" viewBox="0 0 512 512" fill="none" xmlns="http://www.w3.org/2000/svg"><path fill-rule="evenodd" clip-rule="evenodd" d="M82.9512 352.352C70.7918 326.326 64 297.289 64 266.667C64 154.737 154.737 63.9998 266.667 63.9998C297.289 63.9998 326.326 70.7916 352.352 82.951C319.848 57.701 279.013 42.6665 234.667 42.6665C128.628 42.6665 42.6667 128.628 42.6667 234.667C42.6667 279.013 57.7012 319.848 82.9512 352.352ZM469.333 277.333C469.333 383.372 383.372 469.333 277.333 469.333C171.295 469.333 85.3333 383.372 85.3333 277.333C85.3333 171.294 171.295 85.3332 277.333 85.3332C383.372 85.3332 469.333 171.294 469.333 277.333ZM387.836 231.281L357.669 201.114L256 303.336L207.083 254.419L176.917 284.586L256 363.669L387.836 231.281Z"/></svg>