<svg width="512" height="512" viewBox="0 0 512 512" fill="none" xmlns="http://www.w3.org/2000/svg"><path fill-rule="evenodd" clip-rule="evenodd" d="M192 42.6666V96H234.667V42.6666H192ZM281.208 115.281L318.921 77.5688L349.09 107.739L311.378 145.451L281.208 115.281ZM145.441 115.281L107.729 77.569L77.5591 107.739L115.271 145.451L145.441 115.281ZM266.667 213.333L266.666 213.49C268.567 213.386 270.481 213.333 272.407 213.333C285.333 213.333 297.701 215.707 309.103 220.038C309.256 217.823 309.333 215.587 309.333 213.333C309.333 160.314 266.353 117.333 213.333 117.333C160.314 117.333 117.333 160.314 117.333 213.333C117.333 250.956 138.975 283.523 170.489 299.266C172.965 284.701 178.487 271.174 186.377 259.363C170.596 250.101 160 232.955 160 213.333C160 183.878 183.878 160 213.333 160C242.788 160 266.667 183.878 266.667 213.333ZM330.666 231.304C332.245 232.383 333.792 233.504 335.306 234.667H384V192H330.666V231.304ZM42.6665 192H95.9998V234.667H42.6665V192ZM77.5623 318.928L115.275 281.215L145.445 311.385L107.732 349.098L77.5623 318.928ZM233.035 317.728L233.871 351.657L200.999 360.104C191.077 362.653 183.792 371.709 183.792 382.359C183.792 395.047 194.077 405.333 206.766 405.333H379.074C405.357 405.333 426.663 384.027 426.663 357.744C426.663 331.46 405.357 310.154 379.074 310.154C372.243 310.154 365.855 311.567 360.097 314.076L325.549 329.129L306.343 296.706C299.419 285.016 286.788 277.333 272.407 277.333C250.655 277.333 233.022 294.966 233.022 316.718C233.022 317.056 233.026 317.393 233.035 317.728ZM379.074 267.487C366.269 267.487 354.087 270.154 343.053 274.961C328.765 250.84 302.475 234.667 272.407 234.667C227.091 234.667 190.356 271.402 190.356 316.718C190.356 317.407 190.364 318.094 190.381 318.779C162.057 326.057 141.125 351.764 141.125 382.359C141.125 418.611 170.513 448 206.766 448H379.074C428.921 448 469.33 407.591 469.33 357.744C469.33 307.896 428.921 267.487 379.074 267.487Z"/></svg>