<svg width="512" height="512" viewBox="0 0 512 512" fill="none" xmlns="http://www.w3.org/2000/svg"><path fill-rule="evenodd" clip-rule="evenodd" d="M192 42.6666V96H234.667V42.6666H192ZM281.208 115.281L318.921 77.5688L349.09 107.739L311.378 145.451L281.208 115.281ZM145.441 115.281L107.729 77.569L77.5591 107.739L115.271 145.451L145.441 115.281ZM309.333 213.333C309.333 215.587 309.256 217.823 309.103 220.038C297.701 215.707 285.333 213.333 272.407 213.333C221.257 213.333 178.783 250.479 170.489 299.266C138.975 283.523 117.333 250.956 117.333 213.333C117.333 160.314 160.314 117.333 213.333 117.333C266.352 117.333 309.333 160.314 309.333 213.333ZM330.666 231.304C332.245 232.383 333.792 233.504 335.306 234.667H384V192H330.666V231.304ZM42.6665 192H95.9998V234.667H42.6665V192ZM77.5623 318.928L115.275 281.215L145.445 311.385L107.732 349.098L77.5623 318.928ZM190.378 318.779C190.361 318.094 190.352 317.407 190.352 316.718C190.352 271.402 227.088 234.667 272.404 234.667C302.472 234.667 328.762 250.84 343.05 274.961C354.084 270.154 366.266 267.487 379.07 267.487C428.918 267.487 469.327 307.896 469.327 357.744C469.327 407.591 428.918 448 379.07 448H206.763C170.51 448 141.122 418.611 141.122 382.359C141.122 351.764 162.053 326.057 190.378 318.779Z"/></svg>