<svg width="512" height="512" viewBox="0 0 512 512" fill="none" xmlns="http://www.w3.org/2000/svg"><path d="M256 42.668L345.751 130.505L315.582 160.031L277.333 122.599V218.343H234.667V122.599L196.418 160.031L166.248 130.505L256 42.668Z"/><path fill-rule="evenodd" clip-rule="evenodd" d="M448 448.001V406.245H353.792C359.501 393.457 362.667 379.335 362.667 364.488C362.667 306.835 314.91 260.097 256 260.097C197.09 260.097 149.333 306.835 149.333 364.488C149.333 379.335 152.5 393.457 158.209 406.245H64V448.001H448ZM303.703 406.245C313.839 395.163 320 380.531 320 364.488C320 329.897 291.347 301.854 256 301.854C220.653 301.854 192 329.897 192 364.488C192 380.531 198.162 395.163 208.296 406.245H303.703Z"/><path d="M405.333 364.488H469.333V322.732H405.333V364.488Z"/><path d="M106.667 364.488H42.6667V322.732H106.667V364.488Z"/><path d="M175.085 234.895L121.752 182.7L91.5817 212.226L144.915 264.423L175.085 234.895Z"/><path d="M390.249 182.7L336.915 234.895L367.085 264.423L420.418 212.226L390.249 182.7Z"/></svg>