<svg xmlns="http://www.w3.org/2000/svg" width="512" height="512" viewBox="0 0 512 512"><path fill-rule="evenodd" d="M42.6666667,42.6666667 L149.333333,42.6666667 L149.333333,1.42108547e-14 L-1.42108547e-14,1.42108547e-14 L-1.42108547e-14,192 L149.333333,192 L149.333333,149.333333 L42.6666667,149.333333 L42.6666667,42.6666667 Z M320,1.42108547e-14 L170.666667,1.42108547e-14 L170.666667,192 L320,192 L320,1.42108547e-14 Z M341.333333,298.666667 C341.333333,334.013867 312.680533,362.666667 277.333333,362.666667 C241.986133,362.666667 213.333333,334.013867 213.333333,298.666667 C213.333333,263.319467 241.986133,234.666667 277.333333,234.666667 C312.680533,234.666667 341.333333,263.319467 341.333333,298.666667 Z M362.666667,298.666667 C362.666667,306.033067 361.732267,313.181867 359.978667,320 L405.333333,320 L405.333333,277.333333 L359.978667,277.333333 C361.732267,284.151467 362.666667,291.300267 362.666667,298.666667 Z M64,320 L194.688,320 C192.9344,313.181867 192,306.033067 192,298.666667 C192,291.300267 192.9344,284.151467 194.688,277.333333 L64,277.333333 L64,320 Z" transform="translate(64 85.333)"/></svg>