<svg width="512" height="512" viewBox="0 0 512 512" fill="none" xmlns="http://www.w3.org/2000/svg"><path fill-rule="evenodd" clip-rule="evenodd" d="M255.999 42.6667C293.608 42.6667 328.943 52.3984 359.625 69.4809L302.961 84.9347L229.512 173.074C228.836 172.366 228.15 171.664 227.454 170.968C183.87 127.383 116.215 122.538 67.2782 156.432C103.049 88.7723 174.14 42.6667 255.999 42.6667ZM406.297 194.996L440.514 69.5332L315.052 103.75L168.003 280.209L146.125 258.33L115.955 288.5L153.666 326.211L104.374 375.503C90.1402 371.702 74.3234 375.385 63.1564 386.552C46.4941 403.214 46.4941 430.229 63.1564 446.892C79.8188 463.554 106.834 463.554 123.496 446.892C134.664 435.725 138.346 419.907 134.545 405.672L183.836 356.381L221.549 394.095L251.719 363.925L229.839 342.044L406.297 194.996ZM368.667 170.815L207.772 304.894L205.154 302.275L339.233 141.38L379.705 130.343L368.667 170.815Z"/></svg>