<svg width="512" height="512" viewBox="0 0 512 512" fill="none" xmlns="http://www.w3.org/2000/svg"><path fill-rule="evenodd" clip-rule="evenodd" d="M469.333 85.3359H42.6667V426.669H170.667H213.333H298.667L256 384.003H213.333V341.336H256V298.669H213.333V256.003H256H298.667H341.333H384H426.667V298.669L469.333 341.336V85.3359ZM170.667 298.669V256.003H85.3334V298.669H170.667ZM85.3334 341.336V384.003H170.667V341.336H85.3334ZM426.667 170.669V213.336H341.333V170.669H426.667ZM298.667 170.669V213.336H213.333V170.669H298.667ZM170.667 170.669V213.336H85.3334V170.669H170.667ZM490.667 394.669L373.333 277.336H277.333V373.336L394.667 490.669L490.667 394.669ZM320 320.003H341.333V341.336H320V320.003Z"/></svg>