<svg width="512" height="512" viewBox="0 0 512 512" fill="none" xmlns="http://www.w3.org/2000/svg"><path fill-rule="evenodd" clip-rule="evenodd" d="M256 64L346.355 154.355C332.614 159.681 320.846 168.957 312.438 180.79L238.315 106.667H106.667V238.315L209.685 341.333H192V362.667H181.333C178.1 362.667 174.979 363.146 172.038 364.038L64 256V64H256ZM160 192C177.673 192 192 177.673 192 160C192 142.327 177.673 128 160 128C142.327 128 128 142.327 128 160C128 177.673 142.327 192 160 192ZM426.667 192V170.667H373.333C347.527 170.667 326.001 188.996 321.064 213.346L305.926 213.333L302.741 213.45C280.664 215.079 263.259 233.507 263.259 256C263.259 266.45 267.094 276.536 274.036 284.346L350.019 369.827L351.673 371.937C357.677 380.674 356.376 392.719 348.247 399.945C344.342 403.416 339.299 405.333 334.074 405.333L318.936 405.346C313.999 380.996 292.473 362.667 266.667 362.667H213.333V384H181.333C175.442 384 170.667 388.776 170.667 394.667C170.667 400.558 175.442 405.333 181.333 405.333H213.333V426.667H181.333C175.442 426.667 170.667 431.442 170.667 437.333C170.667 443.224 175.442 448 181.333 448H213.333V469.333H266.667C292.466 469.333 313.986 451.015 318.931 426.676L334.074 426.667L337.972 426.488C347.01 425.659 355.587 421.964 362.421 415.889C380.033 400.234 381.619 373.266 365.964 355.654L289.981 270.173L288.377 268.13C285.924 264.582 284.592 260.354 284.592 256C284.592 244.218 294.144 234.667 305.926 234.667L321.069 234.676C326.014 259.015 347.534 277.333 373.333 277.333H426.667V256H458.667C464.558 256 469.333 251.224 469.333 245.333C469.333 239.442 464.558 234.667 458.667 234.667H426.667V213.333H458.667C464.558 213.333 469.333 208.558 469.333 202.667C469.333 196.776 464.558 192 458.667 192H426.667Z"/></svg>