<svg width="512" height="512" viewBox="0 0 512 512" fill="none" xmlns="http://www.w3.org/2000/svg"><path fill-rule="evenodd" clip-rule="evenodd" d="M42.6666 64H85.3333V128C96.6491 128 107.502 132.495 115.503 140.497C118.163 143.156 120.435 146.131 122.284 149.333H192C198.715 149.333 205.038 152.495 209.067 157.867L330.667 320H389.715C391.565 316.798 393.837 313.824 396.497 311.164C404.499 303.162 415.351 298.667 426.667 298.667V64H469.333V448H426.667V384C415.351 384 404.499 379.505 396.497 371.503C393.837 368.843 391.565 365.869 389.715 362.667H320C313.284 362.667 306.963 359.505 302.933 354.133L181.333 192H122.284C120.435 195.202 118.163 198.177 115.503 200.836C107.502 208.838 96.6491 213.333 85.3333 213.333V448H42.6666V64Z"/></svg>