<svg width="512" height="512" viewBox="0 0 512 512" fill="none" xmlns="http://www.w3.org/2000/svg"><path fill-rule="evenodd" clip-rule="evenodd" d="M256 64L448 256H387.648L238.315 106.667H106.667V238.315L234.667 366.315V426.667L64 256V64H256ZM160 192C177.673 192 192 177.673 192 160C192 142.327 177.673 128 160 128C142.327 128 128 142.327 128 160C128 177.673 142.327 192 160 192ZM399.088 313.753L368.918 283.583L268.5 384.001L368.918 484.419L399.088 454.249L350.173 405.334H469.336V362.668H350.173L399.088 313.753Z"/></svg>