<svg width="512" height="512" viewBox="0 0 512 512" fill="none" xmlns="http://www.w3.org/2000/svg"><path fill-rule="evenodd" clip-rule="evenodd" d="M256 64L469.333 277.333L439.982 306.684C428.495 296.88 415.872 289.235 402.107 284.208L408.981 277.333L238.315 106.667H106.667V238.315L238.55 370.198C237.579 372.418 236.724 374.529 235.981 376.509L233.172 384L235.981 391.491C240.722 404.133 250.058 422.059 264.732 440.119C271.132 447.996 277.991 455.114 285.31 461.356L277.333 469.333L64 256V64H256ZM160 192C177.673 192 192 177.673 192 160C192 142.327 177.673 128 160 128C142.327 128 128 142.327 128 160C128 177.673 142.327 192 160 192ZM330.667 384C330.667 366.327 344.994 352 362.667 352C380.34 352 394.667 366.327 394.667 384C394.667 401.673 380.34 416 362.667 416C344.994 416 330.667 401.673 330.667 384ZM362.667 293.068C442.231 293.068 476.331 383.999 476.331 383.999C476.331 383.999 442.231 474.93 362.667 474.93C283.102 474.93 249.003 383.999 249.003 383.999C249.003 383.999 283.102 293.068 362.667 293.068ZM299.84 357.905C292.243 367.255 286.572 376.777 282.811 383.999C286.572 391.221 292.243 400.743 299.84 410.093C315.316 429.139 335.852 444.21 362.667 444.21C389.481 444.21 410.018 429.139 425.493 410.093C433.09 400.743 438.752 391.238 442.513 384.016V383.982C438.752 376.76 433.09 367.255 425.493 357.905C410.018 338.858 389.481 323.788 362.667 323.788C335.852 323.788 315.316 338.858 299.84 357.905Z"/></svg>