<svg width="512" height="512" viewBox="0 0 512 512" fill="none" xmlns="http://www.w3.org/2000/svg"><path fill-rule="evenodd" clip-rule="evenodd" d="M128 422.709L146.175 378.894C183.041 395.28 215.525 403.473 243.625 403.473C266.57 403.473 285.132 397.774 299.311 386.375C313.49 374.738 320.58 359.659 320.58 341.135C320.58 324.987 315.682 312.994 305.885 305.158C296.998 297.635 277.369 288.36 246.999 277.333H42.6665V234.667H469.333V277.333H362.257C376.752 292.727 384 312.688 384 337.217C384 372.839 369.434 400.742 340.302 420.928C314.264 438.976 281.78 448 242.852 448C204.955 448 166.671 439.57 128 422.709ZM234.965 213.333H141.889C133.661 200.004 129.547 184.661 129.547 167.302C129.547 134.768 143.339 108.646 170.924 88.9351C194.385 72.3117 224.548 64 261.414 64C299.053 64 337.208 73.1429 375.879 91.4286L357.704 135.243C328.83 117.432 298.538 108.527 266.828 108.527C243.625 108.527 225.45 113.395 212.302 123.132C199.412 132.631 192.967 145.811 192.967 162.672C192.967 177.633 198.252 189.507 208.822 198.293C214.372 202.783 223.087 207.796 234.965 213.333Z"/></svg>