<svg width="512" height="512" viewBox="0 0 512 512" fill="none" xmlns="http://www.w3.org/2000/svg"><path d="M149.333 447.771V64H209.187C237.535 64 258.93 64.9028 273.375 66.7083C287.819 68.3333 301.09 71.5833 313.187 76.4583C329.257 82.9583 341.715 93.7917 350.562 108.958C359.59 124.125 364.104 142.181 364.104 163.125C364.104 193.819 354.986 216.75 336.75 231.917C325.375 241.306 308.583 248.076 286.375 252.229C345.236 258.91 374.667 290.056 374.667 345.667C374.667 387.917 358.326 417.257 325.646 433.688C313.729 439.646 301.722 443.528 289.625 445.333C277.528 446.958 256.132 447.771 225.437 447.771H149.333ZM193.75 235.979H213.792C250.264 235.979 275.18 232.188 288.542 224.604C307.5 213.771 316.979 195.083 316.979 168.542C316.979 140.375 308.132 121.417 290.437 111.667C276.535 103.903 250.986 100.021 213.792 100.021H193.75V235.979ZM193.75 411.75H213.792C238.528 411.75 256.674 411.028 268.229 409.583C279.965 407.958 289.986 404.979 298.292 400.646C317.792 390.354 327.542 370.403 327.542 340.792C327.542 310.639 315.264 290.417 290.708 280.125C275.542 273.625 249.903 270.375 213.792 270.375H193.75V411.75Z"/></svg>