<svg width="512" height="512" viewBox="0 0 512 512" fill="none" xmlns="http://www.w3.org/2000/svg"><path d="M256 42.6666C291.346 42.6666 320 71.3204 320 106.667L320.047 277.361C345.929 296.823 362.667 327.79 362.667 362.667C362.667 421.577 314.911 469.333 256 469.333C197.09 469.333 149.333 421.577 149.333 362.667C149.333 327.79 166.072 296.823 191.953 277.361L192 106.667C192 71.3204 220.654 42.6666 256 42.6666ZM256 85.3333C244.218 85.3333 234.667 94.8846 234.667 106.667L234.669 302.308C209.81 311.093 192 334.8 192 362.667C192 398.013 220.654 426.667 256 426.667C291.346 426.667 320 398.013 320 362.667C320 334.808 302.2 311.106 277.353 302.315L277.333 106.667C277.333 94.8846 267.782 85.3333 256 85.3333ZM256 320C279.564 320 298.667 339.102 298.667 362.667C298.667 386.231 279.564 405.333 256 405.333C232.436 405.333 213.333 386.231 213.333 362.667C213.333 339.102 232.436 320 256 320ZM384 256V277.333H341.334V256H384ZM384 192V213.333H341.334V192H384ZM384 128V149.333H341.334V128H384ZM384 64V85.3333H341.334V64H384Z"/></svg>