<svg width="512" height="512" viewBox="0 0 512 512" fill="none" xmlns="http://www.w3.org/2000/svg"><path d="M321.436 469.333C314.939 469.333 307.991 468.895 300.55 467.937L64 426.664V234.654L156.949 182.556C156.949 182.556 231.661 42.8803 231.668 42.88C282.871 40.1798 318.828 62.7741 302.647 125.809C297.747 144.896 291.239 170.651 291.239 170.651H365.032C390.872 170.651 413.367 180.726 428.4 197.904C444.847 216.707 451.259 242.896 446.434 271.658L446.391 271.804C441.888 297.534 429.815 364.911 415.276 402.225C407.813 421.33 389.093 469.333 321.436 469.333Z"/></svg>