<svg width="512" height="512" viewBox="0 0 512 512" fill="none" xmlns="http://www.w3.org/2000/svg"><path d="M190.564 42.6673C197.061 42.6673 204.009 43.1048 211.45 44.0632L448 85.3362L448 277.346L355.051 329.444C355.051 329.444 280.339 469.12 280.332 469.12C229.129 471.82 193.172 449.226 209.353 386.191C214.253 367.104 220.761 341.349 220.761 341.349L146.968 341.349C121.128 341.349 98.6328 331.274 83.6004 314.096C67.1528 295.293 60.741 269.104 65.566 240.342L65.6088 240.196C70.1121 214.466 82.1851 147.089 96.7242 109.775C104.187 90.6697 122.908 42.6673 190.564 42.6673Z"/></svg>