<svg width="512" height="512" viewBox="0 0 512 512" fill="none" xmlns="http://www.w3.org/2000/svg"><path fill-rule="evenodd" clip-rule="evenodd" d="M207.046 144.956L367.046 304.956L202.667 469.335L154.221 420.889C169.832 413.207 180.575 397.141 180.575 378.567C180.575 352.532 159.47 331.426 133.435 331.426C114.86 331.426 98.7946 342.169 91.1127 357.781L42.6667 309.335L207.046 144.956ZM239.235 112.766L309.333 42.668L357.779 91.114C342.168 98.7959 331.425 114.861 331.425 133.436C331.425 159.471 352.53 180.577 378.565 180.577C397.14 180.577 413.205 169.834 420.887 154.222L469.333 202.668L399.235 272.766L239.235 112.766Z"/></svg>