<svg width="512" height="512" viewBox="0 0 512 512" fill="none" xmlns="http://www.w3.org/2000/svg"><path fill-rule="evenodd" clip-rule="evenodd" d="M309.224 42.668L355.148 88.6042L343.247 101.895C335.541 110.501 331.232 121.636 331.232 133.342C331.232 159.371 352.327 180.471 378.349 180.471C388.753 180.471 398.704 177.066 406.83 170.896L409.788 168.454L423.076 156.549L469.333 202.819L357.397 310.497L202.713 469.335L156.542 423.152L168.443 409.861C176.149 401.255 180.458 390.12 180.458 378.414C180.458 352.385 159.363 331.284 133.341 331.284C122.937 331.284 112.986 334.69 104.86 340.86L101.901 343.302L88.6139 355.207L42.6667 309.248L185.627 165.188L204.512 146.261L309.224 42.668ZM212.276 191.844L107.187 297.734L109.7 296.935C114.259 295.612 118.945 294.67 123.712 294.127L128.504 293.718L133.341 293.581C180.18 293.581 218.151 331.562 218.151 378.414C218.151 384.889 217.416 391.273 215.993 397.459L214.799 402.061L214.387 403.322L317.668 297.263L212.276 191.844ZM297.728 107.069L238.982 165.188L344.43 270.663L402.724 214.579L401.99 214.821C397.43 216.144 392.745 217.086 387.978 217.629L383.186 218.037L378.349 218.175C331.51 218.175 293.538 180.194 293.538 133.342C293.538 126.867 294.274 120.483 295.696 114.296L296.891 109.695L297.728 107.069Z"/></svg>