<svg width="512" height="512" viewBox="0 0 512 512" fill="none" xmlns="http://www.w3.org/2000/svg"><path d="M448 149.333C433.732 150.347 419.412 148.284 406.011 143.282C392.609 138.28 380.439 130.457 370.325 120.342C360.21 110.227 352.387 98.0574 347.385 84.6561C342.383 71.2548 340.319 56.9351 341.333 42.6667H266.667V330.667C266.705 344.26 262.414 357.512 254.416 368.504C246.418 379.495 235.128 387.654 222.182 391.799C209.235 395.944 195.306 395.859 182.411 391.557C169.517 387.254 158.327 378.958 150.463 367.871C142.6 356.783 138.47 343.479 138.674 329.887C138.878 316.295 143.404 303.121 151.597 292.274C159.789 281.427 171.223 273.47 184.241 269.557C197.258 265.643 211.184 265.976 224 270.507V193.707C216.942 192.6 209.811 192.029 202.667 192C175.241 192 148.431 200.133 125.628 215.37C102.824 230.607 85.0508 252.263 74.5554 277.601C64.0601 302.939 61.314 330.821 66.6645 357.719C72.015 384.618 85.2217 409.326 104.615 428.719C124.007 448.112 148.715 461.319 175.614 466.669C202.513 472.019 230.394 469.273 255.732 458.778C281.07 448.283 302.727 430.509 317.964 407.706C333.201 384.902 341.333 358.092 341.333 330.667V193.067C372.95 213.912 410.137 224.696 448 224V149.333Z"/></svg>