<svg width="512" height="512" viewBox="0 0 512 512" fill="none" xmlns="http://www.w3.org/2000/svg"><path fill-rule="evenodd" clip-rule="evenodd" d="M372.771 232.297H467.37C457.771 145.457 396.048 74.327 314.18 50.8851C349.342 106.498 368.872 169.015 372.771 232.297ZM256.001 42.668C265.434 54.4593 273.976 66.7198 281.625 79.3608C310.194 126.573 326.323 179.092 330.013 232.297H181.988C185.678 179.092 201.808 126.573 230.376 79.3608C238.026 66.7198 246.567 54.4592 256 42.668L256.001 42.668ZM198.109 50.4305C115.441 73.3955 52.9696 144.888 43.3073 232.297H139.23C143.14 168.842 162.766 106.157 198.109 50.4305ZM139.23 279.705H43.3074C52.9702 367.113 115.441 438.605 198.109 461.57C162.767 405.844 143.14 343.159 139.23 279.705ZM256.001 469.333H256C246.567 457.541 238.026 445.281 230.376 432.64C201.808 385.428 185.678 332.909 181.988 279.705H271.048C248.454 304.374 234.667 337.244 234.667 373.334C234.667 405.568 245.665 435.233 264.114 458.781C261.487 462.337 258.783 465.855 256.001 469.333ZM373.333 469.334C426.353 469.334 469.333 426.353 469.333 373.334C469.333 320.314 426.353 277.334 373.333 277.334C320.314 277.334 277.333 320.314 277.333 373.334C277.333 426.353 320.314 469.334 373.333 469.334ZM389.333 298.667V357.334H426.667V389.334H357.333V298.667H389.333Z"/></svg>