<svg width="512" height="512" viewBox="0 0 512 512" fill="none" xmlns="http://www.w3.org/2000/svg"><path fill-rule="evenodd" clip-rule="evenodd" d="M213.333 42.6641C166.205 42.6641 128 80.8691 128 127.997V298.664C128 334.011 156.654 362.664 192 362.664H320C355.347 362.664 384 334.011 384 298.664V127.997C384 80.8691 345.794 42.6641 298.667 42.6641H213.333ZM256 106.664C267.782 106.664 277.333 97.1127 277.333 85.3307C277.333 73.5488 267.782 63.9974 256 63.9974C244.218 63.9974 234.667 73.5488 234.667 85.3307C234.667 97.1127 244.218 106.664 256 106.664ZM333.474 205.718C332.493 214.363 326.364 221.521 317.824 223.191C304.205 225.853 281.841 229.228 256 229.228C230.159 229.228 207.795 225.853 194.176 223.191C185.636 221.521 179.507 214.363 178.527 205.718L172.882 155.915C171.631 144.871 179.063 134.763 190.064 133.179C206.486 130.814 231.243 127.997 256 127.997C280.757 127.997 305.515 130.814 321.937 133.179C332.937 134.763 340.369 144.871 339.117 155.915L333.474 205.718ZM170.667 286.707C182.449 286.707 192 277.154 192 265.373C192 253.591 182.449 244.04 170.667 244.04C158.885 244.04 149.333 253.591 149.333 265.373C149.333 277.154 158.885 286.707 170.667 286.707ZM362.667 265.373C362.667 277.154 353.116 286.707 341.333 286.707C329.551 286.707 320 277.154 320 265.373C320 253.591 329.551 244.04 341.333 244.04C353.116 244.04 362.667 253.591 362.667 265.373ZM320 426.664V405.331H192V426.664H320ZM149.333 469.331V447.997H362.667V469.331H149.333Z"/></svg>