<svg width="512" height="512" viewBox="0 0 512 512" fill="none" xmlns="http://www.w3.org/2000/svg"><path d="M256 213.333V373.333L308.255 269.235L364.437 326.805L415.015 228.195L448 246.4L373.564 390.482L317.364 332.892L277.333 405.333H448V448H214.26L214.247 435.443L213.854 435.458V213.333H256ZM362.667 64V192H320V106.667H106.667V277.333H192V320H64V64H362.667ZM170.667 213.333V234.667H128V213.333H170.667ZM170.667 170.667V192H128V170.667H170.667ZM234.667 170.667V192H192V170.667H234.667ZM298.667 170.667V192H256V170.667H298.667ZM170.667 128V149.333H128V128H170.667ZM234.667 128V149.333H192V128H234.667ZM298.667 128V149.333H256V128H298.667Z"/></svg>