<svg width="512" height="512" viewBox="0 0 512 512" fill="none" xmlns="http://www.w3.org/2000/svg"><path fill-rule="evenodd" clip-rule="evenodd" d="M255.999 426.667C350.256 426.667 426.665 350.257 426.665 256C426.665 161.743 350.256 85.3334 255.999 85.3334C165.324 85.3334 91.1655 156.045 85.6596 245.333H42.927C48.4845 132.468 141.754 42.6667 255.999 42.6667C373.818 42.6667 469.332 138.179 469.332 256C469.332 373.82 373.818 469.333 255.999 469.333C204.736 469.333 157.696 451.253 120.909 421.12C114.097 415.541 107.636 409.547 101.565 403.179C97.8313 399.262 94.2454 395.204 90.8159 391.012L289.829 192H191.999V149.333H341.332H362.665V170.667V320H319.999V222.17L151.345 390.825C180.245 413.289 216.56 426.667 255.999 426.667Z"/></svg>