<svg width="512" height="512" viewBox="0 0 512 512" fill="none" xmlns="http://www.w3.org/2000/svg"><path fill-rule="evenodd" clip-rule="evenodd" d="M135.358 376.586C202.008 443.236 310.067 443.236 376.717 376.586C443.367 309.937 443.367 201.877 376.717 135.227C312.601 71.1106 210.162 68.6736 143.132 127.916L112.916 97.6999C196.653 21.8219 326.104 24.2744 406.887 105.057C490.198 188.368 490.199 323.444 406.887 406.756C323.576 490.067 188.499 490.067 105.188 406.756C68.9398 370.508 48.4624 324.461 43.7574 277.142C42.885 268.38 42.5553 259.572 42.7654 250.777C42.895 245.367 43.2285 239.962 43.7677 234.573L325.214 234.574L256.038 165.397L286.208 135.227L406.887 255.907L286.207 376.586L256.038 346.416L325.214 277.24L86.7009 277.241C91.2517 313.56 107.47 348.699 135.358 376.586Z"/></svg>