<svg width="512" height="512" viewBox="0 0 512 512" fill="none" xmlns="http://www.w3.org/2000/svg"><path d="M256 170.667V192H362.667V170.667H448V256H426.667V362.667H448V448H362.667V426.667H256V448H170.667V362.667H192V256H170.667V170.667H256ZM362.667 234.667H256V256H234.667V362.667H256V384H362.667V362.667H384V256H362.667V234.667ZM149.333 64V83.2H256V64H341.333V149.333H320V170.667H277.333V149.333H256V128H149.333V149.333H128V256H149.333V277.333H170.667V320H149.333V341.333H64V256H85.3333V149.333H64V64H149.333Z"/></svg>