<svg width="24" height="24" viewBox="0 0 24 24" fill="none" xmlns="http://www.w3.org/2000/svg"><path d="M16.5 19H15.0586C15.5603 19.4885 16.2442 19.79 17 19.79C18.1681 19.79 19.1663 19.0713 19.582 18.0527L20.9746 18.6143C20.3367 20.1833 18.7981 21.29 17 21.29C15.832 21.29 14.7736 20.8226 14 20.0654V21.5H13V18H16.5V19ZM11 21H3V13H11V21ZM5 19H9V15H5V19ZM21 16H17.5V15H18.9404C18.4388 14.5118 17.7555 14.21 17 14.21C15.8232 14.21 14.8182 14.9391 14.4082 15.9697L13.0156 15.4082C13.6478 13.8271 15.1932 12.71 17 12.71C18.1678 12.71 19.2265 13.1766 20 13.9336V12.5H21V16ZM11 11H3V3H11V11ZM21 11H13V3H21V11ZM5 9H9V5H5V9ZM15 9H19V5H15V9Z"/></svg>