<svg width="512" height="512" viewBox="0 0 512 512" fill="none" xmlns="http://www.w3.org/2000/svg"><path d="M362.667 42.6667V170.667H384V384C384 431.128 345.795 469.333 298.667 469.333H213.333C166.205 469.333 128 431.128 128 384V170.667H149.333V42.6667H362.667ZM341.333 213.333H170.667V384C170.667 406.493 188.072 424.921 210.149 426.55L213.333 426.667H298.667C322.231 426.667 341.333 407.564 341.333 384V213.333ZM320 85.3334H192V170.667H320V85.3334ZM234.667 106.667V128H213.333V106.667H234.667ZM298.667 106.667V128H277.333V106.667H298.667Z"/></svg>