<svg width="512" height="512" viewBox="0 0 512 512" fill="none" xmlns="http://www.w3.org/2000/svg"><path fill-rule="evenodd" clip-rule="evenodd" d="M85.3333 106.664C85.3333 71.3178 113.987 42.6641 149.333 42.6641H426.667V362.664H149.333C137.551 362.664 128 372.215 128 383.997V405.331C128 417.113 137.551 426.664 149.333 426.664H405.333V383.997H426.667V469.331H149.333C113.987 469.331 85.3333 440.677 85.3333 405.331V106.664ZM256 191.997V277.331H298.667V191.997H256ZM298.667 149.331C298.667 161.113 289.115 170.664 277.333 170.664C265.551 170.664 256 161.113 256 149.331C256 137.549 265.551 127.997 277.333 127.997C289.115 127.997 298.667 137.549 298.667 149.331ZM384 383.997H149.333V405.331H384V383.997Z"/></svg>