<svg width="512" height="512" viewBox="0 0 512 512" fill="none" xmlns="http://www.w3.org/2000/svg"><path fill-rule="evenodd" clip-rule="evenodd" d="M341.336 117.333C341.336 158.57 307.906 192 266.669 192C225.432 192 192.003 158.57 192.003 117.333C192.003 76.0959 225.432 42.6665 266.669 42.6665C307.906 42.6665 341.336 76.0959 341.336 117.333ZM170.669 181.333C170.669 210.788 146.791 234.667 117.336 234.667C87.8807 234.667 64.0025 210.788 64.0025 181.333C64.0025 151.878 87.8807 128 117.336 128C146.791 128 170.669 151.878 170.669 181.333ZM42.6692 320C42.6692 284.654 71.323 256 106.669 256H128.003C130.581 256 133.125 256.152 135.624 256.449C130.711 268.727 128 282.187 128 296.301V405.333H42.6692V320ZM332.918 256H392.178V278.837C402.578 282.515 412.091 288.074 420.305 295.104L440.109 283.671L469.738 334.991L449.945 346.418C450.918 351.686 451.427 357.116 451.427 362.665C451.427 368.214 450.918 373.644 449.945 378.912L469.739 390.34L440.109 441.66L420.305 430.226C412.09 437.256 402.578 442.815 392.178 446.492V469.333H332.918V446.499C322.512 442.823 312.996 437.264 304.777 430.231L284.986 441.657L255.357 390.337L275.132 378.92C274.158 373.65 273.649 368.217 273.649 362.665C273.649 357.113 274.158 351.68 275.132 346.41L255.357 334.993L284.987 283.673L304.776 295.099C312.995 288.066 322.512 282.507 332.918 278.83V256ZM398.093 362.667C398.093 382.304 382.175 398.223 362.538 398.223C342.901 398.223 326.982 382.304 326.982 362.667C326.982 343.03 342.901 327.112 362.538 327.112C382.175 327.112 398.093 343.03 398.093 362.667ZM149.333 298.666C149.333 251.538 187.538 213.333 234.667 213.333H298.667C320.42 213.333 340.272 221.473 355.344 234.873C288.06 238.669 234.669 294.433 234.669 362.666C234.669 377.627 237.236 391.988 241.953 405.333H149.333V298.666Z"/></svg>