<svg width="512" height="512" viewBox="0 0 512 512" fill="none" xmlns="http://www.w3.org/2000/svg"><path fill-rule="evenodd" clip-rule="evenodd" d="M213.333 42.665C254.571 42.665 288 76.0944 288 117.332C288 157.194 256.762 189.761 217.43 191.888L213.333 191.998C172.096 191.998 138.667 158.569 138.667 117.332C138.667 77.469 169.905 44.9023 209.237 42.7755L213.333 42.665ZM362.667 362.666H362.661V349.6L362.661 320L362.805 317.512C364.037 306.902 373.054 298.666 383.995 298.666L386.483 298.81C397.093 300.042 405.328 309.059 405.328 320V362.666H362.667V362.666ZM298.661 383.998V362.666H319.995V348.967C319.995 348.966 319.995 348.965 319.995 348.964L319.995 320C319.995 320 319.995 319.999 319.995 319.999C319.995 303.211 326.459 287.932 337.034 276.516C348.724 263.898 365.437 256 383.995 256C419.341 256 447.995 284.653 447.995 320V362.666H469.328V469.333H298.661V426.665V383.998ZM250.667 234.665C277.848 234.665 302.767 244.624 322.164 261.188C311.999 271.872 304.575 285.186 301.017 300.005C289.179 286.943 272.764 278.508 254.575 277.446L250.667 277.332H176C139.292 277.332 108.834 307.358 106.777 345.724L106.667 349.865V383.998H277.328V426.665H64V349.865C64 287.832 111.668 237.251 171.383 234.761L176 234.665H250.667ZM181.333 117.332C181.333 99.6586 195.66 85.3317 213.333 85.3317C231.006 85.3317 245.333 99.6586 245.333 117.332C245.333 135.005 231.006 149.332 213.333 149.332C195.66 149.332 181.333 135.005 181.333 117.332Z"/></svg>