<svg width="512" height="512" viewBox="0 0 512 512" fill="none" xmlns="http://www.w3.org/2000/svg"><path fill-rule="evenodd" clip-rule="evenodd" d="M288 117.332C288 76.0944 254.571 42.665 213.333 42.665L209.237 42.7755C169.905 44.9023 138.667 77.469 138.667 117.332C138.667 158.569 172.096 191.998 213.333 191.998L217.43 191.888C256.762 189.761 288 157.194 288 117.332ZM362.667 362.666H362.661V349.6L362.661 320L362.805 317.512C364.037 306.902 373.054 298.666 383.995 298.666L386.483 298.81C397.093 300.042 405.328 309.059 405.328 320V362.666H362.667V362.666ZM298.661 362.666V362.666V426.665V469.333H469.328V362.666H447.995V320C447.995 284.653 419.341 256 383.995 256C365.437 256 348.724 263.898 337.034 276.516C326.459 287.932 319.995 303.211 319.995 319.999C319.995 319.999 319.995 320 319.995 320L319.995 362.666H298.661ZM298.661 319.999C298.661 297.203 307.6 276.495 322.164 261.188C302.767 244.624 277.848 234.665 250.667 234.665H176L171.383 234.761C111.668 237.251 64 287.832 64 349.865V426.665H277.328V341.333H298.661V319.999Z"/></svg>