<svg width="512" height="512" viewBox="0 0 512 512" fill="none" xmlns="http://www.w3.org/2000/svg"><path fill-rule="evenodd" clip-rule="evenodd" d="M288 117.333C288 76.096 254.571 42.6666 213.333 42.6666L209.237 42.7771C169.905 44.9039 138.667 77.4706 138.667 117.333C138.667 158.571 172.096 192 213.333 192L217.43 191.889C256.762 189.763 288 157.196 288 117.333ZM256 373.333C256 392.538 260.614 410.665 268.794 426.667H64V349.867C64 287.834 111.668 237.253 171.383 234.763L176 234.667H250.667C280.141 234.667 306.957 246.378 326.955 265.522C285.219 283.501 256 325.005 256 373.333ZM373.333 277.333C320.314 277.333 277.333 320.314 277.333 373.333C277.333 426.352 320.314 469.333 373.333 469.333C426.353 469.333 469.333 426.352 469.333 373.333C469.333 320.314 426.353 277.333 373.333 277.333ZM436.096 340.096L352.001 424.19L310.573 382.762L329.429 363.906L352.001 386.478L417.24 321.24L436.096 340.096Z"/></svg>