<svg width="512" height="512" viewBox="0 0 512 512" fill="none" xmlns="http://www.w3.org/2000/svg"><path fill-rule="evenodd" clip-rule="evenodd" d="M213.333 42.6666C254.571 42.6666 288 76.096 288 117.333C288 157.196 256.762 189.763 217.43 191.889L213.333 192C172.096 192 138.667 158.571 138.667 117.333C138.667 77.4706 169.905 44.9039 209.237 42.7771L213.333 42.6666ZM64 426.667H268.794C262.145 413.661 257.853 399.251 256.478 384H106.667V349.867L106.777 345.725C108.834 307.36 139.292 277.333 176 277.333H250.667L254.575 277.447C267.793 278.22 280.074 282.885 290.342 290.39C300.785 279.941 313.189 271.452 326.955 265.522C306.957 246.378 280.141 234.667 250.667 234.667H176L171.383 234.763C111.668 237.253 64 287.834 64 349.867V426.667ZM181.333 117.333C181.333 99.6602 195.66 85.3333 213.333 85.3333C231.006 85.3333 245.333 99.6602 245.333 117.333C245.333 135.006 231.006 149.333 213.333 149.333C195.66 149.333 181.333 135.006 181.333 117.333ZM373.333 277.333C320.314 277.333 277.333 320.314 277.333 373.333C277.333 426.352 320.314 469.333 373.333 469.333C426.353 469.333 469.333 426.352 469.333 373.333C469.333 320.314 426.353 277.333 373.333 277.333ZM436.096 340.096L352.001 424.19L310.573 382.762L329.429 363.906L352.001 386.478L417.24 321.24L436.096 340.096Z"/></svg>