<svg width="512" height="512" viewBox="0 0 512 512" fill="none" xmlns="http://www.w3.org/2000/svg"><path fill-rule="evenodd" clip-rule="evenodd" d="M384 319.997L384 85.3308H149.333C137.551 85.3308 128 94.882 128 106.664V323.639C134.673 321.281 141.853 319.997 149.333 319.997H384ZM85.3333 106.664L85.3333 383.997V405.331C85.3333 440.677 113.987 469.331 149.333 469.331H426.667V426.664V383.997H405.333V426.664H149.333C137.551 426.664 128 417.113 128 405.331V383.997C128 372.215 137.551 362.664 149.333 362.664H426.667V319.997V42.6641H384L149.333 42.6641C113.987 42.6641 85.3333 71.3179 85.3333 106.664ZM234.667 277.331V191.997H277.333V277.331H234.667ZM256 170.664C267.782 170.664 277.333 161.113 277.333 149.331C277.333 137.549 267.782 127.997 256 127.997C244.218 127.997 234.667 137.549 234.667 149.331C234.667 161.113 244.218 170.664 256 170.664ZM149.333 383.997H384V405.331H149.333V383.997Z"/></svg>