<svg width="512" height="512" viewBox="0 0 512 512" fill="none" xmlns="http://www.w3.org/2000/svg"><path fill-rule="evenodd" clip-rule="evenodd" d="M213.333 42.6666C254.571 42.6666 288 76.096 288 117.333C288 157.196 256.762 189.763 217.43 191.889L213.333 192C172.096 192 138.667 158.571 138.667 117.333C138.667 77.4706 169.905 44.9039 209.237 42.7771L213.333 42.6666ZM362.573 345.118C360.152 283.697 310.976 234.667 250.667 234.667H176L171.383 234.763C111.668 237.253 64 287.834 64 349.867V426.667H262.826L222.516 391.395L228.986 384H106.667V349.867L106.777 345.725C108.834 307.36 139.292 277.333 176 277.333H250.667L254.575 277.447C290.808 279.564 320 310.933 320 349.867V363.3L345.877 385.941L362.667 364.123V349.867L362.573 345.118ZM181.333 117.333C181.333 99.6602 195.66 85.3333 213.333 85.3333C231.006 85.3333 245.333 99.6602 245.333 117.333C245.333 135.006 231.006 149.333 213.333 149.333C195.66 149.333 181.333 135.006 181.333 117.333ZM475.576 322.34L441.757 296.326L348.928 416.981L280.715 357.278L252.619 389.388L355.054 479.019L475.576 322.34Z"/></svg>