<svg width="512" height="512" viewBox="0 0 512 512" fill="none" xmlns="http://www.w3.org/2000/svg"><path d="M305.652 246.304C309.089 246.381 312.611 246.362 316.016 246.34C316.581 246.337 317.147 246.333 317.713 246.33L320.818 246.299C323.305 246.299 325.793 246.293 328.279 246.286C334.294 246.271 340.517 246.255 346.65 246.334H350.504L351.733 242.34C354.507 233.349 355.999 225.296 356.299 217.72C357.665 183.312 344.984 154.589 318.609 132.347C299.728 116.428 277.778 108.62 253.411 109.143C221.713 109.826 195.709 122.479 176.12 146.754C153.639 174.613 147.221 206.517 157.044 241.58C157.079 241.706 157.119 241.812 157.158 241.919L157.279 242.269L158.585 246.2L162.775 246.382C162.984 246.393 163.196 246.411 163.416 246.403C169.135 246.27 174.929 246.315 180.534 246.356C186.869 246.402 193.419 246.452 199.823 246.247C201.088 246.205 202.349 246.185 203.6 246.185C219.987 246.185 235.193 249.666 248.854 256.553L254.477 259.54L258.82 257.248C272.906 249.598 288.673 245.912 305.652 246.304Z"/><path d="M233.211 96.406L234.972 95.8986L233.66 93.7184C233.27 93.0887 232.84 92.4105 232.336 91.6403C212.018 60.4361 183.147 44.1103 146.522 43.1137C145.791 43.0844 145.06 43.0702 144.333 43.0702C138.978 43.0702 133.762 43.8131 129.206 44.5298C106.217 48.1442 84.7825 60.7788 68.8509 80.1045C52.9082 99.4444 44.6654 122.842 45.6398 145.99C46.9285 176.58 58.8363 201.736 81.0326 220.761C97.6778 235.03 116.862 243.243 138.053 245.175L142.624 245.608L142.395 244.612C142.234 243.67 141.954 242.481 141.583 240.987C136.587 220.842 136.54 201.498 141.444 183.492C153.907 137.723 183.611 108.729 229.731 97.3157C230.923 97.0206 232.171 96.7062 233.211 96.406Z"/><path d="M437.504 211.316C454.327 191.919 463.592 166.748 463.598 140.436C462.456 109.864 448.742 83.5229 423.937 64.2547C401.196 46.5907 373.43 39.5447 345.759 44.4034C317.294 49.4057 292.77 66.1954 276.704 91.6807C275.799 93.117 275.231 94.0621 274.806 94.8393L274.167 96.0048L275.303 96.3252C276.147 96.5647 277.213 96.8204 278.763 97.155C310.052 103.937 336.523 122.444 353.299 149.267C370.271 176.402 375.352 208.811 367.607 240.526C367.178 242.283 366.861 243.608 366.676 244.64L366.491 245.673L372.7 245.187C373.086 245.171 373.472 245.148 373.856 245.107C398.265 242.495 420.87 230.495 437.504 211.316Z"/><path d="M274.43 433.141C291.776 412.723 300.023 387.168 297.617 361.176C292.84 309.327 250.415 270.219 198.932 270.18L143.502 270.121H143.088C109.384 270.121 79.7447 257.698 52.4344 232.142C49.1587 229.067 45.9224 225.753 42.6665 222.122V344.171C42.6665 409.709 93.4789 464.67 158.341 469.314L166.274 469.333C180.679 469.274 194.295 468.64 207.891 467.765C232.853 466.159 257.105 453.538 274.43 433.141Z"/><path d="M354.21 469.293C418.521 464.67 469.333 409.709 469.333 344.171V222.122C466.078 225.753 462.841 229.067 459.565 232.123C432.275 257.698 402.596 270.121 368.892 270.121H368.478L313.047 270.18C303.814 270.2 294.835 271.409 286.212 273.811C290.769 277.858 295.268 282.283 299.275 287.384C328.973 325.182 336.273 367.426 320.962 412.943C314.114 433.201 302.57 450.603 286.547 464.789C292.407 466.417 298.229 467.39 304.07 467.765C317.704 468.64 331.281 469.274 344.898 469.333L354.21 469.293Z"/></svg>