<svg width="512" height="512" viewBox="0 0 512 512" fill="none" xmlns="http://www.w3.org/2000/svg"><path fill-rule="evenodd" clip-rule="evenodd" d="M275.769 48.3051C282.046 52.091 287.248 57.5819 290.835 64.2073L463.989 384.061C475.083 404.554 468.338 430.66 448.924 442.37C442.806 446.059 435.882 448 428.837 448H82.5283C60.1682 448 42.0417 428.867 42.0417 405.264C42.0417 397.827 43.8804 390.519 47.3761 384.061L220.53 64.2073C231.624 43.7147 256.355 36.595 275.769 48.3051ZM255.685 85.4101L82.5313 405.264H225.478L256 298.667H213.333L234.831 213.334H298.667L277.333 277.334H320L225.509 405.264H428.84L255.685 85.4101Z"/></svg>