<svg width="512" height="512" viewBox="0 0 512 512" fill="none" xmlns="http://www.w3.org/2000/svg"><path fill-rule="evenodd" clip-rule="evenodd" d="M56.5492 273.775C57.3901 258.603 63.6056 243.674 75.1957 232.083L232.079 75.2001C243.67 63.609 258.601 57.3934 273.774 56.5534L264.837 47.6164C248.175 30.954 221.16 30.954 204.497 47.6164L47.614 204.5C30.9516 221.162 30.9516 248.177 47.614 264.84L56.5492 273.775ZM307.503 464.387C290.841 481.05 263.826 481.05 247.163 464.387L90.2801 307.504C73.6177 290.841 73.6177 263.826 90.2801 247.164L247.163 90.2806C263.826 73.6182 290.841 73.6183 307.503 90.2806L464.387 247.164C481.049 263.826 481.049 290.841 464.387 307.504L307.503 464.387ZM256.295 287.338H298.668V192H256.295V287.338ZM300.075 331.79C300.075 318.834 290.329 309.333 277.334 309.333C264.34 309.333 254.594 318.834 254.594 331.502C254.594 344.745 264.044 354.246 277.334 354.246C290.329 354.246 300.075 344.745 300.075 331.79Z"/></svg>