<svg width="512" height="512" viewBox="0 0 512 512" fill="none" xmlns="http://www.w3.org/2000/svg"><path fill-rule="evenodd" clip-rule="evenodd" d="M448 323.3L469.918 320.181V352.181L447.94 369.79C447.979 370.965 448 372.147 448 373.333C448 426.353 407.407 469.333 357.333 469.333C307.26 469.333 266.667 426.353 266.667 373.333C266.667 369.978 266.829 366.662 267.147 363.396C263.533 362.914 259.795 362.667 256 362.667C252.205 362.667 248.467 362.914 244.804 363.394C245.171 366.677 245.333 369.986 245.333 373.333C245.333 426.353 204.74 469.333 154.667 469.333C104.593 469.333 64 426.353 64 373.333L64.1066 369.152L42.6666 352V320L64 323.036L77.888 325.013L79.6531 323.657C87.998 317.472 97.0545 312.29 106.667 308.277C121.53 302.074 137.723 298.667 154.667 298.667C182.136 298.667 207.63 307.622 228.687 322.925C237.478 321.009 246.622 320 256 320C265.378 320 274.519 321.009 283.324 322.923C304.369 307.622 329.865 298.667 357.333 298.667C374.278 298.667 390.47 302.074 405.333 308.277C415.753 312.625 425.517 318.347 434.432 325.229L448 323.3ZM72.3718 302.679C82.9597 295.524 94.4655 289.7 106.667 285.446V106.667H405.333V285.446C417.66 289.743 429.276 295.644 439.953 302.897L448 301.751V64H64V301.489L72.3718 302.679ZM384 277.333H357.333H320V234.667H384V277.333ZM128 277.333H154.667H192V234.667H128V277.333ZM192 149.333H128V192H192V149.333ZM224 149.333H288V192H224V149.333ZM384 149.333H320V192H384V149.333ZM288 234.667H224V277.333H288V234.667ZM110.597 354.144C123.869 345.792 138.943 341.333 154.667 341.333L159.882 341.498C173.717 342.372 186.939 346.72 198.737 354.142L199.659 354.773L199.791 355.108C201.679 360.86 202.667 366.991 202.667 373.333C202.667 403.317 180.614 426.667 154.667 426.667C128.72 426.667 106.667 403.317 106.667 373.333L106.85 368.619C107.216 363.951 108.126 359.424 109.54 355.113L109.653 354.773L110.597 354.144ZM313.263 354.144C326.537 345.792 341.611 341.333 357.333 341.333L362.549 341.498C376.384 342.372 389.606 346.72 401.404 354.142L402.325 354.773L402.458 355.108C404.346 360.86 405.333 366.991 405.333 373.333C405.333 403.317 383.281 426.667 357.333 426.667C331.386 426.667 309.333 403.317 309.333 373.333L309.517 368.619C309.884 363.951 310.792 359.424 312.207 355.113L312.32 354.773L313.263 354.144Z"/></svg>