<svg xmlns="http://www.w3.org/2000/svg" width="512" height="512" viewBox="0 0 512 512"><path fill-rule="evenodd" d="M256,213.333333 L256,384 L1.42108547e-14,384 L1.42108547e-14,213.333333 L256,213.333333 Z M213.333333,277.333333 L128,277.333333 L128,341.333333 L213.333333,341.333333 L213.333333,277.333333 Z M85.3333333,277.333333 L42.6666667,277.333333 L42.6666667,341.333333 L85.3333333,341.333333 L85.3333333,277.333333 Z M405.333333,106.666667 L405.333333,277.333333 L277.333,277.333 L277.333333,234.666667 L362.666667,234.666667 L362.666667,170.666667 L277.333333,170.666667 L277.333333,192 L234.666,192 L234.666667,170.666667 L192,170.666667 L192,192 L149.333,192 L149.333333,106.666667 L405.333333,106.666667 Z M256,1.42108547e-14 L256,85.333 L213.333,85.333 L213.333333,64 L128,64 L128,170.666 L1.42108547e-14,170.666667 L1.42108547e-14,1.42108547e-14 L256,1.42108547e-14 Z M85.3333333,64 L42.6666667,64 L42.6666667,128 L85.3333333,128 L85.3333333,64 Z" transform="translate(64 64)"/></svg>