<svg width="512" height="512" viewBox="0 0 512 512" fill="none" xmlns="http://www.w3.org/2000/svg"><path fill-rule="evenodd" clip-rule="evenodd" d="M320 42.6641H85.3333V277.331H128H384H426.667V149.331L320 42.6641ZM412.994 379.139C416.045 380.675 418.946 382.467 421.656 384.515C429.08 390.19 432.77 398.83 432.77 410.478C432.77 424.195 428.12 434.606 418.754 441.667C410.797 447.619 399.661 450.606 385.304 450.606C370.37 450.606 356.056 448.195 342.36 443.374L346.541 418.777C361.176 424.942 373.592 427.993 383.789 427.993C390.402 427.993 395.288 426.371 398.424 423.129C401.133 420.291 402.498 416.835 402.498 412.718C402.498 409.049 401.154 406.19 398.509 404.142C395.864 402.073 389.314 398.937 378.882 394.649C371.181 391.449 365.741 389.059 362.562 387.502C359.405 385.923 356.482 384.153 353.837 382.169C346.306 376.558 342.552 368.473 342.552 357.934C342.552 348.825 345.005 340.846 349.976 333.977C357.549 323.31 370.029 317.977 387.394 317.977C399.917 317.977 413.549 320.281 428.269 324.931L422.466 348.441C413.805 345.241 407.256 343.15 402.904 342.105C398.53 341.081 393.965 340.569 389.208 340.569C383.789 340.569 379.629 341.785 376.813 344.174C373.869 346.777 372.376 350.062 372.376 354.03C372.376 357.465 373.634 360.174 376.13 362.137C378.626 364.099 384.664 367.043 394.178 370.947C403.629 374.873 409.901 377.603 412.994 379.139ZM149.139 362.002L179.347 320.231H212.35L165.801 383.335L212.883 448.359H178.089L147.71 405.586L117.481 448.359H83.4115L130.793 382.61L85.7581 320.231H119.315L149.139 362.002ZM237.696 320.231V448.359H321.6V425.746H266.56V320.231H237.696Z"/></svg>