<!--
SPDX-FileCopyrightText: 2024 Siemens AG

SPDX-License-Identifier: MIT

This source code is licensed under the MIT license found in the
LICENSE file in the root directory of this source tree.
-->
<svg xmlns="http://www.w3.org/2000/svg" width="24" height="24" viewBox="0 0 24 24" fill="none">
  <path d="M15.4777 10.6697C17.2704 10.6697 18.5529 11.1515 19.3253 12.1152C19.6371 12.512 19.8514 12.9726 19.9683 13.4969C20.0853 14.0213 20.1437 14.8078 20.1437 15.8565V19.1727C20.1437 20.349 20.1791 21.2914 20.25 22H17.8373L17.7416 20.7352C17.2243 21.2878 16.7053 21.6776 16.1845 21.9043C15.6637 22.1311 15.0419 22.2444 14.3191 22.2444C13.1712 22.2444 12.289 21.9397 11.6726 21.3304C11.049 20.7281 10.7372 19.9132 10.7372 18.8857C10.7372 17.4969 11.3006 16.4765 12.4272 15.8246C13.1358 15.4137 14.2554 15.2082 15.7859 15.2082C16.1898 15.2082 16.7956 15.2294 17.6034 15.2719V15.07C17.6034 13.3907 16.785 12.551 15.1482 12.551C14.2199 12.551 13.2208 12.8592 12.1509 13.4757L11.4706 11.6475C12.7602 10.9956 14.0959 10.6697 15.4777 10.6697ZM16.4555 16.8131C15.4281 16.8131 14.6876 16.9548 14.2341 17.2383C13.6601 17.5997 13.3732 18.1311 13.3732 18.8326C13.3732 19.3357 13.5291 19.7414 13.8408 20.0496C14.1526 20.3578 14.5707 20.5119 15.095 20.5119C16.0658 20.5119 16.9019 19.9947 17.6034 18.9601V16.8663C17.1854 16.8308 16.8027 16.8131 16.4555 16.8131ZM10.4669 2.00305L13.4552 9.90413C12.3411 10.1382 11.2556 10.575 10.199 11.2165L10.752 12.7021L6.16993 12.703L4.63531 17H2L7.54579 2.00305H10.4669ZM8.98516 4.51136C8.77349 5.25221 8.49126 6.11301 8.13847 7.09375L6.87903 10.6498H11.0807L9.82126 7.09375C9.52492 6.24707 9.24622 5.38627 8.98516 4.51136Z" />
</svg>
