<!--
SPDX-FileCopyrightText: 2024 Siemens AG

SPDX-License-Identifier: MIT

This source code is licensed under the MIT license found in the
LICENSE file in the root directory of this source tree.
-->
<svg xmlns="http://www.w3.org/2000/svg" width="19" height="10" viewBox="0 0 19 10" fill="none">
  <path d="M2.87649 9.8334V2.43154L1.00727 3.5981L0.0249023 1.98129L3.11526 0.166644H4.98448V9.8334H2.87649ZM10.0244 -0.00390625C11.498 -0.00390625 12.5463 0.560045 13.1694 1.68795C13.5878 2.45201 13.797 3.55717 13.797 5.00343C13.797 6.58613 13.54 7.76633 13.0261 8.54404C12.3848 9.51731 11.3843 10.0039 10.0244 10.0039C8.55543 10.0039 7.50712 9.43999 6.87949 8.31209C6.46108 7.55258 6.25187 6.42922 6.25187 4.94203C6.25187 3.39572 6.50883 2.2337 7.02275 1.456C7.66402 0.482729 8.66458 -0.00390625 10.0244 -0.00390625ZM10.0244 1.70159C9.48322 1.70159 9.08186 1.96765 8.82035 2.49976C8.55884 3.03188 8.42808 3.85279 8.42808 4.9625C8.42808 6.11314 8.55543 6.95224 8.81011 7.47981C9.0739 8.02557 9.47867 8.29845 10.0244 8.29845C10.5702 8.29845 10.9727 8.03125 11.2319 7.49687C11.4912 6.96248 11.6208 6.13133 11.6208 5.00343C11.6208 3.87098 11.4957 3.04325 11.2456 2.52023C10.9818 1.97447 10.5747 1.70159 10.0244 1.70159ZM16.7126 9.8334V2.43154L14.8433 3.5981L13.861 1.98129L16.9513 0.166644H18.8206V9.8334H16.7126Z" />
</svg>
