<svg xmlns="http://www.w3.org/2000/svg" width="24" height="24" viewBox="0 0 24 24">
  <path
    d="M20.9350207,2.97833472 C20.9534819,2.98905726 20.968955,3.00424386 20.9800207,3.02250141 C21.8985902,4.78183815 22.2086203,6.79586125 21.8616878,8.75000391 C20.9688033,14.3477908 16.1601105,18.4786917 10.4925161,18.5175082 C9.93668367,18.5391388 9.38007553,18.5056419 8.83084874,18.4175081 C6.46405008,18.0155035 4.699446,16.0151328 4.59584689,13.6166727 C4.60615551,10.9066345 6.79582125,8.70978696 9.50581119,8.69060442 C12.2158011,8.67142188 14.4363465,10.8370519 14.4850179,13.5466727 C14.5058512,14.3658397 14.1508511,15.0850067 13.4208507,15.10584 C12.6408504,15.10584 12.2758502,14.5491731 12.2758502,13.8000061 L12.2758502,11.7166719 C12.276785,11.0149628 11.7108746,10.4442124 11.009183,10.4391713 L9.2625156,10.4391713 C7.86314523,10.4299693 6.63827173,11.3772524 6.29526072,12.7339637 C5.95224971,14.090675 6.57972547,15.5062789 7.81532014,16.1632628 C9.05091481,16.8202468 10.5753859,16.5488648 11.5083499,15.5058402 L11.5691833,15.4141735 L11.63085,15.5150069 C12.0573162,16.0945638 12.7454334,16.4223578 13.4641841,16.3883406 C14.776128,16.2930683 15.7727091,15.1689101 15.7100184,13.8550061 C15.7162244,13.3126675 15.6554877,12.7716352 15.529185,12.2441721 C14.8602502,9.15694561 11.9676449,7.07358801 8.8275452,7.41741178 C5.68744545,7.76123554 3.31420526,10.4211744 3.32917967,13.580006 C3.36935312,16.9400006 6.06000953,19.6663704 9.41918233,19.7508421 C9.41918233,19.7508421 9.87668253,19.7925087 10.3916828,19.7800087 C12.8983714,19.7642681 15.3484992,19.0334217 17.4541858,17.6733411 C17.4841859,17.6525078 17.5141859,17.6941745 17.4941859,17.7241745 C15.4193058,19.9591621 12.4655832,21.1671707 9.41918233,21.0266759 C7.43081146,21.0628407 5.51405061,20.2847424 4.11350409,18.8728656 C2.71295757,17.4609889 1.95032817,15.538021 2.00251242,13.550006 C2.00349136,11.1719237 3.12618565,8.93363886 5.03168041,7.5108367 C6.2946242,6.58089572 7.82080869,6.07712934 9.38918232,6.07250274 L11.73335,6.07250274 C13.5849399,6.07110604 15.3506784,5.29150785 16.5991855,3.92416847 C16.6121649,3.90976129 16.6293789,3.89984136 16.6483522,3.89583512 C16.687722,3.88745339 16.7280303,3.90525619 16.7483522,3.94000181 C16.7582089,3.956866 16.7625773,3.97637804 16.7608522,3.99583517 C16.6615851,5.04928558 16.3109309,6.06352477 15.7383518,6.95333646 C15.7296448,6.96849881 15.7255877,6.98588644 15.7266851,7.00333648 C15.7295525,7.03942215 15.7533879,7.07044076 15.7875184,7.08250318 C15.8040526,7.08860295 15.8220042,7.08976111 15.8391851,7.08583652 C18.0334591,6.59013721 19.8621127,5.08218607 20.7666873,3.02250141 C20.7780417,3.00418646 20.7937979,2.98900325 20.8125206,2.97833472 C20.8505555,2.95695512 20.8969858,2.95695512 20.9350207,2.97833472 Z M11.1108497,11.6866719 C11.1784516,11.6900163 11.2325054,11.74407 11.2358498,11.8116719 L11.2358498,13.5133393 C11.2358498,14.520339 10.4195153,15.3366735 9.41251566,15.3366735 C8.40551603,15.3366735 7.58918153,14.520339 7.58918153,13.5133393 C7.58918153,12.5063397 8.40551603,11.6900052 9.41251566,11.6900052 Z" />
</svg>