<svg width="512" height="512" viewBox="0 0 512 512" fill="none" xmlns="http://www.w3.org/2000/svg">
<g clip-path="url(#clip0_778_6311)">
<rect width="512" height="512" rx="24" fill="#00C1B6"/>
<g clip-path="url(#clip1_778_6311)">
<path d="M165.341 410.064L274.498 253.569L170.744 103.774H233.213L308.218 212.716L385.168 103.774H445.908L339.128 253.785L448.069 410.064H383.655L306.489 297.232L228.025 410.064H165.341Z" fill="#000028"/>
<path d="M121.972 113.078C116.064 107.026 108.427 104 99.06 104C89.8375 104 82.2001 107.026 76.1478 113.078C70.0955 119.131 67.0693 126.768 67.0693 135.991C67.0693 145.646 70.0234 153.571 75.9316 159.768C81.9839 165.82 89.7654 168.846 99.2762 168.846C108.499 168.846 116.064 165.82 121.972 159.768C128.025 153.571 131.051 145.79 131.051 136.423C131.051 126.912 128.025 119.131 121.972 113.078Z" fill="#000028"/>
<path d="M73.1479 410.063V203.039H124.809V410.063H73.1479Z" fill="#000028"/>
</g>
</g>
<defs>
<clipPath id="clip0_778_6311">
<rect width="512" height="512" rx="24" fill="white"/>
</clipPath>
<clipPath id="clip1_778_6311">
<rect width="512" height="512" fill="white"/>
</clipPath>
</defs>
</svg>
