<!--
SPDX-FileCopyrightText: 2024 Siemens AG

SPDX-License-Identifier: MIT

This source code is licensed under the MIT license found in the
LICENSE file in the root directory of this source tree.
-->
<svg xmlns="http://www.w3.org/2000/svg" width="24" height="24" viewBox="0 0 24 24" fill="none">
  <path d="M11.8087 4.09033C12.0902 4.16077 12.2775 4.26306 12.3541 4.36121C12.4494 4.48315 12.4986 4.82373 12.3514 5.41406C12.1275 6.31177 11.8302 7.52295 11.8302 7.52295L11.222 9.99988H13.7725H16.709C17.2732 9.99988 17.7569 10.2034 18.0708 10.5725C18.4249 10.9893 18.5591 11.6211 18.4508 12.3563L18.4424 12.4059C17.8645 15.8041 17.4079 17.4032 17.1268 18.1459C16.7418 19.1603 16.2953 19.9999 14.7236 19.9999C14.5203 19.9999 14.3031 19.9856 14.0775 19.9573L5 18.327V12.155L8.23227 10.2904L8.7382 9.99854L9.00753 9.48022C9.00754 9.48022 10.8326 5.96851 11.8087 4.09033ZM11.0007 2.00098C10.88 2.00098 10.7581 2.00439 10.6356 2.01099C10.6353 2.01099 7.23287 8.55798 7.23287 8.55798L3 10.9999V19.9999L13.7725 21.9344C14.1113 21.9794 14.4277 21.9999 14.7236 21.9999C17.8047 21.9999 18.6572 19.7499 18.9971 18.8544C19.6592 17.1053 20.209 13.9473 20.4141 12.7412L20.416 12.7344C20.6357 11.3862 20.3438 10.1587 19.5947 9.27734C18.9102 8.47217 17.8857 7.99988 16.709 7.99988H13.7725C13.7725 7.99988 14.0688 6.79272 14.292 5.89807C14.9901 3.09863 13.1764 2.00098 11.0007 2.00098Z" />
</svg>
